<svg xmlns="http://www.w3.org/2000/svg" width="357.1" height="187.3" style="overflow:visible;enable-background:new 0 0 357.1 187.3" xml:space="preserve">
    <style>
        .st1{fill:#7f4924}.st2{fill:#cea284}.st3{fill:#fed5b7}.st4{fill:#dc4345}.st5{fill:#a32b31}.st7{fill:#512b11}
    </style>
    <path d="M37 162.5 1.1 180.8c-1.8.9-1.3 4.1.7 4.2 49.3 1.1 294.2 3.4 353.9 1.7.6 0 1.2-.2 1.5-.7.3-.5-21.9-23.7-29.9-23.2-65.3 3.7-290.3-.3-290.3-.3z" style="fill:#6da8c6"/>
    <path class="st1" d="M147.9 32.2c-4.1.8-7.5 3.6-10.4 6.5-2.4 2.4-4.8 5.1-6.1 8.2-3 6.8-.9 14.8 2.3 21.5 1.4 2.9 3.1 6 2.7 9.2-.3 2.7-2.1 5.1-3.3 7.5-1.2 2.5-1.9 5.7-.2 7.8 1.7 2.1 5 2.5 6.2 4.9 1.3 2.7-1.1 5.6-2.6 8.3-2.4 4.4-2.1 10.1.8 14.1.8 1.1 1.7 2.1 3 2.6 1.6.7 3.5.4 5.3.2 1.9-.3 3.8-.6 5.6-.9.4-.1.9-.1 1.2-.4.3-.2.5-.6.7-1 .7-1.6 1.5-3.2 2.2-4.8.8 1.4 1.7 2.8 2.5 4.2l9.3-2.4c.4-.1.7-.2 1-.4.4-.3.5-.7.7-1.2.5-1.4 1-2.7 1.5-4.1.9 1.9 2.1 3.6 3.5 5.1 12.7-4.2 24-12.5 31.9-23.4-2.4-4.4-4.8-8.8-7.1-13.1-.9-1.6-1.7-3.2-2-5-.6-4.2 2.3-8.5 1-12.5-1.1-3.2-4.5-4.9-7.3-6.9-3-2.2-5.5-5-7.2-8.3-1.4-2.6-2.3-5.4-3.7-7.9-1.4-2.6-3.5-4.9-6.4-5.7-2.8-.8-6 .1-8.7-1-1.5-.7-2.7-1.9-4.1-2.7-3.1-1.9-7.2-1.7-10.1.4l-2.2 1.2z"/>
    <path class="st2" d="M64.6 136.4c-3.9 1.1-7.6 2.7-11.1 4.8-.6-.2-.6-1.1-.3-1.6 1.9-3.7 6.7-4.5 10.8-4.8.3 0 .6 0 .9.1.3.2.3.7 0 .8l-.3.7z"/>
    <path class="st3" d="M48.8 138.6c-1.6 3.3-3.3 6.6-4.9 9.9-.7 1.4-1.4 2.9-1.6 4.4-.4 3.1 1.3 6.1 2.4 9.1 1.1 3.1 1.5 6.5 1.2 9.8-.3 3.2-1.1 6.9 1.2 9.1 2.1 2 5.5 1.3 8.3.5 9.8-2.8 19.9-5.8 30.2-5.1 2.7.2 5.3.6 8 .7 8 .5 17.1-.1 24.1-4.1-2.5-4.6-4.6-10.3-5.9-15.3-9.6 3.3-20.4 5-30.6 5.9-7.1.6-14.9.5-20.7-3.7-4.1-3-6.7-7.5-9.1-12-.5-.9-1-1.7-1-2.7-.1-1.7 1-3.2 1.7-4.7.8-1.9-1.7-3.5-3.1-2l-.2.2z"/>
    <path class="st2" d="M116.3 6.7c-2.1.6-4.3 1.2-5.6 3 2.2 0 4.4-.3 6.5-.9-1.2.6-2.5 1.1-3.7 1.7 1.7 1 3.8.2 5.6-.5 3.8-1.4 7.9-2.3 11.9-2.7 0-.9 0-2.1-.9-2.5-.3-.2-.7-.2-1-.2-4.1-.1-8.2.4-12.1 1.5l-.7.6z"/>
    <path class="st3" d="M137.4 54c2.6 4.2 7.7 12.6 7.7 12.6l-3.9 3.9 6.9.6s2.5 2.7 3.7 4.2c1.2 1.4 2.8 2.7 4.7 2.7 3 0 4.9-3.4 7.5-4.8 2.3 2 4.6 3.9 7.1 5.7.4.3.8.5 1.2.5.4 0 .7-.2 1-.4 4.5-3 7.3-8.3 7.5-13.7-4.3-3.4-8.1-7.3-11.4-11.6 2.1.2 3.5-2.5 3.1-4.6-.4-2-2-3.8-4-4.4-2-.6-4.3 0-5.8 1.5-2.2-2.6-4.3-5.2-6.5-7.8L137.4 54z"/>
    <path class="st3" d="M178.8 68.1c2.8-13.5 4.6-30.1 1.1-43.5-.5-1.9-1.1-3.8-2.4-5.2-1.1-1.1-2.6-1.7-4-2.2-9-3.6-18.1-7.2-27.1-10.8-1.2-.5-2.5-1-3.8-.9-1.8.1-3.4 1.2-5 1.9-4.2 2-10.6 3.8-15.8 4-.8 0-1.2-1-.6-1.5l8.5-3.8c-1.3.3.4-1.4-20.9 3.1-.3.1-.5-.4-.2-.5 18-11.4 41.5-9.9 62.5-5.5 4.1.9 8.3 1.9 11.8 4.2 7 4.5 10.1 13.1 12.6 21.1 4.1 13.5 7.9 27.4 15.7 39.2 4 6 8.9 11.4 12.8 17.4 9.5 14.5 12.9 32.1 16 49.2-15-.2-30.1-1.4-45-3.6.9-4.9.1-10.1-2.3-14.4-5.6-10.4-18.7-14.9-30.5-13.9s-22.7 6.3-33.6 10.9c-15.3 6.5-31.1 11.8-47.1 16-2 .5-4.1 1.1-5.9 2.2-2 1.3-3.5 3.2-5.3 4.8-3.4 3.2-12.9 8.6-12.3 6.1l5.7-6.2c-8.3.1-11.4 1.5-15.8 3.2-.6.2-1.1-.5-.7-1 3.3-3.8 7.3-7.1 12-8.8 2.6-1 5.4-1.5 8.1-2.4 11.7-3.7 20.6-13.1 31.6-18.5 10.8-5.3 23.2-6.5 34.1-11.7 8.4-4 15.6-10.3 24.1-14.1 7.2-3.3 16.3-5.6 19.1-13l2.6-1.8z"/>
    <path class="st4" d="M166 79c1.7 5.3 4.1 10.5 8 14.5 3.9 4 9.3 6.7 14.9 6.4 5.6-.4 11-4.2 12.3-9.7.9-4-.4-8.2-2.2-12-4.2-8.7-10.9-16.1-19.2-21 .4-.4.7-.9 1.1-1.3 5.7 2.8 18.7 15.9 23.6 19.3 5 3.4 11.2 5.8 17 4.2 2.6 3.3 4.6 7.4 7.3 10.7-8.6 13.1-21 22.7-35.7 28.1-1.5-2.9-5.3-3.2-8.4-4.2-3.1-1-5.7-3.2-7.3-6-1.5-2.6-2.1-5.6-3.2-8.5-1.1-2.9-2.7-5.6-4.4-8.3-2.3-3.7-2.7-8-4.9-11.8l1.1-.4z"/>
    <path class="st5" d="M195.5 129.5c-2.1 2.7-2.8 6.7-5.9 8.3-1.1.5-2.3.7-3.4.8-13.2 1.7-26.2 4.9-38.7 9.6-2.5.9-4.9 1.9-7.5 2.4-3.1.6-6.2.5-9.2 1.3-3.6 1-8.7 3.3-12.4 4-6.9 1.3-11.7 2.9-11.6 2.7 2 5.7 3.9 11.3 5.9 17 8.7-1.6 17.4-3.3 26.3-3.7 10.5-.4 21.1.9 31.6-.5 5.7-.8 11.2-2.4 16.8-3.7 11.1-2.7 22.4-4.7 33.8-5.7 1 5.2 2.1 10.4 3.1 15.6 6.9.1 27.4 3.2 33.8.8 3.8-1.4 17.5-6.7 19.3-10.3 1.5-3 1-9.5-.5-12.4-1.5-3-4.1-5.3-7-6.9-.9-.5-26.2-6.4-26.4-7.3-1.1-4.1-2-3.7-3.1-7.9l-44.9-4.1z"/>
    <path class="st3" d="M223.9 158.8c-.8 6.3-.6 12.6.6 18.8-2.9-.1-5.6-1.2-8.4-2-14.9-4.4-30.7-3.5-46.2-2.5-.8 0-1.1-1-.4-1.3-.6.3-1.3.6-2 .5-.7-.1-1.3-.9-.9-1.5-1.1.4-2.5 0-3.2-1-.7-1-.5-2.5.3-3.3 1.6-1.6 4.4-.7 6.4-1.7 1.3-.6 2.2-1.9 3.6-2.5 3-1.3 6.1 1.5 9.4 1.7 2.9.2 5.4-1.7 7.9-3.2 2.5-1.4 5.9-2.3 8.1-.4.8.7 1.4 1.8 2.3 2.4 1.1.6 2.4.5 3.6.3 6.3-1.2 12.2-4.9 18.7-4.9l.2.6z"/>
    <path class="st1" d="M165.8 170.9c1.4.6 3.2.3 4.3-.8.3-.3-.2-.8-.5-.5-.9.9-2.3 1.2-3.4.7-.2-.1-.4 0-.5.1-.1.2-.1.5.1.5zm3 1.5c1.2.3 2.6 0 3.5-1 .3-.3-.2-.8-.5-.5-.7.8-1.9 1.1-2.9.8-.4-.1-.5.6-.1.7zm30.3-7c.8 1.8 3.3 2.3 4.8 1.1.1-.1.1-.4 0-.5-.1-.1-.3-.1-.5 0-1.2.9-3.1.4-3.7-1-.1-.2-.3-.2-.5-.1-.1.2-.2.4-.1.5zM57.9 131.6c-2.9 1-5.9 2.1-8.3 4.2-.6.5-1.1 1-1.6 1.6-.4.5-.9 1.1-.7 1.8.1.3.3.5.7.6.4.1.9-.2 1.3-.4.9-.4 1.7-.7 2.6-1 2-.7 4.1-1.2 6.2-.9.4.1.6-.6.2-.7-1.7-.3-3.4 0-5.1.5-.8.2-1.7.5-2.5.9-.8.3-1.6.7-2.3 1-.3.1-.4 0-.4-.3.1-.3.3-.6.5-.8.4-.6.9-1.1 1.5-1.5 1.1-.9 2.3-1.7 3.6-2.3 1.5-.7 3-1.3 4.6-1.8.3-.4.1-1.1-.3-.9z"/>
    <path class="st1" d="M57.7 130.6c.4 1.1.9 2.3 1.3 3.4.1.2.2.3.4.2.2 0 .3-.2.2-.4-.4-1.1-.9-2.3-1.3-3.4-.1-.2-.2-.3-.4-.2-.1 0-.3.2-.2.4zm66-26.8c.7-.8 1.9-1.1 2.9-.8.4.1.6-.5.2-.7-1.3-.3-2.7 0-3.6 1-.3.3.2.8.5.5zm-79.3 54.8c2.5 3 3.8 7 3.7 10.9 0 .4.7.4.7 0 .2-3.2-.7-6.4-2.3-9.2-.5-.8-1-1.5-1.6-2.2-.3-.3-.8.2-.5.5zm165.3-41.5c1.3 3.5 1.5 7.4.5 11-.1.4.5.6.7.2 1-3.7.8-7.7-.5-11.3-.2-.5-.9-.3-.7.1zm-19.3-27.4c.6 1.3 1.4 2.4 2.3 3.4.3.3.8-.2.5-.5-.9-.9-1.7-2-2.2-3.2-.1-.2-.3-.2-.5-.1-.1 0-.2.2-.1.4zm-18.7-8.1c2.2 0 4.3-.6 6.2-1.8.4-.2 0-.8-.3-.6-1.7 1.1-3.7 1.7-5.8 1.7-.5 0-.5.7-.1.7zm12.8-16.1c0 1.3-.4 2.5-1 3.5-.2.4.4.7.6.3.7-1.2 1.1-2.5 1.1-3.9 0-.4-.7-.4-.7.1zM167 50.7c.4-1.2.7-2.5 1.1-3.7.1-.4-.5-.6-.7-.2-.4 1.2-.7 2.5-1.1 3.7-.1.5.6.7.7.2z"/>
    <path class="st1" d="M167.1 49.7c0-.1.1-.1 0 0 .1-.1.1-.1.2-.1 0 0 .1 0 .1-.1h.1c.1 0 .2-.1.3-.1h.6c.1 0 0 0 0 0h.1c.1 0 .2 0 .3.1h.1s.1 0 0 0h.1c.2.1.4 0 .5-.1.1-.2 0-.4-.1-.5-.8-.4-1.9-.3-2.6.3-.1.1-.1.4 0 .5 0 .1.2.1.3 0z"/>
    <path style="opacity:.4;fill:#7f4924" d="m164 73.2 8-7.4-4.7 10.1z"/>
    <path class="st1" d="M195.8 51.7c.8 3.5 1.8 7.3 4.6 9.7.3.3.8-.2.5-.5-2.7-2.4-3.6-6-4.4-9.4-.2-.4-.8-.3-.7.2zm-32.6 46.6c1.6-.2 3.3 0 4.8.6.4.2.6-.5.2-.7-1.6-.6-3.3-.8-5-.6-.4.1-.4.8 0 .7zm-27.5-46.4c.9 2.7 4.1 4.5 6.8 3.8 1.7-.4 3.1-1.6 4.7-2.4 2.2-1.2 4.8-1.9 7.2-1.4 2.4.6 4.6 2.5 5 5 1.3-1.1 2.8-2.4 3-4.1.2-1.7-.7-3.5.2-4.9 1.1-1.6 4-1.1 5.2-2.7 1.1-1.4.1-3.5-1.2-4.5-1.4-1.1-3.1-1.5-4.5-2.6-1.9-1.4-2.8-3.8-4.8-5.1-1.8-1.2-4.2-1.4-6.3-.8-2.1.6-4 1.7-5.8 3-4.8 3.3-9.4 7.9-9.7 13.7l.2 3z"/>
    <path class="st1" d="M139.4 37.4c-3.7 1.5-6.7 4.4-9.1 7.6-1.3 1.7-2.4 3.6-3.3 5.6-.9 2-1.4 4.2-1 6.4.3 2.3 1.5 4.3 2.2 6.5.6 2 .9 4.2.9 6.3-.1 2.1-.5 4.3-1.2 6.3-.4 1-.8 2-1.3 2.9-.5 1-1.1 1.9-1.6 2.9-.5.9-.9 1.9-1 3-.1.9-.1 1.8 0 2.7.3 1.8 1.3 3.5 2.6 4.7.3.3.7.6 1.1.8.4.2.7-.4.3-.6-1.5-.9-2.6-2.4-3.1-4.1-.6-1.8-.4-3.7.4-5.5.8-1.9 2.1-3.6 2.9-5.6.8-1.9 1.3-3.9 1.5-6 .2-2.1.1-4.2-.3-6.2-.2-1-.5-2.1-.9-3-.4-1-.8-2.1-1.2-3.1-.3-1-.6-2.1-.6-3.2s.2-2.2.5-3.2c.6-2.1 1.7-4 2.9-5.8 2.1-3.2 4.8-6.2 8.3-8 .4-.2.9-.4 1.3-.6.3-.3.1-1-.3-.8zM151 72.9c1.9-.7 3.3-2.4 3.7-4.3 0-.2 0-.4-.2-.4s-.4.1-.4.2c-.3 1.7-1.5 3.3-3.2 3.9-.5.1-.3.7.1.6z"/>
    <path d="M148.3 63.2c1 .5 2.2.6 3.1 0 .9-.5 1.5-1.4 1.6-2.4 0-.2-.2-.3-.3-.3-.2 0-.3.2-.3.3-.1.8-.6 1.5-1.2 1.8-.7.4-1.7.4-2.4 0-.5-.2-.8.4-.5.6z"/>
    <path class="st1" d="M145.4 57.2c.1.5.2 1 .4 1.5.3.4.8.8 1.3.6.5-.1.8-.6 1.1-1 .8-1 2.1-1.6 3.4-1.7-1-.4-2-.9-3.1-1-1.1-.1-2.3.2-2.9 1.1l-.2.5z"/>
    <path class="st7" d="M133.7 46.1c-.7 1.6-.4 3.4.3 4.9.7 1.6 1.9 2.9 3.1 4.1.3.3.8-.2.5-.5-2-2.2-4.6-5.1-3.3-8.3.1-.2-.1-.4-.2-.4-.2-.1-.4 0-.4.2zm2.9-.9c-.2 1.6.2 3.3 1.2 4.6 1 1.4 2.6 2.2 4.2 2.4 1 .1 1.9 0 2.8-.4.4-.2.2-.8-.2-.7-1.4.6-3 .5-4.4-.1-1.3-.6-2.3-1.8-2.8-3.2-.3-.8-.3-1.6-.2-2.5.1-.4-.5-.6-.6-.1zm9.6-3.3c1 2.9 3.7 5.1 6.8 5.3.4 0 .4-.6 0-.7-2.8-.2-5.3-2.2-6.1-4.8-.2-.4-.9-.2-.7.2zm24.7-1.5c.4-.2.9 0 1.3.2s.8.4 1.1.6c.8.4 1.5.8 2.2 1.3.7.5 1.3 1.1 1.7 1.8.5.8.7 1.7.7 2.7 0 1.2-.4 2.4-.7 3.6-.1.4.5.6.7.2.6-2.2 1.2-4.5.1-6.6-.9-1.7-2.6-2.8-4.2-3.6-.5-.2-1-.5-1.4-.7-.5-.2-1.1-.3-1.6 0-.6.1-.2.7.1.5z"/>
    <path class="st7" d="M173.6 44.3c1.3 1.4 2 3.3 1.8 5.2 0 .4.6.4.7 0 .2-2.1-.6-4.2-2-5.7-.3-.3-.8.1-.5.5zM139.7 75c.2 0 .2.4.2.5 0 .4-.2.9-.3 1.3-.3 1-.7 1.9-1 2.9-.6 1.8-.8 3.8.3 5.4.5.7 1.2 1.3 2.1 1.5.4.1.6-.6.2-.7-.8-.2-1.4-.7-1.9-1.4-.5-.8-.6-1.8-.5-2.7.1-1 .4-2.1.8-3 .4-1 .8-1.9 1-2.9.1-.7-.2-1.8-1.1-1.6-.5.2-.3.8.2.7zm3.6 3.5c-1.4 1.9-.6 4.9 1.5 5.8.2.1.4 0 .5-.1.1-.1 0-.4-.1-.5-1.8-.8-2.5-3.3-1.3-4.9.2-.3-.3-.7-.6-.3zm-.9 34c-.6 1.6-.7 3.4-.1 5 .3.8.6 1.6 1.1 2.2.5.7 1.2 1.2 2.1 1.1.4 0 .4-.7 0-.7-.8.1-1.4-.5-1.8-1.1-.4-.6-.7-1.3-.9-2-.4-1.4-.3-3 .2-4.4.2-.4-.4-.5-.6-.1zm4 .2c-.1 1.2-.1 2.5.3 3.6.4.9 1.1 1.7 2.1 2 .4.1.6-.5.2-.7-.8-.3-1.4-1-1.7-1.8-.4-1-.3-2.2-.2-3.2 0-.4-.6-.4-.7.1zm13.2-5.8c.1 1.7 1.2 3.2 2.8 3.9.2.1.4-.1.4-.2.1-.2-.1-.3-.2-.4-1.3-.5-2.2-1.9-2.3-3.2 0-.2-.1-.3-.3-.3-.3-.1-.4 0-.4.2zm-8.8-71.3c1.1-1.5 2.9-2.4 4.7-2.4 1.8 0 3.5.9 4.5 2.4.6.8 1 1.8 1 2.8 0 .4.7.4.7 0-.2-2-1.3-3.9-3-5-1.8-1.1-4-1.2-5.9-.4-1.1.5-2 1.2-2.7 2.1-.2.5.4.8.7.5z"/>
    <path class="st7" d="M154.3 38.3c.4-.6 1.3-.6 1.9-.6.8 0 1.5.2 2.2.5 1.2.6 2 2.1 1.5 3.5-.2.4.4.7.6.3.7-1.7-.2-3.6-1.7-4.4-.8-.5-1.8-.6-2.7-.6-.8 0-1.8.1-2.3.9-.3.4.3.8.5.4z"/>
    <path class="st4" d="M153.4 48.4c-.3 1.4-.5 2.8-.6 4.2 0 .4.7.4.7 0 0-1.3.2-2.7.5-4 .1-.4-.5-.6-.6-.2zm1.7.2c0 1.5-.3 3-.7 4.4-.1.4.5.6.7.2.4-1.5.7-3 .7-4.6 0-.4-.7-.4-.7 0z"/>
    <path class="st5" d="M194 133.5c5.7 1.5 11.6 2.4 17.5 2.9s11.8.6 17.8.7c3.5.1 6.9.1 10.4.2.4 0 .4-.7 0-.7l-18.1-.3c-5.9-.2-11.8-.5-17.6-1.4-3.3-.5-6.5-1.1-9.7-2-.5-.2-.7.4-.3.6zm30.2 24.7c4.8-1.5 9.8-2.3 14.7-3.1 5-.9 10-1.6 15.1-1.8 2.8-.1 5.7 0 8.5.3.4.1.4-.6 0-.7-5-.6-10.1-.4-15.2.2-5 .6-10 1.5-15 2.5-2.8.5-5.5 1.1-8.2 2-.5 0-.3.7.1.6z"/>
    <path class="st5" d="M256.6 151c-1.2.2-2.4.9-3.2 1.8-.1.1-.1.3 0 .5.1.1.4.1.5 0 .7-.9 1.8-1.4 2.9-1.7.2 0 .3-.3.2-.4-.1-.2-.3-.3-.4-.2zm-64.9-10.2c2.2 3.6 3.8 7.5 5 11.6.1.4.8.2.7-.2-1.2-4.1-2.8-8.1-5-11.8-.3-.3-.9.1-.7.4zm-82 18.3c1.4 1.2 2.1 3.2 2.8 4.9.9 2 1.7 4.1 2.6 6.1.5 1.2 1 2.3 1.5 3.5.1.2.3.2.5.1s.2-.3.1-.5c-.9-2.1-1.7-4.1-2.6-6.2-.4-1-.9-2.1-1.3-3.1l-1.2-2.7c-.5-.9-1-1.8-1.8-2.5-.4-.4-.9.1-.6.4zm119.2-1.7c-.6 4.8-.8 9.6-.5 14.5.1 1.4.2 2.7.4 4.1 0 .4.7.4.7 0-.5-4.8-.6-9.7-.3-14.5.1-1.4.3-2.7.4-4.1 0-.2-.2-.3-.3-.3-.3 0-.4.1-.4.3zm-82.6 8.2c.6 1 1 2.2 1.4 3.3.1.4.8.2.7-.2-.3-1.2-.8-2.4-1.4-3.5-.3-.3-.9 0-.7.4zm2.5 1c0 .9.1 1.9.1 2.8 0 .2.2.3.3.3.2 0 .3-.2.3-.3 0-.9-.1-1.9-.1-2.8 0-.2-.2-.3-.3-.3-.2-.1-.3.1-.3.3zm-17.2-10.3c1.8 0 3.7 0 5.5.1.4 0 .4-.7 0-.7-1.8 0-3.7 0-5.5-.1-.4.1-.4.7 0 .7zm60.3-39.3c5-2.9 10.1-5.8 14.9-9.1 4.8-3.2 9.4-6.8 13.4-10.8 2.3-2.3 4.4-4.8 6.2-7.4.3-.4-.3-.7-.6-.3-3.3 4.7-7.3 8.8-11.7 12.4-4.4 3.6-9.2 6.8-14.1 9.8-2.8 1.7-5.6 3.3-8.4 4.9-.5.2-.1.7.3.5zm.6-15.4c1-.3 2-.5 3-.8.8-.3 1.6-.7 2.2-1.2 1.4-1 2.5-2.3 3.2-3.9.2-.4-.4-.7-.6-.3-.7 1.5-1.7 2.8-3.1 3.7-.7.5-1.4.8-2.1 1.1-.9.3-1.9.5-2.9.8-.3.1-.1.8.3.6z"/>
    <path d="M327.4 168c2.7 2 5.2 4.2 7.6 6.6l1.8 1.8c.5.5 1 1.1 1.4 1.7.4.6.6 1.3.5 2-.1.5-.4 1-.7 1.4-.9.9-2.3 1.4-3.6 1.7-.4.1-.2.8.2.7 1.3-.3 2.5-.7 3.6-1.5 1-.8 1.6-2.1 1.2-3.4-.5-1.6-1.9-2.8-3-3.9-1.3-1.3-2.6-2.5-3.9-3.7-1.5-1.3-3.1-2.6-4.7-3.8-.4-.5-.8.1-.4.4zm-295.1 1.3c-3.6 1.5-7.2 3.3-10.6 5.2l-5.1 3c-.7.5-1.6.9-2.1 1.6-.5.6-.6 1.4 0 1.9.4.3.8.4 1.3.5.6.1 1.1.2 1.7.4 1.2.3 2.3.5 3.5.7.4.1.6-.6.2-.7l-5.7-1.2c-.3-.1-.7-.2-.7-.5s.2-.6.4-.8c.3-.3.6-.5 1-.8.4-.2.8-.5 1.2-.7 3.1-2 6.4-3.8 9.7-5.4 1.9-.9 3.8-1.8 5.7-2.6.2-.1.2-.3.1-.5-.2-.2-.4-.2-.6-.1zm261.7 8.3c2.5-1.5 5.3-2.8 8.3-2.3 1.5.2 2.9.8 4.3 1.4 1.4.5 2.9 1 4.4 1.3 1.5.2 3 .3 4.5 0 1.2-.2 2.5-.7 3.3-1.6.7-.8.8-1.8.3-2.7-.6-1-1.8-1.5-3-1.5-.7 0-1.3.1-1.9.3-.5.2-.9.6-.9 1.2s.5 1 .9 1.3c.6.3 1.3.4 1.9.1.4-.2.2-.8-.2-.7-.5.2-1 .1-1.4-.1-.2-.1-.7-.4-.5-.7.1-.4.7-.5 1-.6.5-.1 1.1-.1 1.6-.1.9.1 1.9.7 2.1 1.7.2.9-.5 1.7-1.3 2.1-1.1.6-2.3.9-3.5.9-1.4.1-2.8-.1-4.2-.5-1.3-.3-2.6-.8-3.9-1.3-1.3-.5-2.5-.9-3.9-1.1-3-.4-5.8 1-8.3 2.5-.3 0 .1.6.4.4z" style="fill:#204351"/>
</svg>
