<svg xmlns="http://www.w3.org/2000/svg" xmlns:xlink="http://www.w3.org/1999/xlink" width="173.2" height="323" style="overflow:visible;enable-background:new 0 0 173.2 323" xml:space="preserve">
    <style>
        .st0{fill:#fbd1b9}.st1{fill:#a8938e}.st2{fill:#512c13}.st2,.st3{clip-path:url(#SVGID_2_)}.st4{fill:#512c13}.st5{fill:#6a9899}.st6{fill:#512c13}.st6,.st7{clip-path:url(#SVGID_4_)}.st9{fill:#a46e4a}.st11{clip-path:url(#SVGID_6_)}.st12{fill:#706361}.st14{fill:#cc9c87}.st17{fill:#af9b74}
    </style>
    <path class="st0" d="M114.1 292.6c.2 4.1.2 8.2.2 12.3 0 .3 0 .7-.3.9-.1.1-.3.2-.5.2-3.1.6-6.2 1.2-9.2 1.9-.5-6.6-1.6-13.2-3.1-19.7l12.9 4.4z"/>
    <path class="st1" d="M115.3 303.9c.9-.2 1.8.1 2.4.8 1.7 2.2 2.9 4.9 1.6 7.2-.4.8-1.6 8.6-1.6 8.6l-4.8.3-.4-1c-1.2-2.7-4.6-3.7-7.1-2-2.4 1.6-5.3 3.4-7.6 4-3.2.9-6.6 1.1-9.8.4-2.3-.4-2.8-3.5-.7-4.6 3.7-2 8.4-2.8 10.7-6.3 1.3-1.9 1.7-4.3 3.5-5.7 2-1.7 5-1.3 7.5-1 1.9.4 4.7-.2 6.3-.7z"/>
    <defs>
        <path id="SVGID_1_" d="M115.3 303.9c.9-.2 1.8.1 2.4.8 1.7 2.2 2.9 4.9 1.6 7.2-.4.8-1.6 8.6-1.6 8.6l-4.8.3-.4-1c-1.2-2.7-4.6-3.7-7.1-2-2.4 1.6-5.3 3.4-7.6 4-3.2.9-6.6 1.1-9.8.4-2.3-.4-2.8-3.5-.7-4.6 3.7-2 8.4-2.8 10.7-6.3 1.3-1.9 1.7-4.3 3.5-5.7 2-1.7 5-1.3 7.5-1 1.9.4 4.7-.2 6.3-.7z"/>
    </defs>
    <use xlink:href="#SVGID_1_" style="overflow:visible;fill:#a8938e"/>
    <clipPath id="SVGID_2_">
        <use xlink:href="#SVGID_1_" style="overflow:visible"/>
    </clipPath>
    <path class="st2" d="M118.5 318.2c-2.4.2-4.7.4-7.1.7l.2 3.7 6.1-.6.8-3.8z"/>
    <g class="st3">
        <path class="st4" d="M85 320.3c2.6.7 5.2 1 7.8.9 2.6 0 5.3-.4 7.8-1.1 1.4-.4 2.8-1 4.3-1.1.3 0 .3.4 0 .5-1.3.1-2.6.6-3.8 1-1.3.4-2.6.7-3.9.9-2.6.4-5.3.5-7.9.2-1.5-.2-3-.4-4.4-.8-.3-.1-.2-.6.1-.5z"/>
    </g>
    <path class="st2" d="M92.7 321.3c-.4-2.4-2-6.3-4.2-5.5-.6.2-8.9 3.2-8.9 3.2l6.3 2.1 6.8.2z"/>
    <g class="st3">
        <path class="st4" d="M119.9 306.7c-.7.1-1.4.3-2.1.6-.6.3-1.1.8-1.6 1.3-1 1.2-1.6 2.7-1.8 4.3-.2 1-.2 2-.2 3 0 .3-.5.3-.5 0 0-1.9.2-3.8.9-5.5.6-1.4 1.5-2.7 2.8-3.4.8-.5 1.6-.7 2.4-.8.4 0 .4.5.1.5z"/>
    </g>
    <g class="st3">
        <path class="st4" d="M120.2 315.2c-1.6 1.2-3.8 1.2-5.7.8-2.3-.4-4.6-1.3-7-1.1-1.7.1-3.4.8-4.9 1.5-1.6.7-3.2 1.6-4.8 2.3-1.6.6-3.2 1.1-4.9 1.1-.2 0-.4 0-.7-.1-.3 0-.2-.5.1-.4 1.7.2 3.3-.2 4.9-.8 1.6-.6 3.2-1.5 4.7-2.2 1.6-.7 3.2-1.4 4.9-1.7 1-.2 2-.1 3 0 1.2.2 2.4.5 3.6.8 1.9.5 4.1.8 5.9-.1.2-.1.4-.2.6-.4.2-.3.5.1.3.3z"/>
    </g>
    <path class="st5" d="M99 305.8c1.4.5 2.6 1.5 3.3 2.8.4.6.7 1.3.9 2 .2.7.2 1.3 0 2-.1.3-.3.5-.6.7-.4.2-.7.1-1.1 0-.8-.3-1.5-.7-2.1-1.2-.3-.3-.6-.5-.9-.9-.2-.3-.5-.5-.6-.9-.1-.3 0-.7.3-.9.3-.2.7-.1 1 .1 1.2.6 1.6 2.2 1 3.3-.7 1.3-2.3 1.7-3.6 1.3-.7-.2-1.3-.7-1.7-1.3-.2-.3-.4-.6-.6-1-.1-.3-.2-.7 0-.9.3-.3.7-.2 1 0 .3.2.6.4.9.7.5.5.9 1.2 1.2 2 .2.7.3 1.5.1 2.3-.3.7-.9 1.2-1.7 1.3-.8.1-1.6-.3-2.2-.8-.7-.5-1.3-1.1-1.6-1.9-.2-.4-.2-.8-.1-1.1 0-.1.2-.2.3-.1.7.4 1 1.2.7 1.9-.3.7-1.2 1-1.9.7-.2-.1-.1-.5.2-.4.5.2 1.1 0 1.4-.5.2-.5 0-1.1-.5-1.4.1 0 .2-.1.3-.1-.1.7.3 1.4.8 1.9s1.1 1 1.7 1.2c.6.2 1.3.2 1.9-.2.5-.4.7-1.1.6-1.8-.1-1.3-.8-2.6-1.9-3.3-.2-.1-.7-.5-.8-.1-.1.3.1.6.3.8.3.5.7 1 1.2 1.3 1 .7 2.4.6 3.3-.2.4-.4.7-.9.7-1.4 0-.5-.2-1.1-.5-1.5-.2-.2-.4-.3-.6-.4-.2-.1-.6-.2-.7.2 0 .3.2.6.4.8.2.3.5.5.7.7.5.5 1.1.9 1.8 1.2.3.1.7.4 1 .3.2 0 .4-.2.6-.4.3-.5.2-1.1.2-1.6-.1-.6-.3-1.2-.6-1.8-.6-1.1-1.5-2.1-2.6-2.7-.3-.1-.6-.3-.8-.4-.5 0-.3-.4-.1-.3z"/>
    <path class="st4" d="M117.6 304c-.5 1.4-1.5 2.7-2.9 3.3-2.1 1-4.6.7-6.8.1-2.3-.6-4.5-1.4-6.9-1.2 1.3-2.1 4.2-2.8 6.7-2.8s5.1.4 7.5-.4c.6-.2 1.1-.4 1.7-.3.6.1 1 .9.6 1.3h.1z"/>
    <path class="st0" d="M74.2 293c.2 4.1.2 8.2.2 12.3 0 .3 0 .7-.3.9-.1.1-.3.2-.5.2-3.1.6-6.2 1.2-9.2 1.9-.5-6.6-1.6-13.2-3.1-19.7l12.9 4.4z"/>
    <path class="st1" d="M75.4 304.3c.9-.2 1.8.1 2.4.8 1.7 2.2 2.9 4.9 1.6 7.2-.4.8-1.6 8.6-1.6 8.6l-4.8.3-.4-1c-1.2-2.7-4.6-3.7-7.1-2-2.4 1.6-5.3 3.4-7.6 4-3.2.9-6.6 1.1-9.8.4-2.3-.4-2.8-3.5-.7-4.6 3.7-2 8.4-2.8 10.7-6.3 1.3-1.9 1.7-4.3 3.5-5.7 2-1.7 5-1.3 7.5-1 1.9.3 4.7-.3 6.3-.7z"/>
    <defs>
        <path id="SVGID_3_" d="M75.4 304.3c.9-.2 1.8.1 2.4.8 1.7 2.2 2.9 4.9 1.6 7.2-.4.8-1.6 8.6-1.6 8.6l-4.8.3-.4-1c-1.2-2.7-4.6-3.7-7.1-2-2.4 1.6-5.3 3.4-7.6 4-3.2.9-6.6 1.1-9.8.4-2.3-.4-2.8-3.5-.7-4.6 3.7-2 8.4-2.8 10.7-6.3 1.3-1.9 1.7-4.3 3.5-5.7 2-1.7 5-1.3 7.5-1 1.9.3 4.7-.3 6.3-.7z"/>
    </defs>
    <use xlink:href="#SVGID_3_" style="overflow:visible;fill:#a8938e"/>
    <clipPath id="SVGID_4_">
        <use xlink:href="#SVGID_3_" style="overflow:visible"/>
    </clipPath>
    <path class="st6" d="M78.6 318.6c-2.4.2-4.7.4-7.1.7l.2 3.7 6.1-.6.8-3.8z"/>
    <g class="st7">
        <path class="st4" d="M45.1 320.6c2.6.7 5.2 1 7.8.9 2.6 0 5.3-.4 7.8-1.1 1.4-.4 2.8-1 4.3-1.1.3 0 .3.4 0 .5-1.3.1-2.6.6-3.8 1-1.3.4-2.6.7-3.9.9-2.6.4-5.3.5-7.9.2-1.5-.2-3-.4-4.4-.8-.3-.1-.2-.6.1-.5z"/>
    </g>
    <path class="st6" d="M52.8 321.6c-.4-2.4-2-6.3-4.2-5.5-.6.2-8.9 3.2-8.9 3.2l6.3 2.1 6.8.2z"/>
    <g class="st7">
        <path class="st4" d="M80 307c-.7.1-1.4.3-2.1.6-.6.3-1.1.8-1.6 1.3-1 1.2-1.6 2.7-1.8 4.3-.2 1-.2 2-.2 3 0 .3-.5.3-.5 0 0-1.9.2-3.8.9-5.5.6-1.4 1.5-2.7 2.8-3.4.8-.5 1.6-.7 2.4-.8.4 0 .4.5.1.5z"/>
    </g>
    <g class="st7">
        <path class="st4" d="M80.2 315.5c-1.6 1.2-3.8 1.2-5.7.8-2.3-.4-4.6-1.3-7-1.1-1.7.1-3.4.8-4.9 1.5-1.6.7-3.2 1.6-4.8 2.3-1.6.6-3.2 1.1-4.9 1.1-.2 0-.4 0-.7-.1-.3 0-.2-.5.1-.4 1.7.2 3.3-.2 4.9-.8 1.6-.6 3.2-1.5 4.7-2.2 1.6-.7 3.2-1.4 4.9-1.7 1-.2 2-.1 3 0 1.2.2 2.4.5 3.6.8 1.9.5 4.1.8 5.9-.1.2-.1.4-.2.6-.4.3-.3.6.1.3.3z"/>
    </g>
    <path class="st5" d="M59.1 306.1c1.4.5 2.6 1.5 3.3 2.8.4.6.7 1.3.9 2 .2.7.2 1.3 0 2-.1.3-.3.5-.6.7-.4.2-.7.1-1.1 0-.8-.3-1.5-.7-2.1-1.2-.3-.3-.6-.5-.9-.9-.2-.3-.5-.5-.6-.9-.1-.3 0-.7.3-.9.3-.2.7-.1 1 .1 1.2.6 1.6 2.2 1 3.3-.7 1.3-2.3 1.7-3.6 1.3-.7-.2-1.3-.7-1.7-1.3-.2-.3-.4-.6-.6-1-.1-.3-.2-.7 0-.9.3-.3.7-.2 1 0 .3.2.6.4.9.7.5.5.9 1.2 1.2 2 .2.7.3 1.5.1 2.3-.3.7-.9 1.2-1.7 1.3-.8.1-1.6-.3-2.2-.8-.7-.5-1.3-1.1-1.6-1.9-.2-.4-.2-.8-.1-1.1 0-.1.2-.2.3-.1.7.4 1 1.2.7 1.9-.3.7-1.2 1-1.9.7-.2-.1-.1-.5.2-.4.5.2 1.1 0 1.4-.5.2-.5 0-1.1-.5-1.4.1 0 .2-.1.3-.1-.1.7.3 1.4.8 1.9s1.1 1 1.7 1.2c.6.2 1.3.2 1.9-.2.5-.4.7-1.1.6-1.8-.1-1.3-.8-2.6-1.9-3.3-.2-.1-.7-.5-.8-.1-.1.3.1.6.3.8.3.5.7 1 1.2 1.3 1 .7 2.4.6 3.3-.2.4-.4.7-.9.7-1.4 0-.5-.2-1.1-.5-1.5-.2-.2-.4-.3-.6-.4-.2-.1-.6-.2-.7.2 0 .3.2.6.4.8.2.3.5.5.7.7.5.5 1.1.9 1.8 1.2.3.1.7.4 1 .3.2 0 .4-.2.6-.4.3-.5.2-1.1.2-1.6-.1-.6-.3-1.2-.6-1.8-.6-1.1-1.5-2.1-2.6-2.7-.3-.1-.6-.3-.8-.4-.5 0-.3-.3-.1-.3z"/>
    <path class="st4" d="M77.7 304.3c-.5 1.4-1.5 2.7-2.9 3.3-2.1 1-4.6.7-6.8.1-2.3-.6-4.5-1.4-6.9-1.2 1.3-2.1 4.2-2.8 6.7-2.8s5.1.4 7.5-.4c.6-.2 1.1-.4 1.7-.3.6.1 1 .9.6 1.3h.1z"/>
    <path d="M99.9 44.5c9.3-5 14.8-11 18.3-20 2.1-5.6 2.9-16-1.5-20-2.6-2.3-6.2-2.8-9.6-3.2-3.6-.4-7.2-.7-10.7-.9C92 .1 87.6 0 83.6 1.5c-1.3.5-2.7 1.2-3.4 2.5-.7 1.1-.8 5.6-.8 6.9-.4 8.3 1 16.6 4.1 24.3l16.4 9.3z"/>
    <path class="st0" d="M79.6 6.5c-.7 8-2.1 18.7-3.4 26.7-1.8 10.6 10.7 10.1 10.7 10.1 1.1.5-.3 4.2-.7 6.6-.3 2.4-1.3 4.7-1.2 7.2 5 1 10 2 15 3.1 1.3-7 2.1-14.2 2.4-21.3 2.5 2.3 7.2 2 8.9-1 1.7-3-1-7.5-4.4-7 1.6-5.6 2.6-11.3 3-17.1 0-.5 0-1-.3-1.3-.3-.4-.8-.4-1.3-.4-9.2-.4-13.7-16.9-27.5-1.1l-1.2-4.5z"/>
    <path d="M107.8 31.1c-6.9-5-12.1-15.5-14.5-23.7-1.3 2.5-2.1 6.6-1.4 9.3-1.8-2.6-2.7-6.5-4-9.4-2.4 2.9-5.1 8.7-8.1 11-.3.3-.7.5-1.2.4-.6-.2-.6-1-.5-1.6.5-3.3.9-9.8 1.4-13.1 10.2-.4 20.5.4 30.5 2.3.6.1 1.2.3 1.6.7.3.4.4 4.1.4 4.6.6 6.4-.2 12.9-2.3 18.9l-1.9.6z"/>
    <path style="opacity:.3;fill:#a46e4a" d="m86.9 43.3 8.9 2.2-8.6.8z"/>
    <path class="st9" d="M108.8 33.1c-1.4.6-2.6 1.9-3.1 3.3-.1.2-.3.4-.6.3-.2-.1-.4-.3-.3-.6.6-1.8 2-3.3 3.8-4 .2-.1.5.1.6.3 0 .4-.1.6-.4.7z"/>
    <path class="st9" d="M107.6 36.1c-.4-.3-.9-.6-1.3-.9-.1-.1-.2-.2-.2-.3v-.4c.1-.2.4-.3.7-.2.4.3.9.6 1.3.9.1.1.2.2.2.3v.4c-.2.3-.5.4-.7.2z"/>
    <path d="M92.5 19.7c-.4 0-.7.5-.4.8.1.2.3.4.5.6.5.3 1 .4 1.5.5l4.5.9c0-.2-.1-.4-.3-.5-1.3-1.1-2.8-1.9-4.4-2.3-.5-.1-1-.1-1.4 0zm-6.9-4.3c.4-.1.7.3.6.7-.1.2-.2.4-.4.6-.4.4-.8.6-1.3.8-1.3.6-2.6 1.1-3.9 1.7 0-.2.1-.3.2-.5.9-1.2 2.2-2.2 3.6-2.9.3-.3.7-.5 1.2-.4zm8.2 11.8v-.6c.2-.9.9-1.5 1.6-1.4.8.1 1.2 1 1.1 1.9v.2c-.9-.4-1.8-.4-2.7-.1zm-10.8-2c.1-.2.2-.3.3-.6.3-.9 0-1.8-.7-2.1-.7-.3-1.6.2-1.9 1.1 0 .1 0 .1-.1.2 1 .3 1.8.7 2.4 1.4z"/>
    <path d="M90.1 34.4c-.9 1.6-3 2.1-4.6 1.5-.5-.2-.9-.5-1.2-.9-.2-.2.1-.6.3-.3 1.3 1.5 4.1 1.3 5.1-.5.2-.3.6-.1.4.2zm-1.8-11.8c.3.9.2 1.9-.2 2.7-.4.9-1.2 1.5-2.1 1.8-.9.3-1.8.6-2.3 1.4-.4.6-.5 1.4-.3 2.1.2.8.6 1.6 1.4 1.9.3.1 0 .5-.2.4-1.4-.7-2-2.6-1.5-4 .3-.8.8-1.4 1.6-1.8 1-.4 2-.6 2.7-1.5.7-.8.9-2 .6-3-.3-.2.2-.3.3 0z" style="fill:#996756"/>
    <path d="M116.3 12.4c1.3-2.7 4.8-6.5 7.8-6.8-1.5-1.2-3.6-1.5-5.4-.9.5-1.8-.6-3.9-2.3-4.7.2 2.5-1.4 5-3.7 6l3.6 6.4zm-5.2 110.3c16.4 47.8 20.3 128.1 11.4 177.9-7.6 1.9-25.5 1.9-26.3 1.3-.9-.7-6-88.7-8.4-117-5.8 31.2-7.1 85-5.8 116.8l-27.3 1.2c-4.2-14.7-1.9-140.4 2-152.8 5.4-17.1 11.7-10.4 14.1-28.2 15.3 3 24.7 2.6 40.3.8z"/>
    <defs>
        <path id="SVGID_5_" d="M111.1 122.7c16.4 47.8 20.3 123.9 11.4 173.6-7.6 1.9-25.5 1.9-26.3 1.3-.9-.7-6-84.5-8.4-112.8C82 216 80.7 267.5 82 299.3l-27.3 1.2c-4.2-14.7-2.2-109.9 1.8-122.3 5.4-17.1 12-38.7 14.4-56.5 15.2 3.2 24.6 2.8 40.2 1z"/>
    </defs>
    <clipPath id="SVGID_6_">
        <use xlink:href="#SVGID_5_" style="overflow:visible"/>
    </clipPath>
    <g class="st11">
        <path class="st12" d="M117.6 129.8c-1.2-1.1-3.3-.5-4.7-.2-2 .4-4 .7-6 1-4.1.5-8.1.8-12.2.8s-8.1-.3-12.2-.8-8.1-1.3-12.1-2.4c-3.9-1-7.8-2.3-11.6-3.9-.5-.2-.9-.4-1.4-.6-.2-.1-.3-.5-.2-.7.1-.2.4-.3.7-.2 3.8 1.6 7.6 3 11.5 4.1 3.9 1.1 8 1.9 12 2.5 4.1.6 8.2.9 12.3.9 4.1 0 8.2-.2 12.2-.7 2-.2 4-.6 6-1 1.7-.3 3.6-1 5.3-.3.4.2.8.4 1.1.7.4.5-.2 1.2-.7.8z"/>
    </g>
    <g class="st11">
        <path class="st12" d="m88.8 131.1-.3 12c-.2 4-.4 8-.7 11.9-.2 2.2-.3 4.5-.5 6.7 0 .2-.1.4-.3.4-.2.1-.4 0-.5-.1-2.5-2.8-3.1-6.7-3.2-10.4-.1-2.1 0-4.2 0-6.3 0-2.3 0-4.7.1-7 0-2.6 0-5.3.1-7.9 0-.6 1-.6 1 0 0 4.6-.1 9.3-.1 13.9 0 2.2-.1 4.3 0 6.5 0 1.8.1 3.6.5 5.4.4 1.9 1.1 3.7 2.4 5.2-.3.1-.5.2-.8.3.3-4 .6-8 .9-11.9.2-4 .4-8 .5-12 .1-2.2.1-4.5.1-6.7-.1-.6.8-.6.8 0z"/>
    </g>
    <g class="st11">
        <path class="st12" d="M74.6 130.5c-3.9 3.1-7.9 6.2-11.8 9.2-1.1.9-2.2 1.7-3.3 2.6-.2.2-.5.2-.7 0-.2-.2-.2-.5 0-.7 3.9-3.1 7.9-6.2 11.8-9.2 1.1-.9 2.2-1.7 3.3-2.6.2-.2.5-.2.7 0 .2.2.2.5 0 .7z"/>
    </g>
    <g class="st11">
        <path class="st12" d="M77.8 130.6c-2.2 1.6-4.4 3.3-6.6 4.9-2.2 1.6-4.4 3.3-6.6 4.9-1.2.9-2.5 1.8-3.7 2.8-.2.2-.5 0-.7-.2-.1-.2 0-.5.2-.7 2.2-1.6 4.4-3.3 6.6-4.9 2.2-1.6 4.4-3.3 6.6-4.9 1.2-.9 2.5-1.8 3.7-2.8.2-.2.5 0 .7.2.2.3.1.5-.2.7z"/>
    </g>
    <g class="st11">
        <path class="st12" d="M105.2 129.9c4 3.3 8.1 6.6 12.1 9.9 1.1.9 2.3 1.8 3.4 2.8.2.2.2.5 0 .7-.2.2-.5.2-.7 0-4-3.3-8.1-6.6-12.1-9.9-1.1-.9-2.3-1.8-3.4-2.8-.2-.2-.2-.5 0-.7.2-.2.5-.2.7 0z"/>
    </g>
    <g class="st11">
        <path class="st12" d="M102.5 130.6c2.6 2.1 5.2 4.3 7.8 6.5 2.6 2.2 5.1 4.5 7.6 6.8 1.4 1.3 2.8 2.6 4.1 3.9.4.4-.2 1.1-.7.7-2.4-2.4-4.9-4.7-7.4-6.9-2.5-2.3-5.1-4.5-7.7-6.7-1.5-1.2-2.9-2.4-4.4-3.6-.2-.2-.2-.5 0-.7.2-.2.5-.2.7 0z"/>
    </g>
    <g class="st11">
        <path class="st12" d="M86.8 161.6c.1.4.1.9.2 1.3.1.8.1 1.7.2 2.5.1 1.2.1 2.3.2 3.5.1 1.4.1 2.9.1 4.3 0 1.6.1 3.3.1 4.9 0 1.7.1 3.5.1 5.2 0 1.8.1 3.5.1 5.3v9.8c0 1.3 0 2.7-.1 4v.9c0 .6-1 .6-1 0 0-1.3.1-2.6.1-3.8V190c0-1.8 0-3.5-.1-5.3 0-1.7-.1-3.5-.1-5.2 0-1.7-.1-3.3-.1-5 0-1.5-.1-3-.1-4.5 0-1.2-.1-2.5-.2-3.7 0-.9-.1-1.8-.2-2.8 0-.3 0-.6-.1-.9v-.3c0-.1 0 .2 0 0v-.4c-.1-.2.1-.5.3-.6.2-.1.5.1.6.3z"/>
    </g>
    <g class="st11">
        <path class="st12" d="M93.2 162.9c-4-.8-8.1-1.1-12.2-1.1-1.1 0-2.3 0-3.4.1-.3 0-.5-.2-.5-.5s.2-.5.5-.5c4.1-.2 8.3 0 12.4.5 1.2.2 2.3.3 3.5.6.3 0 .4.4.3.6 0 .2-.3.4-.6.3z"/>
    </g>
    <g class="st11">
        <path class="st12" d="M117.6 169.7c-1.6 17.1-1.5 34.3-.9 51.5.5 17.1 1.4 34.2 1.3 51.3 0 4.8-.1 9.6-.4 14.4-.2 4.6-.6 9.1-2 13.5-.2.6-1.1.3-.9-.3 1.2-4 1.7-8.1 1.9-12.3.2-4.3.3-8.5.4-12.8.1-8.5-.1-17-.3-25.5-.5-17-1.4-34-1.3-51 0-9.6.4-19.2 1.3-28.8 0-.6.9-.6.9 0z"/>
    </g>
    <g class="st11">
        <path class="st12" d="M85.7 161.5c-1 8.9-2.1 17.8-3.2 26.7-1.1 8.9-2.2 17.9-3.2 26.8-1.1 9-2.1 17.9-3 26.9-.9 8.9-1.8 17.7-2.5 26.6-.8 9.1-1.5 18.2-1.5 27.4v3.4c0 .6-.9.6-1 0-.2-9.1.4-18.3 1.2-27.4.7-8.9 1.5-17.8 2.4-26.7.9-9 1.9-18 3-26.9 1-8.9 2.1-17.9 3.2-26.8 1.1-8.9 2.2-17.8 3.2-26.7.1-1.1.3-2.2.4-3.3.1-.6 1-.6 1 0z"/>
    </g>
    <path d="M101.7 54c2.9 1.6 5.7 3.2 8.6 4.8.8.4 1.6.9 2 1.7.3.7.3 1.4.3 2.2-.6 19.7-1.1 39.5-1.7 59.2 0 .9-.1 1.9-.6 2.7-.6 1-1.8 1.3-3 1.6-12.2 3.1-25.3 2.3-37-2.3-.7-.3.9-.8.5-1.4-.6-.9-.1-2 0-3 1-10.7-2.6-21.4-4.8-31.9-.7-3.2-1.6-6.6-.9-9.8.7-3.5 3-6.4 5.3-9.1 4.5-5.4-21 1.4 14.6-16.1l1.1-3c3 5.4 10.8 6.5 15.2 2.2l.4 2.2z" style="fill:#d9c7c2"/>
    <path d="M82.5 52.4c-1 36.2-9.9 72.8-10.8 109-8.2 2.3-17.2 1-24.5-3.4 2.5-18 4.9-36.1 7.4-54.1 1.2-9 2.5-18.1 4.7-26.9 1.5-6 3.6-11.9 5.6-17.8.3-1 .7-1.9 1.3-2.7.7-.8 1.6-1.2 2.6-1.6 4.3-1.8 9.2-1.6 13.9-1.4l-.2-1.1zm21.3 2.3c-.7 18.8-1.4 37.6-2 56.5-.5 12.9-.9 25.9-.2 38.8.3 5.8.9 11.7 1.7 17.4 9.5.4 19 1.1 28.4 2.2-3.9-30-6.8-60.1-8.9-90.3l-19-24.6z"/>
    <path class="st0" d="M129.8 108.8c-4.1-.4-8.7 1.8-11.9-.6-1.1-.8-1.8-2-2.7-3-1.9-2.1-4.9-3-7.8-2.7-1.4.2-1.8 2-.6 2.7l2.7 1.5c-3 0-5.9-.1-8.9-.3-1-.1-1.7 1.1-1 1.9.7.9 1.9 1.4 3 1.2-1.1-1.1-3.3-.5-3.8.9-.5 1.5 1 3.2 2.5 3-1.3-1-3.4.2-3.4 1.8s2 2.8 3.4 2.2c-1-.4-1.7 1.3-1 2.1s1.9.9 3 .8c2.4-.1 4.9-.1 7.3-.2 1.3 0 2.6-.1 3.8-.5 1-.3 1.9-.9 2.8-1.3 3-1.2 6.4-.5 9.6 0 4 .6 8.1.9 12.1.8.7 0 1.5-.1 2-.6.4-.4.6-1 .7-1.5l1.2-5.4-13-2.8z"/>
    <path d="M106.6 75.2c2.7-2.6-4.9-22-1.4-20.7 3.5 1.2 18.9 2.1 34.8 17.5 9.5 9.3 20.3 17.2 28.7 27.5 3.2 3.9 6.2 9.3 3.6 13.6-2.1 3.6-13.7 10.1-17.8 10.4-8.4.6-28.1.2-31.1-.5-.1 0-3.9-19.3-3.9-19.3 3.2-.2 17.2 1.8 21.2 1.1-9.8-9.5-7.1-1.7-26.3-24.1l-7.8-5.5z"/>
    <path class="st14" d="M101.2 109.4c1.5.4 3 .7 4.5 1.1.3.1.1.5-.2.5-1.5-.4-3-.7-4.5-1.1-.3-.1-.1-.6.2-.5zm-.2 3.3c1.4.2 2.8.4 4.1.7.3 0 .3.5 0 .5-1.4-.2-2.8-.4-4.1-.7-.4-.1-.3-.6 0-.5zm0 4.1c1.3 0 2.6.1 4 .1.3 0 .3.5 0 .5-1.3 0-2.6-.1-4-.1-.3 0-.3-.5 0-.5z"/>
    <path class="st14" d="M106.2 108.6c-.1 3.3-.3 6.7-.4 10 0 .3-.5.3-.5 0 .1-3.3.3-6.7.4-10 0-.4.5-.3.5 0z"/>
    <path class="st12" d="M121.4 80c.5 2.2 1.3 4.2 2.5 6.1 1.2 1.9 2.6 3.6 4.2 5.2 1.6 1.7 3.4 3.1 5.3 4.5 2.2 1.6 4.5 3.1 6.8 4.7 2.3 1.5 4.6 3.1 6.8 4.8.3.2.5.4.8.6.2.2.3.4.1.7-.1.2-.5.3-.7.1-2.2-1.8-4.5-3.4-6.8-4.9-2.3-1.5-4.7-3-6.9-4.7-2-1.4-3.9-3-5.7-4.7-1.7-1.6-3.2-3.4-4.4-5.3-1.2-1.9-2.2-4-2.8-6.2-.1-.3-.1-.5-.2-.8-.1-.5.9-.7 1-.1zm2.6 25c.9 4.5 1.8 9 2.8 13.5.3 1.3.5 2.6.8 3.8.1.6-.8.8-.9.2-.9-4.5-1.8-9-2.8-13.5-.3-1.3-.5-2.6-.8-3.8-.2-.6.8-.8.9-.2z"/>
    <path class="st12" d="M126.8 105.3c3.7-.5 7.5-.7 11.2-.6 3.7 0 7.4.4 11.1.9 2.1.3 4.1.7 6.2 1.2.3.1.4.3.3.6-.1.3-.3.4-.6.3-3.6-.8-7.2-1.4-10.8-1.7-3.7-.3-7.3-.4-11-.2-2.1.1-4.1.3-6.1.5-.3 0-.5-.1-.6-.3-.2-.3 0-.7.3-.7zm21.6-1.6c2.3-.3 4.5-.5 6.8-.8.3 0 .5.2.5.5s-.2.5-.5.5c-2.3.3-4.5.5-6.8.8-.3 0-.5-.2-.5-.5 0-.2.3-.4.5-.5zm-21.6 28c-3.8-.4-7.6-.6-11.5-.6-1.1 0-2.2 0-3.2.1.2-.2.3-.4.5-.6.6 3.6 1.1 7.3 1.7 10.9s1.1 7.3 1.7 10.9c.3 2.1.6 4.1 1 6.2l-.3-.3c2.9.5 5.9.6 8.9.2.8-.1 1.7-.3 2.5-.5.3-.1.5.1.6.3.1.2-.1.5-.3.6-3 .7-6.2.9-9.3.6-.9-.1-1.8-.2-2.6-.4-.1 0-.3-.2-.3-.3-.6-3.6-1.1-7.3-1.7-10.9-.6-3.6-1.1-7.3-1.7-10.9-.3-2.1-.6-4.1-1-6.2 0-.3.1-.6.5-.6 3.8-.2 7.7-.1 11.5.2 1.1.1 2.2.2 3.2.3.3 0 .5.2.5.5-.3.3-.5.5-.7.5zm-72.3-11.3c2.5 1 5.2 1.8 7.9 2.2.7.1 1.5.2 2.3.3.3 0 .5.3.5.6-.8 3.3-1.6 6.6-2.2 10-.7 3.3-1.2 6.7-1.7 10-.3 1.9-.5 3.8-.7 5.7 0 .3-.3.6-.6.5-2.8-1-5.8-1.1-8.6-.4-.6.2-.9-.8-.3-.9 3-.8 6.2-.6 9.1.4-.2.2-.4.3-.6.5.4-3.4.9-6.8 1.4-10.2.6-3.4 1.2-6.7 1.9-10.1.4-1.9.9-3.8 1.3-5.6.2.2.3.4.5.6-2.8-.3-5.5-.9-8.2-1.8-.8-.2-1.5-.5-2.2-.8-.2-.1-.4-.3-.3-.6 0-.3.3-.5.5-.4zm54.1-64.6c.8 2.5 1.6 5.1 2.4 7.6.4 1.2.8 2.4 1.1 3.6.3 1.1.4 2.3-.2 3.3-.6.9-1.6 1.4-2.5 1.9-.4.2-.8.6-1 1-.2.4-.3.8-.1 1.2.2.5.6.9.8 1.4.3.5.6 1.1.8 1.6.5 1.1.9 2.3 1.4 3.4 1 2.8 2 5.5 3 8.3.1.2-.1.5-.4.6-.3.1-.5-.1-.6-.4l-2.7-7.5c-.4-1.1-.8-2.2-1.3-3.3-.5-1.1-1-2.2-1.7-3.2-.3-.5-.5-1-.5-1.6 0-.6.3-1.1.7-1.5.4-.4.8-.7 1.3-1 .4-.3.9-.5 1.3-.8.4-.3.7-.6.8-1.1.2-.5.2-1 .1-1.5-.1-.6-.2-1.1-.4-1.6-.2-.6-.4-1.3-.6-1.9-.9-2.8-1.8-5.6-2.6-8.5-.1-.2.1-.5.4-.6.2.2.4.4.5.6zm-32.3-.5-2.7 7.5c-.4 1.2-.9 2.3-1.2 3.5-.3 1.1-.5 2.3.1 3.3.5 1 1.5 1.4 2.4 2 .4.3.8.6 1 1 .2.4.2.8 0 1.2-.2.5-.6.9-.9 1.4-.3.5-.6 1-.9 1.6-.6 1.1-1 2.2-1.5 3.4-1.1 2.7-2.2 5.4-3.4 8.1-.1.2.1.5.3.6.3.1.5-.1.6-.3 1-2.4 2-4.9 3-7.3.5-1.1.9-2.2 1.4-3.3.5-1.1 1.1-2.1 1.8-3.1.3-.5.6-1 .6-1.5 0-.6-.2-1.1-.6-1.5-.3-.4-.8-.8-1.2-1.1-.4-.3-.9-.5-1.3-.8-.4-.3-.6-.6-.8-1.1-.1-.5-.1-1 0-1.5.1-.6.3-1.1.5-1.6.2-.6.4-1.2.7-1.9 1-2.8 2-5.6 3-8.3.1-.2-.1-.5-.3-.6-.3-.1-.5 0-.6.3z"/>
    <path class="st0" d="M28.2 82.6c-2-3.6-6.4-6.2-6.2-10.2.1-1.3.7-2.6 1-3.9.6-2.8-.3-5.8-2.1-7.9-.9-1-2.7-.3-2.6 1.1.1 1 .1 2.1.2 3.1-1.7-2.5-5.5-9.5-7-12.1-.5-.9-2.2-1.2-2.5-.2-.3 1.1 2.8 7.3 3.2 8.4-1.2-1-4.9-9.4-6.7-8.7-1.7.7 2.4 8.3 2.9 9.4-1.1-1.5-4.7-8.2-6.3-7-1.3 1 2.5 7.9 3 9.4-1.7-1.2-3.7-5.7-5.1-4.8-.9.6 3.1 7.2 3.7 8.1 1.4 2 2.9 4 4.3 6 .7 1 1.5 2.1 2.5 2.9.8.6 1.8 1 2.7 1.6 2.7 1.8 4 5 5.4 7.9 1.7 3.7 3.8 7.2 6.1 10.5.4.6.9 1.2 1.6 1.3.6.1 1.1-.1 1.7-.3 1.7-.7 3.4-1.3 5.2-2l-5-12.6z"/>
    <path d="M71 54.1c3.6.8-6.9 3.2-5.9 6.8 1 3.6-.3 5.7-.7 9.4-1.4 13.2-2.9 26.5-6.7 39.2-1.4 4.8-4.3 10.3-9.3 10.6-4.1.3-16.1-5.6-18.6-8.9-5.2-6.7-15.9-23.1-17-26 0-.1 13.8-12.6 13.8-12.6 1.9 2.5 10.4 12.9 13.2 15.8 2-11.5 6-20 10.8-26 1.2-1.5 5.3-5.6 7.3-5.9L71 54.1z"/>
    <path class="st14" d="M11.6 59.4c.7 1.4 1.4 2.7 2.1 4.1.1.3-.3.4-.4.2-.7-1.4-1.4-2.7-2.1-4.1-.2-.3.3-.5.4-.2zm-3.1 2c.7 1.2 1.5 2.4 2.2 3.5.2.3-.2.5-.4.3-.7-1.2-1.5-2.4-2.2-3.5-.2-.3.2-.6.4-.3zm-3.1 2.4 2.1 3.3c.2.3-.3.5-.4.2L5 64c-.2-.2.3-.5.4-.2z"/>
    <path class="st14" d="M15.1 62.9c-2.8 1.7-5.7 3.5-8.5 5.2-.3.2-.5-.3-.2-.4 2.8-1.7 5.7-3.5 8.5-5.2.3-.2.5.2.2.4z"/>
    <path class="st12" d="M50.8 114.3c1.7-1.4 3-3.2 4.1-5.1 1.1-1.9 2-4 2.6-6.2.7-2.2 1.1-4.5 1.4-6.8.4-2.7.6-5.5.8-8.2.2-2.8.5-5.5 1-8.3.1-.3.1-.7.2-1 0-.3.2-.5.5-.4.2 0 .5.3.4.5-.5 2.7-.8 5.5-1.1 8.3-.2 2.8-.4 5.6-.8 8.3-.3 2.4-.7 4.9-1.4 7.2-.6 2.2-1.4 4.4-2.5 6.4s-2.4 3.8-4.1 5.4l-.6.6c-.4.4-1-.3-.5-.7zM28.1 75.6c-3.2 3.3-6.4 6.6-9.7 9.9-.9.9-1.8 1.9-2.7 2.8-.4.4-1.1-.3-.7-.7 3.2-3.3 6.4-6.6 9.7-9.9.9-.9 1.8-1.9 2.7-2.8.4-.4 1.1.3.7.7z"/>
    <path class="st12" d="M27.3 76.2c2.9 2.3 5.7 4.8 8.3 7.5 2.6 2.7 5 5.5 7.1 8.6 1.2 1.7 2.4 3.4 3.5 5.2.1.2 0 .5-.2.7-.2.1-.5 0-.7-.2-1.9-3.1-4-6.1-6.4-8.9-2.3-2.8-4.9-5.5-7.6-8-1.5-1.4-3.1-2.7-4.7-4-.2-.2-.3-.4-.2-.7.4-.3.7-.4.9-.2z"/>
    <path class="st12" d="M41.6 92.2c.7 2.1 1.5 4.3 2.2 6.4.1.2-.1.5-.3.6-.3.1-.5-.1-.6-.3-.7-2.1-1.5-4.3-2.2-6.4-.1-.2.1-.5.3-.6.3-.1.6 0 .6.3z"/>
    <path d="M88.9 67.4c-1.4 8.9-2.8 17.7-4.2 26.6-1 6.6-2 13.7 1 19.6 4.4-2.7 6.1-4 8-10.6.4-1.4.6-3.8 1-5.2.3-1.3.3-2.7.3-4.1-.1-9.4-.7-18.8-1.7-28.1-1.3.4-2.7.8-4 1.1l-.4.7z" style="fill:#31697a"/>
    <path d="M89.6 57.9c-1.2.5-1.9 1.7-1.7 3l.2 1.6c.2 2 .6 4.2 2.3 5.3.4.3.9.4 1.4.3.3-.1.5-.3.7-.4 2.6-2 4.8-5.2 4-8.4-.1-.5-.3-1-.8-1.3-.3-.1-.6-.2-.9-.2-1.7-.1-.9-2.4-2.7-2.2l-2.5 2.3z" style="fill:#46839b"/>
    <path class="st17" d="M92.8 56.3c2.9 2.2 5.5 5 7.5 8 .2.3.6.3.8 0 .6-1.1 1.3-2.1 2-3.1.3-.5-.4-.9-.8-.4-.7 1-1.4 2.1-2 3.1h.8c-2.1-3.2-4.7-6-7.8-8.3-.5-.4-1 .4-.5.7z"/>
    <path class="st17" d="M92.3 55.6c-3.3 1.5-6.1 4-8 7.1.3 0 .5.1.8.1-.3-1.1-.7-2.2-1.4-3.2-.3-.5-1.1 0-.8.4.6.9 1 1.9 1.3 3 .1.4.6.4.8.1 1.8-3 4.5-5.3 7.7-6.7.6-.3.1-1.1-.4-.8z"/>
</svg>
