<svg xmlns="http://www.w3.org/2000/svg" width="77.8" height="323.2" style="overflow:visible;enable-background:new 0 0 77.8 323.2" xml:space="preserve">
    <style>
        .st0{fill:#f9beae}.st1{fill:#0c1e3d}.st2{fill:#f59183}.st4{fill:#122444}.st6{fill:#92d5df}.st7{fill:#dad5d2}.st8{fill:none;stroke:#540806;stroke-width:1.0316;stroke-linecap:round;stroke-linejoin:round;stroke-miterlimit:10}.st9{fill:#de796f}.st10{fill:#bdb7b2}.st11{fill:#f8bab4}.st12{fill:#8e2a28}.st15{fill:#32637a}.st16{fill:#d3feff}.st17{fill:#7f4a24}
    </style>
    <path class="st0" d="M17.1 302.3c.7 2.3.5 7.8.5 7.8-.3 2.4-5.6 5.3-11.4 8.2 0 0-3.1 2.5-2.8 3.1.7 1.5 1.5 1.4 3.1 1.2 4-.4 7.3-1.8 11-2.6 1.9-.4 5.7-.8 6.9-2.3 1.5-1.8.2-3.9 0-6.1l2.7-10.8-10 1.5z"/>
    <path class="st1" d="M14.9 317.4c-2.1.7-6.4 2.4-8.6.9-2.4 1.3-4.4 2.5-4.5 3.1-.4 1.8 2.9 1.9 4.4 1.7 4-.4 7.6-1.9 11.3-2.6 1.9-.4 6.1-.9 7.3-2.4 1.3-1.6.9-4.1-.2-5.6-2.3 2.6-6.2 3.8-9.7 4.9z"/>
    <path class="st0" d="M51.4 302.3c-.7 2.3-1.4 7.7-1.4 7.7.3 2.4 5.6 5.3 11.4 8.2 0 0 3.1 2.5 2.8 3.1-.7 1.5-1.5 1.4-3.1 1.2-4-.4-7.3-1.8-11-2.6-1.9-.4-5.7-.8-6.9-2.3-1.5-1.8-.2-3.9 0-6.1l-1.6-10.4 9.8 1.2z"/>
    <path class="st1" d="M52.8 317.4c2.1.7 6.4 2.4 8.6.9 2.4 1.3 4.4 2.5 4.5 3.1.4 1.8-2.9 1.9-4.4 1.7-4-.4-7.6-1.9-11.3-2.6-1.9-.4-6.1-.9-7.3-2.4-1.3-1.6-.9-4.1.2-5.6 2.3 2.6 6.2 3.8 9.7 4.9z"/>
    <path class="st2" d="M18.8 10.6c.1-.1.1-.1 0 0 2.8-4 8.4-4.5 13.2-5.5 10-2.2 21.4 5.8 25 13.3 2.4 4.9.8 13 .5 18.1-.4 7.7.2 11.5 4.4 18.1 3.3 5.2 5.2 11.2 3.8 17-1.6 6.8-6 12.2-11.4 17.4-6.6 6.3-6.8 11.4-7.8 19.4-.9 6.9-5.7 15.1-15.3 14-9-1.1-15.3-8.5-19.2-15-5.4-9.6-3.6-20.6-.3-30.4 1.3-3.9 3-8 2.9-12.1-.1-3.6-2.1-5.9-3.6-9.2C6.2 45.4 9.2 34.1 13.3 24c1.6-4 3.1-9.9 5.5-13.4z"/>
    <path d="M22.6 11c1.5-2.4 3.3-4.6 5.6-6.1 5.3-3.4 15.5-.3 20.2 2.7 4.1 2.6 7.8 5.2 9 9.5 2.8 10.5-1.7 21.5 2 31.9 2.7 7.5 6.3 14.4 4.4 22.4-.7 3-2.7 6.4-4.9 8.8-15.4 15.8-16.4 30.7-18.6 33-5.8 6.1-1.9-19.2-9.4-23.2-5.2-2.8-7.8-7.4-10.6-11.9-1.5-2.4-3-4.7-4.4-7.1-1.6-2.8-3.2-6.1-2.1-9.3 1.1-3.1 5.6-3.7 7.6-6.5 1.9-2.8 1.8-6.7 1.1-9.8-1.1-4.9-4.6-9.1-5.6-14.2-.7-3.7-.5-7.3 1.1-10.8 1.4-2.9 2.7-6.3 4.6-9.4z" style="fill:#de8479"/>
    <path class="st1" d="M12.7 222c1.5 7 4.6 8.2 11.5 8.5 6.9.3 3.8-.8 4.7-6.3-.1-2.7 5.7-45.7 6.1-48.4 3.4-20 4.8-33.2 4.8-33.2v-17H14.1c-3 7.6-7.3 16.7-7.3 33.3 0 25.9 5.3 59.2 5.9 63.1z"/>
    <path class="st1" d="M21.5 215.4c-5-.5-8.9 5.8-8.9 5.8 1.5 8.6-2 15.7-1.8 30.1.3 16.6 5.8 55.1 5.8 55.1 3.3.5 7.4 1.6 10.2-1 0 0 2.7-40.3 4-54.3 1.2-14-2.7-18.3-1.8-28-.5-5.9-3.6-7.4-7.5-7.7z"/>
    <path class="st4" d="M54.6 222c-1.5 7-4.4 8.2-11 8.5-6.6.3-3.7-.8-4.5-6.3.1-2.7-5.4-45.7-5.9-48.4-3.2-20-4.6-33.2-4.6-33.2L8.5 129.3l1.2-3.6h43.5c2.8 7.6 6.9 16.7 6.9 33.3.1 25.8-5 59.1-5.5 63z"/>
    <path class="st4" d="M46.2 215.4c4.8-.5 8.5 5.8 8.5 5.8-1.4 8.6 1.9 15.7 1.7 30.1-.3 16.6-5.6 55.1-5.6 55.1-3.2.5-7 1.6-9.8-1 0 0-2.6-40.3-3.8-54.3-1.2-14 2.6-18.3 1.8-28 .4-5.9 3.5-7.4 7.2-7.7z"/>
    <path d="M17.6 59.7c-10.5 0-6.7 26.7-13.8 42.4-1.4 3.2-2.5 15.4 1.6 17.7 6.3 3.5 1-12.4 2.1-14.5C11.1 98.1 21.4 75.6 23 69c1.7-7.3-5.4-9.3-5.4-9.3z" style="fill:#89c8d1"/>
    <path class="st6" d="M52.2 56.4c6.3.6 9.9 1.5 10.7 3.6.9 2.4-2.3 26.1-5.2 39.4-1.8 8.1 5 39.4 4.8 40.7-.3 2-40.2 15.2-54.8 3.1-1.4-1.2 7.1-51.5 6.5-53.3-1.4-3.9-2.5-1.9-3.4-7.5-1.7-9.6 5.7-21.8 6.8-22.7 0 0 2.5-1.2 4.2-1.5 3.3-.5 2.8 3.1 6.1 3.9 5 1.2 10.1 2 15.3 2l9-7.7z"/>
    <path class="st7" d="M57.7 99.4c2.4-10.7 2.7-28 4.7-35.8-2.8 0-5.6-.1-8.2.7-8 19.4 8.8 77 8.1 76.2.2-.2.2-.3.3-.4.1-1.4-6.7-32.6-4.9-40.7z"/>
    <path class="st0" d="M52.2 56.4c-1 0-10.5-5.3-6.2-23.6l-2.2-.4c-5 1.1-16.9 1.1-14.7 5.4 8.7 17.2-4.9 20.5-7.4 20.3-3.3-.1-2.3 13.6 11.3 13.6 13.6 0 17.6-10.8 18.4-12.4.9-1.8.8-2.9.8-2.9z"/>
    <path class="st6" d="M58.1 57.9c10.5.1 10 17 11.8 22.6 1.7 5.4 4.4 12.8 6.4 18 1.3 3.3 2.9 4.5-1.2 6.8-6.4 3.5-9.2.3-10.2-1.8-3.6-7.2-11.3-28.7-12.8-35.4-1.6-7.2 6-10.2 6-10.2z"/>
    <path class="st0" d="M77.2 104.1c-2.2-5.9-8.4-2.6-12.8-1.2-5.9 1.9-25.1 7.3-27 7.4-1.8.1-3.9.3-6.1-.2-2.6-.6-4.9-.8-7.6-.3-1 .2-2.8.8-2.8 1.4 0 1 1 .9 2.6.6.5-.1 1.8.1 2.8-.2-2.5 1.2-7.7 1-10.5 2.7-1.7 1-2.5 2.1-1.1 3.6 1.7 1.9 3.5.6 5.8 1 .9.2 2.1 1.2 5.1.6 1.7-.3 3.6-.9 5.1-1.6 1.9-.9 4.4-2.1 6-2.5 1.6-.5 24.8 0 30.3-1.7 6.6-1.9 11.8-5.3 10.2-9.6z"/>
    <path class="st7" d="M46.5 50.3c-1.6-3.5-2.5-10.5-.5-17.5h-1.8c-5.3.8-10.7 1.7-15.2 3.7-.1.4 0 .8.2 1.3 1.7 3.4 2.5 6.2 2.8 8.6 2.1.1 4.4-.1 6.6.2 3.2.6 6 2.3 7.9 3.7z"/>
    <path class="st6" d="M15.2 87.8c-.8 6.7-16 13.8-13.2 31.8 2.3 14.5 12 18.3 12.1 23.2"/>
    <path class="st7" d="M31.1 138.4c-16.1.5-22.8-4.3-22.8-4.3l-.4 3.4s8.9 4.3 23.2.9zM14.2 89.8c4.9 2.7 11.6-1.3 13.8-1.3s13.9 7.4 21.3 0c-7.9 9.7-20 .5-22.3 1.6-7.8 3.6-12.8-.3-12.8-.3z"/>
    <path class="st0" d="M20.6 18.3c-2.2 3.5-1.5 5.3-1.7 8.8-.2 3.3-.4 4 0 6.8.5 3.5 3.4 6.7 6.6 9.1 5.2 3.7 10.7.4 14.4-3.4 7.2-7.5 7.6-15.7 6-20.3-2.4-6.6-9.2-7.5-16.2-6.8 0 0-5.6.2-9.1 5.8z"/>
    <path class="st8" d="M24.2 28.9s-.2-.7-1.1-.8c-.8-.1-1.1.6-1.1.6M35.1 29.9s.3-.7 1.2-.6c.9.1 1 .8 1 .8"/>
    <path class="st9" d="M34.2 27.4c.5-.1.9-.2 1.3-.3h.1c-.1 0 0 0 0 0h.4-.1.1c.3.1.6.1 1 .2s.9.4 1.3.4c.3 0 .6-.2.7-.5.1-.3 0-.6-.2-.8-.2-.2-.5-.4-.8-.5l-.6-.3c-.4-.1-.8-.3-1.2-.3-.4 0-.8.1-1.2.2-.5.2-1 .4-1.4.8-.2.2-.2.4-.1.7.3.2.5.4.7.4zM26.1 25.9c-.1-.3-.3-.5-.6-.7-.2-.2-.4-.3-.6-.4-.4-.2-.8-.4-1.2-.4-.5-.1-1 0-1.5 0-.5.1-1.3.2-1.6.7-.1.3-.1.7.1.9.2.2.4.3.7.3h.5c.2 0 .4-.1.6-.1h.1c-.1 0-.2 0 0 0h1.1-.1c.2 0 .3.1.5.1.1 0 .1 0 .2.1-.1 0-.1 0 0 0s.2.1.3.2c.2.1.6.3.8.3.5-.3.8-.7.7-1z"/>
    <path class="st10" d="M25.9 26.4v.4c0 .1.1.2.2.4s.2.5.3.7c.1.2.2.4.3.7 0 .1.1.2.1.3.1.2.2.2.3.3.1.1.2.1.3 0 .1-.1.2-.3.2-.4 0-.1-.1-.3-.1-.4-.1-.3-.2-.5-.3-.8-.1-.2-.3-.5-.5-.7l-.3-.3c-.2-.2-.3-.2-.5-.2 0-.1 0-.1 0 0zM27.5 31.1c0 .3-.1.6-.3 1-.1.2-.1.5-.2.7-.2.4-.4.8-.6 1.3-.1.2-.2.5-.1.8.1.3.4.4.6.5.5.2 1.1.2 1.5-.1.1-.1.1-.3-.1-.3-.3 0-.6-.1-.8-.2-.1-.1-.2-.1-.3-.2l-.1-.1-.1-.1c.1.1 0 0 0 0 0 .1 0 .1.1.2v-.1c0 .1 0 0 0 0v-.2c0-.1.1-.2.1-.3.1-.3.2-.5.3-.8.1-.3.2-.6.2-.9 0-.4-.1-.8-.2-1.1.2-.2 0-.3 0-.1z"/>
    <path class="st7" d="M28.6 41.3c.1 0 .2-.1.4-.1h.2c.1 0 .1 0 .2-.1.1 0 .1 0 .2-.1h.2c.1 0-.1 0 0 0h.3c.1 0 .1 0 .2-.1h.2c.1 0 .2-.1.2-.2 0-.2-.2-.3-.3-.3-.1 0-.1-.1-.2-.1h-.3c-.2 0-.3 0-.5.1-.1 0-.2.1-.3.1-.1 0-.1.1-.2.1-.1.1-.3.2-.4.3-.1.1-.1.2 0 .3-.1 0 0 .1.1.1z"/>
    <path class="st11" d="M33.2 37.3s-1.3.2-3.3 0c-.3 0-.9-.1-1.4.4-.3-.2-.6-.4-1.1-.3-.8.2-1.6.1-1.6.1s.2.5.6.9c.5.6 1.2 1.2 2.3 1.2 1.8 0 2.9-.6 3.5-1.2.6-.5 1-1.1 1-1.1z"/>
    <path class="st11" d="M33.2 37.2c-.4 0-.8.3-1.2.4-.9.3-1.8.6-2.8.6-.9 0-1.8-.1-2.6-.5-.1-.1-.3-.1-.4-.1 0 0-.2-.1-.1 0 0 0-.1 0-.1-.1-.1 0-.1-.1-.2-.1 0 0-.1-.1-.1 0-.1-.1-.2 0-.1.1v.1c0 .1.1.1.1.2.1.2.3.4.5.6.8.5 1.8.6 2.8.5 1-.1 2-.4 2.9-.8.4-.2 1-.4 1.2-.8.2 0 .2-.1.1-.1z"/>
    <path class="st2" d="M59 19.7C56.8-.9 41.6 2.7 41.5 2.6 36.4-2.6 25.8 0 18.7 10.5c-1.9 2.8-6.9 20.9-3 14.7 3.9-6.2 15.8-1.7 19.7-8.6-.4 6.3 5.8 7.4 6.1 10.5.4 3.8 2.8 3.9 3.7 3 1.3-1.2.3 1.4-1.7 4.9-.8 1.3-3.4 6.7-3 10.2.3 3.4 4.6 6.5.5 13.2-5.4 8.7.7 12-.5 19.4-1.2 7.4-4.7 7.1-6.2 12s-.1 17.3 6.9 14.8c1.6-.5 1.2-3.3 1.6-4.6.4-1.4 1-2.9 1.6-4.3 2.3-6 7.8-9.8 11.3-15.1 3.4-5.1 6.2-10.7 5.1-16.8-.4-2.3-1.1-4.6-2-6.8-1.5-3.6-3.2-6.9-3.9-10.7C53 36.9 60 28.9 59 19.7z"/>
    <path class="st0" d="M43.3 30.7c1.3-2.2 5.9-3.4 5.4.3-.4 3.1-6 8.5-6.2 2.5l.8-2.8zM3.7 105.3c-6 4.2-3.6 9-.6 10.6 5 2.7 5.6-2.1 2.8-4.2-2.1-1.6-2.6-3.1-2.6-3.1l.4-3.3z"/>
    <path class="st12" d="M37.6 3.5c-1.1.5-2.1 1-3.1 1.6-.7.4-1.8 1.2-1.3 2 .2.3-.4.6-.6.3-.3-.5-.3-1 0-1.5s.7-.9 1.2-1.2c1.1-.7 2.3-1.3 3.5-1.8.4-.1.7.4.3.6zM38 15.3c.2.9 1.4 1.3 2.2 1.6 1 .4 2 .8 2.8 1.4.8.6 1.5 1.4 1.8 2.3.4 1 .1 2 0 3-.1.5-.1 1 .2 1.5.2.4.6.7.9 1 .9.6 1.9 1 2.9 1.4 1.1.5 2.2 1.1 2.9 2 .7.8.9 1.8.6 2.8-.2.5-.5 1-1 1.3-.5.4-1.2.3-1.8.7-.5.3-.6 1-.4 1.5.2.6.8 1.1 1.3 1.4.4.2-.1.7-.5.5-1-.6-1.8-1.6-1.6-2.8.1-.5.4-1 .9-1.2.5-.2 1.1-.3 1.6-.6.8-.5 1-1.7.6-2.5-.4-1-1.5-1.8-2.6-2.3-1.9-.9-4.6-1.6-4.9-3.7-.2-1.1.4-2.1.3-3.1-.1-.9-.7-1.8-1.5-2.4-.9-.8-2-1.2-3.1-1.6-1.1-.4-2.3-1-2.5-2.1.1-.5.8-.5.9-.1z"/>
    <path class="st12" d="M52.2 49.3c-1.5 3.9-1.2 7.1-.2 9.3.6 1.4 1.5 2.4 2 3.8.5 1.2.7 2.7.6 4.5-.1 1.7-.6 3.7-1.5 5.8-.9 2-2.2 3.9-3.6 5.2-.7.6-1.4 1.1-2.1 1.7-.7.6-1.4 1.3-1.7 2.3-.4 1-.3 2-.4 2.9 0 1-.1 2-.2 3-.3 2.1-1 4.8-2.7 6.9-1.4 1.7-3.2 2.7-3.8 1.6-.2-.3.4-1.1.6-.8.6.9 2.3-.3 3.3-1.9 1.3-2 1.8-4.2 2-6 .1-1 .1-1.9.2-2.9.1-.9.1-1.8.5-2.9.7-2 2.3-3.1 3.6-4 1.4-1.1 2.7-2.8 3.6-4.8.9-1.9 1.4-3.9 1.6-5.5.1-1.7-.1-3.2-.6-4.4-.5-1.4-1.4-2.4-2-3.7-1.1-2.3-1.4-5.8.3-10.1.1-.6.7-.6.5 0z" style="opacity:.6"/>
    <path class="st12" d="M53.7 29.8c1.1 1 1.1 2.8-.1 3.8-.3.3-.8-.2-.5-.5.9-.8.9-2.2 0-3-.2-.2.3-.6.6-.3zM49.7 5.5c1.5.1 3 .8 3.7 2 .6 1.1.6 2.5-.4 3.4-.3.3-.8-.2-.5-.5.8-.7.7-1.9.2-2.7-.6-1-1.8-1.6-3-1.6-.5 0-.4-.7 0-.6zM44.1 4c.6.3.9 1 .7 1.5-.2.6-.8 1-1.5 1-.2 0-.4-.2-.3-.3 0-.2.2-.3.4-.3h.1c-.1 0 0 0 0 0h.2c-.1 0 0 0 0 0h.2c.1 0 .1-.1.1-.1s.1-.1 0 0l.1-.1s0-.1 0 0c0 0 0-.1.1-.1 0 0 0-.1 0 0v-.5c0-.1 0 0 0 0s0-.1-.1-.1c0 0-.1-.1 0 0v-.1l-.1-.1c.1 0 0 0 0 0h-.1c-.2-.1-.2-.3-.1-.4 0-.4.2-.5.3-.4zM27.2 7.5c-1.2.2-2.4.7-3.3 1.4-.9.8-1.2 1.7-1.2 2.8 0 1 .1 2.1-.2 3.1-.2.9-.9 1.7-1.7 2.2-1 .6-2.2.8-3.3.5-.4-.1-.2-.7.2-.6 1 .2 2 0 2.8-.5.9-.6 1.3-1.4 1.5-2.3.1-1 0-2.1.1-3.1s.6-2 1.5-2.7c1-.8 2.3-1.3 3.6-1.5.3 0 .4.6 0 .7z"/>
    <path class="st12" d="M25.8 10.7c.3 2.4-.9 4.8-3 6.4-.4.3-.8-.2-.5-.5 1.9-1.4 3-3.6 2.8-5.8 0-.2.1-.3.3-.4.1 0 .4.1.4.3z"/>
    <path d="M15.6 28.4c.3 2.7.5 5.5-.3 7.2-.9 1.9-2.8 1.6-3.7 3.4-.7 1.4-.9 4 .2 6.8.6 1.4 1.3 2.6 2.1 3.6.8 1.1 1.7 2.1 2.3 3.5.6 1.5.9 3.1.6 4.1-.4 1-1.3 1.2-2.3.4-.4-.3-.3.6.1.9 1.9 1.4 3.3.1 2.9-2.9-.2-1.4-.7-2.9-1.5-4.1-.8-1.3-1.7-2.3-2.5-3.5-.8-1.2-1.4-2.5-1.7-3.9-.3-1.4-.2-2.6.1-3.5.3-1 .9-1.6 1.6-2 .8-.4 1.6-.8 2.1-1.6 1.1-1.7.9-4.9.6-8.1-.1-.5-.7-.9-.6-.3z" style="fill:#c23f37"/>
    <path class="st15" d="m74.1 94.5 2.1 4.5c.2.4-.5.6-.7.2l-2.1-4.5c-.1-.3.5-.6.7-.2zM72.3 95.5c.4 1.3.9 2.5 1.5 3.7.1.2 0 .3-.2.4-.2.1-.4 0-.5-.2-.6-1.2-1.1-2.4-1.5-3.7-.1-.2 0-.3.2-.4.2 0 .4.1.5.2zM69.3 95.5c.6 1.5 1.4 3 2.3 4.4.2.3-.4.7-.6.4-1-1.5-1.8-3-2.4-4.6-.2-.4.5-.6.7-.2zM66.8 96.4c.6 1.4 1.3 2.8 2.2 4.1.2.3-.3.7-.6.4-.9-1.3-1.7-2.8-2.3-4.3-.1-.3.6-.6.7-.2zM64.4 96.6c.2 1.4.7 2.7 1.5 3.9.2.3-.3.7-.6.4-.9-1.3-1.5-2.7-1.6-4.2-.1-.4.6-.5.7-.1zM62.7 96.9c.2 1 .5 2 .7 3 0 .2-.1.3-.3.3-.2 0-.3-.1-.4-.3-.2-1-.5-2-.7-3 0-.2.1-.3.3-.3.2 0 .3.1.4.3z"/>
    <path class="st16" d="M58.8 158.4c-2.3-.3-4.5-1.4-6.1-3-.4-.4-.8-.9-1.1-1.4-1.4-1.8-2.6-3.5-2.6-5.4h.8c0 1.8 1.1 3.3 2.4 5 .3.4.7.9 1.1 1.3 1.4 1.5 3.5 2.5 5.6 2.8l-.1.7zM55.4 177.9l-.8-.1c.7-6.3.9-12.6.7-18.9h.8c.2 6.3 0 12.7-.7 19zM33.5 160.1c-1.6-3.1-2.7-6.4-3.4-9.8l.7-.1c.7 3.3 1.8 6.5 3.3 9.6l-.6.3z"/>
    <path class="st17" d="M18.2 115.6c-1 0-2.1-.1-3.1-.3-.2 0-.3-.2-.3-.4s.2-.3.4-.3c2.4.4 4.9.3 7.2-.3.2-.1.4.1.5.2.1.2-.1.4-.3.4-1.4.5-2.9.7-4.4.7zM22 117h-7c-.2 0-.4-.2-.4-.3s.2-.3.4-.3h7c.2 0 .4.2.4.3s-.2.3-.4.3zM7.4 115.5h-.2c-1.3-.7-2.5-1.6-3.4-2.7-.1-.2-.1-.4.1-.5.2-.1.4-.1.5.1.8 1 1.9 1.9 3.1 2.5.2.1.2.3.1.5 0 0-.1.1-.2.1z"/>
    <path class="st16" d="m46.4 232.2-.3-.6c2.8-1.2 4.9-3.9 5.1-6.7l.8.1c-.4 3.1-2.5 5.9-5.6 7.2zM21.3 231.5c-2.8-1.4-4.9-4-5.4-6.9l.8-.1c.5 2.7 2.4 5.1 5 6.4l-.4.6z"/>
</svg>
