<svg xmlns="http://www.w3.org/2000/svg" width="204.4" height="326.4" style="overflow:visible;enable-background:new 0 0 204.4 326.4" xml:space="preserve">
    <style>
        .st0{fill:#f6a472}.st1{fill:#7f4924}.st2{fill:#dc4345}.st3{fill:#fff}.st4{fill:#512d0c}.st7{fill:#8e292e}.st8{fill:#1f2d44}.st10{fill:#f59f18}.st11{fill:#4d4c4c}.st12{fill:#857b84}.st13{fill:#c9c5bf}.st14{fill:#eab4a5}.st16{fill:#ddd9d2}
    </style>
    <path class="st0" d="M115 89.2c1 5.1.1 9.2 2.1 13.7-7.8 5.3-15.6 10.5-23.4 15.8-4.5 3-9.1 6.2-11.9 10.9-1.6 2.7-2.5 5.7-3.3 8.7 1.8.3 3.7-1.2 3.9-3-.7 1.4-1.5 2.8-2.2 4.2-.3.6-.7 1.3-.4 2 .3.9 1.6 1.2 2.5.7.9-.4 1.4-1.3 1.9-2.2-.1.9.7 1.8 1.6 1.7.9-.1 1.6-1 1.4-1.9.1.9 1 1.7 1.9 1.5.9-.1 1.6-1.1 1.4-2-.5.9.9 1.9 1.9 1.5 1-.4 1.4-1.6 1.7-2.6.8-2.5 1.6-5.1 2.3-7.6.2-.7.4-1.4 1-1.9.5-.5 1.2-.7 1.9-.9 10.1-2.9 19.8-7.2 28.7-12.8 1.4-.9 2.8-1.8 3.5-3.2.7-1.3.7-2.8.7-4.3-.2-7.6.7-17.5-2.8-24.2L115 89.2z"/>
    <path class="st1" d="M84.1 141c.3-1.7 1-3.4 2.1-4.8.2-.3-.3-.7-.5-.3-1.1 1.5-1.9 3.3-2.2 5.1 0 .2.1.3.3.3.2 0 .3-.1.3-.3zm3.3-.6c.4-1 .9-2 1.3-2.9.1-.2 0-.3-.2-.4-.2-.1-.3 0-.4.2-.4 1-.9 2-1.3 2.9-.1.2 0 .3.2.4.2.1.4 0 .4-.2zm3.2.2 1.2-3.3c.1-.4-.5-.6-.6-.2l-1.2 3.3c-.1.3.5.5.6.2z"/>
    <path class="st1" d="M83.8 135.6c3 .6 5.9 1.2 8.9 1.8.4.1.6-.5.2-.6-3-.6-5.9-1.2-8.9-1.8-.4-.1-.6.5-.2.6zm7.4-13.9c1.4 1.1 2.8 2.1 4.2 3.2.3.2.7-.3.3-.5-1.4-1.1-2.8-2.1-4.2-3.2-.3-.3-.6.2-.3.5zm27.3-18.9c2.1 1 4.2 1.9 6.3 2.9.4.2.6-.4.2-.6-2.1-1-4.2-1.9-6.3-2.9-.3-.1-.5.5-.2.6zM92.2 120c5.6-3.4 11.1-7 16.4-10.9 1.5-1.1 3-2.2 4.4-3.4.3-.2-.1-.7-.4-.5-5.2 4-10.5 7.8-16 11.3-1.5 1-3.1 1.9-4.7 2.9-.3.3 0 .8.3.6zM79 134.5c1.5-3.8 3.8-7.2 6.6-10.1.8-.8 1.7-1.6 2.6-2.3.3-.3-.1-.7-.4-.5-3.2 2.6-5.9 5.9-7.9 9.5-.6 1-1 2.1-1.5 3.2-.2.4.4.6.6.2z"/>
    <path class="st0" d="M149.1 262.2c-.2 8.6-.8 17.3-1.7 25.9-3.3.2-6.6.4-9.9.5-2-8.7-2.1-21-4.1-29.8 5.7-.3 9.5 3.5 15.2 4.2l.5-.8z"/>
    <path class="st2" d="M148 280.6c-4.4.6-8 1.4-12.4 1.2l-.6 9.3c-.1 2.2-11.4 10.9-12.6 12.8-.3.5-.5 1.1-.4 1.6.2 1.2 1.5 1.9 2.8 2.2 3.7 1 17.7-1.4 21.5-2.1 1.1-.2 2.3-.5 3.1-1.3 1.1-.8-.3-16.9-1.4-23.7z"/>
    <path class="st3" d="M122.8 304.1c3.2 1.1 6.6 1.1 9.9.7 3.4-.4 6.8-1.2 10.2-1.8 1.9-.3 3.8-.6 5.8-.6.4 0 .4-.6 0-.6-3.4.1-6.8.8-10.2 1.5-3.3.6-6.7 1.3-10.1 1.2-1.9 0-3.7-.3-5.5-.9-.3-.3-.5.3-.1.5z"/>
    <path class="st3" d="M148.6 296.8c-2.6 1-4.8 3.2-5.7 5.8-.1.2 0 .3.1.4.1.1.4 0 .4-.1.9-2.5 2.9-4.6 5.4-5.5.4-.1.2-.7-.2-.6zm-14-2.3c1.2.5 2.3 1.3 3 2.4.2.3.8 0 .5-.3-.8-1.2-1.9-2.1-3.2-2.6-.2-.1-.3 0-.4.1-.1.1-.1.3.1.4zm1.3-2.3c1.3.5 2.5 1.3 3.4 2.4.1.1.3.1.4 0 .1-.1.1-.3 0-.4-1-1.1-2.2-1.9-3.6-2.5-.2-.1-.3 0-.4.1 0 .2.1.4.2.4zm8.2-4.4c-.7.4-.5 1.7.3 1.9.8.3 1.7-.2 2.1-.9.4-.7.4-1.7-.3-2.1-.6-.5-1.8-.1-1.7.7l-.4.4z"/>
    <path class="st0" d="M188.3 261.7c-.2 8.6-.8 17.3-1.7 25.9-3.3.2-6.6.4-9.9.5-2-8.7-2.1-21-4.1-29.8 5.7-.3 9.5 3.5 15.2 4.2l.5-.8z"/>
    <path class="st4" d="M138.3 40.4c-4.7-1-4.9-20.4-5-22.1-.1-6 3.3-11.8 8.5-14.7 5.2-2.9 12-2.7 17 .5 1.4.9 2.7 2 4.3 2.7 2.7 1.2 6 .9 8.4 2.6 1.6 1.1 2.5 3 3.2 4.8 1.9 4.7 3.1 9.7 3.6 14.8.4 4 .3 8.3-2 11.7-.9 1.4-2.2 2.6-3.2 4-.7 1-1.3 2.2-2.2 3-1.8 1.4-4.4 1-6.6.6l-7.5-1.5-18.5-6.4z"/>
    <path class="st0" d="M131.5 110.1c.4 6 .8 11.9 1.2 17.9 6.5 1.7 13.3 0 19.9-1.3 8.1-1.5 16.3-2.3 24.5-2.4.4 0 .9 0 1.1-.3.3-.3.2-.7.2-1.1-.6-5.8-1.1-11.6-1.7-17.4-13.8 2.7-28.2-.4-42.1 1.8-1.2.2-2.8 1.2-2.1 2.2l-1 .6z"/>
    <circle transform="rotate(-84.151 159.068 161.075)" cx="159.1" cy="161.1" style="fill:#006838" r="11.5"/>
    <path d="M181.8 120.5c-17.7-.1-29.5 6.4-49.7 3-.7-.1-9.1 53.3-9.3 78 0 4.9-.1 9.9-.1 14.8-.1 16.3-.3 32.5-.4 48.8 11.3 1.5 22.8 2 34.2 1.6-1.7-4.1-1.5-8.6-1.2-13 1.7-25.7 5.4-51.4 3.2-77.1 6.7 29.4 6.2 59.9 5.6 90 12.7 2.7 26.2 1.8 38.5-2.5-2.7-22-4.6-44.1-5.6-66.3-1-20.3-1.7-51.3-11.7-69.1l-3.5-8.2z" style="fill:#cca6c3"/>
    <path class="st2" d="M158.9 53.6c10.8-.5 24.2 3.7 31.8 11.3 7.7 7.6 12 18.5 11.6 29.3-6 .9-11.9 1.7-17.9 2.6l-.3 14.8c-17.9 4.4-35.7 6.5-53.7 2.7-.2-5.1-1.1-12-.7-17.2-5.1-.7-10.1-1.4-15.2-2.1.2-6.4.7-12.8 1.6-19.2.7-4.7 1.6-9.6 4.5-13.4 3.6-4.7 9.5-7 15.2-8.4 6-1.5 12.4.4 18.5.4l4.6-.8zm28.4 226.6c-4.4.6-8 1.4-12.4 1.2l-.6 9.3c-.1 2.2-11.4 10.9-12.6 12.8-.3.5-.5 1.1-.4 1.6.2 1.2 1.5 1.9 2.8 2.2 3.7 1 17.7-1.4 21.5-2.1 1.1-.2 2.3-.5 3.1-1.3 1-.9-.4-17-1.4-23.7z"/>
    <path class="st7" d="M129.6 98.5v-6.1c-5.4-.5-10.8-1.2-16.2-2-.1 2.3-.2 4.6-.2 6.9 5.1 1 10.4 1.3 15.6 1l.8.2z"/>
    <path class="st7" d="M129.3 92.9c-.7-5.7-1.3-11.4-1.6-17.1-.1-1.6-.2-3.2-.2-4.9 0-.4-.6-.4-.6 0 .2 5.7.7 11.5 1.3 17.2l.6 4.8c-.1.5.6.4.5 0z"/>
    <path class="st7" d="M124.2 72.8c.8 1.4 1.8 2.6 3 3.6.3.3.7-.2.4-.5-1.2-1-2.1-2.1-2.9-3.5-.1-.3-.7.1-.5.4zM147 56.3c-1.3.2-2.4 1.3-2.8 2.8-.4 1.5 0 3.3.9 4.4.9 1.1 2.3 1.5 3.6 1.7 3.4.6 7 .5 10.4-.2 1.5-.3 3-.8 4.3-1.9 1.2-1.1 2.1-2.9 2-4.9-.3-3.4-3.4-5.2-6.1-5.9-2.5-.6-5.1-.8-7.6-.5l-4.7 4.5z"/>
    <path class="st0" d="M135.8 16.7c.4 7-.2 16.4.3 23.4 0 .6.1 1.9.1 3.4.1 3.9 3.5 6.9 7.3 6.6l2.5.2s.4 4.2.5 8.3c0 .9 0 1.8.5 2.5.3.4.6.7 1 .9 3.6 2.3 8.3.5 12.1-1.3.6-.3 1.2-.6 1.6-1.2.3-.5.3-1.2.3-1.8-.1-6.2-.5-8.6-.5-14.8.9 2 9.3 2.4 8.2-7.3-.3-2.7-5.3-3.6-6.7-1.2.1-4.6-.5-12.5-1.4-17l-25.8-.7z"/>
    <path class="st7" d="M139.8 90.3c3.1.3 6 1.5 8.7 3 2.9 1.7 5.7 3.7 8.4 5.6 1.7 1.2 3.4 2.3 5.1 3.5.1.1.3 0 .4-.1.1-.2 0-.3-.1-.4-3-2.1-6.1-4.1-9.1-6.2-2.6-1.8-5.3-3.5-8.2-4.7-1.6-.6-3.3-1.1-5.1-1.2-.2 0-.3.1-.4.2 0 0 .1.2.3.3zm1.7 3.4c4.3 1.5 8.5 3.4 12.4 5.8l3.3 2.1c.3.2.7-.2.4-.5-3.8-2.7-8-4.9-12.3-6.7-1.2-.5-2.5-1-3.7-1.4-.4 0-.5.6-.1.7zm38.8-20.6c1.2 5.3 2 10.7 2.3 16.2.1 1.5.1 3.1.2 4.6 0 .4.6.4.6 0-.1-5.5-.6-11-1.6-16.4-.3-1.5-.6-3.1-1-4.6 0-.4-.5-.2-.5.2z"/>
    <path class="st7" d="M183.5 74.2c-.8 1.8-1.5 3.6-2.3 5.4-.2.4.4.7.6.3.8-1.8 1.5-3.6 2.3-5.4.2-.4-.4-.7-.6-.3z"/>
    <path class="st4" d="M134.8 17c.6 2.8 3.5 5.1 6.9 5.5 3 .4 6.8-.5 8.8 1.4 1.5 1.4 1.2 3.8 3 5 1.3.9 3.3.7 5.1.5 1.9-.2 3.8-.5 5.7-.7.8-.1 1.7-.2 2.5-.2 1.2.1 2.3.5 3.1 1.2.3-5.2.3-10.9-4-14.6-.7-.6-1.6-1.2-2.1-2-.4-.7-.5-1.5-.9-2.2-.7-1.2-2.2-1.9-3.8-2.1-1.6-.2-3.2 0-4.8.2-2.9.4-5.9.7-8.8 1.1-2.3.3-4.7.6-6.7 1.5s-3.7 2.7-3.6 4.6l-.4.8z"/>
    <path class="st4" d="M161.2 26.8c-.7.4-1.4.9-1.8 1.7-.5.9-.7 2.2-.3 3.3.2.7.7 1.1 1 1.7.7 1.5.1 4-1 4.2 2.5.8 5.1-2.4 5.4-6.5.1-1.4-.1-2.8 0-4.2.1-1.4.7-2.8 1.5-2.9l-4.8 2.7zm8.9-15.7c.3-1.9 1.1-3.8 2.2-5.4.5-.7 1.1-1.4 2-1.7 1.4-.5 3 .3 4.1 1.3 2 1.7 3.5 4.3 3.4 6.9 0 2.7-1.7 5.3-4.2 6.2-2.5.8-5.7-.6-6.3-3.2l-1.2-4.1z"/>
    <path class="st8" d="M123.7 256.3c0-.1.5-.1.6-.1.5.1.9.3 1.3.4 1 .3 1.9.5 2.9.7 1.9.5 3.9.8 5.8 1.2 3.9.6 7.8 1 11.8 1.1 2.2 0 4.5 0 6.7-.1.4 0 .4-.6 0-.6-4.1.2-8.2.2-12.3-.2-4.1-.4-8.1-1-12.1-2l-3.3-.9c-.4-.1-.8-.2-1.2-.2-.4.1-.7.3-.7.7-.1.4.5.4.5 0zm41.4 2.9c4.7.4 9.5.5 14.2.3 4.7-.2 9.4-.8 14-1.7 2.6-.5 5.2-1.1 7.8-1.9.4-.1.2-.7-.2-.6-4.5 1.3-9.1 2.2-13.7 2.8-4.6.6-9.3.9-14 .8-2.6 0-5.3-.2-7.9-.4-.5 0-.6.6-.2.7z"/>
    <path class="st8" d="M177.2 130.6c2.5 7.9 4.5 15.9 6.1 23.9 1.7 8.1 2.9 16.3 3.9 24.5s1.7 16.4 2.1 24.7c.5 8.3.7 16.6.8 24.9.1 8.2 0 16.5-.1 24.7 0 1 0 2.1-.1 3.1 0 .4.6.4.6 0 .1-8.3.2-16.6.2-25-.1-8.3-.3-16.6-.7-24.9-.4-8.3-1-16.6-2-24.8-.9-8.2-2.1-16.4-3.7-24.6-1.6-8-3.5-16-5.8-23.8l-.9-3c0-.3-.5-.1-.4.3zm-30.9 19.9c2 3.9 4.1 7.6 6.1 11.5 1.9 3.8 3.7 7.7 4.8 11.8.6 2.3 1.1 4.7 1.3 7.1 0 .4.7.4.6 0-.3-4.3-1.5-8.4-3.1-12.4s-3.7-7.9-5.7-11.8c-1.2-2.2-2.3-4.3-3.4-6.5-.3-.4-.8-.1-.6.3zm-13.5 10.1c-.3 12.3-.6 24.6-1 36.9-.3 12.3-.6 24.6-1 36.9-.2 6.9-.4 13.8-.5 20.7 0 .4.6.4.6 0 .3-12.3.6-24.6 1-36.9.3-12.3.6-24.6 1-36.9.2-6.9.4-13.8.5-20.7 0-.5-.6-.4-.6 0z"/>
    <path class="st1" d="M164.2 40c.9-1.1 1.9-2.1 2.8-3.2.3-.3-.2-.7-.5-.4-.9 1.1-1.9 2.1-2.8 3.2-.3.3.2.7.5.4z"/>
    <path class="st1" d="M165.2 38.9h.1c.1 0 .2.1.2.1.2.1.2.2.2.2.3.5.3.5.3.6v.2c0 .2.2.3.3.3.2 0 .3-.2.3-.3-.1-.8-.7-1.5-1.5-1.7-.2 0-.3.1-.4.2.3.2.4.3.5.4z"/>
    <path style="opacity:.34;fill:#7f4924" d="m146.1 50.2 10.1-.5-9.9 4z"/>
    <path class="st1" d="M144.4 31c.2 2.4-1.2 4.7-3.4 5.7-.2.1-.3.3-.2.5.5 1.1 1.7 1.8 3 1.7.4 0 .4-.6 0-.6-1 0-2-.6-2.4-1.5-.1.2-.1.3-.2.5 2.4-1 4-3.7 3.8-6.3-.1-.5-.7-.4-.6 0zM142 42.6c1.3 1.5 4.1.7 4.5-1.2.1-.4-.5-.5-.6-.1-.3 1.5-2.5 2-3.5.9-.1-.1-.3-.1-.4 0-.1.1-.1.3 0 .4z"/>
    <ellipse transform="matrix(.9983 -.05875 .05875 .9983 -1.72 8.86)" class="st4" cx="149.8" cy="33.7" rx="1.2" ry="1.7"/>
    <ellipse transform="matrix(.9983 -.05875 .05875 .9983 -1.722 8.234)" class="st4" cx="139.2" cy="33.4" rx="1.2" ry="1.7"/>
    <path class="st4" d="M147.4 26.4c-.3.3-.1.8.2 1s.8.2 1.1.2c1.2 0 2.5.4 3.4 1.3 0-1-.6-2-1.4-2.6-.8-.6-2-.8-3-.5-.3.1-.7.3-.5.6h.2zm-5.3-.6c.3.2.2.8-.1 1-.3.2-.7.3-1.1.4-1.2.2-2.5.7-3.2 1.7-.1-1 .3-2.1 1.1-2.8.8-.7 1.8-1 2.9-.9.3 0 .7.3.6.6h-.2z"/>
    <path class="st2" d="M173.2 13.4c-2.1-2-3.6-4.6-4.4-7.4-.2-.8-.4-1.6-.5-2.4-.2.1-.3.2-.5.3 2 1 2.5 3.4 2.9 5.3.3 1.2.5 2.3.9 3.4.4 1.2 1 2.3 1.6 3.3 1.3 2.1 3.1 3.9 5.1 5.2.5.3 1.1.6 1.6.3.4-.2.5-.6.5-1.1 0-1.1-.9-2-1.6-2.7-2-2.2-4.5-4-7.2-5.3-.1-.1-.3 0-.4.1-2.5 2.9-5.1 5.5-7.9 8-.3.3.2.7.5.4 2.8-2.5 5.5-5.2 7.9-8-.1 0-.3 0-.4.1 2.3 1.1 4.4 2.6 6.2 4.4l1.3 1.3c.3.4.7.8.8 1.3.1.3.2.8 0 1-.4.4-1.1-.2-1.4-.5-1.9-1.3-3.6-3.1-4.8-5-.6-1-1.1-2.1-1.5-3.2-.4-1-.6-2.1-.8-3.2-.5-2.1-1.1-4.6-3.2-5.7-.2-.1-.5.1-.5.3.4 3 1.5 5.9 3.4 8.3.5.7 1.1 1.3 1.7 1.9.6.4 1-.1.7-.4z"/>
    <path class="st2" d="M171.8 13.1c-1.2 3-2.2 6.1-2.9 9.2-.1.4.5.5.6.1.7-3.1 1.6-6.1 2.8-9.1.2-.3-.3-.6-.5-.2z"/>
    <path class="st4" d="M169.1 47.8c1.4-1.3 3.2-1.9 4.9-2.7 1.6-.7 3.3-1.7 4.1-3.3.5-1 .6-2.2.6-3.3.1-1.1.1-2.3.6-3.3s1.4-1.7 1.9-2.8c.5-1.1.5-2.4.1-3.5-.4-1.4-1.2-2.6-1.9-3.8-.8-1.4-1.7-2.7-2.5-4.1-.2-.3-.7 0-.5.3.7 1.2 1.5 2.4 2.2 3.6.7 1.1 1.4 2.1 1.9 3.3.5 1.1.8 2.3.4 3.5-.3 1.1-1.2 1.8-1.8 2.7-1.3 1.9-.6 4.3-1.2 6.4-.6 1.7-2.1 2.7-3.7 3.4-1.8.9-3.8 1.5-5.4 2.9-.4.5 0 .9.3.7zm-6-40.1c-1.2-1-2.3-2-3.5-3-1-.9-2-1.7-3.1-2.5-1.1-.7-2.3-1.4-3.6-1.7-1.3-.4-2.7-.5-4-.5-2.7.1-5.3.9-7.7 2-2.2 1.1-4.4 2.6-5.7 4.7-1.4 2.2-1.9 5.2-.8 7.7.2.4.8.2.6-.2-1-2.1-.7-4.6.4-6.6 1.1-2.1 3.1-3.7 5.2-4.8 2.2-1.1 4.8-1.9 7.3-2.1 1.3-.1 2.6-.1 3.9.2 1.3.3 2.4.8 3.5 1.5 1.2.8 2.3 1.7 3.4 2.6 1.2 1.1 2.5 2.1 3.7 3.2.3.2.7-.2.4-.5zm16.9 4.8c1.2-2.3 1.7-5.1.2-7.4-.6-.9-1.5-1.7-2.6-2-1.1-.3-2.2-.1-3.1.6-1 .7-1.6 1.9-1.4 3.1.1.4.7.4.6 0-.3-1.9 1.8-3.5 3.6-3.1 2.1.5 3.2 2.6 3.2 4.6 0 1.4-.4 2.7-1.1 3.9-.2.4.4.7.6.3z"/>
    <path class="st3" d="M162.1 303.6c3.2 1.1 6.6 1.1 9.9.7 3.4-.4 6.8-1.2 10.2-1.8 1.9-.3 3.8-.6 5.8-.6.4 0 .4-.6 0-.6-3.4.1-6.8.8-10.2 1.5-3.3.6-6.7 1.3-10.1 1.2-1.9 0-3.7-.3-5.5-.9-.4-.2-.5.4-.1.5z"/>
    <path class="st3" d="M187.9 296.4c-2.6 1-4.8 3.2-5.7 5.8-.1.2 0 .3.1.4.1.1.4 0 .4-.1.9-2.5 2.9-4.6 5.4-5.5.3-.2.1-.8-.2-.6zm-21.1 3.5c1.7.4 3.1 1.8 3.6 3.5.1.4.7.2.6-.2-.5-1.9-2.1-3.5-4-4-.5 0-.6.7-.2.7zm7-5.9c1.2.5 2.3 1.3 3 2.4.2.3.8 0 .5-.3-.8-1.2-1.9-2.1-3.2-2.6-.2-.1-.3 0-.4.1-.1.2 0 .4.1.4zm1.4-2.2c1.3.5 2.5 1.3 3.4 2.4.1.1.3.1.4 0 .1-.1.1-.3 0-.4-1-1.1-2.2-1.9-3.6-2.5-.2-.1-.3 0-.4.1 0 .1 0 .3.2.4zm8.2-4.5c-.7.4-.5 1.7.3 1.9.8.3 1.7-.2 2.1-.9.4-.7.4-1.7-.3-2.1-.6-.5-1.8-.1-1.7.7l-.4.4z"/>
    <path class="st10" d="m120.2 176.5.6.9c2.4 4.4 3.1 10.3 2.1 15.6-1 5.5-2.6 8.3-5.8 12.3-3.2 4-5.5 6.8-8.8 10.8-1.9 2.3-3.5 5.6-4.2 8.9-.8 3.7-1.2 7.8-1.5 9.8-.6 3.3-1.6 9.4-2.1 13.9-.5 4.9-.5 9.1-.6 11.8-.2 3.6-.7 6.8-2.2 8.2-1.5 1.3-2.8 2.3-5.1 3.3-2.3 1.1-5.1 1.8-8.3 1.7h-.5l36.4-97.2z"/>
    <path class="st11" d="M4.4 308.5c-3.5-.9-5.3-5.8-4-11 1.3-5.2 5.2-8.7 8.7-7.8l2.9.7c3.5.9 5.3 5.8 4 11-1.3 5.2-5.2 8.7-8.7 7.8l-2.9-.7z"/>
    <path class="st12" d="M13.3 300.8c-.7 3-3 5-4.9 4.5-2-.5-3-3.3-2.3-6.3.7-3 3-5 4.9-4.5 2 .5 3 3.3 2.3 6.3z"/>
    <path class="st11" d="M40.4 294.3c-3.4-.8-5.1-5.6-3.8-10.6 1.2-5 5-8.4 8.3-7.5l2.8.7c3.4.8 5.1 5.6 3.8 10.6-1.2 5-5 8.4-8.3 7.5l-2.8-.7z"/>
    <path class="st12" d="M49 286.8c-.7 2.9-2.8 4.8-4.8 4.3-1.9-.5-2.9-3.2-2.2-6 .7-2.8 2.8-4.8 4.8-4.3 1.9.4 2.9 3.1 2.2 6z"/>
    <path class="st11" d="M59.2 322.8c-3.5-.9-5.3-6.1-3.9-11.6s5.4-9.3 8.9-8.4l2.9.7c3.5.9 5.3 6.1 3.9 11.6s-5.4 9.3-8.9 8.4l-2.9-.7z"/>
    <path class="st12" d="M68.3 314.5c-.8 3.1-3.1 5.3-5.1 4.8-2-.5-3-3.5-2.2-6.6.8-3.1 3.1-5.3 5.1-4.8 2 .5 3 3.5 2.2 6.6z"/>
    <path class="st11" d="M95.1 306.7c-3.5-.9-5.2-5.9-3.8-11.3 1.3-5.4 5.2-9 8.7-8.2l2.9.7c3.5.9 5.2 5.9 3.8 11.3-1.3 5.4-5.2 9-8.7 8.2l-2.9-.7z"/>
    <path class="st12" d="M103.9 298.6c-.8 3.1-3 5.2-5 4.7s-3-3.4-2.2-6.4c.8-3.1 3-5.2 5-4.7 2 .4 3 3.3 2.2 6.4z"/>
    <path class="st11" d="M70.6 325.7c-3.1-.8-4.4-5.9-3.1-11.4 1.4-5.5 5-9.3 8-8.6l2.6.6c3.1.8 4.4 5.9 3.1 11.4-1.4 5.5-5 9.3-8 8.6l-2.6-.6z"/>
    <path class="st12" d="M78.8 317.1c-.8 3.1-2.8 5.3-4.6 4.9-1.8-.4-2.5-3.3-1.8-6.5.8-3.1 2.8-5.3 4.6-4.9 1.8.5 2.6 3.4 1.8 6.5z"/>
    <path class="st11" d="M70.6 325.7c-3.1-.8-4.4-5.9-3.1-11.4 1.4-5.5 5-9.3 8-8.6l2.6.6c3.1.8 4.4 5.9 3.1 11.4-1.4 5.5-5 9.3-8 8.6l-2.6-.6z"/>
    <path class="st12" d="M78.8 317.1c-.8 3.1-2.8 5.3-4.6 4.9-1.8-.4-2.5-3.3-1.8-6.5.8-3.1 2.8-5.3 4.6-4.9 1.8.5 2.6 3.4 1.8 6.5z"/>
    <path class="st13" d="m92.1 251.5 12.6 45.5c.4 1.4-.4 2.9-1.9 3.3-1.4.4-2.9-.4-3.3-1.9L88.8 260l3.3-8.5z"/>
    <path class="st13" d="m111 186.1-19 50.6-9.5 25.2L63.3 313c-.5 1.4.2 2.9 1.6 3.4 1.4.5 2.9-.2 3.4-1.6l47.8-127.1-5.1-1.6z"/>
    <path class="st14" d="M63.1 202.3c.2 2.6.5 4.5-.1 6.1-.5 1.3-.4 3.5-.1 4.6.8 2.9 1.8 5.3 5.1 6.6.4 1.5 2.3 3 4.3 3.1 3.1.2 5.2-.3 6.9-2.1 1.7-.2 3.4-.8 4.9-1.6 1.8-1 2-2.1 3-3.7 1 .4 2.8-.4 3.6-2.1.7-1.5 1-3 .3-4.3-.7-1.3-2.3-1.5-3.1-.8-.8-1.7-1.7-6-1.4-8.1-2.9-3.6-7-4.8-10.1-5-3.1-.2-6.8-.1-9.5.7-2.3.7-4.1 3.6-3.8 6.6z"/>
    <path d="M90.9 208.9c-.7-1.3-2.3-1.5-3.1-.8-.8-1.7-1.7-6-1.4-8.1-2.9-3.6-7-4.8-10.1-5-3.1-.2-6.8-.1-9.5.7-2.1.7-3.8 3.6-3.6 6.6-1.3-6.4.7-9.6 4.6-12 3.2-1.9 7.9-2.3 10.4-2.2 2.5.1 3.8.8 4.4 1.4 1.4-.3 3.7.1 5.9 2.3 2 2 3.8 6.2 3.9 8.4.1 2.2.1 6.2-1.5 8.7z" style="fill:#906946"/>
    <path class="st16" d="M67 248.9c-1.7-.7-4.4-.6-6.1 1.3-2.6 2.9-3.9 9.1-3.7 11.5.2 2.4.7 3.7 2.7 4.2 1.6.4 3.5 0 5.1-1.4.6-.5 1.1-1.1 1.6-1.9 1.7-2.8 2.8-5.9 3-8 0-2.1-.5-4.8-2.6-5.7zm-31.8-4.1c-2.6.6-4.1 2-4 4.9.1 2.9 1.5 7.1 2.9 9.1 1.5 2 3.2 2.9 4.8 2.7.6-.1 1-.2 1.5-.4 1.2-.7 1.8-2.1 1.8-4 0-2.5-.7-7.2-1.6-9.2-1-2.1-2.9-3.7-5.4-3.1z"/>
    <path class="st12" d="M111 186.1s4.1-11.3 6.8-17.7c2.5-6.6 4.8-12.7 5.7-15.1 1.3-3.5 3.2-6.6 5.8-9.1 1.7-1.7 4.1-3.8 5.7-5.1.5-.3.8-.7 1-.9-.5-.2-1.4-.4-2.7-.3-3 .1-11.9-.2-20.7-.5-8.8-.3-17.7-.5-20.1-.5-2.5 0-4.2.1-5.1.4-.9.3-1.8.8-3 2.1-3.5 3.6-5.9 6.9-7.2 10.8l-.4 1-5.6-.1c3.1-8.4 5.7-11.3 9.5-15.2 1.5-1.6 3.2-2.9 5.2-3.5 2-.6 4-.7 6.6-.8 2.8-.1 11.5.2 20.4.4 8.9.2 17.9.4 20.5.3 2.3 0 4.1.3 5.7 1.1 1.6.8 2.9 2.6 2.9 4.5-.1 2.5-1.5 4.2-3.4 5.7-1.4 1.1-3.7 3.2-5.3 4.7-2.3 2.3-3.6 4-4.3 6.3-.9 2.6-3.7 9.6-6.4 16.2-2.7 6.5-5.6 15-6.4 17.3l-5.2-2z"/>
    <path class="st13" d="M39 265.8c1.9.5 3.8 1 5.6 1.5l5.1 18.4c.4 1.3-.4 2.7-1.7 3.1-1.3.4-2.7-.4-3.1-1.7L39 265.8zm10.7-58.9c.1.9.2 2 .2 3.3L11.8 302c-.5 1.3-2.1 1.9-3.4 1.4-1.3-.5-2-2.1-1.4-3.4l16.4-39.6 25-60.4c.5 2.8 1 5.3 1.3 6.9z"/>
    <path d="M66.1 207.9c0 .8.6 1.4 1.4 1.4.8 0 1.4-.6 1.4-1.4 0-.8-.6-1.4-1.4-1.4-.8 0-1.4.6-1.4 1.4zm11 1.1c0 .8.6 1.4 1.4 1.4.8 0 1.4-.6 1.4-1.4 0-.8-.6-1.4-1.4-1.4-.8 0-1.4.6-1.4 1.4z" style="fill:#808184"/>
    <path d="M69.3 214.6c.4 1.8 2 2.9 3.2 3 1.2.1 3.1-.8 3.5-2.4" style="fill:none;stroke:#e44044;stroke-width:.6995;stroke-linecap:round;stroke-linejoin:round;stroke-miterlimit:10"/>
    <path class="st10" d="M49.7 206.9c.1.9.2 2 .2 3.3 0 2.7-.3 6-1.3 8-1.5 2.9-6.3 10.2-6.3 10.2l-1.3 3.1c.3-.2.7-.4 1-.5 1.4-2.1 6.5-9.6 7.9-12.5 1.7-3.6 1.2-10.3.1-16-1.4-7-4.5-24-4.9-34.6-.2-7.1 3.1-11.1 7.5-13.2 3.5-1.7 11-2.6 20.8-2.4 12.7.2 18.8 1.5 23.7 4 3.4 1.7 4.7 7.4 4.8 12.8.1 5.3 1.9 24.2.9 38l-.1 1.1 8.2-21.8s2.9-8 5.4-14.3c-3.9-4.5-9.1-9.6-11.6-11.9-3.7-3.5-7.4-5.7-14.6-7.3-3.3-.7-8.3-1.2-13.5-1.4-1.9-.1-3.8-.1-5.6-.1-4.3 0-8.4.1-11.1.4-7.1.8-13.9 4.1-15.5 10.6-1.7 6.7.4 17.7 1.1 22.6.6 4.2 1.7 10.4 2.7 15.5.7 2.3 1.2 4.8 1.5 6.4z"/>
    <path d="M82.5 261.9c-3 1.7-12.8 2.9-17.6 2.6.6-.5 1.1-1.1 1.6-1.9 1.7-2.8 2.8-5.9 3-8 .1-2.1-.3-4.8-2.4-5.7-1.7-.7-4.4-.6-6.1 1.3-2.6 2.9-3.9 9.1-3.7 11.5-2.3-.1-5-.4-7.5-.7-2.1-.3-6.7 0-9.2 0 1.2-.7 1.8-2.1 1.8-4 0-2.5-.7-7.2-1.6-9.2 2.1-.9 11.5-1.5 13.4-1.6 1.5 0 1.5-.8 1.5-1.9 0-.9-.4-1.7-.5-2.3 1.6.3 3 .5 3.9.7 5.2.9 22.7 3.9 29 4.8l-5.6 14.4zM78 240.3c4.9.4 9.4.8 12.3.9l1.7-4.6c.4-3 0-6.3-1.1-9.2-1.4-3.5-3.8-5.8-6.5-7.3.1-.4 0-.8-.2-1.2-1.5.8-3.1 1.3-4.9 1.6-1.7 1.9-3.9 2.3-6.9 2.1-2-.1-3.9-1.7-4.3-3.1-4.3 1-8.7 3.1-12.6 6.7-2 1.8-3.9 4.8-4.8 6.2 1.1.9 1.9 1.9 2.3 4.3 2.6.6 5 1.1 6.9 1.5 1.3.2 2.7.4 4.2.6v-.4c.2-1.4 1.9-2.5 3.2-2.9 2.2-.7 5.8-.3 7.8 1 1.2.9 2.3 1.9 2.9 3.8z" style="fill:#f25aae"/>
    <path d="M40.6 247.8c2.1-.9 11.5-1.5 13.4-1.6 1.5 0 1.5-.8 1.5-1.9 0-.9-.4-1.7-.5-2.3-4.8-.8-11.8-2-17-3l-2.4 5.7c2.2-.3 4.1 1.2 5 3.1zm10-15.3c-1.5-1.3-4.9-2.3-8-1.7-.2 0-.4.1-.6.2 1.4-2.1 6.5-9.6 7.9-12.5 1.7-3.6 1.2-10.3.1-16-1.4-7-4.5-24-4.9-34.6-.2-7.1 3.1-11.1 7.5-13.2 3.5-1.7 11-2.6 20.8-2.4 12.7.2 18.8 1.5 23.7 4 3.4 1.7 4.7 7.4 4.8 12.8.1 5.3 1.9 24.2.9 38l-.1 1L92 236.7c.4-3 0-6.3-1.1-9.2-1.4-3.5-3.8-5.8-6.5-7.3.1-.4 0-.8-.2-1.2 1.8-1 2-2.1 3-3.7 1 .4 2.8-.4 3.6-2.1.7-1.5 1-3 .3-4.3 1.6-2.5 1.6-6.5 1.4-8.7-.1-2.2-1.9-6.4-3.9-8.4-2.2-2.2-4.5-2.6-5.9-2.3-.6-.6-1.9-1.3-4.4-1.4-2.5-.1-7.2.2-10.4 2.2-3.9 2.4-5.9 5.6-4.6 12 .2 2.6.5 4.5-.1 6.1-.5 1.3-.4 3.5-.1 4.6.8 2.9 1.8 5.3 5.1 6.6-4.3 1-8.7 3.1-12.6 6.7-2.2 1.9-4.1 4.8-5 6.2zm31.9 29.4c-3 1.7-12.8 2.9-17.6 2.6-1.6 1.3-3.4 1.8-5.1 1.4-2-.5-2.5-1.8-2.7-4.2-2.3-.1-5-.4-7.5-.7-2.1-.3-6.7 0-9.2 0-.4.2-.9.4-1.5.4-1.6.2-3.3-.7-4.8-2.7-.9-1.2-1.7-3.1-2.2-5.1h-.1c-2.7.1-5.3.4-5.8.5-2.3.3-3.6 1.3-3.9 3.1-.3 1.9.6 3.4 4.7 4.8 3.6 1.2 8 2.5 12.2 3.7 1.9.5 3.8 1 5.6 1.5 2.5.6 4.7 1.1 6.7 1.5 6.5 1.3 18.5 3.5 26.9 4.5l4.3-11.3z" style="fill:#3f3a3b"/>
    <path class="st11" d="M50.5 296.5c-3.4-.8-5.1-5.6-3.8-10.6 1.2-5 5-8.4 8.3-7.5l2.8.7c3.4.8 5.1 5.6 3.8 10.6-1.2 5-5 8.4-8.3 7.5l-2.8-.7z"/>
    <path class="st12" d="M59 289c-.7 2.8-2.8 4.8-4.8 4.3-1.9-.5-2.9-3.2-2.2-6 .7-2.9 2.8-4.8 4.8-4.3 2 .4 2.9 3.1 2.2 6z"/>
    <path class="st11" d="M14.9 311.2c-3.5-.9-5.3-5.8-4-11 1.3-5.2 5.2-8.7 8.7-7.8l2.9.7c3.5.9 5.3 5.8 4 11-1.3 5.2-5.2 8.7-8.7 7.8l-2.9-.7z"/>
    <path class="st12" d="M23.7 303.4c-.7 3-3 5-4.9 4.5-2-.5-3-3.3-2.3-6.3.7-3 3-5 4.9-4.5 2.1.5 3.1 3.3 2.3 6.3z"/>
    <path class="st11" d="M70.6 325.7c-3.1-.8-4.4-5.9-3.1-11.4 1.4-5.5 5-9.3 8-8.6l2.6.6c3.1.8 4.4 5.9 3.1 11.4-1.4 5.5-5 9.3-8 8.6l-2.6-.6z"/>
    <path class="st12" d="M78.8 317.1c-.8 3.1-2.8 5.3-4.6 4.9-1.8-.4-2.5-3.3-1.8-6.5.8-3.1 2.8-5.3 4.6-4.9 1.8.5 2.6 3.4 1.8 6.5z"/>
    <path class="st11" d="M105.7 309.1c-3-.7-4.3-5.7-3-11.1 1.3-5.4 4.9-9.1 7.9-8.4l2.5.6c3 .8 4.3 5.7 3 11.1-1.3 5.4-4.9 9.1-7.9 8.4l-2.5-.6z"/>
    <path class="st12" d="M113.7 300.8c-.8 3.1-2.8 5.2-4.5 4.8-1.7-.4-2.5-3.3-1.7-6.3.8-3.1 2.8-5.2 4.5-4.8 1.7.4 2.5 3.2 1.7 6.3zm-80.4-69.3c3.8 1.1 12.4 3.6 19.6 5.3 2.6.6 5 1.1 6.9 1.5 1.3.2 2.7.4 4.2.6 4.2.6 9.2 1.1 13.9 1.5 4.9.4 9.4.8 12.3.9 1.3.1 2.3.1 2.7.1 2.5 0 4 2.5 3.2 4.4-.7 1.8-2.4 2.4-6.3 2-.4 0-1.1-.1-2-.3-6.3-.9-23.8-3.9-29-4.8-.9-.2-2.3-.4-3.9-.7-7.9-1.4-22.1-3.8-23.7-4.7-2-1.1-2.1-3.1-1.6-4.3.5-1.2 2.4-1.9 3.7-1.5z"/>
    <path class="st14" d="M50.6 232.5c-1.5-1.3-4.9-2.3-8-1.7-1.4.3-3.1 1.4-3.4 3.4-.2 1.6.4 2.8 2.6 3.6 2.3.8 4.8 0 6.8-1.3 1.7.6 4.1.4 4.1.4-.2-2.6-1-3.5-2.1-4.4zm24.5 4.1c-2-1.3-5.6-1.8-7.8-1-1.3.4-3 1.6-3.2 2.9-.3 1.6.7 2.8 2.9 3.6 2.3.8 4.8 0 6.8-1.3 1.5.4 4.1-.4 4.1-.4-.5-2-1.6-3-2.8-3.8z"/>
    <path class="st16" d="M66.3 220c-.4 1.6.1 3.9 1.4 4.2 1.8.5 3.4-.5 4.2-1.2.3 1.6 2.8 3 4.8 2.4 2-.6 5.6-2.6 6.7-3.8.6-.6.9-1.1 1-1.5.1-.4 0-.8-.2-1.2-1.5.8-3.1 1.3-4.9 1.6-1.7 1.9-3.9 2.3-6.9 2.1-2-.1-3.9-1.7-4.3-3.1-.7.2-1.2.3-1.8.5z"/>
    <path class="st12" d="M72.3 227.7c0 .9-.7 1.6-1.6 1.6-.9 0-1.6-.7-1.6-1.6 0-.9.7-1.6 1.6-1.6.9 0 1.6.7 1.6 1.6z"/>
    <path class="st0" d="M185 96c-1.1 3.7-4.2 8.1-8.3 15.9-8.9 3-17.8 6.1-26.7 9.1-5.1 1.7-10.5 3.6-14.4 7.4-2.3 2.2-3.9 4.9-5.5 7.5 1.7.8 3.9-.1 4.5-1.9-1.1 1.2-2.1 2.3-3.2 3.5-.5.5-1 1.1-.9 1.8.1 1 1.2 1.5 2.2 1.3 1-.2 1.7-.9 2.4-1.6-.4.8.2 1.9 1.1 2.1.9.2 1.8-.6 1.8-1.5-.2.9.5 1.9 1.4 2 .9.1 1.8-.6 1.9-1.5-.7.7.4 2.1 1.4 1.9 1-.2 1.7-1.1 2.3-2 1.4-2.2 2.8-4.5 4.2-6.7.4-.6.8-1.2 1.4-1.6.6-.3 1.4-.3 2.1-.4 10.5-.1 21-1.7 31-4.8 1.5-.5 3.2-1 4.3-2.2 1-1.1.8-2.9 1.8-4 4.1-4.5 9.4-13.7 12.6-27.2L185 96z"/>
    <path class="st1" d="M134.8 140c.8-1.6 1.9-3 3.3-4.1.3-.2-.1-.7-.4-.5-1.5 1.2-2.7 2.7-3.5 4.4-.1.2 0 .3.2.4.2 0 .3-.1.4-.2zm3.4.3c.7-.8 1.4-1.7 2-2.5.1-.1 0-.3-.1-.4-.2-.1-.3 0-.4.1-.7.8-1.4 1.7-2 2.5-.1.1 0 .3.1.4.1.1.3 0 .4-.1zm3 1c.7-1 1.4-1.9 2-2.9.2-.3-.3-.7-.5-.3-.7 1-1.4 1.9-2 2.9-.2.2.3.6.5.3z"/>
    <path class="st1" d="M135.9 134.7c2.7 1.4 5.4 2.7 8.1 4.1.4.2.7-.3.3-.5-2.7-1.4-5.4-2.7-8.1-4.1-.3-.2-.6.3-.3.5zm10.8-11.5 3.3 4.2c.2.3.7-.1.5-.4l-3.3-4.2c-.2-.3-.7.1-.5.4zm31.4-11c1.8 1.5 3.6 3 5.3 4.5.3.3.7-.3.3-.5-1.8-1.5-3.6-3-5.3-4.5-.3-.3-.6.2-.3.5zm-30 9.7c6.3-1.8 12.6-3.8 18.7-6.2 1.7-.7 3.5-1.4 5.2-2.1.4-.2.1-.7-.3-.6-6 2.5-12.2 4.8-18.4 6.7-1.7.5-3.5 1-5.2 1.5-.5.2-.4.8 0 .7zm-16.5 10.5c2.5-3.2 5.6-6 9.1-8 1-.6 2-1.1 3.1-1.6.4-.2.1-.7-.3-.6-3.8 1.7-7.3 4.1-10.1 7.1-.8.8-1.6 1.7-2.3 2.7-.3.4.2.7.5.4z"/>
    <path class="st7" d="M183.6 96.9c-.4-1.5-.5-3.1-.5-4.7 7.5-.9 13.4-1.7 20.9-2.6.1 2-.1 4 .4 6l-20.8 1.3z"/>
    <path d="M57.1 237.5H57c-.3-.1-.4-.4-.3-.6.9-3.2 2.8-6.2 5.3-8.3.2-.2.5-.2.7 0 .2.2.2.5 0 .7-2.4 2.1-4.1 4.9-5 7.9-.2.1-.4.3-.6.3zm16.2-.4c-.1 0-.3-.1-.4-.2-.2-.2-.2-.5 0-.7 1.4-1.3 2.8-2.7 4.5-3.7 1.4-.8 3.5-1.7 5.8-1.4.3 0 .5.3.4.6 0 .3-.3.5-.6.4-2-.3-3.9.5-5.1 1.3-1.6.9-3 2.3-4.3 3.5-.1.2-.2.2-.3.2zm-3.2 16c-.2 0-.3-.1-.4-.2-.2-.2-.1-.5.1-.7 2.4-1.8 5.4-2.8 8.5-2.7.3 0 .5.2.5.5s-.3.5-.5.5c-2.8-.1-5.6.8-7.8 2.5-.2.1-.3.1-.4.1zm-14.5-6.6c-.3 0-.5-.2-.5-.4 0-.3.2-.5.4-.6 2.3-.3 4.6-.3 6.9-.1.3 0 .5.3.5.5s-.3.5-.5.5c-2.3-.1-4.5-.1-6.8.1z" style="fill:#c2b59b"/>
    <path d="M95.2 181c-.1 0-.2 0-.3-.1-10.3-8.5-25.9-10.3-37.9-4.6-.3.1-.5 0-.7-.2-.1-.2 0-.5.2-.7 12.5-6 28.2-4.1 38.9 4.7.2.2.2.5.1.7-.1.2-.2.2-.3.2zm-35.5 12.5c-.2 0-.4-.1-.5-.4-1.2-4.5-1.6-9.1-1.3-13.7 0-.3.3-.5.5-.5.3 0 .5.3.5.5-.4 4.5.1 9 1.2 13.4.1.3-.1.5-.4.6.1.1 0 .1 0 .1z" style="fill:#c49a6c"/>
    <path d="M61.6 263.1c-.1 0-.1 0-.2-.1-1.1-.6-1.6-1.9-1.5-3.9.1-1.8.5-3.6 1-5.4.1-.3.4-.4.6-.3.3.1.4.4.3.6-.5 1.7-.9 3.4-1 5.2-.1.9 0 2.4.9 2.9.2.1.4.4.2.7.1.2-.1.3-.3.3zm-22.9-5.7c-.1 0-.2 0-.3-.1-1.8-1.3-3.1-3.4-3.3-5.7 0-.3.2-.5.4-.5.3 0 .5.2.6.4.2 2 1.3 3.8 2.9 4.9.2.2.3.5.1.7-.1.2-.2.3-.4.3z" style="fill:#808285"/>
</svg>
