<svg xmlns="http://www.w3.org/2000/svg" width="360.4" height="342.2" style="overflow:visible;enable-background:new 0 0 360.4 342.2" xml:space="preserve">
    <style>
        .st0{fill:#e15147}.st2{fill:#f6b48c}.st3{fill:#7f4a24}.st4{fill:#c24037}.st5{fill:#ca814f}.st6{fill:#010101}.st7{fill:#587393}.st9{fill:#363745}.st10{fill:#6d351e}
    </style>
    <path class="st0" d="M140.8 148.3c7.7 7.6 17.8 15.3 26 22.2 8.3 7 53.1 57.1 61.2 64.3 8.1 7.1 16.4 14 24.8 20.7 8.5 6.7 17.1 13.1 25.9 19.4 8.8 6.3 17.6 12.4 26.6 18.4 1.1.7 2.2 1.5 3.4 2.2 1.7 1.1 3.6-1.5 1.8-2.6-9-6-17.9-12-26.7-18.3-8.8-6.2-17.4-12.6-25.9-19.2S241.1 242 233 235c-8-7-52.8-57.4-61-64.2-8.2-6.8-16.2-14-23.9-21.4-1-.9-4.1-2.3-5-3.3-1.5-1.5-5.9-1.8-4.4-.3l2.1 2.5z"/>
    <path d="M270.8 305c-4.4-1.9-7.6-6-9.5-10.4-1.8-4.4-2.5-9.3-2.9-14.1-.1-.9-.2-1.8-.9-2.4-.9-.7-2.3-.3-3.3.2-3.7 1.7-7.6 3.7-9.3 7.4-.7 1.5-.8 3.4.3 4.5.9.8 2.3.9 3.4.4 1.1-.4 2.1-1.3 2.9-2.1-1 1.7-2.5 3.1-3.4 4.9-1 1.7-1.5 4-.4 5.6 1 1.5 3 2 4.8 1.7 1.8-.4 3.3-1.5 4.5-2.8-2.3.8-3.4 4.1-2 6.1s4.9 2.1 6.5.2c-.5 1.2.6 2.5 1.9 2.7 1.3.2 2.5-.4 3.5-1.1l3.9-.8zm53.5 7.8c.9 1.5 1.4 3.3 1.6 5.1.2 2.1-.2 4.2-.1 6.3.2 2.6 1.3 5 3 6.9.3.3.7.7 1.1.9.9.3 1.9-.1 2.8-.3.9-.3 2.1-.3 2.6.5.5.7.1 1.7-.5 2.2-.6.5-1.5.7-2.3.9-1 .2-2.1.5-3.1.5-2.8 0-5.3-1.9-7.1-4-1.8-2.2-3-4.7-4.7-6.9l6.7-12.1zm-35 13.8c-.6 1.6-1.2 3.2-1.8 4.7-.4.9-.7 2-.3 2.9.8 1.7 3.6 1.4 4.6 2.9.1.2.2.4.1.6-.1.2-.3.3-.4.4-1.9 1.1-4 1.6-6.2 1.6-.8 0-1.7-.1-2.4-.5-.9-.5-1.6-1.3-2.2-2.1-1.7-2.3-3.4-4.6-5.2-6.9l13.8-3.6zm43.4-51.7c.8-3.7 2.1-7.3 3.9-10.7 1.3 4 2.4 8 3.3 12.1-2.6 0-5.1.3-7.6.9l.4-2.3z" style="fill:#663d17"/>
    <path class="st2" d="M39.9 142c-1 2.3-2.1 4.6-3.1 7 1.6 1.1 1.2 3.5.7 5.3-1 3.4-3.6 10.7-4.6 9.4-1-2.1-.6-4.5-.2-6.8-2.1 3.1-4.3 6.1-6.4 9.2-.6.9-1.5 1.9-2.6 1.9 0 .1 1.9-6.7 3.3-9.9-1.6 2-3.1 3.9-4.7 5.9-.9 1.1-2.1 2.4-3.5 2.3 1-3.3 2.4-6.5 4.3-9.4-1.4 2.5-4.3 9.3-5.8 8.9-1.9-.6 2-9.4 4.2-12-1.6 1.1-3.9 4.5-5.7 5.4-.3.1-.6.3-.9.2-.9-.2-.6-1.6 0-2.4 1.9-2.4 4.3-7.3 6.2-9.7 1.5-2 3.8-4.2 6.2-3.4.5.2 5.9-6.9 7.8-10.1 1.8.6 3.5 1.5 5 2.5l-.2 5.7z"/>
    <path class="st3" d="M30.9 158.8c1-2.1-.4-4.3-.9-6.3-.4-1.7-.6-3.9.9-5.2.4-.4 1.1.2.7.6-1.4 1.3-1 3.4-.4 5 .7 2 1.6 4.2.6 6.3-.3.6-1.1.2-.9-.4zm-10.6-4.4c2.1-1.7 3.9-3.8 5.1-6.2.3-.5 1.1-.1.8.4-1.3 2.5-3.2 4.8-5.5 6.5-.4.5-.9-.4-.4-.7z"/>
    <path class="st3" d="M21.4 154.5c2.6 1.4 5.2 2.7 7.8 4.1.5.3.1 1.1-.4.8-2.6-1.4-5.2-2.7-7.8-4.1-.6-.3-.2-1.1.4-.8z"/>
    <path class="st3" d="M24.7 157.3c-2.4 2.5-4.3 5.5-5.6 8.7-.2.6-1.1.1-.8-.4 1.3-3.3 3.3-6.3 5.8-8.9.3-.5 1 .1.6.6z"/>
    <path class="st4" d="M70.3 66.1C67 72.7 59.6 76.6 56.6 83.4c-2.6 5.9-1.2 12.9-3.8 18.8-3.5 7.9-12.7 11.4-18.2 18.1-4.3 5.3-6 12.7-4.4 19.4 3.9 1.4 7.6 3.3 11 5.7 2.5-5.7 10.9-4.9 16.1-8.2 7.7-4.9 6.4-16.9 12.1-24.2 3.6-4.6 9.9-7 12.7-12.1 3.8-6.9-.3-15.4-.3-23.3 0-2.4.4-4.9-.3-7.2-1.2-3.4-5.2-5.6-8.7-4.7l-2.5.4z"/>
    <path class="st5" d="M359.7 290.9c-.3 3.9-1.6 7.8-3.6 11.2-.2.4-.5.7-.8.9-.2 1.2-.4 2.5-.7 3.7-.1.7-.3 1.4-.7 1.9-.4.6-1.2.9-1.8.6-1-.5-.7-2-1.2-3-.1 1.1-.4 2.2-1 3.2-.4.8-1.1 1.5-2 1.4-1.2-.1-1.6-1.7-1.6-2.9-.8 1.2-.8 2.9-2.1 3.5-1 .5-2.3-.2-2.8-1.1-.6-1-.6-2.1-.7-3.2-.4 1.1-.9 2.1-1.6 3.1-.4.7-1.1 1.4-1.9 1.1-.3-.1-.5-.4-.7-.7-.9-1.5-1.2-3.4-.9-5.1-.8.6-1.1 1.7-1.7 2.6-.6.9-2 1.4-2.6.5-.3-.4-.2-.9-.2-1.3.1-2.2-4.8 11.5-10.5 17.4-3.3 3.4-7.4 6.3-9.5 10.7-.2.4-.3 1-.1 1.4.6 1.6 2.9.5 3.8 2.1.4.8.2 1.8-.4 2.5-1 1-2.5 1-3.9.7-4.7-1-8.2-5.9-7.7-10.7-.7 1.4-1.5 2.9-3 3.2-1.2.2-2.3-1.1-2.2-2-.9 1.3-1.9 2.5-3.4 2.8-1.6.3-3.4-1.2-3-2.6-.8 1.4-2.5 2.2-4 1.8-1.5-.3-2.6-1.7-2.8-3.3-.2 1.3-1.3 2.5-2.6 2.7-1.6.2-3.1-1.1-3.3-2.7-.6 2.1-3.4 3.1-5.2 1.9-1.8-1.2-1.9-4.2-.3-5.5-2.6 1-5 2.5-7.1 4.3-1.2 1-2.3 2.8-1.2 3.9.5.4 1.2.6 1.2 1.4 0 .7-.6 1.3-1.4 1.3-2.7-.1-5.5-.5-8.1-1-.6-.1-1.2-.3-1.5-.8-.3-.5-.1-1.1 0-1.6 2.2-7.9 4.5-15.7 6.9-23.6.6-1.9 1.8-3.5 3.4-4.8l1.7-1.4c1.5-1.2 3.3-2.1 5.3-2.4 7.4-1.1 15.3.2 22.8-1.1 7.4-1.3 14.3-5.2 19.2-11 4.7-5.5 7.4-12.3 10-19 1.4-3.6 3.2-5.2 4.6-8.8l3.8 9.7c3.5 0 6.9.4 10.3 1.2 1 .2.9 1.5.1 1.8 1.6.3 3.2.8 4.5 1.7.7.4.6 1.4-.2 1.7-.6.2-1.3.3-1.9.2.4.2.9.3 1.3.5.9.5.5 1.9-.5 1.7-2.2-.3-4.4-.9-6.3-1.9 5.1 4.1 11 4.6 16.9 7.2.8.4 1.7.8 2.2 1.5.8.7.8 1.6.7 2.5zm-9.1 9.3c0 .3 0 .5.1.8 0-.3 0-.6-.1-.8z"/>
    <path class="st4" d="M21.2 193.5c6.5 4.4 14.4 9 22.3 9.6 2.8.2 5.6 0 8.4.6 9.1 2 15.3 13 24.6 12.3 4.6-.3 8.8-3.5 13.3-2.9 3.6.5 6.5 3.3 10 4 5 1.1 9.8-2.2 14.2-4.8 4.4-2.6 10.7-4.4 14.9-1.4-2.8-14.6-18.4-26-33.1-24.3-4.4.5-8.7 2-13.2 1.9-4.4-.1-9.3-2.5-10.3-6.8-.3-1.5-.2-3-.7-4.4-1.2-3.8-5.9-5.1-9.8-5.1-4 .1-8.1.9-11.7-.6l-28.9 21.9z"/>
    <path class="st2" d="M62.9 188.2c-21.2 12.7-38.4 31.9-48.7 54.4-2.1 4.6-4.4 9.8-9.2 11.4-1.3.4-2.7.6-3.7 1.6-1.6 1.7-.4 4.5.8 6.5 4.3 7 8.6 14.1 12.9 21.1 2.2 3.6 5.3 7.7 9.5 7.4-4.5-11-10-22.2-4.4-32.7 5.6-10.5 22-20.9 30.4-29.3l27.9-27.9-15.5-12.5z"/>
    <path class="st6" d="M6.6 253.8c2.1 1.5 3.3 4.1 3.1 6.6-.1 1.7-.8 3.4-.6 5.2.2 1.4.9 2.6 1.6 3.8 1.1 1.8 2.1 3.5 3.2 5.3.9 1.6 2.1 3.3 3.9 3.6.7.1 1.5 0 2.2.4.7.4 1.1 1.1 1.4 1.8 1.3 2.8 2.7 5.7 4 8.5.3.6.5 1.2.4 1.8-.3 1.8-3 1.5-4.5.6-5.7-3.5-9.2-9.6-12.5-15.4-2.4-4.2-4.8-8.5-7.2-12.7C1 262.2.4 261.2.2 260c-.5-3.3 3.2-6.9 6.4-5.9v-.3z"/>
    <path class="st3" d="M59.5 211.7c.1-.2 0 0 0 0-.1.2-.1.3-.1.3v.5c0 .1.1.2.1.2.1.1.1.2.1.2l.1.1.2.2c.6.2.7.5.7.7-.1.3-.3.4-.6.4-.7-.1-1.2-.7-1.4-1.3-.1-.3-.2-.6-.1-.9 0-.4.1-.7.4-1 .1-.2.5-.2.7 0 .1.1.1.3-.1.6z"/>
    <path class="st7" d="M117.4 33.6c-.3-1.7-1.8-2.8-2.7-4.3-1.2-2.1-1-4.7-.6-7 .3-1.5.7-2.9.5-4.4-.4-3.1-3.1-5.3-5.6-7.3-.5-.4-.9-.7-1.2-1.3-.3-.7-.3-1.4-.4-2.2-.2-2-1.5-3.9-3.3-5-1.8-1-4-1.8-6-1.8-2.6.1-3.4 1.5-5.8 2.2l-8.4-.3c-3-.8-6.4-.2-9 1.5-.9.6-1.8 1.4-2.8 1.8-1.6.7-3.4.7-5.2.8-1.7.2-3.6.7-4.7 2.1-1.9 2.6.3 6.2-.4 9.4-.5 2.7-2.9 4.5-4.8 6.5s-3.3 5.1-1.8 7.3c.8 1.1 2.3 2.1 2 3.5-.1.4-.4.8-.7 1.1-1.7 2.1-3.5 4.4-3.9 7.1-.5 2.7.8 5.9 3.4 6.8.5-1.2 2.1-1.9 3.4-1.5.8.2 1.3.8 1.9 1.4 1.1-2.4 2-4.9 2.6-7.5.2 3 .5 5.9 1 8.9 1.1-1.2 2-2.6 2.6-4.2.6.9 1 1.9 1.2 3 .2-.9.6-1.9 1.1-2.6.5.9.9 1.8 1.1 2.8 0 .2.1.4 0 .6l-.3.3c1.6-.7 3.3-1.3 4.9-.9 1.6.4 3.1 1.7 4.7 1.4 1.2-.2 2.2-1.3 3.4-1.7 1.4-.4 2.8.4 3.9 1.3s2.1 2 3.4 2.6c2.3.9 4.8 0 7.1-1 .3-.1.6-.3.9-.4.2-1.3.4-2.6.7-3.9.3 1.1.5 2.2.8 3.2 1.3-.6 2.7-1 4.1-.9.2-1.2.4-2.4.5-3.5.4 1.3.8 2.6 1.1 3.9.5.2.9.3 1.4.5l1.2-3.3c.4 1.3.7 2.6 1.1 3.9.2 0 .3.1.5.1h.4c.3-1 .5-2.1.7-3.1.3.9.5 1.9.6 2.8 2-.8 3.5-2.7 4.8-4.6-.8-3.5-.8-7.3 0-10.8.5-1 .8-2.2.6-3.3z"/>
    <path class="st2" d="M102.6 14.2c1.9 9.3 1.2 19.3 1.2 28.8 0 1.2-.1 2.4-.9 3.3-.6.6-1.5.8-2.3 1-2.2.5-8.2 1.6-8 2.1 0 .1-2.7 9.7-3.6 13.5-4.6-1.7-9.2-3.3-13.7-5 1.5-5.2 2.6-10.6 3-16-3.4 1-8.1.4-9.2-3-.6-2 .4-4.2 2.1-5.3 1.8-1.1 4.1-.9 5.9.1-.9-6.1 1-5 .1-11l25.4-8.5z"/>
    <path style="opacity:.33;fill:#7f4a24" d="m92.5 49.5-8.9-2.7 8.1 6.3z"/>
    <path class="st3" d="M71.5 36.1c1.9.3 3.5 1.7 4.2 3.4.1.2-.1.5-.3.6-.3.1-.5-.1-.6-.3-.3-.7-.8-1.3-1.4-1.8-.6-.5-1.3-.8-2.1-1-.3 0-.4-.3-.4-.6.1-.2.4-.4.6-.3z"/>
    <path class="st3" d="M73 38.8c.1-.2.2-.4.3-.5.1-.1.3-.2.4-.3.3-.2.7-.3 1.1-.2.1 0 .2.1.3.2.1.1.1.2.1.4-.1.2-.3.4-.6.4h-.3s-.1 0-.2.1l-.1.1-.1.1v.1l-.2.2c-.1.1-.2.1-.4.1-.1 0-.2-.1-.3-.2v-.5zm20.6-8.7c.7 2.7 2.9 4.7 5.7 5.1.3 0 .5.4.3.7-.6.9-1.8 1.3-2.7 1.6-.5.1-1 .3-1.5.4-.2 0-.3.1-.5.1 0 0-.1 0-.2.1 0-.2.1-.7-.1-.8.6.2.4 1.1-.2.9-.6-.2-.6-.8 0-1l1.2-.3c.6-.1 1.2-.3 1.8-.5.4-.2 1-.4 1.3-.8.1.2.2.5.3.7-3-.5-5.6-2.8-6.3-5.8-.2-.7.7-1 .9-.4zm-2 8.5c.2.3.3.5.6.7.2.2.5.3.8.5.1 0 .1 0 .1.1.1 0 .2 0 .2.1h.3c.5.1.8 0 1.1-.1.2-.1.5.1.6.3.1.2-.1.5-.3.6-1.6.4-3.4-.3-4.3-1.7-.3-.5.5-1.1.9-.5z"/>
    <path class="st6" d="M90.4 30.8c0 .8-.4 1.5-1 1.5s-1.1-.6-1.1-1.4c0-.8.4-1.5 1-1.5s1.1.6 1.1 1.4zm11.6-.5c0 .8-.4 1.5-1 1.5s-1.1-.6-1.1-1.4c0-.8.4-1.5 1-1.5s1.1.6 1.1 1.4z"/>
    <path class="st7" d="M75.9 32c.8 1 .8 2.4 1.1 3.7.3 1.2 1.3 2.6 2.7 2.4-1-.5-1.3-1.7-1.1-2.8.1-1 .5-2.1.6-3.1.1-2.3-1.6-4.9-.2-6.8.8-1.1 2.3-1.5 3.6-2 1.3-.5 2.7-1.5 2.6-2.9 1.7 1 4 1 5.7.1 1.7-1 2.9-2.9 2.9-4.9.4 2.2 2.8 3.9 5.2 3.6 1.1-.1 2.3-.6 3.1 0 1.5 1.1-.3 4 1 5.3.5.5 1.4.7 1.9 1.2 1 1.1-.1 2.7-.7 4-1.2 2.8.9 6.3 3.9 6.8-.8-2.4-.6-5.1-.3-7.7.2-2.3.5-4.5.7-6.8.4-4.1.7-8.7-1.9-11.9-2-2.5-5.7-3.7-8.9-2.7-2.5.7-4.6 2.6-7.1 3.4-2.4.8-5 .5-7.5.7-4.3.3-8.7 2.1-11.5 5.4-2.7 3.3-3.5 8.3-1.2 11.9l5.4 3.1z"/>
    <path class="st7" d="M102.1 1.9c1.6 0 3 .9 4 2.2 1.1 1.3 1.7 2.9 2.7 4.3 1 1.5 2.6 2.3 4 3.3 1.4.9 2.5 2.1 3.2 3.6.7 1.5 1 3.2.8 4.8-.2 1.7-1.1 3.3-1.2 5.1-.1.8.1 1.6.5 2.3.4.6.9 1.1 1.5 1.5 1.1.9 2.3 1.7 3 3.1 1.9 3.9-.9 7.8-1.6 11.6-.1.6-1 .4-.9-.2.6-3.3 3-6.6 2.1-10.1-.4-1.5-1.5-2.4-2.7-3.3-1.1-.9-2.2-1.8-2.6-3.2-.5-1.7.1-3.3.6-4.9.5-1.6.7-3.1.3-4.8-.4-1.5-1.2-2.9-2.4-3.9-1.2-1.1-2.7-1.8-4-2.9-1.5-1.3-2.2-3.1-3.2-4.7-.9-1.4-2.2-2.9-4-2.8-.7-.1-.7-1-.1-1zM89.9 3.8c-2-1.1-4.2-1.9-6.5-2.4-1.2-.2-2.3-.4-3.5-.5-1.1-.1-2.2-.1-3.3.2-1.1.2-2 .8-2.9 1.6-.8.7-1.6 1.4-2.5 1.9-1.9 1-4.1 1.4-6.2 2-1.7.5-3.5 1.4-4.6 2.9-.5.7-.8 1.6-.8 2.5 0 1.2.5 2.3.6 3.5.2 2.1-.7 3.9-1.8 5.6-1.2 1.7-2.6 3.3-3.7 5.2-1.2 2.1-2 4.5-2 6.9 0 2.3.8 4.6 2.3 6.3.4.4-.2 1.2-.6.7-3.1-3.3-3.2-8.1-1.6-12.2.8-2.1 2.1-4 3.5-5.7 1.3-1.6 2.7-3.3 3-5.4.2-1.2-.2-2.4-.4-3.5s-.2-2.1.2-3.2c.7-1.8 2.4-3 4-3.8 2-.9 4.2-1.2 6.2-1.9 1.1-.4 2.1-.9 2.9-1.6.9-.7 1.6-1.6 2.7-2 2.1-1 4.7-.8 6.9-.5 2.4.3 4.7 1 6.9 1.9.6.2 1.1.5 1.6.8.6.2.1 1-.4.7z"/>
    <path class="st9" d="M91.8 18.7c.9-.6 1.1-1.8 1.2-2.8.1-1.2.3-2.4 1-3.4s1.3-1.9 1.3-3.1c0-1.2-.3-2.3-.8-3.3-.7-1.2-1.6-2.2-2.6-3.2-.4-.4.2-1.1.6-.7 1.9 1.8 3.6 4 3.8 6.7.1 1.3-.3 2.4-1 3.5-.4.5-.8 1.1-1 1.7-.2.6-.3 1.3-.3 1.9-.1 1.3-.5 2.7-1.6 3.5-.5.3-1.1-.5-.6-.8zm5.9-3.5c.8.7 2.1.4 3.1.4 1.1 0 2.1.4 2.9 1.2.9.8 1.4 1.9 1.6 3 .3 1.4.1 2.7.1 4.1 0 .6.1 1.2.4 1.7l.9 1.2c.7.7 1.5 1.4 1.9 2.4 1.1 2.3-.7 4.5-1.5 6.6-.7 2-.3 4.7 1.6 5.8.5.3.1 1.1-.4.8-1.8-1-2.6-3.1-2.5-5.1.1-1.1.4-2.1.9-3.1s1.1-2.1 1.2-3.3c.1-2.2-2.3-3.3-3.2-5.1-.6-1.2-.3-2.6-.3-3.9 0-1.3-.2-2.6-1-3.6-.7-1.1-1.8-1.6-3.1-1.6-1.2 0-2.5.2-3.5-.7-.2-.5.4-1.2.9-.8zm13.2 17.5c.4.7.8 1.4.9 2.2.2.9.1 1.7 0 2.5-.1 1.2-.1 3.1 1.4 3.4.6.1.4 1-.2.9-1.5-.3-2.2-1.9-2.2-3.2 0-.9.2-1.9.1-2.8-.1-.9-.4-1.8-.9-2.5-.3-.5.5-1 .9-.5zm.8-10.3c-.8 2.4-.3 5.1 1.3 7 .4.5-.2 1.2-.6.7-1.9-2.1-2.5-5.2-1.6-7.9.1-.6 1.1-.4.9.2zm-4-9.7c1.5.8 2.6 2.6 2.4 4.3 0 .3-.2.5-.5.5-.2 0-.5-.2-.5-.5.1-1.4-.6-2.8-1.9-3.5-.5-.2 0-1.1.5-.8zm-18 4.9c-1.2 1-2.9.9-4.3.8-1.5-.1-3 0-4.3.9-1.3.9-1.6 2.6-2.7 3.7-.6.6-1.2 1-1.9 1.3-.7.3-1.6.5-2.2 1-1.4 1.1-1.2 3.2.2 4.3.5.4-.1 1.1-.6.7-1.3-1-1.8-2.8-1.2-4.3.3-.7.9-1.4 1.5-1.7.8-.4 1.7-.6 2.4-1 .8-.4 1.4-1 1.9-1.7s.8-1.5 1.3-2.2c1-1.2 2.6-1.8 4.2-1.9 1.7-.1 3.9.6 5.3-.6.3-.4.8.4.4.7z"/>
    <path class="st9" d="M89.2 13.2c-2.9 1.5-6.2 1.5-9.3 2.1-2.4.4-5 1.4-6.6 3.3-.9 1-1.2 2.2-1.2 3.5 0 .7-.1 1.5-.5 2.1-.3.6-.7 1-1.2 1.4-1.1.9-2.3 1.6-3.3 2.6-.5.5-1 1.1-1.5 1.7-.4.5-.9 1.2-.7 1.9.2.6.8 1.1 1.1 1.6.4.5.7 1.1.7 1.8s-.1 1.4-.2 2.1c0 .6 0 1.2.5 1.6.5.4-.2 1.1-.6.7-1-.8-.8-2.2-.6-3.4.1-.6.1-1.2-.2-1.7-.3-.6-.8-1-1.1-1.5-.4-.5-.7-1.1-.6-1.8.1-.7.6-1.4 1-2 .9-1.3 2-2.3 3.3-3.2 1-.7 2.3-1.5 2.7-2.8.2-.8.1-1.6.3-2.4.1-.6.3-1.2.6-1.8 1.2-2.3 3.8-3.6 6.2-4.3 3.5-1 7.4-.7 10.7-2.3.5-.2 1.1.6.5.8z"/>
    <path class="st9" d="M63.8 24.4c-2 1-3.1 3.3-2.6 5.5.3 1.2.9 2 1.8 2.8.8.8 1.4 1.7 1 2.8-.2.7-.6 1.3-.9 2-.1.3-.8 2 0 1.9.6-.1.6.9 0 1-.7.1-1.2-.4-1.3-1.1-.1-.7.2-1.5.5-2.1.3-.7.7-1.3.9-2.1.1-.6-.2-1.1-.6-1.5-.4-.5-.9-.9-1.3-1.4-.4-.5-.7-1.1-.8-1.7-.4-1.3-.3-2.6.2-3.8.5-1.3 1.5-2.4 2.7-3.1.4-.3 1 .5.4.8zM77 10.9c1-1.7 3-2.2 4.8-2.2 1.5-.1 3.5-.2 4.4 1.3.3.5-.5 1-.8.5-.7-1.1-2.5-.9-3.6-.8-1.5.1-3.2.4-4 1.7-.2.4-1.1 0-.8-.5zm7.8-5.6c1.6-.1 3.2 1 3.7 2.5.1.2-.1.5-.3.6-.2.1-.5-.1-.6-.3 0-.1-.1-.2-.1-.3-.1-.3-.2-.4-.3-.5-.1-.2-.2-.2-.2-.3l-.2-.2c-.3-.2-.4-.3-.6-.3-.1 0-.2-.1-.2-.1-.3-.1-.5-.1-.6-.1H85c-.2 0-.5-.2-.5-.5-.1-.2.1-.4.3-.5zm-10.9 6.2c-1.4.5-2.8 1.2-3.7 2.4-.8 1.1-1.1 2.6-.5 3.8.3.5-.5 1.1-.8.5-.8-1.5-.5-3.3.4-4.7 1-1.5 2.6-2.3 4.3-2.9.6-.2.9.7.3.9z"/>
    <path class="st7" d="M89.3 23.8c.3 0 .1.5-.2.6-1.3.8-2.7 1.6-4.1 2.3.6-1.7 2.3-2.9 4.1-3l.2.1zm8.2-.1c-.3.1 0 .5.2.6 1.4.7 2.8 1.4 4.3 1.9-.7-1.6-2.6-2.7-4.3-2.6l-.2.1z"/>
    <path class="st0" d="M82.5 31.5c-.1-2.8 2.1-5.2 4.9-5.4 2.8-.1 5.2 2.1 5.4 4.9s-2.1 5.2-4.9 5.4c-2.8.1-5.2-2.1-5.4-4.9zm1.3-.1c.1 2.1 1.9 3.8 4 3.7 2.1-.1 3.8-1.9 3.7-4-.1-2.1-1.9-3.8-4-3.7-2.1.1-3.8 1.9-3.7 4zm12.2-.5c-.1-2.8 2.1-5.2 4.9-5.4 2.8-.1 5.2 2.1 5.4 4.9.1 2.8-2.1 5.2-4.9 5.4-2.8.1-5.2-2.1-5.4-4.9zm1.3-.1c.1 2.1 1.9 3.8 4 3.7 2.1-.1 3.8-1.9 3.7-4-.1-2.1-1.9-3.8-4-3.7-2.1.1-3.8 1.9-3.7 4z"/>
    <path class="st0" d="M92 30.9c.4-1 1.3-1.8 2.4-1.9.5-.1 1 0 1.4.3.4.3.7.7 1 1.1.2.2.1.5-.1.7-.2.2-.5.1-.7-.1-.3-.3-.4-.6-.7-.9-.1-.1-.2-.1-.3-.2h-.4c-.8.2-1.4.7-1.7 1.5-.1.2-.4.3-.6.2-.3-.1-.4-.4-.3-.7zm-8.8 1.2c-2.4.2-4.8.7-7.1 1.4-.6.2-.9-.7-.3-.9 2.4-.7 4.9-1.2 7.4-1.4.6-.1.6.8 0 .9z"/>
    <path class="st4" d="M91.9 70c-.2-4.3 1-8.9-1.1-12.7-1.7-3.1-5.1-4.7-8.3-6.2l-7.2-3.3C73.5 51 74 55.3 76.5 58c1.4 1.6 3.3 2.6 5 3.9 3.4 2.8 5.6 6.7 7.8 10.6l2.6-2.5z"/>
    <path class="st10" d="M270.8 328.1c2.3-1.5 4.6-3 6.5-5.1.9-1 1.7-2.1 2.3-3.3.7-1.5 1-3.1 1-4.7 0-1.9-.2-3.8-.5-5.7-.1-.6.8-.8.9-.2.5 3.4 1 7-.3 10.3-1.1 2.7-3.1 4.8-5.4 6.5-1.3 1-2.7 1.9-4.1 2.8-.5.6-.9-.3-.4-.6z"/>
    <path d="M338.3 287.3c-.1 1.1.5 2.1 1.4 2.1s1.6-.7 1.7-1.8c.1-1.1-.5-2.1-1.4-2.1-.8-.1-1.6.7-1.7 1.8z" style="fill:#2e140c"/>
    <path class="st6" d="M359.6 291.7c.4 2.5-.5 5.3-2.5 6.9-1.9 1.5-4.6 1.6-6.7.3-1.1-.7-2-1.8-2.3-3.1-.1-.6.8-.8.9-.2.5 1.9 2.4 3.2 4.4 3.2 2.2.1 4-1.4 4.8-3.4.5-1.1.6-2.4.4-3.6 0-.5.9-.7 1-.1z"/>
    <path class="st10" d="M262.7 335.4c.1.2.3.4.3.7.1.2.1.4.1.6 0 .5-.2.9-.6 1.2-.2.2-.5.2-.7 0-.2-.2-.2-.5 0-.7.2-.3.2-.4.2-.4v-.4c-.1-.4-.2-.5-.1-.4-.1-.1-.1-.2-.1-.3 0-.1.1-.3.2-.3.2-.2.5-.2.7 0zm-2.1-.1c.5.7.3 1.8-.3 2.4-.2.2-.5.2-.7 0-.2-.2-.2-.5 0-.7.2-.3.2-.4.2-.4v-.3c-.1-.3-.1-.4-.2-.5-.1-.1-.1-.3 0-.4 0-.1.1-.2.2-.3.1-.1.2-.1.4 0 .2 0 .3 0 .4.2zm12.4-16.9c-.3 1.1-1.1 2.1-2.2 2.6-.2.1-.5 0-.6-.2-.1-.2 0-.5.2-.6.1-.1.2-.1.4-.2.1 0 .1-.1.2-.1.3-.2.5-.4.6-.6.1-.1.1-.2.2-.2.1-.1.1-.2.2-.3.1-.1.1-.2.1-.3 0-.1.1-.2.1-.4.1-.2.4-.4.6-.3.2.1.3.3.2.6zm-3.3-.1c-.1.5-.4.9-.7 1.2-.4.3-.9.5-1.4.5-.2 0-.5-.3-.5-.5 0-.3.2-.4.5-.5.1 0 .3 0 .4-.1 0 0 .1 0 .2-.1h.1c.3-.4.4-.5.4-.6 0 0 0-.1.1-.3 0-.1.1-.2.2-.3.1-.1.3-.1.4 0 .1 0 .2.1.3.2v.5zm-.6-3.7c-.1.5-.4.9-.7 1.2-.4.3-.9.5-1.4.5-.2 0-.5-.3-.5-.5 0-.3.2-.4.5-.5.1 0 .3 0 .4-.1 0 0 .1 0 .2-.1h.1c.3-.4.4-.5.4-.6 0 0 0-.1.1-.3 0-.1.1-.2.2-.3.1-.1.3-.1.4 0 .1 0 .2.1.3.2v.5z"/>
    <path class="st6" d="m353.7 293.5-.3-.3s-.1-.1-.1-.2v-.4c0-.1.1-.1.1-.1.2-.1.3-.1.3-.1.2 0 .3.1.3.2l.3.3s.1.1.1.2v.4c0 .1-.1.1-.1.1-.2.1-.3.1-.3.1-.1-.1-.2-.2-.3-.2zm-2.3-4.3.3.3s.1.1.1.2v.4c0 .1-.1.1-.1.1-.2.1-.3.1-.3.1-.2 0-.3-.1-.3-.2l-.3-.3s-.1-.1-.1-.2v-.4c0-.1.1-.1.1-.1.2-.1.3-.1.3-.1.2.1.3.1.3.2z"/>
    <path class="st10" d="M307.4 322.3c-2.2 3.3-3.6 7-4.2 10.9-.1.6-1 .6-.9 0 .6-4.1 2.1-8 4.4-11.4.2-.5 1 0 .7.5z"/>
    <path d="m311.5 292.2-3 3.6c4 7.4 19.3 21.3 20 18.3l1.5-4.5c-3.5.1-5.6-2.1-8.4-4.6-2.8-2.4-5.1-5.5-7.4-8.6-.8-1.1-2.7-4.2-2.7-4.2z" style="fill:#88c3a9"/>
    <path class="st2" d="M116.2 137.1c4.3 3 17.7 21.9 19.3 22.9 1.2.7 2.5 1.4 3.8 1.1 1.3-.3 2.3-2.1 1.3-3 .5.7 1.5.9 2.2.5.7-.4.9-1.5.5-2.2.4.4.9.6 1.4.8 1.4.5 2.7-1.3 1.7-2.5.5.4 1.1.8 1.8 1 1.7.6 3.2-1.3 2.2-2.8-1.3-2.2-4.9-5.1-7.2-6.1 2.5.5 8.7 2.6 8.9.5-1.5-2.6-5-3-7.5-4.7-1.5-1-2.9-1.6-4.6-2.2-1.4-.5-3 .1-4.4-.2-1.4-.3-2.4-1.3-3.4-2.3-2.8-2.8-5.6-5.5-8.4-8.3-2.4 2-4.8 4-7.3 6.1l-.3 1.4zM103.6 197c-3.5 24.4.5 49.9 11.4 72.1 2.2 4.5 4.8 9.6 3 14.3-.5 1.3-1.3 2.5-1.1 3.8.3 2.3 3.2 3.2 5.5 3.5 8.2 1.1 16.3 2.2 24.5 3.3 4.2.6 9.3.8 11.7-2.7-11.4-3.4-23.5-6.3-28.1-17.3-4.6-11-2.3-30.3-3.5-42.1-1.3-13.1-2.7-26.2-4-39.3l-19.4 4.4z"/>
    <path class="st0" d="M74.7 58.5c-4.9 8.3-10 17.3-9.1 26.9.5 4.8 2.4 9.3 3.4 14 1.7 8.8-.4 18.2-5.6 25.5-2.9 4-6.7 7.3-10.1 11-4.4 4.8-8 10.4-10.7 16.3-3.8 8.5-5.7 17.7-9.9 26-2.9 5.6-6.7 11-11.4 15.2 4 2.3 8.6 3.1 13.1 2.9 5.8-.2 12-2.4 17.1.2 2 1 3.6 2.7 5.3 4.2 7.3 6.3 17.6 9 27.1 7.1 4.8-1 9.3-3 14.1-4.1 10.6-2.4 22.3.3 30.8 7.2-2.6-20.8-6-41.7-13.4-61.4-3.2-8.6-7.3-16.9-10-25.6-2.8-8.7-4.3-18.1-2.5-27.1.6-2.9 1.6-5.9 1.2-8.9-.9-6.1-7.1-9.9-10.1-15.4-1.5-2.8-2.2-6.2-4.3-8.5-3.9-4.4-9.6-5-14.3-8.5l-.7 3z"/>
    <path class="st0" d="M72.6 75.5c.5 7 1 14.1 3 20.9 2 6.8 5.5 13.3 11.1 17.6 1.9 1.5 4.1 2.7 5.8 4.4 1.9 1.8 3.3 4.1 4.8 6.2 5.9 7.9 14.6 13.2 23.1 18.2 5 2.8 8.2-8.9 8.2-8.9 1-2.5-2.8-5.2-4.9-6.9-5.3-4.5-5.2-11.7-9.8-16.9-2.6-2.9-6.6-4.1-9.5-6.7-5.7-5.2-5.5-14.2-8.9-21.2-2.8-5.7-8.2-9.9-14.4-11.3l-8.5 4.6z"/>
    <path class="st10" d="M286.8 318.1c-.5 1.2-1.2 2.5-1 3.9.1 1 .8 2.1 1.8 2.3 1.2.2 2.2-.9 2.8-1.8.6-1 .9-2.1.8-3.3.2.1.5.3.7.4-1.2.8-1.2 2.6-.5 3.8.4.6 1 1 1.8 1s1.6-.5 2.1-1.1c.6-.7.9-1.7.5-2.6.3 0 .6-.1.9-.1-.4 1.3.2 2.9 1.5 3.4s2.9-.3 3.4-1.7c.2-.6 1.1-.3.9.3-.6 1.8-2.8 2.9-4.6 2.3-1.8-.6-2.8-2.8-2.2-4.6.1-.4.7-.5.9-.1 1 2.1-.7 4.7-2.9 5.1-2.2.3-3.7-1.7-3.7-3.7 0-1.1.5-2.2 1.5-2.8.3-.2.7.1.7.4.2 2.2-.9 4.5-2.9 5.6-1 .5-2.1.5-3-.1-.8-.6-1.4-1.6-1.5-2.6-.2-1.5.5-3 1.1-4.3.2-.5 1.2-.2.9.3zm26.6 2.1c-.9 1.1-1.4 2.6-1.3 4 0 .3-.3.5-.5.5-.3 0-.4-.2-.5-.5-.1-1.6.4-3.2 1.4-4.5.2-.2.4-.3.7-.1.2.1.3.4.2.6zm3.7-1.4c-.6 1.3-1.1 2.5-1.7 3.8-.1.2-.3.4-.6.3-.2-.1-.4-.4-.3-.6.6-1.3 1.1-2.5 1.7-3.8.1-.2.3-.4.6-.3.2.1.4.4.3.6zm4.6-6.1c.1 1.4-.2 2.8-.8 4-.1.2-.5.3-.7.1-.2-.2-.3-.4-.1-.7.5-1.1.7-2.3.6-3.5 0-.3.3-.5.5-.5.3.1.4.3.5.6zm-9.1-4.6c0 .9-.1 1.8-.1 2.7 0 .2-.2.5-.5.5s-.5-.2-.5-.5c0-.9.1-1.8.1-2.7 0-.2.2-.5.5-.5s.5.3.5.5z"/>
    <path class="st5" d="M291.8 298.4c.7 1.9 2.4 3.4 4.3 3.8.3.1.4.4.3.6-.1.3-.3.4-.6.3-2.3-.5-4.2-2.3-5-4.5-.1-.2.1-.5.4-.6.3 0 .5.2.6.4zm-2.4 2.7c.1.1.1.2.2.2l.1.1c.3.2.3.3.4.3.1.1.2.1.3.2.1.1.2.1.2.1.1 0 .2.1.3.1h.7c.2 0 .5.3.5.5 0 .3-.2.4-.5.5-1.2.1-2.3-.6-3-1.5-.1-.2 0-.5.2-.6.2-.2.5-.1.6.1zm34.7 18.9c-.2 1.2-.1 2.4.4 3.5.1.2 0 .5-.2.6-.2.1-.5 0-.6-.2-.6-1.3-.8-2.8-.5-4.2 0-.3.4-.4.6-.3.3 0 .4.3.3.6zm-2.3 2.4c.3.7.7 1.5 1 2.2.1.2 0 .5-.2.6-.2.1-.5 0-.6-.2-.3-.7-.7-1.5-1-2.2-.1-.2 0-.5.2-.6.2-.1.5 0 .6.2zm-2.7-41.4c.2.7.3 1.5.5 2.2.1.2-.1.5-.4.6-.3 0-.5-.1-.6-.4-.2-.7-.3-1.5-.5-2.2-.1-.2.1-.5.4-.6.3 0 .6.1.6.4zm1.3-2.8c.5.9 1 1.9 1.5 2.8.1.2 0 .5-.2.6-.2.1-.5 0-.6-.2-.5-.9-1-1.9-1.5-2.8-.1-.2 0-.5.2-.6.2-.1.5-.1.6.2z"/>
    <path class="st4" d="M109.5 136.8c-2.7-2.6-6.3-4-9.8-5.4-3.4-1.3-6.9-2.7-9.5-5.4-1.4-1.4-2.4-3.1-2.9-5-.7-2.1-.9-4.3-1.1-6.5-.2-2.1-.4-4.3-1-6.4-.6-2-1.7-3.8-3.3-5.2-3.2-2.7-7.7-4-9.8-7.9-1.2-2-1.6-4.4-1.7-6.7-.1-2.4.1-4.9.5-7.3.8-4.6 3.1-9.1 7.5-11.1 4.3-1.9 9 .1 11.9 3.6 1.6 1.9 2.6 4.2 3.2 6.6.3 1.2.6 2.5.8 3.7.2 1.3.6 2.4 1.4 3.5.7 1 1.6 1.8 2.4 2.7.8.9 1.5 1.9 2.1 2.9 1.2 2.1 2 4.4 2.6 6.7.3 1.2.6 2.3.9 3.5.1.6-.8.9-.9.3-1.1-4.5-2.3-9.3-5.5-12.8-.8-.9-1.7-1.7-2.4-2.6-.7-1-1.2-2.1-1.4-3.3-.3-1.2-.5-2.4-.8-3.7-.3-1.2-.7-2.3-1.2-3.4-.9-2.1-2.3-4.1-4.2-5.5-1.7-1.3-3.9-2.1-6-1.9-4.6.3-7.8 4.5-9 8.7-.7 2.3-1 4.8-1 7.2-.1 2.3 0 4.6.8 6.8.7 2.1 2.1 3.7 3.8 5 1.6 1.2 3.5 2.1 5.2 3.3 1.7 1.2 3.2 2.6 4.1 4.5.9 1.9 1.4 3.9 1.6 6 .5 4.1.4 8.6 2.8 12.1 2 3 5.3 4.6 8.5 6 3.4 1.4 6.9 2.6 10 4.7.7.5 1.4 1.1 2 1.7.5.3-.1 1-.6.6zm8.3 4.4 7.5-12.6c.1-.1.2-.3.3-.3.2-.1.4.1.5.2 1.1.9 2.2 1.9 3.3 2.9.4.3.8.7.9 1.2.1.6-.1 1.1-.3 1.7-1.6 3.5-3.7 6.8-6.1 9.9-.7.9-2.1.8-2.8-.1-1.1-1.3-2.4-2.4-3.9-3.1l.6.2z"/>
    <path class="st4" d="M116.8 134.9c1.5.7 2.9 1.4 4.4 2.1.6.3.1 1.1-.4.8-1.5-.7-2.9-1.4-4.4-2.1-.6-.3-.1-1.1.4-.8zm1.8-1.3c1-.1 2 .4 2.6 1.3.1.2.1.5-.1.7-.2.1-.5.1-.7-.1l-.1-.1c-.1-.1-.2-.2-.2-.3-.3-.2-.3-.2-.4-.3-.3-.1-.4-.1-.5-.2h-.6c-.2 0-.5-.2-.5-.5s.2-.5.5-.5zm-49.1-20.8c5.3 1.6 10.8 2.5 16.3 2.6.6 0 .7 1 0 .9-5.6-.1-11.2-1-16.6-2.6-.5-.2-.3-1.1.3-.9z"/>
    <path class="st4" d="M80.4 111.9c.2.9.4 1.8.7 2.7.1.2 0 .5-.3.6-.2.1-.5 0-.6-.3-.2-.9-.4-1.8-.7-2.7-.1-.2 0-.5.3-.6.2-.1.5 0 .6.3zm-9.6 22.2c-6.3 3.5-10.9 9.8-12.2 16.9-.8 4.4-.3 8.9-1.2 13.3-.8 4.1-2.9 7.9-5.2 11.4-2.8 4.5-5.7 8.9-8.5 13.4-.3.5-1.2.1-.8-.4 2.6-4.1 5.2-8.2 7.7-12.2 2.3-3.6 4.5-7.2 5.6-11.4 1.1-4.4.6-8.9 1.3-13.4.5-3.6 1.9-7.1 3.9-10.2 2.3-3.4 5.3-6.3 8.9-8.3.5-.2 1.1.6.5.9zm-8.3 33.3c-.7 3.7-2.2 7.1-4.5 10.1-.4.5-1.1-.2-.7-.6 2.2-2.8 3.6-6.2 4.3-9.7.1-.6 1-.4.9.2zm18.4-24.6c1.8 6.3 1 12.8-.3 19.1-1.3 6.5-3.2 12.9-3.8 19.5-.2 1.8-.2 3.7-.1 5.5 0 .9.1 1.8.3 2.7.1.7.1 1.8.9 2.1h-.5c2.8-2.1 3.9-5.8 5-9 1.4-4.2 2.8-8.4 4.2-12.7.8-2.4 1.6-4.7 2.4-7.1.2-.5 1-.5.9.1-.7 8.1-1.3 16.5 1.1 24.4.7 2.2 1.6 4.2 2.8 6.1.3.5-.5 1-.8.5-4.4-7.2-4.9-15.8-4.5-23.9.1-2.4.3-4.7.5-7 .3 0 .6.1.9.1-2 6.1-4.1 12.1-6.1 18.2-.8 2.5-1.6 5.1-2.8 7.5-.6 1.1-1.3 2.1-2.2 2.9-.4.4-.9 1-1.5.7-.5-.3-.8-.8-1-1.3-.4-1.2-.4-2.5-.5-3.7-.1-1.3-.1-2.6-.1-3.9.1-2.6.4-5.2.9-7.7.9-5.2 2.4-10.3 3.4-15.5.9-5 1.5-10.3.4-15.3-.1-.6-.3-1.2-.5-1.9-.1-.7.8-1 1-.4zm17.5 5.5c2 4.8 3.7 9.6 5.1 14.6.4 1.4.8 2.8 1.1 4.2.1.6-.8.9-.9.3-1.3-5-2.8-9.9-4.6-14.8-.5-1.4-1.1-2.7-1.6-4.1-.3-.4.6-.7.9-.2zm10.7 9.2c1.1 3.8 2.2 7.5 3.3 11.3.2.6-.7.9-.9.3-1.1-3.8-2.2-7.5-3.3-11.3-.2-.5.7-.8.9-.3zm-6.7-54.6c-1.6.9-3 2.2-4.1 3.8-.1.2-.4.3-.6.2-.2-.1-.3-.4-.2-.6 1.1-1.7 2.6-3.1 4.4-4.2.5-.3 1.1.5.5.8zm1.6 2.3c-.7.9-1.4 1.9-2.1 2.8-.1.2-.5.2-.7 0-.2-.2-.2-.5 0-.7.7-.9 1.4-1.9 2.1-2.8.1-.2.5-.2.7 0 .2.3.2.5 0 .7zm-24.3-5.1c.5-1.8 1.4-3.4 2.7-4.7.4-.4 1.1.2.7.6-1.1 1.2-2 2.7-2.4 4.3-.3.6-1.2.4-1-.2zm2 .8c.2-1 .9-1.8 1.8-2.1.2-.1.5.1.6.3.1.3-.1.5-.3.6-.3.1-.3.2-.4.2l-.3.3c-.2.2-.2.3-.3.4-.1.3-.1.4-.1.5 0 .2-.3.4-.6.4-.3-.1-.4-.4-.4-.6z"/>
    <path class="st6" d="M118.6 282.3c2.5-.6 5.3.1 7.1 1.9 1.3 1.2 2.1 2.8 3.6 3.8 1.2.7 2.6 1 3.9 1.2 2 .3 4.1.6 6.1.9 1.8.3 3.8.5 5.2-.7.6-.5 1-1.1 1.7-1.4.7-.3 1.5-.1 2.3.1 3 .8 6.1 1.6 9.1 2.4.6.2 1.2.3 1.6.8 1.2 1.4-.8 3.3-2.5 3.8-6.4 2.1-13.3 1-19.9-.2-4.8-.9-9.6-1.7-14.4-2.6-1.2-.2-2.4-.4-3.4-1.1-2.8-1.7-3.2-6.9-.4-8.7v-.2z"/>
    <path class="st3" d="M145.4 151.9c.8.9 1.5 1.7 2.3 2.6.2.2.2.5 0 .7-.2.2-.5.2-.7 0-.8-.9-1.5-1.7-2.3-2.6-.2-.2-.2-.5 0-.7.1-.1.5-.2.7 0zm-2.4 1.9c.1.2.2.5.3.7.1.1.1.2.1.3.1.1.1.2.2.3.1.1.1.2.2.3l.1.1c.2.3.4.4.6.6.2.2.2.5 0 .7-.2.2-.5.2-.7 0-.9-.7-1.5-1.6-1.8-2.7-.1-.2.1-.5.3-.6.3 0 .6.1.7.3zm-3.2 2.6c.1.2.3.4.5.6l.2.2.3.3c.2.2.4.3.6.5.1.1.2.1.2.2.1.1.2.1.4.2s.3.4.2.6c-.1.2-.4.3-.6.2-1-.6-1.9-1.4-2.5-2.3-.1-.2-.1-.5.1-.7.2-.1.5-.1.6.2z"/>
    <path class="st3" d="M137.7 156.8c3-1.9 5.9-4 8.5-6.4.4-.4 1.1.2.7.6-2.7 2.5-5.6 4.7-8.7 6.6-.5.3-1.1-.5-.5-.8zm-18.6 51.5c.2 2.1 1.3 4 3 5.2.2.2.2.5 0 .7-.2.2-.5.2-.7 0-1.9-1.4-3.1-3.6-3.3-5.9 0-.5.9-.6 1 0z"/>
    <path class="st10" d="M340.8 280.7c.2.7.3 1.5.5 2.2.1.4.2.9-.1 1.2-.2.3-.6.3-.9.4-1.8.3-3.6.6-5.5.9 1.1-2.4 3.4-4.3 6-4.9v.2z"/>
    <path class="st6" d="M358.6 293.6c.2-1.6-1.2-3.1-2.8-3.1-.3 0-.7.1-1 0-1-.2-1.2-1.8-.5-2.6s1.9-1 2.9-.9c1 .1 2.1.3 3.1.2.3 2.2 0 4.5-.8 6.5l-.9-.1z"/>
    <path class="st10" d="M329 267.3c-1.1 3-1.6 6.3-1.4 9.5.3-1.7 2.2-2.9 3.9-2.5-1.1-2.1-1.9-4.5-2.2-6.9l-.3-.1zm-16.9 71.5c1.3-.3 2.6.8 2.6 2.1 0 .2-.2.5-.5.5s-.5-.2-.5-.5v-.2c0-.1-.1-.2-.1-.2l-.1-.1c-.1-.1-.1-.2-.2-.2-.1-.1-.2-.2-.3-.2-.1-.1-.2-.1-.2-.1h-.4c-.2.1-.5-.1-.6-.4-.1-.4.1-.7.3-.7zm-1.1 1.1c.9 0 1.7.7 1.9 1.6 0 .2-.1.5-.4.6-.2 0-.5-.1-.6-.4 0-.1 0-.2-.1-.2 0 0-.1-.1-.1-.2l-.2-.2s-.1-.1-.3-.1c0 0-.1 0-.2-.1h-.1c-.2 0-.5-.2-.5-.5.1-.3.3-.5.6-.5zm25-66.4c1.1-.2 2.3-.2 3.4.1.9.2 1.9.7 2.2 1.6.4.9-.1 1.9-.9 2.4-.9.6-2.1.3-2.9-.2-.4-.2-.2-.9.3-.9 1 0 1.9.3 2.7 1 .7.6.5 1.5-.2 2-.8.4-1.7.4-2.6.3-1-.1-2-.4-3-.9-.2-.1-.3-.5-.1-.7.2-.2.4-.3.7-.1.7.3 1.4.6 2.2.7.6.1 1.4.2 2.1.1.2 0 .5-.1.6-.3.1-.2-.1-.3-.3-.4-.6-.4-1.2-.6-1.9-.6l.3-.9c.6.3 1.4.5 2 .1.5-.3.7-.9.3-1.4-.4-.5-1.2-.7-1.8-.8-.8-.2-1.7-.1-2.5 0-.9 0-1.2-1-.6-1.1zm-17.4 15.9c-1.1 2-1.5 4.8-.6 7 .1.4.4.9.9 1 .5.1 1-.5 1.3-.8.8-.8 1.3-1.9 1.4-3 .3.1.6.1.9.2-.3 1.2-.4 2.4-.3 3.5 0 .9.2 1.9 1.2 2.2 2 .5 3-1.7 3.7-3.1.3.2.5.3.8.5-1.1 1.3-.6 3.7 1 4.5 1.8.9 4.2-.8 4.1-2.7l.9.3c-.8 1.3-.2 3.3 1.2 4 1.6.7 3.6-.6 3.7-2.2.3.1.6.1.9.2-.4.8-.3 2 .6 2.5.7.4 2-.2 1.8-1.1.3 0 .6-.1.9-.1 0 .8.7 1.5 1.5 1.6.8 0 1.5-.7 1.6-1.4.1-.6 1-.6.9 0-.1 1.3-1.2 2.4-2.6 2.3-1.3-.1-2.4-1.3-2.4-2.6 0-.5.8-.6.9-.1.3 1.5-1.4 2.9-2.9 2.3-1.5-.5-2-2.4-1.3-3.8.2-.4 1-.4.9.2-.2 2.3-2.8 4-5 3.1-2-.8-2.9-3.5-1.7-5.4.3-.4.9-.2.9.3 0 2.1-1.9 3.8-3.9 3.9-2 .1-3.5-1.6-3.7-3.5-.1-1.1.2-2.1.9-2.9.3-.4 1 .1.8.5-.5 1.1-1 2.2-1.9 3-.8.7-1.9 1-3 .8-1.2-.3-1.7-1.3-1.8-2.5-.1-1.5 0-3 .3-4.4.1-.5 1-.4.9.2-.1 1.1-.5 2.1-1.2 3-.6.8-1.5 1.8-2.6 1.7-1-.1-1.6-1.2-1.8-2.1-.3-1.1-.4-2.3-.3-3.5.1-1.3.5-2.6 1.2-3.8.4-.9 1.2-.4.9.2z"/>
    <path class="st10" d="M325.5 301.9c-.4 1.2-.1 2.9 1.1 3.6 1.4.9 2.8-.7 3.6-1.6.4-.4 1 .2.7.6-.7 1.1-.4 2.8.7 3.5 1.2.7 2.8.1 3.4-1.1.3-.5 1.1 0 .8.5-.8 1.7-3.1 2.3-4.7 1.4-1.6-.9-2.1-3.3-1-4.8.2.2.5.4.7.6-1.2 1.3-3 2.8-4.8 1.7-1.5-1-2-3.1-1.5-4.7.2-.6 1.1-.3 1 .3zm-33.2 7.5c0 1.3.1 3.6 1.9 3.7.8.1 1.6-.4 2.2-.8.6-.4 1.2-1 1.5-1.7.3.1.6.3.9.4-.7 1-.2 2.5.9 3 1.3.6 2.8-.5 3.2-1.8.1-.4.7-.4.9-.1.5.9 1.3 2.1 2.5 1.8 1.1-.2 1.8-1.4 2.3-2.3.3-.5 1.1 0 .8.5-.7 1.1-1.6 2.5-3 2.7-1.6.2-2.6-1.1-3.3-2.4.3 0 .6-.1.9-.1-.5 1.8-2.6 3.2-4.4 2.3-1.6-.7-2.3-2.9-1.3-4.4.3-.4 1-.1.9.4-.3 1-1.1 1.6-1.9 2.2-.8.6-1.8 1.1-2.8.9-.9-.1-1.7-.7-2.1-1.6-.5-1-.5-2.1-.5-3.1-.6-.2.4-.2.4.4zm17.3 31.4c.9-1 1.9-1.9 3.1-2.6.2-.1.5 0 .6.2.1.2 0 .5-.2.6-.3.1-.5.3-.8.5-.2.1-.2.2-.3.2-.1.1-.2.2-.4.3-.2.2-.5.4-.7.6l-.3.3c0 .1-.1.1-.1.2-.3.3-.6.4-.8.3-.1-.1-.3-.4-.1-.6zm-50.9-6.8c1.3.2 2.7.2 4.1-.1.6-.1.8.8.2.9-1.5.3-3 .3-4.6 0-.3 0-.4-.4-.3-.6.1-.1.4-.2.6-.2z"/>
</svg>
