<svg xmlns="http://www.w3.org/2000/svg" xmlns:xlink="http://www.w3.org/1999/xlink" width="307.1" height="329.4" style="overflow:visible;enable-background:new 0 0 307.1 329.4" xml:space="preserve">
    <style>
        .st0{fill:#fad1b9}.st1{fill:#a46e4b}.st2{fill:#3b536b}.st3{fill:#587393}.st4{fill:#9ed1f1}.st5{fill:#fadfc8}.st7{fill:#696571}.st9{fill:#6a6b6e}.st12{fill:#efd0ba}.st15{fill:#232221}.st16{fill:#f3b65c}.st19{clip-path:url(#SVGID_6_)}.st20{fill:#d28829}.st22{fill:#b76f46}
    </style>
    <path class="st0" d="M142.7 149.8c-3.4 2.5-6.7 5-10.1 7.5-.9.6-1.8 1.3-2.4 2.1-.9 1-1.4 2.3-2.1 3.5-1.3 2.4-3.3 4.3-5.2 6.3-2.4 2.5-12.8 8.4-12.9 6.6l9.9-8.9c-3 3.1-12.8 9.9-14.7 8.2-1-1 7.9-7.5 10.5-10.7-3.1 2.6-8.6 8.5-12.3 10.3-.9.4-1.9-.6-1.3-1.4 1.4-2.2 11.9-11.7 11.9-11.7-3 1.4-9.5 4.5-12.5 5.9-.9.4-2.6.6-2.2-.9 3-3.2 16.7-11.7 16.7-11.7-2.5.7-6.6 1.7-9 .9-.3-.1-.4-.6-.1-.7 6.8-3.3 9-5.5 16.5-5 3.9-2.9 9.9-6.7 12.8-9.7-.2-.3 6.6 9.3 6.5 9.4z"/>
    <path class="st1" d="M114.6 156.1c2.7.7 5.6-.1 7.5-2.2.4-.5 1.2.1.8.6-2.1 2.3-5.4 3.3-8.4 2.5-.7-.1-.5-1 .1-.9zm-1.1 3.8c.8 1.5 1.8 3 2.7 4.5.5.7 1 1.4 1.4 2.1.5.7.9 1.3 1.1 2.1.1.3-.2.5-.4.5-.3 0-.5-.2-.5-.4-.2-.7-.8-1.4-1.2-2-.5-.7-1-1.4-1.4-2.1-.9-1.4-1.8-2.8-2.6-4.3-.3-.6.6-1 .9-.4zm13.8-2.8c-3.2 1.6-5.5 4.9-6 8.4-.1.6-1.1.5-1-.1.5-3.9 3.1-7.4 6.6-9.2.6-.3 1 .6.4.9z"/>
    <path class="st2" d="M127.3 142.4c4 6.5 4.3 7 8.3 13.5 34.9-11.4 59.1-59 61.7-71.8.3-1.4.6-3 0-4.3-.5-1.3-1.7-2.1-2.9-2.9l-18-12.5c-8.2-5.7-19.4.4-19 10.4-.1 0 1.3 38.3-30.1 67.6z"/>
    <path class="st1" d="M115.7 164.8c-3.1 2.9-6.1 5.7-9.2 8.6-.5.4-1.1-.4-.6-.8 3.1-2.9 6.1-5.7 9.2-8.6.5-.4 1.1.4.6.8z"/>
    <path class="st3" d="M135 140.7c-1.6 1-3 2.3-3.9 4-.1.2-.4.4-.6.3-.2-.1-.4-.4-.3-.6 1-1.8 2.4-3.3 4.2-4.4.2-.1.5-.1.7.1.1.1.1.4-.1.6zm2.5 1.8c-1.7 1.4-3.5 2.8-5.2 4.2-.5.4-1.1-.4-.6-.8 1.7-1.4 3.5-2.8 5.2-4.2.5-.4 1 .4.6.8zm1.4 5.5-5.4 3.9c-.5.4-1.1-.4-.6-.8l5.4-3.9c.5-.3 1.1.5.6.8zm2.6 3.6c-2.1.6-4.1 1.4-6 2.5-.2.1-.5 0-.6-.3-.1-.3 0-.5.3-.6 1.9-1.1 3.9-1.9 6-2.5.3-.1.5 0 .6.3 0 .2-.1.5-.3.6z"/>
    <path class="st4" d="M54.4 242.2c-2.3 2.8-13.6 12.2-13.6 12.2l24.4.2-.7-11.3-10.1-1.1z"/>
    <ellipse transform="rotate(-3.371 62.147 229.074) scale(1.00003)" class="st5" cx="62.2" cy="229.1" rx="16.4" ry="14.8"/>
    <path class="st5" d="M49 221.4c-1.1 1.8-4.1 2.4-4.7 3.1-.6.7-.8 2.2.6 2.7s2.6 1.4 2.6 1.4"/>
    <path d="M56.6 215.3c-2 .9.6 5.9 4.8 7.2 0 0 1.9-.2 2 2 .1 2.3 0 5.1 1.6 5 1.6-.1 2.7 0 3.2 1.6s-1.8 3.9-2.6 3.8c-.8-.1 2.5 6 5.4 6.1 6.8.2 9.7-10.8 8-15.9-.9-2.7-2.8-5-5.1-6.7-4.8-3.9-11.5-5.7-17.3-3.1z" style="fill:#866b5f"/>
    <path class="st4" d="m32.4 252 4.3-12.7 5-.3-2.2 12.5z"/>
    <path class="st5" d="M42.5 239.2c.1 2-1.4 3.8-3.5 3.9s-3.8-1.4-3.9-3.5c-.1-2 1.4-3.8 3.5-3.9 2-.1 3.8 1.5 3.9 3.5z"/>
    <path class="st7" d="m111.7 155.5-55.5 95.1-55.8 3.2.2 4.5 58.4-3.4 58.1-99.7z"/>
    <path d="M116.6 156c-1.5 1.5-2.3 3.5-3.4 5.3l-3.6 6.3c-2.3 4-4.5 8-6.8 11.9-9.5 16.3-19 32.6-28.5 49-3.7 6.3-7.4 12.7-11 19-.4.7-4.3 7.4-4.3 7.4-.8 0-57.6 3.4-58.3 3.4.6 0 2.8 7.8 3.1 8.7 1.3 3.4 2.7 6.7 4.5 9.8 3.1 5.5 7.2 10.6 12.3 14.2 6.4 4.5 14.3 6.5 22.1 6.9 6.7.3 13.4-.5 19.9-1.7 5.8-1.1 11.6-3.4 16.4-6.8 8.8-6.2 14.3-15.9 18.8-25.6 7.8-17.1 13.1-35.3 16-53.8 1.5-9.2 2.4-18.4 2.7-27.7.2-4.8.2-9.5.1-14.3-.1-3.7-1.2-8.6 0-12.2.1.1.1.1 0 .2z" style="fill:#f59f18"/>
    <path class="st9" d="M76.7 282.2c-12.1.7-21.3 11.1-20.6 23.2.7 12.1 11.1 21.3 23.2 20.6 12.1-.7 21.3-11.1 20.6-23.2-.7-12-11.1-21.3-23.2-20.6zm2.3 38.9c-9.4.6-17.4-6.6-18-16s6.6-17.4 16-18 17.4 6.6 18 16c.5 9.4-6.6 17.5-16 18z"/>
    <path class="st9" d="M75.1 287.4s4.4 21.1-12 25.1l2.4 3.2 2.6 2.3s1.6-8.9 9.6-8.8 11.7 2.2 12.9 6.3l2.3-3.3 1.3-3.1s-11-1.8-12.2-6.3c-1.2-4.4-1.5-15.6-1.5-15.6l-3.1-.2-2.3.4zm-41.4 1.5c-10.2-6.5-23.8-3.5-30.3 6.8-6.5 10.2-3.5 23.8 6.8 30.3 10.2 6.5 23.8 3.5 30.3-6.8 6.5-10.2 3.5-23.8-6.8-30.3zm-20.9 32.9c-7.9-5-10.3-15.5-5.3-23.5 5-7.9 15.5-10.3 23.5-5.3 7.9 5 10.3 15.5 5.3 23.5-5 8-15.5 10.3-23.5 5.3z"/>
    <path class="st9" d="M29.4 292.2S20.6 311.9 5 305.6v4l.8 3.3s6.5-6.2 12.9-1.6c6.4 4.7 8.2 8.6 6.8 12.7l3.8-1.3 2.9-1.7s-7.9-7.9-6.3-12.2c1.6-4.3 7.8-13.5 7.8-13.5l-2.5-2-1.8-1.1zm.817-.181 32.886-51.852 3.21 2.035-32.886 51.852z"/>
    <path class="st7" d="m129.542 154.876-16.68 4.196-1-3.976 16.68-4.196z"/>
    <path d="M46 232.6c1.2 1.4 3.9.6 4.2-1.2.1-.4-.5-.5-.6-.1-.3 1.4-2.3 1.9-3.3.9-.1-.1-.3-.1-.4 0 0 .1 0 .3.1.4z" style="fill:#7f4924"/>
    <ellipse transform="rotate(-55.771 52.481 222.286)" cx="52.5" cy="222.3" rx="1.6" ry="1.2" style="fill:#512d0c"/>
    <path class="st12" d="m140.5 266.5-6 28.8c-.1.6-.2 1.1-.1 1.7.2.7.9 1.2 1.5 1.5 3.7 2.3 7.9 3.9 12.3 4.5.5.1 1 .1 1.5-.1.5-.3.7-.8 1-1.4 4.7-12.1 8.6-24.5 11.5-37.2-6-1.7-12.1-2.9-18.3-3.7l-3.4 5.9z"/>
    <defs>
        <path id="SVGID_1_" d="M152.3 301.8c-2.7 1.9-6.8 1.1-8.6-1.7-1.5-2.3-1.7-5.9-4.2-6.8-2.4-.8-4.6 1.4-6.6 2.9-2.8 2-6.2 2.9-9.5 3.7-3.3.8-6.8 1.6-9.7 3.3-2.9 1.8-5.4 5.4-5.4 8.8 7.8 1 33.8 7.4 39.2 7.2l4.8-17.4z"/>
    </defs>
    <use xlink:href="#SVGID_1_" style="overflow:visible;fill:#e15147"/>
    <clipPath id="SVGID_2_">
        <use xlink:href="#SVGID_1_" style="overflow:visible"/>
    </clipPath>
    <path d="m158.5 318.5-3 6.6-49.9-9.2 2.8-6.6c16.6 3 33.3 6.1 50.1 9.2-16.9-3.1-33.7-6.2-50.6-9.3l50.6 9.3z" style="clip-path:url(#SVGID_2_);fill:#231314"/>
    <path d="M137 292.3c2.2 5.2 5.1 10.9 10.5 12.5 1.2.3 2.4.4 3.6.1 2.4-.7 3.9-3 5.1-5.1-7.4-2.9-13-9.7-20.7-11.1l1.5 3.6z" style="clip-path:url(#SVGID_2_);fill:#d28829"/>
    <path class="st15" d="M119.5 300.1c2 .1 3.7 2 3.5 3.9 0 .3.1.6.4.6.3 0 .6-.1.6-.4.2-2.5-1.8-5-4.4-5.2-.3 0-.6.1-.6.4 0 .3.2.7.5.7zm5-1.6c1.9 1.1 3.1 3.1 3.2 5.3 0 .7 1.1.6 1.1-.1-.2-2.5-1.7-4.9-3.9-6.2-.3-.1-.6 0-.7.3 0 .3.1.6.3.7zm3.7-1.6c2.2 1.4 3.7 3.8 4.1 6.4.1.7 1.2.6 1.1-.1-.4-3-2.1-5.7-4.7-7.3-.2-.2-.6 0-.7.3-.2.3-.1.6.2.7zm-13 6.9c2 1.9 3.1 4.6 3 7.3 0 .3.3.5.6.5s.5-.3.5-.6c.1-3-1.2-6-3.4-8-.5-.5-1.2.3-.7.8zm24 12.5c1.4-2.7 4-4.6 6.9-5.3.8-.2 1.7-.3 2.5-.3.3 0 .5-.3.5-.6s-.3-.5-.6-.5c-3.3-.1-6.5 1.4-8.7 3.9-.6.7-1.2 1.5-1.6 2.3-.3.6.7 1.1 1 .5z"/>
    <path class="st16" d="M138.7 302.7c2.2-1.1 5.2.7 5.2 3.1 0 2.4-3 4.3-5.2 3.3-2.2-1.1-2.5-4.6-.6-6.1l.6-.3z"/>
    <path class="st12" d="M287.6 281.7c-5.8-6-11.8-11.8-18.2-17.2-2.9 3.1-5.7 6.3-8.6 9.4-.3.3-.5.6-.5 1 0 .3.2.5.4.7 4.3 5.3 8.6 10.6 13 15.9.3.4.7.8 1.1.8.5.1 1-.3 1.3-.7 3.4-3.2 6.5-6.6 9.4-10.3l2.1.4z"/>
    <defs>
        <path id="SVGID_3_" d="M284.2 277.3c.8 3.2-1.5 6.8-4.7 7.4-2.7.5-6.1-.6-7.8 1.5-1.6 1.9-.4 4.8.3 7.2.9 3.3.5 6.8.1 10.2-.5 3.4-1 6.9-.4 10.2.6 3.4 3 7 6.3 8.2 3.8-6.9 19.2-28.8 20.9-34l-14.7-10.7z"/>
    </defs>
    <use xlink:href="#SVGID_3_" style="overflow:visible;fill:#e15147"/>
    <clipPath id="SVGID_4_">
        <use xlink:href="#SVGID_3_" style="overflow:visible"/>
    </clipPath>
    <path d="m302 277.6 5 5.2-26.6 43.2-5.2-5c9-14.4 17.9-28.9 26.8-43.4l-27 43.8 27-43.8z" style="clip-path:url(#SVGID_4_);fill:#231314"/>
    <path d="M269.8 288.1c5.6-.2 12-.8 15.4-5.3.7-1 1.3-2.1 1.4-3.3.2-2.5-1.4-4.7-2.9-6.6-5.3 5.8-13.7 8.6-17.9 15.3l4-.1z" style="clip-path:url(#SVGID_4_);fill:#d28829"/>
    <path class="st15" d="M270.8 307.2c.8-1.8 3.2-2.7 5-1.9.3.1.6.1.7-.2.1-.2.1-.6-.2-.7-2.3-1.1-5.4-.1-6.5 2.2-.1.3-.1.6.2.7.3.3.7.2.8-.1zm.3-5.2c1.7-1.3 4-1.8 6.1-1.1.7.2 1-.8.3-1-2.4-.8-5.2-.2-7.1 1.4-.2.2-.2.6 0 .8.2.1.5.1.7-.1zm-.2-4c2.1-1.6 4.9-2.1 7.4-1.5.7.2 1-.9.3-1-2.9-.7-6.1 0-8.5 1.8-.2.2-.2.6 0 .8.3.1.6.1.8-.1zm1.8 14.6c2.5-1.2 5.4-1.3 7.9-.2.3.1.6-.1.7-.4.1-.3-.1-.6-.4-.7-2.8-1.2-6-1.1-8.7.3-.7.4-.2 1.4.5 1zm20.6-19.4c-2-2.2-2.9-5.4-2.5-8.3.1-.8.3-1.7.7-2.4.1-.3-.1-.6-.4-.7-.3-.1-.6.1-.7.4-1.2 3-1 6.6.5 9.5.4.8 1 1.6 1.6 2.3.4.4 1.2-.3.8-.8z"/>
    <path class="st16" d="M280.2 290.3c-.3-2.4 2.5-4.6 4.8-3.8 2.3.8 3 4.3 1.2 6-1.8 1.6-5.2.7-5.9-1.7l-.1-.5zm-60.5-146.4c6 20.9 19.7 74.5 23.4 79.4 3.8 4.9 25 29.8 34 48-3.7 3.3-14.6 13.3-15.8 13.5-1.6.3-30.3-32.5-43.9-41.6-5.4-3.7-27.4-55.7-33.6-63.5-6.2 10.6-15.9 40.6-15.9 40.6s-3.4 56.4-13.6 73.7c-6.3-.8-15.5-5.6-21.4-8.2 1-20.2 2.8-47.8 1.9-68-.4-8.2 15.9-61.3 21.3-78.7 19.5 1.2 39.1 2.8 58.6 4.6l5 .2z"/>
    <defs>
        <path id="SVGID_5_" d="M219.7 143.9c6 20.9 19.7 74.5 23.4 79.4 3.8 4.9 25 29.8 34 48-3.7 3.3-14.6 13.3-15.8 13.5-1.6.3-30.3-32.5-43.9-41.6-5.4-3.7-27.4-55.7-33.6-63.5-6.2 10.6-15.9 40.6-15.9 40.6s-3.4 56.4-13.6 73.7c-6.3-.8-15.5-5.6-21.4-8.2 1-20.2 2.8-47.8 1.9-68-.4-8.2 15.9-61.3 21.3-78.7 19.5 1.2 39.1 2.8 58.6 4.6l5 .2z"/>
    </defs>
    <use xlink:href="#SVGID_5_" style="overflow:visible;fill:#fcb655"/>
    <clipPath id="SVGID_6_">
        <use xlink:href="#SVGID_5_" style="overflow:visible"/>
    </clipPath>
    <g class="st19">
        <path class="st20" d="M180.4 134.2c-.7 5.7-1.2 11.4-1.5 17.2-.2 2.9-.3 5.8-.3 8.7 0 1.1-.2 2.5.4 3.4.5.7 1.2 1 2 1.3 1.9.6 4.2.7 5.6 2.3-.3.1-.5.2-.8.3.7-8.1 1.3-16.2 1.6-24.3.1-2.3.2-4.5.2-6.8 0-.6 1-.7 1-.1-.2 8.1-.7 16.3-1.3 24.4l-.6 6.9c0 .4-.6.5-.8.3-1.3-1.4-3.3-1.5-5-2-.9-.3-1.7-.6-2.3-1.3-.8-.8-1-1.9-1-3 0-2.9.1-5.8.3-8.8.1-2.9.3-5.9.6-8.8.3-3.3.6-6.7 1-10 .1-.5 1-.3.9.3z"/>
    </g>
    <g class="st19">
        <path class="st20" d="M186.2 167.1c-.1 4.5-.1 9-.2 13.5 0 .6-1 .7-1 .1.1-4.5.1-9 .2-13.5 0-.6 1-.7 1-.1z"/>
    </g>
    <g class="st19">
        <path class="st20" d="M203.7 138.5c1 4.6 3.3 8.9 6.5 12.5 3.2 3.5 7.2 6.3 11.6 8 2.5 1 5.1 1.5 7.8 1.7.6 0 .4 1-.2 1-4.9-.3-9.6-2-13.7-4.7s-7.6-6.3-10-10.5c-1.4-2.4-2.4-4.9-3-7.6-.1-.7.8-1.1 1-.4z"/>
    </g>
    <g class="st19">
        <path class="st20" d="M168.7 135.7c-2.8 6.9-9.1 12.1-16.2 14-2 .5-4.1.8-6.1.8-.6 0-.7-1-.1-1 7.2.1 14.1-3.4 18.5-9 1.3-1.6 2.3-3.3 3-5.2.3-.6 1.2-.2.9.4z"/>
    </g>
    <g class="st19">
        <path class="st20" d="m277.2 262.4-17.7 13.2c-1.7 1.2-3.3 2.5-5 3.7-.5.4-1.1-.4-.6-.8l17.7-13.2c1.7-1.2 3.3-2.5 5-3.7.5-.4 1.1.4.6.8z"/>
    </g>
    <g class="st19">
        <path class="st20" d="M219.4 158.5c.9 7.5 1.9 15.1 3.1 22.5 1.3 7.4 2.9 14.8 5.1 22 2.2 7.2 5.2 14.2 9 20.6 4.2 7.1 9.3 13.5 14.3 19.9 5.5 6.9 10.9 13.8 16.4 20.7.7.9 1.4 1.7 2.1 2.6.4.5-.4 1-.8.6-5.5-7-11-13.9-16.5-20.9-5.2-6.5-10.4-13-14.9-20.1-4.1-6.5-7.2-13.4-9.7-20.7-2.4-7.2-4.1-14.5-5.5-22-1.4-7.5-2.4-15-3.3-22.5-.1-.9-.2-1.9-.3-2.8-.1-.5.9-.5 1 .1z"/>
    </g>
    <g class="st19">
        <path class="st20" d="M181 166.7c-4.1 7-8.2 14-12.1 21.1-3.8 7.1-7.3 14.4-10.2 22-2.8 7.5-5 15.2-6.2 23.1-.6 4-.9 8-.9 12.1 0 4 .1 8 .3 12 .3 7.8.5 15.8-1.3 23.5-.2.9-.5 1.9-.8 2.8-.2.6-1.1.4-1-.2 2.3-7.7 2.4-15.7 2.1-23.7-.3-8-.7-16 .2-24 .9-7.9 2.9-15.7 5.5-23.2 2.7-7.6 6.1-15 9.8-22.2 3.8-7.2 7.8-14.3 12-21.3.5-.9 1-1.7 1.5-2.6.6-.4 1.5 0 1.1.6z"/>
    </g>
    <g class="st19">
        <path class="st20" d="M169.8 293.5c-5.8-2.7-11.6-5.2-17.5-7.6-5.9-2.4-11.8-4.6-17.8-6.7-3.4-1.2-6.8-2.3-10.2-3.3-.6-.2-.4-1.1.2-1 6.1 1.9 12.1 3.9 18.1 6.1 6 2.2 11.9 4.6 17.8 7.1 3.3 1.4 6.6 2.9 9.8 4.4.6.3.2 1.2-.4 1z"/>
    </g>
    <path class="st1" d="M191 34.4c-.6 3.7-1.3 7.4-2.2 11-.2.9-.5 1.8-.8 2.7-1.6 3.7-5.8 6-9.7 5.5 1.2-6.2 2.5-12.4 3.7-18.6 0-.1.1-.3.2-.4.1-.1.3.1.2.2l8.6-.4z"/>
    <path class="st3" d="M205.1 106.4c-3.9-7.6-7.9-15.1-11.8-22.7-3.8-7.3-7.6-15.5-5.2-23.3l-8.6-2.5c5.7-.6 17.1 3.5 22.3 5.8 12.3 5.4 11.4 8.6 15.5 21.4 4.8 14.6-.7 21.9-6.7 34-4.9 9.8-15.5 25.1-26.4 25"/>
    <path class="st3" d="M184.2 57.9c2.8.5 4.7 2.9 6.4 5.2 16.5 23 27.3 50.1 31.3 78.1.2 1.4.4 2.9-.3 4.2-.5 1.1-1.5 1.8-2.5 2.5-3.7 2.5-7.7 4.4-12 5.4-15.9 3.9-31.1-.3-45.6-5.6-1.3-.5-2.7-1-3.6-2.2-.8-1-.9-2.2-1.2-3.4-10.8-36.7-11.2-67 7.7-79 2.7-1.7 4.2-5 7.4-5.1 3.4-.2 6.6-.1 10.3-.7l2.1.6z"/>
    <path class="st0" d="M156.9 10.5c-3.1 8.7-4.6 22.7-5 31.9-.1 2.1-.1 4.3.8 6.3 2.1 4.4 7.8 5.5 12.6 6.1.1 3.4 0 2.1-.1 5.5-.2 5 3.9 9.1 9 8.8 4.4-.3 7.8-3.8 8-8 .3-5.5.5-6.4.3-11.9 2.9 2.2 7.8.5 8.8-3 1-3.5-2.2-7.5-5.9-7.2 1.5-6.5 2.7-13 3.4-19.6-7.5-.1-15.1-1.4-22.2-4-1.6-.6-3.2-1.2-4.9-1.2-1.7 0-2.9-4.6-3.4-3l-1.4-.7z"/>
    <path style="opacity:.6;fill:#a46e4b" d="m165.3 54.7 10.9 1.4-10.9 2.1z"/>
    <path class="st22" d="M184.5 39c-1-5.7.3-11.3.7-17.1-6.7-.1-13.3-1.6-19.5-4.2-1.7-.7-3.3-1.6-5.2-1.7-1.8-.1-3.8.6-4.8 2.3-.9 1.7-.2 4.4 1.6 4.7-2.8-.7-5.6-1.8-7.4-4.3-2.5-3.5-2-9 .6-12.6 2.6-3.6 6.8-5.6 10.9-6s8.2.5 12.2 1.6c7.2 2 14.2 4.7 20.6 8.7.6.4 1.3.9 1.7 1.6.6 1.1.2 2.5-.1 3.7-1.7 6.6-3.4 13.1-5.1 19.7l-6.2 3.6z"/>
    <path class="st1" d="M185.3 21.5c-1.4 7.6-2.4 15.3-3 23.1.5-.1 1-.3 1.5-.4 1.3-4.5 2.7-9 4.3-13.4l-2.8-9.3zm3.1 22.1c-1.7.6-3.2 1.7-4.1 3.2-.1.2-.4.4-.7.2-.2-.1-.4-.4-.2-.7 1.1-1.7 2.7-3 4.7-3.7.6-.1.9.8.3 1z"/>
    <path class="st1" d="M187 46.3c-.5-.3-1-.5-1.6-.8-.2-.1-.4-.4-.2-.7.1-.2.4-.3.7-.2.5.3 1 .5 1.6.8.2.1.4.4.2.7-.1.2-.4.3-.7.2zm-23.6-15.4c-2.6 3.2-4.2 7-4.7 11.1-.2-.2-.4-.4-.6-.5 1.4-.5 2.8-1.1 4.2-1.6.6-.2.9.7.3.9-1.4.5-2.8 1.1-4.2 1.6-.4.1-.7-.2-.6-.5.5-4.2 2.2-8.3 4.9-11.6.4-.6 1.1.1.7.6z"/>
    <path class="st15" d="M154.1 30.8c-.3 1.1.2 2.1 1 2.3.8.2 1.7-.5 2-1.5.3-1.1-.2-2.1-1-2.3-.9-.3-1.8.4-2 1.5zm12.8 2.3c-.3 1.1.2 2.1 1 2.3.8.2 1.7-.5 2-1.5.3-1.1-.2-2.1-1-2.3-.8-.2-1.7.5-2 1.5z"/>
    <path class="st1" d="M168.8 25.6c2.9.6 5.6 1.9 6.8 3.3-3.1-.5-6.1-1-9.2-1.5-.1-.8.7-1.4 2-1.6l.4-.2zm-9.8-1.9c-2.4-.4-4.9.1-6.4 1.3 2.5.5 5 1 7.6 1.6.4-.8 0-1.8-1-2.5l-.2-.4zm7.8 19.7c-1.2 1.6-3.3 2.3-5.2 1.7-.3-.1-.4-.3-.4-.6 0-.2.3-.5.6-.4 1.5.5 3.3-.1 4.2-1.4.2-.2.5-.2.7-.1.2.3.2.5.1.8z"/>
    <path class="st22" d="M199.3 11.8c-1.9-.7-4.2.7-4.5 2.7-.1.6-1.1.4-1-.2.4-2.6 3.4-4.3 5.9-3.4.2.1.3.4.2.7 0 .3-.3.3-.6.2zm-5.1-3.6c.4.8.4 1.8 0 2.6s-1.2 1.4-2.1 1.5c-.3 0-.5-.2-.5-.4 0-.3.2-.5.4-.5s.3-.1.4-.1c.2-.1.3-.1.4-.2.2-.2.3-.2.3-.3l.2-.2c.1-.2.2-.3.2-.4.1-.3.1-.5.1-.6v-.4c-.2-.6-.2-.9 0-1 .1-.2.5-.2.6 0z"/>
    <path class="st2" d="M185.9 58.9c1.3 4.2-.7 8.7-4.1 11.3-3.7 2.9-8.7 3.6-13 1.9-1.2-.5-2.4-1.1-3.5-2-.5-.4-1-.9-1.5-1.4-.4-.4-1-1-.8-1.6.2-.6 1.1-.4 1 .2-.1.2.2.5.4.6l.6.6c.4.4.8.7 1.2 1 .9.6 1.8 1.2 2.8 1.6 2 .8 4.1 1.1 6.2.8 4-.5 7.6-2.9 9.3-6.6.9-1.9 1.2-4.1.5-6.2-.2-.5.7-.8.9-.2z"/>
    <path class="st2" d="M168.5 68.2c-.5.6-1.1 1.2-1.7 1.7-.2.2-.5.2-.7.1-.2-.2-.2-.5-.1-.7.6-.6 1.1-1.2 1.7-1.7.2-.2.5-.2.7-.1.2.2.3.5.1.7zm3.6 1.3c-.2.6-.5 1.3-.7 1.9-.1.2-.4.3-.7.2-.3-.1-.3-.4-.2-.7.2-.6.5-1.3.7-1.9.1-.2.4-.3.7-.2.2.2.3.4.2.7zm4 0c.2.7.4 1.4.6 2.2.1.2 0 .5-.3.6-.2.1-.6 0-.6-.3-.2-.7-.4-1.4-.6-2.2-.1-.2 0-.5.3-.6.3-.1.6 0 .6.3zm3.1-1.6c.5.5 1 1 1.4 1.6.1.1.2.2.2.3 0 .1 0 .3-.1.4-.1.1-.2.2-.3.2-.1 0-.3 0-.4-.1-.5-.5-1-1-1.4-1.6-.1-.1-.2-.2-.2-.3 0-.1 0-.3.1-.4.1-.1.2-.2.3-.2.2-.1.3 0 .4.1zm4.3-1.4c-.7-.3-1.5-.5-2.2-.8-.2-.1-.3-.4-.2-.7.1-.3.4-.3.7-.2.7.3 1.5.5 2.2.8.2.1.3.4.2.7-.2.2-.4.3-.7.2zm2.1-3.7c-.9 0-1.7-.4-2.5-.9-.2-.1-.2-.5-.1-.7.2-.2.5-.2.7-.1.3.2.3.2.4.2.2.1.3.2.5.2.3.1.4.1.5.1.2 0 .4.1.6.1.3 0 .4.3.4.6 0 .4-.3.5-.5.5zm2.8 29.8c-6.2 5.6-11.5 12.1-15.8 19.2-1.2 2-2.4 4.1-3.4 6.1-.3.6-1.1 0-.8-.5 3.8-7.5 8.6-14.4 14.4-20.6 1.6-1.7 3.3-3.4 5-5 .4-.4 1.1.3.6.8zm-9.7 55.8c7.2-4.3 13.7-9.5 19.4-15.6 1.6-1.7 3.1-3.5 4.6-5.3.4-.5 1.1.2.7.7-5.2 6.6-11.4 12.4-18.2 17.2-1.9 1.4-3.9 2.7-6 3.9-.5.3-1-.6-.5-.9zM159.4 108c.5 1.9 1.1 3.8 1.6 5.7.2.6-.7.9-.9.3-.5-1.9-1.1-3.8-1.6-5.7-.1-.6.8-.9.9-.3zm-4.3 1.9c.5 1.2.9 2.4 1.4 3.6.1.2 0 .5-.3.6-.3.1-.5 0-.6-.3-.5-1.2-.9-2.4-1.4-3.6-.1-.2 0-.5.3-.6.2-.1.5 0 .6.3zM153.2 96c.4 1.9.7 3.9 1.1 5.8 0 .3-.2.5-.4.5-.3 0-.5-.2-.5-.4-.4-1.9-.7-3.9-1.1-5.8 0-.3.2-.5.4-.5.3-.1.5.1.5.4zm13.1 7.2c.4 1.6.8 3.3 1.2 4.9.1.3 0 .5-.3.6-.2.1-.6 0-.6-.3-.4-1.6-.8-3.3-1.2-4.9-.1-.3 0-.5.3-.6.2-.1.6 0 .6.3z"/>
    <path class="st2" d="M168.2 115.9c.1.9.1 1.8.2 2.7 0 .3-.2.5-.4.5-.3 0-.5-.2-.5-.4-.1-.9-.1-1.8-.2-2.7 0-.3.2-.5.4-.5.3 0 .5.2.5.4z"/>
    <path class="st0" d="M154.5 146c-2.2.8-11.9 4-14.1 4.8-.7.3-1.4.5-2 .3-.6-.2-1-.7-1.4-1.2-2.7-3.1-6.9-4.7-10.8-4.1-.5.1-1.1.3-1.2.9 0 .3.2.5.3.8.8 1.2 1.8 2.4 1.8 3.8 0 1.5-4.6 4.5-5.9 5.2-1.3.7-2.7.8-4.1 1.2-.6.2-1.3.5-1.6 1.1-.3.7 0 1.6.5 2.1s1.2.8 1.9 1c-.8.8-.5 2.4.4 3.1.9.7 2 .9 3.1 1-.2 1.5 1.4 2.4 2.7 2.9 1.4.5 2.9 1 4.4 1.2 2 .3 27.6-6.9 32.6-9-2.5-4.6-4.9-9.1-7.2-13.8l.6-1.3z"/>
    <path class="st3" d="M144.2 148.5c3.5 5.5 6.8 11.1 9.7 16.9 5.6.3 10.9-2.4 15.5-5.6 6.9-4.9 13-11.3 15.9-19.2 1.3-3.4 1.9-7.2 1-10.8-1.3-4.8-5.2-8.4-9-11.8-9.5 3.2-17.9 9.5-23.6 17.7-2.9 4.2-5.2 8.9-9.1 12.2l-.4.6z"/>
    <path class="st1" d="M121.4 159.1c2.1 3.6 4.5 6.9 7.4 9.8.4.4-.2 1.2-.6.7-2.9-3-5.5-6.4-7.6-10-.3-.5.5-1 .8-.5z"/>
    <path class="st1" d="M122.1 161.4c-1 .5-2.2.7-3.3.8-.3 0-.5-.2-.5-.5s.2-.5.5-.5.5 0 .8-.1c.1 0 .3 0 .4-.1h.2c.7-.2 1.2-.3 1.7-.6.2-.1.6.1.6.3 0 .4-.1.6-.4.7zm2.4 4.7-3 .3c-.3 0-.5-.2-.5-.5s.2-.5.5-.5l3-.3c.3 0 .5.2.5.5 0 .2-.2.4-.5.5zm2.6 2.2c-.8.1-1.7.2-2.5.4-.3 0-.5-.2-.5-.5s.2-.5.5-.5c.8-.1 1.7-.2 2.5-.4.3 0 .5.2.5.5-.1.2-.3.4-.5.5z"/>
    <path class="st2" d="M152.2 145.1c-1.9 1.1-3.7 2.5-5.4 4-.2.2-.5.2-.7.1-.2-.2-.2-.5-.1-.7 1.7-1.6 3.6-3 5.6-4.2.6-.4 1.1.4.6.8zm2.4 3.5c-1.6 1.2-3.3 2.4-4.9 3.7-.5.4-1.1-.4-.5-.8 1.6-1.2 3.3-2.4 4.9-3.7.5-.4 1.1.4.5.8zm1.5 4.8c-1.6 1.1-3.2 2.2-4.8 3.2-.5.3-1.1-.5-.5-.8 1.6-1.1 3.2-2.2 4.8-3.2.4-.4 1 .4.5.8zm2 4.3c-1.9.8-3.6 1.8-5.2 3.1-.5.4-1-.4-.5-.8 1.7-1.3 3.5-2.4 5.5-3.2.5-.3.8.7.2.9zm1.4 3.3c-1.7.4-3.4 1-4.9 1.8-.2.1-.5.1-.7-.1-.1-.2-.1-.6.1-.7 1.6-.9 3.4-1.5 5.1-1.9.3-.1.5 0 .6.3.1.2 0 .6-.2.6z"/>
    <path class="st2" d="M145.1 148.5c4-8 9.2-15.4 15.4-21.9 1.7-1.8 3.6-3.6 5.5-5.3.2-.2.5-.1.7.1.2.2.1.5-.1.7-6.6 5.8-12.3 12.7-16.9 20.2-1.3 2.1-2.5 4.3-3.6 6.5-.4.7-1.3.3-1-.3zm33.6-25.9c.9 1 1.4 2.3 1.5 3.7 0 .3-.2.5-.5.5s-.5-.2-.5-.5c-.1-1.2-.5-2.3-1.3-3.2-.2-.2-.1-.5.1-.7.2-.1.5 0 .7.2zm-1.8 3.6c.1.9.3 1.7.4 2.6 0 .3-.2.5-.5.5s-.5-.2-.5-.5c-.1-.9-.3-1.7-.4-2.6 0-.3.2-.5.5-.5s.5.2.5.5zm3.8 6.2c.4 1.4.3 2.9-.3 4.2-.1.2-.4.4-.7.2-.2-.1-.4-.4-.2-.7.1-.1.1-.3.2-.4.2-.7.3-1 .3-1.3v-.8c0-.2 0-.3-.1-.5 0-.2-.1-.3-.1-.4-.1-.2 0-.5.3-.6.2 0 .5.1.6.3z"/>
</svg>
