<svg xmlns="http://www.w3.org/2000/svg" width="156.1" height="318.6" style="overflow:visible;enable-background:new 0 0 156.1 318.6" xml:space="preserve">
    <style>
        .st0{fill:#587292}.st1{fill:#99b8db}.st2{fill:#f39e1e}.st3{fill:#663c17}.st4{fill:#f5a372}.st5{fill:#b6772f}.st6{fill:#7f4a23}.st9{fill:#87c2a8}.st11{fill:#33485e}.st12{fill:#b5722a}
    </style>
    <path class="st0" d="M47.9 284.4c-.5 2.2-2.7 4-2.3 6.1.2 1 1 1.8 1.5 2.7 1.8 2.9.7 7.3-2.3 9.1.6 1.7-1.6 7.2-1.6 7.2l-9.6-2.1s.2-1.8-.1-2.6c-1.4-.7-2.5 1.4-3.9 2.2-1.1.7-2.4.6-3.7.4-5.1-.6-10.3-.4-15.2-1.7-11.5-3.1-11.4-6.2-10.5-8.6.7-2 2.9-3.3 5.1-3.7 2.2-.5 4.4-.3 6.6-.5 6.4-.7 12.4-5.1 14.8-11 .8-1.9 1.2-3.9 2.3-5.6 1.1-1.7 3.1-3.1 5.1-2.7 2.5.5 3.8 3.3 6.1 4.3 1.7.8 3.7.5 5.5.7 1.9.2 3.9 1.4 3.9 3.2l-1.7 2.6z"/>
    <path d="M49.6 280.7c-2.7.3-5.4.6-8.1 1-.5.1-1.1.1-1.6.4-1 .6-1.3 1.9-1.4 3-.1.4-.1 1 .2 1.3.2.2.5.3.8.3l2.1.3c2.2.3 4.6.5 6.6-.6 1.9-1.1 3-4 1.5-5.6l-.1-.1z"/>
    <path class="st1" d="M22.2 302.5c.7-.8.7-2 .6-3-.2-1.2-.8-2.2-1.1-3.4-.4-1.2-.6-2.4-.2-3.6.3-1 .9-1.9 1.7-2.6 1.8-1.7 4.2-2.3 6.4-3.1 2.2-.8 4.1-1.9 5.7-3.5 1.6-1.7 2.8-3.9 3.3-6.2.1-.5.8-.3.7.2-.9 4.3-3.9 8-7.9 9.7-2.3 1-4.9 1.5-6.9 2.9-.9.6-1.6 1.4-2.1 2.4-.5 1.1-.4 2.3 0 3.4.4 1.3 1.1 2.5 1.3 3.9.2 1.2 0 2.5-.8 3.4-.5.4-1-.1-.7-.5z"/>
    <path class="st1" d="M43.7 301.5c-3.6.7-7.1 1.4-10.7 2-3.1.5-6.1 1-9.3.8-4.1-.3-8.1-1.2-12-2.4-3.6-1.1-7-2.5-10.3-4.1-.4-.2-.1-.9.4-.6 5.3 2.6 10.9 4.6 16.7 5.7 1.6.3 3.3.6 5 .7 2.8.2 5.5-.1 8.3-.5 4-.6 7.9-1.3 11.9-2.1.2-.3.4.4 0 .5zM17 290c1.7 1.4 3.5 2.8 5.2 4.2-.2.1-.4.3-.6.4-1-2.2-2.1-4.4-3.1-6.6-.2-.3.2-.7.5-.5 1.9 1 3.8 2.1 5.7 3.1l-.5.5c-1.1-2.4-2.2-4.8-3.4-7.1-.1-.3.2-.8.5-.5 2.1 1.6 4.3 3.2 6.6 4.8l-.5.5c-1.3-2.7-2.6-5.4-4-8.2-.2-.4.3-.7.6-.4 2.5 2.3 4.9 4.5 7.4 6.8.4.3-.2.8-.5.5-2.5-2.3-4.9-4.5-7.4-6.8.2-.1.4-.3.6-.4 1.3 2.7 2.6 5.4 4 8.2.1.3-.2.7-.5.5-2.2-1.5-4.4-3.1-6.6-4.8l.5-.5c1.1 2.4 2.2 4.8 3.4 7.1.2.3-.2.7-.5.5-1.9-1-3.8-2.1-5.7-3.1l.5-.5c1 2.2 2.1 4.4 3.1 6.6.2.4-.3.7-.6.4-1.7-1.4-3.5-2.8-5.2-4.2-.4-.3.1-.8.5-.5z"/>
    <path class="st1" d="M44.3 293.1c-1.2.4-2.3.9-3.1 1.9-.7.9-1.1 2-1.3 3.1-.1.8-.2 1.5-.3 2.3 0 .5-.8.5-.7 0 .1-1.4.2-2.8.8-4.1.5-1.2 1.2-2.1 2.3-2.8.7-.5 1.5-.8 2.3-1 .3-.2.5.5 0 .6z"/>
    <path class="st2" d="M63.5 56.2c-4.7 5.4-9.3 11.1-12.4 17.6-3.1 6.5-4.8 14-3.5 21.1.5 2.6 1.4 5.2 1.9 7.8.9 4.4.7 8.9.8 13.4.2 8.2 1.2 16.5 3.1 24.5 2.1 9 5.2 18 4.6 27.2-3.2 2.3-6.9 4-10.7 4.9.1-13.6-.8-27.3-2.7-40.8-.5-3.9-1.1-7.8-1-11.8.1-3.1.6-6.1.8-9.2.2-4.4-.5-8.8-.8-13.2-.7-10.9 1.2-22.3 7.5-31.1 3.6-5 8.6-9 11.6-14.4.9.6 1.8 1.3 2.8 1.9l-2 2.1z"/>
    <path class="st3" d="M53.6 157.6c-11.3 37.1-21.4 74.5-30.5 112.2-.3 1.4-.7 2.9-.1 4.2.6 1.3 1.9 2.1 3.1 2.8 10.1 5.7 21.3 9.4 32.8 11 11.6-27.7 18.2-57.5 19.3-87.5l-24.6-42.7z"/>
    <path class="st4" d="M124.1 173.6c1.7 5.8 3.4 11.7 5.1 17.5.3 1 1.2 2.3 2.1 1.7.5-3.3.2-6.7-.8-9.9.8 2.1 1.8 4.1 2.9 6 .4.6 1 1.3 1.7 1.1.6-.3.7-1.1.6-1.8-.5-4.7-1.6-9.4-3.2-13.8 1.2 3.3.3 6.8 2.6 9.5 2.4-.1 2.6-9.6 1.7-11.9-2.2-5.7-4.6-7.1-6.8-12.8-1.3-3.3-2.7-6.9-5.6-9l-.3 23.4z"/>
    <path class="st0" d="M59.2 54.1c-5.2 3.1-9.3 8.1-11.5 13.8-2.2 5.7-2.4 12.2-.7 18.1 2.4-12.2 8.7-23.6 17.7-31.9h-5.5zM102 287.8c.2 2.3-1.5 4.6-.4 6.6.5.9 1.4 1.5 2.2 2.2 2.6 2.4 2.7 6.9.4 9.5 1.1 1.5.5 7.5.5 7.5l-9.7.5s-.3-1.8-.9-2.5c-1.5-.3-2 2-3 3.2-.8.9-2.1 1.2-3.3 1.4-4.9.8-9.8 2.4-14.8 2.4-11.7 0-12.4-3-12.3-5.6.1-2.2 1.8-4 3.7-5 1.9-1 4-1.5 6-2.3 5.9-2.4 10.2-8.4 10.9-14.8.2-2 .1-4.1.6-6.1s2-3.9 4-4c2.5-.2 4.5 2.2 6.9 2.6 1.8.3 3.6-.5 5.4-.8 1.8-.3 4.1.3 4.6 2.1l-.8 3.1z"/>
    <path d="M102.5 283.8c-2.5 1-4.9 2.1-7.4 3.1-.5.2-1 .4-1.4.8-.8.9-.7 2.2-.5 3.3.1.5.2 1 .6 1.2.2.1.5.1.8.1.7-.1 1.4-.1 2-.2 2.2-.3 4.5-.8 6-2.4 1.5-1.6 1.7-4.7-.2-5.9h.1z"/>
    <path class="st1" d="M82.8 312.6c.5-1.1.1-2.3-.4-3.3s-1.3-1.9-1.9-2.8c-.6-.9-1.1-2-1.2-3.1-.1-1.1.2-2.2.8-3.2 1.1-2.1 3.2-3.5 5.1-4.8.9-.7 1.8-1.4 2.6-2.3.7-.8 1.3-1.7 1.8-2.7 1.1-2.2 1.6-4.7 1.4-7.2 0-.5.7-.5.7 0 .4 4.4-1.5 9-4.9 11.8-1.9 1.5-4.2 2.7-5.6 4.7-.7.9-1.1 2-1.2 3.1 0 1.2.4 2.2 1 3.1.7 1.1 1.6 2 2.1 3.2.6 1.2.8 2.5.3 3.8-.1.2-.3.2-.5.1-.1 0-.2-.3-.1-.4z"/>
    <path class="st1" d="M102.8 305.8c-3.1 1.7-6.3 3.3-9.5 4.8-2.7 1.3-5.5 2.6-8.4 3.2-4 .8-8 1-12.1.9-3.7-.1-7.3-.5-10.9-1.3-.5-.1-.3-.8.2-.7 5.7 1.2 11.6 1.6 17.4 1.1 1.6-.1 3.2-.3 4.8-.6 2.7-.5 5.2-1.6 7.6-2.8 3.6-1.6 7.1-3.4 10.5-5.3.4-.2.8.5.4.7zm-28.4-4.1c2 .9 4 1.8 6.1 2.7-.1.2-.3.4-.4.6-1.6-1.9-3.2-3.8-4.8-5.6-.2-.3 0-.7.4-.6 2.1.5 4.2 1 6.2 1.5-.1.2-.2.4-.4.6-1.7-2-3.5-4.1-5.2-6.1-.2-.2 0-.8.4-.6 2.5 1 5 2 7.5 2.9-.1.2-.2.4-.4.6l-6-6.9c-.3-.3.1-.8.4-.6 3 1.6 5.9 3.1 8.9 4.7.4.2 0 .9-.4.6-3-1.6-5.9-3.1-8.9-4.7.1-.2.3-.4.4-.6l6 6.9c.2.3 0 .8-.4.6-2.5-.9-5-1.9-7.5-2.9.1-.2.2-.4.4-.6 1.7 2 3.5 4.1 5.2 6.1.2.3 0 .7-.4.6-2.1-.5-4.2-1-6.2-1.5.1-.2.2-.4.4-.6 1.6 1.9 3.2 3.8 4.8 5.6.3.3-.1.8-.4.6-2-.9-4-1.8-6.1-2.7-.4-.1 0-.8.4-.6z"/>
    <path class="st1" d="M101.1 297.4c-2.5 1.7-4 4.6-4.2 7.5 0 .9 0 1.7.2 2.5.1.5-.6.7-.7.2-.7-3.2.2-6.6 2.3-9.1.6-.7 1.3-1.3 2-1.8.4-.2.8.4.4.7z"/>
    <path class="st5" d="M100.2 144.9c6.5 7.8 9.1 18.3 9 28.5-.1 10.2-2.8 20.1-5.9 29.8-1.3 4.1-2.8 8.3-3.2 12.6-.7 7.2 1.6 14.3 3.2 21.3 3.8 16.1 4.8 33 2.9 49.4-9.1 2.9-19 3.2-28.3 1-7.8-28.1-13.3-56.9-16.5-86-.5-4.5-.9-8.9-1.3-13.4-.3-3.6-.5-7.2-1.1-10.7-1.6-8.8-5.2-13.7-7.5-22.4 15.6-4.3 30.9-10.2 47.1-11.1l1.6 1z"/>
    <path class="st3" d="M70.3 45.2c-.1 1.4 1.6 2.3 2.9 2.2 1.7-.1 3.3-1.3 4-3-1.1 0-2.1-.8-2.4-1.8-.3-1 .1-2.3 1-2.9L66.9 38l3.4 7.2z"/>
    <path class="st4" d="M49.4 11.3c-.8 5.4-3.9 29.6-4 33.7 0 1.4-.1 2.9.7 4 1.9 2.7 11.7 2.3 11.7 2.3s3 12.3 5 16.7c4.5-3.5 9.6-6.2 14.9-8.2-1.8-6.4-3.9-12.8-6.2-19.1 1.9 1.4 4.9.5 6-1.5 1.2-2.1.5-4.9-1.3-6.5-1.8-1.5-2.1-1.9-4.2-.9.2-6.1.4-12.1.7-18.2l-23.3-2.3z"/>
    <path class="st6" d="M71 37.6c.8-1.2 1.9-2.3 3.1-3.1.2-.1.4 0 .5.1.1.2 0 .4-.1.5-1.1.8-2 1.8-2.8 2.9-.1.2-.3.2-.5.1s-.3-.4-.2-.5z"/>
    <path class="st6" d="M72.5 36.9c.4.2.8.5 1.2.7.2.1.2.3.1.5s-.3.2-.5.1c-.4-.2-.8-.5-1.2-.7-.1-.1-.2-.3-.1-.5s.3-.2.5-.1z"/>
    <path style="opacity:.61;fill:#7f4a23" d="m57.8 51.3 8.8-3.5-7.8 7.2z"/>
    <path class="st6" d="M54.8 38.8c1.1.4 2.4.1 3.1-.9.1-.2.3-.2.5-.1s.2.3.1.5c-.8 1.2-2.5 1.8-3.9 1.3-.2-.1-.3-.2-.3-.5.1-.2.4-.3.5-.3z"/>
    <path d="M64.2 29.5c0 1-.5 1.7-1.1 1.7-.6 0-1-.8-1-1.8s.5-1.7 1.1-1.7c.6 0 1.1.8 1 1.8zm-2.1-7.4c-.7.5-.2 1.8.6 1.9.3 0 .6-.2.9-.3 1.6-.7 3.6-.6 5.1.2-.7-1.6-2.2-2.9-3.9-3.4-1.2-.3-2.8 0-2.9 1.2l.2.4z"/>
    <ellipse transform="rotate(-88.78 50.645 28.596)" cx="50.6" cy="28.6" rx="1.7" ry="1.1"/>
    <path d="M52.9 20.9c.7.4.4 1.8-.4 1.9-.3 0-.7-.1-1-.2-1.7-.5-3.6-.2-5 .8.6-1.7 1.9-3.1 3.5-3.8 1.1-.5 2.8-.3 3 .9l-.1.4z"/>
    <path class="st1" d="M75.8 31c-2.1-1.2-4.3-2.4-6.4-3.6-.1.1-.2.1-.3.1-.1.1-.1.3-.2.4-.3 1.4-.7 2.8-1.2 4.2-.4 1-.9 2-1.8 2.5s-2.2.8-3.3.7c-1.5-.2-2.8-.8-3.9-1.9-1.2-1.1-1.5-2.8-2-4.3-.2-.5-.4-1.9-1.1-1.9-.3 0-.6.1-.8.3-1.1.8-1.3 3.1-1.9 4.3-.7 1.4-2.1 2.4-3.7 2.6-1.5.1-3.2-.6-4-2-.7-1.2-.9-2.6-.8-4 0-.8.1-1.6-.4-2.2-.1-.2-.3-.3-.4-.5-.3-.4-.3-.9-.1-1.3l.2-.5c.1-.2.3-.4.6-.5 2.8-.6 5.7-.3 8.3 1 .5.3 1.1.6 1.7.8 1.5.4 3 0 4.5-.4 3.2-.7 6.6-.7 9.8 0 .2 0 .5.1.6.2.2.1.3.3.3.5 3.5 2 7.2 6 6.3 5.5zm-22.6-4.4c-.4-.5-.5-.8-1.2-.9-1.6-.4-3-1-5-.7-.3.1-.6 0-.9.2-.5.3-.7 1-.7 1.7-.1 1.4-.1 2.8.2 4.1.1.5.2.9.5 1.3s.8.6 1.3.7c4.1 1.3 6.3-5.9 5.8-6.4zm13.6-.2c-.3-.2-.6-.3-1-.3-1.9-.3-7-.1-7.8.9-.9 1.2 1.4 5.1 1.7 5.4 1.2 1.4 3.3 1.5 4.3 1.4.6 0 1.1-.1 1.6-.5.4-.3.6-.7.8-1.2.5-1.3.9-2.6.9-4 .1-.6 0-1.3-.5-1.7z"/>
    <path d="M59.5 32.3c1.3 1.4 3.5 1.5 4.5 1.5.6 0 1.2-.1 1.6-.5.4-.3.6-.7.8-1.2.6-1.3.9-2.7 1-4.2 0-.7 0-1.4-.6-1.8-.3-.2-.6-.3-1-.3-2-.3-7.3-.1-8.1 1-.8 1.2 1.6 5.2 1.8 5.5zm-12.2.8c-.5-.2-1-.3-1.3-.7-.3-.4-.4-.8-.5-1.3-.3-1.4-.4-2.8-.2-4.3.1-.7.2-1.4.8-1.7.3-.2.6-.1.9-.2 2.1-.4 3.5.3 5.2.7.6.2.8.4 1.2.9s-1.9 8-6.1 6.6z" style="opacity:.65"/>
    <path class="st6" d="M54.8 29.4c-.6 2.4-.8 5-.4 7.5-.2-.1-.4-.1-.5-.2.6-.3 1.2-.5 1.7-.8.4-.2.8.4.4.6-.6.3-1.2.5-1.7.8-.2.1-.5 0-.5-.2-.4-2.6-.2-5.3.4-7.9.1-.5.8-.3.6.2z"/>
    <path class="st3" d="M70.6 34.1c.5-6.3 1-12.6 1.4-18.9-2.9.9-6 1-8.9.3.1-.7.6-1.4 1.3-1.6-2.6 1.7-5.8 2.3-8.8 1.6.4-.5.7-.9 1.1-1.4-3 1.6-6.8 1.7-9.9.3.1-.7.7-1.4 1.4-1.7-1.8 1.2-4.4.7-5.6-1.1 1.6-1 3.4-1.9 5.2-2.4-1 .3-2.2.3-3.2-.2-.9-.5-1.5-1.9-.9-2.8.6-.9 1.8-1 2.8-1h4.7c-2.1-.8-3.7-2.8-3.9-5.1 4.4-.8 8.2 3.3 12.5 4 2.7.5 5.5-.4 8.3-.4 2.8 0 6 1.1 6.8 3.9 1.9-1.1 4.6-.3 5.7 1.6.9 1.7.6 3.7.3 5.5-1.1 6.8-2.2 13.6-3.4 20.4-.7-1.2-1.7-2.4-3.1-2.7-1.3-.3-3 .6-3 2-.4.2-1-.2-.9-.7l.1.4z"/>
    <path class="st1" d="M68.3 59.9c-2.6 1.7-7.1 3.3-8.3.4-5.6 6.2-10.7 9.8-12.9 18-1.4 5.2-1.1 10.7-.9 16.1.9 18.1 2.2 36.2 3.7 54.2.2 2.2.4 4.6 1.7 6.4 2.4 3.5 7.4 3.5 11.6 2.9 9.7-1.4 19.1-4.3 28-8.6-3.4-13.2-6.1-26.6-8-40.2-2.1-14.7-3.4-29.8-1.1-44.5-4-.9-8.1-1.9-12.1-2.8l-1.7-1.9z"/>
    <path class="st9" d="M125.2 46c2.5-.4 5-.7 7.5-1.1 5-.7 10.3-1.4 15.1.1 4.8 1.5 9 5.9 8.3 10.7-.5 3.2-3.1 5.9-6.2 7.2-3.1 1.4-6.6 1.6-10 1.5-3.8-.2-7.5-.8-11.2-1.9-1.9-.6-3.9-1.4-5.1-2.9-.9-1.2-1.2-2.6-1.4-4.1-.3-1.9-.7-3.9-.3-5.8s1.6-3.8 3.5-4.5l-.2.8z"/>
    <path class="st0" d="M93.6 49.3c1.1-.1 2.1-.1 3.2-.2 0-3.5 4.2-5.2 7.6-5.2 7.9-.2 15.7 3.6 20.6 10 1.7 2.3 3.2 4.9 5.6 6.5 3.6 2.4 8.6 1.8 12 4.5 3.7 2.8 4.2 8.1 4.4 12.8.6 16.5.4 33-.5 49.4-.3 5.1-.7 10.4-3.1 14.9-2.8 5.4-8.1 9-13.9 10.5-5.8 1.4-11.9.7-17.6-1.1-3.4-1.1-6.8-2.8-9.2-5.5-4-4.6-4.6-11.3-4.8-17.5-.9-25.3.1-51-6.1-75.5-.3-1.1-.6-2.4.1-3.4.6-.9 2.6-.7 2.4.5l-.7-.7z"/>
    <path class="st0" d="M142 44.4c-4.1-2-8.3-3.9-12.5-5.5-3.6-1.4-7.4-2.6-11.2-2.7-5.6-.1-10.9 2.1-15.7 5-1.4.8-2.8 1.8-3.6 3.2-.8 1.4-.7 3.5.6 4.5 8.4-2.8 18.1-.8 24.9 5 .7-3.9 4-6.8 7.7-8.1 3.7-1.3 7.6-1.1 11.5-1l-1.7-.4z"/>
    <path d="M154.2 54.8c-.5-1.9-1.5-3.6-2.9-4.9-1.4-1.3-3.3-2-5.3-1.9-1.8.1-3.5 1-4.5 2.6-.8 1.4-1.1 3.1-.8 4.7.4 1.7 1.6 3.1 3.2 3.7 1.6.6 3.4.5 4.6-.7 1.1-1.1 1.7-2.8 1.2-4.4-.5-1.4-1.9-2.3-3.4-2.2-.7 0-1.4.2-1.9.6-.7.5-1.2 1.5-.9 2.4.3.8 1.2 1.3 2 1.4.6 0 1.8-.3 1.4-1.1-.1-.2-.4-.5-.6-.3-.4.3-.8-.4-.4-.6.9-.5 1.8.4 1.8 1.3 0 1.1-1.1 1.6-2 1.6-1 0-2.1-.5-2.7-1.4-.7-1-.4-2.3.4-3.2 1.1-1.4 3.2-1.6 4.7-.9 1.8.8 2.6 2.6 2.4 4.5-.3 1.9-1.7 3.7-3.6 4.1-2 .5-4.2-.3-5.6-1.8-2.8-3-1.8-8.4 1.9-10.3 2.1-1 4.5-.9 6.6.1 2 1 3.5 2.9 4.4 5 .2.5.4 1 .6 1.6.3.3-.5.5-.6.1z" style="fill:#32674f"/>
    <path class="st11" d="M102.7 60.5c6.6 6.4 10.9 15 13.3 23.9 2.5 8.9 3.3 18.2 3.8 27.5.5 9.5.7 19.1-2.2 28.1-.3.8-.6 1.7-1.3 2.1-1.7 1-3.4-1.1-4.2-2.8-4.2-8.9-6.9-18.4-9.5-27.9-4-14.5-8.1-28.9-12.1-43.4l12.2-7.5z"/>
    <path class="st4" d="M113.5 111.3c8 12.9 11.1 27.9 14.1 42.6 1.8 8.6 3.7 19.7 5.5 28.2.3.5 0 0 0 0-.9-1.3-4.9-5.2-7.4-6.7-.6-.4-1.4 0-1.4.8-.3 3.8.2 9.3-1.9 9.1-2-.7-3.1-2.9-3.3-4.9-.3-2 0-4.1-.4-6.1-.8-4-4.4-7.8-3.2-11.8.6-2 2.3-3.5 2.6-5.5.4-2.4-1.1-4.6-2.5-6.6-7.3-10.1-14.6-20.7-17.2-32.7-.2-1-.4-2 .1-2.9.5-1 1.7-1.6 2.8-2 4-1.5 8.4-2.1 12.7-1.8l-.5.3z"/>
    <path class="st2" d="M100.2 58.2c-.6-.6-1.3-1.1-2-1.6-3.2-2.1-6.9-3.3-10.4-5-4.7-2.3-6.8-3-10.2-7-6 3.6-12.8 7.1-14.6 13.9-.9 3.5-1.2 7.2-2 10.8-1.1 4.8-3.1 9.4-4.2 14.2-1.1 4.8-1.1 9.8-.9 14.7 1 25.5 8.5 50.4 17.3 74.3 5.8-1.1 10.9-4.6 16.4-6.7 8.2-3.1 17.7-3.2 24.8-8.5-4-7.2-6.6-15.3-7.5-23.5-.4-3.2-.4-6.6.8-9.6s6.3-7.1 9.5-7c-1-3.8-2.4-4.8-3.3-8.6-.3-1.1-2.4-3.4-2.2-4.5.2-1.9 1.6-3.5 1.5-5.4-.1-2.6-2.8-4.3-3.3-6.8-.3-1.3.1-2.6.3-3.9 1.8-10.1-3.6-19.9-8.7-28.7l-1.3-1.1z"/>
    <path class="st0" d="M98.6 55.8c-4.7-3.2-11.3-5-15.8-1.5-4 3.1-4.6 9-3.9 14.1 1.7 12.7 9.2 24 11 36.7-11-5.8-18.7-17.7-19.7-30.3-.4-4.8.1-9.7 2.1-14 1.9-4.3 5.4-8.1 9.7-9.8 4.1-1.6 8.6-3.3 14.7-1.8 1.3 1.7.9 4.5 1.9 6.4v.2z"/>
    <path class="st3" d="M78.5 282.4c6.8 1.3 13.7 1.4 20.5.3 1.9-.3 3.8-.7 5.7-1.3.5-.1.7.6.2.7-6.7 1.9-13.8 2.5-20.8 1.8-2-.2-3.9-.5-5.9-.9-.3.1-.1-.6.3-.6zm12.2-65.3c2.3-.6 4.6-.9 6.9-1.1.5 0 .5.7 0 .7-2.3.1-4.5.4-6.7 1-.5.2-.7-.5-.2-.6zM93 219c1.2-.1 2.5-.1 3.7-.2.5 0 .5.7 0 .7-1.2.1-2.5.1-3.7.2-.5.1-.5-.7 0-.7zm-31.1-50.8c-2.1 2.5-3.2 5.8-3.2 9.1 0 .5-.7.5-.7 0 0-3.5 1.2-6.9 3.4-9.6.3-.4.8.1.5.5zm38.8 66.2c-5.3.6-10.7 1.1-16 1.7-1.5.2-3 .3-4.5.5.1-.2.2-.3.4-.5 1.1 6.7 2.1 13.4 3.2 20.2.3 1.7.5 3.4.8 5.1.1.8.3 1.7.4 2.5.1.8.2 1.6.4 2.4.1.3.1.6.3.7.2.2.6.2.9.2.8-.1 1.7-.2 2.5-.3 1.7-.2 3.4-.4 5-.6 3.8-.4 7.6-.9 11.4-1.3.5-.1.5.7 0 .7-3.5.4-7 .8-10.4 1.2-1.7.2-3.4.4-5.2.6-.9.1-1.7.2-2.6.3-.7.1-1.5.3-2.1-.2-.5-.4-.7-1-.8-1.6-.1-.9-.3-1.7-.4-2.6-.3-1.7-.6-3.5-.8-5.2-.5-3.4-1.1-6.9-1.6-10.3-.6-3.9-1.2-7.7-1.8-11.6 0-.3.1-.4.4-.5 5.3-.6 10.7-1.1 16-1.7 1.5-.2 3-.3 4.5-.5.4 0 .4.7 0 .8z"/>
    <path class="st3" d="M81.4 237.3c3 1.4 6 2.8 9.2 3.7 1.5.4 3 .6 4.5 1 1.1.3 2.3.8 3.5 1 1.4.2 2.6-.2 3.7-1 .4-.3.8.4.4.6-1.1.7-2.3 1.2-3.6 1.1-1.2-.1-2.4-.5-3.5-.9-.7-.2-1.3-.4-2-.6-.8-.2-1.6-.3-2.4-.5-1.6-.4-3.2-1-4.8-1.6-1.8-.7-3.5-1.5-5.3-2.3-.5 0-.1-.7.3-.5zm4.5 29c2.5-5.4 4.9-10.7 7.4-16.1l2.1-4.5c.1-.3.5-.2.6 0 2.7 3.6 5.5 7.2 7.9 11 .8 1.2 1.5 2.5 2.3 3.7.2.4-.4.8-.6.4-1.2-2.1-2.5-4.1-3.8-6.1-1.2-1.7-2.4-3.4-3.7-5.1-.9-1.2-1.8-2.3-2.6-3.5h.6c-2.5 5.4-4.9 10.7-7.4 16.1l-2.1 4.5c-.3.4-.9.1-.7-.4zm21.5-101.1c-3.3-.5-6.7-.2-9.8.8.1-.2.2-.3.3-.5.6 4.7 1.1 9.4 1.4 14.1.1 1.3.1 2.7.2 4-.1-.1-.2-.2-.3-.4 2.5.9 5.1 1.8 7.6 2.7.4.2.3.9-.2.7-2.5-.9-5.1-1.8-7.6-2.7-.2-.1-.3-.2-.3-.4-.2-4.7-.5-9.3-1-14-.1-1.3-.3-2.7-.5-4 0-.2 0-.4.3-.5 3.3-1 6.8-1.3 10.2-.8.4.3.2 1.1-.3 1z"/>
    <path class="st3" d="M99.7 168.7c3-.8 6.1-.9 9.2-.3.5.1.3.8-.2.7-2.9-.5-5.9-.4-8.8.3-.5.1-.7-.6-.2-.7z"/>
    <path class="st12" d="M89.6 106c1.4 3.6 3 7.2 4.7 10.7 1.7 3.5 3.6 6.9 5.5 10.2 1.1 1.9 2.3 3.7 3.5 5.6.3.4-.4.8-.6.4-2.1-3.3-4.2-6.6-6-10-1.9-3.4-3.6-6.9-5.2-10.5-.9-2-1.8-4-2.6-6.1-.2-.6.5-.8.7-.3z"/>
    <path class="st12" d="M99.4 128.8c1.5-3.7 3-7.4 5.6-10.4 2.6-3 7.1-7.5 11-7.2.7 2.5 2.4 6.1 3.1 8.6-2.8 0-6.8 3.6-8.2 6.2-2.2 4.1-3.5 8.7-3.6 13.4-3.2-3.2-5.9-7.1-7.8-11.3l-.1.7zm10.2-37.6c-2.6 1.4-5.2 2.8-7.7 4.2-.4.2-.8-.4-.4-.6 2.6-1.4 5.2-2.8 7.7-4.2.4-.2.8.4.4.6zm.2 1.1c-2.5.6-4.3 2.7-6.1 4.2-.4.3-.9-.2-.5-.5 2-1.7 3.8-3.8 6.5-4.4.4-.1.6.6.1.7zm-.5 12.6c-2.1 1-4.2 2-6.3 2.9-.4.2-.8-.4-.4-.6 2.1-1 4.2-2 6.3-2.9.4-.3.8.4.4.6zm-2.5 3.9-2.1 1.2c-.2.1-.4 0-.5-.1-.1-.2 0-.4.1-.5l2.1-1.2c.2-.1.4 0 .5.1.2.2.1.4-.1.5zM84.8 70c-.1 4.7.8 9.4 2.4 13.8.2.4-.5.6-.7.2-1.7-4.5-2.5-9.3-2.5-14 .1-.4.8-.4.8 0zm5.5 15c-.5 1.2-.6 2.4-.3 3.6.1.5-.6.7-.7.2-.3-1.3-.2-2.7.3-4 .1-.2.2-.3.5-.3.1.1.3.3.2.5zm7.2-14.1c.3 1.8.6 3.6 1 5.4.1.5-.6.7-.7.2-.3-1.8-.6-3.6-1-5.4-.1-.5.6-.7.7-.2zm5.3 8.6c-.4 1.5-.5 3.1-.3 4.7 0 .2-.1.4-.3.5-.2.1-.4-.1-.5-.3-.3-1.7-.2-3.4.3-5.1.2-.5.9-.3.8.2zm-28.4 89.4c3.3-3.2 7.3-5.7 11.4-7.6 4.2-2 8.6-3.4 13.1-4.7 2.5-.7 5.1-1.3 7.6-2 .5-.1.7.6.2.7-4.5 1.1-9 2.3-13.3 3.7-4.3 1.5-8.6 3.3-12.4 5.7-2.2 1.4-4.2 2.9-6.1 4.7-.3.4-.8-.1-.5-.5zM62.6 64.4c4-4.8 8.7-9.1 13.9-12.7 1.5-1 3-2 4.5-2.9.4-.2.8.4.4.6C76 52.6 71 56.5 66.7 61c-1.2 1.3-2.4 2.6-3.5 3.9-.3.4-.9-.1-.6-.5zm6.5 17.3c-2 .3-4.1.8-6.1 1.3.1-.2.2-.3.3-.5.9 4.8 1.8 9.7 2.7 14.5.4 2.4.9 4.8 1.3 7.2.1.6.2 1.2.3 1.7.1.4.2.9.5 1.2.4.4.9.4 1.4.3.6 0 1.2 0 1.8-.1 2.8-.1 5.5-.2 8.3-.3.5 0 .5.7 0 .7-2.5.1-5.1.2-7.6.3-.6 0-1.3.1-1.9.1-.5 0-1 .1-1.5-.1-1-.2-1.4-1.2-1.6-2.1-1-5-1.8-10-2.8-14.9-.5-2.8-1-5.6-1.6-8.4 0-.2.1-.4.3-.5 2-.6 4.1-1 6.1-1.4.4.2.6.9.1 1z"/>
    <path class="st12" d="M64 82.9c3.7 1.8 7.2 3.9 10.5 6.3.4.3 0 .9-.4.6-3.4-2.3-6.9-4.4-10.5-6.3-.4-.2 0-.8.4-.6zM63 129c.9-.8 2.1-1.3 3.4-1.4.2 0 .4.2.4.4s-.2.4-.4.4c-1 .1-2 .5-2.8 1.2-.2.1-.4.1-.5 0-.3-.2-.3-.5-.1-.6zm-1.7-13.2c.9-.4 1.8-.7 2.6-1.1.2-.1.4.1.5.3.1.2-.1.4-.3.5-.9.4-1.8.7-2.6 1.1-.2.1-.4-.1-.5-.3 0-.2.1-.4.3-.5zm-3.8-12.7c1-.3 2.1-.5 3.1-.8.5-.1.7.6.2.7-1 .3-2.1.5-3.1.8-.5.2-.7-.5-.2-.7zm10.8 46.1c1-.6 2.1-1.2 3.1-1.8.4-.2.8.4.4.6-1 .6-2.1 1.2-3.1 1.8-.4.3-.8-.3-.4-.6zm2.9 8.5c.8.2 1.6 0 2.3-.5.2-.1.4-.2.5 0 .1.1.2.4 0 .5-.8.7-1.9 1-3 .7-.2 0-.3-.3-.3-.5.1-.1.3-.2.5-.2zm12.5-46.2-8.4 11.1c-.8 1-1.6 2.1-2.4 3.1-.3.4-.9 0-.6-.4l8.4-11.1c.8-1 1.6-2.1 2.4-3.1.3-.3.9 0 .6.4zm-1.5 9.4c-2.6 3.6-5.2 7.2-7.9 10.8-.8 1-1.5 2.1-2.3 3.1-.3.4-.9 0-.6-.4 2.6-3.6 5.2-7.2 7.9-10.8.8-1 1.5-2.1 2.3-3.1.2-.4.9 0 .6.4zm8.3-1.1c-3.9 5.9-8 11.7-12.2 17.4-1.2 1.6-2.4 3.1-3.6 4.7-.3.4-.8-.2-.5-.5 4.3-5.5 8.5-11.2 12.4-17 1.1-1.6 2.2-3.3 3.3-4.9.3-.5.9-.1.6.3zm6.5 11.6c-3.3 4.6-6.6 9.1-9.9 13.7-.9 1.3-1.9 2.6-2.8 3.9-.3.4-.9 0-.6-.4 3.3-4.6 6.6-9.1 9.9-13.7.9-1.3 1.9-2.6 2.8-3.9.3-.3.9 0 .6.4zm3.6 9c-1.7 3.5-3.6 6.9-5.8 10.2-.6.9-1.3 1.8-1.9 2.7-.3.4-.9 0-.6-.4 2.3-3.1 4.4-6.4 6.2-9.9l1.5-3c.2-.4.8 0 .6.4zm3.2 9.8c-.1.1-.2.1-.3.2l-.1.1s-.1 0-.1.1c0 0-.1.1 0 0 0 0-.1 0-.1.1l-.1.1-.3.3-.1.1s0 .1-.1.1c0 .1 0 0 0 0-.1.1-.1.2-.2.3-.1.1-.1.2-.2.3 0 .1-.1.1-.1.2v.1c0-.1 0 0 0 0-.1.2-.3.3-.5.3-.2-.1-.3-.3-.3-.5.4-1.1 1.2-1.9 2.2-2.5.2-.1.4 0 .5.1 0 .3-.1.5-.2.6z"/>
    <path class="st12" d="M72.4 128.1c4.1 6 8.4 11.8 12.9 17.5 1.3 1.6 2.5 3.2 3.8 4.8.3.4-.2.9-.5.5-4.6-5.6-9-11.4-13.3-17.3-1.2-1.7-2.4-3.4-3.5-5.1-.3-.4.3-.8.6-.4zm.9-6.8c3.5 4.3 7 8.7 10.5 13 1 1.2 2 2.5 3 3.7.3.4-.2.9-.5.5-3.5-4.3-7-8.7-10.5-13-1-1.2-2-2.5-3-3.7-.3-.3.2-.9.5-.5zm5.8-6.1c4.3 5.2 8.4 10.6 12.4 16.1l3.3 4.8c.3.4-.4.8-.6.4-3.8-5.6-7.8-11-12-16.3-1.2-1.5-2.4-2.9-3.6-4.4-.3-.5.2-1 .5-.6zm17.4 23.4c2.3 3.7 4.9 7.2 7.7 10.5.3.4-.2.9-.5.5-2.9-3.4-5.5-6.9-7.8-10.7-.3-.3.3-.7.6-.3zm-13.7 11.6c1.8 2.4 3.8 4.7 6 6.8.3.3-.2.9-.5.5-2.2-2.1-4.2-4.5-6.1-6.9-.3-.4.4-.8.6-.4zm1.6-37c2.3 2.8 4.5 5.6 6.8 8.4.3.4-.2.9-.5.5-2.3-2.8-4.5-5.6-6.8-8.4-.3-.4.2-.9.5-.5zm11.7-2.1c.4 1.1.7 2.2 1.1 3.2.1.2-.1.4-.3.5-.2.1-.4-.1-.5-.3-.4-1.1-.7-2.2-1.1-3.2-.1-.2.1-.4.3-.5.3 0 .4.1.5.3zm2.4.3c.5.5 1.1 1 1.6 1.6.1.1.1.4 0 .5-.2.1-.4.1-.5 0-.5-.5-1.1-1-1.6-1.6-.1-.1-.1-.4 0-.5.2-.1.4-.1.5 0z"/>
    <path class="st11" d="M70.5 77.8c.1.2.1.5.2.6.1.1.4.1.5 0 .7 0 1.3-.1 2-.1 1.3-.2 2.5-.5 3.7-.9 1.2-.4 2.4-.9 3.5-1.5.5-.3.6-.4.5-1-.2-.7-.3-1.3-.5-2-.4-1.3-.9-2.6-1.4-3.8-.1-.3-.2-.6-.4-.8-.1-.2-.2-.2-.4-.2-.7 0-1.3.1-2 .3-1.4.2-2.7.5-4.1 1-.9.3-1.6.9-2 1.7-.2.4-.4 1-.4 1.4 0 .7.1 1.4.2 2 .2 1.1.3 2.2.6 3.3.2.9-1.2 1.3-1.4.4-.3-1.2-.4-2.4-.5-3.6-.2-1.3-.4-2.6.2-3.9.5-1.1 1.3-2.1 2.5-2.6.7-.3 1.4-.5 2.2-.7.8-.2 1.5-.4 2.3-.5.8-.1 1.6-.3 2.5-.3.8-.1 1.5.3 1.9 1 .4.7.7 1.5.9 2.2.3.7.5 1.5.8 2.2.2.7.5 1.5.6 2.3.2.8.2 1.6-.3 2.3-.4.5-1.1.8-1.7 1.1l-2.1.9c-1.6.6-3.3 1-5 1.2-.8.1-1.6.2-2.4.1-.4 0-.9-.2-1.2-.5-.3-.3-.5-.8-.6-1.2-.4-.9 1-1.3 1.3-.4z"/>
    <path class="st11" d="M68.7 72.8c3.7-1 7.3-2.1 11-3.1.9-.3 1.3 1.2.4 1.4-3.7 1-7.3 2.1-11 3.1-.9.3-1.3-1.2-.4-1.4zm25.1-23.6c1.2-3.5 3-7.3 6.4-8.5 2.1-.8 4.7-.3 6.4 1.2 1.8 1.5 2.7 3.9 3.3 6.3.5 2.1.8 4.2.5 6.4-.6 0-1.2-.1-1.8-.1-.2 0-.4 0-.5-.1-.2-.2-.3-.5-.4-.8-.4-2.3-1.2-4.5-2.2-6.6-.7-1.4-1.7-2.9-3.3-3.1-1.3-.2-2.7.6-3.5 1.7-.8 1.1-1.2 2.5-1.6 3.9-1 .1-2.1.1-3.1.2l-.2-.5zm32.6 65.7c6.2-.9 12.5-1.8 18.7-2.7.4-.1.7-.1 1.1 0 .6.3.8 1 1 1.7 1.2 6.6 1 13.4.7 20.2-.1 1.2-.1 2.6-.9 3.6-.5.6-1.2 1-1.9 1.4-4.6 2.3-9.6 3.8-14.7 4.2-.5.1-1.1.1-1.6-.2-.8-.4-1-1.5-1.1-2.4-1-8.4-1.6-16.8-2-25.2l.7-.6z"/>
    <path class="st9" d="M125.8 115c1 1.1 2.1 2.2 3.1 3.3 1.1 1.2 2.4 2.5 4 2.9 1.2.3 2.5.2 3.7 0 3-.4 6-.8 9-1.3.9-.1 1.9-.3 2.5-1 .4-.5.5-1.1.6-1.7.2-1.9 0-3.9-.5-5.7-7.2 1.4-14.6 1.6-21.9 2.8l-.5.7z"/>
    <path class="st9" d="M138.9 120.2c.1.4.2.7.3 1.1v.1s0 .1.1.1c0 .1.1.2.2.3 0 0 0 .1.1.1v.1l.2.2c-.1 0 0 0 0 0s.1 0 .1.1c0 0 .1 0 0 0h.2s-.1 0 0 0h.3c.1 0 0 0 0 0h.1l.1-.1c.1 0 .1-.1.2-.2s.2-.3.2-.5c.1-.6 0-1.1-.2-1.7-.1-.5.6-.7.7-.2.2.6.3 1.3.2 2-.1.5-.4 1-.9 1.3-.4.3-1 .3-1.4 0-.4-.2-.7-.6-.9-.9-.2-.5-.4-1-.5-1.5 0-.2.1-.4.3-.5.3-.1.5 0 .6.2z"/>
    <path class="st11" d="M95.4 47.7c3.9.8 7.4 2.7 10.9 4.2 3.2 1.4 6.7 2.6 10.3 2.3 1.6-.1 3.3-.6 4.7-1.4 1.5-.9 2.7-2.4 3.9-3.7 1.1-1.2 2.3-2.2 3.7-3 1.4-.8 2.9-1.3 4.4-1.7 3.1-.8 6.4-1 9.5-.6.3 0 .7.1 1 .2.4.1.6.5.5.9-.1.4-.5.6-.9.5-2.8-.6-6-.4-8.9.2-1.5.3-3 .8-4.3 1.5-1.4.7-2.5 1.6-3.6 2.7-1.3 1.3-2.5 2.8-4 3.9-1.4 1-3.1 1.6-4.8 1.9-3.6.5-7.2-.4-10.6-1.7-3.6-1.5-7.1-3.4-10.8-4.5-.5-.1-.9-.2-1.4-.3-.4-.1-.6-.5-.5-.9 0-.4.5-.6.9-.5zM126.5 82l1.8 11.4.9 5.7c.1.9.3 1.9.4 2.8 0 .2.1.5.1.7 0 .2 0 .4.1.5 0 .1 0 .1.1.1.2 0 .5.1.7.1 3.4.5 6.9.2 10.2-.7.8-.2 1.7-.5 2.5-.8-.1 0 .2-.1.2-.1.3-.2 0 0 0 0v-1.9c-.1-1.9-.2-3.8-.3-5.8-.3-4.3-.7-8.6-1.3-12.8l.7.7c-4.3.2-8.7.4-13 .6-1.2.1-2.5.1-3.7.2.2-.4.4-.8.5-1.3 3.3 3.6 6.8 7 10.6 10.1-.4.1-.8.1-1.2.2 2-3.6 4-7.3 5.8-11 .2-.4.7-.5 1-.3.4.2.4.7.3 1-1.8 3.7-3.8 7.4-5.8 11-.3.4-.8.4-1.2.2-3.8-3.1-7.3-6.5-10.6-10.1-.4-.5-.1-1.2.5-1.3 4.3-.2 8.7-.4 13-.6 1.2-.1 2.5-.1 3.7-.2.4 0 .7.4.7.7.5 4 .9 8 1.2 12l.3 6v1.5c0 .5.1 1-.1 1.5-.3.9-1.4 1.2-2.3 1.4-3.5 1.2-7.3 1.6-11 1.3-.5 0-1-.1-1.4-.2-.5-.1-1-.1-1.4-.4-.4-.3-.5-.7-.6-1.1-.1-.5-.2-1.1-.3-1.6-.3-2-.6-4-1-6-.7-4.5-1.4-8.9-2.1-13.4-.1-.4.1-.8.5-.9.9.2 1.4.4 1.5.8z"/>
    <path class="st11" d="M122.2 53.7c3.4 2.1 6.2 5 8.4 8.3 2.4 3.5 4.2 7.4 5.5 11.4.8 2.4 1.4 4.8 2 7.2.2.9-1.2 1.3-1.4.4-1-4.2-2.2-8.3-4-12.2-1.6-3.6-3.7-6.9-6.4-9.8-1.5-1.5-3.1-2.9-4.9-4.1-.3-.2-.5-.7-.3-1 .3-.3.7-.5 1.1-.2z"/>
    <path class="st6" d="M127.2 174.6c.4-.3.8-.4 1.2-.6l1.8-.6c1.3-.4 2.6-.8 4-1.1l1.5-.3c.5-.1.7.6.2.7-1.1.2-2.1.5-3.1.7-1.3.3-2.6.7-3.9 1.2-.4.2-.9.4-1.3.7-.4.2-.8-.5-.4-.7zm-2.6 1.4c.1 1.8.2 3.6.1 5.4-.1.8-.1 1.6-.3 2.5-.1.7-.4 1.3-1 1.7-.4.3-.8-.4-.4-.6.5-.3.6-1 .7-1.5.1-.8.2-1.6.2-2.4.1-1.6.1-3.3-.1-4.9 0-.7.8-.7.8-.2zm-4.7-20.6c.9-.2 1.7-.5 2.6-.7.5-.1.7.6.2.7-.9.2-1.7.5-2.6.7-.4.1-.6-.6-.2-.7zm-2.1-32.5c.5.7.6 1.5.5 2.3 0 .2-.3.3-.5.3-.2-.1-.3-.3-.3-.5v-.8c0-.1 0-.2-.1-.2v-.1c-.1-.2-.2-.3-.3-.4-.1-.2 0-.4.1-.5.3-.4.5-.3.6-.1z"/>
    <path class="st6" d="M129.4 175.2c1.3 4.1 2.3 8.4 2.9 12.6.1.5-.6.7-.7.2-.6-4.3-1.6-8.5-2.9-12.6-.1-.4.6-.6.7-.2zm4.3-1.4c.7 3.4 1.4 6.9 2.1 10.3.1.5-.6.7-.7.2-.7-3.4-1.4-6.9-2.1-10.3-.2-.5.6-.7.7-.2zm2.2-2.2c.4 2.3.8 4.5 1.2 6.8.1.5-.6.7-.7.2-.4-2.3-.8-4.5-1.2-6.8-.1-.4.6-.6.7-.2z"/>
    <path class="st5" d="M60 280.4c-4.7-1-9.3-2.2-13.9-3.6s-9.1-2.9-13.6-4.5c-2.5-.9-5-1.9-7.5-2.9-.4-.2-.2-.9.2-.7 4.4 1.8 8.9 3.5 13.5 5 4.5 1.5 9.1 2.9 13.7 4.1 2.6.7 5.2 1.3 7.9 1.9.4.1.2.8-.3.7zm-24.2-57.1c5 1.8 9.8 3.9 14.5 6.4l3.9 2.1c.2.1.2.3.1.5-1.8 4-3.6 8.1-5.4 12.1l-5.4 12c-1 2.3-2 4.6-3 6.8-.1.1-.3.2-.4.2l-12.6-4.5c-.4-.2-.3-.9.2-.7l12.6 4.5c-.1.1-.3.1-.4.2 1.8-4 3.6-8.1 5.4-12.1l5.4-12c1-2.3 2-4.6 3-6.8 0 .2.1.3.1.5-4.5-2.6-9.3-4.9-14.1-6.9-1.4-.6-2.7-1.1-4.1-1.6-.5-.1-.3-.8.2-.7z"/>
    <path class="st5" d="M52.1 232.7c-4.7 1.5-9.9 1.3-14.4-.5-1.3-.5-2.5-1.1-3.7-1.9-.4-.3 0-.9.4-.6 4 2.6 8.9 3.7 13.6 3.2 1.3-.1 2.7-.4 4-.8.3-.3.5.5.1.6zm-11.7 30.8c-2-4.5-3.7-9.2-4.9-14-.3-1.3-.6-2.7-.9-4.1.2.1.4.1.5.2-1.5 1-3.1 2.1-4.6 3.1-.4.3-.8-.4-.4-.6 1.5-1 3.1-2.1 4.6-3.1.2-.1.5 0 .5.2 1 4.8 2.3 9.5 4.1 14 .5 1.3 1.1 2.6 1.6 3.9.3.5-.3.9-.5.4zm5.9-46c-1.9-.7-3.8-1.4-5.8-2-.4-.2-.3-.9.2-.7 1.9.7 3.8 1.4 5.8 2 .4.1.2.8-.2.7zm-2.3 4.2c-1.4-.7-2.8-1.5-4.1-2.2-.4-.2 0-.9.4-.6 1.4.7 2.8 1.5 4.1 2.2.4.2 0 .8-.4.6z"/>
</svg>
