<svg xmlns="http://www.w3.org/2000/svg" width="96.1" height="190.5" style="overflow:visible;enable-background:new 0 0 96.1 190.5" xml:space="preserve">
    <style>
        .st3{fill:#f5a372}.st4{fill:#7f4a23}.st6{fill:#db4345}.st7{fill:#87c2a8}.st8{fill:#32674f}.st12{fill:#9a653e}.st13{fill:#8c2a30}.st14{fill:#331e0f}
    </style>
    <path d="M36.2 7.5c.9-1.8 2.1-3.4 3.6-4.8 1-.9 2-1.6 3.2-2.1 2.2-.9 4.8-.8 6.9.3C52 2 53.6 4 54.2 6.3c.4 1.6.3 3.3.1 4.9C48.4 9 42.4 6.7 36.2 7.3v.2z" style="fill:#8aa2c2"/>
    <path d="M37.5 4.1c5.5-.4 11.2-.7 16.3 1.4.2.1.4.2.5.3.1.2.2.4.2.7 0 .6 0 1.3.1 1.9-5.8-1.9-12.1-1.8-18.2-1.8.5-.8 1-1.6 1.4-2.4l-.3-.1z" style="fill:#f39e1e"/>
    <path d="M32.1 152.9c.1 1.7-.9 3.3-1.8 4.8s-1.8 3.2-1.5 4.9c.3 1.6 1.7 2.8 3.2 3.4 2.6 1.1 6 .5 7.7-1.8 1.8-2.5 1.3-5.9 2.3-8.7.4-1.1 1-2.1 1-3.3-.1-1-.7-1.8-1.4-2.4-.7-.6-1.6-1-2.5-1.4l-7 4.5z" style="fill:#6da6c5"/>
    <path class="st3" d="M40.9 144.4c.2-7.1.7-18.4-1.6-25.1-.5-1.3-1-2.6-1.2-4-.2-1.7.1-3.4.4-5.1.9-5.1 1.1-10.4.6-15.6 0-.4-.1-.8-.3-1.1-.3-.5-.8-.7-1.3-.8-3.8-1.3-7.9-1.3-11.7 0l-3 2.1c1.1 4.1 2.1 8.1 3.2 12.2 1.3 4.8 2.7 9.6 3.7 14.5 5.5 26.5 3.1 31.5.7 35.7-.6 1-1.2 1.9-1.5 3-.2.9-.2 1.8.2 2.6.2.4.7.5 1 .3.3-.2.6-.5.7-.9 0 .6.7.9 1.1.6 0 .2 0 .4.1.7.1.3.3.5.6.6.4.1.6-.2.8-.4.1-.1.1-.2.2-.3v.1c.1.6.8.8 1.2.4.4-.4.8-1 1-1.5-.1.5-.2.9-.2 1.4-.1.6.5 1 1 .7 1.2-.7 2.2-1.8 2.7-3 .4-1.1.6-2.2.7-3.4.5-4.2 1.5-4.4 2-8.6l-1.1-5.1z"/>
    <path d="M30.9 154.9c1.5-2.6 5-3.8 7.8-2.8.5.2 1 .4 1.1.9.1.3.1.6 0 .9-.1 1-.3 2-.4 3-2.4-1.2-5.4-1.5-8-.7-.7.2-1.4.5-1.9 1-1.1 1-1.3 2.6-1.4 4 3-2 7-2.4 10.3-1 .2.1.5.2.6.5.2.4-.1.8-.3 1.1-1.4 1.6-3.3 2.8-5.4 2.8-2.1.1-4.3-1.1-5.1-3.1.5 1.7 1 3.3 1.4 5 .1.3.2.7.5 1 .3.3.6.4 1 .5 1.4.4 2.8.7 4.2.7 2.4-.1 4.6-1.6 5.6-3.7 1.1-2.3.9-5.2 2.2-7.3.3-.6.8-1.1.9-1.7.1-.5 0-1-.1-1.5-.3-1.5-.5-3-.8-4.4-.1-.3-.1-.7-.4-.9-.2-.2-.5-.3-.8-.4-3.6-.8-6.6-.7-10 .7l-1 5.4z"/>
    <path class="st4" d="M35.4 163.3c-.5-.8-.5-1.9.1-2.7.1-.2.5 0 .4.2-.4.7-.5 1.6-.1 2.3.1.2-.3.4-.4.2zM33.3 163.3c.1-1 .3-2 .7-2.9 0-.1.2-.1.3-.1.1.1.1.2.1.3-.4.9-.6 1.8-.7 2.7 0 .3-.4.3-.4 0zM31.8 162.8c0-.9.2-1.8.7-2.5.1-.2.5 0 .4.2-.5.7-.7 1.5-.7 2.3 0 .2-.4.2-.4 0zM30.9 162.3c-.1-.8 0-1.7.5-2.4.1-.2.5 0 .4.2-.4.6-.6 1.3-.5 2.1 0 .1 0 .2-.1.3-.2-.1-.3-.1-.3-.2z"/>
    <path d="M42.6 27.2c-3.1-1.3-6.4-2-9.4-3.2-3.1-1.3-6.1-3.2-7.5-6.2-.5-1-.8-2.2-.6-3.3.2-.8.6-1.5 1-2.1 2.2-3.1 5.8-5.1 9.5-6 3.7-.9 7.6-.8 11.4-.2 3.2.5 6.3 1.2 9.1 2.7 2.8 1.5 5.4 3.7 6.8 6.5.6 1.2 1 2.5.8 3.8-.3 2.6-2.7 4.4-5.1 5.5-4.3 2.1-9.2 3.1-14 2.9l-2-.4z" style="fill:#cedbf0"/>
    <path class="st6" d="M48.8 11.5c3.4 1.1 2.3 2 3.4 2.3 1.1.3 1.7 1.5 2.6 2.3 1.1 1.1.8 3 1.5 4.4 1.1 2.5 4.4 3.1 6.5 4.7 2.2 1.7 3.1 4.9 2.2 7.5-.4 1.1-1 2-1 3.2 0 1.1 1 2.3 2.1 1.9-.1 1.5-2.1 2.5-3.4 1.8-1.4-.6-1.7-2.6-2.9-3.5-1-.8-2.5-.8-3.7-.2-1.2.5-2.2 1.4-3.2 2.2-1.7 1.4-3.7 2.7-5.8 3.3s-4.6.5-6.5-.7c-1.4-.9-2.5-2.3-4.2-2.4-1.4-.1-2.7.9-4 1.5-2.3 1.1-5 1.3-7.4.4-2.3-1-4.2-3.1-4.6-5.6 2.9.4 6.5-.2 7.4-3 .3-1 .2-2.1.5-3.1.4-1.6 1.8-2.9 3.4-3.3.5-.1 1-.1 1.4-.4.8-.6.6-1.8.4-2.8-.6-2.1-1.1-4.6.3-6.4.6-.7 1.4-1.2 1.8-2 .3-.6.3-1.2.6-1.8.7-1.3 2.5-1.4 3.9-1.4s2.8.1 4 .6c1.3.5 2.4 1.5 2.7 2.9l2-2.4z"/>
    <path class="st3" d="M3.6 38.1c5.5 7.5 8.3 12.6 12.8 18.7.2.3.4.6.8.7.6.2 1.2-.1 1.6-.5 1.9-1.4 3.2-3.4 3.9-5.6-5.3-4.1-12.5-12.6-12.5-12.6-.4-1-.5-5.5-1.2-6.4-.7-.9-1.8-1.6-2.9-1.4-.7.1-2.8-.1-3.3.4-1.8 1.8-.5 5.6 1.3 7.4l-.5-.7zM39.8 93.2c.7 5.6 1.3 11.3 2 16.9.3 2.6.6 5.3 1.9 7.5 1.7 2.9 4.7 4.7 7.6 6.2 2.8 1.5 14.2 5.3 17.1 6.5.3.2.7.3 1.1.3.4 0 .8-.3 1.1-.6 1.9-1.6 3.4-3.7 4.3-5.9-2.7-3.8-15-9.3-19.3-11.1-.5-.2-1-.4-1.3-.9-.3-.4-.3-.9-.3-1.3-.5-6.9-.5-13.9-.1-20.8-4.8-.8-10 .5-13.8 3.6l-.3-.4zM58.3 73.9c1 3.6 2.1 7.1 3.5 10.5.2.6 2.2 6.1 2.6 6.5.8.7 4.3-.6 5.3-.5 2 .1-.1-2.9 1.7-2 .5.2.9.5 1.4.5.5 0 1.1-.2 1.2-.7.2-.5-.3-1.1-.7-1.4-1.6-1.5-3.6-2.6-5.7-3.1-.3-.1-.7-.2-.9-.5-.2-.2-.2-.5-.2-.7-.3-2.9-.5-5.9-.8-8.8-.1-1.6-.3-3.2-1-4.7-1.6.1-3.2.4-4.5 1.3-1.3.9-2.3 2.5-2 4l.1-.4z"/>
    <path class="st7" d="M93.1 181.7c.7.2 1.2 1.1 1.1 1.9-.1.8-.5 1.5-1.1 2-.5.4-1.1.7-1.8.8-1.1 0-2.2-.9-2.4-2-.2-1.1.4-2.3 1.4-2.9 1-.6 2.3-.5 3.3.1l-.5.1zM74 185.8c.4-.7 1.3-.9 2-.7.7.2 1.3.8 1.7 1.5.3.6.5 1.3.4 1.9-.2 1.1-1.3 2-2.5 1.9-1.1 0-2.2-.9-2.5-2-.3-1.1 0-2.3.7-3.2l.2.6zM61.3 174.6c.4-.7 1.3-.9 2-.7.7.2 1.3.8 1.7 1.5.3.6.5 1.3.4 1.9-.2 1.1-1.3 2-2.5 1.9-1.1 0-2.2-.9-2.5-2-.3-1.1 0-2.3.7-3.2l.2.6z"/>
    <path d="M95 178.5c-.1 1.8-.7 3.5-1.9 4.8-.3.3-.6.6-.9.7-.4.1-.9-.1-1-.4-.1-.3.1-.7.2-1 .5-1.2.2-2.6-.7-3.5 1.6-.4 3.1-.8 4.7-1.2l-.4.6zM77.6 183.2c-1.4.4-2.2 2.2-1.6 3.5.1.2.2.3.2.5 0 .5-.6.8-1.2.7-1.4-.2-2.4-1.5-2.9-2.9-.6-1.6-.8-3.3-.6-5 2.1.4 4.1 1.1 6.1 2v1.2zM64.8 172c-1.4.4-2.2 2.2-1.6 3.5.1.2.2.3.2.5 0 .5-.6.8-1.2.7-1.4-.2-2.4-1.5-2.9-2.9-.6-1.6-.8-3.3-.6-5 2.1.4 4.1 1.1 6.1 2v1.2z"/>
    <path class="st6" d="M56.6 121.5c.1-1 .4-1.9.9-2.7.8-1.5 2.3-2.4 4-2.7l14.2-2.7c.8-.2 1.7-.1 2.5.1.9.2 1.7.6 2.5 1.2l12.6 10.7c.7.6 1.3 1.4 1.7 2.3l.9 2.2c.3.7.4 1.5.4 2.3l-.8 46.2-4.6 1-2.9 3.5-9.4 1.7-1.2-1.9-1.2.3c-1.4.3-2.9 0-4-1l-.1 1.9-13.7-14.4-1.8-48z"/>
    <path class="st8" d="M86.7 183.1c.2-15.1 1.3-30.4 1.5-45.5.1-4.3.1-10.6-3.5-13l-12.3-10.8-4 .6 9.9 9.3c3.1 2.4 5.2 5.8 6.1 9.6.3 1.3.4 2.7.4 4.1l-1.3 46.2 3.2-.5z"/>
    <path d="M77.8 125.6c-1.9.3-3.9-.9-4.6-2.7l-.3-.9c-.2-.5-.7-.9-1.1-1.2-.8-.7-1.6-1.4-2.5-1.8-.7-.3-1.4-.5-2-.9-.6-.5-.9-1.4-.4-2 .3-.4.9-.4 1.4-.3.5.2.9.5 1.3.8 3.1 2.6 6.3 5.3 8.5 8.8l-.3.2zM79.4 150.8c.3-1 .1-2 .4-2.9.3-1 1.4-1.9 2.2-1.2.4.3.5.9.6 1.4.5 4.4 1 8.9.6 13.3-.2 2-.6 4-.9 6-.2.8-.6 1.8-1.4 1.8-.8-.1-1.1-1.1-1.1-1.9-.1-1-.1-2.1-.2-3.1 0-.2 0-.5.1-.7.2-.2.5-.2.8-.3.5-.2.7-.7.8-1.2.7-3.1.6-6.4-.1-9.5-.2-.8-.7-1.8-1.5-1.8l-.3.1z"/>
    <path d="M73.2 125.5c-1.1.9-3.2 2.8-3.7 4.1-.1.3-.3.7-.5.8-.5.3-1.1 0-1.5-.2-2.5-1.5-4.6-3.6-6.1-6.1-.3-.6-.7-1.2-.7-1.9-.1-1.3 1-2.4 2-3.4.9-.8 2-1.7 3.2-1.4.5.1 1 .5 1.4.8 1.6 1.3 3.1 2.9 4.5 4.5.7 1.1 1.8 2.5 1.4 2.8z" style="fill:#1c3f2d"/>
    <path d="M79.4 145.9c.1-2.8.1-5.6.2-8.4 0-2.5.3-5.2-.7-7.7-.5-1.1-1.2-2.2-2.2-2.9-.2-.1 0-.5.2-.4 2 1.4 2.8 3.8 3.1 6.1.1 1.4.1 2.7.1 4.1 0 1.4-.1 2.9-.1 4.3 0 1.6-.1 3.2-.1 4.8-.1.3-.5.3-.5.1zM79.4 172v9c0 .3-.4.3-.4 0v-9c0-.3.4-.3.4 0zM73.3 142.3v14c-.1 4.7-.2 9.3-.4 14-.1 2.6-.2 5.2-.4 7.8 0 .3-.4.3-.4 0 .2-4.6.4-9.3.6-13.9.1-4.7.2-9.3.2-14v-7.8c0-.3.4-.3.4-.1z"/>
    <path d="M77.8 131.2c-1.7.6-3 2-3.6 3.7-.2.5-.3 1-.4 1.5 0 .3-.4.3-.4 0 .2-1.9 1.3-3.6 2.9-4.8.4-.3.9-.6 1.4-.8.2-.1.3.3.1.4zM77.3 129.8c-1.6.1-3.1 1.2-3.7 2.6-.1.2-.5 0-.4-.2.7-1.6 2.3-2.7 4.1-2.8.3 0 .3.4 0 .4zM75.9 128.9c-1.4 0-2.7.9-3.3 2.2-.1.2-.5 0-.4-.2.6-1.4 2.1-2.4 3.6-2.4.4 0 .4.4.1.4zM74.9 127c-1.5.4-2.9 1.6-3.5 3.1-.1.2-.5.1-.4-.1.7-1.6 2.1-2.9 3.8-3.4.2-.1.3.3.1.4zM62 118.1c-1.1.4-1.9 1.4-2.2 2.4-.1.3-.5.1-.4-.1.3-1.2 1.3-2.3 2.4-2.7.1 0 .2 0 .3.1 0 .2 0 .3-.1.3zM60.8 117.9c-.9.3-1.6.9-2.1 1.7-.1.2-.5 0-.4-.2.6-.9 1.4-1.6 2.4-1.9.1 0 .2 0 .3.1 0 .1 0 .2-.2.3zM93.9 130.3c-1.2-.2-2.5.3-3.3 1.2-.2.2-.5-.1-.3-.3.9-1 2.3-1.5 3.7-1.3.3 0 .2.4-.1.4zM93.7 129c-1.3-.2-2.6.3-3.5 1.3-.2.2-.5-.1-.3-.3.9-1.1 2.4-1.7 3.9-1.4.3.1.2.5-.1.4zM92.9 127.8c-1.1-.2-2.3.2-3.1 1-.2.2-.5-.1-.3-.3.9-.9 2.3-1.4 3.5-1.1.2 0 .1.4-.1.4zM91.9 126.2c-1.3-.4-2.7.1-3.5 1.1-.2.2-.5-.1-.3-.3.9-1.1 2.5-1.6 3.9-1.2.3.1.2.5-.1.4zM83.5 144.1v-4.4c0-.7-.5-1.2-1.2-1.3h-.1c-.8-.1-1.4.5-1.4 1.3v4.4c0 .7.5 1.2 1.2 1.3.8.1 1.5-.5 1.5-1.3z"/>
    <path class="st8" d="M67.7 85.7c2 .2 3.8 1.7 4.3 3.6.3 1 .2 2 .1 3L70.3 125c-.1 1.3-.9 2.6-2.2 3 0 0 5.4-44.2-1.1-39.6-3.2 0-3.1 36.9-3.1 36.9l-2.3-2.2 1.8-35.7c.1-1.4 1.4-2.4 2.7-2.1l1.6.4z"/>
    <path class="st7" d="M71.7 124.9c-.8.4-1.6 1.1-2.1 1.8-.3.4-.5.8-.8 1.1-.3.4-.7.6-1.2.5-.5 0-.9-.2-1.3-.5s-.8-.5-1.2-.8c-.8-.6-1.5-1.3-2.1-2-.7-.8-1.3-1.7-1.9-2.6-.1-.2.2-.4.4-.2.9 1.6 2.1 3 3.5 4.2.3.3.7.6 1.1.8.4.3.8.5 1.2.7.4.1.8 0 1.1-.3.3-.3.5-.8.7-1.1.6-.8 1.4-1.5 2.3-2 .3-.1.5.2.3.4z"/>
    <path class="st3" d="M64.4 91.8c-.6-.8-.9-1.9-.8-3 0-.2.1-.3.2-.4.3-.4.9 0 1.2.4.5.6.9 1.2 1.2 1.9-.4-.6-.8-1.2-.7-1.9.1-.7.9-1.3 1.4-.9.2.1.3.4.4.6.3.6.5 1.1.8 1.7-.3-.4-.7-.8-.7-1.3s.4-1 .9-.9c.2.1.4.2.5.4.4.6.7 1.2.9 1.9-.3-.4-.5-.9-.3-1.3s.7-.6 1.1-.5c.4.1.8.4 1 .8.4.6.7 1.2.7 1.9 0 .4 0 .8-.3 1.1-.3.3-.8.4-1 .1 0 .5-.5.9-1.1.9-.5 0-1-.3-1.3-.7.2.4-.3.9-.8.9-.5-.1-.8-.6-1-1 0 .6-.9.9-1.5.6-.5-.3-.8-1-1-1.6l.2.3z"/>
    <path d="M39.7 30.6c-3.3-.1-7 0-9.5 2.2-1.8 1.6-2.6 3.9-3.1 6.2-.5 2.3-.8 4.7-1.7 6.8-1 2.1-2.5 2.9-4.8 3.2-.7 1.8-4.5 7.2-4.5 7.9 0 2 3.4 4.4 5.3 4.7 1.9.3 3.9-.3 5.8-.8-1.9 11.8-8.7 22.5-10.2 34.3 2.5-1 5.1.8 7.3 2.3 3 2 6.5 3.7 10.1 3.2 3-.4 5.8-2.3 8.7-1.7 2.1.4 4 2.1 6.1 1.7.9-.2 1.7-.7 2.5-1.3 1.5-1 7.1.7 8.6-.4-1.2-2.5-1.4-5.4-1.5-8.2-.3-6.2-4.6-15.3-4.4-21.5.5 2.4 2.1 3.6 4.1 5 1.1-3.3 4.1-3.9 7.6-3.7 1.1-5.7-.8-5.8-1.3-8.3-.3-1.5-.6-2.9-.6-4.4 0-2.3.7-4.5 1-6.7.5-4.3-.6-8.7-1.9-12.9-1.1-3.5-2.8-7.4-6.3-8.7-1.9-.7-4-.2-6.1.1-3.7.4-7.4.6-11.1 1h-.1z" style="fill:#663c17"/>
    <path class="st3" d="M6.1 29.5c.4 0 .9 0 1.3.1 1.3.4 2 1.8 2.4 3.1.2.6.3 1.5-.3 1.8-.5.3-1.2-.1-1.6-.6-.3-.5-.5-1.2-1-1.6-.3-.3-1.9-.1-2.4-.3-1-.4-1.3-.6-2.3-1 .1-.3.9-1 1.3-1 0 0 1.4-.4 2.6-.5zM2.4 32.5c-.2.5-1.7.2-2.1.6-.3.4-.5 1-.2 1.3.1.1.3.2.4.4.1.3-.2.5-.3.7-.4.6 0 1.6.7 1.8-.3.3-.4.9-.2 1.3.3.4.8.6 1.3.4-.3.2-.2.7.1.8.3.2.7.1 1 0 1-.2 2-.4 2.8-1 .8-.6 1.4-1.6 1.2-2.6-.7.2-1.4.7-1.9 1.3.4-.4.9-.5 1.3-.9s-.3-1.2-.8-1.3c-.1 0 .4 0 .3.1l-1.5.6c.6-.2 1.4-.7 1.2-1.4-.1-.4-.7-.6-1.2-.5-.5.3-.8.6-1.1.9.5 0 .9-.4 1-.9.1-.5-.1-1-.5-1.2-.8-.5-.8.7-1.2-.1l-.3-.3zM35.6 10.9c0 3.1.3 6.2.6 9.3.2 1.4.4 2.8 1.3 3.9s4.5 1 4.5 1l1.1 4.5s-2.8.6-3.8 1c-.8 5-1.1 10-.9 15 3.4-5.9 7.7-11.3 12.7-16-.8-3-1.5-6.1-2-9.3 1.1.8 3 .1 3.3-1.3.3-1.3-1-2.8-2.4-2.6-.5-1.1.3-2.5-.4-3.5-.3-.4-.7-.7-1.2-.9-3.5-1.7-7.5-3.1-11.3-2.3-.7.2-1.6.5-1.7 1.3l.2-.1z"/>
    <path d="M38.6 20.4c1 .1 1.9.1 2.9.2.4 0 .8 0 1.1-.2-.3.8-1.2 1.3-2 1.3-.9 0-1.8-.6-2-1.3z" style="fill:#fff"/>
    <path class="st12" d="M38.6 20.2c.7 0 1.4.1 2 .1.3 0 .6 0 1 .1.3 0 .6 0 .8-.1.2-.1.4.1.3.3-.4.9-1.3 1.4-2.2 1.4-.9 0-1.8-.6-2.1-1.5-.1-.2.3-.3.4-.1.3.7 1 1.2 1.8 1.2s1.5-.5 1.8-1.2l.3.3c-.6.3-1.3.2-1.9.1-.7 0-1.4-.1-2.2-.1-.3-.1-.3-.5 0-.5zM49.3 18.9c.5-.4 1-.7 1.6-.9.1 0 .2 0 .3.1 0 .1 0 .2-.1.3-.5.2-1 .5-1.5.8-.1.1-.2.1-.3 0v-.3z"/>
    <path class="st12" d="M50.3 18.6c.2.3.3.7.3 1.1 0 .1-.1.2-.2.2s-.2-.1-.2-.2v-.2c0-.1 0-.2-.1-.2V19s0-.1-.1-.1c-.1-.1 0-.2.1-.3 0-.1.1-.1.2 0zM39.4 19c-.4-.2-.8-.4-1.2-.7-.1-.1-.1-.3 0-.4.9-.5 1.5-1.5 1.3-2.5 0-.1 0-.2.1-.3.1 0 .2 0 .3.1.2 1.2-.4 2.4-1.5 2.9v-.4c.4.2.8.4 1.2.7.2.4 0 .8-.2.6z"/>
    <path d="M43 15.9c.2-.4.7-.7 1.2-.7s.9.3 1.1.7c0 .1 0 .2-.1.3-.1.1-.2 0-.3-.1-.1-.3-.4-.5-.8-.5-.3 0-.7.2-.8.5 0 .2-.4 0-.3-.2zM36.2 15.9c.2-.4.7-.7 1.2-.7s.9.3 1.1.7c0 .1 0 .2-.1.3-.1.1-.2 0-.3-.1-.1-.3-.4-.5-.8-.5-.3 0-.7.2-.8.5 0 .2-.4 0-.3-.2z"/>
    <path class="st12" d="M42.5 25.1c1.5-.3 3.1-.6 4.6-.9.3 0 .4.3.1.4-1.5.3-3.1.6-4.6.9-.3 0-.4-.4-.1-.4zM2.6 30.7c.2.2.5.4.8.5.3.1.6.2.9.1.7 0 1.4-.1 2.1-.1.1 0 .2.1.2.3-.2 1.2.4 2.4 1.4 3 .2.1 0 .5-.2.4-1.2-.7-1.8-2.1-1.6-3.5.1.1.1.2.2.3-.7 0-1.5.1-2.2.1-.3 0-.6 0-1-.2-.3-.1-.6-.3-.8-.5-.2-.2 0-.5.2-.4zM.9 32.7c.5-.2 1-.2 1.6-.2.5 0 1 0 1.5.3.4.2.7.6.7 1s-.3.7-.7.9c-.5.3-1 .4-1.6.5-.2 0-.4-.3-.2-.4.5-.3 1.1-.5 1.7-.7.5-.1 1-.2 1.5 0 .4.2.7.7.5 1.1-.1.2-.3.4-.5.6-.2.2-.5.4-.7.5-.5.3-1.1.6-1.8.8-.2.1-.4-.3-.2-.4.9-.5 1.8-1.1 2.9-1.1.4 0 .9 0 1.1.4.2.5-.2.9-.6 1.1-.5.3-1.1.7-1.7 1-.1-.1-.1-.2-.2-.4.5-.2 1.2-.5 1.7-.2.4.2.6.7.4 1.2-.1.2-.5 0-.4-.2.2-.2-.1-.5-.3-.7-.4-.2-.9.1-1.2.2-.2.5-.4.1-.2 0 .5-.3 1.1-.6 1.6-.9.2-.1.4-.3.5-.5 0-.2-.2-.3-.4-.4-.5-.1-1.1.1-1.5.3-.5.2-1 .5-1.5.8-.1-.1-.1-.2-.2-.4.6-.2 1.2-.5 1.7-.8.2-.2.5-.3.7-.5.2-.2.4-.4.3-.7-.1-.5-.9-.4-1.3-.4-.6.1-1.2.4-1.8.7-.1-.1-.1-.2-.2-.4.5-.1 2.5-.5 1.8-1.5-.3-.4-.9-.5-1.4-.5-.6 0-1.1 0-1.7.2-.1.2-.2-.2.1-.3z"/>
    <path class="st6" d="M42.4 10c-.7.8 0 2 .9 2.6.9.5 2 .7 2.9 1.2 1.2.7 2.7 1 2.7 2.4 0 .5 0 1.1-.5 2.3 0 0 1-1.3 1.4-1.3.7-.1 1.5-.1 2.2-.2-.7-1.1-.6-2.5-1.3-3.7-.5-.8-1.3-1.4-2.1-1.9-3.5-2-7.7-2.6-11.6-1.8-.4.1-.9.2-1.2.5-.6.5-.7 1.3-.6 2 0 .7.2 1.5.1 2.2-.1.7-.7 1.4-1.4 1.5 1.3.7 2.8-.4 3.7-1.5.9-1.1 1.8-2.5 3.3-2.8.5-.1 1.2-.1 1.3-.6l.2-.9zM50.9 12.5c.4.6 1.1.8 1.7 1 .7.2 1.4.3 2 .6.6.3 1.1.7 1.5 1.2.4.5.6 1.2.7 1.8.3 1.2.5 2.7 1.4 3.7.6.6 1.3.9 2.1 1.1.8.3 1.5.5 2.2.9 1.5.9 2.7 2.3 2.8 4 0 .3-.4.3-.4 0-.1-1.5-1.2-2.8-2.4-3.6-.7-.4-1.4-.7-2.2-.9-.8-.3-1.6-.5-2.2-1.1-1-.9-1.3-2.3-1.6-3.6-.2-.6-.3-1.3-.6-1.9-.3-.6-.7-1-1.3-1.3-1.4-.7-3.1-.6-4.1-1.9-.1 0 .2-.2.4 0z"/>
    <path class="st6" d="M35.9 11c-.5.4-.8.9-1 1.5-.2.6-.2 1.2-.6 1.8-.5.8-1.4 1.3-2.1 1.9-.3.3-.6.7-.7 1.1-.2.6 0 1.2.2 1.8.2.6.4 1.2.3 1.8-.1.6-.3 1.2-.7 1.6-.9 1.2-2.4 1.7-3.8 2-.3.1-.4-.3-.1-.4 1.2-.3 2.5-.7 3.4-1.7.4-.4.7-1 .7-1.6.1-.6-.2-1.2-.4-1.8-.2-.6-.4-1.2-.2-1.8.1-.4.3-.8.7-1.2.6-.7 1.5-1.1 2.1-1.9.2-.2.3-.5.4-.7.1-.4.2-.7.3-1.1.2-.7.6-1.2 1.1-1.7.3-.1.6.2.4.4z"/>
    <path class="st13" d="M43.1 13.3v.8c1-.2 2 .4 2.9.9-.3-.6-.6-1.1-1.2-1.4-.6-.3-1.2-.3-1.7-.3zM39.2 12.2v.8c-1-.2-2 .4-2.9.9.3-.6.6-1.1 1.2-1.4.5-.4 1.2-.3 1.7-.3zM44.5 10.7c.7.9 1.6 1.6 2.6 2.1.2.1 0 .5-.2.4-1-.5-2-1.3-2.7-2.2-.1-.1-.1-.2 0-.3.1 0 .3-.1.3 0zM48 12.2c0 .1 0 .1 0 0 0 .1 0 0 0 0 .1.1.1.2.1.2l.1.1h.2s.1 0 .1.1c0 0 .1 0 .1.1h.1c.1 0 .2.1.1.3 0 .1-.1.2-.3.1-.4-.1-.8-.4-1-.8-.1-.1 0-.2.1-.3.2.1.3.1.4.2zM54.5 19.7c.5 1.8 1.7 3.4 3.2 4.5 1.5 1.1 3.5 2 4.3 3.8.4.9.5 2-.1 2.9-.1.2-.5 0-.4-.2.5-.8.4-1.8.1-2.6-.4-.8-1-1.5-1.8-2-.8-.6-1.7-1.1-2.5-1.7-.7-.5-1.4-1.2-1.9-1.9-.6-.8-1.1-1.7-1.3-2.7 0-.2.4-.4.4-.1zM55.2 23.7c1.4.9 2.1 2.5 1.8 4.1 0 .3-.4.1-.4-.1.3-1.4-.4-2.9-1.6-3.7-.2 0 0-.4.2-.3zM36 23.8c0 .5-.1 1-.3 1.5-.2.5-.5.8-1 1-.5.2-.9.3-1.4.4-.5.1-1.1.3-1.5.7-.5.4-.8 1-.7 1.6 0 .3-.4.3-.4 0-.1-1.1.8-2 1.7-2.4.5-.2 1-.3 1.5-.4.5-.1 1-.3 1.2-.7.3-.5.4-1.1.4-1.7.1-.3.5-.3.5 0zM37 26.9c-.5.5-1.1 1-1.8 1.3-.2.1-.4-.2-.2-.4.6-.3 1.2-.8 1.7-1.2.2-.1.4.1.3.3zM40 26c.1.7-.2 1.4-.6 1.9-.1.1-.2.1-.3 0-.1-.1-.1-.2 0-.3.4-.5.6-1.1.5-1.7 0-.1.1-.2.2-.2.1.1.1.2.2.3z"/>
    <path class="st12" d="M6.3 36.4c1.2.3 2.1 1.3 2.4 2.4.1.3-.3.4-.4.1-.3-1-1.1-1.8-2.2-2.1-.2-.1 0-.5.2-.4zM65.7 89c.5 1.1.9 2.3 1 3.6 0 .3-.4.3-.4 0-.1-1.2-.5-2.3-.9-3.4-.1-.2.2-.4.3-.2zM67.3 88.5c.7 1.3 1.2 2.7 1.5 4.1 0 .3-.4.4-.4.1-.2-1.4-.7-2.8-1.4-4-.2-.3.1-.5.3-.2zM69.9 89.2c.4 1.1.7 2.2.8 3.4 0 .3-.4.3-.4 0-.1-1.1-.4-2.2-.8-3.3-.1-.2.3-.3.4-.1zM63.4 83.7c.7-.7 1.7-1 2.6-.7.2.1.1.5-.1.4-.8-.2-1.6 0-2.2.6-.2.2-.5-.1-.3-.3z"/>
    <path class="st4" d="M31.8 118.4c-.5 1.1-.1 2.5.9 3.1.2.1 0 .5-.2.4-1.2-.7-1.7-2.4-1.1-3.6.2-.3.5-.1.4.1zM44.9 115.4c-.4 1 .2 2.2 1.2 2.5.3.1.1.5-.1.4-1.2-.3-2-1.8-1.5-3 0-.1.1-.2.3-.1 0 0 .1.1.1.2z"/>
    <path class="st14" d="M26.8 60.7c3.3 1.1 6.6 1.9 10 2.6 3.4.6 6.8 1 10.3 1.2 1.9.1 3.9.1 5.8.1.3 0 .3.4 0 .4-3.5.1-6.9-.1-10.4-.4-3.4-.4-6.9-1-10.2-1.8-1.9-.5-3.8-1-5.7-1.6-.1-.2 0-.6.2-.5zM56.6 32.6c-1.1 2.1-2 4.4-2.6 6.7-.6 2.3-1 4.7-1.1 7.1-.1 2.6.1 5.2.2 7.7.2 2.6.3 5.3.5 7.9.2 2.5.2 5.1.8 7.5l.3.9c.1.2-.3.4-.4.1-.8-2.4-.9-4.9-1.1-7.4-.2-2.7-.3-5.3-.5-8-.2-2.6-.4-5.3-.3-7.9.1-2.4.4-4.9 1-7.2s1.4-4.6 2.5-6.8c.1-.3.3-.5.4-.8 0-.3.4-.1.3.2zM57.1 71.8c1.5-1.4 3.4-2.4 5.4-2.9.6-.1 1.1-.2 1.7-.3.3 0 .3.4 0 .4-2 .2-3.9.9-5.5 2-.5.3-.9.7-1.3 1.1-.2.2-.5-.1-.3-.3z"/>
    <path class="st14" d="M26.5 60.6c.7-1.6 1.2-3.2 1.5-4.8.2-.8.3-1.6.2-2.4-.1-.8-.6-1.4-.8-2.2-.2-.8-.1-1.7.1-2.5.2-.9.4-1.7.5-2.6.4-1.8.7-3.5 1.1-5.3.4-2 .8-3.9 1.2-5.9.1-.3.4-.1.4.1-.7 3.5-1.4 7.1-2.2 10.6-.2.9-.4 1.8-.5 2.7-.2.8-.4 1.7-.3 2.5.1.8.7 1.4.9 2.2.2.8.1 1.6-.1 2.4-.4 1.9-.9 3.7-1.7 5.4 0 .2-.4 0-.3-.2zM38 31.9c-.6 2.1-.9 4.2-1 6.4-.1 2.2.1 4.3.4 6.5.2 1.2.4 2.4.7 3.6h-.4c1.5-2.3 3.1-4.6 4.8-6.9 1.7-2.2 3.4-4.4 5.2-6.5 1-1.2 2.1-2.4 3.2-3.5.2-.2.5.1.3.3-1.9 2-3.7 4.1-5.5 6.3-1.8 2.2-3.4 4.4-5 6.7-.9 1.3-1.8 2.6-2.6 3.9-.1.1-.3.1-.4 0-.5-2.2-.9-4.3-1-6.5-.2-2.2-.2-4.4.1-6.6.2-1.2.4-2.4.8-3.6.1-.5.5-.4.4-.1zM58.6 55.3c1.4-.1 2.9.1 4.3.5.3.1.1.5-.1.4-1.4-.4-2.8-.5-4.2-.5-.2 0-.2-.4 0-.4zM58.3 57c1.5-.1 3 0 4.5.1.3 0 .3.4 0 .4-1.5-.2-3-.2-4.5-.1-.3 0-.3-.4 0-.4zM21.6 49.6c-.9 2.2-1.9 4.4-3.2 6.5-.4.6-.8 1.1-1.2 1.7-.2.2-.4-.1-.3-.3 1.5-1.9 2.5-4 3.5-6.2.3-.6.5-1.2.8-1.9.2-.2.5 0 .4.2zM23.7 49.6c.5 1.6.8 3.2.9 4.8 0 .3-.4.3-.4 0-.1-1.6-.4-3.2-.9-4.7-.1-.3.3-.4.4-.1zM24.9 49.7c.7.9 1.1 1.9 1.3 3 0 .3-.3.4-.4.1-.2-1-.6-2-1.3-2.9-.1-.1 0-.2.1-.3.1 0 .2 0 .3.1zM33.5 62.7c-.6 3.4-1.7 6.8-2.7 10.1-1.1 3.3-2.2 6.6-3.1 10-.5 1.9-.9 3.8-1.2 5.7 0 .3-.4.1-.4-.1.5-3.4 1.4-6.8 2.5-10.1 1-3.3 2.2-6.6 3.2-10 .5-1.9 1-3.8 1.4-5.7 0-.2.4-.1.3.1zM34.5 63.3c-.3 2.9-.8 5.8-1.3 8.6-.5 2.9-1.1 5.8-1.7 8.6-.4 1.6-.7 3.2-1.2 4.8-.1.3-.5.1-.4-.1.7-2.8 1.4-5.6 1.9-8.5.6-2.8 1.1-5.7 1.5-8.6.2-1.6.5-3.2.7-4.9.2-.1.6-.1.5.1zM44 67.6c-.3 4.3-.7 8.6-1.2 12.9-.1 1.2-.3 2.4-.5 3.6 0 .1-.1.2-.2.2s-.2-.1-.2-.2c.6-4.3 1-8.6 1.4-12.9l.3-3.6c0-.3.4-.3.4 0zM45.5 70.6c.1 3.3 0 6.5-.2 9.8l-.3 2.7c0 .3-.4.3-.4 0 .4-3.2.6-6.5.6-9.8 0-.9 0-1.8-.1-2.7 0-.2.4-.2.4 0zM48.6 78.4c.3 2.8.3 5.6.1 8.4-.1.8-.1 1.6-.2 2.4 0 .1-.1.2-.2.2s-.2-.1-.2-.2c.4-2.8.5-5.6.3-8.4 0-.8-.1-1.6-.2-2.4-.1-.3.4-.3.4 0zM25.6 93.7c1.1 1.4 2.5 2.5 4.2 3.1 1.6.7 3.4 1 5.2.8.9-.1 1.8-.3 2.7-.7 1-.4 2-.8 3.1-1 1-.1 2.1 0 3 .4.5.2.9.4 1.4.7.4.3.9.6 1.3.9.9.5 2 .4 3 0s1.8-1.2 2.5-1.9c.2-.2.4-.4.5-.6.2-.2.5.1.3.3-1.4 1.5-3.2 3.3-5.4 2.9-1.1-.2-1.9-1-2.8-1.5-.9-.5-2-.8-3-.8-1.1 0-2.2.3-3.2.7-.9.4-1.9.7-2.9.9-1.8.3-3.6.1-5.3-.5-1.7-.6-3.3-1.6-4.5-3-.2-.2-.3-.4-.4-.5-.2-.2.2-.4.3-.2zM30.4 53.9c2 0 3.9.1 5.9.2 1.9.1 3.8.2 5.6.4 1 .1 2 .3 3 .7.2.1.1.5-.1.4-1.7-.6-3.6-.7-5.4-.9l-5.7-.3c-1.1 0-2.2-.1-3.3-.1-.2 0-.2-.4 0-.4zM33.9 55.4c1.7 0 3.4.1 5 .2.3 0 .3.4 0 .4-1.7-.1-3.3-.2-5-.2-.3 0-.3-.4 0-.4z"/>
</svg>
