<svg xmlns="http://www.w3.org/2000/svg" width="60.4" height="37.9" style="overflow:visible;enable-background:new 0 0 60.4 37.9" xml:space="preserve">
    <style>
        .st0{fill:#0e8e1e}
    </style>
    <path class="st0" d="M14.7 37.9c-4.4-3.8-8.4-8.1-11.9-12.8-2.1-2.9-4-7-1.8-9.8 5.7 2.8 10.5 7.3 13.7 12.9-1.5-7.3 0-15.1 4.2-21.3 3.6 5.1 3.2 12 2.7 18.2 1.3-3.9 3.2-7.6 5.5-10.9.6-.8 1.3-1.7 2.3-1.9 2.4-.5 3.3 3.1 3.1 5.5-.8 6.7-2.5 13.2-4.9 19.5l-12.9.6z"/>
    <path class="st0" d="M47.8 30.5c4-4.2 7.6-8.9 10.5-14 1.8-3.1 3.3-7.4.8-9.9-5.4 3.4-9.7 8.4-12.3 14.2.8-7.4-1.6-15-6.3-20.7-3.1 5.5-2 12.2-.9 18.4-1.7-3.7-3.9-7.2-6.6-10.3-.7-.8-1.4-1.6-2.4-1.6-2.5-.2-3 3.4-2.5 5.8 1.4 6.5 3.7 12.9 6.8 18.8l12.9-.7z"/>
</svg>
