<svg xmlns="http://www.w3.org/2000/svg" width="45.9" height="17.5" style="overflow:visible;enable-background:new 0 0 45.9 17.5" xml:space="preserve">
    <path d="M.1.7C2.4 4.1 4 7.9 5 11.9c.3 1.1.5 2.3.6 3.5.1.5.8.3.8-.2-.6-4.1-1.9-8.2-3.9-12-.5-1-1.2-2-1.8-3C.4-.3-.2.2.1.7zM14 2.2c-1.5 4.2-1.1 9 .9 13 .2.4.9.1.7-.3-1.9-3.8-2.2-8.4-.8-12.4.1-.5-.6-.8-.8-.3zm10.3 2.4c-.3 4.2-.5 8.4-.8 12.5 0 .5.7.5.8.1.3-4.2.6-8.3.9-12.5-.1-.5-.8-.6-.9-.1zm21.5-3.3c-2.8 3.1-4.9 6.6-6.4 10.5-.4 1.1-.8 2.2-1.1 3.3-.1.5-.9.2-.7-.3 1.1-4.1 3-7.9 5.5-11.3.7-1 1.5-1.9 2.3-2.8.2-.4.7.2.4.6zm-14-.5c.9 4.4-.1 9.1-2.7 12.8-.3.4-.9 0-.6-.4 2.4-3.5 3.4-8 2.6-12.2-.1-.5.6-.6.7-.2zm-10.6 1c-.3 4.2-.6 8.3-.9 12.5 0 .5-.8.4-.8-.1.3-4.2.6-8.3.9-12.5.1-.4.9-.4.8.1z" style="fill:#0e8e1e"/>
</svg>
