<svg xmlns="http://www.w3.org/2000/svg" width="148.9" height="153.8" style="overflow:visible;enable-background:new 0 0 148.9 153.8" xml:space="preserve">
    <style>
        .st0{fill:#009444}
    </style>
    <path class="st0" d="M60.3 20.7c-.5-4.9.3-10.2 3.4-14.2 3-3.9 8.4-6.2 13.2-4.7 4.7 1.5 7.8 7.4 5.6 11.9 3.9-6 9.9-10.6 16.7-12.7 3.6-1.1 7.7-1.6 11.2-.1 4.1 1.8 6.7 6.1 7.1 10.6.3 4.4-1.5 8.9-4.3 12.3 7.3-1.7 15.5 2.7 18.1 9.7 2.6 7-.8 15.7-7.5 19.2 3.9-3.9 11.2-2.5 14.2 2.1s1.9 11.1-1.6 15.3c-4.2 5-12.2 6.9-17.6 3.2-2.2 7.5-11.9 9.9-19.5 8.4C85 78.8 73.4 65.6 72.4 51L60.3 20.7z"/>
    <path d="M59.1 95.2c.2-.8.8-1.4 1.7-1.3.8.1 1.5.9 1.3 1.7-1.2 5.9.3 12.1 4.1 16.9.9 1.2 2 2.2 3.2 3.2 1.3-6.9 3.2-13.6 5.6-20.2 1.4-3.7 2.9-7.4 4.8-10.9.4-.7 1.2-1.1 2-.8.7.3 1.2 1.2.8 2-3.3 6.3-5.8 13.1-7.7 20-2 7.1-3.4 14.4-4.2 21.7-.4 3.9-.7 7.8-.7 11.8 0 .8-1 1.4-1.7 1.3-.9-.1-1.3-.9-1.3-1.7 0-6.8.7-13.5 1.8-20.2-.3 0-.6-.1-.9-.3-5.4-4.1-8.8-10.6-9.2-17.3-.1-2 0-4 .4-5.9zm14 46c2.7-7.1 6-13.9 9.9-20.4 2.7-4.7 5.8-9.1 9-13.4-4.2-5.5-6.5-12.4-6.3-19.4.1-2 .3-4.1.8-6 .4-1.6 2.8-.9 2.4.7-1.5 6.3-.7 13 2.2 18.8.7 1.4 1.5 2.7 2.4 3.9.8-1 1.6-2 2.5-3 2.7-3.3 5.6-6.4 8.6-9.4 1.2-1.1 3 .6 1.8 1.8-5.3 5.2-10.1 10.8-14.4 16.8-4.4 6-8.2 12.4-11.5 19.1-1.9 3.7-3.5 7.5-5 11.4-.2.6-.9 1.1-1.6.9-.5-.4-1-1.2-.8-1.8zm-33-35.8c.5-.4 1.4-.4 1.8.2 2 2.9 3.8 6 5.6 9.1 4-2.4 6.3-7.4 5.6-12-.3-1.6 2.2-2 2.5-.4.9 5.7-2 11.6-6.9 14.6 1 2 2 3.9 2.9 5.9 2.7 6 4.9 12.3 6.5 18.7.9 3.6 1.6 7.2 2.2 10.8.2 1.6-2.3 2-2.5.4-1-6.3-2.4-12.6-4.5-18.7-1.9-5.7-4.3-11.3-7.1-16.6-.2-.2-.4-.5-.4-.8 0-.1-.1-.1-.1-.2-1.7-3.2-3.6-6.2-5.6-9.2-.6-.6-.6-1.3 0-1.8z" style="fill:#f59f18"/>
    <path d="M86 77c1.2 8.4 8.9 14.7 17.2 16.6s16.9 0 25-2.5c5.6-1.7 11.7-4.4 13.7-9.9s-4-12.9-9-9.8c4-6.6 5.4-15.4 1.1-21.9-4.2-6.4-15.1-8.1-19.5-1.8 2.6-8.1 5.3-16.6 4.3-25.1s-6.9-17-15.4-18.2c-3.4-.5-6.8.2-10 1.3C82.5 9.2 73.3 17.1 68 27c1.7-8.6-9.2-15.6-17.4-12.7-8.2 2.9-12.6 12.2-13 20.9-2.6-7.2-13.1-10.1-18.8-5S14.9 46.4 22.1 49C15.6 43.6 4.2 46.3.9 54.1-2.4 61.9 3.6 72 12 72.9 1.4 75.1-2.8 90.7 4.4 98.7S26.3 105.5 33 97c2.9 8.3 13.4 12.4 21.7 9.5 8.3-2.8 14-11.2 15.3-19.9 2.7 3.7 8.1 5.1 12.3 3.2 4.2-2 6.5-7 5.4-11.5L86 77z" style="fill:#53b75e"/>
    <path d="M64.4 83c-2.9 3.8-6.1 7.5-10.3 9.9-4.1 2.4-9.4 3.4-13.8 1.4-7.3-3.2-9.5-12.7-8.9-20.7.2-3.3.8-6.7 3-9.1 2.5-2.7 6.6-3.5 10.3-2.9 3.6.6 7 2.5 10.2 4.3-5.2-4.6-7.8-12.1-5.9-18.8 1.9-6.7 8.4-11.9 15.3-11.6s13.2 6.6 13 13.5c.2-8.8 7.5-16.8 16.2-17.8 2.8-.3 5.8 0 8 1.8 3.5 2.7 4 7.9 3.3 12.4-1 6.5-3.6 12.8-7.7 18 2.4-5.2 10.4-6.5 14.4-2.4s2.4 12-2.8 14.3c3.1 1.6 3.1 6.4.7 8.9-2.4 2.5-6.2 2.9-9.6 2.4-5.8-.9-11.9-6.3-9.7-11.7-1.8 5.3-6.4 9.5-11.8 10.9-5.4 1.4-11.5-.1-15.6-3.9l1.7 1.1z" style="fill:#0e8e1e"/>
    <path class="st0" d="M31.9 23.2c-3.3-3.5-5.8-7.8-6.9-12.5-.2-.8-.3-1.6.1-2.3.6-1 2-1 3-.5 1 .6 1.5 1.6 2.1 2.6 2 3.6 4 7.7 2.7 11.5l-1 1.2zM26 19.8c-.9-5.5-5.6-9.8-11-10.6-.5 2.7 1.1 5.5 3.3 7.2 2.1 1.8 5 2.9 7.7 3.4zM137.8 38c2.5-3.8 6.7-6.4 11.1-7.1-1.2 4.5-6.2 7.7-10.8 6.7l-.3.4zm-.5-6.3c.3-4.8 3.1-9.3 7.2-11.7 1.2 4.5-3.1 8.4-7 11.1l-.2.6zM67.6 76.9c-4.6-2.5-5.3-8.7-3.5-13.2 1-2.5 3.2-5.1 6.2-4.9 2.8.2 4.9 2.7 6.1 4.9 1.5 2.8 2.6 6.8.6 9.6.4 0 .7.1 1.1.1-1.5-4.5-1-9.6 1.4-13.6.6-1 1.3-2 2.4-2.5.8-.4 1.7-.4 2.6-.2 1.9.5 3.4 2 4 3.8.9 2.8.3 5.8-.4 8.5.4.1.8.2 1.1.3 1.2-5.3 6.5-9.3 12-8.9 1.3.1 2.8.5 3.8 1.4 1.2 1.1 1.3 2.6 1.1 4.1-.5 2.9-1.1 6.3-3.3 8.3-1.7 1.5-5.2 1.8-6.3-.6-.3-.7-1.3-.1-1 .6 1.2 2.6 4.6 2.8 6.9 1.7 3.1-1.5 4-5.3 4.7-8.3.4-1.7.8-3.6 0-5.3-.7-1.4-2.1-2.3-3.6-2.7-3-.9-6.3-.2-9 1.3-3 1.7-5.4 4.7-6.2 8.1-.2.7.9 1.1 1.1.3.7-2.8 1.3-5.7.6-8.6-.6-2.2-2.1-4.1-4.3-5-2.2-.9-4.5-.3-6 1.5-1.7 2-2.7 4.6-3.2 7.1-.6 3-.4 6 .6 8.9.2.5.8.6 1.1.1 2-2.8 1.2-6.7 0-9.7-1.2-2.8-3.5-5.7-6.5-6.5-3.3-.9-6.2 1.3-7.7 4-1.4 2.5-2 5.5-1.6 8.4.4 3.1 2 6.1 4.9 7.7.4.7 1-.4.3-.7zm-17.2-11c-.4-2.1-1.1-4.1-1.9-6.1-.8-1.8-1.6-3.6-2.8-5.2-1.1-1.4-2.5-2.6-4.3-3.1-1.7-.5-3.6-.4-5.3.2-3.3 1.2-5.7 4.3-6.3 7.8-.5 3.1.4 6.3 2.3 8.8 2.1 2.8 5.4 4.8 9 4.8.2 0 .4-.1.5-.3.7-1.6-.3-3.4-1.8-4-1.7-.7-3.7 0-5.3.9-2.6 1.5-4.3 4.2-5 7.1-.7 2.9-.3 6 1.3 8.5 1.7 2.5 4.5 4 7.5 4.4 3.3.5 6.8-.4 9.3-2.8.5-.5-.3-1.4-.8-.8-3.7 3.6-10.3 3.4-13.9-.2-3.7-3.7-3.1-10.2.5-13.8 1.1-1.1 2.4-1.9 3.9-2.2.9-.2 2-.2 2.7.4.5.4 1 1.3.7 2 .2-.1.3-.2.5-.3-5.7-.1-10.5-5.6-10.2-11.1.1-3.1 1.9-6.1 4.6-7.5 1.4-.8 3.1-1.1 4.8-.8 1.7.3 3.1 1.1 4.2 2.4 1.3 1.5 2.2 3.4 3 5.2.8 2 1.5 4.1 1.9 6.2-.1.6 1 .2.9-.5zm30.8-31.6c-.9-2.7-1.1-5.6-.5-8.4.5-2.2 1.6-4.6 3.8-5.5 1.8-.8 4-.4 5.7.5 2 1.1 3.4 2.9 4.1 5 1 2.7 1 5.6.7 8.4.1-.2.2-.3.3-.5-.5.3-1-.8-1.1-1.1-.2-.5-.3-1.1-.3-1.6 0-1.1.2-2.3.8-3.3 1.1-2.1 3.1-3.7 5.5-3.9 2.6-.2 5.1 1.2 6.8 3.2 1.7 2.1 2.3 4.9 1.7 7.6-.7 3.1-2.7 5.7-5.4 7.4-.6.4-.1 1.4.6 1 4.9-3 7.9-9.5 5.2-14.9-1.2-2.5-3.5-4.4-6.2-5.2-2.6-.7-5.3-.1-7.2 1.7-1.8 1.6-3 4.1-2.8 6.6.1 1.2.5 2.7 1.6 3.5.5.3 1.4.5 1.8-.1.2-.3.1-.8.2-1.2 0-.4.1-.8.1-1.2.1-3.1-.3-6.4-2.1-9.1-1.5-2.3-3.9-3.9-6.6-4.2-2.8-.4-5.5.9-6.9 3.3-1.7 2.9-1.9 6.6-1.4 9.8.1.9.4 1.8.7 2.6 0 .6 1.1.3.9-.4zM23.7 57.4c-1-1.9-3.5-2.5-5.4-1.8-2.4.8-3.7 3.1-4.3 5.4-1.1 4.3-.9 11.1 4.2 12.8 1.8.6 4.2.4 5.6-1 .8-.8 1.4-2.1.9-3.2-.5-.9-1.5-1.1-2.4-1-1 .2-2 .7-2.8 1.4-1 .9-1.9 2-2.7 3.1-1.5 2.2-2.5 4.9-2.5 7.6.1 2.4 1 4.7 2.8 6.4 1.6 1.5 3.8 2.6 6 2.4.6-.1 1.1-.2 1.7-.4.7-.3.4-1.4-.3-1.1-3.7 1.4-7.7-1.6-8.7-5.2-1.3-4.4 1.4-9.1 4.6-12 .6-.5 1.4-.9 2.2-1 .9-.1 1.3.6.9 1.4-.7 1.5-2.5 1.9-4 1.7-4.5-.7-5.1-6-4.7-9.7.3-2.2 1-4.9 3-6.2 1.6-.9 4-.8 4.9.9.3.8 1.3.2 1-.5z"/>
</svg>
