<!-- Generator: Adobe Illustrator 25.0.0, SVG Export Plug-In  -->
<svg version="1.1" xmlns="http://www.w3.org/2000/svg" xmlns:xlink="http://www.w3.org/1999/xlink" x="0px" y="0px" width="79.2px"
	 height="49.7px" viewBox="0 0 79.2 49.7" style="overflow:visible;enable-background:new 0 0 79.2 49.7;" xml:space="preserve">
<style type="text/css">
	.st0{fill:#0E8E1E;}
</style>
<defs>
</defs>
<g>
	<path class="st0" d="M19.2,49.7c-5.8-5-11.1-10.6-15.6-16.8c-2.8-3.8-5.3-9.2-2.4-12.9c7.5,3.7,13.8,9.6,18,16.9
		c-2-9.5,0-19.8,5.5-27.9c4.7,6.7,4.2,15.7,3.6,23.9c1.7-5.1,4.2-9.9,7.3-14.3c0.8-1.1,1.7-2.2,3-2.5c3.2-0.6,4.4,4,4,7.2
		c-1,8.7-3.1,17.3-6.3,25.5L19.2,49.7z"/>
	<path class="st0" d="M62.6,39.9c5.3-5.5,9.9-11.7,13.8-18.3c2.4-4.1,4.3-9.7,1-13c-7.1,4.4-12.8,11-16.2,18.6
		c1-9.7-2-19.7-8.3-27.2c-4,7.2-2.6,16-1.1,24.1c-2.2-4.9-5.2-9.5-8.7-13.5c-0.9-1-1.9-2-3.2-2.1c-3.2-0.3-3.9,4.5-3.3,7.6
		c1.9,8.6,4.9,16.9,8.9,24.7L62.6,39.9z"/>
</g>
</svg>
