<svg xmlns="http://www.w3.org/2000/svg" width="144.9" height="227.2" style="overflow:visible;enable-background:new 0 0 144.9 227.2" xml:space="preserve">
    <style>
        .st2{fill:#cb6b6d}.st3{fill:#a9b871}.st5{fill:#de9a80}.st6{fill:#fbc19e}.st7{fill:#f5b393}.st12{fill:#e9a085}.st14{fill:#533739}.st16{fill:#fbcbaa}.st17{fill:#d1818a}
    </style>
    <path d="M82.1 227s.1 0 0 0c1-.5 1.5-1.6 1.3-2.6L78.6 204c-3-13.5-5.3-27.2-6.7-41-1.4-13.8-2-27.8-1.5-41.6.5-13.7 2.3-27.5 7.8-40.2 1.2-2.8-3.3-4.1-4.5-1.3-6.2 14.3-7.8 30.1-8.1 45.6-.4 27.8 2.8 55.4 9 82.5 1.3 5.9 2.8 11.7 4.1 17.6.5 1.3 2.1 2 3.4 1.4z" style="fill:#6b933e"/>
    <path d="M16.8 55.8C12.5 54.1 3.1 33.6 1.7 29 .5 25 .6 17.8 4.4 15.4c3.9-2.4 9 .1 12.4 2.3 1.1.7 1.8 1.6 2.7 2.6 1.9 2 4 3.6 5.9 5.4 1.7 1.5 3.9 3.1 5.1 5.2 0-6.4.5-13.3 1.9-19.5C33.5 6.5 38.2-1.1 43.6.1c4 .9 6.6 5.7 8.9 8.9 2.2 3.1 4.3 6 6.2 9.2 1.1 1.9 2.2 4 3.5 5.7.8-3 1.9-6 3.4-8.7 1.6-3-.4-13 14.8-13.2 3.5 0 5.9 3.4 7.3 6.5 1.4 3 2.4 6.5 2.7 9.9.1 1.4-.5 3.6.1 4.7.5-4.7 5.7-9.4 9.2-11.7 3-2 7-4.1 10.6-3.7 3.3.4 7.1 2.4 9.1 5.5 2.1 3.2 1.8 8.7.4 12.2-1.2 3-3.5 5.6-5.5 8-3.1 3.9-6.1 8.4-10.5 10.4-3.6 1.6-7.7 1.8-11.5 2.4-3.5.5-7.1 1.9-10.7 1.7m39.2-15.4c5.7-6.3 14.5-5.8 19.5.5 3.1 3.9 5.6 9 4.3 14.4-2.2 9.1-9.8 15.6-16.6 20.4-5 3.5-9.5 5.4-15.1 6.9-1.4.4-1.8-.1-2.7.8-.8-6.2-1-12.4-.9-18.6" style="fill:#c6545a"/>
    <path class="st2" d="M43.4 74.4c-14-.7-20-12.3-23.1-25.7-2-8.8-5.2-23.2 3.5-29.2 13.9-9.6 19.4 9.9 27.6 17.3.2-9.8 2.9-25.3 14.7-24 6.7.8 9.7 9.3 10.6 15.9 3.5-8.2 8.2-16.9 17.7-15.4 6.2 1 7.3 8.2 6.6 14.9 3.7-8.1 13.9-11.5 19.9-5.3 9.4 9.7 3 26.8-3.3 36.2-6.6 10-19.6 14.6-30.3 16.3-9.9 1.5-21 1.8-31 1.6-4.5-.1-11.2.7-12.9-2.6z"/>
    <path class="st2" d="M31.5 84.2C22.3 79 15.3 75.3 8.8 66 3.3 58-1 49.3.2 38.6c.6-5 2.7-7.6 7.6-7.1 5.6.6 6.4 4.9 8.9 10 2.2 4.3 5 8.1 8.7 11.7 2.2 2.1 7.4 5.1 8.2 8.1"/>
    <path class="st3" d="M70.3 136.8c0-.7 0-1.4.1-2 12.2-25 37.4-43.3 65-46.9-9.8 11.6-19.6 23.3-30.9 33.5-9.6 8.7-21.2 16.6-34.1 17.2-.1-.7-.1-1.3-.1-1.8z"/>
    <path d="M57.2 48.5c-.3.1-.7.2-1 .2-.1.1-.2.2-.3.2.6-.1 1-.2 1.3-.4zm-18.4.4c-.1-.2-.3-.3-.4-.5-.1 0-.1-.1-.2-.1-.2.3-.6.4-1 .4.5.1 1.2.2 1.8.3-.1 0-.1-.1-.2-.1z" style="fill:#7eb0dc"/>
    <path class="st5" d="M103.9 56.3c.6.2 1.2.5 1.6.7-.7-1.9 1.3-5 2.1-4.9 0 0-.7-.6-1.8-1.1-.6 2-1.3 3.8-2.2 5.2.1 0 .2.1.3.1z"/>
    <path class="st5" d="M105.6 57c.6.3 1 .6 1 .6 1.3 0 3.2.4 4.4 1.1v-.1c0-.2.1-.4.3-.6l-.2-.2c.1.1.1.1.2.1.2-.2.3-.3.5-.3v-.3c0-.3.2-.6.4-.7-.1 0-.2-.1-.2-.1.1 0 .2.1.3.1-.2-.2-.3-.4-.2-.7.1-.4.3-.7.6-.8.1-.1.2-.1.3-.1v-.2c0-.1-.1-.2-.1-.3-.7-1.4-3.6-2.2-5.2-2.4-.8 0-2.8 3.1-2.1 4.9zm2.7-3.7c.1.1.1.2.1.3 0 .1 0 .2-.1.3h-.1v-.2c0-.1 0-.1-.1-.2s-.2-.1-.3-.2c-.1 0-.1-.2 0-.2.1-.2.4 0 .5.2zm3.8 6.6.1.2v.1h.1c.1-.2.1-.4 0-.6-.1 0-.1.1-.2.1h-.1l.1.2z"/>
    <path class="st5" d="M112.4 58.3c-.3-.1-.5-.3-.6-.5-.2 0-.4.1-.5.3.2.1.4.2.6.2h.5z"/>
    <path class="st5" d="M111.9 59.6h.2c.1 0 .3-.1.4-.2.1-.1.2-.2.2-.4 0-.1.1-.2.1-.4v-.3c-.3.1-.6.1-.9 0-.2-.1-.4-.2-.5-.3l-.3.6v.1c.3.3.6.6.8.9zm1.2-1.4zm-.7-1.5v-.1h-.1z"/>
    <path class="st5" d="M112.4 58.3c.1 0 .2 0 .3-.1.3-.1.5-.3.6-.6v-.4c0-.1 0-.1-.1-.2l-.1-.1h-.3c-.2 0-.4-.1-.5-.2-.2.1-.4.4-.4.7v.3c0 .3.3.5.5.6zm.8-1.5h.1-.1zm.2-.1zm-.5.2-.1-.1zm.2 0h-.1.1zm-.3-.2c.2 0 .4 0 .6-.1.4-.3.3-.9 0-1.2-.1-.1-.2-.2-.3-.2h-.4.1c-.3.1-.5.4-.6.8 0 .3.1.5.2.7h.4zm-5.1-3.4c.1.1.2.1.3.2 0 .1.1.1.1.2v.2c0 .1.1.1.1 0 .1-.1.1-.1.1-.3 0-.1 0-.2-.1-.3-.1-.2-.4-.3-.6-.2 0 0 0 .1.1.2zm4.7 6.4v.6c.1 0 .1.1.2.1.1-.2.1-.5 0-.8l-.2.1zm.3-1.3v.3c0 .1 0 .2-.1.4 0 .1-.1.3-.2.4-.1.1-.2.1-.4.2h-.2c0 .1.1.1.1.2h.1c.1 0 .2 0 .2-.1l.1-.1h.1c.1-.1.2-.3.2-.4 0-.1.1-.3.1-.5 0-.1 0-.2-.1-.3l.1-.1z"/>
    <path class="st5" d="m113.1 56.9.1.2c0 .1.1.1.1.2v.4c-.1.3-.3.5-.6.6-.1 0-.2 0-.3.1h-.6c-.2 0-.4-.1-.6-.2-.1 0-.2-.1-.2-.1l.2.2c.1.1.3.3.5.3.3.1.6.1.9 0l.2-.1c.1 0 .2-.1.2-.2h.1c.2-.2.4-.5.3-.8 0-.1-.1-.2-.1-.3 0-.1-.1-.1-.2-.2v-.1z"/>
    <path class="st5" d="M113 55.2c-.1-.1-.2 0-.3 0h-.1.4c.2.1.2.2.3.3.3.3.4.9 0 1.2-.2.1-.4.1-.6.1h-.5c-.1 0-.2-.1-.3-.1.1.1.2.1.2.1.2.1.3.1.5.2h.6l.1-.1c.1 0 .1-.1.2-.1.2-.2.3-.5.2-.8-.1-.3-.2-.5-.5-.6h-.1l-.1-.2zm-.1-.7c.1.1.1.2.1.3v.3h.2v-.5c-.2.1-.2 0-.3-.1z"/>
    <path class="st6" d="M67.9 31.5c-.1.3-.1.6-.2.9 0 .1 0 .2-.1.2-.1.3-.1.5-.2.8v.1c.5 2.1-.3 5.3-2.2 8.3v-.1c.6-.9 5 3.3 4.4 7.3-.1 1-.5 1.8-.9 2.5.1.3.1.5.1.8 1.8.7 3.7 1.3 5.6 1.7 2.1.4 4.5.9 6.4-.6 2-1.7 2.7-5 3.3-7.4 1.3-5 1.8-10.3 3.5-15.1.1 0 .2 0 .3-.1-2.8.7-5.7 1.4-8.7 1.5-3.4.1-5.5-2.7-10.9-3.1-.1.8-.2 1.5-.4 2.3zm4.8.2c1 .3 1.8.9 2.7 1.4 1.2.6 2.5.7 3.8.7.7 0 1.7-.4 2.4-.2 2.1.6.9 1.7-.5 2.3-2.2 1-4.8 1.1-7.3.1-1-.4-1.7-1.1-2.4-1.8-.7-.6-1.4-1.3-1.2-2 .2-.7 1.5-.8 2.5-.5zm-3.6 24.4c-.8-.4-1.7-.8-2.5-1.2.8.4 1.6.8 2.5 1.2zm11.6 3.5c.2 0 .5.1.7.1-.2-.1-.5-.1-.7-.1zm-14.4-4.8c.1 0 .1.1.2.1-.1 0-.1-.1-.2-.1zm13 4.5c-.4-.1-.7-.1-1.1-.2.4.1.8.2 1.1.2zm-2.4-.5-1.2-.3 1.2.3zm3.6.7c-.3 0-.7-.1-1-.2.3.1.7.2 1 .2zm-10.2-2.9c-.4-.2-.8-.3-1.2-.5.4.2.8.4 1.2.5zm5.4 1.9c-.4-.1-.8-.2-1.2-.4.4.2.8.3 1.2.4zm-2.7-.8c-.4-.1-.8-.3-1.2-.4.4.1.8.2 1.2.4zm5.1 1.4c-.4-.1-.8-.2-1.1-.3.3.1.7.2 1.1.3zm-6.4-1.9c-.4-.1-.8-.3-1.2-.5.4.2.8.3 1.2.5zm2.6.9c-.4-.1-.8-.3-1.2-.4.4.1.8.3 1.2.4z"/>
    <path class="st7" d="m57.3 48.5.2-.1c-.1 0-.2.1-.2.1zm27.5 3.1c.8-2.3 1.5-5.2 2.2-8.5 1.7-8.4.8-12.2.8-12.2-.1 0-.2 0-.3.1-1.7 4.8-2.2 10-3.4 15-.6 2.4-1.2 5.7-3.3 7.4-1.8 1.5-4.3 1-6.4.6-1.9-.4-3.8-1-5.6-1.7 0 .2 0 .4-.2.5-.8.8-1.6 1.4-2.4 2 .1 0 .1.1.2.1h.1c.8.4 1.7.8 2.5 1.2h.1c.4.2.8.3 1.2.5l.1.1c.4.2.8.3 1.2.5.1 0 .1 0 .2.1.4.1.8.3 1.2.4.1 0 .1 0 .2.1.4.1.8.3 1.2.4h.1c.4.1.8.2 1.2.4l1.2.3h.1c.4.1.8.2 1.1.3h.1c.4.1.7.1 1.1.2h.2c.3.1.7.1 1 .2h.2c.2 0 .5.1.7.1.4-.7 1.9-3.4 3.4-8.1z"/>
    <path d="M81.3 59.8zm6.5-28.9s.8 3.8-.8 12.2c-.7 3.3-1.4 6.2-2.2 8.5-.1 4.2.9 5.2 2 5.6v-.4c0-.3.1-.5.1-.8.4-2.1 1.4-4.5 3.4-5.7.6-.4 1.4-.6 2.2-.8.2-1.2.4-2.5.7-3.9 1-4.7 1.9-13.4 1.9-13.4s1 7.8-.3 13.8c-.3 1.3-.6 2.4-.9 3.4.8 0 1.5 0 2.3.1.5-.3 1-.5 1.6-.5 4.3-.1 5.3 4.2 8.3 1.2.4-1.4.7-2.9 1-4.6 1.2-8-4.7-15.4-11.1-16.5-1.3-1.9-7.8.9-8.2 1.8zm3.4 18.5c-.4.7-4 .3-4-.1s1.1-5.5 1.7-5.9c.6-.5 3 .3 3.3.9.2.6-.6 4.4-1 5.1z" style="fill:#f3ece1"/>
    <path d="m87.6 60.3-.6-1.5c0-.1-.1-.2-.1-.3v-1.4c-1.1-.4-2.2-1.4-2-5.6-1.5 4.7-3 7.4-3.4 8.1 0 .1-.1.1-.1.1-.4.6 4.6 3.2 6.6 2.4h.9c-.6-.5-1-1.1-1.3-1.8zM97.8 49c-.6 0-1.1.2-1.6.5 1.8.2 3.5.9 4.3 1.8 2 2.7 1 4.1.7 4.6.8-.1 1.7 0 2.4.3.9-1.4 1.7-3.2 2.2-5.2.1-.3.2-.5.2-.8-2.8 3-3.9-1.3-8.2-1.2z" style="fill:#e0d9cf"/>
    <path d="M94.9 46c1.3-6 .3-13.8.3-13.8s-1 8.7-1.9 13.4c-.3 1.4-.5 2.8-.7 3.9.4-.1.9-.1 1.4-.1.3-.9.6-2.1.9-3.4z" style="fill:#d8cab8"/>
    <path d="M88.9 43.4c-.6.5-1.7 5.5-1.7 5.9 0 .4 3.5.8 4 .1.4-.7 1.2-4.6 1-5.1-.3-.6-2.7-1.3-3.3-.9z" style="fill:#d6d6d8"/>
    <path class="st12" d="M57.2 48.5c.1 0 .2 0 .2-.1 2.5-1.3 6.7-5.2 7.7-6.7 1.9-3 2.7-6.2 2.2-8.3 0 .1-.1.1-.1.2-.1.2-.2.5-.2.7 0 .1-.1.2-.1.4-.1.2-.2.4-.3.7-.1.1-.1.3-.2.4l-.3.6c-.1.1-.1.3-.2.4l-.3.6c-.1.1-.2.3-.2.4-.1.2-.3.4-.4.7-.1.1-.2.3-.3.4-.2.2-.3.5-.5.7-.1.1-.2.2-.2.4-.2.4-.5.7-.8 1.1-1.6 2.1-3.1 3.9-4.6 5.4-.8.8-1.5 1.4-2.2 2.1l-.1.1c.3 0 .6-.1.9-.2z"/>
    <path class="st6" d="M64.5 17.7c.6-.3 1-1 1.1-2 .2-2.2-.8-5.4-2.7-6.6-2.1-1.3-4.2-1.3-4.9.2-.3.7-.2 1.6.1 2.7 1.7 1.3 3.2 2.7 4.2 3.6.8.6 1.5 1.4 2.2 2.1zm-4.4-5.3c-.2-.3-.3-.6-.4-.9-.1-.3-.1-.7 0-1 .1-.4.3-.7.6-.8.3-.2.6-.2.9-.2-.6.2-1 .6-1 1.1 0 .5.2 1 .5 1.4.5.7 1.1 1.3 1.7 1.9l-.3-.9c-.1-.6-.2-1.3.2-1.8-.3.5-.2 1.2 0 1.7.2.6.5 1.1.8 1.6l.3.4-.5-.2c-.6-.2-1.1-.6-1.6-.9-.4-.4-.9-.9-1.2-1.4z"/>
    <path d="m63.4 14.9-.3-.4c-.3-.5-.6-1-.8-1.6-.2-.6-.3-1.2 0-1.7-.3.5-.3 1.2-.2 1.8l.3.9c-.6-.6-1.2-1.2-1.7-1.9-.3-.5-.5-.9-.5-1.4 0-.5.4-.9 1-1.1-.3 0-.6 0-.9.2-.3.1-.6.5-.6.8-.1.4-.1.7 0 1 .1.3.2.6.4.9.3.5.8 1 1.2 1.4.5.4 1 .7 1.6.9l.5.2z" style="fill:#d3927b"/>
    <path class="st5" d="M36.7 48.7h.5c.4 0 .8-.1 1-.4-.2-.1-.3-.2-.4-.3-.1-.2-.2-.3-.2-.5-1-1.2-1.9-2.5-3-3.9-.6-.7-1.3-1.3-2-1.8-.6.3-1.1.7-1.3 1.3l-.1.1c-.6 2.1 3.1 5.1 5.5 5.5z"/>
    <path class="st6" d="M28.9 39.2c-.3-.2-.6-.5-.9-.7.3.2.6.5.9.7zm6.6-4.8c.3.4.7.8 1 1.3.4-.4.8-.7 1.2-.8.2-.1.4.1.5.3.1.2-.1.4-.3.5-.3.1-.6.3-1 .7 1.2 1.6 2.3 3.1 3.9 4.5.2-.1.4-.2.6-.4.5-.7.3-1.3-.6-2.1-.1-.1-.1-.2 0-.3.1-.1.2-.1.3 0 1.5 1.1 1.1 2.1.7 2.6-.2.2-.3.4-.5.5.3.2.6.5 1 .7.3.2.5.3.8.5.1-.2.2-.4.3-.5 1.2-1.6 3.1-2.1 4.3-1.3 1.1.8-.5 1.6-1.7 2.9 5 1 11.2-2.5 18-11.6 1.8-2.4 3.1-4.8 3.9-7-.6-2.7-1.8-5.1-3.5-7.1-.7-.8-1.4-1.5-2.1-2.2-1-.9-2.5-2.2-4.2-3.6-2.7-2.1-6.2-4.4-9.7-5.3-8.1-2-13.4.7-18.1 6.2.3.1.5.3.7.6 2-3.4 6.1-5.1 10-5.9 1.5-.3 3-.4 4.5-.3 3.2.1 6.5 1.1 8.9 3.3 1.2 1.1 2.3 2.8 1.7 4.4-.4 1.1-1.4 1.8-2.3 2.3-.9.5-1.8.9-2.7 1.2.1 0 .1.1.1.2.1.2 0 .4-.3.5-1.9.6-3.1 2.4-3.1 3.3 0 .2-.2.4-.4.4h-.1c-.2 0-.3-.2-.3-.4 0-1.1 1-2.6 2.6-3.5-1.3.3-2.7.5-4.1.5-2 0-3.9-.3-5.8-.3-1.8-.1-3.6.1-5.4.5-1.2.3-2.7.6-3.6-.3-.5-.5-.7-1.1-.7-1.8-.5-.2-.9-.6-1.2-1-.2-.3-.3-.6-.4-.9-1.4 1.9-2.5 4-3.3 6.2.3 1.8 1 3.5 2 5.3 2 3.5 5.9 4.1 8.4 7.2zm24.9-11.1c1.2.9-.8 1.7-2 3.2-1.2 1.6-1.2 3.3-2.3 2.5-1.2-.9-1.1-2.9 0-4.4 1.2-1.6 3.1-2.1 4.3-1.3zm-3.9 14.9c-.9 1.1-1.5.5-2.5-.2-.9-.7-2.1-.7-.9-2.3.4-.6 1.5-.5 2.5.2.9.7 1.3 1.7.9 2.3zm-5.7-2.6c-.5.1-1 .1-1.5 0s-1-.4-1.2-.8c-.4-.6-.3-1.3.1-2 .1-.2.4-.2.6-.1.2.1.2.4.1.6-.3.4-.3.7-.1 1 .3.4 1 .7 1.8.5.2-.1.4.1.5.3 0 .2-.1.4-.3.5zm.5-11.3c.9.7 1.6.7 2.2 0 .5-.7.3-1.3-.6-2.1-.1-.1-.1-.2 0-.3.1-.1.2-.1.3 0 1.5 1.1 1.1 2.1.7 2.6-.3.4-.8.8-1.6.6-.3-.1-.7-.3-1-.5-.1-.1-.1-.2 0-.3-.2 0-.1 0 0 0zm-4.9 4.8c.6-.4 1.4-.5 2.2-.7.7-.2 1.5-.3 2 .2.6.5.3 1.5-.2 2s-1.3.7-1.9 1.1c-.8.5-1.3 1.3-1.6 2.1-.2.4-.1 1.4-.5 1.7-1 1.1-1.7-.3-1.8-1.5-.3-2 .3-3.8 1.8-4.9z"/>
    <path class="st6" d="M30.2 15.4c-.5.2-1 .3-1.5.1.1.3.2.5.3.7.2.3.5.6.9.8 0-.2 0-.5.1-.7 0-.3.1-.6.2-.9zM25.6 35c0-.1-.1-.2-.1-.3 0 .1 0 .2.1.3zm-.7-1.5zm2.4 4.3c-.3-.3-.5-.6-.7-.9.2.3.5.6.7.9zm3.1-23c.1-.3.2-.5.3-.8v-.2c-.1-.3-.3-.5-.7-.6L28.5 15c.5.2 1 .2 1.5-.1.2.1.3 0 .4-.1zm37.5 10.1c.1.3.1.6.2.9-.1-.3-.1-.6-.2-.9zm-43.4 7.3c0-.1-.1-.2-.1-.3.1.1.1.2.1.3zm13.9 16.2c.1.2.3.3.4.5-.1-.2-.2-.3-.4-.5zm29.5-17 .3-2.1c.1-1.2 0-2.4-.1-3.5.3 1.7.2 3.6-.2 5.6zm0 .1c-.1.3-.1.6-.2.9.1-.3.1-.6.2-.9zm-.5 1.9c.1-.3.2-.5.2-.8 0 .3-.1.5-.2.8zm-1.8 4.1.3-.6c-.1.1-.2.4-.3.6zm1.5-3.1c.1-.2.2-.5.2-.7-.1.2-.2.4-.2.7zm-.5 1c.1-.2.2-.4.3-.7-.1.2-.2.5-.3.7zm-.4 1 .3-.6-.3.6zm-3 4.7c.3-.4.5-.7.8-1.1-.2.4-.5.8-.8 1.1zm1.1-1.4c.2-.2.3-.5.5-.7-.2.2-.4.5-.5.7zm.7-1.1c.1-.2.3-.4.4-.7-.2.2-.3.4-.4.7zm-30.3 5c1.1 1.4 2 2.7 3 3.9-1.1-1.3-1.9-2.6-3-3.9-1.5-1.8-3.5-2.8-5.3-4.1 1.1.8 2.3 1.4 3.3 2.2.7.6 1.4 1.2 2 1.9z"/>
    <path class="st7" d="M39 49.1c.5.1.8.1.8.1s-.8-.4-1.4-.8c.1.2.3.3.4.5.1 0 .1.1.2.2zm-4.3-5.5c1.1 1.4 2 2.7 3 3.9-.1-.5.2-.9.6-.7 1.7.7 3.2 1.1 3.2 1.1s-.5-.8-.7-1.2c-.3-.7.3-1.4 1.1-.9 1 .5 4.2 3.9 4.2 3.9 1.7 0 6.8 0 9.9-.7.1-.1.2-.2.3-.2l.1-.1c.7-.6 1.5-1.3 2.2-2.1 1.5-1.5 3.1-3.3 4.6-5.4.3-.4.5-.7.8-1.1.1-.1.2-.2.2-.4.2-.2.3-.5.5-.7.1-.1.2-.3.3-.4.1-.2.3-.4.4-.7.1-.1.2-.3.2-.4l.3-.6c.1-.1.1-.3.2-.4l.3-.6c.1-.1.1-.3.2-.4.1-.2.2-.4.3-.7 0-.1.1-.2.1-.4.1-.2.2-.5.2-.7 0-.1.1-.1.1-.2v-.1c.1-.3.2-.5.2-.8 0-.1 0-.2.1-.2.1-.3.1-.6.2-.9v-.1c.4-2 .4-3.9.2-5.7 0-.3-.1-.6-.2-.9-.8 2.2-2.1 4.6-3.9 7-6.8 9-13 12.6-18.3 11.5l-.3.3c-1.2 1.6-1.2 3.3-2.3 2.5-1-.8-1.1-2.4-.3-3.9-.3-.2-.5-.3-.8-.5-.3-.2-.7-.5-1-.7-.2.1-.4.2-.6.2-.2 0-.4 0-.5-.1-.3-.1-.7-.3-1.1-.5-.1-.1-.1-.2 0-.3.1-.1.2-.1.3 0 .5.4 1 .6 1.3.5.1 0 .2 0 .3-.1-1.6-1.4-2.7-2.9-3.9-4.5-.7.7-1.3 1.9-1.3 3.2 0 .2-.2.4-.4.4h-.1c-.2 0-.3-.2-.3-.4.1-1.6.8-3 1.6-3.9-.3-.4-.6-.8-1-1.3-2.5-3-6.4-3.7-8.5-7.4-1-1.7-1.6-3.5-2-5.3-.1.2-.1.4-.2.6 0 .1-.1.3-.1.4-.1.3-.2.6-.2.9 0 .1-.1.3-.1.4-.1.3-.1.6-.2 1 0 .1 0 .2-.1.3 0 .3-.1.7-.1 1v1.7c0 .4 0 .7.1 1.1v.4c0 .4.1.8.2 1.2v.1l.3 1.2c0 .1.1.2.1.3.1.4.2.8.4 1.2.1.4.3.8.5 1.2 0 .1.1.2.1.3L26 36c.1.2.3.5.4.7.2.3.5.6.7.9l.7.7c.3.2.6.5.9.7.1.1.3.2.4.3 2.1 1.5 4.1 2.5 5.6 4.3z"/>
    <path class="st14" d="M51 24.6c.4.3.7.5 1 .5.8.2 1.4-.2 1.6-.6.4-.5.8-1.5-.7-2.6-.1-.1-.2 0-.3 0-.1.1 0 .2 0 .3.9.7 1.1 1.4.6 2.1-.5.7-1.2.7-2.2 0-.1-.1-.2 0-.3 0 .2.2.2.3.3.3zm-9.4 16c.4-.5.8-1.5-.7-2.6-.1-.1-.2 0-.3 0-.1.1 0 .2 0 .3.9.7 1.1 1.4.6 2.1-.2.2-.4.4-.6.4-.1 0-.2.1-.3.1-.4 0-.8-.1-1.3-.5-.1-.1-.2 0-.3 0-.1.1 0 .2 0 .3.4.3.7.5 1.1.5.2 0 .4.1.5.1.2 0 .4-.1.6-.2.4-.2.6-.3.7-.5z"/>
    <path d="M56.1 29c1.2.9 1.1-.9 2.3-2.5 1.2-1.6 3.1-2.4 2-3.2-1.2-.9-3.1-.3-4.3 1.3-1.2 1.6-1.2 3.5 0 4.4zm-8.7 11.5c-1.2-.9-3.1-.3-4.3 1.3-.1.2-.2.3-.3.5-.8 1.5-.7 3.1.3 3.9 1.2.9 1.1-.9 2.3-2.5l.3-.3c1.2-1.4 2.8-2.1 1.7-2.9z" style="fill:#f7a592"/>
    <path class="st5" d="M37.9 35.6c.2-.1.3-.3.3-.5-.1-.2-.3-.3-.5-.3-.4.1-.8.4-1.2.8-.9.9-1.6 2.3-1.6 3.9 0 .2.1.4.3.4h.1c.2 0 .4-.2.4-.4 0-1.3.7-2.5 1.3-3.2.3-.4.6-.6.9-.7z"/>
    <path class="st12" d="M50.6 34.8c-.8.2-1.5-.1-1.8-.5-.2-.3-.2-.7.1-1 .1-.2.1-.4-.1-.6-.2-.1-.4-.1-.6.1-.5.6-.5 1.4-.1 2 .3.4.7.7 1.2.8.4.1 1 .1 1.5 0 .2-.1.3-.3.3-.5-.1-.2-.3-.4-.5-.3z"/>
    <path class="st16" d="M46.4 35.5c.3-.3.3-1.2.5-1.7.3-.9.9-1.6 1.6-2.1.6-.4 1.3-.6 1.9-1.1.5-.5.7-1.4.2-2-.5-.5-1.3-.4-2-.2s-1.6.3-2.2.7c-1.5 1.1-2.1 2.9-1.9 4.8.2 1.3.9 2.6 1.9 1.6zM30.7 14c-.1.2-.2.5-.3.8.2-.2.4-.5.3-.8z"/>
    <path class="st16" d="M31.1 13.8c.2.7-.3 1.3-.9 1.6-.1.3-.2.6-.2.9 0 .2-.1.5-.1.7.2.1.5.2.7.3.1 0 .2.1.1.2 0 .1-.1.2-.2.1-.2-.1-.4-.1-.6-.2 0 .7.2 1.4.7 1.8.9.8 2.4.5 3.6.3 1.8-.4 3.6-.5 5.4-.5 2 .1 3.9.4 5.8.3 1.4 0 2.7-.2 4.1-.5.4-.2.7-.4 1.1-.5.1 0 .3 0 .4.1.9-.3 1.8-.7 2.7-1.2 1-.5 2-1.2 2.3-2.3.6-1.6-.5-3.3-1.7-4.4-2.4-2.2-5.7-3.1-8.9-3.3-1.5-.1-3 .1-4.5.3-3.8.7-8 2.5-10 5.9.1.2.2.3.2.4z"/>
    <path class="st14" d="M29.9 17.5c.2.1.4.2.6.2.1 0 .2 0 .2-.1s0-.2-.1-.2c-.3-.1-.5-.2-.7-.3-.4-.2-.7-.5-.9-.8-.1-.2-.2-.4-.3-.7.5.1 1 .1 1.5-.1.6-.3 1.1-.9.9-1.6 0-.1-.1-.2-.1-.2-.1-.3-.4-.5-.7-.6-.2-.1-.4-.1-.6-.1-.5.1-1.1.4-1.3 1-.2.3-.2.7-.2 1.1-.4-.2-.7-.5-.9-.8-.7-1-.6-2.3-.5-3.2 0-.1-.1-.2-.2-.2s-.2.1-.2.2c-.2 1.4 0 2.6.5 3.5.3.5.8.9 1.3 1.1v.2c.1.3.2.6.4.9.3.1.8.5 1.3.7zm-1.3-2.4c0-.4 0-.8.2-1.1.2-.4.6-.7 1-.8h.3c.3.1.6.3.7.6v.2c0 .3-.1.6-.3.8-.1.1-.2.2-.4.3-.5.2-1 .2-1.5 0zm27 20.8c-.9-.7-2-.8-2.5-.2-1.2 1.6 0 1.6.9 2.3.9.7 1.6 1.4 2.5.2.4-.6 0-1.6-.9-2.3z"/>
    <path class="st5" d="M50.7 18.4c-.4.1-.8.3-1.1.5-1.6 1-2.6 2.5-2.6 3.6 0 .2.1.3.3.4h.1c.2 0 .4-.2.4-.4 0-.9 1.2-2.7 3.1-3.3.2-.1.3-.3.3-.5 0-.1-.1-.1-.1-.2-.1-.1-.3-.1-.4-.1z"/>
    <path class="st6" d="M47 55.2c.5.1 6.7 1.5 9.3.8 8.5-2.5 11-7.6 11-7.6s1 1.8 1.4 3.2c.5-.7.8-1.6.9-2.5.5-4-3.8-8.2-4.4-7.3v.1c-1 1.4-5.2 5.4-7.7 6.7l-.2.1c-.4.2-.8.3-1.3.4-3 .7-8.2.8-9.9.7l-.5 4.7c.9.6 2 1.1 3.2 1.5-.7-.3-1.3-.6-1.8-.8z"/>
    <path class="st7" d="M68.7 52.8c.1-.1.1-.3.2-.5 0-.2 0-.5-.1-.8-.4-1.3-1.4-3.2-1.4-3.2s-2.5 5.1-11 7.6c-2.6.7-8.8-.7-9.2-.8.5.2 1.1.5 1.8.7 4 1.5 11.2 3.2 17.5-1.1.6-.5 1.4-1.1 2.2-1.9zm-21.6 2.4z"/>
    <path class="st6" d="M46.1 49.7s-3.2-3.4-4.2-3.9c-.9-.5-1.4.3-1.1.9.2.4.7 1.2.7 1.2s-1.5-.4-3.2-1.1c-.4-.2-.7.2-.6.7 0 .2.1.3.2.5.1.1.2.2.4.3.1 0 .1.1.2.1.6.4 1.4.8 1.4.8s-.3-.1-.8-.1c-.6-.1-1.3-.2-1.8-.3h-.5c-.5.1-.8.7-.2 1.1.8.5 2.9 1.2 2.9 1.2s-2.3-.2-3.2-.2c-.6 0-.8.9.3 1.4.7.3 3 .6 3 .6s-1.6.4-2.2.6c-.6.2-.3 1 .6 1.1.3 0 2 0 2.5.2.8.2 2.6.7 5.2-.3l.4-4.8zm56.5 13.9c-.2 0-.3 0-.5.1.2 0 .4-.1.5-.1zm.9-.1h-.5c.2.1.4.1.5 0zm3.1-5.9s-.4-.3-1-.6c-.4-.2-1-.5-1.7-.7-1.3.1-2.7 0-4 .3-1.4.2-2.6.6-3.9 1.2v-.1c1.5-.9 3.3-1.6 5.2-1.8.3-.5 1.3-1.9-.7-4.6-.7-1-2.4-1.6-4.3-1.8-.7-.1-1.5-.1-2.3-.1-.5 0-.9.1-1.4.1-.9.2-1.7.4-2.2.8-2 1.2-3 3.6-3.4 5.7 1.3 3 3.7 5.3 6.9 6.5 2.4 1 4.6.6 7.2.5 1.2-.1 2.2.2 3.2.5h-.3c.5 0 1.1-.1 1.6 0-2.3-1.3.1-5.9 1.1-5.9zM94 61.9c0 .1-.1.1-.2.1s-.2.1-.3.1h-.6c-.1 0-.2-.2 0-.3h.1l.1-.1c.1 0 .2-.1.2-.1.1 0 .2-.1.2-.1h.2c.4.2.4.3.3.4zm-6.4-1.6c.3.7.7 1.3 1.2 1.9.7.8 1.5 1.4 2.6 1.8-2-.7-3.1-2.2-3.8-3.7zm11.5 3.8H99h.1zm-2.5.4h-.3.3zm-.9 0h-.4.4zm-3.3-.2c-.1 0-.2 0-.3-.1.1.1.2.1.3.1zm8.5-.4c-.1 0-.3 0-.4.1.1-.1.2-.1.4-.1zm-2.6.4H98h.3zm-.9.1h-.3.3zm-2.5.1h-.4.4zm-1.7-.1h-.3.3zm.9.1h-.3.3zm7.7-.8c-.2 0-.3 0-.5.1.1 0 .3 0 .5-.1z"/>
    <path class="st6" d="M86.9 56.8c0-.3.1-.5.1-.8-.1.3-.1.5-.1.8zm0 .1v.3-.3zm0 1.1v.1-.1zm-.1-.7v.3-.3zm.1 1.1v.1-.1z"/>
    <path class="st7" d="M101 63c-2.5.1-4.7.5-7.2-.5-3.1-1.2-5.6-3.5-6.8-6.5 0 .3-.1.5-.1.8v1.8c0 .1 0 .2.1.3.1.5.3 1 .6 1.5.7 1.5 1.9 3 3.8 3.7.3.1.5.2.8.2.1 0 .2 0 .3.1.2 0 .4.1.5.1h.3c.2 0 .3 0 .5.1h2.9c.2 0 .3 0 .5-.1h.3c.2 0 .4 0 .6-.1h.3c.2 0 .5-.1.7-.1h.1c.4-.1.9-.1 1.3-.2.1 0 .3 0 .4-.1.1 0 .2 0 .4-.1.2 0 .3 0 .5-.1h.4c.2 0 .3 0 .5-.1h1.6c-1.1-.6-2.1-.8-3.3-.7zm-7.4-.2-.2.1h-.1c-.1 0-.2 0-.2.1h-.3c-.1 0-.2 0-.2-.1v-.1c.1 0 .1 0 .2-.1.1 0 .1-.1.2-.1s.1 0 .2-.1h.3c.1.1.2.2.1.3z"/>
    <path class="st6" d="M109.7 64.9c0-.1.1-.2.1-.3l.1-.1c.1-.2.2-.3.4-.4V64c0-.2.1-.4.2-.6l-.2-.2c.1 0 .1.1.2.1.1-.2.3-.3.5-.3 0-.1-.1-.2 0-.3 0-.3.2-.6.4-.7-.1 0-.2-.1-.2-.1.1 0 .2.1.3.1-.2-.1-.3-.4-.3-.7 0-.4.2-.7.5-.8.1-.1.2-.1.3-.1v-.2c0-.1-.1-.2-.1-.3-.2-.3-.5-.6-.9-.9-1.2-.8-3.2-1.1-4.4-1.1-.9 0-3.4 4.6-1 5.9 1.2.7 2 2.3 2.8 3 .1-1.2.6-1.8 1.3-1.9zm-2.4-5.9c0 .1 0 .2-.1.3h-.1v-.2c0-.1 0-.1-.1-.2s-.2-.1-.3-.1c-.1 0-.1-.2 0-.2.2-.1.5 0 .6.2v.2z"/>
    <path class="st6" d="M110.2 66.1c-.3-.2-.4-.4-.5-.7l-.1-.2v-.4c-.7.1-1.2.8-1.3 1.6-.1 1 .7 1.6 1.5 1.7.8.1 1.4-.4 1.5-1.4v-.5c-.2.1-.4.1-.6.1-.2.1-.3 0-.5-.2zm.1-2.1c-.2.1-.3.2-.4.4.2.2.4.3.7.4h.3c-.4 0-.6-.3-.6-.8z"/>
    <path class="st6" d="M109.7 64.9v.4c.1.1.1.2.3.3l.3.3c.2.2.5.2.8.2.3 0 .5-.2.7-.4.1-.2.1-.6.1-.8-.1 0-.1.1-.2.1-.6.2-1.4.2-1.7-.4-.2 0-.3.2-.3.3zm.5 1.2-.1-.1-.3-.3c0-.1-.1-.2-.1-.3 0 .3.2.6.5.7z"/>
    <path class="st6" d="M110.3 64c0 .5.3.8.6.9.2 0 .4 0 .5-.1.1 0 .3-.1.3-.2.1-.1.2-.3.2-.4v-.7c-.3.1-.6.1-.9.1-.2 0-.4-.1-.5-.3-.1.2-.2.4-.2.7zm.8-1.1c-.2 0-.4.2-.5.3.2.1.4.1.6.2h.6c-.4 0-.6-.2-.7-.5zm1.3.4z"/>
    <path class="st6" d="M111 62.6v.3c.1.3.4.4.6.5.1 0 .2 0 .2-.1.3-.1.5-.3.5-.6v-.4c0-.1 0-.1-.1-.2l-.1-.1h-.2c-.2 0-.4-.1-.6-.1-.1.1-.3.4-.3.7zm.5-.8h.1-.1zm.9.2v-.1.1zm.2-.2zm-1.4-.7c0 .3.1.5.3.7h.4c.2 0 .4 0 .6-.1.3-.3.3-.9-.1-1.1-.1-.1-.2-.2-.3-.2h-.4.1c-.3.1-.5.4-.6.7zm.9.9h-.1zm.2 0h-.1.1z"/>
    <path class="st12" d="M106.6 58.5c-.1 0-.1.2 0 .2.1.1.2 0 .3.1.1.2.1.2.1.3v.2c0 .1.1.1.1 0 .1-.1.1-.1.1-.3 0-.1-.1-.2-.1-.3 0-.2-.3-.3-.5-.2zm-13.1 4.1h-.3c-.1 0-.1 0-.2.1-.1 0-.1.1-.2.1s-.1 0-.2.1v.1c.1 0 .2 0 .2.1h.3c.1 0 .2 0 .2-.1h.2l.1-.1c.1-.2 0-.3-.1-.3zm.6-.7c.1-.1 0-.2-.1-.2h-.2c-.1 0-.2.1-.2.1-.1 0-.2.1-.2.1l-.1.1h-.1c-.1 0-.1.2 0 .3h.6c.1 0 .2 0 .3-.1-.2-.2-.1-.2 0-.3zm17.7 3c.1.3.1.6-.1.8-.1.2-.4.4-.7.4-.3 0-.6-.1-.8-.2l-.3-.3-.3-.3.1.2c0 .1.1.2.1.3.1.1.2.3.3.3l.1.1c.2.1.4.2.6.2.2 0 .4 0 .6-.1l.1-.1c.2-.1.4-.3.4-.6.1-.3.1-.6 0-.9l-.1.2z"/>
    <path class="st12" d="M111.9 63.6v.7c0 .1-.1.3-.2.4-.1.1-.2.1-.3.2-.2.1-.4.1-.5.1h-.3c-.2-.1-.5-.2-.7-.4l-.1.1c.3.6 1.1.6 1.7.4.1 0 .1-.1.2-.1l.1-.1c.1-.1.2-.3.2-.5s.1-.3.1-.5c0-.1 0-.2-.1-.3h-.1z"/>
    <path class="st12" d="m112.3 62 .1.2c0 .1.1.1.1.2v.4c0 .3-.3.5-.5.6-.1 0-.2 0-.2.1-.2 0-.4.1-.6 0-.2 0-.4-.1-.6-.2-.1 0-.1-.1-.2-.1l.2.2c.2.1.3.2.5.3.3.1.6 0 .9-.1l.2-.1c.1 0 .2-.1.2-.2h.1c.2-.2.3-.5.3-.8 0-.1-.1-.2-.1-.3 0-.1-.1-.1-.2-.2h-.2zm.1-1.7h-.3v-.1c-.1 0-.2 0-.3.1h-.1c.1-.1.2-.1.4 0 .1 0 .2.1.3.2.3.3.4.9.1 1.1-.2.1-.4.2-.6.1h-.4c-.1 0-.2 0-.3-.1.1 0 .2.1.2.1.2.1.4.1.6.1h.6l.1-.1c.1 0 .1-.1.2-.1.2-.2.2-.5.1-.8-.1-.2-.2-.4-.3-.5-.2.1-.3 0-.3 0zM111.9 59.6c0 .1.1.2.1.3v.3h.2v-.1l-.1-.2v-.3c-.1.2-.1.1-.2 0zM96 57.7c1.3-.5 2.6-.9 3.9-1.1 1.3-.2 2.6-.2 4-.3v-.1c-.1 0-.2-.1-.3-.1-.8-.2-1.6-.3-2.4-.3-1.8.3-3.7 1-5.2 1.9z"/>
    <path class="st16" d="M71.3 34.3c.8.6 1.5 1.4 2.4 1.8 2.4 1 5 .9 7.3-.1 1.4-.6 2.6-1.8.5-2.3-.7-.2-1.7.2-2.4.2-1.3 0-2.6-.2-3.8-.7-.9-.4-1.7-1-2.7-1.4-1-.3-2.3-.2-2.5.6-.2.6.5 1.3 1.2 1.9z"/>
    <path class="st17" d="M78.9 79.3c-.7-5.3-6.5-12.6-10.5-15.8-7.2-5.7-18-9.9-26.5-12.7-7.9-2.7-23.7-5.6-27.9 4.6-3.9 9.4 1.2 23.3 8.1 29.3 9.6 8.4 19.6 8.5 31.6 8.6 5.8 0 12.9-1.1 18-4.3 4.3-2.6 2.8-8.8 7.2-9.7z"/>
    <path class="st17" d="M68.3 76.6c.9-5.3 6.9-12.4 11.1-15.4 7.4-5.4 18.4-9.3 26.9-11.8 8-2.4 23.9-4.7 27.7 5.6 3.5 9.6-2 23.2-9.1 29-9.9 8-19.8 7.8-31.9 7.5-5.8-.2-12.9-1.5-17.9-4.9-4.1-2.8-2.5-9-6.8-10z"/>
    <path class="st3" d="M65.7 121v3c-3.6 1-7.5.7-11-.4-4.5-1.4-8.5-3.8-12.3-6.5-14.6-9.9-27.7-22-38.8-35.7 12.8 2.4 25.8 4.9 37.4 10.8 11.5 6 21.7 16.1 24.5 28.7 0 .1.1.1.2.1z"/>
</svg>
