<svg xmlns="http://www.w3.org/2000/svg" width="266.2" height="447.8" style="overflow:visible;enable-background:new 0 0 266.2 447.8" xml:space="preserve">
    <path d="M111.3 221.3c-5.8 13.1-23.7 19.6-35.9 12-12.1-7.6-13.4-28.1-1.6-36.1-7.6 9.3-20.4 14.1-32.2 12-11.8-2.1-22.3-10.9-26.2-22.3-2.2-6.4-2-14.5 3.4-18.6-1.8 4.7-9.2 2.8-12.5-1-6.1-7.1-7.4-17.4-5.3-26.5 2.1-9.1 7-17.3 12.2-25.1 3-4.6 6.4-9.2 11.2-11.8 4.8-2.6 11.6-2.5 15.1 1.7-10.3-11.8-4.1-30.8 6.5-42.4 5.5-6 12.4-11.2 20.4-12.4 8-1.3 17.2 2.4 20.3 9.8-3-15.7 1-32.9 11.5-45C108.6 3.7 125.8-2.6 141.4 1c15.6 3.5 28.7 17.3 30.3 33.2 5.2-10.3 19.5-14.7 29.5-9 10 5.7 13.6 20.3 7.4 30 8.9.9 18.1 1.9 25.7 6.6 7.6 4.7 13.1 14.2 10.1 22.6-.9 2.5-2.4 5.1-1.6 7.7.6 1.9 2.4 3.1 3.9 4.3 13.6 10.6 16.9 32.2 7.1 46.3 8.4 7.2 13.1 18.7 12 29.8-1.1 11.1-7.8 21.4-17.4 26.9-3.2 1.8-8.2 2.5-9.6-.8 2-2.3 6.2.1 6.5 3.1.3 3-1.7 5.7-3.8 7.9-12 12.4-30.1 18.7-47.2 16.5-2.4-.3-5.2-1.1-6-3.4-.8-2.3 2.9-4.8 3.9-2.7-5.6 14-25.8 19.6-37.8 10.4.3.8.4 1.7.2 2.6-.8 5.2-6.7 8.1-11.6 6.1l-4.8-1.9c-.4 6.4-7.8 11.4-13.9 9.2-6.1-2.1-8.9-10.6-5.2-15.9l-7.8-9.2z" style="fill:#53b75e"/>
    <path d="M120.2 447.8c-1.3-61.5 4.4-201.3 4.4-201.3S83.1 163 70.1 130.6c1.1-1.4 2.9-2.2 4.6-2 4.5 17.9 11.7 29.3 20.4 45.6-1.1-20.1-2.6-34.4-3.7-54.6l6.6-.6c-2.8 36.5 10.4 71 31.7 100.8 3.4-39.6 7.4-116 7.4-116l5.1-5 1.2 60.5c6-13.1 12-26.3 17.9-39.4 2.3 2.6 4.6 5.2 6.8 7.8-18.6 25.6-26.5 58.7-21.5 90 25.2-32.4 69.1-101.9 69.1-101.9l6.2 8.9s-24.6 38.2-37 57.4c12.4 0 24.7.1 37.1.1-.4 2.7-.7 5.5-1.1 8.2-10.2-.4-40.8-.1-40.8-.1s-22.4 27.3-30.2 37.7c-2.4 3.2-4.8 6.4-6.3 10.1-2 5-2.4 15.9-2.4 15.9s-3.7 128.4-5.5 192.5c-6.6-1.2-9.1-2.4-15.7-3.6v4.9z" style="fill:#b7782f"/>
    <path d="M140.4 39.7c2.4-1.3 2.7-4.4 1.8-6.7-.5-1.2-1.3-2.3-2.4-3.1-1.4-1-3.2-1.4-4.9-1.5-3.5-.1-7 1-10.1 2.3-3.1 1.2-6 2.8-8.7 4.7-5.2 3.7-9.5 8.8-11.6 14.9-1.9 5.5-1.5 11.6.9 16.9 2.3 5.1 6.4 9.4 11.8 11 .7.2 1.3.3 2 .5.3 0 .6-.1.6-.4-.7-6.6-8.4-7.9-13.7-7.6-3.4.2-6.8 1.2-10 2.3-3.6 1.2-7.2 2.6-10.5 4.5C79 81 73.2 86.1 70.3 93c-2.5 5.8-1.6 12.7 1.4 18.2 2.8 5.1 7.9 9.5 14 9.3.7 0 1.5-.1 2.2-.2.6-.1.3-1-.2-.9-2.8.5-5.6.1-8.1-1.3-2.5-1.3-4.5-3.4-6.1-5.7-3.3-5-4.6-11.4-3-17.2.9-3.2 2.8-6.3 5-8.8 2.3-2.7 5.1-4.9 8-6.8 3.1-2 6.5-3.5 9.9-4.8 1.7-.6 3.4-1.2 5.2-1.7 1.6-.5 3.2-.9 4.8-1.2 2.9-.5 6-.6 8.9.1 2.5.6 5.1 1.9 6.1 4.3.2.6.4 1.2.5 1.9.2-.1.4-.3.6-.4-5.3-.9-9.6-4.4-12.2-9-2.7-4.7-3.8-10.4-2.7-15.7 1.2-5.9 4.9-11.1 9.4-15 4.7-4 10.6-7 16.7-8.4 3-.7 6.9-.9 9.3 1.4 1.6 1.6 2.4 4.5 1.2 6.6-.3.5-.7.8-1.2 1.1-.6.4-.2 1.2.4.9zm29.8 23.7c.4-3.7 4.8-4.5 7.8-3.8 1.7.4 3.4 1.3 4.5 2.8 1.6 2.2 2 5.2 1.8 7.9-.3 3.4-1.4 6.8-2.6 10-.2.5.4.7.8.4 3.4-2.9 7.7-4.8 12.2-5.2 4.3-.4 8.7.6 12.1 3.3 3.2 2.5 5.6 6.2 6 10.3.2 1.9 0 3.9-.7 5.7-.7 1.7-1.8 3.3-3.2 4.5-2.7 2.4-6.5 3.8-10.1 3-.5-.1-.9-.2-1.3-.4-.5-.2-.8.7-.2.9 3.7 1.4 8 .5 11.1-1.8 3.3-2.4 5.5-6.1 5.5-10.2.1-4.3-2-8.5-5.1-11.5-3.3-3.1-7.7-4.7-12.2-4.7-4.7 0-9.4 1.8-13.2 4.5-.5.3-.9.7-1.4 1.1.3.1.5.3.8.4 1.1-3.1 2.2-6.2 2.6-9.5.3-3 0-6.2-1.6-8.8-2.1-3.3-6.9-4.6-10.6-3.3-2 .7-3.4 2.3-3.6 4.5-.4.5.5.5.6-.1z" style="fill:#0e8e1e"/>
</svg>
