<svg xmlns="http://www.w3.org/2000/svg" width="269.4" height="485.3" style="overflow:visible;enable-background:new 0 0 269.4 485.3" xml:space="preserve">
    <style>
        .st0{fill:#006838}.st1{fill:#009444}.st2{fill:#d38531}.st3{fill:#89c763}.st4{fill:#5b341a}.st5{fill:#8c7754}
    </style>
    <path class="st0" d="M90.4 239.8c-4.7-7.7-9.5-16.5-7.1-25.2 1.3-4.6 4.6-8.7 5.2-13.4.6-4.1-.9-8.6 1-12.4.5-1 1.4-2 2.5-2.3 2.2-.4 3.8 2.1 4.6 4.3 2.5 6.3 4.9 12.6 6 19.3 1.1 6.7.6 13.8-2.5 19.7-2.5 4.7-7 8.7-12.3 8.8l2.6 1.2z"/>
    <path class="st1" d="M160 225.7c-3.2-4.1-7.2-7.7-11.6-10.5-4-2.5-8.6-4.6-11.2-8.6-2.6-4-2.6-9.1-3-13.9-.3-4.6-.9-9.4.2-13.9s4.6-8.8 9.2-9.3c3.7-.4 7.3 1.9 9.6 4.9s3.5 6.6 4.6 10.2c2.4 7.6 4.9 15.3 4.7 23.3-.2 5.6 2.3 15.2-2.5 17.8zM53.5 191.2c-6.6-3.9-12.3-9.2-16.8-15.4-2.5-3.4-4.7-7.5-4.3-11.7.2-1.7.8-3.4 1-5.2.8-7.2-5.3-13.2-7.7-20.1-1.8-5.2-1.3-11.2 1.3-16 1.4-2.5 3.5-5 6.4-5.4 3.3-.4 6.2 1.8 8.6 4.2 9.3 9.4 15 21.7 19.4 34.1 1 2.9 2 5.8 2.5 8.9 1.7 9.9-2 20.5-9.4 27.3l-1-.7zm49.3-68.5c-1.6-6.4-3.1-12.7-4.7-19.1-.8-3.4-1.7-7.1-.4-10.3 1.3-3.3 4.4-5.6 6.4-8.5 3.2-4.7 3.3-10.7 4.7-16.2 1.5-6.1 4.5-11.8 8.7-16.4 3.7-4 9-7.4 14.3-6.1 5.8 1.4 8.9 7.7 9.9 13.6 2 11.7-1.9 24.3-10.1 33-2.2 2.3-4.8 4.4-6.7 7-3.5 4.6-5 10.6-8.4 15.3-3.4 4.7-10.5 7.8-15 4.1l1.3 3.6z"/>
    <path class="st0" d="M95.7 168.7c-5.7-3.4-13.2-4.1-17.5-9.1-5.1-5.9-3.5-15.3-7.4-22.1-2-3.5-5.3-6.2-6.7-10-1.7-4.6 0-9.8-.6-14.7-.3-3.2-1.6-6.3-2.3-9.4-1.6-7.6.5-15.9 5.6-21.8.6-.6 1.2-1.3 1.9-1.6 1.2-.5 2.5-.2 3.7.2 8 2.1 16.8 4.9 20.8 12.1 2.3 4.1 2.6 9 4.6 13.3 2.1 4.5 5.9 8.3 7.1 13.1 1.5 5.9-1.3 12-1.6 18.1-.2 4.5.9 8.9 1.6 13.3.6 4.4.6 9.2-1.6 13.1-2.3 3.9-7.4 6.3-11.4 4.3-.9-.5-1.8-1.6-1.1-2.4l4.9 3.6z"/>
    <path class="st1" d="M106.1 186.8c-3.4-12.9-8.8-25.3-16.1-36.5-2.1-3.3-4.8-6.7-8.6-7.3-1.6-.3-3.2 0-4.8.2-2.9.5-5.7.9-8.6 1.4-1 .2-2 .3-2.8.9-1.6 1.1-2 3.3-2.1 5.3-.5 6.4-.6 12.7-.3 19.1.3 6.2 1 12.8 5.2 17.4 3 3.3 7.3 5.1 10.5 8.2 2.3 2.2 4 5.1 6.8 6.8 5.3 3.1 12.2.1 17.1-3.6 2.1-1.6 4.1-3.4 5-5.9.9-2.4.3-5.6-1.9-6.9l.6.9zm12.2-18.5c7.1-7.3 5.8-19.1 3-28.8-.9-2.9-1.8-5.9-2.1-8.9-.7-6.7 1.9-13.4 6-18.8 4-5.4 9.4-9.7 14.9-13.6 1.7-1.2 3.6-2.5 5.7-2.6 1.9-.1 3.7.7 5.5 1.6 3.1 1.5 6.3 3 9.4 4.5 1.5.7 3 1.5 4 2.7 2.1 2.7 1.1 6.6.1 9.9-2.4 7.4-4.8 14.9-7.2 22.3-2.3 7-4.6 14.1-8.6 20.3-4 6.2-10 11.5-17.2 13-5.1 1.1-10.8.1-14.4-3.7l.9 2.1z"/>
    <path class="st2" d="M108 483.9c-2.1-50.3 3.6-212 1.2-258.6l10 6.5-4 252c0 2.2-7.1 1.8-7.2.1z"/>
    <path class="st2" d="M116.6 300.6c13.9-8.1 29.1-14 43.5-21.3 14.4-7.3 28.4-16.2 38.3-28.9-4.7 9.2-11.6 17.3-19.9 23.4 5.1-1.1 10.3-2 15.6-2.6-1.6 3.6-6.5 3.8-10.4 4-25.6 1.4-45.9 22.3-70.4 29.8.3-1.2.6-2.3.9-3.5l2.4-.9z"/>
    <path class="st3" d="m187.8 272.1 18-10.8c2.5-1.5 5-3 7.9-3.8 10-2.7 19.7 4.7 29.9 7.1 7.9 1.8 17.3 1.1 22.5 7.3 3.1 3.7 3.6 8.9 3.3 13.8-.1 1.8-.4 3.6-1.4 5.1-2.2 3.1-6.9 3-10.6 1.7-3.6-1.3-7.2-3.3-11-2.8-3.2.4-5.9 2.5-8.9 3.8-10.2 4.4-21.6-1.2-31.2-6.8-5.1-2.9-10.2-5.9-15.3-8.8-2.3-1.3-4.9-3.9-3.4-6.1l.2.3zm4.3-14.7c-2.2-9.1-4.1-19.8 2-26.9 4.5-5.3 11.9-6.8 17.6-10.7 6.1-4.2 9.8-11.1 15.3-16 6.6-5.9 15.9-8.8 24.7-7.7 1.9.2 3.9.7 5 2.2.9 1.1 1.1 2.6 1.3 4 .7 4.6 1.3 9.1 2 13.7.9 6.3 1.6 13.5-2.5 18.4-5.3 6.4-15.2 5.3-22.8 8.5-4.6 1.9-8.3 5.3-12.5 8-8.6 5.4-19.2 7.5-29.2 5.6l-.9.9z"/>
    <path class="st2" d="M70.2 253c13.5 16 28.5 30.7 44.6 44-.6 1.1-1.2 2.2-1.7 3.2C94 289.7 78 273.4 67.9 254c.8-.3 1.6-.7 2.3-1z"/>
    <path class="st0" d="M71.9 254.6c.2 5.8-3.2 11.5-8.3 14.4-5 2.9-11.4 3.1-16.8 1-1.9-.8-3.7-1.8-5.6-2.2-5.9-1.2-11.3 3.2-16.6 6.2-3.5 2-7.4 3.5-11.5 3.5s-8.2-1.7-10.6-4.9c-2.1-2.9-2.6-6.7-2.4-10.3.3-4.6 1.9-9.5 5.9-11.8 4-2.4 9.2-1.4 13.5-3.2 5.7-2.4 9.3-9.4 15.4-9.5 3.3 0 6.3 2.1 9.4 3.2 4.9 1.8 10.5 1.2 15.1 3.5 4.7 2.3 7.5 7.1 9.9 11.8l2.6-1.7z"/>
    <path class="st2" d="M112.1 269.8c-3.9-4.3-7.8-8.5-11.7-12.8-17.1-18.6-35-38.7-39.4-63.6 1.2.4 2.4.7 3.6 1.1 7.8 26.1 28.8 45.8 49 64.1l-1.5 11.2z"/>
    <path class="st3" d="M66.5 202.6c-2.2-6.7-9.8-10.3-12.9-16.6-1-2-1.5-4.2-2.6-6.1-1.2-2-2.9-3.6-4.6-5.2-2.9-2.7-5.7-5.3-8.6-8-3.4-3.1-7.1-6.4-11.6-7.1-2.2-.3-4.4-.1-6.5.5-2.1.5-4.2 1.4-5.8 2.8-4.1 3.5-4.4 10.1-2 14.9 2.4 4.8 6.8 8.3 11.4 11.2 2.4 1.6 5 3.1 6.4 5.7 1.4 2.6 1.4 5.7 2.4 8.5 1.8 4.9 7 8 12.3 8.2 5.2.2 10.2-2.3 14-5.9 2.1-2 3.9-4.4 6.4-5.8l1.7 2.9z"/>
    <path class="st3" d="M63.6 198.7c-3.5-5.8-7-11.7-10.5-17.5-1.9-3.2-3.9-6.9-3-10.6.4-1.6 1.3-2.9 2.1-4.3l7.5-11.7c1-1.6 2-3.1 3.4-4.4 2.2-2.1 5.2-3.1 7.8-4.7 2-1.3 4.1-3.2 6.4-2.7 2.6.5 3.8 3.5 4.6 6.1 2.3 8.1 4.4 16.4 3.9 24.8-.5 9.7-4.4 19.1-10.9 26.3-1.7 1.9-3.6 3.6-5.9 4.4-2.4.8-5.2.6-7-1.1l1.6-4.6z"/>
    <path class="st2" d="M118 275.6c20-15.3 35.2-36.8 43.2-60.7 1.5-.3 2.9 1.2 3.1 2.8.2 1.5-.4 3-1 4.5-10.2 23.9-24.5 47.8-47.4 60.1.1-2.4.1-4.8.2-7.2l1.9.5z"/>
    <path class="st3" d="M161.6 219.4c-.2-5.8-6.8-9.4-8.3-14.9-1-3.8.5-7.8 2.5-11.2 2-3.4 4.5-6.5 5.7-10.3 1.4-4.4.9-9.2 2.3-13.5 1.8-5.4 6.4-9.3 10.8-13 1.9-1.6 4-3.2 6.4-3.4 1.8-.1 3.6.6 5.3 1.4 3 1.6 5.7 4.1 6.8 7.3 2.7 8-5.3 15.8-5.2 24.2 0 2.8 1 5.5 1.2 8.3.4 5.9-2.7 11.5-7 15.5s-9.6 6.7-14.9 9.3c-1.2.6-2.5 1.2-3.8 1.2-1.4 0-2.8 2.7-3 1.4l1.2-2.3z"/>
    <path class="st1" d="M142.7 258.5c4.7-10.2 16.1-17 27.4-16.4 3.7.2 8 1.7 9.2 5.2.4 1 .4 2.1.4 3.1-.4 6.7-6.9 11.7-13.6 12.7-6.6 1-13.3-1.2-19.6-3.5-1.3-.5-2.8-1.6-2.2-2.8l-1.6 1.7z"/>
    <path class="st3" d="M113.8 249.1c1.8-4.6-2.4-9.3-6.6-12.1s-9.1-5.7-9.6-10.7c-.7-7 8.2-11.2 10.3-17.9 2.8-8.6-5.8-16.1-9.4-24.4-2.2-5-2.5-10.5-3.5-15.8-1.2-6.8-3.5-13.7-2.8-20.6.7-6.9 5.7-14.1 12.6-14.3 7.2-.2 12.3 6.8 16.1 13 3.8 6.3 7.7 12.9 7.9 20.2.2 6-2.1 12.4.3 17.9 1.2 2.7 3.3 4.9 4.7 7.5 4.3 8.4-.8 18.3-2.5 27.6-1.2 6.7-.7 13.7-2.9 20.2-2.2 6.4-8.7 12.3-15.3 10.4l.7-1zm31.9-84.4c1.1-5.5 2.3-11.1 3.4-16.6 1.1-5.4 2.3-11 5.5-15.5 4-5.7 10.6-9 14.9-14.4 3.2-4 5.1-8.9 8.2-12.8 3.2-4 8.5-7 13.3-5.1 5.1 2 6.7 8.3 7.2 13.7.4 4.8.5 9.8-1.1 14.4-1.8 5.1-5.5 9.3-7.8 14.2-2.3 5.1-3.1 10.9-6.1 15.6-5.5 8.8-16.8 11.6-26.9 13.7-2.7.6-5.7 1.1-8.1-.3-2.4-1.3-3.3-5.4-.9-6.7l-1.6-.2z"/>
    <path class="st0" d="M133.3 188.6c-4.6-3.3-6.6-9-8.4-14.4-2.1-6.5-4.2-13.8-1.2-19.8 3.3-6.6 11.2-9.1 18.2-11.1 3.6-1 7.9-1.8 10.7.6 1.4 1.2 2.2 3 2.8 4.7 2.6 7.4 3.4 15.6 1.3 23.1-2.1 7.6-7.2 14.4-14.3 17.8-3 1.4-6.6 2.2-9.7.9-3.1-1.3-5.1-5.3-3.4-8.2l4 6.4z"/>
    <path class="st3" d="M76.3 157.6c-15-9.8-27.4-23.3-35.9-39.1-2.6-4.9-5-10.1-9.1-13.9-5-4.6-12.8-7.5-14-14.2-.6-3.1.5-6.2 1.6-9.2 1.7-4.8 3.5-9.6 6.6-13.6 3.1-4 8-7 13-6.6 6.3.5 11.1 5.8 15 10.8 7 9 13.5 18.2 19.7 27.8 2.5 3.9 5 7.9 6.4 12.4 1.7 5.4 1.8 11.2 1.8 16.9 0 7.5-1.1 16.9-8.1 19.6l3 9.1zm15.2-49.1c-1.4-6.6-2.8-13.2-5.8-19.2-1.8-3.6-4.2-6.9-6.1-10.5-3.5-6.8-5.2-14.3-6.9-21.8-3.3-15.1-6.4-31.8 1-45.4C76.3 7.2 80.1 3.1 85 1.2c4.9-2 10.8-1.5 14.9 1.9 2.5 2.1 4 5.1 5.3 8 4.7 11.2 6 23.4 7 35.5 1 13.2 1.7 26.5 1.9 39.8.1 5.1.1 10.4-1.6 15.2-1.8 4.8-5.7 9.1-10.8 9.9-4.6.7-9.4-2-11.4-6.2l1.2 3.2zM72.7 256.7c-1.1-2.8 3-4.9 4-7.8 1-3.2-2.1-6.2-5.2-7.3-3.1-1.1-6.7-1.2-9.4-3.1-4.5-3.2-4.9-9.9-8.9-13.7-2.5-2.5-6.1-3.5-9.2-5.3-4.7-2.9-8.2-7.9-13.5-9.5-5.1-1.5-11.2 1-13.7 5.8-3.1 5.9-.7 13 1.7 19.1 2.1 5.3 4.1 10.6 6.2 15.8.8 2.1 1.8 4.4 3.7 5.7 3.2 2.2 7.7.8 11.3 2 3.4 1.2 5.6 4.5 8.5 6.6 4.3 3.2 10.3 3.8 15.1 1.4 4.8-2.3 8.1-7.4 8.3-12.7l1.1 3z"/>
    <path class="st4" d="M161 222c5.8-5.7 8.9-13.4 10.8-21.2 2.2-8.8 3-17.8 5.5-26.5.7-2.5 1.6-4.9 2.7-7.3 1.1-2.4 2.2-4.8 3.1-7.3.3-.8-1-1.2-1.4-.4-1.6 4.4-3.8 8.4-5.3 12.8-1.4 4.3-2.3 8.7-3.1 13.1-1.5 8.3-2.7 16.8-6 24.5-1.8 4.1-4.2 8-7.3 11.1-.6.8.3 1.8 1 1.2zm-46.8 28.3c3.5-7.4 7-15.3 7.2-23.6 0-2-.1-4.1-.6-6.1-.4-2-1.3-3.9-1.8-5.9-.6-2.2-.1-4.3.5-6.5.6-2.1 1.1-4.2 1.4-6.3.7-4.8.7-9.7-.1-14.6-.1-.9-1.5-.5-1.4.4.7 4.2.8 8.5.2 12.8-.3 2.1-.7 4.2-1.3 6.3-.5 2-1.2 4.1-1.1 6.2.1 2.1 1 4 1.6 6 .6 1.9.9 3.9 1 5.9.2 4-.6 8-1.7 11.8-1.4 4.5-3.3 8.8-5.2 13-.3.8.9 1.5 1.3.6zm-46.6-43.5c-3.8-5.2-2.6-12.2-1-18 1-3.4 2.1-6.8 2.7-10.2.3-1.8.5-3.6.4-5.4-.1-1.9-.3-3.8-.3-5.7.1-4.2 1.5-8.2 2.8-12.1.3-.9-1.1-1.2-1.4-.4-1.2 3.6-2.4 7.2-2.7 10.9-.2 1.9 0 3.8.1 5.7.1 1.9.1 3.7-.1 5.6-1 6.9-4.3 13.2-4.5 20.3-.1 3.5.7 7 2.7 9.9.6.9 1.8.2 1.3-.6z"/>
    <path class="st4" d="M29.6 174.9c2.3 2.7 4.5 5.5 6.8 8.2 2 2.5 4 5 6.3 7.3 2.2 2.2 4.7 3.8 7.6 5 2.8 1.1 5.8 1.9 8.4 3.4 2.6 1.4 5 3.5 5.8 6.5.2.9 1.6.5 1.4-.4-1.5-5.9-7.8-8.1-12.9-9.9-3-1.1-5.8-2.3-8.2-4.4-2.4-2.1-4.4-4.7-6.5-7.2-2.6-3.1-5.1-6.2-7.7-9.3-.6-.8-1.6.2-1 .8zM73 142.5c-.4-4.1-1.4-8.1-3.1-11.8-1.7-3.8-4.2-7.1-6.9-10.2-2.7-3.1-5.4-6.2-7.5-9.8-2.1-3.5-3.9-7.2-5.4-11-1.7-4.3-3.1-8.7-4.5-13.1-.3-.9-1.6-.5-1.4.4 2.5 7.7 5 15.5 9 22.6 2 3.6 4.5 6.8 7.1 9.9 2.7 3.1 5.4 6.3 7.4 9.9 2.2 4 3.5 8.5 3.9 13.1 0 .9 1.4.9 1.4 0z"/>
    <path class="st4" d="M41.1 98.3c2.5 3.4 6.1 5.9 10.2 7 .9.2 1.2-1.1.4-1.4-3.7-1-7.1-3.2-9.4-6.4-.2-.3-.6-.5-1-.3-.2.3-.4.8-.2 1.1zm18 1.8c2.9 6 3.5 13 1.4 19.4-.3.9 1.1 1.2 1.4.4 2.1-6.7 1.5-14.1-1.6-20.5-.4-.8-1.6-.1-1.2.7z"/>
    <path class="st5" d="M64.2 150c1.6-3.1 4.9-5.4 8.4-5.8 3.7-.4 7.4 1.3 9.6 4.3.5.7 1.7 0 1.2-.7-1.9-2.6-4.9-4.4-8.1-4.9-3.2-.5-6.4.4-8.9 2.3-1.4 1.1-2.6 2.5-3.4 4-.4.8.8 1.6 1.2.8zm84.6-9.2c5.3 3 7.7 9.1 8.2 14.9.3 3.5 0 7.1-.2 10.6-.3 3.2-.5 6.4-1.1 9.6-.6 3.5-1.7 6.9-3.6 9.9-.5.8.7 1.5 1.2.7 3.5-5.6 4.3-12.4 4.8-18.9.6-6.9 1.2-14.3-1.9-20.8-1.4-3-3.7-5.6-6.6-7.3-.9-.3-1.6.9-.8 1.3z"/>
    <path class="st4" d="M159.6 156.2c2.9-2.1 5.8-4.2 8.3-6.7 2.4-2.5 4.2-5.6 5.6-8.8 2.6-6.2 3.8-12.9 6.8-18.9 1.6-3.2 3.7-6.2 6.6-8.4.7-.5 0-1.7-.7-1.2-5.3 3.9-8 10-9.9 16.1-2.1 6.5-3.6 13.5-8.1 18.9-2.6 3.2-5.9 5.5-9.2 7.9-.8.4-.1 1.6.6 1.1z"/>
    <path class="st5" d="M158.7 171.9c7.9-1.8 15.3-6.1 20.9-12 1.6-1.7 3-3.5 4.2-5.4.5-.8-.7-1.5-1.2-.7-4.3 6.5-10.7 11.7-17.9 14.7-2.1.9-4.2 1.5-6.4 2-.9.2-.5 1.6.4 1.4z"/>
    <path class="st4" d="M135.6 141.3c-.4-9.9 2.5-19.7 8-27.9 1.5-2.3 3.3-4.5 5.2-6.5.6-.6-.4-1.6-1-1-7.1 7.3-11.7 16.8-13.2 26.9-.4 2.8-.6 5.6-.4 8.5.1.9 1.5.9 1.4 0zM95.5 44.1l2.4 25.8c.8 8.6 1.6 17.1 2.3 25.7.4 4.8.9 9.7 1.3 14.5.1.9 1.5.9 1.4 0l-2.4-25.8c-.8-8.6-1.6-17.1-2.3-25.7-.4-4.8-.9-9.7-1.3-14.5-.1-.9-1.5-.9-1.4 0z"/>
    <path class="st4" d="M88 61.8c2.1 5.2 5.4 9.9 9.6 13.6.7.6 1.7-.4 1-1-4-3.6-7.2-8-9.2-13-.4-.8-1.7-.4-1.4.4zm16.5 10.7c1.9 6.7.1 14.2-4.7 19.3-.6.7.4 1.7 1 1 5.1-5.4 7.1-13.5 5-20.6-.2-.9-1.6-.6-1.3.3zM80.6 99.6c4.1 9 7.6 18.3 10.5 27.8.8 2.7 1.6 5.4 2.3 8.1.2.9 1.6.5 1.4-.4-2.5-9.7-5.7-19.2-9.5-28.4-1.1-2.6-2.2-5.2-3.4-7.8-.5-.8-1.7-.1-1.3.7z"/>
    <path class="st4" d="M93.1 113.2c-.4 3.7-1.3 7.4-2.9 10.7-.4.8.8 1.5 1.2.7 1.7-3.6 2.7-7.5 3.1-11.5 0-.8-1.4-.8-1.4.1zm-7.6 15.4c.7 2 2.6 3.5 4.7 3.5.4 0 .7-.3.7-.7 0-.4-.3-.7-.7-.7h-.5c-.2 0-.4-.1-.6-.2-.3-.1-.4-.2-.4-.2-.2-.1-.4-.2-.5-.3-.1-.1-.1-.1-.2-.1l-.2-.2c-.1-.1-.1-.2-.2-.2-.2-.3 0 0-.1-.2s-.2-.4-.3-.5c0-.1-.1-.2-.1-.3.1.1 0 0 0 0 0-.1 0-.1-.1-.2-.1-.3-.5-.6-.9-.5-.5 0-.7.4-.6.8zm-44.4 7.5c2.1 7.7 4.1 15.4 5.7 23.2.5 2.2.9 4.4 1.4 6.6.2.9 1.5.5 1.4-.4-1.6-7.8-3.3-15.6-5.3-23.3-.6-2.2-1.2-4.3-1.8-6.5-.3-.8-1.7-.4-1.4.4z"/>
    <path class="st4" d="M38.8 147c1.9 1.9 4.2 3.4 6.7 4.3.4.1.8-.2.9-.5.1-.4-.1-.7-.5-.9-2.3-.9-4.3-2.3-6.1-4-.6-.5-1.6.5-1 1.1zm7.5-6.3c-.2 1.9-.8 3.8-1.7 5.5-.4.8.8 1.5 1.2.7 1.1-1.9 1.7-4 1.9-6.2 0-.4-.3-.7-.7-.7-.4 0-.7.3-.7.7zm121.1 44.5c1 2.6 2.6 5 4.7 6.9.7.6 1.7-.4 1-1-1.9-1.7-3.4-3.9-4.3-6.2-.1-.4-.5-.6-.9-.5-.3.1-.6.5-.5.8zm12.2-8.6c-1.1 1.9-2.6 3.4-4.4 4.4-.3.2-.4.6-.3 1 .2.3.6.4 1 .3 2.1-1.2 3.8-2.9 4.9-4.9.2-.3.1-.8-.3-1-.2-.3-.7-.2-.9.2zm13.8 81.6c4.5-7.5 10.6-14 17.8-18.8 4-2.7 8.4-4.8 12.7-6.9 4.3-2.2 8.5-4.8 12.4-7.7 4.4-3.3 8.5-6.8 12.6-10.4.7-.6-.3-1.6-1-1-7.3 6.4-14.8 12.7-23.5 17.3-4.3 2.3-8.8 4.3-13 7-3.7 2.4-7.1 5.2-10.2 8.3-3.5 3.5-6.5 7.4-9 11.6-.5.7.7 1.4 1.2.6z"/>
    <path class="st4" d="M231 218c-1.8 3.2-2.8 6.7-3.1 10.3-.1.9 1.3.9 1.4 0 .2-3.4 1.2-6.7 2.9-9.6.5-.7-.7-1.4-1.2-.7zm-45.5 57.8c9.4-.5 18.7-1 28.1-1.5 8.5-.5 17.1-1.1 25.6-.1 4.7.6 9.3 1.6 13.7 3.5.8.4 1.5-.9.7-1.2-7.8-3.4-16.4-4.3-24.9-4.3-4.3 0-8.7.2-13 .5-4.7.3-9.5.5-14.2.8-5.3.3-10.6.6-15.9.8-1 .1-1 1.5-.1 1.5z"/>
    <path class="st4" d="M223.9 272.6c2-2 4.6-3.3 7.4-3.7.4-.1.6-.5.5-.9-.1-.4-.5-.5-.9-.5-3 .4-5.9 1.9-8.1 4.1-.6.6.4 1.6 1.1 1zm-13.1 2.3c1.4 4.3 5.3 7.4 9.8 7.9.4 0 .7-.4.7-.7 0-.4-.3-.7-.7-.7-3.8-.5-7.2-3.3-8.5-6.9-.2-.8-1.6-.5-1.3.4zM142.4 257c7.8-2 15.7-3.8 23.6-5.2 2.3-.4 4.6-.8 6.8-1.1.9-.1.5-1.5-.4-1.4-8 1.2-15.9 2.7-23.7 4.6-2.2.5-4.5 1.1-6.7 1.7-.9.3-.5 1.6.4 1.4z"/>
    <path class="st4" d="M160.6 248.4c-1 1.1-2 2.3-3 3.4-.2.3-.3.7 0 1 .3.2.7.3 1 0 1-1.1 2-2.3 3-3.4.2-.3.3-.7 0-1-.3-.2-.8-.2-1 0zm-46.5-56.1c1 2.8 2.3 5.4 4.1 7.8.2.3.6.5 1 .3.3-.2.5-.7.3-1-1.7-2.3-3.1-4.8-4-7.5-.3-.8-1.7-.5-1.4.4zm9.8 22c-.3 3.1-1.4 6-3.2 8.5-.2.3-.1.8.3 1 .4.2.7.1 1-.3 2-2.7 3.1-5.9 3.4-9.2 0-.9-1.4-.9-1.5 0zm-30.5-6.4c-.5 8.2-.9 16.4-1.4 24.6-.1 2.3-.3 4.6-.4 7-.1.9 1.4.9 1.4 0 .5-8.2.9-16.4 1.4-24.6.1-2.3.3-4.6.4-7 0-.9-1.4-.9-1.4 0z"/>
    <path class="st4" d="M89 218.8c1 1.4 1.9 2.7 2.9 4.1.2.3.6.5 1 .3.3-.2.5-.6.3-1-1-1.4-1.9-2.7-2.9-4.1-.2-.3-.6-.5-1-.3-.4.3-.6.7-.3 1z"/>
    <path class="st5" d="M103.5 214.7c-2.4 2.4-4.1 5.5-4.8 8.8-.6 2.8-.6 5.9.8 8.5.8 1.3 1.9 2.4 3.4 2.8.9.3 1.2-1.1.4-1.4-3-.9-3.8-4.7-3.6-7.5.3-3.8 2.1-7.5 4.8-10.3.6-.5-.4-1.5-1-.9z"/>
    <path class="st4" d="M133.5 177.7c2.3-6.8 5.6-13.2 9.8-19.1 1.2-1.7 2.5-3.3 3.8-4.8.6-.7-.4-1.7-1-1-4.8 5.6-8.8 11.9-11.7 18.7-.8 1.9-1.6 3.8-2.2 5.8-.3.9 1.1 1.2 1.3.4z"/>
    <path class="st4" d="M138.2 167.4c-1.3-3.6-1.6-7.6-.7-11.3.2-.9-1.1-1.2-1.4-.4-1 4-.8 8.2.7 12.1.4.8 1.7.4 1.4-.4zm-2.7 7.7c2.4-1.1 4.7-2.2 7.1-3.3.3-.2.4-.7.3-1-.2-.4-.6-.4-1-.3-2.4 1.1-4.7 2.2-7.1 3.3-.3.2-.4.7-.3 1 .3.4.7.5 1 .3zm2.6-62.7c-.6 2.4-.2 4.9 1.1 7 .5.8 1.7.1 1.2-.7-1.1-1.8-1.4-3.9-.9-5.9.2-.9-1.2-1.2-1.4-.4zm-2 18.6c3.6-3 7.2-6 10.8-9.1.7-.6-.3-1.6-1-1-3.6 3-7.2 6-10.8 9.1-.7.6.3 1.6 1 1zm-19-44.5c2.1-7.5 5.3-14.8 9.4-21.4 1.2-1.9 2.4-3.7 3.7-5.5.5-.7-.7-1.4-1.2-.7-4.7 6.4-8.5 13.4-11.2 20.8-.8 2.1-1.5 4.3-2.1 6.4-.2.9 1.2 1.2 1.4.4z"/>
    <path class="st4" d="M121 66c.3 1.7.5 3.5.8 5.2.1.4.5.6.9.5.4-.1.5-.5.5-.9-.3-1.7-.5-3.5-.8-5.2-.1-.4-.5-.6-.9-.5-.4.2-.5.5-.5.9zm-1.2 15.7c3.5-2.6 7.4-4.8 11.5-6.5.8-.3.5-1.7-.4-1.4-4.2 1.7-8.2 3.9-11.8 6.6-.7.6 0 1.8.7 1.3zM32.1 226.2c5.2 6.1 10.5 12.3 16.8 17.4 2.9 2.3 6 4.3 9.1 6.2 3 1.8 6.1 3.5 8.9 5.5 3.2 2.2 6.1 4.8 8.2 8.1.5.8 1.7.1 1.2-.7-3.9-5.9-10-9.6-16-13.1-3.1-1.8-6.2-3.7-9.1-5.9-3.2-2.5-6.2-5.3-9-8.2-3.2-3.3-6.2-6.8-9.1-10.3-.5-.6-1.5.4-1 1z"/>
    <path class="st4" d="M47.6 235.1c1.6 2.4 1.9 5.5.8 8.2-.1.4.2.8.5.9.4.1.7-.1.9-.5 1.2-3 .8-6.6-1-9.3-.5-.8-1.7-.1-1.2.7zM41.2 249c5.4 3.4 12 4.4 18.2 2.8.9-.2.5-1.6-.4-1.4-5.8 1.5-12 .5-17.1-2.7-.7-.4-1.4.8-.7 1.3zm-10.8 11.4c-8.1 1.5-16.1 3.5-24 5.9-.9.3-.5 1.6.4 1.4 7.8-2.5 15.9-4.5 24-5.9.8-.2.4-1.6-.4-1.4z"/>
    <path class="st4" d="M11.5 262.3c2.1 1 4.3 2 6.4 3 .3.2.8.1 1-.3.2-.3.1-.8-.3-1-2.1-1-4.3-2-6.4-3-.3-.2-.8-.1-1 .3-.1.3 0 .8.3 1zm61.7-95.1c-1 2-2.6 3.7-4.4 5-.3.2-.4.6-.3 1 .2.3.6.5 1 .3 2.1-1.4 3.8-3.3 4.9-5.5.2-.3.1-.8-.3-1-.2-.2-.7-.1-.9.2zm-39.3 23.1c2.6.8 5.3.9 8 .4.4-.1.6-.5.5-.9-.1-.4-.5-.6-.9-.5-2.4.4-4.9.3-7.2-.4-.9-.2-1.2 1.1-.4 1.4zm48.4-47.4c2.5-1.2 5.8.2 6.9 2.7.2.3.7.4 1 .3.4-.2.4-.6.3-1-1.4-3.3-5.6-4.7-8.8-3.2-.3.2-.4.7-.3 1 .1.3.6.4.9.2zm6.5 33.1c1.3 6.5 3.7 12.7 7 18.4.5.8 1.7.1 1.2-.7-3.3-5.6-5.6-11.7-6.9-18-.1-1-1.5-.6-1.3.3z"/>
    <path class="st4" d="M88.1 185.2c1.6.9 3.2 1.9 4.7 2.8.3.2.8.1 1-.3.2-.3.1-.8-.3-1-1.6-.9-3.2-1.9-4.7-2.8-.3-.2-.8-.1-1 .3-.2.3-.1.8.3 1zm4-10.6c.1 2.3-.2 4.6-1.1 6.8-.1.4.1.8.5.9.4.1.7-.1.9-.5.9-2.3 1.2-4.7 1.1-7.2 0-.9-1.4-.9-1.4 0zm81.8-52.5c.5 1.8 1 3.6 1.5 5.3.2.9 1.6.5 1.4-.4-.5-1.8-1-3.6-1.5-5.3-.3-.8-1.7-.5-1.4.4zm-.7 20.3c2.2-2.5 4.9-4.5 8-5.8.3-.1.4-.7.3-1-.2-.4-.6-.4-1-.3-3.2 1.4-6 3.4-8.2 6-.6.8.3 1.8.9 1.1z"/>
</svg>
