<svg xmlns="http://www.w3.org/2000/svg" width="165.8" height="120" style="overflow:visible;enable-background:new 0 0 165.8 120" xml:space="preserve">
    <path d="M87.8 112.8c15.1 4.5 30.8 9.1 46.4 6.5 15.6-2.5 30.8-14.4 31.6-30.2.6-11.2-6.8-22.3-17.3-26-10.5-3.8-23.3.2-29.9 9.2 4.3-11.7 8.2-26.1.2-35.7-8.5-10.2-28.3-5.6-31.3 7.4 4.5-10.6 4.6-23.5-1.8-33S65.6-3.2 55.5 2.4C47 7.2 43 17.9 43.7 27.7c.7 9.8 5.1 18.9 9.8 27.5 4.7-2.1 1.5-9.3-2.2-12.9-5-4.9-10.1-9.9-16.5-12.8-6.4-2.9-14.4-3.2-20 1-6.3 4.7-7.8 13.7-7 21.6C9.3 66.4 16.7 80 28 89c-1.5-6.5-5.3-12.9-11.4-15.5-6.1-2.6-14.6.3-16.3 6.7-.7 2.8-.1 5.8.6 8.7C3.7 100 9.4 112 20.3 115.6c12.7 4.1 26.1-5.1 39.5-4 5.7.5 11.1 2.8 16.8 3.8 5.7 1 12.2.3 15.9-4.1l-4.7 1.5z" style="fill:#89c763"/>
    <path d="M109.8 98.5c4.2-1.6 7.9-4.6 10.4-8.3 2.5-3.7 4.1-8.5 3.3-13-.4-2.2-1.5-4.2-3.3-5.5-1.6-1.2-3.7-1.8-5.7-1.8-4.7-.1-8.7 2.3-11.8 5.6-1.7 1.8-3.2 3.8-4.5 5.9-.7 1.1-1.5 2.2-2.1 3.3-.5.9-.9 2.1-.4 3.1.7 1.5 2.8 2.1 4.4 1.8 2.1-.5 3.5-2.5 4.3-4.3 1-2.2 1.5-4.7 1.8-7.1.3-2.5.3-5.1-.3-7.6-1-4.6-3.6-8.6-7.9-10.7-3.6-1.8-8.3-2-11.4.8-2.6 2.3-4.2 6.3-3 9.7.3.8.7 1.5 1.2 2.2-.4 0-.7.1-1.1.1 2.6-5.6 3.7-12.1 2.5-18.2C85 49 81.9 44.1 77 41.2c-4.4-2.7-10-3.7-14.8-1.6-4.9 2.1-8.5 6.8-9.8 11.9-1.6 6.6.7 13.8 5 19 .6.7-.4 1.7-1 1-4.1-5-6.6-11.6-5.8-18.1.7-5.7 4-11.1 9-14 5-3 11-2.8 16.1-.4 5.4 2.5 9.4 7.3 11.1 12.9 2 6.3 1.3 13.3-1 19.4-.3.8-.6 1.5-.9 2.2-.2.4-.8.5-1.1.1-2.7-3.3-2.4-8-.3-11.4 1.1-1.8 2.7-3.3 4.6-4.1 2.1-.9 4.6-1.1 6.8-.6 4.9.9 9 4.5 11 9 2.3 5.2 2.1 11.2.6 16.6-.6 2.3-1.6 4.8-3.5 6.5-1.7 1.5-3.9 2-6 1.3-2-.8-3.4-2.6-3-4.8.3-1.4 1.2-2.7 2-3.9.7-1.1 1.5-2.2 2.3-3.3 3-4.2 6.8-8.3 12.1-9.7 4.5-1.2 9.8-.2 12.6 3.7 3 4.3 2.2 10.2.3 14.7-2 4.6-5.5 8.5-9.9 11-1.1.6-2.2 1.1-3.3 1.5-.7.1-1.1-1.2-.3-1.6zm-67-27.7c-1.4-1.9-3.9-2.1-6-1.5-2.5.7-4.4 2.6-5.1 5.1-1 3.1-.3 6.6.8 9.6.5 1.4 1.2 2.8 2.2 3.9.9 1 2 2.1 3.4 2.3 2.8.5 3.9-2.9 2.7-4.9-1.4-2.5-5-2.8-7.5-1.9-4.8 1.6-7.9 7.6-6 12.3 1.8 4.5 7.6 6.8 12.1 5.2.6-.2 1.1-.5 1.6-.8.8-.5 1.5.7.7 1.2-5 3.1-12.2 1.1-15.1-3.9-3.1-5.4 0-12.6 5.4-15 2.9-1.3 6.8-1.2 9.1 1.2 2.1 2.1 2.1 6.3-.8 7.7-3.2 1.5-6.4-1.5-7.9-4.1-.9-1.6-1.6-3.4-2-5.2-.5-1.8-.7-3.7-.5-5.6.3-3.2 1.8-6.2 4.8-7.8 2.4-1.2 5.6-1.6 7.9 0 .6.4 1 .9 1.4 1.4.5.8-.7 1.5-1.2.8zm30.5 21.3c.4-3.2-2.3-6.3-5.4-6.8-3-.5-5.6 1.9-6.3 4.7-.4 1.6-.2 3.2.6 4.6.5.8-.7 1.5-1.2.7-1.9-3-1-7.1 1.5-9.5 1.3-1.3 3.1-2 4.9-1.9 1.9.1 3.7 1 5.1 2.4 1.5 1.5 2.5 3.7 2.2 5.9-.1.8-1.5.8-1.4-.1zM36.5 46.8c-1.3-2.3-4.3-3.2-6.7-2.4-2.6.8-3.7 3.6-3.2 6.2.3 1.4 1.1 2.7 2.4 3.5.8.5.1 1.7-.7 1.2-2.8-1.7-4-5.5-2.8-8.5 1.2-3.2 4.7-4.6 8-3.8 1.8.4 3.3 1.5 4.2 3.1.4.8-.8 1.5-1.2.7zm101.1 29c3.6 2.5 5.9 6.7 6.1 11.2.2 4.4-1.9 8.7-5.4 11.4-1.9 1.5-4.2 2.5-6.7 2.9-.4.1-.7-.1-.9-.5-.1-.3.1-.8.5-.9 3.9-.5 7.4-2.9 9.4-6.4 2-3.5 2.1-7.7.4-11.4-.9-2-2.4-3.8-4.2-5.1-.6-.5.1-1.7.8-1.2z" style="fill:#009444"/>
</svg>
