<svg xmlns="http://www.w3.org/2000/svg" width="96.1" height="56.3" style="overflow:visible;enable-background:new 0 0 96.1 56.3" xml:space="preserve">
    <style>
        .st0{fill:#0e8e1e}
    </style>
    <path class="st0" d="M32.3 44.6c5.5-6.8 10.2-14.3 14-22.2 2.3-4.8 4-11.4-.1-15-7.6 5.7-13.5 13.7-16.6 22.8.2-11.1-4.2-22.3-12-30.2-3.9 8.6-1.5 18.5 1 27.6-3-5.4-6.8-10.3-11.2-14.6-1.1-1.1-2.3-2.1-3.9-2.1-3.7 0-4.1 5.5-3 9 3 9.6 7.2 18.8 12.5 27.3l19.3-2.6z"/>
    <path class="st0" d="M58.5 53.8c5.5-6.8 10.2-14.3 14-22.2 2.3-4.8 4-11.4-.1-15-7.6 5.7-13.5 13.7-16.6 22.8.2-11.1-4.2-22.3-12-30.2-3.9 8.6-1.5 18.5 1 27.6-3-5.4-6.8-10.3-11.2-14.6-1.1-1.1-2.3-2.1-3.9-2.1-3.7 0-4.1 5.5-3 9 3 9.6 7.2 18.8 12.5 27.3l19.3-2.6z"/>
    <path class="st0" d="M81.5 42.4c4.9-6.1 9.1-12.8 12.5-19.8 2.1-4.3 3.6-10.2-.1-13.4-6.8 5.1-12.1 12.3-14.9 20.3.2-9.9-3.8-19.9-10.7-27-3.5 7.7-1.3 16.6.9 24.7-2.7-4.8-6.1-9.2-10-13.1-1-.9-2.1-1.9-3.4-1.9-3.3 0-3.6 4.9-2.7 8 2.6 8.6 6.4 16.8 11.2 24.4l17.2-2.2z"/>
</svg>
