<svg xmlns="http://www.w3.org/2000/svg" width="294.6" height="530.8" style="overflow:visible;enable-background:new 0 0 294.6 530.8" xml:space="preserve">
    <style>
        .st0{fill:#006838}.st1{fill:#009444}.st2{fill:#d38531}.st3{fill:#89c763}.st4{fill:#5b341a}.st5{fill:#8c7754}
    </style>
    <path class="st0" d="M195.7 262.2c5.1-8.4 10.4-18.1 7.8-27.6-1.4-5.1-5-9.5-5.7-14.7-.6-4.5 1-9.4-1-13.5-.6-1.1-1.5-2.2-2.8-2.5-2.5-.5-4.2 2.3-5.1 4.7-2.7 6.9-5.4 13.8-6.6 21.1-1.2 7.3-.7 15.1 2.7 21.6 2.7 5.1 7.6 9.5 13.4 9.6l-2.7 1.3z"/>
    <path class="st1" d="M119.7 246.8c3.5-4.5 7.8-8.4 12.7-11.4 4.4-2.8 9.4-5.1 12.2-9.4 2.9-4.4 2.9-9.9 3.2-15.1.3-5.1 1-10.2-.2-15.2-1.2-4.9-5-9.7-10-10.2-4.1-.4-8 2-10.5 5.3s-3.8 7.3-5 11.2c-2.7 8.3-5.3 16.8-5.1 25.5.1 6-2.6 16.6 2.7 19.3zM236 209.1c7.2-4.3 13.5-10.1 18.4-16.9 2.7-3.8 5.1-8.2 4.7-12.8-.2-1.9-.8-3.8-1.1-5.7-.9-7.9 5.8-14.5 8.4-22 2-5.7 1.4-12.2-1.4-17.6-1.5-2.8-3.9-5.4-7-5.9-3.6-.5-6.8 2-9.4 4.6-10.2 10.2-16.4 23.7-21.3 37.3-1.1 3.2-2.2 6.4-2.8 9.7-1.8 10.8 2.1 22.5 10.2 29.9l1.3-.6zm-53.8-74.9c1.7-7 3.4-13.9 5.1-20.9.9-3.7 1.8-7.7.5-11.3-1.4-3.6-4.8-6.1-7-9.3-3.5-5.1-3.7-11.7-5.1-17.7-1.6-6.7-4.9-12.9-9.5-18-4-4.4-9.8-8.1-15.6-6.7-6.3 1.5-9.8 8.5-10.8 14.9-2.1 12.8 2.1 26.6 11.1 36 2.4 2.6 5.2 4.8 7.3 7.6 3.9 5.1 5.4 11.6 9.2 16.7 3.7 5.1 11.5 8.6 16.4 4.5l-1.6 4.2z"/>
    <path class="st0" d="M189.9 184.5c6.2-3.8 14.4-4.5 19.2-10 5.6-6.5 3.9-16.7 8.1-24.2 2.2-3.8 5.8-6.8 7.3-11 1.8-5.1 0-10.7.6-16 .4-3.5 1.7-6.8 2.5-10.3 1.7-8.3-.6-17.4-6.1-23.8-.6-.7-1.3-1.4-2.1-1.7-1.3-.5-2.7-.2-4.1.2-8.7 2.3-18.4 5.3-22.8 13.2-2.5 4.5-2.9 9.9-5 14.6-2.3 5-6.5 9-7.8 14.3-1.6 6.5 1.5 13.2 1.8 19.8.2 4.9-1 9.7-1.7 14.6s-.7 10.1 1.8 14.3c2.5 4.2 8.1 6.9 12.5 4.7 1-.5 2-1.8 1.3-2.7l-5.5 4z"/>
    <path class="st1" d="M178.6 204.3c3.7-14.1 9.7-27.7 17.6-39.9 2.3-3.6 5.2-7.3 9.4-8 1.7-.3 3.5 0 5.3.3 3.1.5 6.3 1 9.4 1.5 1.1.2 2.2.4 3.1 1 1.8 1.2 2.1 3.7 2.3 5.8.5 6.9.7 13.9.4 20.9-.3 6.8-1.1 14-5.7 19.1-3.3 3.6-8 5.6-11.5 9-2.5 2.4-4.4 5.6-7.4 7.4-5.8 3.4-13.3.1-18.7-4-2.3-1.7-4.5-3.7-5.5-6.4s-.4-6.2 2.1-7.6l-.8.9zm-13.4-20.2c-7.7-7.9-6.3-20.9-3.3-31.5.9-3.2 2-6.4 2.3-9.8.7-7.3-2.1-14.7-6.5-20.6-4.4-5.9-10.3-10.6-16.3-14.9-1.9-1.3-3.9-2.7-6.2-2.8-2.1-.1-4.1.8-6 1.7-3.4 1.6-6.9 3.3-10.3 4.9-1.6.8-3.3 1.6-4.4 3-2.3 3-1.3 7.2-.1 10.8 2.6 8.1 5.2 16.3 7.9 24.4 2.5 7.7 5 15.5 9.4 22.3 4.4 6.8 10.9 12.6 18.8 14.3 5.5 1.2 11.8.1 15.8-4l-1.1 2.2z"/>
    <path class="st2" d="M176.4 529.3c2.3-55-3.9-231.9-1.3-282.8l-10.9 7.1 4.4 275.7c0 2.2 7.8 1.8 7.8 0z"/>
    <path class="st2" d="M167.1 328.7c-15.3-8.9-31.8-15.3-47.6-23.2-15.8-7.9-31.1-17.7-41.9-31.6 5.1 10.1 12.7 18.9 21.8 25.6-5.6-1.2-11.3-2.2-17-2.8 1.8 3.9 7.1 4.2 11.3 4.4 28 1.5 50.2 24.3 77 32.6-.3-1.3-.6-2.5-.9-3.8l-2.7-1.2z"/>
    <path class="st3" d="M89.2 297.6c-6.6-3.9-13.1-7.9-19.7-11.8-2.7-1.6-5.5-3.3-8.6-4.1-11-2.9-21.6 5.2-32.7 7.8-8.6 2-18.9 1.2-24.6 8-3.4 4.1-3.9 9.8-3.6 15.1.1 1.9.4 4 1.5 5.6 2.4 3.4 7.6 3.3 11.6 1.9s7.9-3.6 12.1-3.1c3.5.4 6.5 2.8 9.7 4.2 11.1 4.8 23.7-1.4 34.2-7.4 5.6-3.2 11.1-6.4 16.7-9.6 2.5-1.4 5.4-4.3 3.7-6.7l-.3.1zm-4.7-16.1c2.4-9.9 4.4-21.6-2.2-29.4-4.9-5.8-13-7.4-19.2-11.8-6.6-4.6-10.7-12.1-16.8-17.5-7.3-6.5-17.4-9.6-27-8.4-2 .3-4.2.8-5.5 2.4-.9 1.2-1.2 2.8-1.4 4.3l-2.1 15c-1 6.9-1.7 14.7 2.7 20.1 5.8 7 16.6 5.8 25 9.3 5 2.1 9.1 5.8 13.7 8.7 9.4 5.9 21 8.2 31.9 6.2l.9 1.1z"/>
    <path class="st2" d="M217.8 276.7c-14.8 17.5-31.1 33.6-48.8 48.1.6 1.2 1.3 2.4 1.9 3.5 21-11.5 38.4-29.3 49.5-50.5-.9-.4-1.8-.8-2.7-1.1h.1z"/>
    <path class="st0" d="M216 278.5c-.2 6.4 3.6 12.6 9.1 15.7s12.5 3.4 18.4 1c2.1-.8 4-1.9 6.2-2.4 6.5-1.3 12.4 3.5 18.1 6.8 3.8 2.2 8.1 3.8 12.6 3.8 4.4 0 9-1.8 11.6-5.4 2.3-3.2 2.9-7.4 2.6-11.3-.3-5-2.1-10.4-6.4-12.9-4.4-2.6-10.1-1.5-14.8-3.5-6.2-2.6-10.2-10.3-16.9-10.4-3.7 0-6.9 2.3-10.3 3.5-5.3 1.9-11.4 1.3-16.5 3.8s-8.2 7.8-10.8 12.9l-2.9-1.6z"/>
    <path class="st2" d="M172 295.1c4.3-4.7 8.6-9.3 12.8-14 18.7-20.4 38.3-42.3 43.1-69.6l-3.9 1.2c-8.5 28.5-31.5 50.1-53.5 70.1l1.5 12.3z"/>
    <path class="st3" d="M221.9 221.6c2.4-7.3 10.7-11.2 14.1-18.1 1.1-2.2 1.7-4.5 2.8-6.6 1.3-2.2 3.1-4 5-5.7 3.1-2.9 6.3-5.8 9.4-8.7 3.7-3.4 7.7-7 12.7-7.8 2.4-.4 4.8-.1 7.2.5 2.3.6 4.6 1.5 6.4 3 4.5 3.9 4.8 11 2.2 16.3-2.6 5.3-7.5 9.1-12.4 12.3-2.7 1.7-5.5 3.4-7 6.2-1.6 2.8-1.5 6.2-2.7 9.2-2 5.3-7.7 8.8-13.4 8.9-5.7.2-11.2-2.5-15.3-6.5-2.3-2.2-4.2-4.8-7-6.3l-2 3.3z"/>
    <path class="st3" d="m225.1 217.4 11.4-19.2c2.1-3.5 4.3-7.6 3.3-11.6-.4-1.7-1.4-3.2-2.3-4.7-2.7-4.3-5.5-8.5-8.2-12.8-1.1-1.7-2.2-3.4-3.7-4.8-2.5-2.2-5.7-3.3-8.5-5.2-2.2-1.4-4.5-3.4-7-3-2.9.6-4.2 3.9-5 6.7-2.5 8.9-4.8 18-4.3 27.2.5 10.6 4.8 20.9 11.9 28.7 1.8 2 3.9 3.9 6.5 4.9 2.6.9 5.7.7 7.7-1.2l-1.8-5z"/>
    <path class="st2" d="M165.6 301.4c-21.9-16.8-38.6-40.2-47.2-66.4-1.7-.3-3.2 1.3-3.4 3s.4 3.3 1.1 4.9c11.1 26.2 26.8 52.3 51.8 65.7-.1-2.6-.1-5.2-.2-7.8l-2.1.6z"/>
    <path class="st3" d="M117.9 239.9c.2-6.3 7.4-10.2 9.1-16.3 1.1-4.2-.6-8.5-2.8-12.2-2.2-3.7-4.9-7.1-6.2-11.2-1.5-4.8-1-10-2.6-14.8-2-5.9-7-10.2-11.8-14.2-2.1-1.7-4.3-3.5-7-3.7-2-.2-4 .6-5.8 1.6-3.3 1.8-6.2 4.5-7.4 8-2.9 8.7 5.8 17.3 5.7 26.4-.1 3-1.1 6-1.3 9-.4 6.4 3 12.6 7.7 17s10.5 7.3 16.3 10.2c1.3.7 2.7 1.3 4.2 1.3s3.1 3 3.3 1.5l-1.4-2.6z"/>
    <path class="st1" d="M138.6 282.7c-5.2-11.2-17.6-18.6-29.9-17.9-4.1.2-8.7 1.8-10.1 5.7-.4 1.1-.5 2.2-.4 3.4.5 7.3 7.6 12.8 14.8 13.9 7.3 1.1 14.5-1.3 21.4-3.8 1.4-.5 3.1-1.8 2.4-3.1l1.8 1.8z"/>
    <path class="st3" d="M170.2 272.4c-2-5.1 2.7-10.2 7.2-13.2s10-6.3 10.5-11.7c.7-7.7-8.9-12.3-11.3-19.6-3-9.4 6.4-17.7 10.3-26.7 2.4-5.4 2.8-11.5 3.8-17.3 1.3-7.5 3.8-15 3.1-22.5-.8-7.6-6.2-15.5-13.8-15.7-7.9-.2-13.5 7.4-17.6 14.2-4.1 6.8-8.4 14.1-8.7 22.1-.2 6.6 2.3 13.5-.3 19.6-1.3 3-3.6 5.3-5.1 8.2-4.7 9.2.9 20 2.7 30.2 1.3 7.3.7 15 3.1 22.1 2.4 7 9.5 13.5 16.7 11.4l-.6-1.1zm-34.9-92.3c-1.3-6.1-2.5-12.1-3.8-18.2-1.2-5.9-2.5-12-6-17-4.3-6.2-11.6-9.9-16.3-15.8-3.5-4.3-5.5-9.7-9-14-3.5-4.3-9.3-7.7-14.5-5.6-5.6 2.2-7.3 9.1-7.8 15-.5 5.3-.5 10.7 1.2 15.7 2 5.6 6 10.2 8.5 15.6 2.6 5.6 3.4 11.9 6.7 17.1 6 9.6 18.4 12.7 29.5 15 2.9.6 6.2 1.2 8.8-.3 2.6-1.5 3.6-5.9 1-7.3l1.7-.2z"/>
    <path class="st0" d="M148.8 206.3c5-3.6 7.2-9.9 9.2-15.7 2.3-7.1 4.6-15 1.3-21.7-3.6-7.2-12.2-10-20-12.1-3.9-1.1-8.6-2-11.7.6-1.5 1.3-2.4 3.2-3 5.1-2.8 8.1-3.7 17-1.4 25.3 2.3 8.3 7.8 15.8 15.6 19.5 3.3 1.6 7.3 2.4 10.6 1 3.4-1.4 5.6-5.8 3.7-9l-4.3 7z"/>
    <path class="st3" d="M211.1 172.4c16.4-10.7 30-25.5 39.3-42.7 2.9-5.4 5.4-11.1 9.9-15.2 5.5-5.1 14-8.2 15.3-15.5.6-3.4-.6-6.8-1.7-10.1-1.9-5.2-3.8-10.5-7.3-14.9-3.4-4.3-8.7-7.6-14.2-7.2-6.9.5-12.1 6.3-16.4 11.8-7.6 9.8-14.8 19.9-21.5 30.4-2.8 4.3-5.5 8.7-7 13.5-1.9 5.9-1.9 12.3-2 18.5 0 8.2 1.2 18.4 8.8 21.4l-3.2 10zm-16.6-53.7c1.5-7.2 3.1-14.4 6.4-21 2-3.9 4.6-7.5 6.6-11.4 3.9-7.4 5.7-15.6 7.5-23.8 3.6-16.5 7.1-34.8-1.1-49.6-2.8-5-6.9-9.5-12.3-11.6-5.3-2.1-11.9-1.6-16.3 2-2.7 2.3-4.4 5.5-5.8 8.8-5 12.2-6.5 25.6-7.5 38.9-1.1 14.5-1.8 29-2.1 43.5-.1 5.6-.1 11.3 1.8 16.6 1.9 5.2 6.2 10 11.8 10.8 5 .7 10.3-2.1 12.4-6.7l-1.4 3.5zm20.6 162.1c1.2-3.1-3.3-5.4-4.3-8.6-1.1-3.5 2.3-6.8 5.7-8 3.4-1.2 7.3-1.3 10.3-3.4 4.9-3.5 5.4-10.8 9.7-15 2.8-2.7 6.7-3.8 10-5.8 5.2-3.2 8.9-8.7 14.8-10.4 5.6-1.7 12.2 1.1 15 6.3 3.3 6.4.7 14.2-1.9 20.9-2.3 5.8-4.5 11.5-6.8 17.3-.9 2.3-1.9 4.8-4 6.2-3.5 2.4-8.4.9-12.4 2.2-3.7 1.3-6.1 4.9-9.3 7.2-4.7 3.5-11.3 4.1-16.5 1.6-5.2-2.5-8.8-8.1-9-13.9l-1.3 3.4z"/>
    <path class="st4" d="M118.5 242.8c-6.3-6.3-9.7-14.7-11.8-23.2-2.4-9.6-3.2-19.5-6-29-.8-2.7-1.8-5.4-2.9-8-1.2-2.7-2.4-5.3-3.4-8-.3-.9 1.1-1.3 1.5-.4 1.7 4.8 4.2 9.2 5.8 14.1 1.5 4.7 2.5 9.5 3.4 14.4 1.6 9.1 2.9 18.3 6.6 26.8 1.9 4.5 4.5 8.7 8 12.2.6.7-.5 1.8-1.2 1.1zm51.2 31c-3.8-8.1-7.6-16.7-7.8-25.9 0-2.2.2-4.5.6-6.6.5-2.2 1.5-4.2 2-6.4.6-2.4.1-4.7-.6-7.1-.6-2.3-1.2-4.6-1.5-6.9-.8-5.3-.7-10.6.1-15.9.2-1 1.6-.6 1.5.4-.8 4.6-.8 9.3-.3 14 .3 2.3.8 4.6 1.4 6.9.6 2.2 1.3 4.5 1.2 6.8-.1 2.3-1.1 4.4-1.8 6.5-.7 2.1-1 4.2-1.1 6.4-.2 4.4.6 8.7 1.9 12.9 1.5 4.9 3.6 9.6 5.7 14.2.5.8-.9 1.6-1.3.7zm51-47.6c4.2-5.7 2.9-13.3 1.1-19.6-1.1-3.7-2.3-7.4-3-11.2-.3-1.9-.5-3.9-.4-5.9.1-2.1.3-4.1.3-6.2-.1-4.6-1.6-9-3-13.2-.3-.9 1.2-1.3 1.5-.4 1.3 3.9 2.6 7.8 3 12 .2 2.1 0 4.2-.1 6.3-.1 2.1-.1 4.1.1 6.1 1.1 7.5 4.7 14.5 4.9 22.2.1 3.8-.7 7.7-3 10.8-.7.7-2-.1-1.4-.9z"/>
    <path class="st4" d="M262.2 191.3c-2.5 3-5 6-7.4 9-2.2 2.7-4.4 5.5-6.9 8-2.4 2.4-5.2 4.2-8.3 5.4-3.1 1.2-6.3 2.1-9.2 3.7-2.8 1.5-5.5 3.8-6.3 7.1-.2 1-1.7.5-1.5-.4 1.7-6.4 8.5-8.9 14.1-10.8 3.3-1.2 6.4-2.5 9-4.9 2.7-2.4 4.9-5.2 7.1-7.9l8.4-10.2c.6-.8 1.6.3 1 1zm-47.4-35.5c.4-4.5 1.5-8.8 3.4-12.9s4.6-7.7 7.6-11.2c2.9-3.4 5.9-6.8 8.2-10.7 2.3-3.8 4.2-7.9 5.9-12 1.9-4.7 3.4-9.5 4.9-14.3.3-.9 1.8-.5 1.5.4-2.7 8.4-5.4 17-9.8 24.7-2.2 3.9-4.9 7.4-7.8 10.8-2.9 3.4-5.9 6.8-8.1 10.8-2.4 4.4-3.9 9.3-4.3 14.3 0 1.1-1.6 1.1-1.5.1z"/>
    <path class="st4" d="M249.6 107.5c-2.7 3.7-6.7 6.5-11.2 7.7-1 .2-1.4-1.2-.4-1.5 4.1-1.1 7.8-3.5 10.3-6.9.2-.3.7-.5 1-.3.4.1.6.7.3 1zm-19.6 2c-3.2 6.5-3.8 14.2-1.6 21.2.3.9-1.2 1.3-1.5.4-2.3-7.4-1.7-15.5 1.7-22.4.5-.8 1.8-.1 1.4.8z"/>
    <path class="st5" d="M224.4 164c-1.8-3.4-5.3-5.9-9.2-6.3-4-.4-8.1 1.4-10.5 4.7-.6.8-1.9 0-1.3-.8 2.1-2.9 5.3-4.8 8.8-5.3 3.5-.5 7 .4 9.8 2.6 1.6 1.2 2.9 2.7 3.8 4.4.4.8-1 1.6-1.4.7zm-92.5-10c-5.8 3.2-8.4 10-8.9 16.3-.3 3.9 0 7.7.3 11.6.3 3.5.6 7 1.2 10.5.7 3.8 1.9 7.5 3.9 10.8.5.8-.8 1.6-1.3.8-3.9-6.2-4.7-13.6-5.2-20.7-.6-7.6-1.3-15.6 2.1-22.7 1.6-3.3 4-6.2 7.2-7.9.8-.5 1.6.8.7 1.3z"/>
    <path class="st4" d="M120.1 170.8c-3.2-2.3-6.4-4.5-9.1-7.4-2.6-2.8-4.6-6.1-6.1-9.6-2.9-6.8-4.2-14.1-7.4-20.7-1.7-3.5-4-6.8-7.2-9.2-.8-.6 0-1.9.8-1.3 5.7 4.3 8.7 11 10.9 17.6 2.3 7.1 4 14.7 8.8 20.6 2.8 3.5 6.5 6.1 10.1 8.6.7.7 0 2-.8 1.4z"/>
    <path class="st5" d="M121.1 188c-8.7-2-16.7-6.6-22.8-13.1-1.7-1.8-3.3-3.8-4.6-5.9-.5-.8.8-1.6 1.3-.8 4.7 7.1 11.6 12.8 19.6 16.1 2.3.9 4.6 1.7 7 2.2.8.2.4 1.7-.5 1.5z"/>
    <path class="st4" d="M146.3 154.5c.4-10.8-2.7-21.6-8.7-30.5-1.7-2.5-3.6-4.9-5.7-7.1-.7-.7.4-1.8 1.1-1.1 7.8 7.9 12.8 18.4 14.4 29.4.4 3.1.6 6.2.5 9.3-.1 1-1.7 1-1.6 0zm43.8-106.3c-.9 9.4-1.7 18.8-2.6 28.2-.9 9.4-1.7 18.7-2.6 28.1-.5 5.3-1 10.6-1.4 15.9-.1 1-1.6 1-1.5 0 .9-9.4 1.7-18.8 2.6-28.2.9-9.4 1.7-18.7 2.6-28.1.5-5.3 1-10.6 1.4-15.9.1-.9 1.6-.9 1.5 0z"/>
    <path class="st4" d="M198.3 67.6c-2.3 5.7-5.9 10.8-10.5 14.9-.7.7-1.8-.4-1.1-1.1 4.4-3.9 7.8-8.8 10.1-14.2.4-.9 1.9-.5 1.5.4zm-17.9 11.7c-2.1 7.3-.1 15.5 5.1 21.1.7.7-.4 1.8-1.1 1.1-5.6-5.9-7.7-14.7-5.5-22.6.2-.9 1.7-.5 1.5.4zm26.1 29.6c-4.5 9.9-8.3 20-11.5 30.4-.9 2.9-1.7 5.9-2.5 8.9-.2 1-1.7.5-1.5-.4 2.8-10.6 6.2-21 10.4-31.1 1.2-2.9 2.4-5.7 3.7-8.5.5-.9 1.8-.1 1.4.7z"/>
    <path class="st4" d="M192.8 123.8c.4 4.1 1.5 8 3.2 11.8.4.9-.9 1.7-1.3.8-1.8-4-2.9-8.2-3.4-12.5-.1-1.1 1.4-1.1 1.5-.1zm8.3 16.8c-.7 2.2-2.8 3.8-5.2 3.9-.4 0-.8-.4-.8-.8s.3-.8.8-.8h.6c.2 0 .5-.1.7-.2.3-.1.4-.2.5-.2.2-.1.4-.2.6-.4.1-.1.1-.1.2-.1.1-.1.2-.1.2-.2.1-.1.2-.2.2-.3.2-.3 0 0 .1-.2s.3-.4.4-.6c0-.1.1-.2.1-.3-.1.2 0 0 0-.1s0-.1.1-.2c.1-.4.5-.7.9-.5.5.2.8.6.6 1zm48.6 8.3c-2.3 8.4-4.4 16.9-6.3 25.4l-1.5 7.2c-.2 1-1.7.6-1.5-.4 1.7-8.5 3.6-17 5.8-25.5.6-2.4 1.3-4.8 1.9-7.1.4-1 1.8-.5 1.6.4z"/>
    <path class="st4" d="M252.1 160.8c-2.1 2.1-4.6 3.7-7.3 4.8-.4.2-.8-.2-.9-.5-.1-.4.1-.8.5-.9 2.5-1 4.8-2.5 6.7-4.4.7-.8 1.7.3 1 1zm-8.1-6.9c.2 2.1.8 4.2 1.9 6 .5.9-.8 1.6-1.3.8-1.2-2.1-1.9-4.4-2.1-6.8 0-.4.4-.8.8-.8s.7.3.7.8zm-132.5 48.7c-1.1 2.9-2.8 5.5-5.1 7.5-.7.7-1.8-.4-1.1-1.1 2.1-1.9 3.7-4.2 4.7-6.8.1-.4.5-.7.9-.5.4.1.8.5.6.9zm-13.4-9.5c1.2 2 2.8 3.7 4.9 4.8.4.2.5.7.3 1-.2.4-.7.5-1 .3-2.2-1.3-4.1-3.1-5.4-5.4-.2-.4-.1-.8.3-1 .2-.2.7 0 .9.3zm-15 89.3c-4.9-8.2-11.5-15.3-19.5-20.6-4.4-3-9.2-5.2-13.8-7.6-4.7-2.4-9.2-5.2-13.5-8.4-4.8-3.6-9.3-7.5-13.7-11.4-.7-.6.3-1.7 1.1-1.1 8 7 16.1 13.9 25.7 18.9 4.8 2.5 9.7 4.7 14.2 7.6 4 2.6 7.8 5.6 11.1 9 3.8 3.8 7.1 8.1 9.8 12.7.4 1-.9 1.8-1.4.9z"/>
    <path class="st4" d="M41.9 238.5c1.9 3.5 3.1 7.3 3.4 11.3.1 1-1.5 1-1.5 0-.2-3.7-1.3-7.3-3.1-10.5-.6-.9.7-1.7 1.2-.8zm49.8 63.1c-10.2-.5-20.5-1.1-30.7-1.6-9.3-.5-18.7-1.2-28-.1-5.1.6-10.2 1.8-15 3.9-.9.4-1.7-.9-.8-1.3 8.6-3.7 18-4.7 27.2-4.7 4.7 0 9.5.3 14.2.5 5.2.3 10.4.6 15.5.8l17.4.9c1.2.1 1.2 1.7.2 1.6z"/>
    <path class="st4" d="M49.8 298.1c-2.2-2.2-5-3.7-8.1-4.1-.4-.1-.6-.6-.5-.9.1-.4.5-.6.9-.5 3.3.5 6.5 2.1 8.8 4.5.7.6-.4 1.7-1.1 1zm14.3 2.5c-1.6 4.7-5.8 8.1-10.7 8.7-.4 0-.8-.4-.8-.8 0-.5.4-.7.8-.8 4.2-.5 7.9-3.6 9.2-7.5.3-.9 1.8-.5 1.5.4zm74.8-19.5c-8.5-2.2-17.1-4.1-25.8-5.6l-7.5-1.2c-1-.1-.6-1.6.4-1.5 8.7 1.3 17.4 3 26 5 2.5.6 4.9 1.2 7.3 1.8.9.2.5 1.7-.4 1.5z"/>
    <path class="st4" d="M119 271.7c1.1 1.2 2.2 2.5 3.3 3.7.3.3.3.8 0 1.1-.3.3-.8.3-1.1 0-1.1-1.2-2.2-2.5-3.3-3.7-.3-.3-.3-.8 0-1.1.3-.2.8-.3 1.1 0zm50.8-61.4c-1.1 3.1-2.6 5.9-4.5 8.5-.2.3-.7.5-1 .3-.3-.2-.5-.7-.3-1 1.9-2.5 3.3-5.2 4.4-8.2.3-.9 1.7-.5 1.4.4zm-10.7 24.1c.3 3.4 1.5 6.6 3.5 9.3.2.3.1.9-.3 1-.4.2-.8.1-1-.3-2.2-2.9-3.4-6.4-3.7-10.1-.1-.9 1.4-.9 1.5.1zm33.4-7c.5 9 1 17.9 1.5 26.9.1 2.5.3 5.1.4 7.6.1 1-1.5 1-1.5 0-.5-9-1-17.9-1.5-26.9-.1-2.5-.3-5.1-.4-7.6-.1-1 1.5-1 1.5 0z"/>
    <path class="st4" d="M197.3 239.3c-1.1 1.5-2.1 3-3.2 4.5-.2.3-.7.5-1 .3-.3-.2-.5-.7-.3-1 1.1-1.5 2.1-3 3.2-4.5.2-.3.7-.5 1-.3.4.2.6.7.3 1z"/>
    <path class="st5" d="M181.5 234.9c2.6 2.7 4.4 6 5.2 9.7.7 3.1.7 6.5-.9 9.3-.8 1.5-2.1 2.6-3.7 3.1-.9.3-1.3-1.2-.4-1.5 3.3-1 4.1-5.2 3.9-8.2-.4-4.2-2.3-8.2-5.2-11.2-.7-.9.4-1.9 1.1-1.2z"/>
    <path class="st4" d="M148.6 194.3c-2.5-7.4-6.1-14.5-10.7-20.9-1.3-1.8-2.7-3.6-4.2-5.3-.6-.7.4-1.8 1.1-1.1 5.3 6.1 9.6 13 12.8 20.5.9 2.1 1.7 4.2 2.4 6.4.3 1-1.1 1.4-1.4.4z"/>
    <path class="st4" d="M143.4 183.1c1.5-4 1.7-8.3.7-12.4-.2-1 1.2-1.4 1.5-.4 1.1 4.4.8 9-.7 13.2-.3.9-1.8.5-1.5-.4zm3 8.4c-2.6-1.2-5.2-2.4-7.8-3.7-.4-.2-.5-.7-.3-1 .2-.4.7-.5 1-.3 2.6 1.2 5.2 2.4 7.8 3.7.4.2.5.7.3 1-.2.4-.6.5-1 .3zm-2.9-68.5c.6 2.6.2 5.4-1.2 7.7-.5.8-1.8.1-1.3-.8 1.2-1.9 1.5-4.3 1-6.5-.2-1 1.3-1.4 1.5-.4zm2.2 20.3c-3.9-3.3-7.8-6.6-11.8-9.9-.8-.6.3-1.7 1.1-1.1 3.9 3.3 7.8 6.6 11.8 9.9.8.6-.3 1.7-1.1 1.1zm20.8-48.7c-2.3-8.3-5.8-16.2-10.3-23.4-1.3-2.1-2.6-4.1-4.1-6-.6-.8.7-1.6 1.3-.8 5.1 7 9.3 14.7 12.3 22.8.9 2.3 1.6 4.7 2.3 7 .3.9-1.2 1.3-1.5.4z"/>
    <path class="st4" d="M162.2 72.2c-.3 1.9-.5 3.8-.8 5.7-.1.4-.6.6-.9.5-.4-.1-.6-.5-.5-.9.3-1.9.5-3.8.8-5.7.1-.4.6-.6.9-.5.5.1.6.5.5.9zm1.4 17.1c-3.8-2.9-8.1-5.3-12.5-7.1-.9-.4-.5-1.8.4-1.5 4.6 1.8 8.9 4.2 12.9 7.2.7.7 0 2-.8 1.4zm95.8 158.1c-5.7 6.7-11.5 13.5-18.4 19-3.1 2.5-6.5 4.7-10 6.8-3.3 2-6.6 3.9-9.8 6.1-3.5 2.4-6.7 5.3-9 8.8-.5.8-1.9.1-1.3-.8 4.2-6.5 11-10.5 17.5-14.4 3.4-2 6.8-4 9.9-6.4 3.5-2.7 6.8-5.8 9.9-9 3.5-3.6 6.7-7.5 10-11.3.8-.6 1.9.5 1.2 1.2z"/>
    <path class="st4" d="M242.6 257.1c-1.8 2.7-2.1 6-.9 9 .2.4-.2.8-.5.9-.4.1-.8-.1-.9-.5-1.3-3.3-.9-7.2 1.1-10.2.4-.8 1.7 0 1.2.8zm6.9 15.2c-5.9 3.7-13.2 4.8-19.9 3.1-1-.2-.6-1.7.4-1.5 6.3 1.6 13.2.5 18.7-3 .9-.4 1.7.9.8 1.4zm11.9 12.5c8.9 1.6 17.6 3.8 26.2 6.5.9.3.5 1.8-.4 1.5-8.6-2.7-17.3-4.9-26.2-6.5-1-.2-.5-1.7.4-1.5z"/>
    <path class="st4" d="M282 286.9c-2.3 1.1-4.7 2.2-7 3.3-.4.2-.8.1-1-.3-.2-.3-.1-.9.3-1 2.3-1.1 4.7-2.2 7-3.3.4-.2.8-.1 1 .3.2.2.1.8-.3 1zm-67.5-104c1.1 2.2 2.8 4.1 4.9 5.5.3.2.5.7.3 1-.2.3-.7.5-1 .3-2.3-1.5-4.2-3.6-5.4-6-.2-.4-.1-.8.3-1 .2-.3.7-.2.9.2zm43 25.2c-2.8.8-5.8 1-8.7.5-.4-.1-.6-.6-.5-.9.1-.4.5-.6.9-.5 2.6.5 5.3.3 7.9-.5.9-.4 1.4 1.1.4 1.4zm-52.9-51.8c-2.8-1.3-6.3.3-7.5 3-.2.4-.7.5-1 .3-.4-.2-.4-.7-.3-1 1.5-3.6 6.1-5.1 9.6-3.5.4.2.5.7.3 1-.3.3-.7.4-1.1.2zm-7.1 36.1c-1.4 7.1-4 13.9-7.7 20.1-.5.9-1.8.1-1.3-.8 3.6-6.1 6.1-12.8 7.5-19.7.2-.9 1.7-.5 1.5.4z"/>
    <path class="st4" d="M198.3 202.5c-1.7 1-3.5 2-5.2 3.1-.4.2-.8.1-1-.3-.2-.4-.1-.8.3-1 1.7-1 3.5-2 5.2-3.1.4-.2.8-.1 1 .3.2.3.1.8-.3 1zm-4.5-11.6c-.1 2.5.3 5 1.2 7.4.1.4-.2.8-.5.9-.4.1-.8-.1-.9-.5-.9-2.5-1.4-5.2-1.2-7.8 0-1 1.5-1 1.4 0zm-89.4-57.4c-.6 1.9-1.1 3.9-1.7 5.8-.3.9-1.7.5-1.5-.4.6-1.9 1.1-3.9 1.7-5.8.3-.9 1.8-.5 1.5.4zm.7 22.3c-2.4-2.7-5.4-4.9-8.7-6.3-.4-.2-.5-.7-.3-1 .2-.4.7-.4 1-.3 3.4 1.5 6.5 3.8 9 6.6.8.6-.3 1.7-1 1z"/>
</svg>
