<svg xmlns="http://www.w3.org/2000/svg" width="252.7" height="420.6" style="overflow:visible;enable-background:new 0 0 252.7 420.6" xml:space="preserve">
    <path d="M103.5 200.9C98 212.8 80.7 218.7 69 211.8s-12.9-25.5-1.5-32.8c-7.3 8.5-19.6 12.8-31 10.9-11.4-1.9-21.4-9.9-25.3-20.2-2.1-5.8-1.9-13.2 3.2-16.9-1.7 4.3-11 3.6-12-.9-6.3-28.3 1.6-39.8 6.6-46.8 2.9-4.1 6.1-8.4 10.8-10.7 4.6-2.4 11.1-2.3 14.6 1.5-9.9-10.7-3.9-28 6.3-38.5C46 52 52.6 47.3 60.3 46.1c7.7-1.2 16.5 2.1 19.6 8.9-2.9-14.3 1-29.9 11.1-40.8S117.6-2.5 132.7.7c15 3.2 27.6 15.7 29.1 30.2 5-9.3 18.8-13.3 28.5-8.2 9.6 5.2 13.1 18.4 7.2 27.2 8.6.8 17.5 1.8 24.8 6 7.3 4.3 12.6 12.9 9.8 20.6-.8 2.3-2.3 4.7-1.5 7 .6 1.7 2.3 2.8 3.8 3.9 13.1 9.6 16.3 29.2 6.9 42 8.1 6.6 12.6 17 11.6 27s-7.5 19.5-16.8 24.5c-3.1 1.6-7.9 2.3-9.3-.8 1.9-2.1 6 0 6.3 2.8.3 2.7-1.7 5.2-3.7 7.2-11.6 11.3-29 17-45.5 15-2.3-.3-5-1-5.8-3.1-.8-2.1 2.8-4.4 3.8-2.4-5.4 12.7-24.8 17.8-36.4 9.4 1.7 3.8-.5 8.8-4.5 10.4-4.1 1.6-9.3-.4-11-4.2-.4 5.8-7.6 10.3-13.4 8.4-5.9-1.9-8.5-9.6-5-14.4l-8.1-8.3z" style="fill:#69af6c"/>
    <path d="M112.1 406.5c-1.2-55.8-2.5-111.6-3.7-167.4-.1-5.7-.3-11.3-1.5-16.9-1.2-5.3-3.3-10.3-5.5-15.4-12.5-29.4-25.1-58.8-37.6-88.2 1-1.3 2.8-2 4.5-1.8 4.4 16.2 10.8 31.9 19.2 46.7-1-18.3-2.1-36.6-3.1-54.8 2.1-.2 4.3-.4 6.4-.6-2.7 33.2 7.4 67.1 27.9 94.1 3.2-36 9.7-107.9 9.7-107.9l4.9-4.6 1.2 54.9c5.8-11.9 11.5-23.9 17.3-35.8 2.2 2.4 4.4 4.7 6.6 7.1-17.9 23.3-25.5 53.3-20.7 81.7 24.3-29.4 66.6-92.5 66.6-92.5l6 8.1s-23.7 34.7-35.6 52.1c11.9 0 23.8.1 35.7.1-.4 2.5-.7 5-1.1 7.5-9.8-.4-19.7-.8-29.5-1.2-3.3-.1-6.8-.2-9.8 1.2-2.7 1.3-4.7 3.7-6.5 6-7.5 9.4-15 18.8-22.6 28.2-2.3 2.9-4.6 5.8-6.1 9.2-1.9 4.5-2.1 9.5-2.3 14.4-1.8 58.3-3.5 116.5-5.3 174.8-6.4-1.1-8.7-2.2-15.1-3.3v4.3z" style="fill:#b7782f"/>
    <path d="M125.5 37.8c-1.6-4.3 1.6-8.9 5.9-10.5 5.2-1.9 11.2.2 15.3 3.2 3.4 2.5 6.1 6 7.7 9.8 1.6 3.8 2.3 8 2 12.2-.3 4.1-1.7 8.1-4.1 11.5-.3.4-.6.9-1 1.3.2 0 .3 0 .5-.1-3.8-1.5-5.6-5.3-5.6-9 0-3.8 1.7-7.7 5.1-9.9 4.2-2.6 9.6-2.4 14.1-.7 2.3.9 4.5 2.3 6.2 3.9 2 1.9 3.4 4.2 4.5 6.6 2.2 5.2 2.4 11.1 1.4 16.5-.1.7-.3 1.4-.4 2-.1.5.6.7.8.2 1.2-4.7 4.2-8.9 8.4-11.6 4.1-2.8 9.3-4 14.3-3 4.9 1 9.3 3.9 11.9 7.9 1.3 2 2.1 4.2 2.3 6.5.2 2.3-.3 4.5-1.2 6.6-1.8 4.1-5.5 7.7-10.1 8.9-.6.2-1.2.3-1.8.4-.5.1-.3.8.2.7 5-.7 9.2-4 11.6-8.1 2.4-4.3 2.8-9.3.6-13.7-2.2-4.5-6.5-7.8-11.4-9.4-5.1-1.6-10.6-.9-15.2 1.6s-8.2 6.6-9.9 11.3c-.2.6-.4 1.2-.5 1.8.3.1.5.1.8.2 1.3-5.7 1.5-11.8-.4-17.4-.9-2.7-2.3-5.2-4.2-7.4-1.7-1.9-3.8-3.5-6.2-4.6-4.6-2.2-10.2-2.8-14.9-.6-4 1.9-6.4 5.8-6.8 9.9-.4 3.8 1 8 4.6 10.2.4.3.9.5 1.4.7.1.1.4.1.5-.1 2.9-3.4 4.6-7.5 5.2-11.8.6-4.3.1-8.8-1.5-12.9-1.5-4.1-4.1-7.8-7.6-10.6-4.2-3.3-10.1-5.6-15.6-4.2-4.6 1.1-8.5 5.5-7.9 10.1.1.6.2 1.1.4 1.6 0 .6.7.4.6 0zM111 58.2c.2-.7.1-1.4-.2-2.1-.4-.6-1-1.1-1.7-1.4-1.6-.8-3.5-1-5.2-.7-1 .1-1.9.4-2.9.8s-2 .8-2.9 1.3c-1.9 1-3.6 2.2-5.2 3.6-3 2.8-5.2 6.4-5.6 10.4-.4 4 1.3 7.8 4.2 10.7 2.8 2.7 6.8 4.4 10.8 3.8l1.5-.3c.5-.1.3-.8-.2-.7-4.4.7-6.3 5.3-5.9 9.1.2 2.1 1.1 4.1 2.6 5.6 1.9 1.9 4.5 3.1 7.1 3.8 3.1.8 6.4 1 9.6.9.5 0 .5-.8 0-.7-5.2.2-11.2-.3-15.3-3.7-.9-.7-1.6-1.5-2.2-2.4-.5-.8-.8-1.7-1-2.7-.4-1.8-.2-3.8.6-5.5.8-1.9 2.5-3.3 4.6-3.7-.1-.2-.1-.5-.2-.7-3.7 1.1-7.6 0-10.5-2.3-2.9-2.3-5-5.8-5.1-9.5-.1-3.8 1.6-7.4 4.2-10.2 2.6-2.9 6.2-5.1 10-6.3.8-.3 1.7-.5 2.5-.5s1.7 0 2.5.2c1.2.3 2.9.9 3.1 2.3.1.3 0 .6-.1.9.1.2.8.4.9 0zm-3.9 359.3c-7.2-8.4-13.4-17.7-18.4-27.5-3-6-5.2-14.1.1-18.5 10 7.1 17.8 17 21.9 28.2-.3-13.8 5.5-27.6 15.8-37.4 5.1 10.6 1.9 23-1.4 34.2 4-6.6 8.9-12.8 14.7-18.1 1.4-1.3 3.1-2.7 5.1-2.6 4.9 0 5.4 6.8 3.9 11.1-3.9 11.9-9.4 23.3-16.4 33.8l-25.3-3.2z" style="fill:#0e8e1e"/>
</svg>
