<svg version="1.1" id="圖層_1" xmlns="http://www.w3.org/2000/svg" x="0" y="0" viewBox="0 0 157.4 132" style="enable-background:new 0 0 157.4 132" xml:space="preserve">
    <style>
        .st2{fill:#fff}
    </style>
    <linearGradient id="XMLID_12_" gradientUnits="userSpaceOnUse" x1="78.651" y1="-.11" x2="78.651" y2="65.89" gradientTransform="matrix(1 0 0 -1 0 65.89)">
        <stop offset=".027" style="stop-color:#b3b3b3"/>
        <stop offset=".156" style="stop-color:#666"/>
        <stop offset=".184" style="stop-color:#6e6e6e"/>
        <stop offset=".228" style="stop-color:#838383"/>
        <stop offset=".281" style="stop-color:#a5a5a5"/>
        <stop offset=".3" style="stop-color:#b3b3b3"/>
        <stop offset=".333" style="stop-color:#b6b6b6"/>
        <stop offset=".36" style="stop-color:#c1c1c1"/>
        <stop offset=".386" style="stop-color:#d2d2d2"/>
        <stop offset=".41" style="stop-color:#eaeaea"/>
        <stop offset=".416" style="stop-color:#f2f2f2"/>
        <stop offset=".449" style="stop-color:#ddd"/>
        <stop offset=".534" style="stop-color:#ababab"/>
        <stop offset=".599" style="stop-color:#8c8c8c"/>
        <stop offset=".634" style="stop-color:gray"/>
        <stop offset=".796" style="stop-color:#4d4d4d"/>
        <stop offset=".82" style="stop-color:#525252"/>
        <stop offset=".848" style="stop-color:#5f5f5f"/>
        <stop offset=".876" style="stop-color:#757575"/>
        <stop offset=".906" style="stop-color:#949494"/>
        <stop offset=".936" style="stop-color:#bcbcbc"/>
        <stop offset=".962" style="stop-color:#e6e6e6"/>
    </linearGradient>
    <path id="XMLID_7_" d="M147.1 66H10.3C4.6 66 0 61.4 0 55.7V10.3C0 4.6 4.6 0 10.3 0H147c5.7 0 10.3 4.6 10.3 10.3v45.4c.1 5.7-4.6 10.3-10.2 10.3z" style="fill:url(#XMLID_12_)"/>
    <linearGradient id="XMLID_13_" gradientUnits="userSpaceOnUse" x1="2.9" y1="32.89" x2="154.5" y2="32.89" gradientTransform="matrix(1 0 0 -1 0 65.89)">
        <stop offset=".027" style="stop-color:#b3b3b3"/>
        <stop offset=".156" style="stop-color:#666"/>
        <stop offset=".184" style="stop-color:#6e6e6e"/>
        <stop offset=".228" style="stop-color:#838383"/>
        <stop offset=".281" style="stop-color:#a5a5a5"/>
        <stop offset=".3" style="stop-color:#b3b3b3"/>
        <stop offset=".333" style="stop-color:#b6b6b6"/>
        <stop offset=".36" style="stop-color:#c1c1c1"/>
        <stop offset=".386" style="stop-color:#d2d2d2"/>
        <stop offset=".41" style="stop-color:#eaeaea"/>
        <stop offset=".416" style="stop-color:#f2f2f2"/>
        <stop offset=".449" style="stop-color:#ddd"/>
        <stop offset=".534" style="stop-color:#ababab"/>
        <stop offset=".599" style="stop-color:#8c8c8c"/>
        <stop offset=".634" style="stop-color:gray"/>
        <stop offset=".796" style="stop-color:#4d4d4d"/>
        <stop offset=".82" style="stop-color:#525252"/>
        <stop offset=".848" style="stop-color:#5f5f5f"/>
        <stop offset=".876" style="stop-color:#757575"/>
        <stop offset=".906" style="stop-color:#949494"/>
        <stop offset=".936" style="stop-color:#bcbcbc"/>
        <stop offset=".962" style="stop-color:#e6e6e6"/>
    </linearGradient>
    <path id="XMLID_6_" d="M144.2 63.3h-131C7.5 63.3 2.9 58.7 2.9 53V13c0-5.7 4.6-10.3 10.3-10.3h131c5.7 0 10.3 4.6 10.3 10.3v40c0 5.7-4.6 10.3-10.3 10.3z" style="opacity:.8;fill:url(#XMLID_13_);enable-background:new"/>
    <path id="XMLID_4_" class="st2" d="m144.2 63.3-101.7.2H13.9c-1.1 0-2.2 0-3.2-.3-2.1-.5-4-1.7-5.4-3.3-.7-.8-1.3-1.7-1.7-2.7s-.7-2-.8-3.1c-.1-2.2 0-4.2-.1-6.4v-35c0-1.1.2-2.2.6-3.2.7-2.1 2.1-3.9 3.9-5.1.8-.6 1.7-1.1 2.8-1.5 1-.3 2.1-.5 3.2-.5l101.7.1h28.6c1.1 0 2.1 0 3.2.3 2.1.5 4 1.7 5.4 3.3.7.8 1.3 1.7 1.7 2.7s.7 2 .8 3.1c.1 2.1 0 4.2 0 6.4v31.8c0 2.1.2 4.3-.6 6.3-.7 2-2.1 3.8-3.8 5-.9.6-1.8 1.1-2.8 1.4-1.1.3-2.1.5-3.2.5zm0 0c1.1 0 2.1-.2 3.1-.5s2-.8 2.8-1.4c1.7-1.2 3.1-3 3.8-5 .8-2 .6-4.2.6-6.3V18.3c0-2.1 0-4.2-.1-6.3-.1-1-.4-2.1-.8-3-.4-1-1-1.9-1.7-2.6-1.4-1.6-3.3-2.7-5.3-3.2-1-.3-2.1-.3-3.1-.3h-28.6L13.2 3c-1 0-2.1.2-3 .5-1 .3-1.9.8-2.8 1.4-1.7 1.1-3 2.8-3.7 4.8-.8 1.9-.6 4.1-.6 6.2v31.8c0 2.1-.1 4.3 0 6.3.1 1 .4 2 .8 3s1 1.8 1.7 2.6c1.4 1.6 3.2 2.7 5.2 3.2 1 .3 2 .3 3.1.3h28.6l101.7.2z"/>
    <linearGradient id="XMLID_14_" gradientUnits="userSpaceOnUse" x1="149.314" y1="63.63" x2="-.566" y2="-1.596" gradientTransform="matrix(1 0 0 -1 0 65.89)">
        <stop offset="0" style="stop-color:#ff104f"/>
        <stop offset="1" style="stop-color:#ce002c"/>
    </linearGradient>
    <path id="XMLID_3_" d="M142.9 62H14.5C8.8 62 4.2 57.4 4.2 51.7V14.3C4.2 8.6 8.8 4 14.5 4h128.3c5.7 0 10.3 4.6 10.3 10.3v37.4c.1 5.7-4.6 10.3-10.2 10.3z" style="fill:url(#XMLID_14_)"/>
    <linearGradient id="XMLID_15_" gradientUnits="userSpaceOnUse" x1="66.001" y1="96.913" x2="85.108" y2=".583" gradientTransform="matrix(1 0 0 -1 0 65.89)">
        <stop offset=".14" style="stop-color:#fff;stop-opacity:.9624"/>
        <stop offset=".845" style="stop-color:#fff;stop-opacity:0"/>
    </linearGradient>
    <path id="XMLID_1_" d="M141.2 59.5h-125c-5.1 0-9.3-4.2-9.3-9.3V15.8c0-5.1 4.2-9.3 9.3-9.3h125c5.1 0 9.3 4.2 9.3 9.3v34.4c0 5.1-4.2 9.3-9.3 9.3z" style="fill:url(#XMLID_15_)"/>
    <path class="st2" d="M23.5 26.4c1.8 1.3 3 2.3 3.6 3 .4.3.6.7.7 1.2 0 .5-.1.8-.3 1.1-.2.4-.6.6-1.1.6-.3 0-.6-.1-.8-.3-1.1-1.1-2.4-2.1-3.7-3.1-.5-.4-.8-.8-.8-1.2 0-.5.1-1 .4-1.3.2-.2.6-.4 1.1-.4.1 0 .5.2.9.4zm3.4 7.6c.4.2.6.6.6 1.4-.1.4-.2 1-.5 1.7-.4 1.1-1 2.8-1.9 5.1-.4.8-.7 1.5-1 2.3-.3.7-.8 1.1-1.5 1.2-.4-.1-.8-.3-1-.5s-.4-.6-.4-1.1c0-.4 1-2.8 2.9-7.3.3-.7.5-1.3.8-1.8.2-.7.6-1.1 1.1-1.1.2-.1.5 0 .9.1zm-2.3-14.9c1.8 1.4 3 2.4 3.5 3.1.4.3.6.7.7 1.2 0 .5-.1.8-.3 1.1-.2.4-.6.6-1.1.6-.3 0-.6-.1-.8-.4-1.1-1.1-2.4-2.2-3.7-3.3-.5-.4-.8-.8-.8-1.2 0-.6.1-1 .4-1.3.2-.2.6-.4 1.1-.4.2.2.5.4 1 .6zm11.1 8.2V23c-1.6.2-3.4.3-5.2.4-.9-.1-1.3-.7-1.3-1.8.1-.7.4-1.1 1.2-1.2 4.5-.2 8.7-.8 12.4-1.9.3-.1.5-.1.7-.1.4 0 .7.2.9.5s.4.7.4 1.1c0 .7-.3 1.1-1 1.4-1 .4-2.8.8-5.4 1.2v4.7h6.3c.4 0 .8.1 1 .3.2.2.3.6.3 1.1s-.1.8-.2 1.1c-.2.3-.6.5-1 .5h-6.3v3.9H43c1.3 0 1.9.7 1.9 2.1v6.9c0 1.4-.7 2.1-1.9 2.1H31.4c-1.3 0-1.9-.7-1.9-2.1v-6.9c0-1.4.6-2.1 1.9-2.1h4.3v-3.9h-6c-.4 0-.8-.1-1-.4-.2-.2-.3-.6-.3-1.2 0-.5.1-.8.3-1.1.2-.2.5-.3 1-.3h6zM42 41.8v-4c0-.5-.2-.7-.6-.7H33c-.4 0-.6.2-.6.7v4c0 .5.2.7.6.7h8.3c.5 0 .7-.3.7-.7zm23.2.2c.1.1.2.2.2.3 1-2.1 1.7-4.5 2.2-7.2s.7-5.6.7-8.9H67c-.4 0-.8-.1-1-.4-.2-.2-.3-.6-.3-1.2 0-.4.1-.8.3-1.1.2-.2.5-.4 1-.4h1.4v-3.8c0-.4.1-.8.4-1 .2-.2.5-.2.9-.3.5 0 .9.2 1.1.3.2.2.3.5.3 1v3.8h2.2c1.7 0 2.6 1.1 2.7 3.3 0 8-.1 13-.4 15-.1 1.5-.4 2.5-.9 3-.6.7-1.5 1.1-2.7 1.1-1 0-1.8-.2-2.3-.6-.5-.2-.7-.8-.7-1.7.1-.4.2-.7.4-.9.2-.2.5-.4.8-.4 0 0 .1 0 .2.1.5.3 1.1.4 1.6.4.7-.1 1-.7 1.1-1.9.1-2 .2-6.5.2-13.6 0-.4-.1-.7-.2-.8-.1-.1-.3-.2-.5-.2H71v.3c0 2.4-.1 4.8-.5 7.5-.6 4.3-1.7 8-3.2 11.1-.3.2-.7.4-1.2.5-.4 0-.8-.2-1.1-.4-.3-.2-.4-.6-.4-1h-.1l-11.8 1.2c-.4 0-.7-.2-.9-.4s-.3-.5-.3-.9.1-.6.2-.9c.2-.3.5-.4.8-.4l4.6-.4v-1.9h-4c-.4 0-.7-.1-.8-.3-.2-.2-.2-.5-.2-.9s.1-.7.2-.9c.2-.2.4-.2.8-.2h4v-1.3h-3.5c-1.2 0-1.8-.7-1.8-2v-6.1c0-1.3.6-2 1.8-2h3.5v-1.3h-4.8c-.4 0-.7-.1-.9-.3-.2-.2-.3-.5-.3-1 0-.4.1-.8.3-1s.5-.3.9-.3h4.8v-1.2c-1.4.1-2.9.2-4.5.2-.8-.1-1.2-.6-1.2-1.5.1-.6.4-.9 1.1-1.1 4-.1 7.7-.3 11.1-.7h.6c.3 0 .5.2.8.4.2.3.3.6.3.9 0 .5-.3.9-.8 1.2-.9.2-2.4.4-4.6.5v1.4h4.5c.4 0 .7.1.9.3.2.2.2.5.2 1 0 .4-.1.7-.2.9-.2.3-.5.4-1 .4H60v1.3h3.8c1.2 0 1.8.7 1.8 2v6.1c0 1.4-.6 2-1.8 2H60V38h4.1c.4 0 .7.1.8.3.2.2.2.5.2.9s-.1.6-.2.8c-.2.3-.5.4-.9.4h-4V42l4.3-.4c.4 0 .7.2.9.4zm-8-11.5v-1.7h-2c-.4 0-.5.2-.5.6v1.1h2.5zm0 2.2h-2.6v1.1c0 .4.2.6.5.6h2l.1-1.7zm2.8-2.2h2.9v-1.1c0-.4-.2-.6-.5-.6H60v1.7zm2.8 3.2v-1.1H60v1.7h2.3c.3 0 .5-.2.5-.6zm28-10.3c.4 0 .8.1 1 .3.2.2.3.5.3 1.1 0 .5-.1.8-.2 1-.2.3-.6.5-1 .5h-8.4c-.4 0-.7-.1-1-.3-.2-.2-.3-.5-.3-1.1 0-.5.1-.8.3-1.1.2-.2.5-.3 1-.3h8.3v-.1zm-1.6 12.7c1.2 0 1.8.7 1.8 2v5.1c0 1.3-.6 2-1.8 2h-5.4c-1.2 0-1.8-.7-1.8-2v-5.1c0-1.3.6-2 1.8-2h5.4zm.8-8.2c.4 0 .7.1.8.2.2.2.2.5.2.9s-.1.7-.2.9c-.2.3-.5.4-.9.4h-6.7c-.4 0-.7-.1-.8-.3-.2-.2-.2-.5-.2-1 0-.4.1-.7.2-.9.2-.2.4-.2.8-.2H90zm-.1 4.1c.4 0 .7.1.8.3.2.2.2.5.2.9s-.1.7-.2.9c-.2.3-.5.4-.9.4h-6.6c-.4 0-.7-.1-.8-.3-.2-.2-.2-.5-.2-1 0-.4.1-.7.2-.9.2-.2.4-.3.8-.3h6.7zm0-12.8c.4 0 .7.1.8.2.2.2.3.5.3 1.1 0 .5-.1.8-.2 1-.2.3-.5.4-1 .4h-6.4c-.4 0-.7-.1-.8-.3-.2-.2-.3-.5-.3-1.1 0-.5.1-.9.3-1.1.2-.1.4-.2.8-.2h6.5zM88.4 42v-2.7c0-.4-.2-.6-.5-.6h-2.8c-.4 0-.5.2-.5.6V42c0 .4.2.6.5.6h2.8c.3 0 .5-.2.5-.6zm8.3-23.4c.3.5.6 1 .8 1.6.5 1.3.9 2.2 1 2.8h1.8c.3-1.2.7-2.5 1.2-4 .2-.5.6-.8 1.3-.8.4 0 .7.1.9.2.3.2.4.5.4.8-.1.5-.4 1.8-1 3.8h1.7c.4 0 .7.1.9.3s.4.6.4 1.2c0 .5-.1.9-.2 1.1-.2.3-.6.5-1.1.5h-4.1v3.3h3.7c.4 0 .7.1.9.3.2.2.4.6.4 1.2 0 .5-.1.9-.2 1.1-.2.3-.6.5-1.1.5h-3.7v3.3h4.3c.4 0 .7.1.9.3s.3.6.3 1.2c0 .5-.1.9-.2 1.1-.2.3-.6.5-1.1.5h-4.3v5.3c0 .5-.1.9-.3 1.1-.2.3-.6.4-1 .4-.5 0-.8-.2-1.1-.4-.1-.3-.2-.7-.2-1.2v-5.3h-4.8c-.4 0-.7-.1-.9-.4-.2-.2-.4-.6-.4-1.2s.1-1 .4-1.2c.2-.2.5-.3.9-.3H98v-3.3h-4c-.4 0-.7-.1-.9-.4-.3-.2-.4-.6-.4-1.2s.1-1 .4-1.2c.2-.2.5-.3.9-.3h4V26h-4.2c-.4 0-.7-.1-.9-.4-.2-.2-.4-.6-.4-1.2s.1-1 .4-1.2c.2-.2.5-.3.9-.3h1.9c-.3-.8-.6-1.6-.9-2.5-.2-.3-.2-.6-.2-.9 0-.4.1-.7.5-1 .3-.2.6-.3.9-.3.2.1.5.2.7.4zm17.9 4.2c.3.2.5.5.5 1.1 0 .5-.1 1.1-.2 2-.5 3.7-.9 6.2-1.2 7.4-.2.5-.6.7-1.2.7-.4 0-.7-.1-1-.4-.2-.2-.3-.5-.3-.8 0-.2.1-.6.2-1.3.5-2.5 1-5.2 1.4-8.1.1-.5.4-.8.7-.8.5 0 .9.1 1.1.2zm11.9-3.2v-.5c0-.4.1-.7.4-1 .2-.2.5-.3 1-.3s.8.1 1.1.3c.3.3.4.6.4 1v.5h5.3c.4 0 .7.1.8.3.2.2.2.5.2.9s-.1.7-.2.9c-.2.3-.5.4-.9.4h-5.3v1.5h5c.4 0 .7.1.8.3.2.2.2.5.2.9s-.1.6-.2.8c-.2.3-.5.4-.9.4h-5v1.5h5.7c.4 0 .7.1.8.3.2.2.2.5.2.9s-.1.7-.2.9c-.2.3-.5.4-.9.4h-13.9c-.3 0-.5 0-.6-.2h-.2c-.3 0-.5 0-.6-.1s-.2-.2-.3-.4c-.3-1-.7-2.3-1.3-4v18.8c0 .4-.1.7-.2 1-.2.4-.6.6-1.1.6s-.8-.2-1.1-.5c-.2-.3-.3-.6-.3-1V19.8c0-.5.1-.8.4-1.1.2-.3.6-.4 1-.4s.7.2 1 .4c.2.3.4.6.4 1.1v3c.2-.1.3-.1.5-.1.3 0 .5.2.7.4l.9 1.8c0-.4.1-.7.2-.9.2-.2.4-.2.8-.2h5.1v-1.5h-5.4c-.4 0-.7-.1-.8-.3-.2-.2-.2-.5-.2-1 0-.4.1-.7.2-.9.2-.2.4-.3.8-.3h5.7v-.2zm-5.6 6.7c.2.5.3.9.4 1.3h5.3V26h-5.1c-.3 0-.5 0-.7-.2 0 .2 0 .4.1.5zm12 5.1c1.4 0 2.2.8 2.2 2.5v9.3c0 1-.2 1.6-.7 1.9-.5.4-1.2.6-2.1.6-1.9 0-3.3-.3-4.3-.8-.4-.2-.6-.6-.7-1.1 0-.9.3-1.4 1-1.4.2 0 .4.1.7.2 1 .4 1.9.6 2.7.6.3-.1.4-.2.4-.5v-1.8h-8.5v3.6c0 .5-.2.9-.4 1.1-.2.2-.6.3-1.1.3s-.9-.2-1.1-.4c-.2-.3-.3-.6-.3-1V33.8c0-1.6.6-2.5 1.9-2.5h10.3v.1zm-.7 3.7v-.8c0-.3-.1-.5-.3-.5h-7.7c-.4 0-.5.2-.5.5v.8h8.5zm0 3.5v-1.2h-8.5v1.2h8.5z"/>
    <linearGradient id="XMLID_16_" gradientUnits="userSpaceOnUse" x1="78.651" y1="-66.108" x2="78.651" y2="-.108" gradientTransform="matrix(1 0 0 -1 0 65.89)">
        <stop offset=".027" style="stop-color:#b3b3b3"/>
        <stop offset=".156" style="stop-color:#666"/>
        <stop offset=".184" style="stop-color:#6e6e6e"/>
        <stop offset=".228" style="stop-color:#838383"/>
        <stop offset=".281" style="stop-color:#a5a5a5"/>
        <stop offset=".3" style="stop-color:#b3b3b3"/>
        <stop offset=".333" style="stop-color:#b6b6b6"/>
        <stop offset=".36" style="stop-color:#c1c1c1"/>
        <stop offset=".386" style="stop-color:#d2d2d2"/>
        <stop offset=".41" style="stop-color:#eaeaea"/>
        <stop offset=".416" style="stop-color:#f2f2f2"/>
        <stop offset=".449" style="stop-color:#ddd"/>
        <stop offset=".534" style="stop-color:#ababab"/>
        <stop offset=".599" style="stop-color:#8c8c8c"/>
        <stop offset=".634" style="stop-color:gray"/>
        <stop offset=".796" style="stop-color:#4d4d4d"/>
        <stop offset=".82" style="stop-color:#525252"/>
        <stop offset=".848" style="stop-color:#5f5f5f"/>
        <stop offset=".876" style="stop-color:#757575"/>
        <stop offset=".906" style="stop-color:#949494"/>
        <stop offset=".936" style="stop-color:#bcbcbc"/>
        <stop offset=".962" style="stop-color:#e6e6e6"/>
    </linearGradient>
    <path id="XMLID_10_" d="M147.1 132H10.3C4.6 132 0 127.4 0 121.7V76.3C0 70.6 4.6 66 10.3 66H147c5.7 0 10.3 4.6 10.3 10.3v45.4c.1 5.7-4.6 10.3-10.2 10.3z" style="fill:url(#XMLID_16_)"/>
    <linearGradient id="XMLID_17_" gradientUnits="userSpaceOnUse" x1="2.9" y1="-33.108" x2="154.5" y2="-33.108" gradientTransform="matrix(1 0 0 -1 0 65.89)">
        <stop offset=".027" style="stop-color:#b3b3b3"/>
        <stop offset=".156" style="stop-color:#666"/>
        <stop offset=".184" style="stop-color:#6e6e6e"/>
        <stop offset=".228" style="stop-color:#838383"/>
        <stop offset=".281" style="stop-color:#a5a5a5"/>
        <stop offset=".3" style="stop-color:#b3b3b3"/>
        <stop offset=".333" style="stop-color:#b6b6b6"/>
        <stop offset=".36" style="stop-color:#c1c1c1"/>
        <stop offset=".386" style="stop-color:#d2d2d2"/>
        <stop offset=".41" style="stop-color:#eaeaea"/>
        <stop offset=".416" style="stop-color:#f2f2f2"/>
        <stop offset=".449" style="stop-color:#ddd"/>
        <stop offset=".534" style="stop-color:#ababab"/>
        <stop offset=".599" style="stop-color:#8c8c8c"/>
        <stop offset=".634" style="stop-color:gray"/>
        <stop offset=".796" style="stop-color:#4d4d4d"/>
        <stop offset=".82" style="stop-color:#525252"/>
        <stop offset=".848" style="stop-color:#5f5f5f"/>
        <stop offset=".876" style="stop-color:#757575"/>
        <stop offset=".906" style="stop-color:#949494"/>
        <stop offset=".936" style="stop-color:#bcbcbc"/>
        <stop offset=".962" style="stop-color:#e6e6e6"/>
    </linearGradient>
    <path id="XMLID_9_" d="M144.2 129.3h-131c-5.7 0-10.3-4.6-10.3-10.3V79c0-5.7 4.6-10.3 10.3-10.3h131c5.7 0 10.3 4.6 10.3 10.3v40c0 5.7-4.6 10.3-10.3 10.3z" style="opacity:.8;fill:url(#XMLID_17_);enable-background:new"/>
    <path id="XMLID_8_" class="st2" d="m144.2 129.3-101.7.2H13.9c-1.1 0-2.2 0-3.2-.3-2.1-.5-4-1.7-5.4-3.3-.7-.8-1.3-1.7-1.7-2.7s-.7-2-.8-3.1c-.1-2.2 0-4.2-.1-6.4v-35c0-1.1.2-2.2.6-3.2.7-2.1 2.1-3.9 3.9-5.1.8-.6 1.7-1.1 2.8-1.5 1-.3 2.1-.5 3.2-.5l101.7.1h28.6c1.1 0 2.1 0 3.2.3 2.1.5 4 1.7 5.4 3.3.7.8 1.3 1.7 1.7 2.7s.7 2 .8 3.1c.1 2.1 0 4.2 0 6.4v31.8c0 2.1.2 4.3-.6 6.3-.7 2-2.1 3.8-3.8 5-.9.6-1.8 1.1-2.8 1.4-1.1.3-2.1.5-3.2.5zm0 0c1.1 0 2.1-.2 3.1-.5s2-.8 2.8-1.4c1.7-1.2 3.1-3 3.8-5 .8-2 .6-4.2.6-6.3V84.3c0-2.1 0-4.2-.1-6.3-.1-1-.4-2.1-.8-3-.4-1-1-1.9-1.7-2.6-1.4-1.6-3.3-2.7-5.3-3.2-1-.3-2.1-.3-3.1-.3h-28.6L13.2 69c-1 0-2.1.2-3 .5-1 .3-1.9.8-2.8 1.4-1.7 1.1-3 2.8-3.7 4.8-.8 1.9-.6 4.1-.6 6.2v31.8c0 2.1-.1 4.3 0 6.3.1 1 .4 2 .8 3s1 1.8 1.7 2.6c1.4 1.6 3.2 2.7 5.2 3.2 1 .3 2 .3 3.1.3h28.6l101.7.2z"/>
    <linearGradient id="XMLID_18_" gradientUnits="userSpaceOnUse" x1="149.314" y1="-2.368" x2="-.566" y2="-67.594" gradientTransform="matrix(1 0 0 -1 0 65.89)">
        <stop offset="0" style="stop-color:#ff104f"/>
        <stop offset="1" style="stop-color:#ce002c"/>
    </linearGradient>
    <path id="XMLID_5_" d="M142.9 128H14.5c-5.7 0-10.3-4.6-10.3-10.3V80.3C4.2 74.6 8.8 70 14.5 70h128.3c5.7 0 10.3 4.6 10.3 10.3v37.4c.1 5.7-4.6 10.3-10.2 10.3z" style="fill:url(#XMLID_18_)"/>
    <linearGradient id="XMLID_19_" gradientUnits="userSpaceOnUse" x1="66.001" y1="30.915" x2="85.108" y2="-65.415" gradientTransform="translate(0 132.107)">
        <stop offset=".14" style="stop-color:#fff;stop-opacity:.9624"/>
        <stop offset=".845" style="stop-color:#fff;stop-opacity:0"/>
    </linearGradient>
    <path id="XMLID_2_" d="M150.5 81.8v34.4c0 5.1-4.2 9.3-9.3 9.3h-125c-5.1 0-9.3-4.2-9.3-9.3V81.8c0-5.1 4.2-9.3 9.3-9.3h125c5.1 0 9.3 4.2 9.3 9.3z" style="fill:url(#XMLID_19_)"/>
    <path class="st2" d="M23.5 93.9c1.8 1.3 3 2.3 3.6 3 .4.3.6.7.7 1.2 0 .5-.1.8-.3 1.1-.2.4-.6.6-1.1.6-.3 0-.6-.1-.8-.3-1.1-1.1-2.4-2.1-3.7-3.1-.5-.4-.8-.8-.8-1.2 0-.5.1-1 .4-1.3.2-.2.6-.4 1.1-.4.1 0 .5.2.9.4zm3.4 7.6c.4.2.6.6.6 1.4-.1.4-.2 1-.5 1.7-.4 1.1-1 2.8-1.9 5.1-.4.8-.7 1.5-1 2.3-.3.7-.8 1.1-1.5 1.2-.4-.1-.8-.3-1-.5-.2-.2-.4-.6-.4-1.1 0-.4 1-2.8 2.9-7.3.3-.7.5-1.3.8-1.8.2-.7.6-1.1 1.1-1.1.2-.1.5 0 .9.1zm-2.3-14.9c1.8 1.4 3 2.4 3.5 3.1.4.3.6.7.7 1.2 0 .5-.1.8-.3 1.1-.2.4-.6.6-1.1.6-.3 0-.6-.1-.8-.4-1.1-1.1-2.4-2.2-3.7-3.3-.5-.4-.8-.8-.8-1.2 0-.6.1-1 .4-1.3.2-.2.6-.4 1.1-.4.2.2.5.4 1 .6zm11.1 8.2v-4.3c-1.6.2-3.4.3-5.2.4-.9-.1-1.3-.7-1.3-1.8.1-.7.4-1.1 1.2-1.2 4.5-.2 8.7-.8 12.4-1.9.3-.1.5-.1.7-.1.4 0 .7.2.9.5.2.3.4.7.4 1.1 0 .7-.3 1.1-1 1.4-1 .4-2.8.8-5.4 1.2v4.7h6.3c.4 0 .8.1 1 .3.2.2.3.6.3 1.1s-.1.8-.2 1.1c-.2.3-.6.5-1 .5h-6.3v3.9H43c1.3 0 1.9.7 1.9 2.1v6.9c0 1.4-.7 2.1-1.9 2.1H31.4c-1.3 0-1.9-.7-1.9-2.1v-6.9c0-1.4.6-2.1 1.9-2.1h4.3v-3.9h-6c-.4 0-.8-.1-1-.4-.2-.2-.3-.6-.3-1.2 0-.5.1-.8.3-1.1.2-.2.5-.3 1-.3h6zm6.3 14.5v-4c0-.5-.2-.7-.6-.7H33c-.4 0-.6.2-.6.7v4c0 .5.2.7.6.7h8.3c.5 0 .7-.3.7-.7zm23.2.2c.1.1.2.2.2.3 1-2.1 1.7-4.5 2.2-7.2.5-2.7.7-5.6.7-8.9H67c-.4 0-.8-.1-1-.4-.2-.2-.3-.6-.3-1.2 0-.4.1-.8.3-1.1.2-.2.5-.4 1-.4h1.4v-3.8c0-.4.1-.8.4-1 .2-.2.5-.2.9-.3.5 0 .9.2 1.1.3.2.2.3.5.3 1v3.8h2.2c1.7 0 2.6 1.1 2.7 3.3 0 8-.1 13-.4 15-.1 1.5-.4 2.5-.9 3-.6.7-1.5 1.1-2.7 1.1-1 0-1.8-.2-2.3-.6-.5-.2-.7-.8-.7-1.7.1-.4.2-.7.4-.9.2-.2.5-.4.8-.4 0 0 .1 0 .2.1.5.3 1.1.4 1.6.4.7-.1 1-.7 1.1-1.9.1-2 .2-6.5.2-13.6 0-.4-.1-.7-.2-.8-.1-.1-.3-.2-.5-.2H71v.3c0 2.4-.1 4.8-.5 7.5-.6 4.3-1.7 8-3.2 11.1-.3.2-.7.4-1.2.5-.4 0-.8-.2-1.1-.4-.3-.2-.4-.6-.4-1h-.1l-11.8 1.2c-.4 0-.7-.2-.9-.4-.2-.2-.3-.5-.3-.9s.1-.6.2-.9c.2-.3.5-.4.8-.4l4.6-.4v-1.9h-4c-.4 0-.7-.1-.8-.3-.2-.2-.2-.5-.2-.9s.1-.7.2-.9c.2-.2.4-.2.8-.2h4v-1.3h-3.5c-1.2 0-1.8-.7-1.8-2V96c0-1.3.6-2 1.8-2h3.5v-1.3h-4.8c-.4 0-.7-.1-.9-.3s-.3-.5-.3-1c0-.4.1-.8.3-1 .2-.2.5-.3.9-.3h4.8v-1.2c-1.4.1-2.9.2-4.5.2-.8-.1-1.2-.6-1.2-1.5.1-.6.4-.9 1.1-1.1 4-.1 7.7-.3 11.1-.7h.6c.3 0 .5.2.8.4.2.3.3.6.3.9 0 .5-.3.9-.8 1.2-.9.2-2.4.4-4.6.5v1.4h4.5c.4 0 .7.1.9.3.2.2.2.5.2 1 0 .4-.1.7-.2.9-.2.3-.5.4-1 .4H60v1.3h3.8c1.2 0 1.8.7 1.8 2v6.1c0 1.4-.6 2-1.8 2H60v1.3h4.1c.4 0 .7.1.8.3.2.2.2.5.2.9s-.1.6-.2.8c-.2.3-.5.4-.9.4h-4v1.6l4.3-.4c.4 0 .7.2.9.4zm-8-11.5v-1.7h-2c-.4 0-.5.2-.5.6V98h2.5zm0 2.2h-2.6v1.1c0 .4.2.6.5.6h2l.1-1.7zM60 98h2.9v-1.1c0-.4-.2-.6-.5-.6H60V98zm2.8 3.2v-1.1H60v1.7h2.3c.3 0 .5-.2.5-.6zm28-10.3c.4 0 .8.1 1 .3s.3.5.3 1.1c0 .5-.1.8-.2 1-.2.3-.6.5-1 .5h-8.4c-.4 0-.7-.1-1-.3-.2-.2-.3-.5-.3-1.1 0-.5.1-.8.3-1.1.2-.2.5-.3 1-.3h8.3v-.1zm-1.6 12.7c1.2 0 1.8.7 1.8 2v5.1c0 1.3-.6 2-1.8 2h-5.4c-1.2 0-1.8-.7-1.8-2v-5.1c0-1.3.6-2 1.8-2h5.4zm.8-8.2c.4 0 .7.1.8.2.2.2.2.5.2.9s-.1.7-.2.9c-.2.3-.5.4-.9.4h-6.7c-.4 0-.7-.1-.8-.3-.2-.2-.2-.5-.2-1 0-.4.1-.7.2-.9.2-.2.4-.2.8-.2H90zm-.1 4.1c.4 0 .7.1.8.3.2.2.2.5.2.9s-.1.7-.2.9c-.2.3-.5.4-.9.4h-6.6c-.4 0-.7-.1-.8-.3-.2-.2-.2-.5-.2-1 0-.4.1-.7.2-.9.2-.2.4-.3.8-.3h6.7zm0-12.8c.4 0 .7.1.8.2.2.2.3.5.3 1.1 0 .5-.1.8-.2 1-.2.3-.5.4-1 .4h-6.4c-.4 0-.7-.1-.8-.3-.2-.2-.3-.5-.3-1.1 0-.5.1-.9.3-1.1.2-.1.4-.2.8-.2h6.5zm-1.5 22.8v-2.7c0-.4-.2-.6-.5-.6h-2.8c-.4 0-.5.2-.5.6v2.7c0 .4.2.6.5.6h2.8c.3 0 .5-.2.5-.6zm8.3-23.4c.3.5.6 1 .8 1.6.5 1.3.9 2.2 1 2.8h1.8c.3-1.2.7-2.5 1.2-4 .2-.5.6-.8 1.3-.8.4 0 .7.1.9.2.3.2.4.5.4.8-.1.5-.4 1.8-1 3.8h1.7c.4 0 .7.1.9.3s.4.6.4 1.2c0 .5-.1.9-.2 1.1-.2.3-.6.5-1.1.5h-4.1v3.3h3.7c.4 0 .7.1.9.3.2.2.4.6.4 1.2 0 .5-.1.9-.2 1.1-.2.3-.6.5-1.1.5h-3.7v3.3h4.3c.4 0 .7.1.9.3.2.2.3.6.3 1.2 0 .5-.1.9-.2 1.1-.2.3-.6.5-1.1.5h-4.3v5.3c0 .5-.1.9-.3 1.1-.2.3-.6.4-1 .4-.5 0-.8-.2-1.1-.4-.1-.3-.2-.7-.2-1.2v-5.3h-4.8c-.4 0-.7-.1-.9-.4-.2-.2-.4-.6-.4-1.2s.1-1 .4-1.2c.2-.2.5-.3.9-.3H98v-3.3h-4c-.4 0-.7-.1-.9-.4-.3-.2-.4-.6-.4-1.2s.1-1 .4-1.2c.2-.2.5-.3.9-.3h4v-3.3h-4.2c-.4 0-.7-.1-.9-.4-.2-.2-.4-.6-.4-1.2s.1-1 .4-1.2c.2-.2.5-.3.9-.3h1.9c-.3-.8-.6-1.6-.9-2.5-.2-.3-.2-.6-.2-.9 0-.4.1-.7.5-1 .3-.2.6-.3.9-.3.2.1.5.2.7.4zm17.9 4.2c.3.2.5.5.5 1.1 0 .5-.1 1.1-.2 2-.5 3.7-.9 6.2-1.2 7.4-.2.5-.6.7-1.2.7-.4 0-.7-.1-1-.4-.2-.2-.3-.5-.3-.8 0-.2.1-.6.2-1.3.5-2.5 1-5.2 1.4-8.1.1-.5.4-.8.7-.8.5 0 .9.1 1.1.2zm11.9-3.2v-.5c0-.4.1-.7.4-1 .2-.2.5-.3 1-.3s.8.1 1.1.3c.3.3.4.6.4 1v.5h5.3c.4 0 .7.1.8.3.2.2.2.5.2.9s-.1.7-.2.9c-.2.3-.5.4-.9.4h-5.3v1.5h5c.4 0 .7.1.8.3.2.2.2.5.2.9s-.1.6-.2.8c-.2.3-.5.4-.9.4h-5V95h5.7c.4 0 .7.1.8.3.2.2.2.5.2.9s-.1.7-.2.9c-.2.3-.5.4-.9.4h-13.9c-.3 0-.5 0-.6-.2h-.2c-.3 0-.5 0-.6-.1-.1-.1-.2-.2-.3-.4-.3-1-.7-2.3-1.3-4v18.8c0 .4-.1.7-.2 1-.2.4-.6.6-1.1.6s-.8-.2-1.1-.5c-.2-.3-.3-.6-.3-1V87.3c0-.5.1-.8.4-1.1.2-.3.6-.4 1-.4s.7.2 1 .4c.2.3.4.6.4 1.1v3c.2-.1.3-.1.5-.1.3 0 .5.2.7.4l.9 1.8c0-.4.1-.7.2-.9.2-.2.4-.2.8-.2h5.1v-1.5h-5.4c-.4 0-.7-.1-.8-.3-.2-.2-.2-.5-.2-1 0-.4.1-.7.2-.9.2-.2.4-.3.8-.3h5.7v-.2zm-5.6 6.7c.2.5.3.9.4 1.3h5.3v-1.6h-5.1c-.3 0-.5 0-.7-.2 0 .2 0 .4.1.5zm12 5.1c1.4 0 2.2.8 2.2 2.5v9.3c0 1-.2 1.6-.7 1.9-.5.4-1.2.6-2.1.6-1.9 0-3.3-.3-4.3-.8-.4-.2-.6-.6-.7-1.1 0-.9.3-1.4 1-1.4.2 0 .4.1.7.2 1 .4 1.9.6 2.7.6.3-.1.4-.2.4-.5v-1.8h-8.5v3.6c0 .5-.2.9-.4 1.1-.2.2-.6.3-1.1.3s-.9-.2-1.1-.4c-.2-.3-.3-.6-.3-1v-10.7c0-1.6.6-2.5 1.9-2.5l10.3.1zm-.7 3.7v-.8c0-.3-.1-.5-.3-.5h-7.7c-.4 0-.5.2-.5.5v.8h8.5zm0 3.5v-1.2h-8.5v1.2h8.5z"/>
</svg>
