<svg xmlns="http://www.w3.org/2000/svg" width="362.1" height="80.5" style="overflow:visible;enable-background:new 0 0 362.1 80.5" xml:space="preserve">
    <style>
        .st1{fill:#fff200}
    </style>
    <path d="M58.6 80.5h279.3c13.4 0 24.2-10.8 24.2-24.2V24.2c0-13.4-10.8-24.2-24.2-24.2H24.2C10.8 0 0 10.8 0 24.2v32.1c0 13.4 10.8 24.2 24.2 24.2h19.1" style="fill:#ed1c24"/>
    <path class="st1" d="M41.9 25c-1.7.3-3.5.5-5.3.7v4.7h6.8c-.2-3.1-.3-6.6-.3-10.3h4.4c0 3.9.1 7.4.2 10.3h10.8v4.8H48.1c.2 1.4.3 2.7.5 3.8.2 1.5.5 2.8.8 4.1 1.2-2 2.2-4.3 3.2-6.8l4.1 2.3c-1.7 4.2-3.6 7.6-5.5 10.3.9 2.3 1.7 3.4 2.3 3.4.2 0 .5-.2.7-.6.3-.8.5-2.3.6-4.5l4.3 2c-.5 3.4-1.3 5.8-2.7 7.1-.9.8-1.9 1.2-2.9 1.2-1.2 0-2.6-1.4-4.3-4.3-.3-.4-.5-.8-.7-1.3-2.1 2-4.5 3.7-7 5.1l-2.1-4.1c2.9-1.7 5.3-3.6 7.1-5.7-.6-1.7-1.1-3.5-1.5-5.5-.5-1.9-.8-4.1-1.1-6.6h-7.2v5c1.8-.3 3.5-.7 5-1.1l.6 4.6c-1.8.5-3.7 1-5.6 1.4v6c0 2.5-.3 4.2-.9 5.1-.7 1-2 1.5-3.8 1.5-1.7 0-3.3-.3-4.7-.7l-.8-5.1c1.6.6 3.3.8 4.9.8.3 0 .6-.2.7-.6.1-.5.2-1.2.2-2.2V46c-2.2.4-4.4.8-6.7 1.1l-.9-5.1c2.7-.3 5.2-.7 7.6-1.1v-5.8h-7.6v-4.8h7.6v-4.2c-1.5.2-3.1.3-4.7.4l-1.5-4.6c5.1-.3 9.8-.7 14.1-1.3l1.7 4.4zM57 26.2l-4 2.6c-.8-2.1-1.8-4-3.1-5.9l3.9-2.6c1.2 1.8 2.3 3.8 3.2 5.9zM99.1 20.6V25h-9.9v2h8.7v11.5H80.1l2.1.8-.6 1.5h18.3v4.6h-7c-.8 1.8-1.8 3.2-2.9 4.5 2.9 1 6 2.1 9 3.4l-2.2 4.6c-3.9-1.8-7.6-3.4-11.3-4.6-1.1.6-2.4 1.2-3.8 1.7-4.2 1.4-8.7 2.4-13.5 2.9l-1.3-4.6c5-.4 9-1.1 12.2-2l-3.3-.9c-.5.5-.9 1-1.2 1.4l-3.9-2.4c1.1-1.3 2.2-2.6 3.1-3.9h-7.1v-4.6h9.8c.4-.8.8-1.5 1.1-2.3h-9.1V27h8.4v-2h-9.6v-4.4h31.8zM76.9 34v-2.6h-4.3V34h4.3zM85 48.3c.3-.2.6-.4.9-.7.7-.7 1.4-1.4 1.9-2.2h-8.6c-.3.4-.5.8-.7 1.2 2.1.5 4.3 1 6.5 1.7zm.2-23.3h-4.4v2h4.4v-2zm-4.4 9h4.4v-2.6h-4.4V34zm8.5 0h4.6v-2.6h-4.6V34zM122.7 23.7c-2.6 1.2-5.4 2-8.4 2.6l.3 5.6c1.2-.3 2.3-.6 3.4-.9-.2-.8-.5-1.6-.7-2.4l3.9-2.1c1.1 2.7 2.1 5.7 2.9 9l-4.4 2.3-.6-2.7c-3 1.1-6.2 2.1-9.8 3l-1.8-4.6c1.1-.2 2-.4 2.9-.7l-.7-10.5c3.8-.5 7.3-1.5 10.6-2.9l2.4 4.3zm16.1 34.1h-4.3v-1.5h-18.6v1.5h-4.3V38.1h27.2v19.7zM123 45.2v-2.6h-7.1v2.6h7.1zm0 6.7v-2.5h-7.1v2.5h7.1zm18.3-31c-.2 7.9-.8 12.8-2 14.7-.9 1.3-2.3 2-4 2-.6 0-1.5 0-2.5-.2l-.9-4.7c1.4.1 2.5.2 3.4.2.5 0 .8-.3 1.1-.9.3-.9.5-3.1.6-6.5h-4.1c-.2 2-.3 3.5-.6 4.5-.5 1.6-1.1 3-2 4.3-1 1.5-2 2.7-3.2 3.6l-2.5-4.1c.8-.8 1.5-1.7 2.3-2.8.7-1 1.2-2.1 1.5-3.2.2-.6.3-1.4.4-2.4h-3.6v-4.6h16.1zm-14 24.3h7.2v-2.6h-7.2v2.6zm7.2 6.7v-2.5h-7.2v2.5h7.2zM183.2 26.3v4.4h-33.5v-4.4h33.5zm-3.3 31.5h-4.4v-1.3h-18.7v1.3h-4.5V44.5h27.6v13.3zm-.6-25.4v4.5h-26.6v-4.5h26.6zm0 6.1v4.4h-26.4v-4.4h26.4zm-.5-18.1v4.4h-25.2v-4.4h25.2zm-3.3 31.7V49h-18.7v3.1h18.7zM206.4 37.1H196v20.5h-4V20.8h14.4v16.3zm-3.9-10.3V25H196v1.8h6.5zm0 6.1v-2H196v2h6.5zm13 18.7H204v2.5h-4.1v-15h15.6v12.5zm-4.2-4.3v-3.9h-7.4v3.9h7.4zm12.4-26.5v30.8c0 4-1.6 6.1-4.8 6.1-1.1 0-2.5-.1-4-.3l-.9-5.1c1.4.4 2.8.6 4.1.6.9 0 1.3-1.1 1.3-3.3V37.1h-10.6V20.8h14.9zm-4.3 6V25h-6.7v1.8h6.7zm0 4.1h-6.7v2h6.7v-2zM248 37.1h-10.5v20.5h-4V20.8H248v16.3zm-4-10.3V25h-6.5v1.8h6.5zm0 6.1v-2h-6.5v2h6.5zm13 18.7h-11.5v2.5h-4.1v-15H257v12.5zm-4.1-4.3v-3.9h-7.4v3.9h7.4zm12.4-26.5v30.8c0 4-1.6 6.1-4.8 6.1-1.1 0-2.5-.1-4-.3l-.9-5.1c1.4.4 2.8.6 4.1.6.9 0 1.3-1.1 1.3-3.3V37.1h-10.6V20.8h14.9zm-4.3 6V25h-6.7v1.8h6.7zm0 4.1h-6.7v2h6.7v-2zM291.1 36.7v4.2h-5.2v2.6h4.7v4.2h-4.7v3.9c.8.2 1.6.3 2.5.4.9.1 2 .2 3.2.2l-1.7-3.2c1.4-.5 2.6-1 3.9-1.8h-2.1v-21h4.8l.3-1.6h-5.4v-4.3h16.1v4.3H301l-.3 1.6h6.1v21.2h-2.6c.5.4.9.7 1.3 1 .8.6 1.6 1 2.3 1.3l-2 2.7c.8 0 1.6-.1 2.3-.3L307 57h-7c-5.6 0-9.9-.2-12.8-.5-2.3-.3-4.4-.8-6.2-1.6-1-.5-1.9-1-2.6-1.6-.5 1.6-1 3.1-1.6 4.5l-3.1-3.3c.8-1.8 1.3-3.7 1.8-5.5.5-2 .8-4.2.9-6.6l3.7 1c-.1 1.8-.3 3.4-.5 4.9.8.8 1.5 1.4 2.3 1.9V41h-7.5v-4.2h16.7zm-.9-16.3v14.8h-14.6V20.4h14.6zm-4 5.4v-1.3h-6.7v1.3h6.7zm0 5.3v-1.5h-6.7v1.5h6.7zm16.6 20.5c-.9-.8-1.8-1.7-2.5-2.6l1.8-1.6h-5.2l1.6 1.5c-1.5 1.4-3.1 2.6-5 3.7 2 .1 4.2.1 6.6.1 1.3 0 2.6 0 3.7-.1-.4-.3-.7-.6-1-1zm.1-19.4v-1.8h-7.2v1.8h7.2zm0 5.4V36h-7.2v1.6h7.2zm0 5.5v-1.6h-7.2v1.6h7.2zM334.6 45.8h-3.8l-.8-23.2h5.4l-.8 23.2zm-4.5 8.1v-5.8h5.2v5.8h-5.2z"/>
</svg>
