<?xml version="1.0" encoding="utf-8"?>
<!-- Generator: Adobe Illustrator 25.0.0, SVG Export Plug-In . SVG Version: 6.00 Build 0)  -->
<svg version="1.1" id="圖層_1" xmlns="http://www.w3.org/2000/svg" xmlns:xlink="http://www.w3.org/1999/xlink" x="0px" y="0px"
	 viewBox="0 0 200 200" style="enable-background:new 0 0 200 200;" xml:space="preserve">
<style type="text/css">
	.st0{fill:#FBB040;}
	.st1{clip-path:url(#SVGID_3_);}
	.st2{fill:#FED5B7;}
	.st3{fill:#AA633C;}
	.st4{fill:#6DA8C6;}
	.st5{fill:#44788C;}
	.st6{opacity:0.31;fill:#AA633C;enable-background:new    ;}
	.st7{fill:#C23F37;}
	.st8{fill:#FFFFFF;}
	.st9{fill:#7A1E1B;}
</style>
<g>
	<circle id="SVGID_1_" class="st0" cx="100" cy="100" r="100"/>
</g>
<g>
	<g>
		<defs>
			<circle id="SVGID_2_" cx="100" cy="100" r="100"/>
		</defs>
		<clipPath id="SVGID_3_">
			<use xlink:href="#SVGID_2_"  style="overflow:visible;"/>
		</clipPath>
		<g class="st1">
			<path class="st2" d="M-49.8,250.9c-3.8,1-35.5-1.9-38.9-1.2c-9.8,2-34,12.2-35.7,15c-0.7,1.1,0,2.5,1.1,2.3
				c7.4-1.3,18.8-5.8,25.6-9.9c-7.3,1.1-26,13.7-31.5,20.1c-0.9,1.1-0.4,2.8,0.8,2.8c7.6,0.3,25.7-11,32.7-16.2
				c-4.9,2.5-24.6,12.1-30.2,16.5c-1.3,1-0.7,3.2,0.8,3.1c8-0.9,26.2-7.8,32.1-12.1c-3.2,1.7-19,9.7-24.5,13.6
				c-1.3,0.9-0.7,3.2,0.8,3c10.8-2,30.1-9.2,38.1-14c0,0-14.4,11.5-14.3,13c0.1,5.2,22.5-7.4,27.7-9.5c9.4-3.8,19.5-4.7,29.2-4.2
				c13,0.6,49.2,2.1,52.9-1.9c4.5-4.9,4-13.3,1.5-19.4c-1.2-2.8-4.9-7.4-8.6-11.4C4.9,234.7-39.5,248.1-49.8,250.9z"/>
			<path class="st3" d="M-125,280.8c1.1-1.2,2.6-2,4.1-2.7c1.7-0.9,3.5-1.7,5.2-2.5c3.6-1.7,7.2-3.5,10.8-5.2c2-1,4.1-2,6.1-3
				c0.4-0.2,0.5-0.7,0.3-1c-0.2-0.4-0.7-0.5-1-0.3c-7.2,3.5-14.5,7-21.7,10.5c-1.7,0.8-3.4,1.8-4.8,3.2
				C-126.7,280.4-125.7,281.5-125,280.8z"/>
			<path class="st3" d="M-102.5,262.8c2.1,3.2,4.2,6.4,6.4,9.5c0.5,0.8,1.9,0.1,1.3-0.8c-2.1-3.2-4.2-6.4-6.4-9.5
				C-101.7,261.2-103,262-102.5,262.8z"/>
			<path class="st3" d="M-115.5,282.1c5-2.4,10-4.6,15.1-6.7c1.4-0.6,2.9-1.2,4.4-1.7c0.4-0.2,0.7-0.5,0.5-0.9
				c-0.1-0.4-0.6-0.7-0.9-0.5c-5.2,2-10.4,4.2-15.5,6.6c-1.4,0.7-2.9,1.3-4.3,2c-0.4,0.2-0.5,0.7-0.3,1
				C-116.3,282.2-115.8,282.3-115.5,282.1z M-115.3,266.2c3.5-2,7.1-3.5,11-4.5c1-0.2,0.5-1.7-0.4-1.5c-4,1-7.8,2.6-11.4,4.6
				C-117,265.4-116.2,266.7-115.3,266.2z M-69.9,263c0.9,1.4,1.9,2.9,2.8,4.3c0.2,0.3,0.7,0.5,1,0.3s0.5-0.7,0.3-1
				c-0.9-1.4-1.9-2.9-2.8-4.3c-0.2-0.3-0.7-0.5-1-0.3C-70,262.2-70.2,262.7-69.9,263z"/>
			<path d="M69.9,39.6c1.7-1.1,3.3-2.4,4.8-3.8c3.5-3.3,8.7-4.6,13.5-4.5c5.7,0.1,11.1,1.8,16.7,2.8c4.5,0.7,9.1,1,13.6,2
				c9.2,2.1,17.9,7.8,22.2,16.3c2.6,5,3.6,10.6,4.3,16.1c3.4,25.1,4,57,12.5,73.2c11.3,21.6,6.1,44.4-1.1,55.1
				c-5.4-0.6-10.8-1.2-16.2-2c-5.8-0.9-11.7-1.9-16.7-4.9c-4.8-2.9-8.4-7.3-12.7-10.8c-4-3.2-8.5-5.5-13-7.8c-5.9-3-12-7-18.7-6.7
				c-10.9,0.6-19.1,27.3-30.9,7.1c-4.1-7-10.4,16.3-17.3,12.2c-1.3-9.3-16.9-18.8,3.9-45.8c4-5.3,11.6-8.3,12.4-14.8
				c0.6-5.3-2.9-10.1-4.4-15.3c-1.8-6-0.8-12.8,2.7-18c3.2-4.8,8.5-8.5,9.7-14.2c0.9-4.3-0.7-8.6-0.7-13c0.1-9.2,7.5-16.4,14.3-22.5
				L69.9,39.6L69.9,39.6z"/>
			
				<ellipse transform="matrix(0.2324 -0.9726 0.9726 0.2324 -44.1999 127.1764)" class="st4" cx="58.5" cy="91.6" rx="14.3" ry="9.6"/>
			<path class="st5" d="M60.1,80.3c-3.2,2-5.5,5.1-6.8,8.7c-1.2,3.4-1.7,7.4-0.7,10.9c0.6,2,1.7,3.8,3.4,5.1c0.3,0.2,0.9,0.1,1-0.3
				c0.2-0.4,0.1-0.8-0.3-1c-2.6-2-3.3-5.7-3.1-8.8c0.2-3.4,1.3-6.7,3.2-9.5c1.1-1.5,2.4-2.8,4-3.8C61.7,81.1,61,79.8,60.1,80.3
				L60.1,80.3z"/>
			<path class="st2" d="M67.9,56.2c-6.5,19.2-11.6,38.9-15.2,58.9c-0.6,3.6-1.2,7.6,0.8,10.7c1.3,2.1,3.6,3.4,5.9,4.4
				c6.7,2.9,21.4,2,21.4,2l-3.4,26.7c0,0,27.3,10.5,35.4,4.7c1.5-16.6,2.1-33.3,1.6-50c0.8,3.8,5.2,6.1,9,5.4s6.9-3.7,8.5-7.1
				c2.3-4.9,2-11.2-1.8-15.1c-3.7-3.9-11-4.1-14.3,0.2c0.5-0.3,6.9-33.7,6.7-33.9L67.9,56.2L67.9,56.2z"/>
			<path d="M72.5,50.8c-6.8,4-11.6,7.5-12.2,14.1c-0.1,0.8-0.1,1.7,0.3,2.4c1,2.1,4.1,2.2,6.1,1.1c2.1-1.1,3.7-2.9,5.8-3.8
				c-1.5,1.1-3.1,2.3-4,3.9s-0.9,3.9,0.4,5.2c1.7,1.5,4.4,0.9,6.3-0.4c1.9-1.2,3.4-3,4.5-4.9c-2.4,0.9-2.7,4.6-0.8,6.4
				c1.9,1.7,4.9,1.7,7.2,0.5s4-3.2,5.6-5.2c-2.1,1.3-2,4.7-0.3,6.4c1.8,1.7,4.6,1.9,6.9,1.2c2.3-0.7,4.3-2.3,6.3-3.8
				c-2.1-0.2-3.9,2.2-3.6,4.3c0.3,2.1,2.3,3.7,4.3,4.2c2.1,0.5,4.3,0,6.3-0.7c-2.1,0.6-3.6,2.9-3.2,5c0.4,2.2,2.5,3.9,4.7,3.7
				c-1.5,1-3.1,2.2-3.9,3.8c-0.9,1.6-0.9,3.9,0.5,5.1c1.1,1,2.7,1.1,4.1,0.9c4.5-0.7,8.1-4.5,9.8-8.8s1.5-9,1.1-13.6
				c-0.6-5.7-1.9-11.4-5-16.2C115,54.4,106.5,50.2,98,48.8s-17.2-0.3-25.8,0.9L72.5,50.8L72.5,50.8z"/>
			<path class="st4" d="M134.3,107.2c0.9-5-0.5-10.5-4-14.2c-0.6-0.6-1.2-1.2-2-1.6c1.7-15-3.5-31.4-16.2-39.3
				c-3.9-2.5-8.4-4-12.9-5.2c-5.4-1.4-11.1-2.2-16.5-1S67,50.1,65.3,55.4c3.8-4.6,14.5-4.5,20.4-4.2c14.3,0.8,29.4,6.8,36,19.5
				c3.2,6.1,4.1,13.1,4.1,20.1c-0.4,0-0.9,0.1-1.3,0.3c-4.7,2-8.5,5.7-10.4,10.4c-1.1,2.8-1.8,5.8-1.8,8.9c0,1.7,0.2,3.4,0.6,5
				c-6.5,3.9-14,6.2-21.6,6.5c-1.6,0.1-3.3,0-4.9-0.1c-0.5-0.9-1.6-1.6-2.9-1.7l-6.9-0.9c-1.8-0.2-3.2,0.6-3.4,2
				c-0.1,1.4,1.3,2.8,3.2,3l6.9,0.9c1.7,0.2,3.2-0.6,3.4-1.9c8.3,0.5,16.6-1.3,24-5.1c0.9-0.4,1.7-0.9,2.6-1.4
				c0.3,0.7,0.7,1.4,1.1,2.1c1.7,2.4,4.7,4,7.6,3.5c1.7-0.3,3.1-1.2,4.4-2.3C130.5,116.8,133.4,112.2,134.3,107.2L134.3,107.2z"/>
			<path class="st5" d="M128.7,91.8c-2.4,1.1-4.4,2.7-6.2,4.6c-1.7,1.8-3.3,3.8-4.4,6c-2.2,4.2-3,9.2-1.5,13.8
				c0.8,2.4,2.2,4.7,4.2,6.3c0.3,0.3,0.8,0.3,1.1,0s0.3-0.8,0-1.1c-3.3-2.7-4.8-7-4.6-11.2c0.3-4.6,2.6-8.8,5.7-12.1
				c1.9-2,4-3.8,6.5-4.9c0.4-0.2,0.5-0.7,0.3-1C129.6,91.7,129.1,91.7,128.7,91.8L128.7,91.8z M125.8,91.1h2c0.4,0,0.8-0.4,0.8-0.8
				s-0.3-0.8-0.8-0.8h-2c-0.4,0-0.8,0.4-0.8,0.8S125.4,91.1,125.8,91.1z M84.1,121.9L84.1,121.9C84.1,122,84.1,122,84.1,121.9
				c0.1,0.1,0.1,0.2,0.2,0.3c0-0.1-0.1-0.1-0.1-0.2c0.1,0.1,0.1,0.3,0.1,0.5v-0.2v0.4v-0.2c0,0.1-0.1,0.3-0.1,0.4
				c-0.1,0.2,0,0.4,0.1,0.6s0.3,0.3,0.5,0.4c0.2,0,0.4,0,0.6-0.1c0.1,0,0.1-0.1,0.2-0.1c0.1-0.1,0.2-0.2,0.2-0.3
				c0.2-0.4,0.2-0.9,0.1-1.3s-0.3-0.9-0.6-1.2c-0.3-0.3-0.8-0.3-1.1,0C83.8,121.2,83.8,121.6,84.1,121.9L84.1,121.9z M74.7,119.2
				c-0.5,0.3-1,0.8-1.1,1.4c-0.1,0.3-0.1,0.7,0,1s0.2,0.6,0.4,0.9c0.1,0.1,0.4,0.2,0.5,0.2c0.2,0,0.4-0.1,0.5-0.2s0.2-0.3,0.2-0.5
				v-0.2c0-0.1-0.1-0.2-0.2-0.3c0,0.1,0.1,0.1,0.1,0.2c-0.1-0.1-0.1-0.2-0.2-0.3c0,0.1,0.1,0.1,0.1,0.2c0-0.1-0.1-0.2-0.1-0.3v0.2
				v-0.4v0.2c0-0.1,0.1-0.3,0.1-0.4c0,0.1-0.1,0.1-0.1,0.2c0-0.1,0.1-0.2,0.2-0.3c0,0.1-0.1,0.1-0.1,0.2c0.1-0.1,0.1-0.2,0.2-0.2
				c-0.1,0-0.1,0.1-0.2,0.1c0.1-0.1,0.2-0.1,0.2-0.1c0.2-0.1,0.3-0.3,0.4-0.5s0-0.4-0.1-0.6s-0.3-0.3-0.5-0.4
				C75.1,119.1,74.9,119.1,74.7,119.2L74.7,119.2z M87.8,45.3c-1.6,1.8-2.8,3.8-3.7,6c9.1,1.4,18.5,2.8,26.3,7.7l3.9-5.7
				c-7.5-5.4-16.7-8.4-26-8.5L87.8,45.3z"/>
			<path class="st6" d="M80.9,132.3l27.3,2l-28.2,3L80.9,132.3z"/>
			<path class="st7" d="M161.1,193.1c-2.4-17.2-28-29.7-45.3-31.6c-0.4-8.1,0-16.3,1.3-24.4c-13.4-1.3-26.8,0.3-40.2-1
				c-2.1-0.2-2.7,9.6-2.7,9.6c-12.2-3.3-18.8-0.9-28.6,7.1s-17,52-23.9,62.6c-4.8,7.4-14.7,7.7-19.5,15.1c-1,1.6-2.1,3.3-2.4,5.2
				s-0.7,4.4,0.7,5.7c11.5,10.6,9.8,23.9,12.1,32.4c13,5,23.3-3.9,24.3-3.4c11.5,4.9,10.9-13.5,15.7-1.6c1.7,4.2,0.5,19.8,4.2,22.5
				c2.6,1.9,9.5,3.3,12.7,4c20.7,4.2,42.2,4.7,63.1,1.4c1.7-0.3,3.6-0.6,4.8-2c1-1.1,1.4-2.8,1.6-4.3
				C143.5,265.7,162.3,201.4,161.1,193.1L161.1,193.1z"/>
			<path class="st2" d="M68.5,237.1c-1.2,11.6,11.6,18.3,17.2,18.1c5.9-0.2,11.6-3.1,15.5-7.5c7.2-8.3,7.6-20.3,7.7-31.3
				c0.1-13.6,0.1-27.3,0.2-40.9c0-6.3,0.1-12.9,3.1-18.5c3.1-5.9,9-9.7,14.6-13.4c2.3-1.5,4.7-3.1,5.9-5.5c0.7-1.4,1.5-1.4,1.7-2.9
				c1.3-7.9,2.1-17.5,3.4-25.4c0.4-2.4,0.6-7.6-2.2-8.5c-1.6-0.5-5.2,12-5.1,17.5c-0.4-5.9,6.1-20.8-1.4-20.8
				c-5.6,0-4.5,20.6-5.8,21.6c-0.7-2.5-4.5-7.7-6.9-6.6s-3.8,3-2.3,5.2c-1.2-2.4-5.1-1.8-6.6,0.4c-0.5,0.6-0.7,1.4-0.6,2.2
				c0.1,3.6-1.7,7.1-4.5,9.3c-2.4,1.9-4.6,4.1-6.2,6.7c-2.2,3.5-3.3,7.6-4.3,11.7C84.5,176.4,68.5,236.8,68.5,237.1L68.5,237.1z"/>
			<path class="st3" d="M113.3,117.7c2,1.7,2.9,4.4,3.2,6.9c0.1,0.4,0.6,0.6,0.9,0.5c0.4-0.1,0.6-0.5,0.5-0.9
				c-0.4-2.7-1.5-5.7-3.6-7.6c-0.3-0.3-0.8-0.3-1.1,0C113,116.8,112.9,117.4,113.3,117.7L113.3,117.7z"/>
			<path class="st3" d="M98,135.3c0.6-1.5,1.8-2.5,3.1-3.4c1.4-1,2.9-1.9,4.1-3.2c1.3-1.3,1.9-2.9,2.3-4.7c0.3-1.7,0.3-3.5,1.1-5.1
				c0.4-0.8,1.1-1.5,2-1.7c0.9-0.3,2.1-0.1,2.8,0.5s1.6-0.1,1.2-0.9s0.2-1.7,0.8-2.2c0.8-0.7,1.7-0.9,2.7-0.6c2.3,0.6,3.8,3,4.8,4.9
				c0.7,1.4,1.2,2.8,1.4,4.3c0.1,0.4,0.6,0.6,0.9,0.5c0.4-0.1,0.6-0.5,0.5-0.9c-0.6-3-1.9-6.1-4.1-8.3c-1-1-2.2-1.8-3.6-2.1
				c-1.4-0.2-2.7,0.2-3.8,1.1c-1.1,1.1-1.6,2.6-1,4.1l1.2-0.9c-1.8-1.4-4.3-1.4-6,0c-1.5,1.3-1.9,3.3-2.1,5.1
				c-0.3,1.8-0.4,3.7-1.6,5.2c-1.1,1.4-2.7,2.3-4.1,3.4c-1.7,1.2-3.3,2.5-4.1,4.5c-0.1,0.4,0.2,0.8,0.5,0.9
				C97.5,136,97.9,135.7,98,135.3L98,135.3z"/>
			<path class="st3" d="M131,123c0-0.1,0-0.3,0.1-0.4v-0.3c0-0.2,0,0.1,0,0c0.1-0.4,0.1-0.8,0.2-1.2c0.2-1.1,0.3-2.2,0.5-3.2
				c0.4-2.5,0.9-5,1.4-7.6c0.5-2.1,0.9-4.3,1.7-6.4c0.1-0.2,0.1-0.3,0.2-0.5c0-0.1-0.1,0.2,0,0v-0.1c0-0.1,0.1-0.2,0.1-0.2
				c0.2-0.3,0.5-1.1,0.9-0.8c0.7,0.3,1,1.3,1.2,1.9c0.3,0.8,0.3,1.7,0.3,2.6c0,1.8-0.4,3.6-0.9,5.3c-0.5,1.9-0.9,3.9-1.3,5.9
				c-0.7,4-1.2,8.1-1.5,12.1c-0.1,1-0.1,2.1-0.1,3.1c0,0.9,0,1.8-0.1,2.6s-0.3,1.7-0.8,2.3s-1.2,1.1-1.8,1.5
				c-2.8,1.8-5.6,3.6-8.3,5.6c-5.2,4-9.9,8.7-12.7,14.6c-0.4,0.7-0.7,1.5-1,2.3c-0.1,0.4,0.2,0.8,0.5,0.9c0.4,0.1,0.8-0.1,0.9-0.5
				c2.4-6.3,7.1-11.4,12.3-15.5c2.7-2.1,5.5-4,8.3-5.7c0.8-0.5,1.6-1,2.2-1.6c0.7-0.6,1.2-1.4,1.5-2.3c0.5-1.8,0.4-3.8,0.4-5.7
				c0.2-4.2,0.6-8.4,1.3-12.6c0.4-2,0.8-4.1,1.3-6.1c0.4-1.8,0.9-3.7,1-5.5s-0.1-3.9-1.1-5.4c-0.5-0.7-1.3-1.4-2.2-1.4
				c-0.9,0.1-1.5,0.8-1.8,1.5c-0.9,1.7-1.4,3.8-1.8,5.7c-1.1,4.7-1.9,9.5-2.6,14.3c-0.1,0.4-0.1,0.8-0.1,1.1c0,0.4,0.4,0.8,0.8,0.8
				C130.7,123.8,130.9,123.4,131,123L131,123z M99.2,155.6c2.6,0.6,5.2,1.2,7.8,1.9c1,0.2,1.4-1.2,0.4-1.5c-2.6-0.6-5.2-1.2-7.8-1.9
				C98.7,153.9,98.3,155.4,99.2,155.6z"/>
			<path class="st3" d="M124.1,118.2c0-2.7,0.2-5.3,0.6-8c0.3-2.5,0.7-5,1.5-7.4c0.4-1.1,0.8-2.2,1.5-3.2c0.4-0.7,1.1-1.5,2-1.5
				c0.9-0.1,1.8,0.6,2.2,1.4c0.6,1,0.6,2.2,0.6,3.3c-0.1,2.9-0.5,5.9-1,8.8c-0.1,0.4,0.1,0.8,0.5,0.9s0.9-0.1,0.9-0.5
				c0.5-2.9,0.9-5.8,1-8.7c0.1-1.3,0-2.7-0.5-3.9c-0.5-1.1-1.3-2-2.4-2.5c-2.6-1-4.5,1.5-5.4,3.5c-1.2,2.5-1.7,5.2-2.1,7.9
				c-0.5,3.3-0.8,6.6-0.8,9.9C122.6,119.2,124.1,119.2,124.1,118.2L124.1,118.2z M84.2,176.5c1.5-4.8,3.1-9.7,4.5-14.6
				c1.4-4.8,2.6-9.7,3.7-14.5c0.6-2.5,1.2-5,2.6-7.1c0.5-0.8-0.8-1.6-1.3-0.8c-1.2,2-2,4.2-2.5,6.5c-0.6,2.4-1.1,4.7-1.6,7.1
				c-1.2,5-2.7,9.9-4.2,14.8c-0.9,2.7-1.7,5.5-2.6,8.2C82.4,177,83.9,177.4,84.2,176.5L84.2,176.5z M76.3,87.6
				c-1.7,5.4-4.2,10.5-7.5,15.1c-0.9,1.3-1.9,2.5-2.9,3.7c-0.3,0.4-0.3,1.2,0.3,1.3c3.6,0.5,6.5-1.7,9.1-3.9c0.3-0.3,0.3-0.8,0-1.1
				c-0.3-0.3-0.8-0.3-1.1,0c-2.1,1.7-4.7,3.9-7.6,3.5c0.1,0.4,0.2,0.9,0.3,1.3c3.8-4.4,6.9-9.4,9.1-14.8c0.6-1.5,1.2-3.1,1.7-4.7
				C78.1,87.1,76.6,86.7,76.3,87.6L76.3,87.6z"/>
			<path class="st8" d="M72.7,110.4c0.2,2.8,3.2,4.8,5.9,4.4s4.9-2.8,5.5-5.5L72.7,110.4z"/>
			<path class="st3" d="M71.9,110.4c0.2,2.4,2.1,4.4,4.4,5c2.4,0.7,5-0.3,6.7-2.2c0.9-1.1,1.6-2.4,2-3.7c0.1-0.4-0.2-1-0.7-1
				c-3.3,0.3-6.7,0.7-10,1c-0.5,0-1,0.1-1.4,0.1C72.3,109.6,71.9,109.9,71.9,110.4c0,0.4,0.4,0.8,0.8,0.8c3.3-0.3,6.7-0.7,10-1
				c0.5,0,1-0.1,1.4-0.1c-0.2-0.3-0.5-0.6-0.7-1c-0.5,1.9-1.7,3.7-3.5,4.6c-1.7,0.8-3.7,0.5-5.1-0.7c-0.7-0.7-1.3-1.5-1.4-2.5
				c0-0.4-0.3-0.8-0.8-0.8C72.3,109.6,71.9,109.9,71.9,110.4z"/>
			<path d="M84.9,100.6c0.5-1.4,2.1-2.4,3.6-2.2c1.5,0.2,2.8,1.5,3,3c0.1,0.4,0.3,0.8,0.8,0.8c0.4,0,0.8-0.4,0.8-0.8
				c-0.3-2.3-2-4.2-4.3-4.5s-4.5,1.2-5.3,3.3c-0.1,0.4,0.2,0.8,0.5,0.9C84.4,101.3,84.8,101,84.9,100.6z M60.5,96.4
				c0.5-1.4,2.1-2.4,3.6-2.2c1.5,0.2,2.8,1.5,3,3c0.1,0.4,0.3,0.8,0.8,0.8c0.4,0,0.8-0.4,0.8-0.8c-0.3-2.3-2-4.2-4.3-4.5
				s-4.5,1.2-5.3,3.3c-0.1,0.4,0.2,0.8,0.5,0.9C60,97.1,60.4,96.8,60.5,96.4z M86.3,86.5c-1,0.6-0.6,2.2,0.3,2.9
				c1,0.6,2.2,0.6,3.3,0.8c3,0.3,5.8,2,7.6,4.3c-0.6-5.3-6.1-9.4-11.4-8.5L86.3,86.5L86.3,86.5z M72.5,78.1c1,0.6,0.6,2.2-0.3,2.9
				c-1,0.6-2.2,0.6-3.3,0.8c-3,0.3-5.8,2-7.6,4.3c0.6-5.3,6.1-9.4,11.4-8.5L72.5,78.1L72.5,78.1z"/>
			<path class="st9" d="M94.3,136.1c-3.9-0.6-7.9-0.7-11.8-0.6c-2,0.1-3.9,0.2-5.9,0.3c-0.9,0.1-1.8,0.2-2.2,1.1
				c-0.4,0.9-0.7,1.8-0.9,2.7c-0.6,2.1-0.8,4.2-0.9,6.4c0,1,1.5,1,1.5,0c0-1.7,0.2-3.5,0.6-5.2c0.2-0.8,0.4-1.6,0.7-2.5
				c0.1-0.2,0.2-0.7,0.4-0.9s0.8-0.1,1-0.1c3.6-0.2,7.3-0.4,10.9-0.3c2,0.1,4.1,0.2,6.1,0.6c0.4,0.1,0.8-0.1,0.9-0.5
				C94.9,136.7,94.7,136.2,94.3,136.1L94.3,136.1z M66.1,160.2c-2.5,8.1-5.8,16-9.8,23.4c-3.8,7.1-8.5,13.8-11.6,21.2
				c-1.6,3.8-2.7,7.8-3.1,11.9c-0.5,4.3-0.3,8.5,0.3,12.8c1.2,8.6,3.9,16.9,6.4,25.1c2.5,8.2,4.9,16.7,5,25.4c0,1.1,0,2.2-0.1,3.2
				s1.5,1,1.5,0c0.5-8.6-1.5-17.1-3.9-25.3c-2.4-8.3-5.4-16.5-6.9-25.1c-1.5-8.3-1.6-16.9,1.2-24.9c2.7-7.6,7.3-14.3,11.2-21.3
				c4.1-7.3,7.6-15.1,10.2-23.1c0.3-1,0.7-2,1-3C67.9,159.6,66.4,159.2,66.1,160.2L66.1,160.2z"/>
			<path class="st9" d="M79.4,137.4c-0.4,4-0.9,8-1.6,12c-0.1,0.4,0.1,0.8,0.5,0.9c0.4,0.1,0.9-0.1,0.9-0.5
				c0.7-4.1,1.3-8.2,1.7-12.4c0-0.4-0.4-0.8-0.8-0.8S79.4,136.9,79.4,137.4L79.4,137.4z M84,138.1c-0.3,3.5-0.6,6.9-0.9,10.4
				c0,0.4,0.4,0.8,0.8,0.8s0.7-0.4,0.8-0.8c0.3-3.5,0.6-6.9,0.9-10.4c0-0.4-0.4-0.8-0.8-0.8S84.1,137.7,84,138.1z M89.6,138.1
				c-0.4,3-0.7,6-1.1,9c-0.1,0.4,0.4,0.8,0.8,0.8c0.5,0,0.7-0.4,0.8-0.8c0.4-3,0.7-6,1.1-9c0.1-0.4-0.4-0.8-0.8-0.8
				C89.9,137.3,89.7,137.6,89.6,138.1z M-1.8,238.9c3.5,3.7,6.3,7.9,8.5,12.4c2.2,4.6,3.6,9.5,4.3,14.5c0.4,2.8,0.5,5.6,0.4,8.5
				c0,1,1.5,1,1.5,0c0.2-5.2-0.4-10.4-1.8-15.4s-3.6-9.8-6.4-14.1c-1.6-2.5-3.4-4.8-5.5-6.9C-1.4,237.1-2.4,238.2-1.8,238.9z"/>
			<path class="st9" d="M-0.1,239.4c1.3-3,3.6-5.4,6.6-6.9c0.4-0.2,0.5-0.7,0.3-1c-0.2-0.4-0.7-0.5-1-0.3c-3.1,1.5-5.7,4.2-7.1,7.4
				c-0.2,0.4-0.1,0.8,0.3,1C-0.9,239.8-0.3,239.8-0.1,239.4z M2.3,242c2.2-2.4,4.8-4.3,7.8-5.6c0.4-0.2,0.5-0.7,0.3-1
				c-0.2-0.4-0.7-0.4-1-0.3c-3.1,1.4-5.8,3.4-8.1,5.8C0.5,241.7,1.6,242.8,2.3,242z M5.1,246c2-1.8,4.4-3.1,6.9-3.9
				c0.9-0.3,0.5-1.8-0.4-1.5c-2.8,0.8-5.4,2.3-7.6,4.3C3.3,245.6,4.4,246.6,5.1,246L5.1,246z M10,252.2c2.3-1.5,4.7-2.5,7.3-3.2
				c1-0.2,0.5-1.7-0.4-1.5c-2.7,0.7-5.3,1.8-7.7,3.4C8.4,251.4,9.2,252.8,10,252.2L10,252.2z M11.3,260.7c2.4-0.6,4.8-1.3,7.2-1.9
				c1-0.3,0.5-1.7-0.4-1.5c-2.4,0.6-4.8,1.3-7.2,1.9C9.9,259.4,10.3,260.9,11.3,260.7z M12.5,268.7c2.9,0.2,5.9,0.1,8.8-0.3
				c0.4-0.1,0.6-0.6,0.5-0.9c-0.1-0.4-0.5-0.6-0.9-0.5c-2.8,0.4-5.6,0.4-8.4,0.2C11.6,267.1,11.6,268.6,12.5,268.7L12.5,268.7z
				 M12.6,273.6c2.5,0.8,5.1,1.2,7.8,1c1-0.1,1-1.6,0-1.5c-2.5,0.1-5-0.2-7.4-1C12.1,271.8,11.7,273.3,12.6,273.6L12.6,273.6z
				 M21.1,220c4.6,4.3,8.6,9.3,11.8,14.8c0.9,1.5,1.8,3.1,2.5,4.7c0.4,0.9,1.8,0.1,1.3-0.8c-2.8-5.8-6.5-11.1-10.8-15.9
				c-1.2-1.3-2.5-2.6-3.8-3.9C21.5,218.2,20.4,219.3,21.1,220L21.1,220z M24.3,217.5c3.8,3,7.3,6.5,10.2,10.3c0.3,0.3,0.7,0.5,1,0.3
				s0.5-0.7,0.3-1c-3.1-4-6.6-7.6-10.5-10.7c-0.3-0.3-0.8-0.3-1.1,0C24,216.7,23.9,217.2,24.3,217.5L24.3,217.5z M31.9,263.2
				c0.8,2.3,1.4,4.8,1.7,7.2c0.1,0.4,0.6,0.6,0.9,0.5c0.4-0.1,0.6-0.5,0.5-0.9c-0.3-2.5-0.9-4.9-1.7-7.2
				C33.1,261.9,31.6,262.3,31.9,263.2z M34.5,263c0.3,2.5,1,5,2,7.3c0.2,0.4,0.7,0.5,1,0.3c0.4-0.2,0.5-0.7,0.3-1
				c-1-2-1.6-4.2-1.8-6.5c0-0.4-0.3-0.8-0.8-0.8C34.9,262.3,34.5,262.6,34.5,263z M43.8,258.8c1.1,1.4,2.2,2.9,3.3,4.3
				c0.2,0.3,0.7,0.5,1,0.3s0.5-0.7,0.3-1c-1.1-1.4-2.2-2.9-3.3-4.3c-0.2-0.3-0.7-0.5-1-0.3C43.7,258,43.5,258.5,43.8,258.8z
				 M60,162.5c1,2.4,1.4,5,1.2,7.5c0,0.4,0.4,0.8,0.8,0.8s0.7-0.4,0.8-0.8c0.2-2.9-0.3-5.7-1.5-8.3c-0.2-0.4-0.7-0.5-1-0.3
				C59.9,161.7,59.9,162.1,60,162.5z M138.7,171.7c-8,3.3-15.5,8.1-21.9,14c-1.8,1.7-3.5,3.4-5.1,5.2c-0.6,0.7,0.4,1.8,1.1,1.1
				c5.6-6.4,12.3-11.7,19.8-15.8c2.1-1.1,4.3-2.2,6.5-3.1c0.4-0.2,0.7-0.5,0.5-0.9C139.5,171.8,139,171.5,138.7,171.7z"/>
			<path class="st9" d="M113.2,166c6.1,0.9,12.2,2.5,17.9,4.8c1.6,0.7,3.2,1.4,4.8,2.2c0.9,0.4,1.7-0.9,0.8-1.3
				c-5.7-2.8-11.7-4.9-17.8-6.2c-1.7-0.4-3.5-0.7-5.2-0.9c-0.4-0.1-0.8,0.1-0.9,0.5C112.6,165.4,112.8,166,113.2,166L113.2,166z
				 M72.4,255.6c3.1,4,7.8,6.2,12.7,7.2c5.2,1,10.5,0.6,15.6-0.5c5.7-1.3,11.2-3.4,16.5-6c5.3-2.7,10.2-5.9,15-9.4s9.4-7.3,14-11.2
				c0.6-0.5,1.1-1,1.7-1.5c0.7-0.6-0.3-1.7-1.1-1.1c-4.4,3.8-8.9,7.5-13.5,11.1c-4.6,3.5-9.5,6.8-14.6,9.6c-5,2.7-10.3,5-15.8,6.5
				c-5,1.3-10.2,2-15.4,1.4c-4.7-0.5-9.4-2.3-12.7-5.7c-0.4-0.4-0.8-0.9-1.2-1.4c-0.3-0.3-0.8-0.3-1.1,0
				C72,254.9,72.1,255.3,72.4,255.6L72.4,255.6z"/>
			<path class="st9" d="M107.7,227.9c0.1,1.9,0.2,3.8,0,5.7c-0.2,1.5-0.5,3.1-1,4.5c-1,2.9-2.5,5.7-4.5,8c-3.9,4.7-9.8,8.3-16,8.6
				c-3.5,0.2-7.1-0.7-9.5-3.4c-0.7-0.7-1.7,0.3-1.1,1.1c4.7,5.3,13.1,4.4,18.9,1.7c6-2.8,10.8-8.1,13.2-14.3
				c0.7-1.7,1.1-3.5,1.4-5.2c0.3-2.2,0.3-4.4,0.2-6.7C109.2,226.9,107.6,226.9,107.7,227.9L107.7,227.9z"/>
			<path class="st9" d="M84.6,255.7c0.3,1.6,1,3.1,2,4.5c0.2,0.3,0.7,0.5,1,0.3s0.5-0.7,0.3-1c-0.5-0.6-0.9-1.3-1.2-2v-0.1
				c0,0.1,0,0.1,0,0s-0.1-0.2-0.1-0.3c-0.1-0.2-0.1-0.4-0.2-0.6c-0.1-0.4-0.2-0.8-0.3-1.1c-0.1-0.4-0.6-0.7-0.9-0.5
				C84.7,254.9,84.5,255.3,84.6,255.7z M91.4,254.9l2.9,2.9c0.3,0.3,0.8,0.3,1.1,0s0.3-0.8,0-1.1l-2.9-2.9c-0.3-0.3-0.8-0.3-1.1,0
				C91.1,254.2,91.1,254.6,91.4,254.9z M100.3,250.3c1.6,0.3,3.1,0.8,4.6,1.4c0.4,0.1,0.9-0.2,0.9-0.5c0.1-0.4-0.1-0.8-0.5-0.9
				c-1.5-0.6-3-1.1-4.6-1.4c-0.4-0.1-0.8,0.1-0.9,0.5C99.7,249.7,99.9,250.2,100.3,250.3z M106.1,243.9c1.5-0.3,3.1-0.2,4.6,0.3
				c0.4,0.1,0.9-0.1,0.9-0.5c0.1-0.4-0.1-0.8-0.5-0.9c-1.8-0.5-3.6-0.6-5.4-0.3c-0.4,0.1-0.6,0.6-0.5,0.9
				C105.2,243.8,105.6,244,106.1,243.9z M108.6,236.8c1.7-0.5,3.3-1,5-1.5c0.4-0.1,0.6-0.5,0.5-0.9s-0.5-0.7-0.9-0.5
				c-1.7,0.5-3.3,1-5,1.5c-0.4,0.1-0.6,0.5-0.5,0.9S108.2,237,108.6,236.8z M108.6,228.9c1.1-0.3,2.2-0.7,3.2-1
				c0.4-0.1,0.7-0.5,0.5-0.9c-0.1-0.4-0.5-0.7-0.9-0.5c-1.1,0.3-2.2,0.7-3.2,1c-0.4,0.1-0.7,0.5-0.5,0.9
				C107.8,228.8,108.2,229.1,108.6,228.9z M111.2,218.3c4.4,5.4,7,12.2,7.5,19.1c0.1,2,0.1,4-0.1,5.9c0,0.4,0.4,0.8,0.8,0.8
				c0.5,0,0.7-0.4,0.8-0.8c0.8-7.2-0.7-14.7-4.3-21c-1-1.8-2.2-3.5-3.5-5.1c-0.3-0.3-0.8-0.3-1.1,0
				C110.8,217.5,110.9,218,111.2,218.3L111.2,218.3z M115.5,217.2c3.7,3.7,6.5,8.3,8.1,13.3c0.5,1.4,0.8,2.9,1.1,4.4
				c0.1,0.4,0.6,0.6,0.9,0.5c0.4-0.1,0.6-0.5,0.5-0.9c-0.9-5.4-3.2-10.5-6.5-14.9c-0.9-1.2-2-2.4-3.1-3.5
				C115.9,215.4,114.8,216.5,115.5,217.2L115.5,217.2z M138.1,214.5l-4.5,4.2c-0.3,0.3-0.3,0.8,0,1.1s0.8,0.3,1.1,0l4.5-4.2
				c0.3-0.3,0.3-0.8,0-1.1S138.5,214.2,138.1,214.5z M140.6,219.5l-3.3,3.6c-0.3,0.3-0.3,0.8,0,1.1s0.8,0.3,1.1,0l3.3-3.6
				c0.3-0.3,0.3-0.8,0-1.1S140.9,219.2,140.6,219.5z M147.4,207.6l-2.2,2.2c-0.3,0.3-0.3,0.8,0,1.1s0.8,0.3,1.1,0l2.2-2.2
				c0.3-0.3,0.3-0.8,0-1.1C148.1,207.3,147.7,207.3,147.4,207.6z M55.6,239c2.5,1.8,5.1,3.6,7.6,5.3c0.3,0.2,0.9,0.1,1-0.3
				c0.2-0.4,0.1-0.8-0.3-1c-2.5-1.8-5.1-3.6-7.6-5.3c-0.3-0.2-0.9-0.1-1,0.3C55.1,238.3,55.2,238.7,55.6,239z M59.6,246.7
				c2.3,1.2,4.6,2.4,6.8,3.6c0.9,0.5,1.6-0.9,0.8-1.3c-2.3-1.2-4.6-2.4-6.8-3.6C59.5,245,58.7,246.3,59.6,246.7z M45.4,165.5
				c-0.4,1-0.7,1.9-1.1,2.9c-0.1,0.4,0.2,0.9,0.5,0.9c0.4,0.1,0.8-0.1,0.9-0.5c0.4-1,0.7-1.9,1.1-2.9c0.1-0.4-0.2-0.9-0.5-0.9
				C45.9,164.8,45.6,165.1,45.4,165.5z M49.9,172.9c-0.4,0.5-0.7,1-1.1,1.4c-0.1,0.1-0.1,0.4-0.1,0.6c0,0.2,0.2,0.4,0.4,0.5
				s0.4,0.1,0.6,0.1c0.1,0,0.1-0.1,0.2-0.1l0.3-0.3c0.4-0.5,0.7-1,1.1-1.4c0.1-0.1,0.1-0.4,0.1-0.6c0-0.2-0.2-0.4-0.4-0.5
				s-0.4-0.1-0.6-0.1c-0.1,0-0.1,0.1-0.2,0.1L49.9,172.9z M60,148c3.2,3.3,5.9,7,8.1,11c0.5,0.9,1.8,0.1,1.3-0.8
				c-2.3-4.1-5.1-7.9-8.4-11.3C60.4,146.2,59.3,147.3,60,148L60,148z"/>
		</g>
	</g>
</g>
</svg>
