<svg xmlns="http://www.w3.org/2000/svg" width="603.3" height="36.9" style="overflow:visible;enable-background:new 0 0 603.3 36.9" xml:space="preserve">
    <style>
        .st0{fill:#ed1c24}
    </style>
    <path class="st0" d="M10.9.4v2.9h5.8v4.1h-1.6c-.4 1.8-.8 3.4-1.3 5h3.5v4.1h-6.5V19h6.1v4.1h-5.5c2 1.5 3.7 2.9 5.2 4.2l-2.4 3.8c-1.2-1.4-2.3-2.6-3.4-3.7v9.4H7v-8.6c-.1.2-.3.4-.4.6-1.8 2.3-3.3 4-4.6 4.9l-2-3.8c1.2-.8 2.6-2.1 4-3.8.7-1 1.4-1.9 2-2.9H1.2V19H7v-2.5H.6v-4.1H4c-.2-1.7-.4-3.4-.7-5h-2V3.3h5.5V.4h4.1zm-.9 12c.5-1.7.9-3.3 1.3-5H6.9c.3 1.6.6 3.3.9 5H10zm22.4-7.8c-2.9 1-6.1 1.9-9.8 2.4v5.6H33v4.1h-2.8v20.2h-4V16.7h-3.6c-.1 6.1-.5 10.4-1.2 13.2-.8 2.8-1.8 5.1-3.2 7l-3.2-3c1.1-1.5 1.9-3.5 2.5-5.9.7-2.7 1.1-8 1.1-15.8v-9c4.7-.6 8.6-1.5 11.6-2.7l2.2 4.1zM56.7.4v13.9h13.8v4.6H60.3v10.7c0 .9.3 1.5.8 1.6.6.3 1.4.4 2.4.4s1.6 0 2-.2c.4-.1.7-.3.9-.6.3-.4.5-1.9.6-4.4l4.1 2.1c-.2 1.8-.5 3.6-.9 5.2-.3 1-.9 1.7-1.9 1.9-1 .2-2.7.4-4.8.4-2.4 0-3.8-.2-4.3-.5-2.2-.1-3.2-1.6-3.2-4.3V18.9h-4.9c-.6 5-1.6 8.8-3.2 11.5-1.9 3.1-4.5 5.3-7.8 6.5l-1.9-4.6c2.7-1 4.8-2.8 6.2-5.3 1-1.8 1.7-4.5 2.2-8.1h-7.8v-4.6h13.6V.4h4.3zm-6.8 10.5-4.1 2.7c-1.1-2.7-2.5-5.3-4.2-7.7l3.8-2.7c1.8 2.4 3.4 5 4.5 7.7zm18.2-4.8c-1.7 3.2-3.5 5.7-5.3 7.5l-3.4-3.3c2-2.1 3.6-4.4 4.8-6.8l3.9 2.6zM94.6.4v10.5c1.1 4 2.4 7.5 3.9 10.4 2.2 4.4 5.8 8.2 10.7 11.6l-3.7 4c-3.8-3-6.7-6.1-8.8-9.5-1.5-2.3-2.7-5-3.7-8.1-.8 2.3-1.9 4.5-3.2 6.6-2.9 4.5-6.6 8.1-11 11l-2.4-4.3c4.8-3.2 8.4-6.9 10.7-10.9 2.1-3.9 3.2-7.9 3.2-12.1V.4h4.3zM147 22.4v3.3h-4.5v1h4v3.5h-4v1.6c0 2-.3 3.3-1 4-.7.7-1.9 1.1-3.6 1.1-.7 0-1.3-.1-1.9-.3l-.4-2.9-3.2 1.9c-.6-1.3-1.3-2.5-2.3-3.8l2.3-1.6h-3.2v-3.5h9.2v-1h-23.8v-3.3H147zm-.3-12.5v6.5h-4.2v-3.1H115V9.9h31.7zm-18-8.2V.3h4v1.5h13.2V5h-13.2v1h11.8v3.1h-26.8V6h11.1V5H116V1.7h12.7zM141.6 14v3.1h-9.3v1.1h12.1v3.1h-27.8v-3.1h11.8v-1.1h-10.2V14h23.4zm-13 20.8h-8.2v1.4h-3.7v-9.6h11.9v8.2zm-3.7-3.3v-1.6h-4.5v1.6h4.5zm10.8 1.6-.1-1c.8.4 1.6.6 2.4.6.4 0 .7-.6.7-1.9V30h-5c.8 1.1 1.4 2.2 2 3.1zM171.1.1v2.4h13.6v8.7h-4.1V6.8h-13.9l2.3.8c-.3.4-.6.8-.9 1.1H180v3.8c-2.3 2.1-4.5 3.8-6.8 5.3l1.8.6c2.1.8 5.6 1.5 10.6 2.3l-1.8 4.4c-1.2-.2-2.3-.4-3.3-.6v12.3h-4.1v-1.4h-15.2v1.4h-4.1V24.9c-1.2.3-2.5.6-3.7.8l-1.4-4.2c4.1-.8 8-1.9 11.8-3.5-1.3-.8-2.4-1.7-3.4-2.6-1.3.9-2.6 1.7-3.9 2.3l-2.1-4.4c4.4-2.1 7.6-4.2 9.6-6.5h-6.6v4.4h-4.1V2.5h13.2V.1h4.6zm5.4 31.1v-3.8h-15.2v3.8h15.2zm-.6-7.9c-.7-.2-1.3-.4-1.9-.6-1.9-.6-3.7-1.3-5.5-2.2-.1.1-.3.2-.4.2-2 1-4 1.9-5.9 2.6h13.7zm-7.7-7.8c.1.1.3.2.4.2 1.8-1 3.4-2.1 4.9-3.2h-9.2c-.1.1-.2.2-.3.2 1.3.9 2.7 1.9 4.2 2.8zM204.4 1.3v29.9c0 3.5-1.5 5.2-4.4 5.2h-2.1L197 32c.8.2 1.6.3 2.3.3.8 0 1.3-.9 1.3-2.8V24h-4.1c-.1 2.6-.3 4.9-.6 7.1-.4 2.2-.9 4.2-1.6 5.9l-3.8-1.6c.7-1.7 1.2-3.7 1.6-6.1.4-2.3.7-5.3.7-8.9v-19h11.6zm-3.8 9.6V5.5h-4.1v5.4h4.1zm0 8.9V15h-4.1v4.9h4.1zm9.9 17.1h-4.1V1.3h15.5c-.1 6.5-.7 10.3-1.8 11.5-.7.8-1.8 1.1-3.2 1.1-1.1 0-2.3-.1-3.6-.3l-.8-4.3c1.2.2 2.5.3 3.7.3.4 0 .7-.1.8-.3.2-.5.4-1.8.7-3.8h-7.1v9.9H223v3.2c-.9 4.4-2.1 7.9-3.4 10.4 1.3 1.4 2.8 2.7 4.5 3.8l-3 4.1c-1.5-1.3-2.8-2.7-4-4.2-1.5 1.9-3.1 3.2-4.9 4.2l-1.7-3.7v3.7zm0-16.2v11.7c1.5-.8 2.8-1.9 4-3.3-1.6-2.4-2.9-5.2-4-8.4zm6.3 4.6c.8-1.7 1.5-3.6 2-5.8h-4.9c.8 2.3 1.8 4.2 2.9 5.8zM251.9 25.7v-1.3h4.1v1.3h5.3v3.8H256v2.2c0 2.1-.4 3.4-1.1 4.1-.8.7-2.3 1.1-4.2 1.1-1.1 0-2.2-.2-3.1-.5l-.7-4.4c1.3.5 2.5.8 3.8.8.8 0 1.3-.6 1.3-1.9v-1.4h-11.6c1.2.8 2.4 1.7 3.4 2.5l-2.7 3.8c-1.7-1.7-3.4-3.1-5.2-4.2l1.7-2.1h-8v-3.8h22.3zm-8.8-23.8V.4h4v1.4h13.8v4H247v1h11.4v12.4h-.7c1 1.3 1.9 2.6 2.6 4l-3.2 2.1c-.3-.6-.7-1.2-1-1.7-7.1.8-15.4 1.2-24.9 1.3l-.6-3.8c4.4 0 8.6 0 12.5-.2v-1.6H232V6.8h11.1v-1h-12.8v-4h12.8zm0 9.4v-1.1H236v1.1h7.1zm0 4.4v-1.1H236v1.1h7.1zm3.9-4.4h7.4v-1.1H247v1.1zm0 4.4h7.4v-1.1H247v1.1zm6.1 4 .7-.5H247v1.5c2.3-.1 4.6-.2 6.7-.3-.2-.3-.4-.5-.6-.7zM275.8 1.9c-1.3 2.8-2.5 5.3-3.7 7.4l1.2.9c1-2 1.9-4 2.7-5.9l4 1.9c-1.2 2.5-2.4 4.7-3.6 6.7l2.7-.9c.9 2.6 1.6 5.4 2.1 8.5l-3.7 1.3c-.1-.5-.1-1-.2-1.6-.5.1-1 .2-1.5.2v16.2H272V20.8c-1.5.2-2.9.3-4.4.4l-.7-4.3c.9 0 1.9-.1 2.7-.1.5-.9 1.1-1.8 1.6-2.7l-4.8-4.2 2.4-3.3c.1.1.2.2.3.2 1.2-2.3 2.2-4.6 3-6.8l3.7 1.9zm-4.1 22.2c-.4 3.9-.8 7.2-1.3 9.8l-3.7-1.3c.5-3.1 1-6.3 1.3-9.4l3.7.9zm4.2-10.4c-.6 1-1.1 2-1.6 2.9.8 0 1.6-.1 2.4-.2-.3-.9-.6-1.8-.8-2.7zm15-12.6c-.2.8-.5 1.5-.8 2.2h8.5v15.6h-6.4v3.4c.2.3.4.6.6 1 1.6-.8 3.1-1.8 4.6-3.1l2.4 3.6c-1.4 1.1-2.9 2-4.5 2.7 1.5 1.7 3.2 3.1 5.1 4l-2.1 4.4c-1.5-.9-3-2.1-4.4-3.7-.6-.6-1.2-1.3-1.7-2.1V31c0 2.1-.3 3.6-.8 4.4-.7.9-1.8 1.3-3.5 1.3-1.2 0-2.2-.3-3.2-.8l-.5-3c-.9.9-1.8 1.8-2.8 2.5l-2.3-3.6c.1 0 .2-.1.3-.2l-1.8.6c-.3-3.1-.7-5.8-1.3-8.4l3.4-1.1c.6 2.3 1.1 4.8 1.5 7.5.9-.7 1.6-1.6 2.3-2.5.7-1 1.3-2 1.8-2.9h-4.4v-4h7.4v-2.1h-6.8V3.3h4.5c.3-1 .6-2.1.8-3.2l4.1 1zm-3.7 28.1c-.7 1-1.3 1.9-2 2.7.8.3 1.6.4 2.3.4.3 0 .5-.2.7-.5.1-.4.2-1.1.2-2V27c-.5.9-.8 1.6-1.2 2.2zm7.5-20.1V7.2h-9.2v1.9h9.2zm0 5.9v-2.1h-9.2V15h9.2zM337.1 29.1c-1.7 3.2-4.3 4.9-7.9 4.9-3.6 0-6.2-1.6-7.9-4.9-1.3-2.5-2-5.9-2-10.1 0-4.2.6-7.5 2-10.2 1.7-3.3 4.3-5 7.9-5 3.6 0 6.2 1.7 7.9 5 1.3 2.6 2 6 2 10.2 0 4.2-.6 7.5-2 10.1zm-7.8-20.4c-3.2 0-4.9 3.4-4.9 10.2 0 6.7 1.6 10 4.9 10s4.9-3.3 4.9-10-1.7-10.2-4.9-10.2zM362.2 31.7c-1.8 1.5-4.1 2.2-6.9 2.2s-5-.8-6.8-2.3c-2-1.7-3-3.9-3-6.9 0-2.6 1-4.7 3.2-6.4-1.9-1.5-2.8-3.5-2.8-5.9 0-2.7.9-4.9 2.9-6.5 1.7-1.4 3.9-2.1 6.5-2.1s4.7.7 6.5 2.1c1.9 1.6 2.9 3.8 2.9 6.5 0 2.5-.9 4.4-2.7 5.9 2.1 1.6 3.2 3.7 3.2 6.4 0 3-1.1 5.3-3 7zm-6.9-10.9c-3.2 0-4.7 1.3-4.7 3.9 0 1.4.5 2.5 1.4 3.2.9.7 2 1 3.3 1s2.4-.3 3.3-1c.9-.7 1.5-1.8 1.5-3.2 0-2.5-1.6-3.9-4.8-3.9zm3-11.2c-.8-.5-1.8-.8-3-.8-1.3 0-2.3.3-3 .8-.9.7-1.3 1.6-1.3 2.8 0 2.3 1.4 3.5 4.3 3.5s4.4-1.1 4.4-3.5c0-1.2-.5-2.1-1.4-2.8zM389.3 29.1c-1.7 3.2-4.3 4.9-7.9 4.9-3.6 0-6.2-1.6-7.9-4.9-1.3-2.5-2-5.9-2-10.1 0-4.2.6-7.5 2-10.2 1.7-3.3 4.3-5 7.9-5 3.6 0 6.2 1.7 7.9 5 1.3 2.6 2 6 2 10.2 0 4.2-.7 7.5-2 10.1zm-7.9-20.4c-3.2 0-4.9 3.4-4.9 10.2 0 6.7 1.6 10 4.9 10s4.9-3.3 4.9-10-1.7-10.2-4.9-10.2zM415.3 29.1c-1.7 3.2-4.3 4.9-7.9 4.9-3.6 0-6.2-1.6-7.9-4.9-1.3-2.5-2-5.9-2-10.1 0-4.2.6-7.5 2-10.2 1.7-3.3 4.3-5 7.9-5 3.6 0 6.2 1.7 7.9 5 1.3 2.6 2 6 2 10.2 0 4.2-.6 7.5-2 10.1zm-7.8-20.4c-3.2 0-4.9 3.4-4.9 10.2 0 6.7 1.6 10 4.9 10s4.9-3.3 4.9-10-1.7-10.2-4.9-10.2zM423.1 26v-5.5h9.9V26h-9.9zM456.5 29.1c-1.7 3.2-4.3 4.9-7.9 4.9-3.6 0-6.2-1.6-7.9-4.9-1.3-2.5-2-5.9-2-10.1 0-4.2.6-7.5 2-10.2 1.7-3.3 4.3-5 7.9-5 3.6 0 6.2 1.7 7.9 5 1.3 2.6 2 6 2 10.2 0 4.2-.7 7.5-2 10.1zm-7.9-20.4c-3.2 0-4.9 3.4-4.9 10.2 0 6.7 1.6 10 4.9 10s4.9-3.3 4.9-10-1.6-10.2-4.9-10.2zM481.3 31.6c-1.9 1.5-4.1 2.3-6.8 2.3-6.2 0-9.4-3.4-9.5-10.1h5.1c0 1.8.4 3.1 1.1 3.9.6.8 1.7 1.2 3.3 1.2 1.3 0 2.4-.4 3.2-1.1.9-.8 1.5-1.9 1.5-3.2 0-1.3-.6-2.3-1.6-3-.9-.5-2-.8-3.4-.8-.3 0-1.1.1-2.2.3v-5.4c1 .1 1.9.2 2.6.2 1.2 0 2.2-.3 3-.9.9-.7 1.3-1.6 1.3-2.8 0-1.1-.5-2-1.3-2.6-.8-.5-1.8-.7-2.9-.7-1.5 0-2.6.4-3.2 1.1-.6.7-.9 1.8-1 3.5h-5c.1-6.4 3.1-9.6 8.9-9.6 2.6 0 4.9.7 6.6 1.9 2 1.5 3 3.6 3 6.4 0 2.5-.9 4.5-2.8 6 2.1 1.7 3.2 3.9 3.2 6.7-.1 2.8-1.1 5.1-3.1 6.7zM500.4 33.3V12.2c-1.1.8-2.4 1.6-4.2 2.3V8.7c2.4-1.2 4.3-2.7 5.8-4.5h3.3v29h-4.9zM516.4 26v-5.5h9.9V26h-9.9zM541.6 33.3V12.2c-1.1.8-2.4 1.6-4.2 2.3V8.7c2.4-1.2 4.3-2.7 5.8-4.5h3.3v29h-4.9zM567.6 33.3V12.2c-1.1.8-2.4 1.6-4.2 2.3V8.7c2.4-1.2 4.3-2.7 5.8-4.5h3.3v29h-4.9zM600.9 30.9c-1.7 2-3.9 3-6.7 3-6 0-9.1-3.2-9.3-9.6h5c.2 1.6.6 2.8 1.1 3.5.6.7 1.6 1.1 3 1.1 1.3 0 2.4-.5 3.2-1.7.7-1 1.1-2.2 1.1-3.8 0-1.5-.4-2.7-1.1-3.6-.8-.9-1.8-1.4-3.1-1.4-2.1 0-3.5 1.3-4.1 3.9h-4.6l.8-18h16v4.9h-11.4l-.2 5.1c1.3-.7 2.6-1.1 4-1.1 2.6 0 4.7 1 6.4 2.9 1.6 1.9 2.4 4.4 2.4 7.3-.1 3.1-.9 5.6-2.5 7.5z"/>
</svg>
