<?xml version="1.0" encoding="utf-8"?>
<!-- Generator: Adobe Illustrator 25.0.0, SVG Export Plug-In . SVG Version: 6.00 Build 0)  -->
<svg version="1.1" id="圖層_1" xmlns="http://www.w3.org/2000/svg" xmlns:xlink="http://www.w3.org/1999/xlink" x="0px" y="0px"
	 viewBox="0 0 200 200" style="enable-background:new 0 0 200 200;" xml:space="preserve">
<style type="text/css">
	.st0{fill:#FBB040;}
	.st1{clip-path:url(#SVGID_3_);}
	.st2{fill:#FED5B7;}
	.st3{fill:#AA633C;}
	.st4{fill:#6DA8C6;}
	.st5{fill:#44788C;}
	.st6{opacity:0.31;fill:#AA633C;enable-background:new    ;}
	.st7{fill:#C23F37;}
	.st8{fill:#FFFFFF;}
	.st9{fill:#7A1E1B;}
</style>
<g>
	<circle id="SVGID_1_" class="st0" cx="100" cy="100" r="100"/>
</g>
<g>
	<g>
		<defs>
			<circle id="SVGID_2_" cx="100" cy="100" r="100"/>
		</defs>
		<clipPath id="SVGID_3_">
			<use xlink:href="#SVGID_2_"  style="overflow:visible;"/>
		</clipPath>
		<g class="st1">
			<path class="st2" d="M190.2,240.5c-3.7,4-7.4,8.6-8.6,11.4c-2.5,6.1-3,14.5,1.5,19.4c3.7,4,39.9,2.5,52.9,1.9
				c9.7-0.5,19.8,0.4,29.2,4.2c5.2,2.1,27.6,14.7,27.7,9.5c0.1-1.5-14.3-13-14.3-13c8,4.8,27.3,12,38.1,14c1.5,0.2,2.1-2.1,0.8-3
				C312,281,296.2,273,293,271.3c5.9,4.3,24.1,11.2,32.1,12.1c1.5,0.1,2.1-2.1,0.8-3.1c-5.6-4.4-25.3-14-30.2-16.5
				c7,5.2,25.1,16.5,32.7,16.2c1.2,0,1.7-1.7,0.8-2.8c-5.5-6.4-24.2-19-31.5-20.1c6.8,4.1,18.2,8.6,25.6,9.9
				c1.1,0.2,1.8-1.2,1.1-2.3c-1.7-2.8-25.9-13-35.7-15c-3.4-0.7-35.1,2.2-38.9,1.2C239.5,248.1,195.1,234.7,190.2,240.5z"/>
			<path class="st3" d="M326,279.8c-1.4-1.4-3.1-2.4-4.8-3.2c-7.2-3.5-14.5-7-21.7-10.5c-0.3-0.2-0.8-0.1-1,0.3
				c-0.2,0.3-0.1,0.8,0.3,1c2,1,4.1,2,6.1,3c3.6,1.7,7.2,3.5,10.8,5.2c1.7,0.8,3.5,1.6,5.2,2.5c1.5,0.7,3,1.5,4.1,2.7
				C325.7,281.5,326.7,280.4,326,279.8z"/>
			<path class="st3" d="M301.2,262c-2.2,3.1-4.3,6.3-6.4,9.5c-0.6,0.9,0.8,1.6,1.3,0.8c2.2-3.1,4.3-6.3,6.4-9.5
				C303,262,301.7,261.2,301.2,262z"/>
			<path class="st3" d="M316.5,281.9c0.2-0.3,0.1-0.8-0.3-1c-1.4-0.7-2.9-1.3-4.3-2c-5.1-2.4-10.3-4.6-15.5-6.6
				c-0.3-0.2-0.8,0.1-0.9,0.5c-0.2,0.4,0.1,0.7,0.5,0.9c1.5,0.5,3,1.1,4.4,1.7c5.1,2.1,10.1,4.3,15.1,6.7
				C315.8,282.3,316.3,282.2,316.5,281.9z M316.1,264.8c-3.6-2-7.4-3.6-11.4-4.6c-0.9-0.2-1.4,1.3-0.4,1.5c3.9,1,7.5,2.5,11,4.5
				C316.2,266.7,317,265.4,316.1,264.8z M269.6,262c-0.3-0.2-0.8,0-1,0.3c-0.9,1.4-1.9,2.9-2.8,4.3c-0.2,0.3,0,0.8,0.3,1
				c0.3,0.2,0.8,0,1-0.3c0.9-1.4,1.9-2.9,2.8-4.3C270.2,262.7,270,262.2,269.6,262z"/>
			<path d="M130.1,39.6l1.1,0.7c6.8,6.1,14.2,13.3,14.3,22.5c0,4.4-1.6,8.7-0.7,13c1.2,5.7,6.5,9.4,9.7,14.2c3.5,5.2,4.5,12,2.7,18
				c-1.5,5.2-5,10-4.4,15.3c0.8,6.5,8.4,9.5,12.4,14.8c20.8,27,5.2,36.5,3.9,45.8c-6.9,4.1-13.2-19.2-17.3-12.2
				c-11.8,20.2-20-6.5-30.9-7.1c-6.7-0.3-12.8,3.7-18.7,6.7c-4.5,2.3-9,4.6-13,7.8c-4.3,3.5-7.9,7.9-12.7,10.8c-5,3-10.9,4-16.7,4.9
				c-5.4,0.8-10.8,1.4-16.2,2c-7.2-10.7-12.4-33.5-1.1-55.1C51,125.5,51.6,93.6,55,68.5c0.7-5.5,1.7-11.1,4.3-16.1
				c4.3-8.5,13-14.2,22.2-16.3c4.5-1,9.1-1.3,13.6-2c5.6-1,11-2.7,16.7-2.8c4.8-0.1,10,1.2,13.5,4.5
				C126.8,37.2,128.4,38.5,130.1,39.6L130.1,39.6z"/>
			
				<ellipse transform="matrix(0.9726 -0.2324 0.2324 0.9726 -17.411 35.3995)" class="st4" cx="141.5" cy="91.6" rx="9.6" ry="14.3"/>
			<path class="st5" d="M139.9,80.3c-0.9-0.5-1.6,0.8-0.7,1.3c1.6,1,2.9,2.3,4,3.8c1.9,2.8,3,6.1,3.2,9.5c0.2,3.1-0.5,6.8-3.1,8.8
				c-0.4,0.2-0.5,0.6-0.3,1c0.1,0.4,0.7,0.5,1,0.3c1.7-1.3,2.8-3.1,3.4-5.1c1-3.5,0.5-7.5-0.7-10.9
				C145.4,85.4,143.1,82.3,139.9,80.3L139.9,80.3z"/>
			<path class="st2" d="M132.1,56.2l-54.6,6.9c-0.2,0.2,6.2,33.6,6.7,33.9c-3.3-4.3-10.6-4.1-14.3-0.2c-3.8,3.9-4.1,10.2-1.8,15.1
				c1.6,3.4,4.7,6.4,8.5,7.1s8.2-1.6,9-5.4c-0.5,16.7,0.1,33.4,1.6,50c8.1,5.8,35.4-4.7,35.4-4.7l-3.4-26.7c0,0,14.7,0.9,21.4-2
				c2.3-1,4.6-2.3,5.9-4.4c2-3.1,1.4-7.1,0.8-10.7C143.7,95.1,138.6,75.4,132.1,56.2L132.1,56.2z"/>
			<path d="M127.5,50.8l0.3-1.1c-8.6-1.2-17.3-2.3-25.8-0.9s-17,5.6-21.7,12.8c-3.1,4.8-4.4,10.5-5,16.2c-0.4,4.6-0.6,9.3,1.1,13.6
				s5.3,8.1,9.8,8.8c1.4,0.2,3,0.1,4.1-0.9c1.4-1.2,1.4-3.5,0.5-5.1c-0.8-1.6-2.4-2.8-3.9-3.8c2.2,0.2,4.3-1.5,4.7-3.7
				c0.4-2.1-1.1-4.4-3.2-5c2,0.7,4.2,1.2,6.3,0.7c2-0.5,4-2.1,4.3-4.2c0.3-2.1-1.5-4.5-3.6-4.3c2,1.5,4,3.1,6.3,3.8
				c2.3,0.7,5.1,0.5,6.9-1.2c1.7-1.7,1.8-5.1-0.3-6.4c1.6,2,3.3,4,5.6,5.2s5.3,1.2,7.2-0.5c1.9-1.8,1.6-5.5-0.8-6.4
				c1.1,1.9,2.6,3.7,4.5,4.9c1.9,1.3,4.6,1.9,6.3,0.4c1.3-1.3,1.3-3.6,0.4-5.2c-0.9-1.6-2.5-2.8-4-3.9c2.1,0.9,3.7,2.7,5.8,3.8
				c2,1.1,5.1,1,6.1-1.1c0.4-0.7,0.4-1.6,0.3-2.4C139.1,58.3,134.3,54.8,127.5,50.8L127.5,50.8z"/>
			<path class="st4" d="M65.7,107.2c0.9,5,3.8,9.6,7.9,12.8c1.3,1.1,2.7,2,4.4,2.3c2.9,0.5,5.9-1.1,7.6-3.5c0.4-0.7,0.8-1.4,1.1-2.1
				c0.9,0.5,1.7,1,2.6,1.4c7.4,3.8,15.7,5.6,24,5.1c0.2,1.3,1.7,2.1,3.4,1.9l6.9-0.9c1.9-0.2,3.3-1.6,3.2-3c-0.2-1.4-1.6-2.2-3.4-2
				l-6.9,0.9c-1.3,0.1-2.4,0.8-2.9,1.7c-1.6,0.1-3.3,0.2-4.9,0.1c-7.6-0.3-15.1-2.6-21.6-6.5c0.4-1.6,0.6-3.3,0.6-5
				c0-3.1-0.7-6.1-1.8-8.9c-1.9-4.7-5.7-8.4-10.4-10.4c-0.4-0.2-0.9-0.3-1.3-0.3c0-7,0.9-14,4.1-20.1C84.9,58,100,52,114.3,51.2
				c5.9-0.3,16.6-0.4,20.4,4.2c-1.7-5.3-12-8.3-17.4-9.5s-11.1-0.4-16.5,1c-4.5,1.2-9,2.7-12.9,5.2C75.2,60,70,76.4,71.7,91.4
				c-0.8,0.4-1.4,1-2,1.6C66.2,96.7,64.8,102.2,65.7,107.2L65.7,107.2z"/>
			<path class="st5" d="M71.3,91.8c-0.4-0.1-0.9-0.1-1.1,0.4c-0.2,0.3-0.1,0.8,0.3,1c2.5,1.1,4.6,2.9,6.5,4.9
				c3.1,3.3,5.4,7.5,5.7,12.1c0.2,4.2-1.3,8.5-4.6,11.2c-0.3,0.3-0.3,0.8,0,1.1s0.8,0.3,1.1,0c2-1.6,3.4-3.9,4.2-6.3
				c1.5-4.6,0.7-9.6-1.5-13.8c-1.1-2.2-2.7-4.2-4.4-6C75.7,94.5,73.7,92.9,71.3,91.8L71.3,91.8z M75,90.3c0-0.4-0.4-0.8-0.8-0.8h-2
				c-0.5,0-0.8,0.4-0.8,0.8s0.4,0.8,0.8,0.8h2C74.6,91.1,75,90.7,75,90.3z M115.9,121.9c0.3-0.3,0.3-0.7-0.1-1
				c-0.3-0.3-0.8-0.3-1.1,0c-0.3,0.3-0.5,0.8-0.6,1.2s-0.1,0.9,0.1,1.3c0,0.1,0.1,0.2,0.2,0.3c0.1,0,0.1,0.1,0.2,0.1
				c0.2,0.1,0.4,0.1,0.6,0.1c0.2-0.1,0.4-0.2,0.5-0.4s0.2-0.4,0.1-0.6c0-0.1-0.1-0.3-0.1-0.4v0.2v-0.4v0.2c0-0.2,0-0.4,0.1-0.5
				c0,0.1-0.1,0.1-0.1,0.2C115.8,122.1,115.8,122,115.9,121.9C115.9,122,115.9,122,115.9,121.9L115.9,121.9L115.9,121.9z
				 M125.3,119.2c-0.2-0.1-0.4-0.1-0.3,0.1c-0.2,0.1-0.4,0.2-0.5,0.4s-0.2,0.4-0.1,0.6s0.2,0.4,0.4,0.5c0,0,0.1,0,0.2,0.1
				c-0.1,0-0.1-0.1-0.2-0.1c0.1,0,0.1,0.1,0.2,0.2c0-0.1-0.1-0.1-0.1-0.2c0.1,0.1,0.2,0.2,0.2,0.3c0-0.1-0.1-0.1-0.1-0.2
				c0,0.1,0.1,0.3,0.1,0.4v-0.2v0.4v-0.2c0,0.1-0.1,0.2-0.1,0.3c0-0.1,0.1-0.1,0.1-0.2c-0.1,0.1-0.1,0.2-0.2,0.3
				c0-0.1,0.1-0.1,0.1-0.2c-0.1,0.1-0.2,0.2-0.2,0.3v0.2c0,0.2,0.1,0.4,0.2,0.5s0.3,0.2,0.5,0.2c0.1,0,0.4-0.1,0.5-0.2
				c0.2-0.3,0.3-0.6,0.4-0.9s0.1-0.7,0-1C126.3,120,125.8,119.5,125.3,119.2L125.3,119.2z M111.7,44.8c-9.3,0.1-18.5,3.1-26,8.5
				l3.9,5.7c7.8-4.9,17.2-6.3,26.3-7.7c-0.9-2.2-2.1-4.2-3.7-6L111.7,44.8z"/>
			<path class="st6" d="M120,137.3l-28.2-3l27.3-2L120,137.3z"/>
			<path class="st7" d="M38.9,193.1c-1.2,8.3,17.6,72.6,22.1,97.3c0.2,1.5,0.6,3.2,1.6,4.3c1.2,1.4,3.1,1.7,4.8,2
				c20.9,3.3,42.4,2.8,63.1-1.4c3.2-0.7,10.1-2.1,12.7-4c3.7-2.7,2.5-18.3,4.2-22.5c4.8-11.9,4.2,6.5,15.7,1.6
				c1-0.5,11.3,8.4,24.3,3.4c2.3-8.5,0.6-21.8,12.1-32.4c1.4-1.3,1-3.8,0.7-5.7s-1.4-3.6-2.4-5.2c-4.8-7.4-14.7-7.7-19.5-15.1
				c-6.9-10.6-14.1-54.6-23.9-62.6c-9.8-8-16.4-10.4-28.6-7.1c0,0-0.6-9.8-2.7-9.6c-13.4,1.3-26.8-0.3-40.2,1
				c1.3,8.1,1.7,16.3,1.3,24.4C66.9,163.4,41.3,175.9,38.9,193.1L38.9,193.1z"/>
			<path class="st2" d="M131.5,237.1c0-0.3-16-60.7-23.4-88.6c-1-4.1-2.1-8.2-4.3-11.7c-1.6-2.6-3.8-4.8-6.2-6.7
				c-2.8-2.2-4.6-5.7-4.5-9.3c0.1-0.8-0.1-1.6-0.6-2.2c-1.5-2.2-5.4-2.8-6.6-0.4c1.5-2.2,0.1-4.1-2.3-5.2s-6.2,4.1-6.9,6.6
				c-1.3-1-0.2-21.6-5.8-21.6c-7.5,0-1,14.9-1.4,20.8c0.1-5.5-3.5-18-5.1-17.5c-2.8,0.9-2.6,6.1-2.2,8.5c1.3,7.9,2.1,17.5,3.4,25.4
				c0.2,1.5,1,1.5,1.7,2.9c1.2,2.4,3.6,4,5.9,5.5c5.6,3.7,11.5,7.5,14.6,13.4c3,5.6,3.1,12.2,3.1,18.5c0.1,13.6,0.1,27.3,0.2,40.9
				c0.1,11,0.5,23,7.7,31.3c3.9,4.4,9.6,7.3,15.5,7.5C119.9,255.4,132.7,248.7,131.5,237.1L131.5,237.1z"/>
			<path class="st3" d="M86.7,117.7c0.4-0.3,0.3-0.9,0.1-1.1c-0.3-0.3-0.8-0.3-1.1,0c-2.1,1.9-3.2,4.9-3.6,7.6
				c-0.1,0.4,0.1,0.8,0.5,0.9c0.3,0.1,0.8-0.1,0.9-0.5C83.8,122.1,84.7,119.4,86.7,117.7L86.7,117.7z"/>
			<path class="st3" d="M102,135.3c0.1,0.4,0.5,0.7,1,0.5c0.3-0.1,0.6-0.5,0.5-0.9c-0.8-2-2.4-3.3-4.1-4.5c-1.4-1.1-3-2-4.1-3.4
				c-1.2-1.5-1.3-3.4-1.6-5.2c-0.2-1.8-0.6-3.8-2.1-5.1c-1.7-1.4-4.2-1.4-6,0l1.2,0.9c0.6-1.5,0.1-3-1-4.1c-1.1-0.9-2.4-1.3-3.8-1.1
				c-1.4,0.3-2.6,1.1-3.6,2.1c-2.2,2.2-3.5,5.3-4.1,8.3c-0.1,0.4,0.1,0.8,0.5,0.9c0.3,0.1,0.8-0.1,0.9-0.5c0.2-1.5,0.7-2.9,1.4-4.3
				c1-1.9,2.5-4.3,4.8-4.9c1-0.3,1.9-0.1,2.7,0.6c0.6,0.5,1.2,1.4,0.8,2.2s0.5,1.5,1.2,0.9s1.9-0.8,2.8-0.5c0.9,0.2,1.6,0.9,2,1.7
				c0.8,1.6,0.8,3.4,1.1,5.1c0.4,1.8,1,3.4,2.3,4.7c1.2,1.3,2.7,2.2,4.1,3.2C100.2,132.8,101.4,133.8,102,135.3L102,135.3z"/>
			<path class="st3" d="M69,123c0.1,0.4,0.3,0.8,1,1.1c0.4,0,0.8-0.4,0.8-0.8c0-0.3,0-0.7-0.1-1.1c-0.7-4.8-1.5-9.6-2.6-14.3
				c-0.4-1.9-0.9-4-1.8-5.7c-0.3-0.7-0.9-1.4-1.8-1.5c-0.9,0-1.7,0.7-2.2,1.4c-1,1.5-1.2,3.6-1.1,5.4s0.6,3.7,1,5.5
				c0.5,2,0.9,4.1,1.3,6.1c0.7,4.2,1.1,8.4,1.3,12.6c0,1.9-0.1,3.9,0.4,5.7c0.3,0.9,0.8,1.7,1.5,2.3c0.6,0.6,1.4,1.1,2.2,1.6
				c2.8,1.7,5.6,3.6,8.3,5.7c5.2,4.1,9.9,9.2,12.3,15.5c0.1,0.4,0.5,0.6,0.9,0.5c0.3-0.1,0.6-0.5,0.5-0.9c-0.3-0.8-0.6-1.6-1-2.3
				c-2.8-5.9-7.5-10.6-12.7-14.6c-2.7-2-5.5-3.8-8.3-5.6c-0.6-0.4-1.3-0.9-1.8-1.5s-0.7-1.5-0.8-2.3s-0.1-1.7-0.1-2.6
				c0-1,0-2.1-0.1-3.1c-0.3-4-0.8-8.1-1.5-12.1c-0.4-2-0.8-4-1.3-5.9c-0.5-1.7-0.9-3.5-0.9-5.3c0-0.9,0-1.8,0.3-2.6
				c0.2-0.6,0.5-1.6,1.2-1.9c0.4-0.3,0.7,0.5,0.9,0.8c0,0,0.1,0.1,0.1,0.2v0.1c0.1,0.2,0-0.1,0,0c0.1,0.2,0.1,0.3,0.2,0.5
				c0.8,2.1,1.2,4.3,1.7,6.4c0.5,2.6,1,5.1,1.4,7.6c0.2,1,0.3,2.1,0.5,3.2c0.1,0.4,0.1,0.8,0.2,1.2c0,0.1,0-0.2,0,0v0.3
				C69,122.7,69,122.9,69,123L69,123z M100.4,154.1c-2.6,0.7-5.2,1.3-7.8,1.9c-1,0.3-0.6,1.7,0.4,1.5c2.6-0.7,5.2-1.3,7.8-1.9
				C101.7,155.4,101.3,153.9,100.4,154.1z"/>
			<path class="st3" d="M75.9,118.2c0,1,1.5,1,1.4,0c0-3.3-0.3-6.6-0.8-9.9c-0.4-2.7-0.9-5.4-2.1-7.9c-0.9-2-2.8-4.5-5.4-3.5
				c-1.1,0.5-1.9,1.4-2.4,2.5c-0.5,1.2-0.6,2.6-0.5,3.9c0.1,2.9,0.5,5.8,1,8.7c0,0.4,0.5,0.6,0.9,0.5s0.6-0.5,0.5-0.9
				c-0.5-2.9-0.9-5.9-1-8.8c0-1.1,0-2.3,0.6-3.3c0.4-0.8,1.3-1.5,2.2-1.4c0.9,0,1.6,0.8,2,1.5c0.7,1,1.1,2.1,1.5,3.2
				c0.8,2.4,1.2,4.9,1.5,7.4C75.7,112.9,75.9,115.5,75.9,118.2L75.9,118.2z M115.8,176.5c0.3,0.9,1.8,0.5,1.4-0.4
				c-0.9-2.7-1.7-5.5-2.6-8.2c-1.5-4.9-3-9.8-4.2-14.8c-0.5-2.4-1-4.7-1.6-7.1c-0.5-2.3-1.3-4.5-2.5-6.5c-0.5-0.8-1.8,0-1.3,0.8
				c1.4,2.1,2,4.6,2.6,7.1c1.1,4.8,2.3,9.7,3.7,14.5C112.7,166.8,114.3,171.7,115.8,176.5L115.8,176.5z M123.7,87.6
				c-0.3-0.9-1.8-0.5-1.4,0.4c0.5,1.6,1.1,3.2,1.7,4.7c2.2,5.4,5.3,10.4,9.1,14.8c0.1-0.4,0.2-0.9,0.3-1.3c-2.9,0.4-5.5-1.8-7.6-3.5
				c-0.3-0.3-0.8-0.3-1.1,0c-0.3,0.3-0.3,0.8,0,1.1c2.6,2.2,5.5,4.4,9.1,3.9c0.6-0.1,0.6-0.9,0.3-1.3c-1-1.2-2-2.4-2.9-3.7
				C127.9,98.1,125.4,93,123.7,87.6L123.7,87.6z"/>
			<path class="st8" d="M115.9,109.3c0.6,2.7,2.8,5.1,5.5,5.5s5.7-1.6,5.9-4.4L115.9,109.3z"/>
			<path class="st3" d="M127.4,109.7c-0.5,0-0.8,0.4-0.8,0.8c-0.1,1-0.7,1.8-1.4,2.5c-1.4,1.2-3.4,1.5-5.1,0.7
				c-1.8-0.9-3-2.7-3.5-4.6c-0.2,0.4-0.5,0.7-0.7,1c0.4,0,0.9,0.1,1.4,0.1c3.3,0.3,6.7,0.7,10,1c0.4,0,0.8-0.4,0.8-0.8
				c0-0.5-0.4-0.8-1-0.8c-0.4,0-0.9-0.1-1.4-0.1c-3.3-0.3-6.7-0.7-10-1c-0.5,0-0.8,0.6-0.7,1c0.4,1.3,1.1,2.6,2,3.7
				c1.7,1.9,4.3,2.9,6.7,2.2c2.3-0.6,4.2-2.6,4.4-5C128.1,109.9,127.7,109.6,127.4,109.7z"/>
			<path d="M116,101.1c0.3-0.1,0.6-0.5,0.5-0.9c-0.8-2.1-3-3.6-5.3-3.3s-4,2.2-4.3,4.5c0,0.4,0.4,0.8,0.8,0.8c0.5,0,0.7-0.4,0.8-0.8
				c0.2-1.5,1.5-2.8,3-3c1.5-0.2,3.1,0.8,3.6,2.2C115.2,101,115.6,101.3,116,101.1z M140.4,96.9c0.3-0.1,0.6-0.5,0.5-0.9
				c-0.8-2.1-3-3.6-5.3-3.3s-4,2.2-4.3,4.5c0,0.4,0.4,0.8,0.8,0.8c0.5,0,0.7-0.4,0.8-0.8c0.2-1.5,1.5-2.8,3-3
				c1.5-0.2,3.1,0.8,3.6,2.2C139.6,96.8,140,97.1,140.4,96.9z M113.7,86.5l0.2-0.5c-5.3-0.9-10.8,3.2-11.4,8.5
				c1.8-2.3,4.6-4,7.6-4.3c1.1-0.2,2.3-0.2,3.3-0.8C114.3,88.7,114.7,87.1,113.7,86.5L113.7,86.5z M127.5,78.1l-0.2-0.5
				c5.3-0.9,10.8,3.2,11.4,8.5c-1.8-2.3-4.6-4-7.6-4.3c-1.1-0.2-2.3-0.2-3.3-0.8C126.9,80.3,126.5,78.7,127.5,78.1L127.5,78.1z"/>
			<path class="st9" d="M105.7,136.1c-0.4,0.1-0.6,0.6-0.4,1c0.1,0.4,0.5,0.6,0.9,0.5c2-0.4,4.1-0.5,6.1-0.6
				c3.6-0.1,7.3,0.1,10.9,0.3c0.2,0,0.8-0.1,1,0.1s0.3,0.7,0.4,0.9c0.3,0.9,0.5,1.7,0.7,2.5c0.4,1.7,0.6,3.5,0.6,5.2
				c0,1,1.5,1,1.5,0c-0.1-2.2-0.3-4.3-0.9-6.4c-0.2-0.9-0.5-1.8-0.9-2.7c-0.4-0.9-1.3-1-2.2-1.1c-2-0.1-3.9-0.2-5.9-0.3
				C113.6,135.4,109.6,135.5,105.7,136.1L105.7,136.1z M133.9,160.2c-0.3-1-1.8-0.6-1.4,0.3c0.3,1,0.7,2,1,3
				c2.6,8,6.1,15.8,10.2,23.1c3.9,7,8.5,13.7,11.2,21.3c2.8,8,2.7,16.6,1.2,24.9c-1.5,8.6-4.5,16.8-6.9,25.1
				c-2.4,8.2-4.4,16.7-3.9,25.3c0,1,1.6,1,1.5,0c-0.1-1-0.1-2.1-0.1-3.2c0.1-8.7,2.5-17.2,5-25.4c2.5-8.2,5.2-16.5,6.4-25.1
				c0.6-4.3,0.8-8.5,0.3-12.8c-0.4-4.1-1.5-8.1-3.1-11.9c-3.1-7.4-7.8-14.1-11.6-21.2C139.7,176.2,136.4,168.3,133.9,160.2
				L133.9,160.2z"/>
			<path class="st9" d="M120.6,137.4c0-0.5-0.3-0.8-0.7-0.8s-0.8,0.4-0.8,0.8c0.4,4.2,1,8.3,1.7,12.4c0,0.4,0.5,0.6,0.9,0.5
				c0.4-0.1,0.6-0.5,0.5-0.9C121.5,145.4,121,141.4,120.6,137.4L120.6,137.4z M115.2,137.3c-0.4,0-0.8,0.4-0.8,0.8
				c0.3,3.5,0.6,6.9,0.9,10.4c0.1,0.4,0.4,0.8,0.8,0.8s0.8-0.4,0.8-0.8c-0.3-3.5-0.6-6.9-0.9-10.4
				C115.9,137.7,115.6,137.3,115.2,137.3z M109.6,137.3c-0.4,0-0.9,0.4-0.8,0.8c0.4,3,0.7,6,1.1,9c0.1,0.4,0.3,0.8,0.8,0.8
				c0.4,0,0.9-0.4,0.8-0.8c-0.4-3-0.7-6-1.1-9C110.3,137.6,110.1,137.3,109.6,137.3z M200.8,237.9c-2.1,2.1-3.9,4.4-5.5,6.9
				c-2.8,4.3-5,9.1-6.4,14.1c-1.4,5-2,10.2-1.8,15.4c0,1,1.5,1,1.5,0c-0.1-2.9,0-5.7,0.4-8.5c0.7-5,2.1-9.9,4.3-14.5
				c2.2-4.5,5-8.7,8.5-12.4C202.4,238.2,201.4,237.1,200.8,237.9z"/>
			<path class="st9" d="M201,239.6c0.4-0.2,0.5-0.6,0.3-1c-1.4-3.2-4-5.9-7.1-7.4c-0.3-0.2-0.8-0.1-1,0.3c-0.2,0.3-0.1,0.8,0.3,1
				c3,1.5,5.3,3.9,6.6,6.9C200.3,239.8,200.9,239.8,201,239.6z M198.7,240.9c-2.3-2.4-5-4.4-8.1-5.8c-0.3-0.1-0.8-0.1-1,0.3
				c-0.2,0.3-0.1,0.8,0.3,1c3,1.3,5.6,3.2,7.8,5.6C198.4,242.8,199.5,241.7,198.7,240.9z M194.9,246c0.7,0.6,1.8-0.4,1.1-1.1
				c-2.2-2-4.8-3.5-7.6-4.3c-0.9-0.3-1.3,1.2-0.4,1.5C190.5,242.9,192.9,244.2,194.9,246L194.9,246z M190,252.2
				c0.8,0.6,1.6-0.8,0.8-1.3c-2.4-1.6-5-2.7-7.7-3.4c-0.9-0.2-1.4,1.3-0.4,1.5C185.3,249.7,187.7,250.7,190,252.2L190,252.2z
				 M189.1,259.2c-2.4-0.6-4.8-1.3-7.2-1.9c-0.9-0.2-1.4,1.2-0.4,1.5c2.4,0.6,4.8,1.3,7.2,1.9C189.7,260.9,190.1,259.4,189.1,259.2z
				 M187.5,268.7c0.9-0.1,0.9-1.6,0-1.5c-2.8,0.2-5.6,0.2-8.4-0.2c-0.4-0.1-0.8,0.1-0.9,0.5c-0.1,0.3,0.1,0.8,0.5,0.9
				C181.6,268.8,184.6,268.9,187.5,268.7L187.5,268.7z M187.4,273.6c0.9-0.3,0.5-1.8-0.4-1.5c-2.4,0.8-4.9,1.1-7.4,1
				c-1-0.1-1,1.4,0,1.5C182.3,274.8,184.9,274.4,187.4,273.6L187.4,273.6z M178.9,220c0.7-0.7-0.4-1.8-1-1.1
				c-1.3,1.3-2.6,2.6-3.8,3.9c-4.3,4.8-8,10.1-10.8,15.9c-0.5,0.9,0.9,1.7,1.3,0.8c0.7-1.6,1.6-3.2,2.5-4.7
				C170.3,229.3,174.3,224.3,178.9,220L178.9,220z M175.7,217.5c0.4-0.3,0.3-0.8,0.1-1.1c-0.3-0.3-0.8-0.3-1.1,0
				c-3.9,3.1-7.4,6.7-10.5,10.7c-0.2,0.3,0,0.8,0.3,1s0.7,0,1-0.3C168.4,224,171.9,220.5,175.7,217.5L175.7,217.5z M166.7,262.8
				c-0.8,2.3-1.4,4.7-1.7,7.2c-0.1,0.4,0.1,0.8,0.5,0.9c0.3,0.1,0.8-0.1,0.9-0.5c0.3-2.4,0.9-4.9,1.7-7.2
				C168.4,262.3,166.9,261.9,166.7,262.8z M164.8,262.3c-0.5,0-0.8,0.4-0.8,0.8c-0.2,2.3-0.8,4.5-1.8,6.5c-0.2,0.3-0.1,0.8,0.3,1
				c0.3,0.2,0.8,0.1,1-0.3c1-2.3,1.7-4.8,2-7.3C165.5,262.6,165.1,262.3,164.8,262.3z M155.9,257.8c-0.3-0.2-0.8,0-1,0.3
				c-1.1,1.4-2.2,2.9-3.3,4.3c-0.2,0.3,0,0.8,0.3,1c0.3,0.2,0.8,0,1-0.3c1.1-1.4,2.2-2.9,3.3-4.3C156.5,258.5,156.3,258,155.9,257.8
				z M139.7,161.4c-0.3-0.2-0.8-0.1-1,0.3c-1.2,2.6-1.7,5.4-1.5,8.3c0.1,0.4,0.4,0.8,0.8,0.8s0.8-0.4,0.8-0.8
				c-0.2-2.5,0.2-5.1,1.2-7.5C140.1,162.1,140.1,161.7,139.7,161.4z M60.4,172.2c-0.2,0.4,0.1,0.7,0.5,0.9c2.2,0.9,4.4,2,6.5,3.1
				c7.5,4.1,14.2,9.4,19.8,15.8c0.7,0.7,1.7-0.4,1.1-1.1c-1.6-1.8-3.3-3.5-5.1-5.2c-6.4-5.9-13.9-10.7-21.9-14
				C61,171.5,60.5,171.8,60.4,172.2z"/>
			<path class="st9" d="M86.8,166c0.4,0,0.6-0.6,0.4-0.9c-0.1-0.4-0.5-0.6-0.9-0.5c-1.7,0.2-3.5,0.5-5.2,0.9
				c-6.1,1.3-12.1,3.4-17.8,6.2c-0.9,0.4-0.1,1.7,0.8,1.3c1.6-0.8,3.2-1.5,4.8-2.2C74.6,168.5,80.7,166.9,86.8,166L86.8,166z
				 M127.6,255.6c0.3-0.3,0.4-0.7-0.1-1c-0.3-0.3-0.8-0.3-1.1,0c-0.4,0.5-0.8,1-1.2,1.4c-3.3,3.4-8,5.2-12.7,5.7
				c-5.2,0.6-10.4-0.1-15.4-1.4c-5.5-1.5-10.8-3.8-15.8-6.5c-5.1-2.8-10-6.1-14.6-9.6c-4.6-3.6-9.1-7.3-13.5-11.1
				c-0.8-0.6-1.8,0.5-1.1,1.1c0.6,0.5,1.1,1,1.7,1.5c4.6,3.9,9.2,7.7,14,11.2s9.7,6.7,15,9.4c5.3,2.6,10.8,4.7,16.5,6
				c5.1,1.1,10.4,1.5,15.6,0.5C119.8,261.8,124.5,259.6,127.6,255.6L127.6,255.6z"/>
			<path class="st9" d="M92.3,227.9c0.1-1-1.5-1-1.6,0c-0.1,2.3-0.1,4.5,0.2,6.7c0.3,1.7,0.7,3.5,1.4,5.2
				c2.4,6.2,7.2,11.5,13.2,14.3c5.8,2.7,14.2,3.6,18.9-1.7c0.6-0.8-0.4-1.8-1.1-1.1c-2.4,2.7-6,3.6-9.5,3.4
				c-6.2-0.3-12.1-3.9-16-8.6c-2-2.3-3.5-5.1-4.5-8c-0.5-1.4-0.8-3-1-4.5C92.1,231.7,92.2,229.8,92.3,227.9L92.3,227.9z"/>
			<path class="st9" d="M114.8,254.9c-0.3-0.2-0.8,0.1-0.9,0.5c-0.1,0.3-0.2,0.7-0.3,1.1c-0.1,0.2-0.1,0.4-0.2,0.6
				c0,0.1-0.1,0.2-0.1,0.3s0,0.1,0,0v0.1c-0.3,0.7-0.7,1.4-1.2,2c-0.2,0.3,0,0.8,0.3,1s0.8,0,1-0.3c1-1.4,1.7-2.9,2-4.5
				C115.5,255.3,115.3,254.9,114.8,254.9z M108.6,253.8c-0.3-0.3-0.8-0.3-1.1,0l-2.9,2.9c-0.3,0.3-0.3,0.8,0,1.1s0.8,0.3,1.1,0
				l2.9-2.9C108.9,254.6,108.9,254.2,108.6,253.8z M100.2,249.4c-0.1-0.4-0.5-0.6-0.9-0.5c-1.6,0.3-3.1,0.8-4.6,1.4
				c-0.4,0.1-0.6,0.5-0.5,0.9c0,0.3,0.5,0.6,0.9,0.5c1.5-0.6,3-1.1,4.6-1.4C100.1,250.2,100.3,249.7,100.2,249.4z M94.8,243.4
				c0.1-0.3-0.1-0.8-0.5-0.9c-1.8-0.3-3.6-0.2-5.4,0.3c-0.4,0.1-0.6,0.5-0.5,0.9c0,0.4,0.5,0.6,0.9,0.5c1.5-0.5,3.1-0.6,4.6-0.3
				C94.4,244,94.8,243.8,94.8,243.4z M92.3,236.3c0.1-0.4-0.1-0.8-0.5-0.9c-1.7-0.5-3.3-1-5-1.5c-0.4-0.2-0.8,0.1-0.9,0.5
				s0.1,0.8,0.5,0.9c1.7,0.5,3.3,1,5,1.5C91.8,237,92.2,236.7,92.3,236.3z M92.3,228.4c0.2-0.4-0.1-0.8-0.5-0.9
				c-1-0.3-2.1-0.7-3.2-1c-0.4-0.2-0.8,0.1-0.9,0.5c-0.2,0.4,0.1,0.8,0.5,0.9c1,0.3,2.1,0.7,3.2,1C91.8,229.1,92.2,228.8,92.3,228.4
				z M88.8,218.3c0.3-0.3,0.4-0.8-0.1-1.1c-0.3-0.3-0.8-0.3-1.1,0c-1.3,1.6-2.5,3.3-3.5,5.1c-3.6,6.3-5.1,13.8-4.3,21
				c0.1,0.4,0.3,0.8,0.8,0.8c0.4,0,0.8-0.4,0.8-0.8c-0.2-1.9-0.2-3.9-0.1-5.9C81.8,230.5,84.4,223.7,88.8,218.3L88.8,218.3z
				 M84.5,217.2c0.7-0.7-0.4-1.8-1-1.1c-1.1,1.1-2.2,2.3-3.1,3.5c-3.3,4.4-5.6,9.5-6.5,14.9c-0.1,0.4,0.1,0.8,0.5,0.9
				c0.3,0.1,0.8-0.1,0.9-0.5c0.3-1.5,0.6-3,1.1-4.4C78,225.5,80.8,220.9,84.5,217.2L84.5,217.2z M60.8,214.5c-0.3,0.3-0.3,0.8,0,1.1
				l4.5,4.2c0.3,0.3,0.8,0.3,1.1,0s0.3-0.8,0-1.1l-4.5-4.2C61.5,214.2,61.1,214.2,60.8,214.5z M58.3,219.5c-0.3,0.3-0.3,0.8,0,1.1
				l3.3,3.6c0.3,0.3,0.8,0.3,1.1,0s0.3-0.8,0-1.1l-3.3-3.6C59.1,219.2,58.6,219.2,58.3,219.5z M51.5,207.6c-0.3,0.3-0.3,0.8,0,1.1
				l2.2,2.2c0.3,0.3,0.8,0.3,1.1,0s0.3-0.8,0-1.1l-2.2-2.2C52.3,207.3,51.9,207.3,51.5,207.6z M144.7,238c-0.1-0.4-0.7-0.5-1-0.3
				c-2.5,1.7-5.1,3.5-7.6,5.3c-0.4,0.2-0.5,0.6-0.3,1c0.1,0.4,0.7,0.5,1,0.3c2.5-1.7,5.1-3.5,7.6-5.3
				C144.8,238.7,144.9,238.3,144.7,238z M139.6,245.4c-2.2,1.2-4.5,2.4-6.8,3.6c-0.8,0.4-0.1,1.8,0.8,1.3c2.2-1.2,4.5-2.4,6.8-3.6
				C141.3,246.3,140.5,245,139.6,245.4z M153.7,165c-0.3,0-0.6,0.5-0.5,0.9c0.4,1,0.7,1.9,1.1,2.9c0.1,0.4,0.5,0.6,0.9,0.5
				c0.3,0,0.6-0.5,0.5-0.9c-0.4-1-0.7-1.9-1.1-2.9C154.4,165.1,154.1,164.8,153.7,165z M149.8,172.6c-0.1,0-0.1-0.1-0.2-0.1
				c-0.2,0-0.4,0-0.6,0.1s-0.4,0.3-0.4,0.5c0,0.2,0,0.5,0.1,0.6c0.4,0.4,0.7,0.9,1.1,1.4l0.3,0.3c0.1,0,0.1,0.1,0.2,0.1
				c0.2,0,0.4,0,0.6-0.1s0.4-0.3,0.4-0.5c0-0.2,0-0.5-0.1-0.6c-0.4-0.4-0.7-0.9-1.1-1.4L149.8,172.6z M140,148
				c0.7-0.7-0.4-1.8-1-1.1c-3.3,3.4-6.1,7.2-8.4,11.3c-0.5,0.9,0.8,1.7,1.3,0.8C134.1,155,136.8,151.3,140,148L140,148z"/>
		</g>
	</g>
</g>
</svg>
