<svg xmlns="http://www.w3.org/2000/svg" width="225.3" height="51.3" style="overflow:visible;enable-background:new 0 0 225.3 51.3" xml:space="preserve">
    <path d="M37.3 51.3h172.5c8.5 0 15.4-6.9 15.4-15.4V15.4c0-8.5-6.9-15.4-15.4-15.4H15.4C6.9 0 0 6.9 0 15.4v20.5c0 8.5 6.9 15.4 15.4 15.4h12.2" style="fill:#ed1c24"/>
    <path d="M29.6 15.2c-1.1.2-2.2.3-3.3.5v3h4.3c-.1-2-.2-4.1-.2-6.5h2.8c0 2.5 0 4.6.1 6.5h6.8v3h-6.6c.1.9.2 1.7.3 2.4.1.9.3 1.8.5 2.6.7-1.3 1.4-2.7 2-4.3l2.6 1.5c-1.1 2.7-2.2 4.8-3.5 6.5.6 1.5 1 2.2 1.4 2.2.1 0 .3-.1.4-.4.2-.5.3-1.4.4-2.8l2.7 1.2c-.3 2.2-.8 3.7-1.7 4.5-.5.5-1.2.8-1.8.8-.7 0-1.6-.9-2.7-2.7-.2-.3-.3-.5-.5-.8-1.3 1.3-2.8 2.3-4.4 3.2L27.9 33c1.8-1.1 3.3-2.3 4.5-3.6-.4-1.1-.7-2.2-1-3.5-.3-1.2-.5-2.6-.7-4.2h-4.5v3.2c1.1-.2 2.2-.4 3.2-.7l.4 2.9c-1.1.3-2.3.6-3.5.9v3.8c0 1.6-.2 2.6-.6 3.2-.5.6-1.3 1-2.4 1-1.1 0-2.1-.2-3-.4l-.5-3.2c1 .4 2.1.5 3.1.5.2 0 .4-.1.5-.4.1-.3.1-.8.1-1.4v-2.5c-1.4.3-2.8.5-4.2.7l-.6-3.3c1.7-.2 3.3-.4 4.8-.7v-3.7h-4.8v-3h4.8V16l-3 .3-1-2.9c3.2-.2 6.2-.5 8.9-.8l1.2 2.6zm9.5.8-2.5 1.6c-.5-1.3-1.1-2.5-2-3.7l2.4-1.7c.9 1.2 1.6 2.5 2.1 3.8zm26.6-3.6v2.8h-6.2v1.2H65v7.3H53.6l1.3.5c-.1.3-.3.7-.4.9h11.6V28h-4.4c-.5 1.1-1.1 2-1.9 2.8 1.9.6 3.8 1.4 5.7 2.1l-1.4 2.9c-2.4-1.1-4.8-2.1-7.1-2.9-.7.4-1.5.7-2.4 1.1-2.7.9-5.5 1.5-8.5 1.8l-.8-2.8c3.1-.2 5.7-.7 7.7-1.3l-2.1-.6c-.3.3-.5.6-.8.9l-2.4-1.5c.7-.8 1.4-1.6 2-2.5h-4.5v-2.9h6.2c.2-.5.5-1 .7-1.4h-5.7v-7.3h5.3v-1.2h-6.1v-2.8h20.1zm-14.1 8.5v-1.6h-2.7v1.6h2.7zm5.2 9c.2-.1.4-.3.5-.4.5-.4.9-.9 1.2-1.4h-5.4c-.2.3-.3.5-.5.7 1.4.3 2.8.7 4.2 1.1zm.1-14.7h-2.8v1.2h2.8v-1.2zm-2.8 5.7h2.8v-1.6h-2.8v1.6zm5.3 0h2.9v-1.6h-2.9v1.6zm21.2-6.5c-1.6.7-3.4 1.3-5.3 1.6l.2 3.6c.8-.2 1.5-.4 2.1-.6-.1-.5-.3-1-.5-1.5l2.4-1.3c.7 1.7 1.3 3.6 1.9 5.7l-2.8 1.5c-.1-.6-.2-1.1-.4-1.7-1.9.7-3.9 1.4-6.2 1.9l-1-3c.7-.1 1.3-.3 1.9-.4l-.5-6.6c2.4-.3 4.6-1 6.7-1.9l1.5 2.7zm10.1 21.5H88v-1H76.3v1h-2.7V23.5h17.1v12.4zm-10-7.9v-1.7h-4.5V28h4.5zm0 4.2v-1.6h-4.5v1.6h4.5zm11.6-19.5c-.1 5-.5 8.1-1.3 9.3-.6.8-1.4 1.3-2.6 1.3-.4 0-.9 0-1.6-.1l-.5-3c.9.1 1.6.1 2.1.1.3 0 .5-.2.7-.6.2-.6.3-1.9.4-4.1h-2.6c-.1 1.2-.2 2.2-.4 2.9-.3 1-.7 1.9-1.3 2.7-.6 1-1.3 1.7-2 2.3l-1.6-2.6c.5-.5 1-1.1 1.4-1.8.4-.6.7-1.3.9-2 .1-.4.2-.9.3-1.5H82v-2.9h10.3zM83.4 28H88v-1.7h-4.6V28zm4.6 4.2v-1.6h-4.6v1.6H88zm30.7-16.1v2.8H97.6v-2.8h21.1zm-2 19.8h-2.8v-.8H102v.8h-2.8v-8.4h17.4v8.4zm-.4-16v2.8H99.5v-2.8h16.8zm0 3.8v2.8H99.6v-2.8h16.7zm-.4-11.4v2.8H100v-2.8h15.9zm-2 20v-2H102v2h11.9zm19.5-9.4h-6.6v13h-2.5V12.5h9.1v10.4zm-2.5-6.5v-1.1h-4.1v1.1h4.1zm0 3.8V19h-4.1v1.2h4.1zm8.2 11.8h-7.3v1.6h-2.6v-9.4h9.9V32zm-2.6-2.7v-2.5h-4.7v2.5h4.7zm7.8-16.8V32c0 2.5-1 3.8-3.1 3.8-.7 0-1.6-.1-2.5-.2l-.5-3.2c.9.3 1.8.4 2.6.4.5 0 .8-.7.8-2.1v-7.9h-6.7V12.5h9.4zm-2.7 3.9v-1.1h-4.2v1.1h4.2zm0 2.6h-4.2v1.2h4.2V19zm18 3.9H153v13h-2.5V12.5h9.1v10.4zm-2.5-6.5v-1.1H153v1.1h4.1zm0 3.8V19H153v1.2h4.1zm8.2 11.8H158v1.6h-2.6v-9.4h9.9V32zm-2.6-2.7v-2.5H158v2.5h4.7zm7.8-16.8V32c0 2.5-1 3.8-3.1 3.8-.7 0-1.6-.1-2.5-.2l-.5-3.2c.9.3 1.8.4 2.6.4.5 0 .8-.7.8-2.1v-7.9h-6.7V12.5h9.4zm-2.7 3.9v-1.1h-4.2v1.1h4.2zm0 2.6h-4.2v1.2h4.2V19zm19 3.6v2.7h-3.3V27h3v2.7h-3v2.5c.5.1 1 .2 1.6.3.6.1 1.3.1 2 .1l-1-2c.9-.3 1.7-.7 2.4-1.1h-1.3V16h3l.2-1H187v-2.7h10.2V15h-4.1l-.2 1h3.8v13.4h-1.6c.3.2.5.5.8.6.5.4 1 .6 1.5.8l-1.3 1.7c.5 0 1-.1 1.5-.2l-.8 3.1h-4.4c-3.5 0-6.2-.1-8.1-.3-1.5-.2-2.8-.5-3.9-1-.6-.3-1.2-.6-1.6-1-.3 1-.6 2-1 2.8l-2-2.1c.5-1.1.8-2.3 1.1-3.5.3-1.3.5-2.7.6-4.2l2.3.6c-.1 1.1-.2 2.1-.3 3.1.5.5 1 .9 1.5 1.2v-5.8h-4.7v-2.7h10.5zm-.6-10.3v9.3H177v-9.3h9.2zm-2.5 3.5V15h-4.2v.8h4.2zm0 3.3v-.9h-4.2v.9h4.2zM194.2 32c-.6-.5-1.1-1.1-1.6-1.7l1.1-1h-3.3l1 .9c-.9.9-2 1.7-3.2 2.3 1.2.1 2.6.1 4.2.1.8 0 1.6 0 2.4-.1-.2-.1-.4-.3-.6-.5zm0-12.2v-1.1h-4.6v1.1h4.6zm0 3.4v-1h-4.6v1h4.6zm0 3.4v-1h-4.6v1h4.6zm14.8 1.7h-2.4l-.5-14.6h3.4l-.5 14.6zm-2.8 5.2v-3.6h3.3v3.6h-3.3z" style="fill:#fff200"/>
</svg>
