<svg version="1.1" id="圖層_1" xmlns="http://www.w3.org/2000/svg" xmlns:xlink="http://www.w3.org/1999/xlink" x="0" y="0" viewBox="0 0 200 200" style="enable-background:new 0 0 200 200" xml:space="preserve">
    <style>
        .st2{fill:#fed5b7}.st3{fill:#aa633c}.st4{fill:#6da8c6}.st5{fill:#44788c}.st9{fill:#7a1e1b}
    </style>
    <circle id="SVGID_1_" cx="100" cy="100" r="100" style="fill:#fbb040"/>
    <defs>
        <circle id="SVGID_2_" cx="100" cy="100" r="100"/>
    </defs>
    <clipPath id="SVGID_3_">
        <use xlink:href="#SVGID_2_" style="overflow:visible"/>
    </clipPath>
    <g style="clip-path:url(#SVGID_3_)">
        <path class="st2" d="M190.2 240.5c-3.7 4-7.4 8.6-8.6 11.4-2.5 6.1-3 14.5 1.5 19.4 3.7 4 39.9 2.5 52.9 1.9 9.7-.5 19.8.4 29.2 4.2 5.2 2.1 27.6 14.7 27.7 9.5.1-1.5-14.3-13-14.3-13 8 4.8 27.3 12 38.1 14 1.5.2 2.1-2.1.8-3-5.5-3.9-21.3-11.9-24.5-13.6 5.9 4.3 24.1 11.2 32.1 12.1 1.5.1 2.1-2.1.8-3.1-5.6-4.4-25.3-14-30.2-16.5 7 5.2 25.1 16.5 32.7 16.2 1.2 0 1.7-1.7.8-2.8-5.5-6.4-24.2-19-31.5-20.1 6.8 4.1 18.2 8.6 25.6 9.9 1.1.2 1.8-1.2 1.1-2.3-1.7-2.8-25.9-13-35.7-15-3.4-.7-35.1 2.2-38.9 1.2-10.3-2.8-54.7-16.2-59.6-10.4z"/>
        <path class="st3" d="M326 279.8c-1.4-1.4-3.1-2.4-4.8-3.2-7.2-3.5-14.5-7-21.7-10.5-.3-.2-.8-.1-1 .3-.2.3-.1.8.3 1 2 1 4.1 2 6.1 3 3.6 1.7 7.2 3.5 10.8 5.2 1.7.8 3.5 1.6 5.2 2.5 1.5.7 3 1.5 4.1 2.7.7.7 1.7-.4 1-1z"/>
        <path class="st3" d="M301.2 262c-2.2 3.1-4.3 6.3-6.4 9.5-.6.9.8 1.6 1.3.8 2.2-3.1 4.3-6.3 6.4-9.5.5-.8-.8-1.6-1.3-.8z"/>
        <path class="st3" d="M316.5 281.9c.2-.3.1-.8-.3-1-1.4-.7-2.9-1.3-4.3-2-5.1-2.4-10.3-4.6-15.5-6.6-.3-.2-.8.1-.9.5-.2.4.1.7.5.9 1.5.5 3 1.1 4.4 1.7 5.1 2.1 10.1 4.3 15.1 6.7.3.2.8.1 1-.2zm-.4-17.1c-3.6-2-7.4-3.6-11.4-4.6-.9-.2-1.4 1.3-.4 1.5 3.9 1 7.5 2.5 11 4.5.9.5 1.7-.8.8-1.4zm-46.5-2.8c-.3-.2-.8 0-1 .3-.9 1.4-1.9 2.9-2.8 4.3-.2.3 0 .8.3 1 .3.2.8 0 1-.3.9-1.4 1.9-2.9 2.8-4.3.3-.3.1-.8-.3-1z"/>
        <path d="m130.1 39.6 1.1.7c6.8 6.1 14.2 13.3 14.3 22.5 0 4.4-1.6 8.7-.7 13 1.2 5.7 6.5 9.4 9.7 14.2 3.5 5.2 4.5 12 2.7 18-1.5 5.2-5 10-4.4 15.3.8 6.5 8.4 9.5 12.4 14.8 20.8 27 5.2 36.5 3.9 45.8-6.9 4.1-13.2-19.2-17.3-12.2-11.8 20.2-20-6.5-30.9-7.1-6.7-.3-12.8 3.7-18.7 6.7-4.5 2.3-9 4.6-13 7.8-4.3 3.5-7.9 7.9-12.7 10.8-5 3-10.9 4-16.7 4.9-5.4.8-10.8 1.4-16.2 2-7.2-10.7-12.4-33.5-1.1-55.1C51 125.5 51.6 93.6 55 68.5c.7-5.5 1.7-11.1 4.3-16.1 4.3-8.5 13-14.2 22.2-16.3 4.5-1 9.1-1.3 13.6-2 5.6-1 11-2.7 16.7-2.8 4.8-.1 10 1.2 13.5 4.5 1.5 1.4 3.1 2.7 4.8 3.8z"/>
        <ellipse transform="rotate(-13.443 141.521 91.604)" class="st4" cx="141.5" cy="91.6" rx="9.6" ry="14.3"/>
        <path class="st5" d="M139.9 80.3c-.9-.5-1.6.8-.7 1.3 1.6 1 2.9 2.3 4 3.8 1.9 2.8 3 6.1 3.2 9.5.2 3.1-.5 6.8-3.1 8.8-.4.2-.5.6-.3 1 .1.4.7.5 1 .3 1.7-1.3 2.8-3.1 3.4-5.1 1-3.5.5-7.5-.7-10.9-1.3-3.6-3.6-6.7-6.8-8.7z"/>
        <path class="st2" d="m132.1 56.2-54.6 6.9c-.2.2 6.2 33.6 6.7 33.9-3.3-4.3-10.6-4.1-14.3-.2-3.8 3.9-4.1 10.2-1.8 15.1 1.6 3.4 4.7 6.4 8.5 7.1s8.2-1.6 9-5.4c-.5 16.7.1 33.4 1.6 50 8.1 5.8 35.4-4.7 35.4-4.7l-3.4-26.7s14.7.9 21.4-2c2.3-1 4.6-2.3 5.9-4.4 2-3.1 1.4-7.1.8-10.7-3.6-20-8.7-39.7-15.2-58.9z"/>
        <path d="m127.5 50.8.3-1.1c-8.6-1.2-17.3-2.3-25.8-.9s-17 5.6-21.7 12.8c-3.1 4.8-4.4 10.5-5 16.2-.4 4.6-.6 9.3 1.1 13.6s5.3 8.1 9.8 8.8c1.4.2 3 .1 4.1-.9 1.4-1.2 1.4-3.5.5-5.1-.8-1.6-2.4-2.8-3.9-3.8 2.2.2 4.3-1.5 4.7-3.7.4-2.1-1.1-4.4-3.2-5 2 .7 4.2 1.2 6.3.7 2-.5 4-2.1 4.3-4.2.3-2.1-1.5-4.5-3.6-4.3 2 1.5 4 3.1 6.3 3.8 2.3.7 5.1.5 6.9-1.2 1.7-1.7 1.8-5.1-.3-6.4 1.6 2 3.3 4 5.6 5.2s5.3 1.2 7.2-.5c1.9-1.8 1.6-5.5-.8-6.4 1.1 1.9 2.6 3.7 4.5 4.9 1.9 1.3 4.6 1.9 6.3.4 1.3-1.3 1.3-3.6.4-5.2s-2.5-2.8-4-3.9c2.1.9 3.7 2.7 5.8 3.8 2 1.1 5.1 1 6.1-1.1.4-.7.4-1.6.3-2.4-.6-6.6-5.4-10.1-12.2-14.1z"/>
        <path class="st4" d="M65.7 107.2c.9 5 3.8 9.6 7.9 12.8 1.3 1.1 2.7 2 4.4 2.3 2.9.5 5.9-1.1 7.6-3.5.4-.7.8-1.4 1.1-2.1.9.5 1.7 1 2.6 1.4 7.4 3.8 15.7 5.6 24 5.1.2 1.3 1.7 2.1 3.4 1.9l6.9-.9c1.9-.2 3.3-1.6 3.2-3-.2-1.4-1.6-2.2-3.4-2l-6.9.9c-1.3.1-2.4.8-2.9 1.7-1.6.1-3.3.2-4.9.1-7.6-.3-15.1-2.6-21.6-6.5.4-1.6.6-3.3.6-5 0-3.1-.7-6.1-1.8-8.9-1.9-4.7-5.7-8.4-10.4-10.4-.4-.2-.9-.3-1.3-.3 0-7 .9-14 4.1-20.1C84.9 58 100 52 114.3 51.2c5.9-.3 16.6-.4 20.4 4.2-1.7-5.3-12-8.3-17.4-9.5s-11.1-.4-16.5 1c-4.5 1.2-9 2.7-12.9 5.2C75.2 60 70 76.4 71.7 91.4c-.8.4-1.4 1-2 1.6-3.5 3.7-4.9 9.2-4 14.2z"/>
        <path class="st5" d="M71.3 91.8c-.4-.1-.9-.1-1.1.4-.2.3-.1.8.3 1 2.5 1.1 4.6 2.9 6.5 4.9 3.1 3.3 5.4 7.5 5.7 12.1.2 4.2-1.3 8.5-4.6 11.2-.3.3-.3.8 0 1.1s.8.3 1.1 0c2-1.6 3.4-3.9 4.2-6.3 1.5-4.6.7-9.6-1.5-13.8-1.1-2.2-2.7-4.2-4.4-6-1.8-1.9-3.8-3.5-6.2-4.6zm3.7-1.5c0-.4-.4-.8-.8-.8h-2c-.5 0-.8.4-.8.8s.4.8.8.8h2c.4 0 .8-.4.8-.8zm40.9 31.6c.3-.3.3-.7-.1-1-.3-.3-.8-.3-1.1 0-.3.3-.5.8-.6 1.2s-.1.9.1 1.3c0 .1.1.2.2.3.1 0 .1.1.2.1.2.1.4.1.6.1.2-.1.4-.2.5-.4s.2-.4.1-.6c0-.1-.1-.3-.1-.4v.2-.4.2c0-.2 0-.4.1-.5 0 .1-.1.1-.1.2.1-.1.1-.2.2-.3 0 .1 0 .1 0 0zm9.4-2.7c-.2-.1-.4-.1-.3.1-.2.1-.4.2-.5.4s-.2.4-.1.6.2.4.4.5c0 0 .1 0 .2.1-.1 0-.1-.1-.2-.1.1 0 .1.1.2.2 0-.1-.1-.1-.1-.2.1.1.2.2.2.3 0-.1-.1-.1-.1-.2 0 .1.1.3.1.4v-.2.4-.2c0 .1-.1.2-.1.3 0-.1.1-.1.1-.2-.1.1-.1.2-.2.3 0-.1.1-.1.1-.2-.1.1-.2.2-.2.3v.2c0 .2.1.4.2.5s.3.2.5.2c.1 0 .4-.1.5-.2.2-.3.3-.6.4-.9s.1-.7 0-1c-.1-.6-.6-1.1-1.1-1.4zm-13.6-74.4c-9.3.1-18.5 3.1-26 8.5l3.9 5.7c7.8-4.9 17.2-6.3 26.3-7.7-.9-2.2-2.1-4.2-3.7-6l-.5-.5z"/>
        <path d="m120 137.3-28.2-3 27.3-2 .9 5z" style="opacity:.31;fill:#aa633c;enable-background:new"/>
        <path d="M38.9 193.1c-1.2 8.3 17.6 72.6 22.1 97.3.2 1.5.6 3.2 1.6 4.3 1.2 1.4 3.1 1.7 4.8 2 20.9 3.3 42.4 2.8 63.1-1.4 3.2-.7 10.1-2.1 12.7-4 3.7-2.7 2.5-18.3 4.2-22.5 4.8-11.9 4.2 6.5 15.7 1.6 1-.5 11.3 8.4 24.3 3.4 2.3-8.5.6-21.8 12.1-32.4 1.4-1.3 1-3.8.7-5.7s-1.4-3.6-2.4-5.2c-4.8-7.4-14.7-7.7-19.5-15.1-6.9-10.6-14.1-54.6-23.9-62.6-9.8-8-16.4-10.4-28.6-7.1 0 0-.6-9.8-2.7-9.6-13.4 1.3-26.8-.3-40.2 1 1.3 8.1 1.7 16.3 1.3 24.4-17.3 1.9-42.9 14.4-45.3 31.6z" style="fill:#c23f37"/>
        <path class="st2" d="M131.5 237.1c0-.3-16-60.7-23.4-88.6-1-4.1-2.1-8.2-4.3-11.7-1.6-2.6-3.8-4.8-6.2-6.7-2.8-2.2-4.6-5.7-4.5-9.3.1-.8-.1-1.6-.6-2.2-1.5-2.2-5.4-2.8-6.6-.4 1.5-2.2.1-4.1-2.3-5.2s-6.2 4.1-6.9 6.6c-1.3-1-.2-21.6-5.8-21.6-7.5 0-1 14.9-1.4 20.8.1-5.5-3.5-18-5.1-17.5-2.8.9-2.6 6.1-2.2 8.5 1.3 7.9 2.1 17.5 3.4 25.4.2 1.5 1 1.5 1.7 2.9 1.2 2.4 3.6 4 5.9 5.5 5.6 3.7 11.5 7.5 14.6 13.4 3 5.6 3.1 12.2 3.1 18.5.1 13.6.1 27.3.2 40.9.1 11 .5 23 7.7 31.3 3.9 4.4 9.6 7.3 15.5 7.5 5.6.2 18.4-6.5 17.2-18.1z"/>
        <path class="st3" d="M86.7 117.7c.4-.3.3-.9.1-1.1-.3-.3-.8-.3-1.1 0-2.1 1.9-3.2 4.9-3.6 7.6-.1.4.1.8.5.9.3.1.8-.1.9-.5.3-2.5 1.2-5.2 3.2-6.9z"/>
        <path class="st3" d="M102 135.3c.1.4.5.7 1 .5.3-.1.6-.5.5-.9-.8-2-2.4-3.3-4.1-4.5-1.4-1.1-3-2-4.1-3.4-1.2-1.5-1.3-3.4-1.6-5.2-.2-1.8-.6-3.8-2.1-5.1-1.7-1.4-4.2-1.4-6 0l1.2.9c.6-1.5.1-3-1-4.1-1.1-.9-2.4-1.3-3.8-1.1-1.4.3-2.6 1.1-3.6 2.1-2.2 2.2-3.5 5.3-4.1 8.3-.1.4.1.8.5.9.3.1.8-.1.9-.5.2-1.5.7-2.9 1.4-4.3 1-1.9 2.5-4.3 4.8-4.9 1-.3 1.9-.1 2.7.6.6.5 1.2 1.4.8 2.2s.5 1.5 1.2.9 1.9-.8 2.8-.5c.9.2 1.6.9 2 1.7.8 1.6.8 3.4 1.1 5.1.4 1.8 1 3.4 2.3 4.7 1.2 1.3 2.7 2.2 4.1 3.2 1.3.9 2.5 1.9 3.1 3.4z"/>
        <path class="st3" d="M69 123c.1.4.3.8 1 1.1.4 0 .8-.4.8-.8 0-.3 0-.7-.1-1.1-.7-4.8-1.5-9.6-2.6-14.3-.4-1.9-.9-4-1.8-5.7-.3-.7-.9-1.4-1.8-1.5-.9 0-1.7.7-2.2 1.4-1 1.5-1.2 3.6-1.1 5.4s.6 3.7 1 5.5c.5 2 .9 4.1 1.3 6.1.7 4.2 1.1 8.4 1.3 12.6 0 1.9-.1 3.9.4 5.7.3.9.8 1.7 1.5 2.3.6.6 1.4 1.1 2.2 1.6 2.8 1.7 5.6 3.6 8.3 5.7 5.2 4.1 9.9 9.2 12.3 15.5.1.4.5.6.9.5.3-.1.6-.5.5-.9-.3-.8-.6-1.6-1-2.3-2.8-5.9-7.5-10.6-12.7-14.6-2.7-2-5.5-3.8-8.3-5.6-.6-.4-1.3-.9-1.8-1.5s-.7-1.5-.8-2.3-.1-1.7-.1-2.6c0-1 0-2.1-.1-3.1-.3-4-.8-8.1-1.5-12.1-.4-2-.8-4-1.3-5.9-.5-1.7-.9-3.5-.9-5.3 0-.9 0-1.8.3-2.6.2-.6.5-1.6 1.2-1.9.4-.3.7.5.9.8 0 0 .1.1.1.2v.1c.1.2 0-.1 0 0 .1.2.1.3.2.5.8 2.1 1.2 4.3 1.7 6.4.5 2.6 1 5.1 1.4 7.6.2 1 .3 2.1.5 3.2.1.4.1.8.2 1.2 0 .1 0-.2 0 0v.3c.1.1.1.3.1.4zm31.4 31.1c-2.6.7-5.2 1.3-7.8 1.9-1 .3-.6 1.7.4 1.5 2.6-.7 5.2-1.3 7.8-1.9.9-.2.5-1.7-.4-1.5z"/>
        <path class="st3" d="M75.9 118.2c0 1 1.5 1 1.4 0 0-3.3-.3-6.6-.8-9.9-.4-2.7-.9-5.4-2.1-7.9-.9-2-2.8-4.5-5.4-3.5-1.1.5-1.9 1.4-2.4 2.5-.5 1.2-.6 2.6-.5 3.9.1 2.9.5 5.8 1 8.7 0 .4.5.6.9.5s.6-.5.5-.9c-.5-2.9-.9-5.9-1-8.8 0-1.1 0-2.3.6-3.3.4-.8 1.3-1.5 2.2-1.4.9 0 1.6.8 2 1.5.7 1 1.1 2.1 1.5 3.2.8 2.4 1.2 4.9 1.5 7.4.4 2.7.6 5.3.6 8zm39.9 58.3c.3.9 1.8.5 1.4-.4-.9-2.7-1.7-5.5-2.6-8.2-1.5-4.9-3-9.8-4.2-14.8-.5-2.4-1-4.7-1.6-7.1-.5-2.3-1.3-4.5-2.5-6.5-.5-.8-1.8 0-1.3.8 1.4 2.1 2 4.6 2.6 7.1 1.1 4.8 2.3 9.7 3.7 14.5 1.4 4.9 3 9.8 4.5 14.6zm7.9-88.9c-.3-.9-1.8-.5-1.4.4.5 1.6 1.1 3.2 1.7 4.7 2.2 5.4 5.3 10.4 9.1 14.8.1-.4.2-.9.3-1.3-2.9.4-5.5-1.8-7.6-3.5-.3-.3-.8-.3-1.1 0-.3.3-.3.8 0 1.1 2.6 2.2 5.5 4.4 9.1 3.9.6-.1.6-.9.3-1.3-1-1.2-2-2.4-2.9-3.7-3.3-4.6-5.8-9.7-7.5-15.1z"/>
        <path d="M115.9 109.3c.6 2.7 2.8 5.1 5.5 5.5s5.7-1.6 5.9-4.4l-11.4-1.1z" style="fill:#fff"/>
        <path class="st3" d="M127.4 109.7c-.5 0-.8.4-.8.8-.1 1-.7 1.8-1.4 2.5-1.4 1.2-3.4 1.5-5.1.7-1.8-.9-3-2.7-3.5-4.6-.2.4-.5.7-.7 1 .4 0 .9.1 1.4.1 3.3.3 6.7.7 10 1 .4 0 .8-.4.8-.8 0-.5-.4-.8-1-.8-.4 0-.9-.1-1.4-.1-3.3-.3-6.7-.7-10-1-.5 0-.8.6-.7 1 .4 1.3 1.1 2.6 2 3.7 1.7 1.9 4.3 2.9 6.7 2.2 2.3-.6 4.2-2.6 4.4-5 0-.5-.4-.8-.7-.7z"/>
        <path d="M116 101.1c.3-.1.6-.5.5-.9-.8-2.1-3-3.6-5.3-3.3s-4 2.2-4.3 4.5c0 .4.4.8.8.8.5 0 .7-.4.8-.8.2-1.5 1.5-2.8 3-3 1.5-.2 3.1.8 3.6 2.2.1.4.5.7.9.5zm24.4-4.2c.3-.1.6-.5.5-.9-.8-2.1-3-3.6-5.3-3.3s-4 2.2-4.3 4.5c0 .4.4.8.8.8.5 0 .7-.4.8-.8.2-1.5 1.5-2.8 3-3 1.5-.2 3.1.8 3.6 2.2.1.4.5.7.9.5zm-26.7-10.4.2-.5c-5.3-.9-10.8 3.2-11.4 8.5 1.8-2.3 4.6-4 7.6-4.3 1.1-.2 2.3-.2 3.3-.8.9-.7 1.3-2.3.3-2.9zm13.8-8.4-.2-.5c5.3-.9 10.8 3.2 11.4 8.5-1.8-2.3-4.6-4-7.6-4.3-1.1-.2-2.3-.2-3.3-.8-.9-.7-1.3-2.3-.3-2.9z"/>
        <path class="st9" d="M105.7 136.1c-.4.1-.6.6-.4 1 .1.4.5.6.9.5 2-.4 4.1-.5 6.1-.6 3.6-.1 7.3.1 10.9.3.2 0 .8-.1 1 .1s.3.7.4.9c.3.9.5 1.7.7 2.5.4 1.7.6 3.5.6 5.2 0 1 1.5 1 1.5 0-.1-2.2-.3-4.3-.9-6.4-.2-.9-.5-1.8-.9-2.7-.4-.9-1.3-1-2.2-1.1-2-.1-3.9-.2-5.9-.3-3.9-.1-7.9 0-11.8.6zm28.2 24.1c-.3-1-1.8-.6-1.4.3.3 1 .7 2 1 3 2.6 8 6.1 15.8 10.2 23.1 3.9 7 8.5 13.7 11.2 21.3 2.8 8 2.7 16.6 1.2 24.9-1.5 8.6-4.5 16.8-6.9 25.1-2.4 8.2-4.4 16.7-3.9 25.3 0 1 1.6 1 1.5 0-.1-1-.1-2.1-.1-3.2.1-8.7 2.5-17.2 5-25.4s5.2-16.5 6.4-25.1c.6-4.3.8-8.5.3-12.8-.4-4.1-1.5-8.1-3.1-11.9-3.1-7.4-7.8-14.1-11.6-21.2-4-7.4-7.3-15.3-9.8-23.4z"/>
        <path class="st9" d="M120.6 137.4c0-.5-.3-.8-.7-.8s-.8.4-.8.8c.4 4.2 1 8.3 1.7 12.4 0 .4.5.6.9.5.4-.1.6-.5.5-.9-.7-4-1.2-8-1.6-12zm-5.4-.1c-.4 0-.8.4-.8.8.3 3.5.6 6.9.9 10.4.1.4.4.8.8.8s.8-.4.8-.8c-.3-3.5-.6-6.9-.9-10.4-.1-.4-.4-.8-.8-.8zm-5.6 0c-.4 0-.9.4-.8.8.4 3 .7 6 1.1 9 .1.4.3.8.8.8.4 0 .9-.4.8-.8-.4-3-.7-6-1.1-9-.1-.5-.3-.8-.8-.8zm91.2 100.6c-2.1 2.1-3.9 4.4-5.5 6.9-2.8 4.3-5 9.1-6.4 14.1a50 50 0 0 0-1.8 15.4c0 1 1.5 1 1.5 0-.1-2.9 0-5.7.4-8.5.7-5 2.1-9.9 4.3-14.5 2.2-4.5 5-8.7 8.5-12.4.6-.7-.4-1.8-1-1z"/>
        <path class="st9" d="M201 239.6c.4-.2.5-.6.3-1-1.4-3.2-4-5.9-7.1-7.4-.3-.2-.8-.1-1 .3-.2.3-.1.8.3 1 3 1.5 5.3 3.9 6.6 6.9.2.4.8.4.9.2zm-2.3 1.3c-2.3-2.4-5-4.4-8.1-5.8-.3-.1-.8-.1-1 .3-.2.3-.1.8.3 1 3 1.3 5.6 3.2 7.8 5.6.7.8 1.8-.3 1-1.1zm-3.8 5.1c.7.6 1.8-.4 1.1-1.1-2.2-2-4.8-3.5-7.6-4.3-.9-.3-1.3 1.2-.4 1.5 2.5.8 4.9 2.1 6.9 3.9zm-4.9 6.2c.8.6 1.6-.8.8-1.3-2.4-1.6-5-2.7-7.7-3.4-.9-.2-1.4 1.3-.4 1.5 2.6.7 5 1.7 7.3 3.2zm-.9 7c-2.4-.6-4.8-1.3-7.2-1.9-.9-.2-1.4 1.2-.4 1.5 2.4.6 4.8 1.3 7.2 1.9 1 .2 1.4-1.3.4-1.5zm-1.6 9.5c.9-.1.9-1.6 0-1.5-2.8.2-5.6.2-8.4-.2-.4-.1-.8.1-.9.5-.1.3.1.8.5.9 2.9.4 5.9.5 8.8.3zm-.1 4.9c.9-.3.5-1.8-.4-1.5-2.4.8-4.9 1.1-7.4 1-1-.1-1 1.4 0 1.5 2.7.2 5.3-.2 7.8-1zm-8.5-53.6c.7-.7-.4-1.8-1-1.1-1.3 1.3-2.6 2.6-3.8 3.9-4.3 4.8-8 10.1-10.8 15.9-.5.9.9 1.7 1.3.8.7-1.6 1.6-3.2 2.5-4.7 3.2-5.5 7.2-10.5 11.8-14.8zm-3.2-2.5c.4-.3.3-.8.1-1.1-.3-.3-.8-.3-1.1 0-3.9 3.1-7.4 6.7-10.5 10.7-.2.3 0 .8.3 1s.7 0 1-.3c2.9-3.8 6.4-7.3 10.2-10.3zm-9 45.3c-.8 2.3-1.4 4.7-1.7 7.2-.1.4.1.8.5.9.3.1.8-.1.9-.5.3-2.4.9-4.9 1.7-7.2.3-.9-1.2-1.3-1.4-.4zm-1.9-.5c-.5 0-.8.4-.8.8-.2 2.3-.8 4.5-1.8 6.5-.2.3-.1.8.3 1 .3.2.8.1 1-.3 1-2.3 1.7-4.8 2-7.3 0-.4-.4-.7-.7-.7zm-8.9-4.5c-.3-.2-.8 0-1 .3-1.1 1.4-2.2 2.9-3.3 4.3-.2.3 0 .8.3 1 .3.2.8 0 1-.3 1.1-1.4 2.2-2.9 3.3-4.3.3-.3.1-.8-.3-1zm-16.2-96.4c-.3-.2-.8-.1-1 .3-1.2 2.6-1.7 5.4-1.5 8.3.1.4.4.8.8.8s.8-.4.8-.8c-.2-2.5.2-5.1 1.2-7.5.1-.4.1-.8-.3-1.1zm-79.3 10.8c-.2.4.1.7.5.9 2.2.9 4.4 2 6.5 3.1 7.5 4.1 14.2 9.4 19.8 15.8.7.7 1.7-.4 1.1-1.1-1.6-1.8-3.3-3.5-5.1-5.2-6.4-5.9-13.9-10.7-21.9-14-.3-.2-.8.1-.9.5z"/>
        <path class="st9" d="M86.8 166c.4 0 .6-.6.4-.9-.1-.4-.5-.6-.9-.5-1.7.2-3.5.5-5.2.9-6.1 1.3-12.1 3.4-17.8 6.2-.9.4-.1 1.7.8 1.3 1.6-.8 3.2-1.5 4.8-2.2 5.7-2.3 11.8-3.9 17.9-4.8zm40.8 89.6c.3-.3.4-.7-.1-1-.3-.3-.8-.3-1.1 0-.4.5-.8 1-1.2 1.4-3.3 3.4-8 5.2-12.7 5.7-5.2.6-10.4-.1-15.4-1.4-5.5-1.5-10.8-3.8-15.8-6.5-5.1-2.8-10-6.1-14.6-9.6-4.6-3.6-9.1-7.3-13.5-11.1-.8-.6-1.8.5-1.1 1.1.6.5 1.1 1 1.7 1.5 4.6 3.9 9.2 7.7 14 11.2s9.7 6.7 15 9.4c5.3 2.6 10.8 4.7 16.5 6 5.1 1.1 10.4 1.5 15.6.5 4.9-1 9.6-3.2 12.7-7.2z"/>
        <path class="st9" d="M92.3 227.9c.1-1-1.5-1-1.6 0-.1 2.3-.1 4.5.2 6.7.3 1.7.7 3.5 1.4 5.2 2.4 6.2 7.2 11.5 13.2 14.3 5.8 2.7 14.2 3.6 18.9-1.7.6-.8-.4-1.8-1.1-1.1-2.4 2.7-6 3.6-9.5 3.4-6.2-.3-12.1-3.9-16-8.6-2-2.3-3.5-5.1-4.5-8-.5-1.4-.8-3-1-4.5-.2-1.9-.1-3.8 0-5.7z"/>
        <path class="st9" d="M114.8 254.9c-.3-.2-.8.1-.9.5-.1.3-.2.7-.3 1.1-.1.2-.1.4-.2.6 0 .1-.1.2-.1.3s0 .1 0 0v.1c-.3.7-.7 1.4-1.2 2-.2.3 0 .8.3 1s.8 0 1-.3c1-1.4 1.7-2.9 2-4.5.1-.4-.1-.8-.6-.8zm-6.2-1.1c-.3-.3-.8-.3-1.1 0l-2.9 2.9c-.3.3-.3.8 0 1.1s.8.3 1.1 0l2.9-2.9c.3-.3.3-.7 0-1.1zm-8.4-4.4c-.1-.4-.5-.6-.9-.5-1.6.3-3.1.8-4.6 1.4-.4.1-.6.5-.5.9 0 .3.5.6.9.5 1.5-.6 3-1.1 4.6-1.4.4-.1.6-.6.5-.9zm-5.4-6c.1-.3-.1-.8-.5-.9-1.8-.3-3.6-.2-5.4.3-.4.1-.6.5-.5.9 0 .4.5.6.9.5 1.5-.5 3.1-.6 4.6-.3.5.1.9-.1.9-.5zm-2.5-7.1c.1-.4-.1-.8-.5-.9-1.7-.5-3.3-1-5-1.5-.4-.2-.8.1-.9.5s.1.8.5.9c1.7.5 3.3 1 5 1.5.4.2.8-.1.9-.5zm0-7.9c.2-.4-.1-.8-.5-.9-1-.3-2.1-.7-3.2-1-.4-.2-.8.1-.9.5-.2.4.1.8.5.9 1 .3 2.1.7 3.2 1 .4.2.8-.1.9-.5zm-3.5-10.1c.3-.3.4-.8-.1-1.1-.3-.3-.8-.3-1.1 0-1.3 1.6-2.5 3.3-3.5 5.1-3.6 6.3-5.1 13.8-4.3 21 .1.4.3.8.8.8.4 0 .8-.4.8-.8-.2-1.9-.2-3.9-.1-5.9.5-6.9 3.1-13.7 7.5-19.1zm-4.3-1.1c.7-.7-.4-1.8-1-1.1-1.1 1.1-2.2 2.3-3.1 3.5-3.3 4.4-5.6 9.5-6.5 14.9-.1.4.1.8.5.9.3.1.8-.1.9-.5.3-1.5.6-3 1.1-4.4 1.6-5 4.4-9.6 8.1-13.3zm-23.7-2.7c-.3.3-.3.8 0 1.1l4.5 4.2c.3.3.8.3 1.1 0s.3-.8 0-1.1l-4.5-4.2c-.4-.3-.8-.3-1.1 0zm-2.5 5c-.3.3-.3.8 0 1.1l3.3 3.6c.3.3.8.3 1.1 0s.3-.8 0-1.1l-3.3-3.6c-.3-.3-.8-.3-1.1 0zm-6.8-11.9c-.3.3-.3.8 0 1.1l2.2 2.2c.3.3.8.3 1.1 0s.3-.8 0-1.1l-2.2-2.2c-.3-.3-.7-.3-1.1 0zm93.2 30.4c-.1-.4-.7-.5-1-.3-2.5 1.7-5.1 3.5-7.6 5.3-.4.2-.5.6-.3 1 .1.4.7.5 1 .3 2.5-1.7 5.1-3.5 7.6-5.3.4-.3.5-.7.3-1zm-5.1 7.4c-2.2 1.2-4.5 2.4-6.8 3.6-.8.4-.1 1.8.8 1.3 2.2-1.2 4.5-2.4 6.8-3.6.9-.4.1-1.7-.8-1.3zm14.1-80.4c-.3 0-.6.5-.5.9.4 1 .7 1.9 1.1 2.9.1.4.5.6.9.5.3 0 .6-.5.5-.9-.4-1-.7-1.9-1.1-2.9-.2-.4-.5-.7-.9-.5zm-3.9 7.6c-.1 0-.1-.1-.2-.1-.2 0-.4 0-.6.1s-.4.3-.4.5 0 .5.1.6c.4.4.7.9 1.1 1.4l.3.3c.1 0 .1.1.2.1.2 0 .4 0 .6-.1s.4-.3.4-.5 0-.5-.1-.6c-.4-.4-.7-.9-1.1-1.4l-.3-.3zM140 148c.7-.7-.4-1.8-1-1.1-3.3 3.4-6.1 7.2-8.4 11.3-.5.9.8 1.7 1.3.8 2.2-4 4.9-7.7 8.1-11z"/>
    </g>
</svg>
