<?xml version="1.0" encoding="utf-8"?>
<!-- Generator: Adobe Illustrator 25.0.0, SVG Export Plug-In . SVG Version: 6.00 Build 0)  -->
<svg version="1.1" id="圖層_1" xmlns="http://www.w3.org/2000/svg" xmlns:xlink="http://www.w3.org/1999/xlink" x="0px" y="0px"
	 viewBox="0 0 225.3 102.6" style="enable-background:new 0 0 225.3 102.6;" xml:space="preserve">
<style type="text/css">
	.st0{fill:#ED1C24;}
	.st1{fill:#FFF200;}
</style>
<path class="st0" d="M37.3,51.3h172.5c8.5,0,15.4-6.9,15.4-15.4V15.4c0-8.5-6.9-15.4-15.4-15.4H15.4C6.9,0,0,6.9,0,15.4v20.5
	c0,8.5,6.9,15.4,15.4,15.4h12.2"/>
<path class="st1" d="M29.6,15.2c-1.1,0.2-2.2,0.3-3.3,0.5v3h4.3c-0.1-2-0.2-4.1-0.2-6.5h2.8c0,2.5,0,4.6,0.1,6.5h6.8v3h-6.6
	c0.1,0.9,0.2,1.7,0.3,2.4c0.1,0.9,0.3,1.8,0.5,2.6c0.7-1.3,1.4-2.7,2-4.3l2.6,1.5c-1.1,2.7-2.2,4.8-3.5,6.5c0.6,1.5,1,2.2,1.4,2.2
	c0.1,0,0.3-0.1,0.4-0.4c0.2-0.5,0.3-1.4,0.4-2.8l2.7,1.2c-0.3,2.2-0.8,3.7-1.7,4.5c-0.5,0.5-1.2,0.8-1.8,0.8c-0.7,0-1.6-0.9-2.7-2.7
	c-0.2-0.3-0.3-0.5-0.5-0.8c-1.3,1.3-2.8,2.3-4.4,3.2L27.9,33c1.8-1.1,3.3-2.3,4.5-3.6c-0.4-1.1-0.7-2.2-1-3.5
	c-0.3-1.2-0.5-2.6-0.7-4.2h-4.5v3.2c1.1-0.2,2.2-0.4,3.2-0.7l0.4,2.9c-1.1,0.3-2.3,0.6-3.5,0.9v3.8c0,1.6-0.2,2.6-0.6,3.2
	c-0.5,0.6-1.3,1-2.4,1s-2.1-0.2-3-0.4l-0.5-3.2c1,0.4,2.1,0.5,3.1,0.5c0.2,0,0.4-0.1,0.5-0.4c0.1-0.3,0.1-0.8,0.1-1.4v-2.5
	c-1.4,0.3-2.8,0.5-4.2,0.7L18.7,26c1.7-0.2,3.3-0.4,4.8-0.7v-3.7h-4.8v-3h4.8V16l-3,0.3l-1-2.9c3.2-0.2,6.2-0.5,8.9-0.8
	C28.4,12.6,29.6,15.2,29.6,15.2z M39.1,16l-2.5,1.6c-0.5-1.3-1.1-2.5-2-3.7l2.4-1.7C37.9,13.4,38.6,14.7,39.1,16z M65.7,12.4v2.8
	h-6.2v1.2H65v7.3H53.6l1.3,0.5c-0.1,0.3-0.3,0.7-0.4,0.9h11.6V28h-4.4c-0.5,1.1-1.1,2-1.9,2.8c1.9,0.6,3.8,1.4,5.7,2.1l-1.4,2.9
	c-2.4-1.1-4.8-2.1-7.1-2.9c-0.7,0.4-1.5,0.7-2.4,1.1c-2.7,0.9-5.5,1.5-8.5,1.8L45.3,33c3.1-0.2,5.7-0.7,7.7-1.3l-2.1-0.6
	c-0.3,0.3-0.5,0.6-0.8,0.9l-2.4-1.5c0.7-0.8,1.4-1.6,2-2.5h-4.5v-2.9h6.2c0.2-0.5,0.5-1,0.7-1.4h-5.7v-7.3h5.3v-1.2h-6.1v-2.8
	C45.6,12.4,65.7,12.4,65.7,12.4z M51.6,20.9v-1.6h-2.7v1.6H51.6z M56.8,29.9c0.2-0.1,0.4-0.3,0.5-0.4c0.5-0.4,0.9-0.9,1.2-1.4h-5.4
	c-0.2,0.3-0.3,0.5-0.5,0.7C54,29.1,55.4,29.5,56.8,29.9z M56.9,15.2h-2.8v1.2h2.8V15.2z M54.1,20.9h2.8v-1.6h-2.8V20.9z M59.4,20.9
	h2.9v-1.6h-2.9V20.9z M80.6,14.4c-1.6,0.7-3.4,1.3-5.3,1.6l0.2,3.6c0.8-0.2,1.5-0.4,2.1-0.6c-0.1-0.5-0.3-1-0.5-1.5l2.4-1.3
	c0.7,1.7,1.3,3.6,1.9,5.7l-2.8,1.5c-0.1-0.6-0.2-1.1-0.4-1.7c-1.9,0.7-3.9,1.4-6.2,1.9l-1-3c0.7-0.1,1.3-0.3,1.9-0.4l-0.5-6.6
	c2.4-0.3,4.6-1,6.7-1.9C79.1,11.7,80.6,14.4,80.6,14.4z M90.7,35.9H88v-1H76.3v1h-2.7V23.5h17.1C90.7,23.5,90.7,35.9,90.7,35.9z
	 M80.7,28v-1.7h-4.5V28C76.2,28,80.7,28,80.7,28z M80.7,32.2v-1.6h-4.5v1.6H80.7z M92.3,12.7c-0.1,5-0.5,8.1-1.3,9.3
	c-0.6,0.8-1.4,1.3-2.6,1.3c-0.4,0-0.9,0-1.6-0.1l-0.5-3c0.9,0.1,1.6,0.1,2.1,0.1c0.3,0,0.5-0.2,0.7-0.6c0.2-0.6,0.3-1.9,0.4-4.1
	h-2.6c-0.1,1.2-0.2,2.2-0.4,2.9c-0.3,1-0.7,1.9-1.3,2.7c-0.6,1-1.3,1.7-2,2.3l-1.6-2.6c0.5-0.5,1-1.1,1.4-1.8c0.4-0.6,0.7-1.3,0.9-2
	c0.1-0.4,0.2-0.9,0.3-1.5H82v-2.9C82,12.7,92.3,12.7,92.3,12.7z M83.4,28H88v-1.7h-4.6V28z M88,32.2v-1.6h-4.6v1.6H88z M118.7,16.1
	v2.8H97.6v-2.8H118.7z M116.7,35.9h-2.8v-0.8H102v0.8h-2.8v-8.4h17.4L116.7,35.9L116.7,35.9z M116.3,19.9v2.8H99.5v-2.8
	C99.5,19.9,116.3,19.9,116.3,19.9z M116.3,23.7v2.8H99.6v-2.8C99.6,23.7,116.3,23.7,116.3,23.7z M115.9,12.3v2.8H100v-2.8
	C100,12.3,115.9,12.3,115.9,12.3z M113.9,32.3v-2H102v2C102,32.3,113.9,32.3,113.9,32.3z M133.4,22.9h-6.6v13h-2.5V12.5h9.1
	C133.4,12.5,133.4,22.9,133.4,22.9z M130.9,16.4v-1.1h-4.1v1.1H130.9z M130.9,20.2V19h-4.1v1.2C126.8,20.2,130.9,20.2,130.9,20.2z
	 M139.1,32h-7.3v1.6h-2.6v-9.4h9.9L139.1,32L139.1,32z M136.5,29.3v-2.5h-4.7v2.5H136.5z M144.3,12.5V32c0,2.5-1,3.8-3.1,3.8
	c-0.7,0-1.6-0.1-2.5-0.2l-0.5-3.2c0.9,0.3,1.8,0.4,2.6,0.4c0.5,0,0.8-0.7,0.8-2.1v-7.9h-6.7V12.5C134.9,12.5,144.3,12.5,144.3,12.5z
	 M141.6,16.4v-1.1h-4.2v1.1H141.6z M141.6,19h-4.2v1.2h4.2C141.6,20.2,141.6,19,141.6,19z M159.6,22.9H153v13h-2.5V12.5h9.1
	L159.6,22.9L159.6,22.9z M157.1,16.4v-1.1H153v1.1H157.1L157.1,16.4z M157.1,20.2V19H153v1.2L157.1,20.2L157.1,20.2z M165.3,32H158
	v1.6h-2.6v-9.4h9.9C165.3,24.2,165.3,32,165.3,32z M162.7,29.3v-2.5H158v2.5H162.7L162.7,29.3z M170.5,12.5V32c0,2.5-1,3.8-3.1,3.8
	c-0.7,0-1.6-0.1-2.5-0.2l-0.5-3.2c0.9,0.3,1.8,0.4,2.6,0.4c0.5,0,0.8-0.7,0.8-2.1v-7.9h-6.7V12.5C161.1,12.5,170.5,12.5,170.5,12.5z
	 M167.8,16.4v-1.1h-4.2v1.1H167.8z M167.8,19h-4.2v1.2h4.2C167.8,20.2,167.8,19,167.8,19z M186.8,22.6v2.7h-3.3V27h3v2.7h-3v2.5
	c0.5,0.1,1,0.2,1.6,0.3s1.3,0.1,2,0.1l-1-2c0.9-0.3,1.7-0.7,2.4-1.1h-1.3V16h3l0.2-1H187v-2.7h10.2V15h-4.1l-0.2,1h3.8v13.4h-1.6
	c0.3,0.2,0.5,0.5,0.8,0.6c0.5,0.4,1,0.6,1.5,0.8l-1.3,1.7c0.5,0,1-0.1,1.5-0.2l-0.8,3.1h-4.4c-3.5,0-6.2-0.1-8.1-0.3
	c-1.5-0.2-2.8-0.5-3.9-1c-0.6-0.3-1.2-0.6-1.6-1c-0.3,1-0.6,2-1,2.8l-2-2.1c0.5-1.1,0.8-2.3,1.1-3.5c0.3-1.3,0.5-2.7,0.6-4.2
	l2.3,0.6c-0.1,1.1-0.2,2.1-0.3,3.1c0.5,0.5,1,0.9,1.5,1.2v-5.8h-4.7v-2.7h10.5L186.8,22.6z M186.2,12.3v9.3H177v-9.3H186.2
	L186.2,12.3z M183.7,15.8V15h-4.2v0.8C179.5,15.8,183.7,15.8,183.7,15.8z M183.7,19.1v-0.9h-4.2v0.9H183.7z M194.2,32
	c-0.6-0.5-1.1-1.1-1.6-1.7l1.1-1h-3.3l1,0.9c-0.9,0.9-2,1.7-3.2,2.3c1.2,0.1,2.6,0.1,4.2,0.1c0.8,0,1.6,0,2.4-0.1
	C194.6,32.4,194.4,32.2,194.2,32L194.2,32z M194.2,19.8v-1.1h-4.6v1.1H194.2z M194.2,23.2v-1h-4.6v1H194.2z M194.2,26.6v-1h-4.6v1
	H194.2z M209,28.3h-2.4l-0.5-14.6h3.4L209,28.3z M206.2,33.5v-3.6h3.3v3.6H206.2z"/>
<g>
	<path class="st1" d="M37.4,102.6h172.5c8.5,0,15.4-6.9,15.4-15.4V66.7c0-8.5-6.9-15.4-15.4-15.4H15.5C7,51.3,0.1,58.2,0.1,66.7
		v20.5c0,8.5,6.9,15.4,15.4,15.4h12.2"/>
	<path class="st0" d="M29.7,66.5c-1.1,0.2-2.2,0.3-3.3,0.5v3h4.3c-0.1-2-0.2-4.1-0.2-6.5h2.8c0,2.5,0,4.6,0.1,6.5h6.8v3h-6.6
		c0.1,0.9,0.2,1.7,0.3,2.4c0.1,0.9,0.3,1.8,0.5,2.6c0.7-1.3,1.4-2.7,2-4.3l2.6,1.5c-1.1,2.7-2.2,4.8-3.5,6.5c0.6,1.5,1,2.2,1.4,2.2
		c0.1,0,0.3-0.1,0.4-0.4c0.2-0.5,0.3-1.4,0.4-2.8l2.7,1.2c-0.3,2.2-0.8,3.7-1.7,4.5c-0.5,0.5-1.2,0.8-1.8,0.8
		c-0.7,0-1.6-0.9-2.7-2.7c-0.2-0.3-0.3-0.5-0.5-0.8c-1.3,1.3-2.8,2.3-4.4,3.2L28,84.3c1.8-1.1,3.3-2.3,4.5-3.6
		c-0.4-1.1-0.7-2.2-1-3.5C31.2,76,31,74.6,30.8,73h-4.5v3.2c1.1-0.2,2.2-0.4,3.2-0.7l0.4,2.9c-1.1,0.3-2.3,0.6-3.5,0.9v3.8
		c0,1.6-0.2,2.6-0.6,3.2c-0.5,0.6-1.3,1-2.4,1s-2.1-0.2-3-0.4l-0.5-3.2c1,0.4,2.1,0.5,3.1,0.5c0.2,0,0.4-0.1,0.5-0.4
		c0.1-0.3,0.1-0.8,0.1-1.4v-2.5c-1.4,0.3-2.8,0.5-4.2,0.7l-0.6-3.3c1.7-0.2,3.3-0.4,4.8-0.7v-3.7h-4.8v-3h4.8v-2.6l-3,0.3l-1-2.9
		c3.2-0.2,6.2-0.5,8.9-0.8C28.5,63.9,29.7,66.5,29.7,66.5z M39.2,67.3l-2.5,1.6c-0.5-1.3-1.1-2.5-2-3.7l2.4-1.7
		C38,64.7,38.7,66,39.2,67.3z M65.8,63.7v2.8h-6.2v1.2h5.5V75H53.7l1.3,0.5c-0.1,0.3-0.3,0.7-0.4,0.9h11.6v2.9h-4.4
		c-0.5,1.1-1.1,2-1.9,2.8c1.9,0.6,3.8,1.4,5.7,2.1l-1.4,2.9c-2.4-1.1-4.8-2.1-7.1-2.9c-0.7,0.4-1.5,0.7-2.4,1.1
		c-2.7,0.9-5.5,1.5-8.5,1.8l-0.8-2.8c3.1-0.2,5.7-0.7,7.7-1.3L51,82.4c-0.3,0.3-0.5,0.6-0.8,0.9l-2.4-1.5c0.7-0.8,1.4-1.6,2-2.5
		h-4.5v-2.9h6.2c0.2-0.5,0.5-1,0.7-1.4h-5.7v-7.3h5.3v-1.2h-6.1v-2.8C45.7,63.7,65.8,63.7,65.8,63.7z M51.7,72.2v-1.6H49v1.6H51.7z
		 M56.9,81.2c0.2-0.1,0.4-0.3,0.5-0.4c0.5-0.4,0.9-0.9,1.2-1.4h-5.4c-0.2,0.3-0.3,0.5-0.5,0.7C54.1,80.4,55.5,80.8,56.9,81.2z
		 M57,66.5h-2.8v1.2H57V66.5z M54.2,72.2H57v-1.6h-2.8V72.2z M59.5,72.2h2.9v-1.6h-2.9V72.2z M80.7,65.7c-1.6,0.7-3.4,1.3-5.3,1.6
		l0.2,3.6c0.8-0.2,1.5-0.4,2.1-0.6c-0.1-0.5-0.3-1-0.5-1.5l2.4-1.3c0.7,1.7,1.3,3.6,1.9,5.7l-2.8,1.5c-0.1-0.6-0.2-1.1-0.4-1.7
		c-1.9,0.7-3.9,1.4-6.2,1.9l-1-3c0.7-0.1,1.3-0.3,1.9-0.4l-0.5-6.6c2.4-0.3,4.6-1,6.7-1.9C79.2,63,80.7,65.7,80.7,65.7z M90.8,87.2
		h-2.7v-1H76.4v1h-2.7V74.8h17.1C90.8,74.8,90.8,87.2,90.8,87.2z M80.8,79.3v-1.7h-4.5v1.7C76.3,79.3,80.8,79.3,80.8,79.3z
		 M80.8,83.5v-1.6h-4.5v1.6H80.8z M92.4,64c-0.1,5-0.5,8.1-1.3,9.3c-0.6,0.8-1.4,1.3-2.6,1.3c-0.4,0-0.9,0-1.6-0.1l-0.5-3
		c0.9,0.1,1.6,0.1,2.1,0.1c0.3,0,0.5-0.2,0.7-0.6c0.2-0.6,0.3-1.9,0.4-4.1H87c-0.1,1.2-0.2,2.2-0.4,2.9c-0.3,1-0.7,1.9-1.3,2.7
		c-0.6,1-1.3,1.7-2,2.3l-1.6-2.6c0.5-0.5,1-1.1,1.4-1.8c0.4-0.6,0.7-1.3,0.9-2c0.1-0.4,0.2-0.9,0.3-1.5h-2.2V64
		C82.1,64,92.4,64,92.4,64z M83.5,79.3h4.6v-1.7h-4.6V79.3z M88.1,83.5v-1.6h-4.6v1.6H88.1z M118.8,67.4v2.8H97.7v-2.8H118.8z
		 M116.8,87.2H114v-0.8h-11.9v0.8h-2.8v-8.4h17.4L116.8,87.2L116.8,87.2z M116.4,71.2V74H99.6v-2.8C99.6,71.2,116.4,71.2,116.4,71.2
		z M116.4,75v2.8H99.7V75C99.7,75,116.4,75,116.4,75z M116,63.6v2.8h-15.9v-2.8C100.1,63.6,116,63.6,116,63.6z M114,83.6v-2h-11.9v2
		C102.1,83.6,114,83.6,114,83.6z M133.5,74.2h-6.6v13h-2.5V63.8h9.1C133.5,63.8,133.5,74.2,133.5,74.2z M131,67.7v-1.1h-4.1v1.1H131
		z M131,71.5v-1.2h-4.1v1.2C126.9,71.5,131,71.5,131,71.5z M139.2,83.3h-7.3v1.6h-2.6v-9.4h9.9L139.2,83.3L139.2,83.3z M136.6,80.6
		v-2.5h-4.7v2.5H136.6z M144.4,63.8v19.5c0,2.5-1,3.8-3.1,3.8c-0.7,0-1.6-0.1-2.5-0.2l-0.5-3.2c0.9,0.3,1.8,0.4,2.6,0.4
		c0.5,0,0.8-0.7,0.8-2.1v-7.9H135V63.8C135,63.8,144.4,63.8,144.4,63.8z M141.7,67.7v-1.1h-4.2v1.1H141.7z M141.7,70.3h-4.2v1.2h4.2
		C141.7,71.5,141.7,70.3,141.7,70.3z M159.7,74.2h-6.6v13h-2.5V63.8h9.1L159.7,74.2L159.7,74.2z M157.2,67.7v-1.1h-4.1v1.1H157.2
		L157.2,67.7z M157.2,71.5v-1.2h-4.1v1.2L157.2,71.5L157.2,71.5z M165.4,83.3h-7.3v1.6h-2.6v-9.4h9.9
		C165.4,75.5,165.4,83.3,165.4,83.3z M162.8,80.6v-2.5h-4.7v2.5H162.8L162.8,80.6z M170.6,63.8v19.5c0,2.5-1,3.8-3.1,3.8
		c-0.7,0-1.6-0.1-2.5-0.2l-0.5-3.2c0.9,0.3,1.8,0.4,2.6,0.4c0.5,0,0.8-0.7,0.8-2.1v-7.9h-6.7V63.8C161.2,63.8,170.6,63.8,170.6,63.8
		z M167.9,67.7v-1.1h-4.2v1.1H167.9z M167.9,70.3h-4.2v1.2h4.2C167.9,71.5,167.9,70.3,167.9,70.3z M186.9,73.9v2.7h-3.3v1.7h3V81h-3
		v2.5c0.5,0.1,1,0.2,1.6,0.3s1.3,0.1,2,0.1l-1-2c0.9-0.3,1.7-0.7,2.4-1.1h-1.3V67.3h3l0.2-1h-3.4v-2.7h10.2v2.7h-4.1l-0.2,1h3.8
		v13.4h-1.6c0.3,0.2,0.5,0.5,0.8,0.6c0.5,0.4,1,0.6,1.5,0.8l-1.3,1.7c0.5,0,1-0.1,1.5-0.2l-0.8,3.1h-4.4c-3.5,0-6.2-0.1-8.1-0.3
		c-1.5-0.2-2.8-0.5-3.9-1c-0.6-0.3-1.2-0.6-1.6-1c-0.3,1-0.6,2-1,2.8l-2-2.1c0.5-1.1,0.8-2.3,1.1-3.5c0.3-1.3,0.5-2.7,0.6-4.2
		l2.3,0.6c-0.1,1.1-0.2,2.1-0.3,3.1c0.5,0.5,1,0.9,1.5,1.2v-5.8h-4.7v-2.7h10.5L186.9,73.9z M186.3,63.6v9.3h-9.2v-9.3H186.3
		L186.3,63.6z M183.8,67.1v-0.8h-4.2v0.8C179.6,67.1,183.8,67.1,183.8,67.1z M183.8,70.4v-0.9h-4.2v0.9H183.8z M194.3,83.3
		c-0.6-0.5-1.1-1.1-1.6-1.7l1.1-1h-3.3l1,0.9c-0.9,0.9-2,1.7-3.2,2.3c1.2,0.1,2.6,0.1,4.2,0.1c0.8,0,1.6,0,2.4-0.1
		C194.7,83.7,194.5,83.5,194.3,83.3L194.3,83.3z M194.3,71.1V70h-4.6v1.1H194.3z M194.3,74.5v-1h-4.6v1H194.3z M194.3,77.9v-1h-4.6
		v1H194.3z M209.1,79.6h-2.4L206.2,65h3.4L209.1,79.6z M206.3,84.8v-3.6h3.3v3.6H206.3z"/>
</g>
</svg>
