<?xml version="1.0" encoding="utf-8"?>
<!-- Generator: Adobe Illustrator 25.0.0, SVG Export Plug-In . SVG Version: 6.00 Build 0)  -->
<svg version="1.1" id="圖層_1" xmlns="http://www.w3.org/2000/svg" xmlns:xlink="http://www.w3.org/1999/xlink" x="0px" y="0px"
	 viewBox="0 0 300.7 132" style="enable-background:new 0 0 300.7 132;" xml:space="preserve">
<style type="text/css">
	.st0{fill:url(#XMLID_12_);}
	.st1{opacity:0.8;fill:url(#XMLID_13_);enable-background:new    ;}
	.st2{fill:#FFFFFF;}
	.st3{fill:url(#XMLID_14_);}
	.st4{fill:url(#XMLID_15_);}
	.st5{fill:url(#XMLID_16_);}
	.st6{opacity:0.8;fill:url(#XMLID_17_);enable-background:new    ;}
	.st7{fill:url(#XMLID_18_);}
	.st8{fill:url(#XMLID_19_);}
</style>
<g>
	
		<linearGradient id="XMLID_12_" gradientUnits="userSpaceOnUse" x1="150.3008" y1="-0.1102" x2="150.3008" y2="65.8898" gradientTransform="matrix(1 0 0 -1 0 65.8898)">
		<stop  offset="2.688170e-02" style="stop-color:#B3B3B3"/>
		<stop  offset="0.1559" style="stop-color:#666666"/>
		<stop  offset="0.1845" style="stop-color:#6E6E6E"/>
		<stop  offset="0.2282" style="stop-color:#838383"/>
		<stop  offset="0.2813" style="stop-color:#A5A5A5"/>
		<stop  offset="0.2997" style="stop-color:#B3B3B3"/>
		<stop  offset="0.3326" style="stop-color:#B6B6B6"/>
		<stop  offset="0.36" style="stop-color:#C1C1C1"/>
		<stop  offset="0.3855" style="stop-color:#D2D2D2"/>
		<stop  offset="0.4098" style="stop-color:#EAEAEA"/>
		<stop  offset="0.4161" style="stop-color:#F2F2F2"/>
		<stop  offset="0.4491" style="stop-color:#DDDDDD"/>
		<stop  offset="0.534" style="stop-color:#ABABAB"/>
		<stop  offset="0.5985" style="stop-color:#8C8C8C"/>
		<stop  offset="0.6344" style="stop-color:#808080"/>
		<stop  offset="0.7957" style="stop-color:#4D4D4D"/>
		<stop  offset="0.8202" style="stop-color:#525252"/>
		<stop  offset="0.8475" style="stop-color:#5F5F5F"/>
		<stop  offset="0.8761" style="stop-color:#757575"/>
		<stop  offset="0.9057" style="stop-color:#949494"/>
		<stop  offset="0.9356" style="stop-color:#BCBCBC"/>
		<stop  offset="0.9624" style="stop-color:#E6E6E6"/>
	</linearGradient>
	<path id="XMLID_6_" class="st0" d="M290.4,66h-280C4.6,66,0,61.4,0,55.7V10.3C0,4.6,4.6,0,10.3,0h280c5.7,0,10.3,4.6,10.3,10.3
		v45.4C300.7,61.4,296.1,66,290.4,66z"/>
	
		<linearGradient id="XMLID_13_" gradientUnits="userSpaceOnUse" x1="2.9" y1="32.8898" x2="297.8" y2="32.8898" gradientTransform="matrix(1 0 0 -1 0 65.8898)">
		<stop  offset="2.688170e-02" style="stop-color:#B3B3B3"/>
		<stop  offset="0.1559" style="stop-color:#666666"/>
		<stop  offset="0.1845" style="stop-color:#6E6E6E"/>
		<stop  offset="0.2282" style="stop-color:#838383"/>
		<stop  offset="0.2813" style="stop-color:#A5A5A5"/>
		<stop  offset="0.2997" style="stop-color:#B3B3B3"/>
		<stop  offset="0.3326" style="stop-color:#B6B6B6"/>
		<stop  offset="0.36" style="stop-color:#C1C1C1"/>
		<stop  offset="0.3855" style="stop-color:#D2D2D2"/>
		<stop  offset="0.4098" style="stop-color:#EAEAEA"/>
		<stop  offset="0.4161" style="stop-color:#F2F2F2"/>
		<stop  offset="0.4491" style="stop-color:#DDDDDD"/>
		<stop  offset="0.534" style="stop-color:#ABABAB"/>
		<stop  offset="0.5985" style="stop-color:#8C8C8C"/>
		<stop  offset="0.6344" style="stop-color:#808080"/>
		<stop  offset="0.7957" style="stop-color:#4D4D4D"/>
		<stop  offset="0.8202" style="stop-color:#525252"/>
		<stop  offset="0.8475" style="stop-color:#5F5F5F"/>
		<stop  offset="0.8761" style="stop-color:#757575"/>
		<stop  offset="0.9057" style="stop-color:#949494"/>
		<stop  offset="0.9356" style="stop-color:#BCBCBC"/>
		<stop  offset="0.9624" style="stop-color:#E6E6E6"/>
	</linearGradient>
	<path id="XMLID_5_" class="st1" d="M287.5,63.3H13.2C7.5,63.3,2.9,58.7,2.9,53V13c0-5.7,4.6-10.3,10.3-10.3h274.3
		c5.7,0,10.3,4.6,10.3,10.3v40C297.8,58.7,293.2,63.3,287.5,63.3z"/>
	<g id="XMLID_3_">
		<path class="st2" d="M287.5,63.3c-66.8-0.1-211.2,0.6-276.3,0.1c-5.9-1-9.3-6.6-8.7-12.4V40.2V18.5c0.1-3.2-0.5-8,1.4-10.8
			c1.8-3.3,5.6-5.5,9.4-5.5C80,2.5,224.4,2.1,289.6,2.8c5.7,1.1,9.1,6.6,8.4,12.2v10.8v21.7v5.4C298,58.5,293.1,63.4,287.5,63.3
			L287.5,63.3z M287.5,63.3c5.5,0.1,10.4-4.8,10.3-10.4v-5.4V25.8V15c0-1.8,0.1-3.6-0.6-5.3c-1.4-4.3-5.9-7.2-10.4-6.9
			c-63.1,0.1-209,0.3-273.6,0.4c-3.4,0-6.8,1.9-8.5,4.9c-1.9,2.7-1.2,7.3-1.3,10.4v21.7V51c-0.3,3.6,0.6,7.2,3.4,9.5
			c2,1.8,4.6,2.6,7.3,2.5h2.7C78.2,63.1,224.4,63.2,287.5,63.3L287.5,63.3z"/>
	</g>
	
		<linearGradient id="XMLID_14_" gradientUnits="userSpaceOnUse" x1="281.5351" y1="89.9797" x2="3.1367" y2="-31.1754" gradientTransform="matrix(1 0 0 -1 0 65.8898)">
		<stop  offset="0.2079" style="stop-color:#1C59BC"/>
		<stop  offset="0.326" style="stop-color:#1965C1"/>
		<stop  offset="0.5406" style="stop-color:#1085CF"/>
		<stop  offset="0.8255" style="stop-color:#03B9E6"/>
		<stop  offset="0.8587" style="stop-color:#01C0E9"/>
	</linearGradient>
	<path id="XMLID_2_" class="st3" d="M286.2,62H14.5C8.8,62,4.2,57.4,4.2,51.7V14.3C4.2,8.6,8.8,4,14.5,4h271.7
		c5.7,0,10.3,4.6,10.3,10.3v37.4C296.5,57.4,291.9,62,286.2,62z"/>
	
		<linearGradient id="XMLID_15_" gradientUnits="userSpaceOnUse" x1="133.0346" y1="120.1848" x2="159.0879" y2="-11.162" gradientTransform="matrix(1 0 0 -1 0 65.8898)">
		<stop  offset="0.1396" style="stop-color:#FFFFFF;stop-opacity:0.9624"/>
		<stop  offset="0.8449" style="stop-color:#FFFFFF;stop-opacity:0"/>
	</linearGradient>
	<path id="XMLID_1_" class="st4" d="M284.5,59.5H16.2c-5.1,0-9.3-4.2-9.3-9.3V15.8c0-5.1,4.2-9.3,9.3-9.3h268.3
		c5.1,0,9.3,4.2,9.3,9.3v34.4C293.9,55.3,289.7,59.5,284.5,59.5z"/>
	<g>
		<path class="st2" d="M24.3,25.4C24.3,25.5,24.3,25.5,24.3,25.4l0.1-4.6c0-0.4,0.1-0.8,0.4-1c0.2-0.2,0.5-0.4,0.9-0.4
			s0.7,0.2,1,0.4c0.2,0.2,0.4,0.6,0.4,1v3.8c0.1-0.1,0.3-0.1,0.4-0.1c0.3,0.1,0.5,0.2,0.7,0.4c0.3,0.5,0.7,1.6,1.3,3.3
			c0.1,0.2,0.1,0.4,0.1,0.5V26c0-1,0.5-1.5,1.4-1.5h12.4c0.9,0,1.4,0.5,1.4,1.5v3.4c0,1-0.5,1.5-1.4,1.5H30.9
			c-0.5,0-0.8-0.1-1.1-0.4v0.2c0,0.3-0.1,0.6-0.2,0.7c-0.2,0.2-0.5,0.4-0.8,0.4c-0.2,0-0.4,0-0.5-0.2c-0.1-0.1-0.2-0.2-0.3-0.3
			c-0.2-0.8-0.5-2-1-3.4v17.6c0,0.4-0.1,0.7-0.3,0.9c-0.2,0.3-0.6,0.5-1.1,0.5c-0.4,0-0.8-0.2-1-0.5s-0.3-0.6-0.3-0.9V29.9
			c-0.4,2.5-0.8,4.2-1.1,5.2c-0.2,0.5-0.6,0.7-1.2,0.7c-0.3,0-0.6-0.1-0.9-0.4c-0.2-0.2-0.3-0.5-0.3-0.8c0-0.2,0.1-0.6,0.2-1.2
			c0.5-2.2,1-4.7,1.3-7.4c0.1-0.5,0.4-0.8,0.8-0.8C23.7,25.2,24,25.3,24.3,25.4z M37.9,31.8c0.2,0.2,0.4,0.6,0.4,1.1v3.9
			c0,0.1,0.1,0.1,0.1,0.2c0.1,0.2,0.2,0.4,0.4,0.8c0.5,1,1.1,1.9,1.9,2.9c0.8-0.7,1.4-1.5,2-2.3c0.1-0.1,0.2-0.2,0.2-0.2
			c0.2-0.2,0.5-0.2,0.7-0.2s0.4,0.1,0.6,0.2c0.4,0.2,0.5,0.6,0.6,1c0,0.2-0.1,0.5-0.2,0.7c-0.2,0.4-0.6,1-1.4,1.8
			c-0.3,0.3-0.6,0.6-0.8,0.8c0.5,0.5,1,0.8,1.6,1.1c0.8,0.5,1.2,0.7,1.4,0.8c0.3,0.2,0.5,0.5,0.5,0.9s-0.1,0.8-0.4,1.1
			c-0.2,0.3-0.5,0.4-0.9,0.5c-0.3,0-0.6-0.1-0.9-0.2c-1.3-0.5-2.6-1.6-3.9-3.2c-1-1.2-1.9-2.6-2.7-4.1c-0.1-0.2-0.2-0.5-0.3-0.6
			c-0.1,0.1-0.2,0.2-0.2,0.2c-0.7,0.5-1.4,1-2.1,1.4V44c1.4-0.2,2.8-0.4,4.2-0.6c0.3,0,0.5,0.1,0.7,0.3c0.1,0.2,0.2,0.5,0.2,0.8
			s-0.1,0.6-0.2,0.8c-0.2,0.2-0.4,0.3-0.7,0.4c-2.9,0.7-5.7,1.1-8.3,1.2c-0.4,0-0.7-0.1-0.8-0.3c-0.2-0.2-0.3-0.5-0.3-0.9
			s0.1-0.6,0.2-0.8c0.2-0.2,0.5-0.4,1-0.4c0.5-0.1,1.1-0.2,1.6-0.2v-2.6c-0.5,0.3-1.1,0.5-1.7,0.7c-0.5,0.2-0.9,0.3-1.4,0.3
			c-0.4,0-0.8-0.2-1.1-0.5c-0.2-0.3-0.3-0.6-0.3-1s0.2-0.7,0.5-0.9c1.3-0.4,2.8-1,4.4-1.7c1.5-0.7,2.6-1.3,3.2-1.7V33
			c0-0.5,0.1-0.8,0.4-1.1c0.2-0.3,0.5-0.4,1-0.4C37.3,31.3,37.6,31.5,37.9,31.8z M37.8,19.5c0.3,0.3,0.5,0.7,0.5,1.1v0.3h6.4
			c0.4,0,0.7,0.1,0.8,0.3c0.2,0.2,0.2,0.5,0.2,0.9s-0.1,0.7-0.2,0.9c-0.2,0.3-0.5,0.4-0.9,0.4H29.4c-0.4,0-0.7-0.1-0.8-0.3
			c-0.2-0.2-0.2-0.5-0.2-1c0-0.4,0.1-0.7,0.2-0.9c0.2-0.2,0.4-0.3,0.8-0.3h5.8v-0.3c0-0.4,0.1-0.8,0.4-1.1c0.2-0.2,0.5-0.3,1.1-0.3
			C37.2,19.2,37.6,19.3,37.8,19.5z M33.7,32c0.3,0,0.5,0.1,0.6,0.2c0.1,0.1,0.2,0.4,0.2,0.8c0,0.4-0.1,0.6-0.1,0.7
			C34.2,33.9,34,34,33.7,34h-4.1c-0.3,0-0.5-0.1-0.6-0.3c-0.2-0.1-0.2-0.4-0.2-0.8c0-0.4,0.1-0.7,0.2-0.9c0.1-0.1,0.3-0.2,0.6-0.2
			h4.1V32z M33.7,35.2c0.3,0,0.5,0.1,0.6,0.2c0.1,0.1,0.2,0.4,0.2,0.8c0,0.4-0.1,0.6-0.1,0.7c-0.2,0.2-0.4,0.3-0.7,0.3h-4.1
			c-0.3,0-0.5-0.1-0.6-0.2c-0.2-0.1-0.2-0.4-0.2-0.8c0-0.4,0.1-0.7,0.2-0.9c0.1-0.1,0.3-0.2,0.6-0.2h4.1V35.2z M33.8,26.7h-1.4
			c-0.3,0-0.4,0.2-0.4,0.5v1.1c0,0.3,0.1,0.5,0.4,0.5h1.4V26.7z M37.9,26.7h-1.7v2h1.7V26.7z M44.4,32c0.3,0,0.5,0.1,0.6,0.2
			c0.1,0.1,0.2,0.4,0.2,0.8c0,0.4-0.1,0.6-0.1,0.7c-0.2,0.2-0.4,0.3-0.7,0.3h-4.3c-0.3,0-0.5-0.1-0.6-0.3c-0.2-0.1-0.2-0.4-0.2-0.8
			c0-0.4,0.1-0.7,0.2-0.9c0.1-0.1,0.3-0.2,0.6-0.2h4.3V32z M44.4,35.2c0.3,0,0.5,0.1,0.6,0.2c0.1,0.1,0.2,0.4,0.2,0.8
			c0,0.4-0.1,0.6-0.1,0.7c-0.2,0.2-0.4,0.3-0.7,0.3h-4.3c-0.3,0-0.5-0.1-0.6-0.2c-0.2-0.1-0.2-0.4-0.2-0.8c0-0.4,0.1-0.7,0.2-0.9
			c0.1-0.1,0.3-0.2,0.6-0.2h4.3V35.2z M42.2,28.3v-1.1c0-0.3-0.2-0.5-0.4-0.5h-1.6v2h1.6C42.1,28.7,42.2,28.6,42.2,28.3z"/>
		<path class="st2" d="M70.5,20.4c1,0,1.4,0.4,1.5,1.1c0,0.5-0.1,1.2-0.2,2.2c0,0.3,0.1,0.5,0.2,0.5h2.2c0.5,0,0.9,0.2,1.1,0.4
			c0.2,0.3,0.4,0.8,0.4,1.5c0,3.2-0.2,5.4-0.6,6.6c-0.5,1.5-1.4,2.2-2.8,2.2s-2.4-0.1-2.9-0.4c-0.2-0.1-0.3-0.2-0.4-0.4
			c-0.8,0.8-1.7,1.6-2.9,2.4c0.1,0.1,0.1,0.2,0.2,0.3h9.5c0.4,0,0.8,0.1,1,0.3s0.3,0.6,0.3,1.1c0,0.4-0.1,0.8-0.2,0.9
			c-0.2,0.3-0.6,0.5-1,0.5h-8.4c0.1,0.4,0.1,0.8,0.2,1.2c0,2.1-0.3,3.7-0.9,4.6c-0.7,1-1.6,1.5-2.8,1.5c-1.9-0.1-3.4-0.5-4.5-1.3
			c-0.7-0.3-1.1-0.9-1.1-1.7c0-0.4,0.1-0.7,0.3-1s0.5-0.5,1-0.5c0.2,0,0.5,0.2,0.8,0.3c1.1,0.7,2.2,1,3.3,1c0.6,0,0.9-1.1,0.9-3.4
			c0-0.2-0.1-0.5-0.2-0.8H53.6c-0.4,0-0.7-0.1-1-0.4c-0.2-0.2-0.3-0.5-0.3-1.1c0-0.5,0.1-0.8,0.3-1.1c0.2-0.2,0.5-0.3,1-0.3h9.2
			c-0.1-0.2-0.2-0.3-0.3-0.5c-0.4-0.5-0.6-0.9-0.6-1.2c0-0.4,0.2-0.7,0.5-1c0.3-0.2,0.7-0.3,1.1-0.3c0.5,0,0.8,0.2,1.1,0.5
			c1.6-0.9,2.5-1.7,2.5-2.2c0-0.2-0.1-0.3-0.3-0.3H59c-0.6-0.1-1-0.4-1.1-1C57,32,56,33,55.1,33.7c-0.5,0.5-1,0.7-1.6,0.7
			c-0.3,0-0.7-0.1-0.9-0.4c-0.2-0.2-0.4-0.5-0.4-0.9s0.1-0.7,0.4-1.1c1.6-1.6,2.8-3,3.5-4.3c0.9-1.5,1.5-3,1.9-4.6h-3.8
			c-0.8,0-1.1-0.5-1.2-1.4c0-0.9,0.4-1.4,1.2-1.4h16.3V20.4z M69.2,28.9c0.9,0.1,1.4,0.6,1.5,1.7c0,0.4-0.1,0.7-0.2,1
			c0.4,0.1,0.8,0.2,1.1,0.2c0.6-0.1,1-0.6,1-1.6c0-0.5,0-1.5,0-3.1c0-0.2-0.1-0.3-0.4-0.3h-3.3c-0.5,0-0.8-0.3-0.8-0.8
			c0.2-1.1,0.4-1.8,0.4-2.2c0-0.2-0.1-0.4-0.3-0.4h-7.3c-0.4,2.1-1.1,4-2,5.7h10.3V28.9z"/>
		<path class="st2" d="M92,26.9c0.4,0.3,0.5,0.6,0.5,0.9c0,0.2-0.1,0.5-0.2,0.7c-0.7,1.6-1.5,3.1-2.5,4.4v12.6
			c0,0.5-0.1,0.9-0.4,1.1c-0.2,0.2-0.5,0.4-1,0.4s-0.8-0.2-1-0.4C87.1,46.4,87,46,87,45.5v-9c-0.2,0.2-0.4,0.4-0.5,0.6
			c-0.5,0.5-1,0.8-1.4,0.8s-0.8-0.2-1.1-0.5s-0.4-0.7-0.4-1.1c0-0.2,0.1-0.5,0.3-0.7c0.4-0.4,1-1.1,1.8-2.1c1.5-1.8,2.9-3.9,4.3-6.2
			c0.4-0.5,0.7-0.7,1-0.7C91.4,26.5,91.7,26.6,92,26.9z M91.3,20c0.3,0.3,0.5,0.6,0.5,0.9c0,0.2-0.1,0.5-0.2,0.7
			c-1.2,2.7-2.9,5.1-5.1,7.3c-0.4,0.4-0.8,0.6-1.2,0.6c-0.4,0-0.8-0.2-1.1-0.5c-0.3-0.4-0.4-0.7-0.4-1.1c0-0.2,0.1-0.5,0.3-0.7
			c0.3-0.3,0.8-0.9,1.6-1.8c1.3-1.5,2.6-3.3,3.8-5.2c0.3-0.4,0.6-0.6,0.9-0.6S91,19.8,91.3,20z M100,19.9c0.2,0.2,0.4,0.6,0.4,1
			s-0.2,0.8-0.4,1.3c-0.6,0.9-1.5,1.9-2.7,2.9c0.7,0.6,1.4,1.3,2.1,2c1.7-2,3.1-4,4.3-6c0.3-0.4,0.6-0.6,1-0.6s0.8,0.1,1.1,0.3
			c0.4,0.3,0.5,0.7,0.5,1.1s-0.2,0.8-0.4,1.3c-1.6,2.5-3.5,4.7-5.4,6.7c1.5-0.1,2.9-0.3,4.2-0.5c-0.2-0.4-0.3-0.8-0.4-1.1
			c-0.1-0.2-0.1-0.4-0.1-0.6s0-0.3,0.1-0.6c0.1-0.2,0.3-0.4,0.6-0.6c0.2-0.1,0.4-0.1,0.7-0.1c0.3,0.1,0.7,0.2,1,0.5
			c0.4,0.5,1,1.7,1.7,3.5c0.4,1.1,0.6,2,0.6,2.8c0,0.4-0.1,0.7-0.3,0.8c-0.2,0.3-0.6,0.5-1.1,0.5c-0.3,0-0.5-0.1-0.7-0.2
			c-0.1-0.1-0.2-0.3-0.4-0.5c-0.2-0.5-0.4-1-0.6-1.6c-1.3,0.3-2.5,0.5-3.8,0.6c-0.9,0.2-1.9,0.2-2.9,0.3c0,0.2-0.1,0.4-0.2,0.6
			c-0.2,0.4-0.4,0.7-0.5,1.1h7.2c0.7,0.1,1.1,0.2,1.4,0.5s0.5,0.7,0.5,1.1c0,1.1-0.4,2.2-1.2,3.4c-0.7,1.1-1.7,2.1-3,3.1
			c1.4,0.6,3,1.1,4.8,1.3c0.5,0.2,0.8,0.7,0.8,1.3c-0.1,0.5-0.2,0.8-0.4,1.1c-0.3,0.2-0.7,0.4-1.2,0.4c-0.7,0-1.4-0.2-2.2-0.4
			c-1.7-0.5-3.2-1.2-4.5-2c-1.5,0.7-3,1.3-4.6,1.8c-1.3,0.4-2.4,0.5-3.3,0.5c-0.4-0.1-0.7-0.2-0.9-0.5c-0.2-0.2-0.3-0.5-0.3-0.8
			c0-0.7,0.3-1.2,1-1.4c2-0.5,3.7-1.1,5.3-1.7c-0.8-0.8-1.7-1.8-2.5-2.9c-0.1-0.1-0.1-0.2-0.2-0.3c-0.2,0.2-0.5,0.5-0.7,0.7
			c-0.4,0.4-0.7,0.6-1.1,0.6s-0.8-0.2-1.1-0.5c-0.3-0.4-0.4-0.7-0.4-1.1c0-0.2,0.1-0.5,0.3-0.7c0.3-0.3,0.8-0.8,1.4-1.5
			c0.9-1,1.8-2.1,2.7-3.4c-0.8,0.1-1.6,0.1-2.4,0.1c-0.5,0-0.9-0.1-1.1-0.3c-0.3-0.2-0.4-0.7-0.4-1.2c0-0.4,0.1-0.8,0.2-1
			c0.2-0.3,0.7-0.5,1.3-0.5c1.1,0,2.1,0,3.1-0.1c0.3-0.3,0.6-0.6,0.9-0.9c-1.2-1.2-2.6-2.4-4.2-3.6c-0.4-0.4-0.6-0.8-0.6-1.2
			c0-0.4,0.1-0.7,0.4-0.9c0.2-0.2,0.5-0.4,0.8-0.4c0.5,0,0.9,0.1,1.3,0.3c0,0.1,0.1,0.1,0.1,0.1c1.3-1.2,2.3-2.4,3.1-3.6
			c0.2-0.2,0.5-0.4,0.8-0.4C99.4,19.5,99.7,19.7,100,19.9z M103.2,38.5c0.3-0.4,0.5-0.8,0.5-1s-0.1-0.2-0.2-0.2h-7.2l0,0
			c0,0.1,0,0.1,0.1,0.1c0.2,0.2,0.3,0.4,0.4,0.5c0.8,1.2,1.9,2.2,3.2,3.2C101.4,40.3,102.5,39.4,103.2,38.5z"/>
		<path class="st2" d="M117.6,23.1v-2c0-0.5,0.1-0.8,0.3-1.1c0.2-0.2,0.5-0.4,1-0.4s0.9,0.1,1.1,0.3c0.2,0.2,0.3,0.6,0.3,1.1v2h3.7
			v-2c0-0.5,0.1-0.8,0.3-1.1c0.2-0.2,0.5-0.4,1-0.4s0.9,0.1,1.1,0.3c0.2,0.2,0.3,0.6,0.3,1.1v2h0.8c0.4,0,0.7,0.1,0.8,0.3
			c0.2,0.2,0.3,0.5,0.3,1.1c0,0.5-0.1,0.8-0.2,1c-0.2,0.3-0.5,0.4-1,0.4h-0.8V38h0.8c0.4,0,0.7,0.1,1,0.3c0.2,0.2,0.3,0.5,0.3,1.1
			c0,0.5-0.1,0.9-0.2,1.1c-0.2,0.3-0.6,0.5-1.1,0.5h-11.1c-0.4,0-0.7-0.1-0.9-0.3c-0.2-0.2-0.4-0.6-0.4-1.2c0-0.5,0.1-0.9,0.4-1.1
			c0.2-0.2,0.5-0.2,0.9-0.2h1.2V25.9h-1c-0.4,0-0.7-0.1-0.8-0.3c-0.2-0.2-0.3-0.5-0.3-1.1c0-0.5,0.1-0.9,0.3-1.1
			c0.2-0.2,0.4-0.2,0.8-0.2L117.6,23.1L117.6,23.1z M120.5,41.8c0.4,0.3,0.6,0.7,0.6,1.2c0,0.4-0.1,0.7-0.4,0.9
			c-0.3,0.3-0.6,0.6-0.9,0.9c-0.8,0.8-1.5,1.4-2.2,1.8c-0.2,0.2-0.4,0.2-0.6,0.3c-0.5,0-0.9-0.2-1.2-0.5c-0.2-0.3-0.3-0.7-0.3-1.1
			c0-0.5,0.2-0.8,0.6-1.1c1.1-0.8,2-1.5,2.6-2.2c0.3-0.3,0.5-0.5,0.5-0.5c0.1-0.1,0.2-0.1,0.2-0.1C119.9,41.5,120.2,41.6,120.5,41.8
			z M124.1,28.3v-2.4h-3.7v2.4H124.1z M124.1,33.2V31h-3.7v2.3L124.1,33.2L124.1,33.2z M124.1,38.2v-2.3h-3.7v2.3H124.1z
			 M136.8,21.1c1.3,0,1.9,0.7,1.9,2.1v20.9c0,1-0.2,1.7-0.5,2.1c-0.3,0.4-1,0.6-2,0.6c-1.1,0-1.8-0.1-2.2-0.2
			c-0.5-0.3-0.7-0.7-0.7-1.3c0-0.4,0.1-0.7,0.2-0.9c0.1-0.2,0.3-0.4,0.5-0.4h1.6c0.4,0,0.5-0.2,0.5-0.5V38H132
			c-0.2,3.3-0.7,5.9-1.3,7.9c-0.3,0.8-0.9,1.2-1.6,1.2c-0.8-0.1-1.2-0.4-1.3-1c-0.1,0.1-0.2,0.2-0.2,0.3c-0.3,0.3-0.7,0.5-1,0.5
			c-0.2,0-0.4-0.1-0.6-0.2c-0.9-0.7-1.6-1.6-2.3-2.5c-0.2-0.2-0.3-0.4-0.4-0.6c-0.1-0.2-0.2-0.5-0.2-0.8s0.2-0.6,0.4-0.8
			c0.2-0.2,0.5-0.3,0.8-0.3c0.2,0.1,0.5,0.2,0.8,0.4c0.1,0.1,0.2,0.2,0.3,0.3c0.5,0.7,1.2,1.4,2,2c0.2,0.2,0.4,0.3,0.4,0.4
			c0.1,0.1,0.1,0.2,0.1,0.3c0-0.1,0-0.2,0.1-0.3c0.8-2.4,1.3-4.8,1.5-7.3c0.1-1.4,0.2-2.9,0.2-4.5v-9.6c0-1.4,0.6-2.1,1.9-2.1h5.2
			V21.1z M136.2,35v-4h-4v1.8c0,0.8,0,1.6,0,2.2H136.2z M136.2,28v-3.7c0-0.2-0.1-0.4-0.2-0.4h-3.4c-0.2,0-0.3,0.1-0.3,0.2V28H136.2
			z"/>
		<path class="st2" d="M163.7,29.3v-8.5c0-0.4,0.1-0.8,0.4-1c0.2-0.2,0.5-0.4,0.9-0.4s0.7,0.2,1,0.4s0.4,0.6,0.4,1v8.5h2.2
			c0.4,0,0.7,0.1,0.9,0.3s0.3,0.5,0.3,1.1c0,0.5-0.1,0.9-0.2,1.1c-0.2,0.3-0.6,0.5-1.1,0.5h-2.2v1.1c0.2,0,0.3-0.1,0.4-0.1
			c0.3,0,0.6,0.2,0.8,0.5c0.7,1.6,1.3,3.1,1.9,4.7c0.1,0.4,0.2,0.7,0.2,1c0,0.5-0.1,0.8-0.4,1c-0.2,0.3-0.5,0.4-0.9,0.4
			c-0.5,0-0.9-0.2-1.1-0.7c-0.4-1.1-0.7-2.2-1.1-3.2v8.6c0,0.4-0.1,0.7-0.2,0.9c-0.2,0.3-0.6,0.5-1.1,0.5c-0.4,0-0.8-0.2-1-0.5
			c-0.2-0.2-0.3-0.5-0.3-0.9v-7.8c-0.8,2.4-1.6,4.3-2.2,5.6c-0.2,0.2-0.5,0.4-0.8,0.4s-0.6-0.2-0.9-0.5c-0.2-0.2-0.4-0.5-0.4-0.8
			c0-0.5,0.1-0.8,0.2-1.1c0.7-1.5,1.4-3,2-4.6c0.7-1.6,1.3-3.1,1.7-4.4H161c-0.4,0-0.7-0.1-0.9-0.3s-0.4-0.6-0.4-1.2
			c0-0.5,0.1-0.9,0.4-1.1c0.2-0.2,0.5-0.2,0.9-0.2h2.7V29.3z M161.8,21.3c0.3,0.5,0.7,1.8,1.1,3.7c0.2,0.8,0.3,1.5,0.3,2.1
			c0,0.4-0.1,0.7-0.3,0.8c-0.2,0.2-0.4,0.3-0.8,0.4c-0.3,0-0.5-0.1-0.7-0.2s-0.2-0.3-0.3-0.5c-0.3-1.7-0.7-3.1-1-4.4
			c-0.2-0.6-0.2-1.1-0.2-1.4c0-0.2,0.1-0.5,0.3-0.6s0.4-0.2,0.6-0.2C161.3,21,161.6,21.1,161.8,21.3z M169.8,20.9
			c0.3,0.2,0.4,0.5,0.4,1c-0.1,0.4-0.1,0.9-0.2,1.5c-0.4,1.8-0.9,3.2-1.3,4.2c-0.2,0.5-0.5,0.7-1.1,0.7c-0.3,0-0.5-0.1-0.8-0.4
			c-0.2-0.2-0.2-0.5-0.2-0.8c0-0.1,0-0.3,0.1-0.6c0.6-1.6,1-3.3,1.4-5.1c0.1-0.5,0.4-0.7,0.8-0.7C169.3,20.7,169.6,20.8,169.8,20.9z
			 M175.8,20.9v-0.5c0-0.4,0.1-0.7,0.4-1c0.2-0.2,0.5-0.3,1-0.3s0.8,0.1,1.1,0.3c0.3,0.3,0.4,0.6,0.4,1v0.5h4.7
			c0.4,0,0.7,0.1,0.8,0.3c0.2,0.2,0.2,0.5,0.2,0.9s-0.1,0.7-0.2,0.9c-0.2,0.3-0.5,0.4-0.8,0.4h-4.7V25h4.3c0.4,0,0.7,0.1,0.8,0.3
			c0.2,0.2,0.2,0.5,0.2,0.9s-0.1,0.6-0.2,0.8c-0.2,0.3-0.5,0.4-0.9,0.4h-4.3v1.5h5c0.4,0,0.7,0.1,0.8,0.3c0.1,0.2,0.2,0.5,0.2,0.9
			s-0.1,0.7-0.2,0.9c-0.2,0.3-0.5,0.4-0.9,0.4h-12.4c-0.4,0-0.6-0.1-0.8-0.3c-0.2-0.2-0.2-0.5-0.2-1c0-0.4,0.1-0.7,0.2-0.9
			c0.2-0.2,0.5-0.2,0.8-0.2h4.5v-1.5h-4c-0.4,0-0.7-0.1-0.8-0.3c-0.2-0.2-0.2-0.5-0.2-0.9s0.1-0.7,0.2-0.9c0.2-0.2,0.4-0.2,0.8-0.2
			h4v-1.5h-4.3c-0.4,0-0.7-0.1-0.8-0.3c-0.2-0.2-0.2-0.5-0.2-1c0-0.4,0.1-0.7,0.2-0.9c0.2-0.2,0.4-0.3,0.8-0.3h4.5V20.9z
			 M181.4,32.6c1.3,0,2,0.8,2,2.5v9.3c0,0.9-0.2,1.5-0.6,1.8c-0.5,0.4-1.2,0.5-2.1,0.5c-1.5,0-2.6-0.2-3.4-0.7
			c-0.4-0.2-0.6-0.6-0.7-1.1c0-0.9,0.3-1.4,1-1.4c0.1,0,0.3,0.1,0.5,0.1c0.8,0.3,1.6,0.5,2.2,0.5c0.2-0.1,0.3-0.2,0.3-0.5v-1.7h-7.3
			v3.6c0,0.5-0.1,0.9-0.4,1.1c-0.2,0.2-0.5,0.3-1,0.3s-0.9-0.2-1.1-0.4c-0.2-0.3-0.3-0.6-0.3-1V35.1c0-1.6,0.6-2.5,1.9-2.5H181.4z
			 M180.7,36.4v-0.8c0-0.3-0.1-0.5-0.3-0.5H174c-0.4,0-0.5,0.2-0.5,0.5v0.8H180.7z M180.7,39.8v-1.2h-7.3v1.2H180.7z"/>
		<path class="st2" d="M195.2,32.4c1.2,0,1.8,0.6,1.8,1.8v7.4c0.1,0.6,0.5,1.1,1.3,1.3c1.2,0.5,3.1,0.7,5.6,0.7c2.4,0,4.7,0,6.7-0.1
			c1.8,0,3.3-0.1,4.6-0.1c0.4,0,0.7,0.1,0.9,0.3c0.2,0.3,0.4,0.6,0.4,1.1c0,0.6-0.1,1.1-0.4,1.4c-0.2,0.2-0.6,0.4-1.1,0.4h-10.5
			c-4.1,0-6.8-0.6-8.1-1.8c-0.2-0.2-0.4-0.2-0.6-0.2c-0.1,0-0.2,0-0.3,0.2c-0.5,0.5-1.1,1-1.7,1.5c-0.3,0.3-0.6,0.4-0.8,0.4
			c-0.4,0-0.6-0.1-0.7-0.2c-0.4-0.3-0.7-0.8-0.9-1.3c-0.1-0.2-0.1-0.4-0.1-0.5c0-0.5,0.2-0.8,0.6-1c0.7-0.4,1.3-0.9,2.1-1.5
			c0.2-0.1,0.2-0.3,0.2-0.5v-6c0-0.2-0.1-0.2-0.2-0.2h-1.8c-0.5,0-0.8-0.2-1-0.4s-0.3-0.6-0.3-1.1s0.1-0.8,0.3-1s0.5-0.4,1-0.4h3
			V32.4z M193.5,25.7c1.3,0.9,2.5,1.8,3.5,2.7c0.3,0.5,0.4,0.8,0.4,1.1c0,0.3-0.1,0.6-0.3,0.9c-0.2,0.4-0.5,0.6-1,0.7
			c-0.3,0-0.5,0-0.7-0.2c-0.2-0.1-0.4-0.3-0.6-0.5c-0.8-0.8-1.8-1.5-2.8-2.3c-0.1-0.1-0.2-0.2-0.2-0.3c-0.3-0.3-0.4-0.6-0.4-1
			s0.1-0.8,0.4-1.1s0.6-0.5,1-0.5C193,25.4,193.3,25.5,193.5,25.7z M194.6,20c1.3,0.8,2.5,1.7,3.5,2.5c0.3,0.5,0.4,0.8,0.4,1.1
			c0,0.3-0.1,0.7-0.3,1c-0.2,0.4-0.5,0.6-1,0.7c-0.3,0-0.5,0-0.7-0.2c-0.2-0.1-0.4-0.3-0.6-0.5c-0.8-0.7-1.8-1.4-2.8-2.1
			c-0.1-0.1-0.2-0.2-0.3-0.3c-0.3-0.2-0.4-0.6-0.4-0.9c0-0.4,0.1-0.8,0.4-1.1c0.3-0.3,0.6-0.5,1-0.5C194.1,19.8,194.4,19.9,194.6,20
			z M202.5,31.7v-0.1c0-0.5,0.1-0.8,0.3-1.1c0.2-0.2,0.5-0.3,1-0.3s0.9,0.1,1.1,0.3c0.2,0.2,0.3,0.6,0.3,1.1v0.1h3.5v-0.1
			c0-0.5,0.1-0.8,0.3-1.1c0.2-0.2,0.5-0.3,1-0.3s0.9,0.1,1.1,0.3c0.2,0.2,0.3,0.6,0.3,1.1v0.1h2.6c0.4,0,0.7,0.1,0.8,0.3
			c0.2,0.2,0.2,0.5,0.2,0.9s-0.1,0.6-0.2,0.8c-0.2,0.3-0.5,0.4-0.9,0.4h-2.6v1.8h3.1c0.4,0,0.7,0.1,0.9,0.3s0.2,0.5,0.2,1
			c0,0.4-0.1,0.7-0.2,0.9c-0.2,0.3-0.5,0.4-1,0.4H211l0.1,0.1c1,0.7,2.2,1.5,3.6,2.2c0.1,0.1,0.2,0.2,0.3,0.2
			c0.1,0.2,0.2,0.4,0.2,0.7c0,0.5-0.2,0.8-0.6,1.1c-0.2,0.2-0.6,0.3-1,0.3s-0.8-0.1-1.1-0.4c-0.8-0.4-2-1.3-3.8-2.8
			c-0.2-0.2-0.2-0.4-0.2-0.6c0-0.3,0.1-0.6,0.3-0.8h-3.7c0.3,0.3,0.5,0.5,0.5,0.8c0,0.2-0.1,0.5-0.2,0.7c-1,1-2.5,1.9-4.3,2.7
			c-0.4,0.2-0.7,0.2-1,0.2c-0.4,0-0.8-0.2-1.1-0.5c-0.3-0.4-0.4-0.7-0.4-1.1c0-0.2,0.1-0.5,0.3-0.7c0.3-0.1,0.7-0.3,1.4-0.6
			c1-0.5,2-1,3-1.5h-4.1c-0.4,0-0.7-0.1-0.9-0.3s-0.3-0.5-0.3-1c0-0.4,0.1-0.8,0.3-1s0.5-0.3,0.9-0.3h3.1v-1.8H200
			c-0.4,0-0.6-0.1-0.8-0.3s-0.3-0.5-0.3-0.9s0.1-0.7,0.3-0.9s0.4-0.2,0.8-0.2h2.5V31.7z M201.5,27.1c0,0.2,0.1,0.2,0.4,0.2h2.3
			c0.2,0,0.2-0.1,0.3-0.2c0,0,0-0.1,0-0.3c0-0.3,0.1-0.5,0.3-0.7c0.1-0.1,0.3-0.2,0.6-0.2s0.5,0.1,0.8,0.2c0.3,0.2,0.5,0.6,0.5,1.1
			c0,0.6-0.1,1.1-0.3,1.5c-0.2,0.5-0.7,0.8-1.3,0.8h-4c-1.4,0-2-0.5-2-1.5v-6.3c0-1.2,0.6-1.8,1.7-1.8h4.1c1,0,1.5,0.5,1.5,1.5v2.1
			c0,1.3-0.5,1.9-1.4,1.9h-3.6L201.5,27.1L201.5,27.1z M201.5,22.4v1.2h2.6c0.1,0,0.1,0,0.1-0.1v-1.1c0-0.1-0.1-0.1-0.1-0.1h-2.5
			C201.5,22.2,201.5,22.3,201.5,22.4z M208.7,34.1h-3.5v1.8h3.5V34.1z M209.8,27.1c0,0.2,0.1,0.2,0.4,0.2h2.6c0.2,0,0.2,0,0.3-0.1
			c0,0,0-0.1,0.1-0.2c0-0.3,0.1-0.5,0.3-0.6c0.1-0.1,0.3-0.2,0.5-0.2c0.3,0,0.6,0.1,0.8,0.2c0.3,0.2,0.5,0.6,0.5,1.1
			c0,0.6-0.1,1.1-0.3,1.5c-0.2,0.5-0.7,0.8-1.3,0.8h-4.3c-1.4,0-2-0.5-2-1.5V22c0-1.2,0.5-1.8,1.7-1.8h4.2c1,0,1.5,0.5,1.5,1.5v2.1
			c0,1.3-0.5,1.9-1.4,1.9h-3.6V27.1z M209.8,22.4v1.2h2.6c0.1,0,0.1,0,0.1-0.1v-1.1c0-0.1-0.1-0.1-0.1-0.1h-2.5
			C209.9,22.2,209.8,22.3,209.8,22.4z"/>
		<path class="st2" d="M236,20c0.3,0.3,0.5,0.7,0.5,1.2v2.7h9.5c0.5,0,0.8,0.1,1.1,0.3c0.2,0.2,0.3,0.6,0.3,1.2
			c0,0.5-0.1,0.9-0.2,1.1c-0.3,0.4-0.6,0.5-1.1,0.5h-2.8c-0.1,0.2-0.1,0.5-0.2,0.7c-1.5,3.9-3.5,7.3-6,10.1
			c-0.1,0.1-0.2,0.2-0.3,0.3c2.7,2.6,5.9,4.4,9.6,5.4c0.6,0.3,0.9,0.8,0.9,1.4c-0.1,0.5-0.2,0.9-0.5,1.2s-0.7,0.4-1.3,0.4
			c-1,0-2.1-0.3-3.3-0.9c-3-1.5-5.5-3.2-7.7-5.4c-2.3,2.2-5.2,4.1-8.5,5.9c-0.6,0.3-1.1,0.5-1.7,0.6c-0.5,0-1-0.2-1.3-0.7
			c-0.2-0.4-0.3-0.8-0.3-1.2c0-0.5,0.2-0.9,0.5-1.2c3.9-2,6.9-3.9,9-5.9c-1.6-2-3.2-4.8-5-8.4c-0.5-1-0.8-1.8-1-2.5h-2.6
			c-0.5,0-0.8-0.1-1-0.4c-0.2-0.2-0.4-0.7-0.4-1.3c0-0.5,0.1-0.9,0.4-1.2c0.2-0.2,0.6-0.3,1-0.3h9.5v-2.7c0-0.4,0.1-0.8,0.4-1.2
			c0.2-0.2,0.6-0.4,1.2-0.4C235.4,19.6,235.8,19.8,236,20z M234.5,35.7c2.4-2.6,4.3-5.4,5.6-8.6h-10.6
			C230.8,30.3,232.5,33.2,234.5,35.7z"/>
		<path class="st2" d="M273.8,29.8c1.3,0,1.9,0.7,1.9,2.1v5.4c0,1.5-0.7,2.1-1.9,2.1h-6v1.4h9.6c0.4,0,0.7,0.1,0.9,0.3
			c0.2,0.2,0.3,0.5,0.3,1s-0.1,0.8-0.2,1c-0.2,0.3-0.5,0.5-1,0.5h-9.6v2.1c0,0.5-0.1,1-0.4,1.2c-0.2,0.3-0.6,0.4-1.1,0.4
			s-0.9-0.2-1.1-0.4s-0.4-0.7-0.4-1.2v-2.1h-9.9c-0.4,0-0.7-0.1-0.9-0.3s-0.3-0.5-0.3-1.1c0-0.4,0.1-0.8,0.3-1s0.5-0.3,0.9-0.3h9.9
			v-1.4h-6.3c-1.3,0-1.9-0.7-1.9-2.1V32c0-1.4,0.6-2.1,1.9-2.1h15.3V29.8z M267.5,19.5c0.3,0.3,0.5,0.7,0.5,1.1v0.9h8.8
			c0.4,0,0.7,0.1,0.8,0.3c0.2,0.2,0.2,0.5,0.2,0.9s-0.1,0.7-0.2,0.9c-0.2,0.3-0.5,0.4-0.9,0.4h-3.3l-0.8,1.9h4.8
			c0.4,0,0.7,0.1,0.9,0.3c0.2,0.2,0.3,0.5,0.3,1c0,0.4-0.1,0.7-0.2,0.9c-0.2,0.3-0.5,0.4-1,0.4H255c-0.4,0-0.7-0.1-0.9-0.3
			c-0.2-0.2-0.3-0.5-0.3-1c0-0.4,0.1-0.8,0.3-1s0.5-0.3,0.9-0.3h4.5l-0.8-1.9h-3.1c-0.4,0-0.7-0.1-0.8-0.3c-0.2-0.2-0.2-0.5-0.2-1
			c0-0.4,0.1-0.7,0.2-0.9c0.2-0.2,0.4-0.2,0.8-0.2h9.2v-0.9c0-0.4,0.1-0.8,0.4-1.1c0.2-0.2,0.5-0.3,1.1-0.3S267.2,19.3,267.5,19.5z
			 M273,33.7v-0.9c0-0.4-0.2-0.6-0.5-0.6H260c-0.4,0-0.5,0.2-0.5,0.6v0.9H273z M273,36.5v-0.7h-13.5v0.7c0,0.4,0.2,0.6,0.5,0.6h12.5
			C272.8,37.1,273,36.9,273,36.5z M269.4,25.9l0.8-1.9H262l0.8,1.9H269.4z"/>
	</g>
</g>
<g>
	
		<linearGradient id="XMLID_16_" gradientUnits="userSpaceOnUse" x1="150.3992" y1="-66.1084" x2="150.3992" y2="-0.1084" gradientTransform="matrix(1 0 0 -1 0 65.8898)">
		<stop  offset="2.688170e-02" style="stop-color:#B3B3B3"/>
		<stop  offset="0.1559" style="stop-color:#666666"/>
		<stop  offset="0.1845" style="stop-color:#6E6E6E"/>
		<stop  offset="0.2282" style="stop-color:#838383"/>
		<stop  offset="0.2813" style="stop-color:#A5A5A5"/>
		<stop  offset="0.2997" style="stop-color:#B3B3B3"/>
		<stop  offset="0.3326" style="stop-color:#B6B6B6"/>
		<stop  offset="0.36" style="stop-color:#C1C1C1"/>
		<stop  offset="0.3855" style="stop-color:#D2D2D2"/>
		<stop  offset="0.4098" style="stop-color:#EAEAEA"/>
		<stop  offset="0.4161" style="stop-color:#F2F2F2"/>
		<stop  offset="0.4491" style="stop-color:#DDDDDD"/>
		<stop  offset="0.534" style="stop-color:#ABABAB"/>
		<stop  offset="0.5985" style="stop-color:#8C8C8C"/>
		<stop  offset="0.6344" style="stop-color:#808080"/>
		<stop  offset="0.7957" style="stop-color:#4D4D4D"/>
		<stop  offset="0.8202" style="stop-color:#525252"/>
		<stop  offset="0.8475" style="stop-color:#5F5F5F"/>
		<stop  offset="0.8761" style="stop-color:#757575"/>
		<stop  offset="0.9057" style="stop-color:#949494"/>
		<stop  offset="0.9356" style="stop-color:#BCBCBC"/>
		<stop  offset="0.9624" style="stop-color:#E6E6E6"/>
	</linearGradient>
	<path id="XMLID_10_" class="st5" d="M290.5,132h-280c-5.8,0-10.4-4.6-10.4-10.3V76.3C0.1,70.6,4.7,66,10.4,66h280
		c5.7,0,10.3,4.6,10.3,10.3v45.4C300.8,127.4,296.2,132,290.5,132z"/>
	
		<linearGradient id="XMLID_17_" gradientUnits="userSpaceOnUse" x1="2.9984" y1="-33.1084" x2="297.8984" y2="-33.1084" gradientTransform="matrix(1 0 0 -1 0 65.8898)">
		<stop  offset="2.688170e-02" style="stop-color:#B3B3B3"/>
		<stop  offset="0.1559" style="stop-color:#666666"/>
		<stop  offset="0.1845" style="stop-color:#6E6E6E"/>
		<stop  offset="0.2282" style="stop-color:#838383"/>
		<stop  offset="0.2813" style="stop-color:#A5A5A5"/>
		<stop  offset="0.2997" style="stop-color:#B3B3B3"/>
		<stop  offset="0.3326" style="stop-color:#B6B6B6"/>
		<stop  offset="0.36" style="stop-color:#C1C1C1"/>
		<stop  offset="0.3855" style="stop-color:#D2D2D2"/>
		<stop  offset="0.4098" style="stop-color:#EAEAEA"/>
		<stop  offset="0.4161" style="stop-color:#F2F2F2"/>
		<stop  offset="0.4491" style="stop-color:#DDDDDD"/>
		<stop  offset="0.534" style="stop-color:#ABABAB"/>
		<stop  offset="0.5985" style="stop-color:#8C8C8C"/>
		<stop  offset="0.6344" style="stop-color:#808080"/>
		<stop  offset="0.7957" style="stop-color:#4D4D4D"/>
		<stop  offset="0.8202" style="stop-color:#525252"/>
		<stop  offset="0.8475" style="stop-color:#5F5F5F"/>
		<stop  offset="0.8761" style="stop-color:#757575"/>
		<stop  offset="0.9057" style="stop-color:#949494"/>
		<stop  offset="0.9356" style="stop-color:#BCBCBC"/>
		<stop  offset="0.9624" style="stop-color:#E6E6E6"/>
	</linearGradient>
	<path id="XMLID_9_" class="st6" d="M287.6,129.3H13.3C7.6,129.3,3,124.7,3,119V79c0-5.7,4.6-10.3,10.3-10.3h274.3
		c5.7,0,10.3,4.6,10.3,10.3v40C297.9,124.7,293.3,129.3,287.6,129.3z"/>
	<g id="XMLID_8_">
		<path class="st2" d="M287.6,129.3c-66.8-0.1-211.2,0.6-276.3,0.1c-5.9-1-9.3-6.6-8.7-12.4v-10.8V84.5c0.1-3.2-0.5-8,1.4-10.8
			c1.8-3.3,5.6-5.5,9.4-5.5c66.7,0.3,211.1-0.1,276.3,0.6c5.7,1.1,9.1,6.6,8.4,12.2v10.8v21.7v5.4
			C298.1,124.5,293.2,129.4,287.6,129.3L287.6,129.3z M287.6,129.3c5.5,0.1,10.4-4.8,10.3-10.4v-5.4V91.8V81c0-1.8,0.1-3.6-0.6-5.3
			c-1.4-4.3-5.9-7.2-10.4-6.9c-63.1,0.1-209,0.3-273.6,0.4c-3.4,0-6.8,1.9-8.5,4.9c-1.9,2.7-1.2,7.3-1.3,10.4v21.7V117
			c-0.3,3.6,0.6,7.2,3.4,9.5c2,1.8,4.6,2.6,7.3,2.5h2.7C78.3,129.1,224.5,129.2,287.6,129.3L287.6,129.3z"/>
	</g>
	
		<linearGradient id="XMLID_18_" gradientUnits="userSpaceOnUse" x1="281.6335" y1="23.9816" x2="3.2352" y2="-97.1735" gradientTransform="matrix(1 0 0 -1 0 65.8898)">
		<stop  offset="0.2079" style="stop-color:#1C59BC"/>
		<stop  offset="0.326" style="stop-color:#1965C1"/>
		<stop  offset="0.5406" style="stop-color:#1085CF"/>
		<stop  offset="0.8255" style="stop-color:#03B9E6"/>
		<stop  offset="0.8587" style="stop-color:#01C0E9"/>
	</linearGradient>
	<path id="XMLID_7_" class="st7" d="M286.3,128H14.6c-5.7,0-10.3-4.6-10.3-10.3V80.3C4.3,74.6,8.9,70,14.6,70h271.7
		c5.7,0,10.3,4.6,10.3,10.3v37.4C296.6,123.4,292,128,286.3,128z"/>
	
		<linearGradient id="XMLID_19_" gradientUnits="userSpaceOnUse" x1="133.133" y1="54.1867" x2="159.1863" y2="-77.1601" gradientTransform="matrix(1 0 0 1 0 132.1065)">
		<stop  offset="0.1396" style="stop-color:#FFFFFF;stop-opacity:0.9624"/>
		<stop  offset="0.8449" style="stop-color:#FFFFFF;stop-opacity:0"/>
	</linearGradient>
	<path id="XMLID_4_" class="st8" d="M293.9,81.8v34.4c0,5.1-4.2,9.3-9.3,9.3H16.3c-5.1,0-9.3-4.2-9.3-9.3V81.8
		c0-5.1,4.2-9.3,9.3-9.3h268.3C289.8,72.5,294,76.7,293.9,81.8z"/>
	<g>
		<path class="st2" d="M24.4,92.4C24.4,92.5,24.4,92.5,24.4,92.4l0.1-4.6c0-0.4,0.1-0.8,0.4-1c0.2-0.2,0.5-0.4,0.9-0.4
			s0.7,0.2,1,0.4c0.2,0.2,0.4,0.6,0.4,1v3.8c0.1-0.1,0.3-0.1,0.4-0.1c0.3,0.1,0.5,0.2,0.7,0.4c0.3,0.5,0.7,1.6,1.3,3.3
			c0.1,0.2,0.1,0.4,0.1,0.5V93c0-1,0.5-1.5,1.4-1.5h12.4c0.9,0,1.4,0.5,1.4,1.5v3.4c0,1-0.5,1.5-1.4,1.5H31c-0.5,0-0.8-0.1-1.1-0.4
			v0.2c0,0.3-0.1,0.6-0.2,0.7c-0.2,0.2-0.5,0.4-0.8,0.4c-0.2,0-0.4,0-0.5-0.2c-0.1-0.1-0.2-0.2-0.3-0.3c-0.2-0.8-0.5-2-1-3.4v17.6
			c0,0.4-0.1,0.7-0.3,0.9c-0.2,0.3-0.6,0.5-1.1,0.5c-0.4,0-0.8-0.2-1-0.5c-0.2-0.3-0.3-0.6-0.3-0.9V96.9c-0.4,2.5-0.8,4.2-1.1,5.2
			c-0.2,0.5-0.6,0.7-1.2,0.7c-0.3,0-0.6-0.1-0.9-0.4c-0.2-0.2-0.3-0.5-0.3-0.8c0-0.2,0.1-0.6,0.2-1.2c0.5-2.2,1-4.7,1.3-7.4
			c0.1-0.5,0.4-0.8,0.8-0.8C23.8,92.2,24.1,92.3,24.4,92.4z M38,98.8c0.2,0.2,0.4,0.6,0.4,1.1v3.9c0,0.1,0.1,0.1,0.1,0.2
			c0.1,0.2,0.2,0.4,0.4,0.8c0.5,1,1.1,1.9,1.9,2.9c0.8-0.7,1.4-1.5,2-2.3c0.1-0.1,0.2-0.2,0.2-0.2c0.2-0.2,0.5-0.2,0.7-0.2
			s0.4,0.1,0.6,0.2c0.4,0.2,0.5,0.6,0.6,1c0,0.2-0.1,0.5-0.2,0.7c-0.2,0.4-0.6,1-1.4,1.8c-0.3,0.3-0.6,0.6-0.8,0.8
			c0.5,0.5,1,0.8,1.6,1.1c0.8,0.5,1.2,0.7,1.4,0.8c0.3,0.2,0.5,0.5,0.5,0.9s-0.1,0.8-0.4,1.1c-0.2,0.3-0.5,0.4-0.9,0.5
			c-0.3,0-0.6-0.1-0.9-0.2c-1.3-0.5-2.6-1.6-3.9-3.2c-1-1.2-1.9-2.6-2.7-4.1c-0.1-0.2-0.2-0.5-0.3-0.6c-0.1,0.1-0.2,0.2-0.2,0.2
			c-0.7,0.5-1.4,1-2.1,1.4v3.6c1.4-0.2,2.8-0.4,4.2-0.6c0.3,0,0.5,0.1,0.7,0.3c0.1,0.2,0.2,0.5,0.2,0.8c0,0.3-0.1,0.6-0.2,0.8
			c-0.2,0.2-0.4,0.3-0.7,0.4c-2.9,0.7-5.7,1.1-8.3,1.2c-0.4,0-0.7-0.1-0.8-0.3c-0.2-0.2-0.3-0.5-0.3-0.9s0.1-0.6,0.2-0.8
			c0.2-0.2,0.5-0.4,1-0.4c0.5-0.1,1.1-0.2,1.6-0.2v-2.6c-0.5,0.3-1.1,0.5-1.7,0.7c-0.5,0.2-0.9,0.3-1.4,0.3c-0.4,0-0.8-0.2-1.1-0.5
			c-0.2-0.3-0.3-0.6-0.3-1s0.2-0.7,0.5-0.9c1.3-0.4,2.8-1,4.4-1.7c1.5-0.7,2.6-1.3,3.2-1.7V100c0-0.5,0.1-0.8,0.4-1.1
			c0.2-0.3,0.5-0.4,1-0.4C37.4,98.3,37.7,98.5,38,98.8z M37.9,86.5c0.3,0.3,0.5,0.7,0.5,1.1v0.3h6.4c0.4,0,0.7,0.1,0.8,0.3
			c0.2,0.2,0.2,0.5,0.2,0.9c0,0.4-0.1,0.7-0.2,0.9c-0.2,0.3-0.5,0.4-0.9,0.4H29.5c-0.4,0-0.7-0.1-0.8-0.3c-0.2-0.2-0.2-0.5-0.2-1
			c0-0.4,0.1-0.7,0.2-0.9c0.2-0.2,0.4-0.3,0.8-0.3h5.8v-0.3c0-0.4,0.1-0.8,0.4-1.1c0.2-0.2,0.5-0.3,1.1-0.3
			C37.3,86.2,37.7,86.3,37.9,86.5z M33.8,99c0.3,0,0.5,0.1,0.6,0.2c0.1,0.1,0.2,0.4,0.2,0.8c0,0.4-0.1,0.6-0.1,0.7
			c-0.2,0.2-0.4,0.3-0.7,0.3h-4.1c-0.3,0-0.5-0.1-0.6-0.3c-0.2-0.1-0.2-0.4-0.2-0.8s0.1-0.7,0.2-0.9c0.1-0.1,0.3-0.2,0.6-0.2h4.1V99
			z M33.8,102.2c0.3,0,0.5,0.1,0.6,0.2s0.2,0.4,0.2,0.8s-0.1,0.6-0.1,0.7c-0.2,0.2-0.4,0.3-0.7,0.3h-4.1c-0.3,0-0.5-0.1-0.6-0.2
			c-0.2-0.1-0.2-0.4-0.2-0.8c0-0.4,0.1-0.7,0.2-0.9c0.1-0.1,0.3-0.2,0.6-0.2h4.1V102.2z M33.9,93.7h-1.4c-0.3,0-0.4,0.2-0.4,0.5v1.1
			c0,0.3,0.1,0.5,0.4,0.5h1.4V93.7z M38,93.7h-1.7v2H38V93.7z M44.5,99c0.3,0,0.5,0.1,0.6,0.2c0.1,0.1,0.2,0.4,0.2,0.8
			c0,0.4-0.1,0.6-0.1,0.7c-0.2,0.2-0.4,0.3-0.7,0.3h-4.3c-0.3,0-0.5-0.1-0.6-0.3c-0.2-0.1-0.2-0.4-0.2-0.8s0.1-0.7,0.2-0.9
			c0.1-0.1,0.3-0.2,0.6-0.2h4.3V99z M44.5,102.2c0.3,0,0.5,0.1,0.6,0.2s0.2,0.4,0.2,0.8s-0.1,0.6-0.1,0.7c-0.2,0.2-0.4,0.3-0.7,0.3
			h-4.3c-0.3,0-0.5-0.1-0.6-0.2c-0.2-0.1-0.2-0.4-0.2-0.8c0-0.4,0.1-0.7,0.2-0.9c0.1-0.1,0.3-0.2,0.6-0.2h4.3V102.2z M42.3,95.3
			v-1.1c0-0.3-0.2-0.5-0.4-0.5h-1.6v2h1.6C42.2,95.7,42.3,95.6,42.3,95.3z"/>
		<path class="st2" d="M70.6,87.4c1,0,1.4,0.4,1.5,1.1c0,0.5-0.1,1.2-0.2,2.2c0,0.3,0.1,0.5,0.2,0.5h2.2c0.5,0,0.9,0.2,1.1,0.4
			c0.2,0.3,0.4,0.8,0.4,1.5c0,3.2-0.2,5.4-0.6,6.6c-0.5,1.5-1.4,2.2-2.8,2.2s-2.4-0.1-2.9-0.4c-0.2-0.1-0.3-0.2-0.4-0.4
			c-0.8,0.8-1.7,1.6-2.9,2.4c0.1,0.1,0.1,0.2,0.2,0.3h9.5c0.4,0,0.8,0.1,1,0.3c0.2,0.2,0.3,0.6,0.3,1.1c0,0.4-0.1,0.8-0.2,0.9
			c-0.2,0.3-0.6,0.5-1,0.5h-8.4c0.1,0.4,0.1,0.8,0.2,1.2c0,2.1-0.3,3.7-0.9,4.6c-0.7,1-1.6,1.5-2.8,1.5c-1.9-0.1-3.4-0.5-4.5-1.3
			c-0.7-0.3-1.1-0.9-1.1-1.7c0-0.4,0.1-0.7,0.3-1c0.2-0.3,0.5-0.5,1-0.5c0.2,0,0.5,0.2,0.8,0.3c1.1,0.7,2.2,1,3.3,1
			c0.6,0,0.9-1.1,0.9-3.4c0-0.2-0.1-0.5-0.2-0.8H53.7c-0.4,0-0.7-0.1-1-0.4c-0.2-0.2-0.3-0.5-0.3-1.1c0-0.5,0.1-0.8,0.3-1.1
			c0.2-0.2,0.5-0.3,1-0.3h9.2c-0.1-0.2-0.2-0.3-0.3-0.5c-0.4-0.5-0.6-0.9-0.6-1.2c0-0.4,0.2-0.7,0.5-1c0.3-0.2,0.7-0.3,1.1-0.3
			c0.5,0,0.8,0.2,1.1,0.5c1.6-0.9,2.5-1.7,2.5-2.2c0-0.2-0.1-0.3-0.3-0.3h-7.8c-0.6-0.1-1-0.4-1.1-1c-0.9,1.4-1.9,2.4-2.8,3.1
			c-0.5,0.5-1,0.7-1.6,0.7c-0.3,0-0.7-0.1-0.9-0.4c-0.2-0.2-0.4-0.5-0.4-0.9s0.1-0.7,0.4-1.1c1.6-1.6,2.8-3,3.5-4.3
			c0.9-1.5,1.5-3,1.9-4.6h-3.8c-0.8,0-1.1-0.5-1.2-1.4c0-0.9,0.4-1.4,1.2-1.4h16.3V87.4z M69.3,95.9c0.9,0.1,1.4,0.6,1.5,1.7
			c0,0.4-0.1,0.7-0.2,1c0.4,0.1,0.8,0.2,1.1,0.2c0.6-0.1,1-0.6,1-1.6c0-0.5,0-1.5,0-3.1c0-0.2-0.1-0.3-0.4-0.3H69
			c-0.5,0-0.8-0.3-0.8-0.8c0.2-1.1,0.4-1.8,0.4-2.2c0-0.2-0.1-0.4-0.3-0.4H61c-0.4,2.1-1.1,4-2,5.7h10.3V95.9z"/>
		<path class="st2" d="M92.1,93.9c0.4,0.3,0.5,0.6,0.5,0.9c0,0.2-0.1,0.5-0.2,0.7c-0.7,1.6-1.5,3.1-2.5,4.4v12.6
			c0,0.5-0.1,0.9-0.4,1.1c-0.2,0.2-0.5,0.4-1,0.4s-0.8-0.2-1-0.4c-0.3-0.2-0.4-0.6-0.4-1.1v-9c-0.2,0.2-0.4,0.4-0.5,0.6
			c-0.5,0.5-1,0.8-1.4,0.8s-0.8-0.2-1.1-0.5c-0.3-0.3-0.4-0.7-0.4-1.1c0-0.2,0.1-0.5,0.3-0.7c0.4-0.4,1-1.1,1.8-2.1
			c1.5-1.8,2.9-3.9,4.3-6.2c0.4-0.5,0.7-0.7,1-0.7C91.5,93.5,91.8,93.6,92.1,93.9z M91.4,87c0.3,0.3,0.5,0.6,0.5,0.9
			c0,0.2-0.1,0.5-0.2,0.7c-1.2,2.7-2.9,5.1-5.1,7.3c-0.4,0.4-0.8,0.6-1.2,0.6c-0.4,0-0.8-0.2-1.1-0.5c-0.3-0.4-0.4-0.7-0.4-1.1
			c0-0.2,0.1-0.5,0.3-0.7c0.3-0.3,0.8-0.9,1.6-1.8c1.3-1.5,2.6-3.3,3.8-5.2c0.3-0.4,0.6-0.6,0.9-0.6S91.1,86.8,91.4,87z M100.1,86.9
			c0.2,0.2,0.4,0.6,0.4,1s-0.2,0.8-0.4,1.3c-0.6,0.9-1.5,1.9-2.7,2.9c0.7,0.6,1.4,1.3,2.1,2c1.7-2,3.1-4,4.3-6
			c0.3-0.4,0.6-0.6,1-0.6s0.8,0.1,1.1,0.3c0.4,0.3,0.5,0.7,0.5,1.1s-0.2,0.8-0.4,1.3c-1.6,2.5-3.5,4.7-5.4,6.7
			c1.5-0.1,2.9-0.3,4.2-0.5c-0.2-0.4-0.3-0.8-0.4-1.1c-0.1-0.2-0.1-0.4-0.1-0.6c0-0.2,0-0.3,0.1-0.6c0.1-0.2,0.3-0.4,0.6-0.6
			c0.2-0.1,0.4-0.1,0.7-0.1c0.3,0.1,0.7,0.2,1,0.5c0.4,0.5,1,1.7,1.7,3.5c0.4,1.1,0.6,2,0.6,2.8c0,0.4-0.1,0.7-0.3,0.8
			c-0.2,0.3-0.6,0.5-1.1,0.5c-0.3,0-0.5-0.1-0.7-0.2c-0.1-0.1-0.2-0.3-0.4-0.5c-0.2-0.5-0.4-1-0.6-1.6c-1.3,0.3-2.5,0.5-3.8,0.6
			c-0.9,0.2-1.9,0.2-2.9,0.3c0,0.2-0.1,0.4-0.2,0.6c-0.2,0.4-0.4,0.7-0.5,1.1h7.2c0.7,0.1,1.1,0.2,1.4,0.5c0.3,0.3,0.5,0.7,0.5,1.1
			c0,1.1-0.4,2.2-1.2,3.4c-0.7,1.1-1.7,2.1-3,3.1c1.4,0.6,3,1.1,4.8,1.3c0.5,0.2,0.8,0.7,0.8,1.3c-0.1,0.5-0.2,0.8-0.4,1.1
			c-0.3,0.2-0.7,0.4-1.2,0.4c-0.7,0-1.4-0.2-2.2-0.4c-1.7-0.5-3.2-1.2-4.5-2c-1.5,0.7-3,1.3-4.6,1.8c-1.3,0.4-2.4,0.5-3.3,0.5
			c-0.4-0.1-0.7-0.2-0.9-0.5c-0.2-0.2-0.3-0.5-0.3-0.8c0-0.7,0.3-1.2,1-1.4c2-0.5,3.7-1.1,5.3-1.7c-0.8-0.8-1.7-1.8-2.5-2.9
			c-0.1-0.1-0.1-0.2-0.2-0.3c-0.2,0.2-0.5,0.5-0.7,0.7c-0.4,0.4-0.7,0.6-1.1,0.6s-0.8-0.2-1.1-0.5c-0.3-0.4-0.4-0.7-0.4-1.1
			c0-0.2,0.1-0.5,0.3-0.7c0.3-0.3,0.8-0.8,1.4-1.5c0.9-1,1.8-2.1,2.7-3.4c-0.8,0.1-1.6,0.1-2.4,0.1c-0.5,0-0.9-0.1-1.1-0.3
			c-0.3-0.2-0.4-0.7-0.4-1.2c0-0.4,0.1-0.8,0.2-1c0.2-0.3,0.7-0.5,1.3-0.5c1.1,0,2.1,0,3.1-0.1c0.3-0.3,0.6-0.6,0.9-0.9
			c-1.2-1.2-2.6-2.4-4.2-3.6c-0.4-0.4-0.6-0.8-0.6-1.2s0.1-0.7,0.4-0.9c0.2-0.2,0.5-0.4,0.8-0.4c0.5,0,0.9,0.1,1.3,0.3
			c0,0.1,0.1,0.1,0.1,0.1c1.3-1.2,2.3-2.4,3.1-3.6c0.2-0.2,0.5-0.4,0.8-0.4C99.5,86.5,99.8,86.7,100.1,86.9z M103.3,105.5
			c0.3-0.4,0.5-0.8,0.5-1c0-0.2-0.1-0.2-0.2-0.2h-7.2l0,0c0,0.1,0,0.1,0.1,0.1c0.2,0.2,0.3,0.4,0.4,0.5c0.8,1.2,1.9,2.2,3.2,3.2
			C101.5,107.3,102.6,106.4,103.3,105.5z"/>
		<path class="st2" d="M117.7,90.1v-2c0-0.5,0.1-0.8,0.3-1.1c0.2-0.2,0.5-0.4,1-0.4s0.9,0.1,1.1,0.3c0.2,0.2,0.3,0.6,0.3,1.1v2h3.7
			v-2c0-0.5,0.1-0.8,0.3-1.1c0.2-0.2,0.5-0.4,1-0.4s0.9,0.1,1.1,0.3s0.3,0.6,0.3,1.1v2h0.8c0.4,0,0.7,0.1,0.8,0.3
			c0.2,0.2,0.3,0.5,0.3,1.1c0,0.5-0.1,0.8-0.2,1c-0.2,0.3-0.5,0.4-1,0.4h-0.8V105h0.8c0.4,0,0.7,0.1,1,0.3c0.2,0.2,0.3,0.5,0.3,1.1
			c0,0.5-0.1,0.9-0.2,1.1c-0.2,0.3-0.6,0.5-1.1,0.5h-11.1c-0.4,0-0.7-0.1-0.9-0.3c-0.2-0.2-0.4-0.6-0.4-1.2c0-0.5,0.1-0.9,0.4-1.1
			c0.2-0.2,0.5-0.2,0.9-0.2h1.2V92.9h-1c-0.4,0-0.7-0.1-0.8-0.3c-0.2-0.2-0.3-0.5-0.3-1.1c0-0.5,0.1-0.9,0.3-1.1
			c0.2-0.2,0.4-0.2,0.8-0.2L117.7,90.1L117.7,90.1z M120.6,108.8c0.4,0.3,0.6,0.7,0.6,1.2c0,0.4-0.1,0.7-0.4,0.9
			c-0.3,0.3-0.6,0.6-0.9,0.9c-0.8,0.8-1.5,1.4-2.2,1.8c-0.2,0.2-0.4,0.2-0.6,0.3c-0.5,0-0.9-0.2-1.2-0.5c-0.2-0.3-0.3-0.7-0.3-1.1
			c0-0.5,0.2-0.8,0.6-1.1c1.1-0.8,2-1.5,2.6-2.2c0.3-0.3,0.5-0.5,0.5-0.5c0.1-0.1,0.2-0.1,0.2-0.1
			C120,108.5,120.3,108.6,120.6,108.8z M124.2,95.3v-2.4h-3.7v2.4H124.2z M124.2,100.2V98h-3.7v2.3L124.2,100.2L124.2,100.2z
			 M124.2,105.2v-2.3h-3.7v2.3H124.2z M136.9,88.1c1.3,0,1.9,0.7,1.9,2.1v20.9c0,1-0.2,1.7-0.5,2.1c-0.3,0.4-1,0.6-2,0.6
			c-1.1,0-1.8-0.1-2.2-0.2c-0.5-0.3-0.7-0.7-0.7-1.3c0-0.4,0.1-0.7,0.2-0.9c0.1-0.2,0.3-0.4,0.5-0.4h1.6c0.4,0,0.5-0.2,0.5-0.5V105
			h-4.1c-0.2,3.3-0.7,5.9-1.3,7.9c-0.3,0.8-0.9,1.2-1.6,1.2c-0.8-0.1-1.2-0.4-1.3-1c-0.1,0.1-0.2,0.2-0.2,0.3
			c-0.3,0.3-0.7,0.5-1,0.5c-0.2,0-0.4-0.1-0.6-0.2c-0.9-0.7-1.6-1.6-2.3-2.5c-0.2-0.2-0.3-0.4-0.4-0.6c-0.1-0.2-0.2-0.5-0.2-0.8
			c0-0.3,0.2-0.6,0.4-0.8c0.2-0.2,0.5-0.3,0.8-0.3c0.2,0.1,0.5,0.2,0.8,0.4c0.1,0.1,0.2,0.2,0.3,0.3c0.5,0.7,1.2,1.4,2,2
			c0.2,0.2,0.4,0.3,0.4,0.4c0.1,0.1,0.1,0.2,0.1,0.3c0-0.1,0-0.2,0.1-0.3c0.8-2.4,1.3-4.8,1.5-7.3c0.1-1.4,0.2-2.9,0.2-4.5v-9.6
			c0-1.4,0.6-2.1,1.9-2.1h5.2V88.1z M136.3,102v-4h-4v1.8c0,0.8,0,1.6,0,2.2H136.3z M136.3,95v-3.7c0-0.2-0.1-0.4-0.2-0.4h-3.4
			c-0.2,0-0.3,0.1-0.3,0.2V95H136.3z"/>
		<path class="st2" d="M163.8,96.3v-8.5c0-0.4,0.1-0.8,0.4-1c0.2-0.2,0.5-0.4,0.9-0.4s0.7,0.2,1,0.4s0.4,0.6,0.4,1v8.5h2.2
			c0.4,0,0.7,0.1,0.9,0.3c0.2,0.2,0.3,0.5,0.3,1.1c0,0.5-0.1,0.9-0.2,1.1c-0.2,0.3-0.6,0.5-1.1,0.5h-2.2v1.1c0.2,0,0.3-0.1,0.4-0.1
			c0.3,0,0.6,0.2,0.8,0.5c0.7,1.6,1.3,3.1,1.9,4.7c0.1,0.4,0.2,0.7,0.2,1c0,0.5-0.1,0.8-0.4,1c-0.2,0.3-0.5,0.4-0.9,0.4
			c-0.5,0-0.9-0.2-1.1-0.7c-0.4-1.1-0.7-2.2-1.1-3.2v8.6c0,0.4-0.1,0.7-0.2,0.9c-0.2,0.3-0.6,0.5-1.1,0.5c-0.4,0-0.8-0.2-1-0.5
			c-0.2-0.2-0.3-0.5-0.3-0.9v-7.8c-0.8,2.4-1.6,4.3-2.2,5.6c-0.2,0.2-0.5,0.4-0.8,0.4s-0.6-0.2-0.9-0.5c-0.2-0.2-0.4-0.5-0.4-0.8
			c0-0.5,0.1-0.8,0.2-1.1c0.7-1.5,1.4-3,2-4.6c0.7-1.6,1.3-3.1,1.7-4.4h-2.1c-0.4,0-0.7-0.1-0.9-0.3c-0.2-0.2-0.4-0.6-0.4-1.2
			c0-0.5,0.1-0.9,0.4-1.1c0.2-0.2,0.5-0.2,0.9-0.2h2.7V96.3z M161.9,88.3c0.3,0.5,0.7,1.8,1.1,3.7c0.2,0.8,0.3,1.5,0.3,2.1
			c0,0.4-0.1,0.7-0.3,0.8c-0.2,0.2-0.4,0.3-0.8,0.4c-0.3,0-0.5-0.1-0.7-0.2c-0.2-0.1-0.2-0.3-0.3-0.5c-0.3-1.7-0.7-3.1-1-4.4
			c-0.2-0.6-0.2-1.1-0.2-1.4c0-0.2,0.1-0.5,0.3-0.6c0.2-0.1,0.4-0.2,0.6-0.2C161.4,88,161.7,88.1,161.9,88.3z M169.9,87.9
			c0.3,0.2,0.4,0.5,0.4,1c-0.1,0.4-0.1,0.9-0.2,1.5c-0.4,1.8-0.9,3.2-1.3,4.2c-0.2,0.5-0.5,0.7-1.1,0.7c-0.3,0-0.5-0.1-0.8-0.4
			c-0.2-0.2-0.2-0.5-0.2-0.8c0-0.1,0-0.3,0.1-0.6c0.6-1.6,1-3.3,1.4-5.1c0.1-0.5,0.4-0.7,0.8-0.7S169.7,87.8,169.9,87.9z
			 M175.9,87.9v-0.5c0-0.4,0.1-0.7,0.4-1c0.2-0.2,0.5-0.3,1-0.3s0.8,0.1,1.1,0.3c0.3,0.3,0.4,0.6,0.4,1v0.5h4.7
			c0.4,0,0.7,0.1,0.8,0.3c0.2,0.2,0.2,0.5,0.2,0.9c0,0.4-0.1,0.7-0.2,0.9c-0.2,0.3-0.5,0.4-0.8,0.4h-4.7V92h4.3
			c0.4,0,0.7,0.1,0.8,0.3c0.2,0.2,0.2,0.5,0.2,0.9c0,0.4-0.1,0.6-0.2,0.8c-0.2,0.3-0.5,0.4-0.9,0.4h-4.3v1.5h5
			c0.4,0,0.7,0.1,0.8,0.3c0.1,0.2,0.2,0.5,0.2,0.9s-0.1,0.7-0.2,0.9c-0.2,0.3-0.5,0.4-0.9,0.4h-12.4c-0.4,0-0.6-0.1-0.8-0.3
			s-0.2-0.5-0.2-1c0-0.4,0.1-0.7,0.2-0.9c0.2-0.2,0.5-0.2,0.8-0.2h4.5v-1.5h-4c-0.4,0-0.7-0.1-0.8-0.3c-0.2-0.2-0.2-0.5-0.2-0.9
			c0-0.4,0.1-0.7,0.2-0.9c0.2-0.2,0.4-0.2,0.8-0.2h4v-1.5h-4.3c-0.4,0-0.7-0.1-0.8-0.3c-0.2-0.2-0.2-0.5-0.2-1
			c0-0.4,0.1-0.7,0.2-0.9c0.2-0.2,0.4-0.3,0.8-0.3h4.5V87.9z M181.5,99.6c1.3,0,2,0.8,2,2.5v9.3c0,0.9-0.2,1.5-0.6,1.8
			c-0.5,0.4-1.2,0.5-2.1,0.5c-1.5,0-2.6-0.2-3.4-0.7c-0.4-0.2-0.6-0.6-0.7-1.1c0-0.9,0.3-1.4,1-1.4c0.1,0,0.3,0.1,0.5,0.1
			c0.8,0.3,1.6,0.5,2.2,0.5c0.2-0.1,0.3-0.2,0.3-0.5v-1.7h-7.3v3.6c0,0.5-0.1,0.9-0.4,1.1c-0.2,0.2-0.5,0.3-1,0.3s-0.9-0.2-1.1-0.4
			c-0.2-0.3-0.3-0.6-0.3-1v-10.4c0-1.6,0.6-2.5,1.9-2.5H181.5z M180.8,103.4v-0.8c0-0.3-0.1-0.5-0.3-0.5h-6.4
			c-0.4,0-0.5,0.2-0.5,0.5v0.8H180.8z M180.8,106.8v-1.2h-7.3v1.2H180.8z"/>
		<path class="st2" d="M195.3,99.4c1.2,0,1.8,0.6,1.8,1.8v7.4c0.1,0.6,0.5,1.1,1.3,1.3c1.2,0.5,3.1,0.7,5.6,0.7c2.4,0,4.7,0,6.7-0.1
			c1.8,0,3.3-0.1,4.6-0.1c0.4,0,0.7,0.1,0.9,0.3c0.2,0.3,0.4,0.6,0.4,1.1c0,0.6-0.1,1.1-0.4,1.4c-0.2,0.2-0.6,0.4-1.1,0.4h-10.5
			c-4.1,0-6.8-0.6-8.1-1.8c-0.2-0.2-0.4-0.2-0.6-0.2c-0.1,0-0.2,0-0.3,0.2c-0.5,0.5-1.1,1-1.7,1.5c-0.3,0.3-0.6,0.4-0.8,0.4
			c-0.4,0-0.6-0.1-0.7-0.2c-0.4-0.3-0.7-0.8-0.9-1.3c-0.1-0.2-0.1-0.4-0.1-0.5c0-0.5,0.2-0.8,0.6-1c0.7-0.4,1.3-0.9,2.1-1.5
			c0.2-0.1,0.2-0.3,0.2-0.5v-6c0-0.2-0.1-0.2-0.2-0.2h-1.8c-0.5,0-0.8-0.2-1-0.4c-0.2-0.2-0.3-0.6-0.3-1.1s0.1-0.8,0.3-1
			c0.2-0.2,0.5-0.4,1-0.4h3V99.4z M193.6,92.7c1.3,0.9,2.5,1.8,3.5,2.7c0.3,0.5,0.4,0.8,0.4,1.1c0,0.3-0.1,0.6-0.3,0.9
			c-0.2,0.4-0.5,0.6-1,0.7c-0.3,0-0.5,0-0.7-0.2c-0.2-0.1-0.4-0.3-0.6-0.5c-0.8-0.8-1.8-1.5-2.8-2.3c-0.1-0.1-0.2-0.2-0.2-0.3
			c-0.3-0.3-0.4-0.6-0.4-1c0-0.4,0.1-0.8,0.4-1.1s0.6-0.5,1-0.5C193.1,92.4,193.4,92.5,193.6,92.7z M194.7,87
			c1.3,0.8,2.5,1.7,3.5,2.5c0.3,0.5,0.4,0.8,0.4,1.1c0,0.3-0.1,0.7-0.3,1c-0.2,0.4-0.5,0.6-1,0.7c-0.3,0-0.5,0-0.7-0.2
			c-0.2-0.1-0.4-0.3-0.6-0.5c-0.8-0.7-1.8-1.4-2.8-2.1c-0.1-0.1-0.2-0.2-0.3-0.3c-0.3-0.2-0.4-0.6-0.4-0.9c0-0.4,0.1-0.8,0.4-1.1
			c0.3-0.3,0.6-0.5,1-0.5C194.2,86.8,194.5,86.9,194.7,87z M202.6,98.7L202.6,98.7c0-0.6,0.1-0.9,0.3-1.2c0.2-0.2,0.5-0.3,1-0.3
			s0.9,0.1,1.1,0.3c0.2,0.2,0.3,0.6,0.3,1.1v0.1h3.5v-0.1c0-0.5,0.1-0.8,0.3-1.1c0.2-0.2,0.5-0.3,1-0.3s0.9,0.1,1.1,0.3
			c0.2,0.2,0.3,0.6,0.3,1.1v0.1h2.6c0.4,0,0.7,0.1,0.8,0.3c0.2,0.2,0.2,0.5,0.2,0.9s-0.1,0.6-0.2,0.8c-0.2,0.3-0.5,0.4-0.9,0.4h-2.6
			v1.8h3.1c0.4,0,0.7,0.1,0.9,0.3c0.2,0.2,0.2,0.5,0.2,1c0,0.4-0.1,0.7-0.2,0.9c-0.2,0.3-0.5,0.4-1,0.4h-3.3l0.1,0.1
			c1,0.7,2.2,1.5,3.6,2.2c0.1,0.1,0.2,0.2,0.3,0.2c0.1,0.2,0.2,0.4,0.2,0.7c0,0.5-0.2,0.8-0.6,1.1c-0.2,0.2-0.6,0.3-1,0.3
			s-0.8-0.1-1.1-0.4c-0.8-0.4-2-1.3-3.8-2.8c-0.2-0.2-0.2-0.4-0.2-0.6c0-0.3,0.1-0.6,0.3-0.8h-3.7c0.3,0.3,0.5,0.5,0.5,0.8
			c0,0.2-0.1,0.5-0.2,0.7c-1,1-2.5,1.9-4.3,2.7c-0.4,0.2-0.7,0.2-1,0.2c-0.4,0-0.8-0.2-1.1-0.5c-0.3-0.4-0.4-0.7-0.4-1.1
			c0-0.2,0.1-0.5,0.3-0.7c0.3-0.1,0.7-0.3,1.4-0.6c1-0.5,2-1,3-1.5h-4.1c-0.4,0-0.7-0.1-0.9-0.3c-0.2-0.2-0.3-0.5-0.3-1
			c0-0.4,0.1-0.8,0.3-1c0.2-0.2,0.5-0.3,0.9-0.3h3.1v-1.8h-2.3c-0.4,0-0.6-0.1-0.8-0.3c-0.2-0.2-0.3-0.5-0.3-0.9s0.1-0.7,0.3-0.9
			c0.2-0.2,0.4-0.2,0.8-0.2h2.5V98.7z M201.6,94.1c0,0.2,0.1,0.2,0.4,0.2h2.3c0.2,0,0.2-0.1,0.3-0.2c0,0,0-0.1,0-0.3
			c0-0.3,0.1-0.5,0.3-0.7c0.1-0.1,0.3-0.2,0.6-0.2s0.5,0.1,0.8,0.2c0.3,0.2,0.5,0.6,0.5,1.1c0,0.6-0.1,1.1-0.3,1.5
			c-0.2,0.5-0.7,0.8-1.3,0.8h-4c-1.4,0-2-0.5-2-1.5v-6.3c0-1.2,0.6-1.8,1.7-1.8h4.1c1,0,1.5,0.5,1.5,1.5v2.1c0,1.3-0.5,1.9-1.4,1.9
			h-3.6L201.6,94.1L201.6,94.1z M201.6,89.4v1.2h2.6c0.1,0,0.1,0,0.1-0.1v-1.1c0-0.1-0.1-0.1-0.1-0.1h-2.5
			C201.6,89.2,201.6,89.3,201.6,89.4z M208.8,101.1h-3.5v1.8h3.5V101.1z M209.9,94.1c0,0.2,0.1,0.2,0.4,0.2h2.6c0.2,0,0.2,0,0.3-0.1
			c0,0,0-0.1,0.1-0.2c0-0.3,0.1-0.5,0.3-0.6c0.1-0.1,0.3-0.2,0.5-0.2c0.3,0,0.6,0.1,0.8,0.2c0.3,0.2,0.5,0.6,0.5,1.1
			c0,0.6-0.1,1.1-0.3,1.5c-0.2,0.5-0.7,0.8-1.3,0.8h-4.3c-1.4,0-2-0.5-2-1.5V89c0-1.2,0.5-1.8,1.7-1.8h4.2c1,0,1.5,0.5,1.5,1.5v2.1
			c0,1.3-0.5,1.9-1.4,1.9h-3.6V94.1z M209.9,89.4v1.2h2.6c0.1,0,0.1,0,0.1-0.1v-1.1c0-0.1-0.1-0.1-0.1-0.1H210
			C210,89.2,209.9,89.3,209.9,89.4z"/>
		<path class="st2" d="M236.1,87c0.3,0.3,0.5,0.7,0.5,1.2v2.7h9.5c0.5,0,0.8,0.1,1.1,0.3c0.2,0.2,0.3,0.6,0.3,1.2
			c0,0.5-0.1,0.9-0.2,1.1c-0.3,0.4-0.6,0.5-1.1,0.5h-2.8c-0.1,0.2-0.1,0.5-0.2,0.7c-1.5,3.9-3.5,7.3-6,10.1
			c-0.1,0.1-0.2,0.2-0.3,0.3c2.7,2.6,5.9,4.4,9.6,5.4c0.6,0.3,0.9,0.8,0.9,1.4c-0.1,0.5-0.2,0.9-0.5,1.2c-0.3,0.3-0.7,0.4-1.3,0.4
			c-1,0-2.1-0.3-3.3-0.9c-3-1.5-5.5-3.2-7.7-5.4c-2.3,2.2-5.2,4.1-8.5,5.9c-0.6,0.3-1.1,0.5-1.7,0.6c-0.5,0-1-0.2-1.3-0.7
			c-0.2-0.4-0.3-0.8-0.3-1.2c0-0.5,0.2-0.9,0.5-1.2c3.9-2,6.9-3.9,9-5.9c-1.6-2-3.2-4.8-5-8.4c-0.5-1-0.8-1.8-1-2.5h-2.6
			c-0.5,0-0.8-0.1-1-0.4c-0.2-0.2-0.4-0.7-0.4-1.3c0-0.5,0.1-0.9,0.4-1.2c0.2-0.2,0.6-0.3,1-0.3h9.5v-2.7c0-0.4,0.1-0.8,0.4-1.2
			c0.2-0.2,0.6-0.4,1.2-0.4C235.5,86.6,235.9,86.8,236.1,87z M234.6,102.7c2.4-2.6,4.3-5.4,5.6-8.6h-10.6
			C230.9,97.3,232.6,100.2,234.6,102.7z"/>
		<path class="st2" d="M273.9,96.8c1.3,0,1.9,0.7,1.9,2.1v5.4c0,1.5-0.7,2.1-1.9,2.1h-6v1.4h9.6c0.4,0,0.7,0.1,0.9,0.3
			c0.2,0.2,0.3,0.5,0.3,1s-0.1,0.8-0.2,1c-0.2,0.3-0.5,0.5-1,0.5h-9.6v2.1c0,0.5-0.1,1-0.4,1.2c-0.2,0.3-0.6,0.4-1.1,0.4
			s-0.9-0.2-1.1-0.4c-0.2-0.2-0.4-0.7-0.4-1.2v-2.1H255c-0.4,0-0.7-0.1-0.9-0.3c-0.2-0.2-0.3-0.5-0.3-1.1c0-0.4,0.1-0.8,0.3-1
			c0.2-0.2,0.5-0.3,0.9-0.3h9.9v-1.4h-6.3c-1.3,0-1.9-0.7-1.9-2.1V99c0-1.4,0.6-2.1,1.9-2.1L273.9,96.8L273.9,96.8z M267.6,86.5
			c0.3,0.3,0.5,0.7,0.5,1.1v0.9h8.8c0.4,0,0.7,0.1,0.8,0.3c0.2,0.2,0.2,0.5,0.2,0.9c0,0.4-0.1,0.7-0.2,0.9c-0.2,0.3-0.5,0.4-0.9,0.4
			h-3.3l-0.8,1.9h4.8c0.4,0,0.7,0.1,0.9,0.3c0.2,0.2,0.3,0.5,0.3,1c0,0.4-0.1,0.7-0.2,0.9c-0.2,0.3-0.5,0.4-1,0.4h-22.4
			c-0.4,0-0.7-0.1-0.9-0.3c-0.2-0.2-0.3-0.5-0.3-1c0-0.4,0.1-0.8,0.3-1c0.2-0.2,0.5-0.3,0.9-0.3h4.5l-0.8-1.9h-3.1
			c-0.4,0-0.7-0.1-0.8-0.3c-0.2-0.2-0.2-0.5-0.2-1c0-0.4,0.1-0.7,0.2-0.9c0.2-0.2,0.4-0.2,0.8-0.2h9.2v-0.9c0-0.4,0.1-0.8,0.4-1.1
			c0.2-0.2,0.5-0.3,1.1-0.3S267.3,86.3,267.6,86.5z M273.1,100.7v-0.9c0-0.4-0.2-0.6-0.5-0.6h-12.5c-0.4,0-0.5,0.2-0.5,0.6v0.9
			H273.1z M273.1,103.5v-0.7h-13.5v0.7c0,0.4,0.2,0.6,0.5,0.6h12.5C272.9,104.1,273.1,103.9,273.1,103.5z M269.5,92.9l0.8-1.9h-8.2
			l0.8,1.9H269.5z"/>
	</g>
</g>
</svg>
