<?xml version="1.0" encoding="utf-8"?>
<!-- Generator: Adobe Illustrator 25.0.0, SVG Export Plug-In . SVG Version: 6.00 Build 0)  -->
<svg version="1.1" xmlns="http://www.w3.org/2000/svg" xmlns:xlink="http://www.w3.org/1999/xlink" x="0px" y="0px"
	 viewBox="0 0 300.7 132" style="enable-background:new 0 0 300.7 132;" xml:space="preserve">
<style type="text/css">
	.st0{fill:url(#XMLID_10_);}
	.st1{opacity:0.8;fill:url(#XMLID_13_);enable-background:new    ;}
	.st2{fill:#FFFFFF;}
	.st3{fill:url(#XMLID_14_);}
	.st4{fill:url(#XMLID_15_);}
	.st5{fill:url(#XMLID_16_);}
	.st6{opacity:0.8;fill:url(#XMLID_17_);enable-background:new    ;}
	.st7{fill:url(#XMLID_18_);}
	.st8{fill:url(#XMLID_19_);}
</style>
<g id="圖層_1">
	
		<linearGradient id="XMLID_10_" gradientUnits="userSpaceOnUse" x1="150.3008" y1="-0.1102" x2="150.3008" y2="65.8898" gradientTransform="matrix(1 0 0 -1 0 65.8898)">
		<stop  offset="2.688170e-02" style="stop-color:#B3B3B3"/>
		<stop  offset="0.1559" style="stop-color:#666666"/>
		<stop  offset="0.1845" style="stop-color:#6E6E6E"/>
		<stop  offset="0.2282" style="stop-color:#838383"/>
		<stop  offset="0.2813" style="stop-color:#A5A5A5"/>
		<stop  offset="0.2997" style="stop-color:#B3B3B3"/>
		<stop  offset="0.3326" style="stop-color:#B6B6B6"/>
		<stop  offset="0.36" style="stop-color:#C1C1C1"/>
		<stop  offset="0.3855" style="stop-color:#D2D2D2"/>
		<stop  offset="0.4098" style="stop-color:#EAEAEA"/>
		<stop  offset="0.4161" style="stop-color:#F2F2F2"/>
		<stop  offset="0.4491" style="stop-color:#DDDDDD"/>
		<stop  offset="0.534" style="stop-color:#ABABAB"/>
		<stop  offset="0.5985" style="stop-color:#8C8C8C"/>
		<stop  offset="0.6344" style="stop-color:#808080"/>
		<stop  offset="0.7957" style="stop-color:#4D4D4D"/>
		<stop  offset="0.8202" style="stop-color:#525252"/>
		<stop  offset="0.8475" style="stop-color:#5F5F5F"/>
		<stop  offset="0.8761" style="stop-color:#757575"/>
		<stop  offset="0.9057" style="stop-color:#949494"/>
		<stop  offset="0.9356" style="stop-color:#BCBCBC"/>
		<stop  offset="0.9624" style="stop-color:#E6E6E6"/>
	</linearGradient>
	<path id="XMLID_12_" class="st0" d="M290.4,66h-280C4.6,66,0,61.4,0,55.7V10.3C0,4.6,4.6,0,10.3,0h280c5.7,0,10.3,4.6,10.3,10.3
		v45.4C300.7,61.4,296.1,66,290.4,66z"/>
	
		<linearGradient id="XMLID_13_" gradientUnits="userSpaceOnUse" x1="2.9" y1="32.8898" x2="297.8" y2="32.8898" gradientTransform="matrix(1 0 0 -1 0 65.8898)">
		<stop  offset="2.688170e-02" style="stop-color:#B3B3B3"/>
		<stop  offset="0.1559" style="stop-color:#666666"/>
		<stop  offset="0.1845" style="stop-color:#6E6E6E"/>
		<stop  offset="0.2282" style="stop-color:#838383"/>
		<stop  offset="0.2813" style="stop-color:#A5A5A5"/>
		<stop  offset="0.2997" style="stop-color:#B3B3B3"/>
		<stop  offset="0.3326" style="stop-color:#B6B6B6"/>
		<stop  offset="0.36" style="stop-color:#C1C1C1"/>
		<stop  offset="0.3855" style="stop-color:#D2D2D2"/>
		<stop  offset="0.4098" style="stop-color:#EAEAEA"/>
		<stop  offset="0.4161" style="stop-color:#F2F2F2"/>
		<stop  offset="0.4491" style="stop-color:#DDDDDD"/>
		<stop  offset="0.534" style="stop-color:#ABABAB"/>
		<stop  offset="0.5985" style="stop-color:#8C8C8C"/>
		<stop  offset="0.6344" style="stop-color:#808080"/>
		<stop  offset="0.7957" style="stop-color:#4D4D4D"/>
		<stop  offset="0.8202" style="stop-color:#525252"/>
		<stop  offset="0.8475" style="stop-color:#5F5F5F"/>
		<stop  offset="0.8761" style="stop-color:#757575"/>
		<stop  offset="0.9057" style="stop-color:#949494"/>
		<stop  offset="0.9356" style="stop-color:#BCBCBC"/>
		<stop  offset="0.9624" style="stop-color:#E6E6E6"/>
	</linearGradient>
	<path id="XMLID_11_" class="st1" d="M287.5,63.3H13.2C7.5,63.3,2.9,58.7,2.9,53V13c0-5.7,4.6-10.3,10.3-10.3h274.3
		c5.7,0,10.3,4.6,10.3,10.3v40C297.8,58.7,293.2,63.3,287.5,63.3z"/>
	<g id="XMLID_9_">
		<path class="st2" d="M287.5,63.3c-66.8-0.1-211.2,0.6-276.3,0.1c-5.9-1-9.3-6.6-8.7-12.4V40.2V18.5c0.1-3.2-0.5-8,1.4-10.8
			c1.8-3.3,5.6-5.5,9.4-5.5C80,2.5,224.4,2.1,289.6,2.8c5.7,1.1,9.1,6.6,8.4,12.2v10.8v21.7v5.4C298,58.5,293.1,63.4,287.5,63.3
			L287.5,63.3z M287.5,63.3c5.5,0.1,10.4-4.8,10.3-10.4v-5.4V25.8V15c0-1.8,0.1-3.6-0.6-5.3c-1.4-4.3-5.9-7.2-10.4-6.9
			c-63.1,0.1-209,0.3-273.6,0.4c-3.4,0-6.8,1.9-8.5,4.9c-1.9,2.7-1.2,7.3-1.3,10.4v21.7V51c-0.3,3.6,0.6,7.2,3.4,9.5
			c2,1.8,4.6,2.6,7.3,2.5h2.7C78.2,63.1,224.4,63.2,287.5,63.3L287.5,63.3z"/>
	</g>
	
		<linearGradient id="XMLID_14_" gradientUnits="userSpaceOnUse" x1="281.5351" y1="89.9797" x2="3.1367" y2="-31.1754" gradientTransform="matrix(1 0 0 -1 0 65.8898)">
		<stop  offset="0" style="stop-color:#FF104F"/>
		<stop  offset="1" style="stop-color:#CE002C"/>
	</linearGradient>
	<path id="XMLID_8_" class="st3" d="M286.2,62H14.5C8.8,62,4.2,57.4,4.2,51.7V14.3C4.2,8.6,8.8,4,14.5,4h271.7
		c5.7,0,10.3,4.6,10.3,10.3v37.4C296.5,57.4,291.9,62,286.2,62z"/>
	
		<linearGradient id="XMLID_15_" gradientUnits="userSpaceOnUse" x1="133.0346" y1="120.1848" x2="159.0879" y2="-11.162" gradientTransform="matrix(1 0 0 -1 0 65.8898)">
		<stop  offset="0.1396" style="stop-color:#FFFFFF;stop-opacity:0.9624"/>
		<stop  offset="0.8449" style="stop-color:#FFFFFF;stop-opacity:0"/>
	</linearGradient>
	<path id="XMLID_7_" class="st4" d="M284.5,59.5H16.2c-5.1,0-9.3-4.2-9.3-9.3V15.8c0-5.1,4.2-9.3,9.3-9.3h268.3
		c5.1,0,9.3,4.2,9.3,9.3v34.4C293.9,55.3,289.7,59.5,284.5,59.5z"/>
	<g>
		<path class="st2" d="M24.2,23.5c0.5,0,0.8,0.1,1,0.3c0.2,0.2,0.3,0.6,0.3,1.1s-0.1,0.8-0.2,1c-0.2,0.3-0.6,0.5-1,0.5h-5.7
			c-0.4,0-0.7-0.1-1-0.3c-0.2-0.2-0.3-0.5-0.3-1.1c0-0.5,0.1-0.8,0.3-1.1c0.2-0.2,0.5-0.3,1-0.3h5.6V23.5z M23.5,36.3
			c1,0,1.5,0.6,1.5,1.7v5.4c0,0.1,0,0.2,0,0.3l0,0c0.9-1.6,1.7-3.1,2.3-4.6c-0.5-1-1.1-2.3-1.6-3.8c-0.2-0.7-0.3-1.1-0.3-1.5
			c0-0.5,0.3-0.8,1-0.9c0.5,0,0.8,0.2,1,0.5c0.1,0.3,0.2,0.8,0.5,1.4c0.1,0.4,0.2,0.8,0.4,1.1c0.4-1.7,0.6-3.1,0.6-4.3
			c0-0.3-0.1-0.5-0.2-0.5h-2.2c-0.7-0.1-1-0.6-1-1.3c0-0.2,0.1-0.5,0.2-1c1.4-3.4,2.2-5.3,2.2-5.6c0-0.2-0.1-0.3-0.2-0.3h-1.4
			c-0.4-0.1-0.6-0.2-0.8-0.4c-0.2-0.2-0.3-0.6-0.3-1s0.1-0.7,0.3-0.9c0.2-0.2,0.5-0.4,0.8-0.4h3.1c0.9,0,1.4,0.5,1.4,1.3
			c0,1-0.8,3.3-2.5,6.8c0,0.3,0.1,0.5,0.3,0.5c0.5,0,1,0,1.4,0s0.7,0.1,0.9,0.3c0.3,0.2,0.4,0.7,0.4,1.4c0,1.8-0.3,4-0.9,6.6
			c-0.2,0.7-0.4,1.3-0.5,1.9c1.1,1.4,2.6,2.3,4.3,2.7c1.2,0.3,2.9,0.4,5.1,0.4c0.3,0,0.6,0,1-0.1c0.4,0,0.6,0,0.8,0
			c0.3,0,0.6,0.1,0.8,0.3c0.3,0.3,0.4,0.6,0.4,1.1s-0.1,0.8-0.3,1.1S41.1,45,40.1,45c-3.1,0-5.3-0.2-6.4-0.4c-2-0.5-3.6-1.5-4.8-2.9
			c-0.5,1.3-1.2,2.4-1.8,3.6c-0.3,0.3-0.6,0.5-1,0.5s-0.8-0.2-1-0.4s-0.4-0.5-0.4-0.8v-0.1c-0.2,0.4-0.7,0.7-1.3,0.7h-4.3
			c-1,0-1.5-0.6-1.5-1.7V38c0-1.1,0.5-1.7,1.5-1.7H23.5z M23.6,28.1c0.4,0,0.7,0.1,0.8,0.2c0.2,0.2,0.2,0.5,0.2,0.9
			s-0.1,0.6-0.2,0.8c-0.2,0.3-0.5,0.4-0.9,0.4h-4.4c-0.4,0-0.7-0.1-0.8-0.3c-0.2-0.2-0.2-0.5-0.2-0.9s0.1-0.7,0.2-0.9
			c0.2-0.2,0.4-0.2,0.8-0.2H23.6z M23.6,32.2c0.4,0,0.7,0.1,0.8,0.3c0.2,0.2,0.2,0.5,0.2,0.9s-0.1,0.6-0.2,0.8
			c-0.2,0.2-0.5,0.4-0.9,0.4h-4.4c-0.4,0-0.7-0.1-0.8-0.3c-0.2-0.2-0.2-0.5-0.2-0.9s0.1-0.7,0.2-0.9c0.2-0.2,0.4-0.3,0.8-0.3H23.6z
			 M23.6,19.4c0.3,0,0.6,0.1,0.8,0.3c0.2,0.2,0.3,0.5,0.3,1s-0.1,0.8-0.2,0.9C24.3,21.9,24,22,23.6,22h-4.3c-0.3,0-0.6-0.1-0.8-0.3
			c-0.2-0.2-0.3-0.5-0.3-1s0.1-0.8,0.3-1.1c0.2-0.2,0.4-0.2,0.8-0.2H23.6z M22.7,42.2v-3.1c0-0.2-0.1-0.2-0.2-0.2h-2.1
			c-0.2,0-0.2,0.1-0.2,0.2v3.1c0,0.2,0.1,0.2,0.2,0.2h2.1C22.6,42.5,22.7,42.4,22.7,42.2z M41.7,19.5c0.2,0.3,0.4,0.7,0.4,1.1
			s-0.2,0.7-0.4,0.9c-0.8,0.3-1.8,0.6-3,0.9v5.9h2c0.4,0,0.7,0.1,0.9,0.3c0.2,0.2,0.3,0.5,0.3,1s-0.1,0.8-0.2,0.9
			c-0.2,0.3-0.5,0.5-1,0.5h-2v6.1h2.5c0.6,0,1,0.5,1,1.4c0,1-0.3,1.4-1,1.4h-6.8c-1.4,0-2.2-0.8-2.2-2.4v-9.6c0-0.8,0.4-1.2,1.2-1.2
			s1.2,0.4,1.2,1.2v8.6c0,0.3,0.1,0.5,0.4,0.5h1.2V23c-1.3,0.2-2.3,0.4-3.1,0.4s-1.3-0.5-1.3-1.3c0-0.7,0.2-1.1,0.7-1.3
			c3.1-0.4,5.6-0.9,7.5-1.5c0.3-0.1,0.6-0.2,0.9-0.2C41.2,19.2,41.5,19.3,41.7,19.5z"/>
		<path class="st2" d="M52,19.3c0.3,0.2,0.5,0.6,0.5,1.1c-0.1,0.8-0.3,1.6-0.5,2.5c-0.1,0.3-0.2,0.5-0.2,0.8h5.6v-3.9
			c0-0.5,0.1-0.9,0.3-1.2c0.2-0.2,0.5-0.4,1.1-0.4s1,0.1,1.1,0.4c0.2,0.2,0.4,0.6,0.4,1.2v3.9H69c0.5,0,0.8,0.1,1,0.3
			c0.2,0.2,0.3,0.6,0.3,1.1s-0.1,0.8-0.2,1c-0.2,0.4-0.5,0.5-1.1,0.5h-8.7v6h8.3c0.4,0,0.8,0.1,1,0.3s0.3,0.6,0.3,1.1
			s-0.1,0.8-0.2,1c-0.2,0.4-0.6,0.5-1,0.5h-8.3v6h9.4c0.4,0,0.8,0.1,1,0.3s0.3,0.6,0.3,1.1s-0.1,0.8-0.2,1c-0.2,0.3-0.6,0.5-1,0.5
			H47.5c-0.4,0-0.7-0.1-1-0.3c-0.2-0.2-0.3-0.6-0.3-1.2c0-0.5,0.1-0.8,0.3-1.1c0.2-0.2,0.5-0.3,1-0.3h9.8v-6h-8.2
			c-0.4,0-0.8-0.1-1-0.4c-0.2-0.2-0.3-0.6-0.3-1.2c0-0.5,0.1-0.8,0.3-1.1c0.2-0.2,0.5-0.3,1-0.3h8.2v-6h-6.6
			c-0.5,1.5-1.1,2.7-1.6,3.7c-0.2,0.5-0.7,0.8-1.3,0.8c-0.4,0-0.7-0.2-1.1-0.5c-0.2-0.3-0.3-0.6-0.3-1c0-0.2,0.1-0.5,0.2-1
			c1.4-2.8,2.5-5.7,3.3-8.8c0.2-0.5,0.5-0.8,1.1-0.8C51.4,19.1,51.8,19.2,52,19.3z"/>
		<path class="st2" d="M77.2,44.5c-0.1,0.3-0.2,0.6-0.3,0.8c-0.2,0.3-0.6,0.5-1.1,0.5c-0.4,0-0.8-0.1-1-0.3s-0.4-0.5-0.4-1
			c0-0.3,0.1-1,0.2-2.1c0.7-3.9,1.1-7.7,1.3-11.1c0.1-2.2,0.1-4.2,0.1-6.2v-3.3c0-1.4,0.7-2.1,2.1-2.1h7.6v-0.1
			c0-0.5,0.1-0.9,0.5-1.3c0.2-0.2,0.6-0.4,1.2-0.4c0.5,0,1,0.1,1.2,0.4c0.3,0.3,0.5,0.7,0.5,1.3v0.1h9c0.7,0,1.1,0.4,1.1,1.2
			c0,0.9-0.4,1.3-1.1,1.3h-6.5v1.2h4.9c1,0,1.5,0.5,1.5,1.3v2.6c0,1-0.5,1.4-1.4,1.4h-18c0,0.4,0,0.8,0,1.1h19.1
			c0.5,0,0.8,0.1,1.1,0.3c0.3,0.2,0.4,0.5,0.4,0.9s-0.1,0.7-0.2,1c-0.4,0.9-0.8,1.6-1.3,2.2c-0.3,0.2-0.6,0.4-0.8,0.4l0,0
			c0.4,0.6,0.6,1.1,0.6,1.5c0,0.3-0.1,0.6-0.2,0.7c-0.2,0.2-0.5,0.3-0.8,0.3c-0.2,0-0.4,0-0.5-0.1s-0.2-0.2-0.3-0.3
			c-0.4-0.7-1-1.7-1.8-3.1c-0.1-0.1-0.1-0.2-0.1-0.4s0-0.2,0.1-0.4s0.2-0.3,0.5-0.4c0.2-0.1,0.3-0.1,0.5-0.1
			c0.3,0.1,0.5,0.2,0.7,0.4c0.1,0.1,0.2,0.2,0.4,0.4c0.3-0.5,0.4-0.8,0.5-0.9c0-0.1-0.1-0.2-0.2-0.2h-6.7c0.2,0.2,0.5,0.4,0.7,0.6
			c0.1,0.3,0.2,0.5,0.2,0.7s-0.1,0.4-0.2,0.6c-0.2,0.2-0.4,0.4-0.6,0.5c-0.2,0-0.3,0-0.4-0.1s-0.2-0.1-0.3-0.2
			c-0.4-0.4-0.9-0.8-1.4-1.3c-0.1-0.1-0.1-0.1-0.1-0.2c-0.2-0.2-0.2-0.4-0.2-0.6h-0.9v2c0,0.5,0.2,0.7,0.7,0.7H90
			c0.4,0,0.7,0,0.8-0.1c0.2-0.1,0.4-0.4,0.5-0.9c0-0.4,0.2-0.6,0.7-0.7c0.4,0,0.7,0.1,0.9,0.2c0.3,0.2,0.5,0.5,0.5,0.9
			c-0.1,0.7-0.3,1.3-0.7,1.8c-0.4,0.5-1,0.8-1.9,0.8h-5.2c-0.1,0.1-0.1,0.2-0.2,0.3c-0.2,0.3-0.3,0.5-0.5,0.7h10.2
			c0.5,0,0.8,0.1,1.1,0.3c0.3,0.3,0.5,0.6,0.5,0.9c0,0.5-0.3,1-0.8,1.5c-0.8,0.7-1.9,1.3-3.2,2c1.8,0.3,3.7,0.5,5.7,0.5
			c0.6,0,1,0.5,1,1.3c0,0.4-0.1,0.6-0.3,0.9c-0.2,0.2-0.6,0.4-1.1,0.4c-1.9,0-3.5-0.2-4.9-0.4c-1.4-0.3-2.8-0.7-4-1.1
			c-3.7,1.2-6.7,1.8-9.3,1.8c-0.4,0-0.7-0.1-0.8-0.4c-0.2-0.3-0.3-0.5-0.3-0.8c0-0.7,0.3-1.1,0.8-1.2c1.9-0.2,4-0.5,6.3-0.9
			c-0.2-0.1-0.4-0.2-0.5-0.3c-1-0.6-1.8-1.3-2.4-1.9c-0.6,0.6-1.3,1.2-2,1.7c-0.4,0.3-0.7,0.4-1.1,0.4s-0.7-0.2-0.9-0.5
			c-0.2-0.3-0.4-0.6-0.4-1c0-0.2,0.1-0.4,0.3-0.6c0.3-0.2,0.7-0.6,1.4-1.3c1.1-1.1,2.2-2.3,3.3-3.6c0.1-0.1,0.1-0.1,0.2-0.2
			c-0.1-0.3-0.1-0.7-0.1-1.1v-2.4h-5.1C78.3,36.8,77.9,41,77.2,44.5z M82.6,26.8v-1.5h-3.9c0,0.5,0,1.1,0,1.5H82.6z M82.6,22.1h-3.4
			c-0.4,0-0.5,0.2-0.5,0.5v0.7h3.9V22.1z M81.8,32.6c0.3,0.2,0.5,0.5,0.5,0.9c0,0.2-0.1,0.4-0.2,0.7c-0.4,1-0.8,1.8-1.2,2.6
			c-0.2,0.3-0.5,0.5-0.7,0.5c-0.4,0-0.7-0.1-0.9-0.3c-0.3-0.3-0.5-0.6-0.5-1c0-0.1,0-0.3,0.1-0.5c0.5-1,1-1.9,1.3-2.6
			c0.1-0.2,0.2-0.3,0.3-0.5c0.1-0.1,0.3-0.2,0.5-0.2C81.2,32.3,81.5,32.4,81.8,32.6z M88.9,22.1h-3.6v1.2h3.6V22.1z M85.3,26.8h3.6
			v-1.5h-3.6V26.8z M89.1,41.5c1.5-0.5,2.7-1,3.5-1.5c0-0.2-0.1-0.4-0.2-0.4h-6.9C86.1,40.2,87.3,40.8,89.1,41.5z M91.6,26.8h3.3
			c0.2,0,0.4-0.1,0.4-0.2v-0.9c0-0.2-0.1-0.4-0.4-0.4h-3.3V26.8z"/>
		<path class="st2" d="M110.4,18.2c0.2,0.2,0.3,0.6,0.4,1c0,0.3,0,0.5,0,0.7h3.3c0.7,0,1.3,0.2,1.7,0.5c0.4,0.3,0.5,0.9,0.5,2
			c0,1.6,0,2.9-0.1,3.8c-0.1,1.3-0.5,2.1-1.1,2.5c-0.4,0.3-1,0.5-1.9,0.5c-1.6,0-2.7-0.2-3.3-0.5c-0.4-0.3-0.5-0.8-0.5-1.4
			c0-0.3,0.2-0.5,0.4-0.8c0.2-0.2,0.5-0.3,0.8-0.3c0.1,0,0.3,0,0.5,0.1c0.5,0.1,1.1,0.2,1.6,0.2s0.8-0.2,0.9-0.6
			c0.1-0.5,0.1-1.4,0.1-2.7c0-0.2-0.1-0.4-0.2-0.4h-2.9c-0.1,0.7-0.3,1.4-0.6,2c-0.6,1.7-1.6,3.1-3.1,4.2c-0.5,0.5-1.1,0.8-1.9,0.8
			c-0.5,0-0.8-0.2-1-0.5c-0.2-0.2-0.3-0.5-0.3-0.8s0.1-0.6,0.2-0.8c1.9-1.1,3.1-2.3,3.6-3.6c0.2-0.3,0.3-0.7,0.4-1.2h-2.6
			c-0.7,0-1.1-0.4-1.1-1.2c0-1.1,0.4-1.7,1.1-1.7h2.9v-0.6c0-0.4,0.1-0.8,0.3-1.1c0.2-0.2,0.6-0.3,1-0.4
			C109.9,17.9,110.2,18,110.4,18.2z M123.3,29.8c1.4,0,2.1,0.8,2.1,2.4v7.3c0,1.6-0.7,2.4-2.1,2.4h-1.1c1.3,0.4,2.5,0.7,3.8,0.8
			c0.6,0.1,1.1,0.2,1.4,0.2c0.6,0.2,0.9,0.5,0.9,0.9c0,0.6-0.2,1.1-0.6,1.4c-0.4,0.2-0.8,0.4-1.3,0.4c-0.7-0.1-1.4-0.2-2.2-0.3
			c-1.4-0.3-2.7-0.8-4-1.5c-0.4-0.2-0.8-0.5-1.2-0.7c-0.1-0.1-0.1-0.2-0.1-0.3c0-0.3,0.1-0.6,0.4-0.9h-6.4c0.1,0.2,0.2,0.5,0.2,0.8
			s-0.1,0.6-0.3,0.9c-0.8,0.5-1.9,1-3.2,1.5c-1.9,0.6-3.3,1-4.3,1c-0.9-0.1-1.4-0.5-1.4-1.4c0-0.7,0.3-1.2,0.8-1.3
			c2.4-0.5,4.4-1,5.8-1.5h-2c-1.4,0-2.1-0.8-2.1-2.4v-7.3c0-1.6,0.7-2.4,2.1-2.4C108.5,29.8,123.3,29.8,123.3,29.8z M122.5,33.3
			v-0.8c0-0.4-0.2-0.6-0.5-0.6h-12.4c-0.4,0-0.5,0.2-0.5,0.6v0.8H122.5z M122.5,36.6v-1.3H109v1.3H122.5z M122.5,39.2v-0.7H109v0.7
			c0,0.4,0.2,0.6,0.5,0.6H122C122.3,39.7,122.5,39.5,122.5,39.2z M125,19.2c1.2,0,1.8,0.7,1.8,2V27c0,1.4-0.6,2-1.8,2h-5.5
			c-1.2,0-1.8-0.7-1.8-2v-5.8c0-1.3,0.6-2,1.8-2H125z M124.2,25.9v-3.7c0-0.3-0.2-0.5-0.4-0.5h-3.2c-0.3,0-0.4,0.2-0.4,0.5v3.7
			c0,0.3,0.1,0.5,0.4,0.5h3.2C124.1,26.4,124.2,26.2,124.2,25.9z"/>
		<path class="st2" d="M134.7,30.8c0.2,0.2,0.4,0.5,0.4,0.9v2.7c0,1.1-0.1,2.1-0.1,3.1c-0.2,2.5-0.5,4.4-1,5.6
			c-0.2,0.3-0.6,0.4-1.1,0.5c-0.4,0-0.7-0.1-0.8-0.3c-0.2-0.2-0.2-0.5-0.2-0.9c0-0.1,0-0.4,0.1-0.7c0.4-2.1,0.7-4.2,0.7-6.4v-3.7
			c0-0.3,0.1-0.5,0.3-0.7c0.2-0.1,0.5-0.2,0.8-0.2C134.2,30.7,134.5,30.7,134.7,30.8z M140.8,25.7c0.5,0,0.8,0.1,1.1,0.4
			c0.2,0.2,0.3,0.6,0.3,1.2c0,0.5-0.1,0.8-0.2,1.1c-0.2,0.3-0.6,0.5-1.1,0.5h-2.2v15.5c0,0.5-0.1,0.8-0.4,1c-0.2,0.2-0.6,0.4-1,0.4
			s-0.8-0.2-1-0.4s-0.3-0.5-0.3-1V28.8h-2.6c-0.5,0-0.8-0.1-1-0.4c-0.2-0.2-0.4-0.6-0.4-1.2c0-0.5,0.1-0.9,0.4-1.2
			c0.2-0.2,0.6-0.4,1-0.4h7.4V25.7z M140.4,19.6c0.4,0,0.7,0.1,0.9,0.3c0.2,0.2,0.4,0.5,0.4,1.1c0,0.5-0.1,0.9-0.2,1.1
			c-0.2,0.3-0.6,0.5-1.1,0.5h-6.1c-0.4,0-0.7-0.1-0.9-0.4c-0.2-0.2-0.4-0.6-0.4-1.2c0-0.5,0.1-0.9,0.4-1.1c0.2-0.2,0.5-0.3,0.9-0.3
			H140.4z M141.5,31c0.2,0.2,0.3,0.5,0.3,1v9.3c0,0.4-0.1,0.7-0.3,0.8c-0.2,0.2-0.5,0.3-0.9,0.3s-0.7-0.1-0.8-0.3
			c-0.2-0.1-0.2-0.4-0.2-0.8V32c0-0.4,0.1-0.7,0.2-0.9c0.1-0.2,0.4-0.3,0.8-0.3C141.1,30.7,141.4,30.8,141.5,31z M145.8,42.7l-0.5-2
			h-0.8c-1,0-1.5-0.5-1.5-1.7v-2.7c0-1.1,0.5-1.7,1.5-1.7h9.9c1,0,1.5,0.6,1.5,1.7V39c0,1.1-0.5,1.7-1.5,1.7h-0.7l-0.5,2h2.6
			c0.4,0,0.7,0.1,0.8,0.3c0.1,0.1,0.2,0.4,0.2,0.9c0,0.4-0.1,0.6-0.2,0.8c-0.2,0.2-0.5,0.4-0.9,0.4h-13.4c-0.4,0-0.6-0.1-0.8-0.3
			s-0.2-0.5-0.2-0.9s0.1-0.7,0.2-0.9c0.2-0.2,0.5-0.2,0.8-0.2L145.8,42.7L145.8,42.7z M155.8,31.2c0.4,0,0.7,0.1,0.8,0.3
			c0.2,0.2,0.2,0.5,0.2,0.9s-0.1,0.6-0.2,0.8c-0.2,0.3-0.5,0.4-0.8,0.4h-12.7c-0.4,0-0.7-0.1-0.8-0.3c-0.2-0.2-0.2-0.5-0.2-0.9
			s0.1-0.7,0.2-0.9c0.2-0.2,0.4-0.2,0.8-0.2h12.7V31.2z M146.6,20.1v-0.6c0-0.4,0.1-0.7,0.2-0.9c0.2-0.2,0.4-0.3,0.8-0.3
			c0.4,0,0.7,0.1,0.8,0.3c0.2,0.2,0.3,0.5,0.3,0.9v0.6h1.4v-0.6c0-0.4,0.1-0.7,0.2-0.9s0.4-0.3,0.8-0.3c0.4,0,0.7,0.1,0.8,0.3
			c0.2,0.2,0.3,0.5,0.3,0.9v0.6h2c1.2,0,1.8,0.7,1.8,2v6.1c0,1.4-0.6,2-1.8,2h-9.8c-1.2,0-1.8-0.7-1.8-2v-6.1c0-1.3,0.6-2,1.8-2
			H146.6z M146.6,24.2v-1.7h-1.1c-0.4,0-0.5,0.2-0.5,0.6v1.1H146.6z M146.6,26.3H145v1.1c0,0.4,0.2,0.6,0.5,0.6h1.1V26.3z
			 M153.4,38.1v-0.8c0-0.2-0.1-0.3-0.3-0.3h-7.2c-0.2,0-0.3,0.1-0.3,0.3v0.8c0,0.2,0.1,0.3,0.3,0.3h7.2
			C153.3,38.4,153.4,38.3,153.4,38.1z M151.5,40.7h-3.8l0.5,2h2.8L151.5,40.7z M148.7,24.2h1.4v-1.7h-1.4V24.2z M150.1,26.3h-1.4V28
			h1.4V26.3z M152.3,24.2h1.5v-1.1c0-0.4-0.2-0.6-0.5-0.6h-1V24.2z M153.7,27.3v-1.1h-1.5v1.7h1C153.5,27.9,153.7,27.8,153.7,27.3z"
			/>
		<path class="st2" d="M173.4,26.4c1.8,1.3,3,2.3,3.6,3c0.4,0.3,0.6,0.7,0.7,1.2c0,0.5-0.1,0.8-0.3,1.1c-0.2,0.4-0.6,0.6-1.1,0.6
			c-0.3,0-0.6-0.1-0.8-0.3c-1.1-1.1-2.4-2.1-3.7-3.1c-0.5-0.4-0.8-0.8-0.8-1.2c0-0.5,0.1-1,0.4-1.3c0.2-0.2,0.6-0.4,1.1-0.4
			C172.6,26,173,26.2,173.4,26.4z M176.8,34c0.4,0.2,0.6,0.6,0.6,1.4c-0.1,0.4-0.2,1-0.5,1.7c-0.4,1.2-1,2.8-1.9,5.1
			c-0.4,0.8-0.7,1.5-1,2.3c-0.3,0.7-0.8,1.1-1.5,1.2c-0.4-0.1-0.8-0.3-1-0.5s-0.4-0.6-0.4-1.1c0-0.4,1-2.8,2.9-7.3
			c0.3-0.7,0.5-1.3,0.8-1.8c0.2-0.7,0.6-1.1,1.1-1.1C176.1,33.8,176.4,33.9,176.8,34z M174.5,19.1c1.8,1.4,3,2.4,3.5,3.1
			c0.4,0.3,0.6,0.7,0.7,1.2c0,0.5-0.1,0.8-0.3,1.2c-0.2,0.4-0.6,0.6-1.1,0.6c-0.3,0-0.6-0.1-0.8-0.4c-1.1-1.2-2.4-2.2-3.7-3.3
			c-0.5-0.4-0.8-0.8-0.8-1.2c0-0.6,0.1-1,0.4-1.3c0.2-0.2,0.6-0.4,1.1-0.4C173.7,18.7,174,18.9,174.5,19.1z M185.6,27.3V23
			c-1.6,0.2-3.4,0.3-5.2,0.4c-0.9-0.1-1.3-0.7-1.3-1.8c0.1-0.7,0.4-1.1,1.2-1.2c4.5-0.2,8.7-0.8,12.4-1.9c0.3-0.1,0.5-0.1,0.7-0.1
			c0.4,0,0.7,0.2,0.9,0.5s0.4,0.7,0.4,1.1c0,0.7-0.3,1.1-1,1.4c-1,0.4-2.8,0.8-5.4,1.2v4.7h6.3c0.4,0,0.8,0.1,1,0.3
			c0.2,0.2,0.3,0.6,0.3,1.1s-0.1,0.8-0.2,1.1c-0.2,0.3-0.6,0.5-1,0.5h-6.3v3.9h4.5c1.3,0,1.9,0.7,1.9,2.1v6.9c0,1.4-0.7,2.1-1.9,2.1
			h-11.5c-1.3,0-1.9-0.7-1.9-2.1v-6.9c0-1.4,0.6-2.1,1.9-2.1h4.3v-3.9h-6c-0.4,0-0.8-0.1-1-0.4c-0.2-0.2-0.3-0.6-0.3-1.2
			c0-0.5,0.1-0.8,0.3-1.1c0.2-0.2,0.5-0.3,1-0.3C179.7,27.3,185.6,27.3,185.6,27.3z M191.9,41.8v-4c0-0.5-0.2-0.7-0.6-0.7H183
			c-0.4,0-0.6,0.2-0.6,0.7v4c0,0.5,0.2,0.7,0.6,0.7h8.3C191.7,42.5,191.9,42.2,191.9,41.8z"/>
		<path class="st2" d="M213.7,42c0.1,0.1,0.2,0.2,0.2,0.3c1-2.1,1.7-4.5,2.2-7.2s0.7-5.6,0.7-8.9h-1.4c-0.4,0-0.8-0.1-1-0.4
			s-0.3-0.6-0.3-1.2c0-0.4,0.1-0.8,0.3-1.1c0.2-0.2,0.5-0.4,1-0.4h1.4v-3.8c0-0.4,0.1-0.8,0.4-1c0.2-0.2,0.5-0.2,0.9-0.3
			c0.5,0,0.9,0.2,1.1,0.3c0.2,0.2,0.3,0.5,0.3,1c0,1.4,0,2.6,0,3.8h2.2c1.7,0,2.6,1.1,2.7,3.3c0,8-0.1,13-0.4,15
			c-0.1,1.5-0.4,2.4-0.9,3c-0.6,0.7-1.5,1.1-2.7,1.1c-1,0-1.8-0.2-2.3-0.6c-0.5-0.2-0.7-0.8-0.7-1.7c0.1-0.4,0.2-0.7,0.4-0.9
			s0.5-0.4,0.8-0.4c0,0,0.1,0,0.2,0.1c0.5,0.3,1.1,0.4,1.6,0.4c0.7-0.1,1-0.7,1.1-1.9c0.1-2,0.2-6.5,0.2-13.6c0-0.4-0.1-0.7-0.2-0.8
			c-0.1-0.1-0.3-0.2-0.5-0.2h-1.4c0,0.1,0,0.2,0,0.3c0,2.4-0.1,4.8-0.5,7.5c-0.6,4.3-1.7,8-3.2,11.1c-0.3,0.2-0.7,0.4-1.2,0.5
			c-0.4,0-0.8-0.2-1.1-0.4s-0.4-0.6-0.4-1l0,0c-0.1,0-0.1,0-0.1,0l-11.8,1.2c-0.4,0-0.7-0.2-0.9-0.4s-0.3-0.5-0.3-0.9
			s0.1-0.6,0.2-0.9c0.2-0.3,0.5-0.4,0.8-0.4l4.6-0.4v-1.9h-4c-0.4,0-0.7-0.1-0.8-0.3c-0.2-0.2-0.2-0.5-0.2-0.9s0.1-0.7,0.2-0.9
			c0.2-0.2,0.4-0.2,0.8-0.2h4v-1.3h-3.5c-1.2,0-1.8-0.7-1.8-2v-6.1c0-1.3,0.6-2,1.8-2h3.5v-1.3h-4.8c-0.4,0-0.7-0.1-0.9-0.3
			c-0.2-0.2-0.3-0.5-0.3-1c0-0.4,0.1-0.8,0.3-1s0.5-0.3,0.9-0.3h4.8v-1.2c-1.4,0.1-2.9,0.2-4.5,0.2c-0.8-0.1-1.2-0.6-1.2-1.5
			c0.1-0.6,0.4-0.9,1.1-1.1c4-0.1,7.7-0.3,11.1-0.7c0.3,0,0.5,0,0.6,0c0.3,0,0.5,0.2,0.8,0.4c0.2,0.3,0.3,0.6,0.3,0.9
			c0,0.5-0.3,0.9-0.8,1.2c-0.9,0.2-2.4,0.4-4.6,0.5v1.4h4.5c0.4,0,0.7,0.1,0.9,0.3c0.2,0.2,0.2,0.5,0.2,1c0,0.4-0.1,0.7-0.2,0.9
			c-0.2,0.3-0.5,0.4-1,0.4h-4.5v1.3h3.8c1.2,0,1.8,0.7,1.8,2v6.1c0,1.4-0.6,2-1.8,2h-3.8V38h4.1c0.4,0,0.7,0.1,0.8,0.3
			c0.2,0.2,0.2,0.5,0.2,0.9s-0.1,0.6-0.2,0.8c-0.2,0.3-0.5,0.4-0.9,0.4h-4.1V42l4.3-0.4C213.2,41.6,213.5,41.8,213.7,42z
			 M205.7,30.5v-1.7h-2c-0.4,0-0.5,0.2-0.5,0.6v1.1H205.7z M205.7,32.7h-2.6v1.1c0,0.4,0.2,0.6,0.5,0.6h2v-1.7H205.7z M208.5,30.5
			h2.9v-1.1c0-0.4-0.2-0.6-0.5-0.6h-2.3L208.5,30.5L208.5,30.5z M211.4,33.7v-1.1h-2.9v1.7h2.3C211.2,34.3,211.4,34.1,211.4,33.7z"
			/>
		<path class="st2" d="M238,23.4c0.4,0,0.8,0.1,1,0.3c0.2,0.2,0.3,0.5,0.3,1.1c0,0.5-0.1,0.8-0.2,1c-0.2,0.3-0.6,0.5-1,0.5h-8.4
			c-0.4,0-0.7-0.1-1-0.3c-0.2-0.2-0.3-0.5-0.3-1.1c0-0.5,0.1-0.8,0.3-1.1c0.2-0.2,0.5-0.3,1-0.3h8.3V23.4z M236.3,36.1
			c1.2,0,1.8,0.7,1.8,2v5.1c0,1.3-0.6,2-1.8,2H231c-1.2,0-1.8-0.7-1.8-2v-5.1c0-1.3,0.6-2,1.8-2H236.3z M237.2,27.9
			c0.4,0,0.7,0.1,0.8,0.2c0.2,0.2,0.2,0.5,0.2,0.9s-0.1,0.7-0.2,0.9c-0.2,0.3-0.5,0.4-0.9,0.4h-6.7c-0.4,0-0.7-0.1-0.8-0.3
			c-0.2-0.2-0.2-0.5-0.2-1c0-0.4,0.1-0.7,0.2-0.9c0.2-0.2,0.4-0.2,0.8-0.2H237.2z M237.1,32c0.4,0,0.7,0.1,0.8,0.3
			c0.2,0.2,0.2,0.5,0.2,0.9s-0.1,0.7-0.2,0.9c-0.2,0.3-0.5,0.4-0.9,0.4h-6.6c-0.4,0-0.7-0.1-0.8-0.3c-0.2-0.2-0.2-0.5-0.2-1
			c0-0.4,0.1-0.7,0.2-0.9c0.2-0.2,0.4-0.3,0.8-0.3C230.4,32,237.1,32,237.1,32z M237.1,19.2c0.4,0,0.7,0.1,0.8,0.2
			c0.2,0.2,0.3,0.5,0.3,1.1c0,0.5-0.1,0.8-0.2,1c-0.2,0.3-0.5,0.4-1,0.4h-6.4c-0.4,0-0.7-0.1-0.8-0.3c-0.2-0.2-0.3-0.5-0.3-1.1
			c0-0.5,0.1-0.9,0.3-1.1c0.2-0.1,0.4-0.2,0.8-0.2H237.1z M235.6,42v-2.7c0-0.4-0.2-0.6-0.5-0.6h-2.8c-0.4,0-0.5,0.2-0.5,0.6V42
			c0,0.4,0.2,0.6,0.5,0.6h2.8C235.4,42.6,235.6,42.4,235.6,42z M243.9,18.6c0.3,0.5,0.6,1,0.8,1.6c0.5,1.3,0.9,2.2,1,2.8h1.8
			c0.3-1.2,0.7-2.5,1.2-4c0.2-0.5,0.6-0.8,1.3-0.8c0.4,0,0.7,0.1,0.9,0.2c0.3,0.2,0.4,0.5,0.4,0.8c-0.1,0.5-0.4,1.8-1,3.8h1.7
			c0.4,0,0.7,0.1,0.9,0.3s0.4,0.6,0.4,1.2c0,0.5-0.1,0.9-0.2,1.1c-0.2,0.3-0.6,0.5-1.1,0.5h-4.1v3.3h3.7c0.4,0,0.7,0.1,0.9,0.3
			s0.4,0.6,0.4,1.2c0,0.5-0.1,0.9-0.2,1.1c-0.2,0.3-0.6,0.5-1.1,0.5h-3.7v3.3h4.3c0.4,0,0.7,0.1,0.9,0.3s0.3,0.6,0.3,1.2
			c0,0.5-0.1,0.9-0.2,1.1c-0.2,0.3-0.6,0.5-1.1,0.5h-4.3v5.3c0,0.5-0.1,0.9-0.3,1.1c-0.2,0.3-0.6,0.4-1,0.4c-0.5,0-0.8-0.2-1.1-0.4
			c-0.2-0.2-0.3-0.6-0.3-1.1v-5.3h-4.8c-0.4,0-0.7-0.1-0.9-0.4c-0.2-0.2-0.4-0.6-0.4-1.2c0-0.6,0.1-1,0.4-1.2
			c0.2-0.2,0.5-0.3,0.9-0.3h4.8v-3.3h-4c-0.4,0-0.7-0.1-0.9-0.4c-0.3-0.2-0.4-0.6-0.4-1.2s0.1-1,0.4-1.2c0.2-0.2,0.5-0.3,0.9-0.3h4
			V26H241c-0.4,0-0.7-0.1-0.9-0.4c-0.2-0.2-0.4-0.6-0.4-1.2s0.1-1,0.4-1.2c0.2-0.2,0.5-0.3,0.9-0.3h1.9c-0.3-0.8-0.6-1.6-0.9-2.5
			c-0.2-0.3-0.2-0.6-0.2-0.9c0-0.4,0.1-0.7,0.5-1c0.3-0.2,0.6-0.3,0.9-0.3C243.4,18.3,243.6,18.4,243.9,18.6z"/>
		<path class="st2" d="M260.4,22.8c0.3,0.2,0.5,0.5,0.5,1.1c0,0.5-0.1,1.1-0.2,2c-0.5,3.7-0.9,6.2-1.2,7.4c-0.2,0.5-0.6,0.7-1.2,0.7
			c-0.4,0-0.7-0.1-1-0.4c-0.2-0.2-0.3-0.5-0.3-0.8c0-0.2,0.1-0.6,0.2-1.3c0.5-2.5,1-5.2,1.4-8.1c0.1-0.5,0.4-0.8,0.7-0.8
			C259.9,22.6,260.2,22.7,260.4,22.8z M272.3,19.6v-0.5c0-0.4,0.1-0.7,0.4-1c0.2-0.2,0.5-0.3,1-0.3s0.8,0.1,1.1,0.3
			c0.3,0.3,0.4,0.6,0.4,1v0.5h5.3c0.4,0,0.7,0.1,0.8,0.3c0.2,0.2,0.2,0.5,0.2,0.9s-0.1,0.7-0.2,0.9c-0.2,0.3-0.5,0.4-0.9,0.4h-5.3
			v1.5h5c0.4,0,0.7,0.1,0.8,0.3c0.2,0.2,0.2,0.5,0.2,0.9s-0.1,0.6-0.2,0.8c-0.2,0.3-0.5,0.4-0.9,0.4h-5v1.5h5.7
			c0.4,0,0.7,0.1,0.8,0.3c0.2,0.2,0.2,0.5,0.2,0.9s-0.1,0.7-0.2,0.9c-0.2,0.3-0.5,0.4-0.9,0.4H267c-0.3,0-0.5,0-0.6-0.2
			c-0.1,0-0.2,0-0.2,0c-0.3,0-0.5,0-0.6-0.1s-0.2-0.2-0.3-0.4c-0.3-1-0.7-2.3-1.3-4v18.8c0,0.4-0.1,0.7-0.2,1
			c-0.2,0.4-0.6,0.6-1.1,0.6s-0.8-0.2-1.1-0.5c-0.2-0.3-0.3-0.6-0.3-1V19.8c0-0.5,0.1-0.8,0.4-1.1c0.2-0.3,0.6-0.4,1-0.4
			s0.7,0.2,1,0.4c0.2,0.3,0.4,0.6,0.4,1.1v3l0,0c0.2-0.1,0.3-0.1,0.5-0.1c0.3,0,0.5,0.2,0.7,0.4c0.2,0.4,0.5,1,0.9,1.8
			c0-0.4,0.1-0.7,0.2-0.9c0.2-0.2,0.4-0.2,0.8-0.2h5.1v-1.5h-5.4c-0.4,0-0.7-0.1-0.8-0.3c-0.2-0.2-0.2-0.5-0.2-1
			c0-0.4,0.1-0.7,0.2-0.9c0.2-0.2,0.4-0.3,0.8-0.3h5.4V19.6z M266.7,26.3c0.2,0.5,0.3,0.9,0.4,1.3h5.3V26h-5.1c-0.3,0-0.5,0-0.7-0.2
			C266.6,26,266.7,26.2,266.7,26.3z M278.7,31.4c1.4,0,2.2,0.8,2.2,2.5v9.3c0,1-0.2,1.6-0.7,1.9c-0.5,0.4-1.2,0.6-2.1,0.6
			c-1.9,0-3.3-0.3-4.3-0.8c-0.4-0.2-0.6-0.6-0.7-1.1c0-0.9,0.3-1.4,1-1.4c0.2,0,0.4,0.1,0.7,0.2c1,0.4,1.9,0.6,2.7,0.6
			c0.3-0.1,0.4-0.2,0.4-0.5v-1.8h-8.5v3.6c0,0.5-0.2,0.9-0.4,1.1c-0.2,0.2-0.6,0.3-1.1,0.3s-0.9-0.2-1.1-0.4c-0.2-0.3-0.3-0.6-0.3-1
			V33.8c0-1.6,0.6-2.5,1.9-2.5h10.3V31.4z M278,35.1v-0.8c0-0.3-0.1-0.5-0.3-0.5H270c-0.4,0-0.5,0.2-0.5,0.5v0.8H278z M278,38.5
			v-1.2h-8.5v1.2H278z"/>
	</g>
</g>
<g id="圖層_2">
	<g>
		
			<linearGradient id="XMLID_16_" gradientUnits="userSpaceOnUse" x1="150.35" y1="-66.1084" x2="150.35" y2="-0.1084" gradientTransform="matrix(1 0 0 -1 0 65.8898)">
			<stop  offset="2.688170e-02" style="stop-color:#B3B3B3"/>
			<stop  offset="0.1559" style="stop-color:#666666"/>
			<stop  offset="0.1845" style="stop-color:#6E6E6E"/>
			<stop  offset="0.2282" style="stop-color:#838383"/>
			<stop  offset="0.2813" style="stop-color:#A5A5A5"/>
			<stop  offset="0.2997" style="stop-color:#B3B3B3"/>
			<stop  offset="0.3326" style="stop-color:#B6B6B6"/>
			<stop  offset="0.36" style="stop-color:#C1C1C1"/>
			<stop  offset="0.3855" style="stop-color:#D2D2D2"/>
			<stop  offset="0.4098" style="stop-color:#EAEAEA"/>
			<stop  offset="0.4161" style="stop-color:#F2F2F2"/>
			<stop  offset="0.4491" style="stop-color:#DDDDDD"/>
			<stop  offset="0.534" style="stop-color:#ABABAB"/>
			<stop  offset="0.5985" style="stop-color:#8C8C8C"/>
			<stop  offset="0.6344" style="stop-color:#808080"/>
			<stop  offset="0.7957" style="stop-color:#4D4D4D"/>
			<stop  offset="0.8202" style="stop-color:#525252"/>
			<stop  offset="0.8475" style="stop-color:#5F5F5F"/>
			<stop  offset="0.8761" style="stop-color:#757575"/>
			<stop  offset="0.9057" style="stop-color:#949494"/>
			<stop  offset="0.9356" style="stop-color:#BCBCBC"/>
			<stop  offset="0.9624" style="stop-color:#E6E6E6"/>
		</linearGradient>
		<path id="XMLID_5_" class="st5" d="M290.4,132h-280C4.6,132,0,127.4,0,121.7V76.3C0,70.6,4.6,66,10.3,66h280
			c5.7,0,10.3,4.6,10.3,10.3v45.4C300.7,127.4,296.1,132,290.4,132z"/>
		
			<linearGradient id="XMLID_17_" gradientUnits="userSpaceOnUse" x1="2.9492" y1="-33.1084" x2="297.8492" y2="-33.1084" gradientTransform="matrix(1 0 0 -1 0 65.8898)">
			<stop  offset="2.688170e-02" style="stop-color:#B3B3B3"/>
			<stop  offset="0.1559" style="stop-color:#666666"/>
			<stop  offset="0.1845" style="stop-color:#6E6E6E"/>
			<stop  offset="0.2282" style="stop-color:#838383"/>
			<stop  offset="0.2813" style="stop-color:#A5A5A5"/>
			<stop  offset="0.2997" style="stop-color:#B3B3B3"/>
			<stop  offset="0.3326" style="stop-color:#B6B6B6"/>
			<stop  offset="0.36" style="stop-color:#C1C1C1"/>
			<stop  offset="0.3855" style="stop-color:#D2D2D2"/>
			<stop  offset="0.4098" style="stop-color:#EAEAEA"/>
			<stop  offset="0.4161" style="stop-color:#F2F2F2"/>
			<stop  offset="0.4491" style="stop-color:#DDDDDD"/>
			<stop  offset="0.534" style="stop-color:#ABABAB"/>
			<stop  offset="0.5985" style="stop-color:#8C8C8C"/>
			<stop  offset="0.6344" style="stop-color:#808080"/>
			<stop  offset="0.7957" style="stop-color:#4D4D4D"/>
			<stop  offset="0.8202" style="stop-color:#525252"/>
			<stop  offset="0.8475" style="stop-color:#5F5F5F"/>
			<stop  offset="0.8761" style="stop-color:#757575"/>
			<stop  offset="0.9057" style="stop-color:#949494"/>
			<stop  offset="0.9356" style="stop-color:#BCBCBC"/>
			<stop  offset="0.9624" style="stop-color:#E6E6E6"/>
		</linearGradient>
		<path id="XMLID_4_" class="st6" d="M287.5,129.3H13.2c-5.7,0-10.3-4.6-10.3-10.3V79c0-5.7,4.6-10.3,10.3-10.3h274.3
			c5.7,0,10.3,4.6,10.3,10.3v40C297.8,124.7,293.2,129.3,287.5,129.3z"/>
		<g id="XMLID_3_">
			<path class="st2" d="M287.5,129.3c-66.8-0.1-211.2,0.6-276.3,0.1c-5.9-1-9.3-6.6-8.7-12.4v-10.8V84.5c0.1-3.2-0.5-8,1.4-10.8
				c1.8-3.3,5.6-5.5,9.4-5.5c66.7,0.3,211.1-0.1,276.3,0.6c5.7,1.1,9.1,6.6,8.4,12.2v10.8v21.7v5.4
				C298,124.5,293.1,129.4,287.5,129.3L287.5,129.3z M287.5,129.3c5.5,0.1,10.4-4.8,10.3-10.4v-5.4V91.8V81c0-1.8,0.1-3.6-0.6-5.3
				c-1.4-4.3-5.9-7.2-10.4-6.9c-63.1,0.1-209,0.3-273.6,0.4c-3.4,0-6.8,1.9-8.5,4.9c-1.9,2.7-1.2,7.3-1.3,10.4v21.7V117
				c-0.3,3.6,0.6,7.2,3.4,9.5c2,1.8,4.6,2.6,7.3,2.5h2.7C78.2,129.1,224.4,129.2,287.5,129.3L287.5,129.3z"/>
		</g>
		
			<linearGradient id="XMLID_18_" gradientUnits="userSpaceOnUse" x1="281.5843" y1="23.9816" x2="3.1859" y2="-97.1735" gradientTransform="matrix(1 0 0 -1 0 65.8898)">
			<stop  offset="0" style="stop-color:#FF104F"/>
			<stop  offset="1" style="stop-color:#CE002C"/>
		</linearGradient>
		<path id="XMLID_2_" class="st7" d="M286.2,128H14.5c-5.7,0-10.3-4.6-10.3-10.3V80.3C4.2,74.6,8.8,70,14.5,70h271.7
			c5.7,0,10.3,4.6,10.3,10.3v37.4C296.5,123.4,291.9,128,286.2,128z"/>
		
			<linearGradient id="XMLID_19_" gradientUnits="userSpaceOnUse" x1="133.0838" y1="54.1867" x2="159.1371" y2="-77.1601" gradientTransform="matrix(1 0 0 1 0 132.1065)">
			<stop  offset="0.1396" style="stop-color:#FFFFFF;stop-opacity:0.9624"/>
			<stop  offset="0.8449" style="stop-color:#FFFFFF;stop-opacity:0"/>
		</linearGradient>
		<path id="XMLID_1_" class="st8" d="M293.8,81.8v34.4c0,5.1-4.2,9.3-9.3,9.3H16.2c-5.1,0-9.3-4.2-9.3-9.3V81.8
			c0-5.1,4.2-9.3,9.3-9.3h268.3C289.7,72.5,293.9,76.7,293.8,81.8z"/>
		<g>
			<path class="st2" d="M24.2,90.5c0.5,0,0.8,0.1,1,0.3s0.3,0.6,0.3,1.1s-0.1,0.8-0.2,1c-0.2,0.3-0.6,0.5-1,0.5h-5.7
				c-0.4,0-0.7-0.1-1-0.3c-0.2-0.2-0.3-0.5-0.3-1.1c0-0.5,0.1-0.8,0.3-1.1c0.2-0.2,0.5-0.3,1-0.3h5.6V90.5z M23.5,103.3
				c1,0,1.5,0.6,1.5,1.7v5.4c0,0.1,0,0.2,0,0.3l0,0c0.9-1.6,1.7-3.1,2.3-4.6c-0.5-1-1.1-2.3-1.6-3.8c-0.2-0.7-0.3-1.1-0.3-1.5
				c0-0.5,0.3-0.8,1-0.9c0.5,0,0.8,0.2,1,0.5c0.1,0.3,0.2,0.8,0.5,1.4c0.1,0.4,0.2,0.8,0.4,1.1c0.4-1.7,0.6-3.1,0.6-4.3
				c0-0.3-0.1-0.5-0.2-0.5h-2.2c-0.7-0.1-1-0.6-1-1.3c0-0.2,0.1-0.5,0.2-1c1.4-3.4,2.2-5.3,2.2-5.6c0-0.2-0.1-0.3-0.2-0.3h-1.4
				c-0.4-0.1-0.6-0.2-0.8-0.4c-0.2-0.2-0.3-0.6-0.3-1s0.1-0.7,0.3-0.9c0.2-0.2,0.5-0.4,0.8-0.4h3.1c0.9,0,1.4,0.5,1.4,1.3
				c0,1-0.8,3.3-2.5,6.8c0,0.3,0.1,0.5,0.3,0.5c0.5,0,1,0,1.4,0s0.7,0.1,0.9,0.3c0.3,0.2,0.4,0.7,0.4,1.4c0,1.8-0.3,4-0.9,6.6
				c-0.2,0.7-0.4,1.3-0.5,1.9c1.1,1.4,2.6,2.3,4.3,2.7c1.2,0.3,2.9,0.4,5.1,0.4c0.3,0,0.6,0,1-0.1c0.4,0,0.6,0,0.8,0
				c0.3,0,0.6,0.1,0.8,0.3c0.3,0.3,0.4,0.6,0.4,1.1s-0.1,0.8-0.3,1.1c-0.2,0.3-0.9,0.5-1.9,0.5c-3.1,0-5.3-0.2-6.4-0.4
				c-2-0.5-3.6-1.5-4.8-2.9c-0.5,1.3-1.2,2.4-1.8,3.6c-0.3,0.3-0.6,0.5-1,0.5s-0.8-0.2-1-0.4c-0.2-0.2-0.4-0.5-0.4-0.8v-0.1
				c-0.2,0.4-0.7,0.7-1.3,0.7h-4.3c-1,0-1.5-0.6-1.5-1.7V105c0-1.1,0.5-1.7,1.5-1.7H23.5z M23.6,95.1c0.4,0,0.7,0.1,0.8,0.2
				c0.2,0.2,0.2,0.5,0.2,0.9s-0.1,0.6-0.2,0.8c-0.2,0.3-0.5,0.4-0.9,0.4h-4.4c-0.4,0-0.7-0.1-0.8-0.3c-0.2-0.2-0.2-0.5-0.2-0.9
				s0.1-0.7,0.2-0.9c0.2-0.2,0.4-0.2,0.8-0.2H23.6z M23.6,99.2c0.4,0,0.7,0.1,0.8,0.3c0.2,0.2,0.2,0.5,0.2,0.9s-0.1,0.6-0.2,0.8
				c-0.2,0.2-0.5,0.4-0.9,0.4h-4.4c-0.4,0-0.7-0.1-0.8-0.3c-0.2-0.2-0.2-0.5-0.2-0.9s0.1-0.7,0.2-0.9c0.2-0.2,0.4-0.3,0.8-0.3H23.6z
				 M23.6,86.4c0.3,0,0.6,0.1,0.8,0.3c0.2,0.2,0.3,0.5,0.3,1s-0.1,0.8-0.2,0.9C24.3,88.9,24,89,23.6,89h-4.3c-0.3,0-0.6-0.1-0.8-0.3
				c-0.2-0.2-0.3-0.5-0.3-1s0.1-0.8,0.3-1.1c0.2-0.2,0.4-0.2,0.8-0.2H23.6z M22.7,109.2v-3.1c0-0.2-0.1-0.2-0.2-0.2h-2.1
				c-0.2,0-0.2,0.1-0.2,0.2v3.1c0,0.2,0.1,0.2,0.2,0.2h2.1C22.6,109.5,22.7,109.4,22.7,109.2z M41.7,86.5c0.2,0.3,0.4,0.7,0.4,1.1
				c0,0.4-0.2,0.7-0.4,0.9c-0.8,0.3-1.8,0.6-3,0.9v5.9h2c0.4,0,0.7,0.1,0.9,0.3c0.2,0.2,0.3,0.5,0.3,1s-0.1,0.8-0.2,0.9
				c-0.2,0.3-0.5,0.5-1,0.5h-2v6.1h2.5c0.6,0,1,0.5,1,1.4c0,1-0.3,1.4-1,1.4h-6.8c-1.4,0-2.2-0.8-2.2-2.4v-9.6
				c0-0.8,0.4-1.2,1.2-1.2s1.2,0.4,1.2,1.2v8.6c0,0.3,0.1,0.5,0.4,0.5h1.2V90c-1.3,0.2-2.3,0.4-3.1,0.4s-1.3-0.5-1.3-1.3
				c0-0.7,0.2-1.1,0.7-1.3c3.1-0.4,5.6-0.9,7.5-1.5c0.3-0.1,0.6-0.2,0.9-0.2C41.2,86.2,41.5,86.3,41.7,86.5z"/>
			<path class="st2" d="M52,86.3c0.3,0.2,0.5,0.6,0.5,1.1c-0.1,0.8-0.3,1.6-0.5,2.5c-0.1,0.3-0.2,0.5-0.2,0.8h5.6v-3.9
				c0-0.5,0.1-0.9,0.3-1.2c0.2-0.2,0.5-0.4,1.1-0.4s1,0.1,1.1,0.4c0.2,0.2,0.4,0.6,0.4,1.2v3.9H69c0.5,0,0.8,0.1,1,0.3
				c0.2,0.2,0.3,0.6,0.3,1.1s-0.1,0.8-0.2,1c-0.2,0.4-0.5,0.5-1.1,0.5h-8.7v6h8.3c0.4,0,0.8,0.1,1,0.3c0.2,0.2,0.3,0.6,0.3,1.1
				s-0.1,0.8-0.2,1c-0.2,0.4-0.6,0.5-1,0.5h-8.3v6h9.4c0.4,0,0.8,0.1,1,0.3c0.2,0.2,0.3,0.6,0.3,1.1s-0.1,0.8-0.2,1
				c-0.2,0.3-0.6,0.5-1,0.5H47.5c-0.4,0-0.7-0.1-1-0.3c-0.2-0.2-0.3-0.6-0.3-1.2c0-0.5,0.1-0.8,0.3-1.1c0.2-0.2,0.5-0.3,1-0.3h9.8
				v-6h-8.2c-0.4,0-0.8-0.1-1-0.4c-0.2-0.2-0.3-0.6-0.3-1.2c0-0.5,0.1-0.8,0.3-1.1c0.2-0.2,0.5-0.3,1-0.3h8.2v-6h-6.6
				c-0.5,1.5-1.1,2.7-1.6,3.7c-0.2,0.5-0.7,0.8-1.3,0.8c-0.4,0-0.7-0.2-1.1-0.5c-0.2-0.3-0.3-0.6-0.3-1c0-0.2,0.1-0.5,0.2-1
				c1.4-2.8,2.5-5.7,3.3-8.8c0.2-0.5,0.5-0.8,1.1-0.8C51.4,86.1,51.8,86.2,52,86.3z"/>
			<path class="st2" d="M77.2,111.5c-0.1,0.3-0.2,0.6-0.3,0.8c-0.2,0.3-0.6,0.5-1.1,0.5c-0.4,0-0.8-0.1-1-0.3
				c-0.2-0.2-0.4-0.5-0.4-1c0-0.3,0.1-1,0.2-2.1c0.7-3.9,1.1-7.7,1.3-11.1c0.1-2.2,0.1-4.2,0.1-6.2v-3.3c0-1.4,0.7-2.1,2.1-2.1h7.6
				v-0.1c0-0.5,0.1-0.9,0.5-1.3c0.2-0.2,0.6-0.4,1.2-0.4c0.5,0,1,0.1,1.2,0.4c0.3,0.3,0.5,0.7,0.5,1.3v0.1h9c0.7,0,1.1,0.4,1.1,1.2
				c0,0.9-0.4,1.3-1.1,1.3h-6.5v1.2h4.9c1,0,1.5,0.5,1.5,1.3v2.6c0,1-0.5,1.4-1.4,1.4h-18c0,0.4,0,0.8,0,1.1h19.1
				c0.5,0,0.8,0.1,1.1,0.3c0.3,0.2,0.4,0.5,0.4,0.9c0,0.4-0.1,0.7-0.2,1c-0.4,0.9-0.8,1.6-1.3,2.2c-0.3,0.2-0.6,0.4-0.8,0.4l0,0
				c0.4,0.6,0.6,1.1,0.6,1.5c0,0.3-0.1,0.6-0.2,0.7c-0.2,0.2-0.5,0.3-0.8,0.3c-0.2,0-0.4,0-0.5-0.1s-0.2-0.2-0.3-0.3
				c-0.4-0.7-1-1.7-1.8-3.1c-0.1-0.1-0.1-0.2-0.1-0.4c0-0.2,0-0.2,0.1-0.4c0.1-0.2,0.2-0.3,0.5-0.4c0.2-0.1,0.3-0.1,0.5-0.1
				c0.3,0.1,0.5,0.2,0.7,0.4c0.1,0.1,0.2,0.2,0.4,0.4c0.3-0.5,0.4-0.8,0.5-0.9c0-0.1-0.1-0.2-0.2-0.2h-6.7c0.2,0.2,0.5,0.4,0.7,0.6
				c0.1,0.3,0.2,0.5,0.2,0.7c0,0.2-0.1,0.4-0.2,0.6c-0.2,0.2-0.4,0.4-0.6,0.5c-0.2,0-0.3,0-0.4-0.1s-0.2-0.1-0.3-0.2
				c-0.4-0.4-0.9-0.8-1.4-1.3c-0.1-0.1-0.1-0.1-0.1-0.2c-0.2-0.2-0.2-0.4-0.2-0.6h-0.9v2c0,0.5,0.2,0.7,0.7,0.7H90
				c0.4,0,0.7,0,0.8-0.1c0.2-0.1,0.4-0.4,0.5-0.9c0-0.4,0.2-0.6,0.7-0.7c0.4,0,0.7,0.1,0.9,0.2c0.3,0.2,0.5,0.5,0.5,0.9
				c-0.1,0.7-0.3,1.3-0.7,1.8c-0.4,0.5-1,0.8-1.9,0.8h-5.2c-0.1,0.1-0.1,0.2-0.2,0.3c-0.2,0.3-0.3,0.5-0.5,0.7h10.2
				c0.5,0,0.8,0.1,1.1,0.3c0.3,0.3,0.5,0.6,0.5,0.9c0,0.5-0.3,1-0.8,1.5c-0.8,0.7-1.9,1.3-3.2,2c1.8,0.3,3.7,0.5,5.7,0.5
				c0.6,0,1,0.5,1,1.3c0,0.4-0.1,0.6-0.3,0.9c-0.2,0.2-0.6,0.4-1.1,0.4c-1.9,0-3.5-0.2-4.9-0.4c-1.4-0.3-2.8-0.7-4-1.1
				c-3.7,1.2-6.7,1.8-9.3,1.8c-0.4,0-0.7-0.1-0.8-0.4c-0.2-0.3-0.3-0.5-0.3-0.8c0-0.7,0.3-1.1,0.8-1.2c1.9-0.2,4-0.5,6.3-0.9
				c-0.2-0.1-0.4-0.2-0.5-0.3c-1-0.6-1.8-1.3-2.4-1.9c-0.6,0.6-1.3,1.2-2,1.7c-0.4,0.3-0.7,0.4-1.1,0.4s-0.7-0.2-0.9-0.5
				c-0.2-0.3-0.4-0.6-0.4-1c0-0.2,0.1-0.4,0.3-0.6c0.3-0.2,0.7-0.6,1.4-1.3c1.1-1.1,2.2-2.3,3.3-3.6c0.1-0.1,0.1-0.1,0.2-0.2
				c-0.1-0.3-0.1-0.7-0.1-1.1v-2.4h-5.1C78.3,103.8,77.9,108,77.2,111.5z M82.6,93.8v-1.5h-3.9c0,0.5,0,1.1,0,1.5H82.6z M82.6,89.1
				h-3.4c-0.4,0-0.5,0.2-0.5,0.5v0.7h3.9V89.1z M81.8,99.6c0.3,0.2,0.5,0.5,0.5,0.9c0,0.2-0.1,0.4-0.2,0.7c-0.4,1-0.8,1.8-1.2,2.6
				c-0.2,0.3-0.5,0.5-0.7,0.5c-0.4,0-0.7-0.1-0.9-0.3c-0.3-0.3-0.5-0.6-0.5-1c0-0.1,0-0.3,0.1-0.5c0.5-1,1-1.9,1.3-2.6
				c0.1-0.2,0.2-0.3,0.3-0.5c0.1-0.1,0.3-0.2,0.5-0.2C81.2,99.3,81.5,99.4,81.8,99.6z M88.9,89.1h-3.6v1.2h3.6V89.1z M85.3,93.8h3.6
				v-1.5h-3.6V93.8z M89.1,108.5c1.5-0.5,2.7-1,3.5-1.5c0-0.2-0.1-0.4-0.2-0.4h-6.9C86.1,107.2,87.3,107.8,89.1,108.5z M91.6,93.8
				h3.3c0.2,0,0.4-0.1,0.4-0.2v-0.9c0-0.2-0.1-0.4-0.4-0.4h-3.3V93.8z"/>
			<path class="st2" d="M110.4,85.2c0.2,0.2,0.3,0.6,0.4,1c0,0.3,0,0.5,0,0.7h3.3c0.7,0,1.3,0.2,1.7,0.5c0.4,0.3,0.5,0.9,0.5,2
				c0,1.6,0,2.9-0.1,3.8c-0.1,1.3-0.5,2.1-1.1,2.5c-0.4,0.3-1,0.5-1.9,0.5c-1.6,0-2.7-0.2-3.3-0.5c-0.4-0.3-0.5-0.8-0.5-1.4
				c0-0.3,0.2-0.5,0.4-0.8c0.2-0.2,0.5-0.3,0.8-0.3c0.1,0,0.3,0,0.5,0.1c0.5,0.1,1.1,0.2,1.6,0.2s0.8-0.2,0.9-0.6
				c0.1-0.5,0.1-1.4,0.1-2.7c0-0.2-0.1-0.4-0.2-0.4h-2.9c-0.1,0.7-0.3,1.4-0.6,2c-0.6,1.7-1.6,3.1-3.1,4.2c-0.5,0.5-1.1,0.8-1.9,0.8
				c-0.5,0-0.8-0.2-1-0.5c-0.2-0.2-0.3-0.5-0.3-0.8c0-0.3,0.1-0.6,0.2-0.8c1.9-1.1,3.1-2.3,3.6-3.6c0.2-0.3,0.3-0.7,0.4-1.2h-2.6
				c-0.7,0-1.1-0.4-1.1-1.2c0-1.1,0.4-1.7,1.1-1.7h2.9v-0.6c0-0.4,0.1-0.8,0.3-1.1c0.2-0.2,0.6-0.3,1-0.4
				C109.9,84.9,110.2,85,110.4,85.2z M123.3,96.8c1.4,0,2.1,0.8,2.1,2.4v7.3c0,1.6-0.7,2.4-2.1,2.4h-1.1c1.3,0.4,2.5,0.7,3.8,0.8
				c0.6,0.1,1.1,0.2,1.4,0.2c0.6,0.2,0.9,0.5,0.9,0.9c0,0.6-0.2,1.1-0.6,1.4c-0.4,0.2-0.8,0.4-1.3,0.4c-0.7-0.1-1.4-0.2-2.2-0.3
				c-1.4-0.3-2.7-0.8-4-1.5c-0.4-0.2-0.8-0.5-1.2-0.7c-0.1-0.1-0.1-0.2-0.1-0.3c0-0.3,0.1-0.6,0.4-0.9h-6.4c0.1,0.2,0.2,0.5,0.2,0.8
				c0,0.3-0.1,0.6-0.3,0.9c-0.8,0.5-1.9,1-3.2,1.5c-1.9,0.6-3.3,1-4.3,1c-0.9-0.1-1.4-0.5-1.4-1.4c0-0.7,0.3-1.2,0.8-1.3
				c2.4-0.5,4.4-1,5.8-1.5h-2c-1.4,0-2.1-0.8-2.1-2.4v-7.3c0-1.6,0.7-2.4,2.1-2.4C108.5,96.8,123.3,96.8,123.3,96.8z M122.5,100.3
				v-0.8c0-0.4-0.2-0.6-0.5-0.6h-12.4c-0.4,0-0.5,0.2-0.5,0.6v0.8H122.5z M122.5,103.6v-1.3H109v1.3H122.5z M122.5,106.2v-0.7H109
				v0.7c0,0.4,0.2,0.6,0.5,0.6H122C122.3,106.7,122.5,106.5,122.5,106.2z M125,86.2c1.2,0,1.8,0.7,1.8,2V94c0,1.4-0.6,2-1.8,2h-5.5
				c-1.2,0-1.8-0.7-1.8-2v-5.8c0-1.3,0.6-2,1.8-2H125z M124.2,92.9v-3.7c0-0.3-0.2-0.5-0.4-0.5h-3.2c-0.3,0-0.4,0.2-0.4,0.5v3.7
				c0,0.3,0.1,0.5,0.4,0.5h3.2C124.1,93.4,124.2,93.2,124.2,92.9z"/>
			<path class="st2" d="M134.7,97.8c0.2,0.2,0.4,0.5,0.4,0.9v2.7c0,1.1-0.1,2.1-0.1,3.1c-0.2,2.5-0.5,4.4-1,5.6
				c-0.2,0.3-0.6,0.4-1.1,0.5c-0.4,0-0.7-0.1-0.8-0.3c-0.2-0.2-0.2-0.5-0.2-0.9c0-0.1,0-0.4,0.1-0.7c0.4-2.1,0.7-4.2,0.7-6.4v-3.7
				c0-0.3,0.1-0.5,0.3-0.7c0.2-0.1,0.5-0.2,0.8-0.2C134.2,97.7,134.5,97.7,134.7,97.8z M140.8,92.7c0.5,0,0.8,0.1,1.1,0.4
				c0.2,0.2,0.3,0.6,0.3,1.2c0,0.5-0.1,0.8-0.2,1.1c-0.2,0.3-0.6,0.5-1.1,0.5h-2.2v15.5c0,0.5-0.1,0.8-0.4,1c-0.2,0.2-0.6,0.4-1,0.4
				s-0.8-0.2-1-0.4c-0.2-0.2-0.3-0.5-0.3-1V95.8h-2.6c-0.5,0-0.8-0.1-1-0.4c-0.2-0.2-0.4-0.6-0.4-1.2c0-0.5,0.1-0.9,0.4-1.2
				c0.2-0.2,0.6-0.4,1-0.4h7.4V92.7z M140.4,86.6c0.4,0,0.7,0.1,0.9,0.3c0.2,0.2,0.4,0.5,0.4,1.1c0,0.5-0.1,0.9-0.2,1.1
				c-0.2,0.3-0.6,0.5-1.1,0.5h-6.1c-0.4,0-0.7-0.1-0.9-0.4c-0.2-0.2-0.4-0.6-0.4-1.2c0-0.5,0.1-0.9,0.4-1.1c0.2-0.2,0.5-0.3,0.9-0.3
				H140.4z M141.5,98c0.2,0.2,0.3,0.5,0.3,1v9.3c0,0.4-0.1,0.7-0.3,0.8c-0.2,0.2-0.5,0.3-0.9,0.3s-0.7-0.1-0.8-0.3
				c-0.2-0.1-0.2-0.4-0.2-0.8V99c0-0.4,0.1-0.7,0.2-0.9c0.1-0.2,0.4-0.3,0.8-0.3C141.1,97.7,141.4,97.8,141.5,98z M145.8,109.7
				l-0.5-2h-0.8c-1,0-1.5-0.5-1.5-1.7v-2.7c0-1.1,0.5-1.7,1.5-1.7h9.9c1,0,1.5,0.6,1.5,1.7v2.7c0,1.1-0.5,1.7-1.5,1.7h-0.7l-0.5,2
				h2.6c0.4,0,0.7,0.1,0.8,0.3c0.1,0.1,0.2,0.4,0.2,0.9c0,0.4-0.1,0.6-0.2,0.8c-0.2,0.2-0.5,0.4-0.9,0.4h-13.4
				c-0.4,0-0.6-0.1-0.8-0.3c-0.2-0.2-0.2-0.5-0.2-0.9s0.1-0.7,0.2-0.9c0.2-0.2,0.5-0.2,0.8-0.2L145.8,109.7L145.8,109.7z
				 M155.8,98.2c0.4,0,0.7,0.1,0.8,0.3c0.2,0.2,0.2,0.5,0.2,0.9s-0.1,0.6-0.2,0.8c-0.2,0.3-0.5,0.4-0.8,0.4h-12.7
				c-0.4,0-0.7-0.1-0.8-0.3c-0.2-0.2-0.2-0.5-0.2-0.9s0.1-0.7,0.2-0.9c0.2-0.2,0.4-0.2,0.8-0.2L155.8,98.2L155.8,98.2z M146.6,87.1
				v-0.6c0-0.4,0.1-0.7,0.2-0.9c0.2-0.2,0.4-0.3,0.8-0.3c0.4,0,0.7,0.1,0.8,0.3c0.2,0.2,0.3,0.5,0.3,0.9v0.6h1.4v-0.6
				c0-0.4,0.1-0.7,0.2-0.9c0.1-0.2,0.4-0.3,0.8-0.3c0.4,0,0.7,0.1,0.8,0.3c0.2,0.2,0.3,0.5,0.3,0.9v0.6h2c1.2,0,1.8,0.7,1.8,2v6.1
				c0,1.4-0.6,2-1.8,2h-9.8c-1.2,0-1.8-0.7-1.8-2v-6.1c0-1.3,0.6-2,1.8-2H146.6z M146.6,91.2v-1.7h-1.1c-0.4,0-0.5,0.2-0.5,0.6v1.1
				H146.6z M146.6,93.3H145v1.1c0,0.4,0.2,0.6,0.5,0.6h1.1V93.3z M153.4,105.1v-0.8c0-0.2-0.1-0.3-0.3-0.3h-7.2
				c-0.2,0-0.3,0.1-0.3,0.3v0.8c0,0.2,0.1,0.3,0.3,0.3h7.2C153.3,105.4,153.4,105.3,153.4,105.1z M151.5,107.7h-3.8l0.5,2h2.8
				L151.5,107.7z M148.7,91.2h1.4v-1.7h-1.4V91.2z M150.1,93.3h-1.4V95h1.4V93.3z M152.3,91.2h1.5v-1.1c0-0.4-0.2-0.6-0.5-0.6h-1
				V91.2z M153.7,94.3v-1.1h-1.5v1.7h1C153.5,94.9,153.7,94.8,153.7,94.3z"/>
			<path class="st2" d="M173.4,93.4c1.8,1.3,3,2.3,3.6,3c0.4,0.3,0.6,0.7,0.7,1.2c0,0.5-0.1,0.8-0.3,1.1c-0.2,0.4-0.6,0.6-1.1,0.6
				c-0.3,0-0.6-0.1-0.8-0.3c-1.1-1.1-2.4-2.1-3.7-3.1c-0.5-0.4-0.8-0.8-0.8-1.2c0-0.5,0.1-1,0.4-1.3c0.2-0.2,0.6-0.4,1.1-0.4
				C172.6,93,173,93.2,173.4,93.4z M176.8,101c0.4,0.2,0.6,0.6,0.6,1.4c-0.1,0.4-0.2,1-0.5,1.7c-0.4,1.2-1,2.8-1.9,5.1
				c-0.4,0.8-0.7,1.5-1,2.3c-0.3,0.7-0.8,1.1-1.5,1.2c-0.4-0.1-0.8-0.3-1-0.5c-0.2-0.2-0.4-0.6-0.4-1.1c0-0.4,1-2.8,2.9-7.3
				c0.3-0.7,0.5-1.3,0.8-1.8c0.2-0.7,0.6-1.1,1.1-1.1C176.1,100.8,176.4,100.9,176.8,101z M174.5,86.1c1.8,1.4,3,2.4,3.5,3.1
				c0.4,0.3,0.6,0.7,0.7,1.2c0,0.5-0.1,0.8-0.3,1.2s-0.6,0.6-1.1,0.6c-0.3,0-0.6-0.1-0.8-0.4c-1.1-1.2-2.4-2.2-3.7-3.3
				c-0.5-0.4-0.8-0.8-0.8-1.2c0-0.6,0.1-1,0.4-1.3c0.2-0.2,0.6-0.4,1.1-0.4C173.7,85.7,174,85.9,174.5,86.1z M185.6,94.3V90
				c-1.6,0.2-3.4,0.3-5.2,0.4c-0.9-0.1-1.3-0.7-1.3-1.8c0.1-0.7,0.4-1.1,1.2-1.2c4.5-0.2,8.7-0.8,12.4-1.9c0.3-0.1,0.5-0.1,0.7-0.1
				c0.4,0,0.7,0.2,0.9,0.5c0.2,0.3,0.4,0.7,0.4,1.1c0,0.7-0.3,1.1-1,1.4c-1,0.4-2.8,0.8-5.4,1.2v4.7h6.3c0.4,0,0.8,0.1,1,0.3
				c0.2,0.2,0.3,0.6,0.3,1.1s-0.1,0.8-0.2,1.1c-0.2,0.3-0.6,0.5-1,0.5h-6.3v3.9h4.5c1.3,0,1.9,0.7,1.9,2.1v6.9
				c0,1.4-0.7,2.1-1.9,2.1h-11.5c-1.3,0-1.9-0.7-1.9-2.1v-6.9c0-1.4,0.6-2.1,1.9-2.1h4.3v-3.9h-6c-0.4,0-0.8-0.1-1-0.4
				c-0.2-0.2-0.3-0.6-0.3-1.2c0-0.5,0.1-0.8,0.3-1.1c0.2-0.2,0.5-0.3,1-0.3C179.7,94.3,185.6,94.3,185.6,94.3z M191.9,108.8v-4
				c0-0.5-0.2-0.7-0.6-0.7H183c-0.4,0-0.6,0.2-0.6,0.7v4c0,0.5,0.2,0.7,0.6,0.7h8.3C191.7,109.5,191.9,109.2,191.9,108.8z"/>
			<path class="st2" d="M213.7,109c0.1,0.1,0.2,0.2,0.2,0.3c1-2.1,1.7-4.5,2.2-7.2c0.5-2.7,0.7-5.6,0.7-8.9h-1.4
				c-0.4,0-0.8-0.1-1-0.4c-0.2-0.3-0.3-0.6-0.3-1.2c0-0.4,0.1-0.8,0.3-1.1c0.2-0.2,0.5-0.4,1-0.4h1.4v-3.8c0-0.4,0.1-0.8,0.4-1
				c0.2-0.2,0.5-0.2,0.9-0.3c0.5,0,0.9,0.2,1.1,0.3c0.2,0.2,0.3,0.5,0.3,1c0,1.4,0,2.6,0,3.8h2.2c1.7,0,2.6,1.1,2.7,3.3
				c0,8-0.1,13-0.4,15c-0.1,1.5-0.4,2.4-0.9,3c-0.6,0.7-1.5,1.1-2.7,1.1c-1,0-1.8-0.2-2.3-0.6c-0.5-0.2-0.7-0.8-0.7-1.7
				c0.1-0.4,0.2-0.7,0.4-0.9c0.2-0.2,0.5-0.4,0.8-0.4c0,0,0.1,0,0.2,0.1c0.5,0.3,1.1,0.4,1.6,0.4c0.7-0.1,1-0.7,1.1-1.9
				c0.1-2,0.2-6.5,0.2-13.6c0-0.4-0.1-0.7-0.2-0.8c-0.1-0.1-0.3-0.2-0.5-0.2h-1.4c0,0.1,0,0.2,0,0.3c0,2.4-0.1,4.8-0.5,7.5
				c-0.6,4.3-1.7,8-3.2,11.1c-0.3,0.2-0.7,0.4-1.2,0.5c-0.4,0-0.8-0.2-1.1-0.4c-0.3-0.2-0.4-0.6-0.4-1l0,0c-0.1,0-0.1,0-0.1,0
				l-11.8,1.2c-0.4,0-0.7-0.2-0.9-0.4c-0.2-0.2-0.3-0.5-0.3-0.9s0.1-0.6,0.2-0.9c0.2-0.3,0.5-0.4,0.8-0.4l4.6-0.4v-1.9h-4
				c-0.4,0-0.7-0.1-0.8-0.3c-0.2-0.2-0.2-0.5-0.2-0.9s0.1-0.7,0.2-0.9c0.2-0.2,0.4-0.2,0.8-0.2h4v-1.3h-3.5c-1.2,0-1.8-0.7-1.8-2
				v-6.1c0-1.3,0.6-2,1.8-2h3.5v-1.3h-4.8c-0.4,0-0.7-0.1-0.9-0.3s-0.3-0.5-0.3-1c0-0.4,0.1-0.8,0.3-1c0.2-0.2,0.5-0.3,0.9-0.3h4.8
				v-1.2c-1.4,0.1-2.9,0.2-4.5,0.2c-0.8-0.1-1.2-0.6-1.2-1.5c0.1-0.6,0.4-0.9,1.1-1.1c4-0.1,7.7-0.3,11.1-0.7c0.3,0,0.5,0,0.6,0
				c0.3,0,0.5,0.2,0.8,0.4c0.2,0.3,0.3,0.6,0.3,0.9c0,0.5-0.3,0.9-0.8,1.2c-0.9,0.2-2.4,0.4-4.6,0.5v1.4h4.5c0.4,0,0.7,0.1,0.9,0.3
				c0.2,0.2,0.2,0.5,0.2,1c0,0.4-0.1,0.7-0.2,0.9c-0.2,0.3-0.5,0.4-1,0.4h-4.5v1.3h3.8c1.2,0,1.8,0.7,1.8,2v6.1c0,1.4-0.6,2-1.8,2
				h-3.8v1.3h4.1c0.4,0,0.7,0.1,0.8,0.3c0.2,0.2,0.2,0.5,0.2,0.9s-0.1,0.6-0.2,0.8c-0.2,0.3-0.5,0.4-0.9,0.4h-4.1v1.6l4.3-0.4
				C213.2,108.6,213.5,108.8,213.7,109z M205.7,97.5v-1.7h-2c-0.4,0-0.5,0.2-0.5,0.6v1.1H205.7z M205.7,99.7h-2.6v1.1
				c0,0.4,0.2,0.6,0.5,0.6h2v-1.7H205.7z M208.5,97.5h2.9v-1.1c0-0.4-0.2-0.6-0.5-0.6h-2.3L208.5,97.5L208.5,97.5z M211.4,100.7
				v-1.1h-2.9v1.7h2.3C211.2,101.3,211.4,101.1,211.4,100.7z"/>
			<path class="st2" d="M238,90.4c0.4,0,0.8,0.1,1,0.3c0.2,0.2,0.3,0.5,0.3,1.1c0,0.5-0.1,0.8-0.2,1c-0.2,0.3-0.6,0.5-1,0.5h-8.4
				c-0.4,0-0.7-0.1-1-0.3c-0.2-0.2-0.3-0.5-0.3-1.1c0-0.5,0.1-0.8,0.3-1.1c0.2-0.2,0.5-0.3,1-0.3L238,90.4L238,90.4z M236.3,103.1
				c1.2,0,1.8,0.7,1.8,2v5.1c0,1.3-0.6,2-1.8,2H231c-1.2,0-1.8-0.7-1.8-2v-5.1c0-1.3,0.6-2,1.8-2H236.3z M237.2,94.9
				c0.4,0,0.7,0.1,0.8,0.2c0.2,0.2,0.2,0.5,0.2,0.9c0,0.4-0.1,0.7-0.2,0.9c-0.2,0.3-0.5,0.4-0.9,0.4h-6.7c-0.4,0-0.7-0.1-0.8-0.3
				c-0.2-0.2-0.2-0.5-0.2-1c0-0.4,0.1-0.7,0.2-0.9c0.2-0.2,0.4-0.2,0.8-0.2H237.2z M237.1,99c0.4,0,0.7,0.1,0.8,0.3
				c0.2,0.2,0.2,0.5,0.2,0.9s-0.1,0.7-0.2,0.9c-0.2,0.3-0.5,0.4-0.9,0.4h-6.6c-0.4,0-0.7-0.1-0.8-0.3c-0.2-0.2-0.2-0.5-0.2-1
				c0-0.4,0.1-0.7,0.2-0.9c0.2-0.2,0.4-0.3,0.8-0.3C230.4,99,237.1,99,237.1,99z M237.1,86.2c0.4,0,0.7,0.1,0.8,0.2
				c0.2,0.2,0.3,0.5,0.3,1.1c0,0.5-0.1,0.8-0.2,1c-0.2,0.3-0.5,0.4-1,0.4h-6.4c-0.4,0-0.7-0.1-0.8-0.3c-0.2-0.2-0.3-0.5-0.3-1.1
				c0-0.5,0.1-0.9,0.3-1.1c0.2-0.1,0.4-0.2,0.8-0.2H237.1z M235.6,109v-2.7c0-0.4-0.2-0.6-0.5-0.6h-2.8c-0.4,0-0.5,0.2-0.5,0.6v2.7
				c0,0.4,0.2,0.6,0.5,0.6h2.8C235.4,109.6,235.6,109.4,235.6,109z M243.9,85.6c0.3,0.5,0.6,1,0.8,1.6c0.5,1.3,0.9,2.2,1,2.8h1.8
				c0.3-1.2,0.7-2.5,1.2-4c0.2-0.5,0.6-0.8,1.3-0.8c0.4,0,0.7,0.1,0.9,0.2c0.3,0.2,0.4,0.5,0.4,0.8c-0.1,0.5-0.4,1.8-1,3.8h1.7
				c0.4,0,0.7,0.1,0.9,0.3s0.4,0.6,0.4,1.2c0,0.5-0.1,0.9-0.2,1.1c-0.2,0.3-0.6,0.5-1.1,0.5h-4.1v3.3h3.7c0.4,0,0.7,0.1,0.9,0.3
				c0.2,0.2,0.4,0.6,0.4,1.2c0,0.5-0.1,0.9-0.2,1.1c-0.2,0.3-0.6,0.5-1.1,0.5h-3.7v3.3h4.3c0.4,0,0.7,0.1,0.9,0.3
				c0.2,0.2,0.3,0.6,0.3,1.2c0,0.5-0.1,0.9-0.2,1.1c-0.2,0.3-0.6,0.5-1.1,0.5h-4.3v5.3c0,0.5-0.1,0.9-0.3,1.1
				c-0.2,0.3-0.6,0.4-1,0.4c-0.5,0-0.8-0.2-1.1-0.4c-0.2-0.2-0.3-0.6-0.3-1.1v-5.3h-4.8c-0.4,0-0.7-0.1-0.9-0.4
				c-0.2-0.2-0.4-0.6-0.4-1.2c0-0.6,0.1-1,0.4-1.2c0.2-0.2,0.5-0.3,0.9-0.3h4.8v-3.3h-4c-0.4,0-0.7-0.1-0.9-0.4
				c-0.3-0.2-0.4-0.6-0.4-1.2c0-0.6,0.1-1,0.4-1.2c0.2-0.2,0.5-0.3,0.9-0.3h4V93H241c-0.4,0-0.7-0.1-0.9-0.4
				c-0.2-0.2-0.4-0.6-0.4-1.2s0.1-1,0.4-1.2c0.2-0.2,0.5-0.3,0.9-0.3h1.9c-0.3-0.8-0.6-1.6-0.9-2.5c-0.2-0.3-0.2-0.6-0.2-0.9
				c0-0.4,0.1-0.7,0.5-1c0.3-0.2,0.6-0.3,0.9-0.3C243.4,85.3,243.6,85.4,243.9,85.6z"/>
			<path class="st2" d="M260.4,89.8c0.3,0.2,0.5,0.5,0.5,1.1c0,0.5-0.1,1.1-0.2,2c-0.5,3.7-0.9,6.2-1.2,7.4
				c-0.2,0.5-0.6,0.7-1.2,0.7c-0.4,0-0.7-0.1-1-0.4c-0.2-0.2-0.3-0.5-0.3-0.8c0-0.2,0.1-0.6,0.2-1.3c0.5-2.5,1-5.2,1.4-8.1
				c0.1-0.5,0.4-0.8,0.7-0.8C259.9,89.6,260.2,89.7,260.4,89.8z M272.3,86.6v-0.5c0-0.4,0.1-0.7,0.4-1c0.2-0.2,0.5-0.3,1-0.3
				s0.8,0.1,1.1,0.3c0.3,0.3,0.4,0.6,0.4,1v0.5h5.3c0.4,0,0.7,0.1,0.8,0.3c0.2,0.2,0.2,0.5,0.2,0.9s-0.1,0.7-0.2,0.9
				c-0.2,0.3-0.5,0.4-0.9,0.4h-5.3v1.5h5c0.4,0,0.7,0.1,0.8,0.3c0.2,0.2,0.2,0.5,0.2,0.9c0,0.4-0.1,0.6-0.2,0.8
				c-0.2,0.3-0.5,0.4-0.9,0.4h-5v1.5h5.7c0.4,0,0.7,0.1,0.8,0.3c0.2,0.2,0.2,0.5,0.2,0.9s-0.1,0.7-0.2,0.9c-0.2,0.3-0.5,0.4-0.9,0.4
				H267c-0.3,0-0.5,0-0.6-0.2c-0.1,0-0.2,0-0.2,0c-0.3,0-0.5,0-0.6-0.1s-0.2-0.2-0.3-0.4c-0.3-1-0.7-2.3-1.3-4v18.8
				c0,0.4-0.1,0.7-0.2,1c-0.2,0.4-0.6,0.6-1.1,0.6s-0.8-0.2-1.1-0.5c-0.2-0.3-0.3-0.6-0.3-1V86.8c0-0.5,0.1-0.8,0.4-1.1
				c0.2-0.3,0.6-0.4,1-0.4s0.7,0.2,1,0.4c0.2,0.3,0.4,0.6,0.4,1.1v3l0,0c0.2-0.1,0.3-0.1,0.5-0.1c0.3,0,0.5,0.2,0.7,0.4
				c0.2,0.4,0.5,1,0.9,1.8c0-0.4,0.1-0.7,0.2-0.9c0.2-0.2,0.4-0.2,0.8-0.2h5.1v-1.5h-5.4c-0.4,0-0.7-0.1-0.8-0.3
				c-0.2-0.2-0.2-0.5-0.2-1c0-0.4,0.1-0.7,0.2-0.9c0.2-0.2,0.4-0.3,0.8-0.3h5.4V86.6z M266.7,93.3c0.2,0.5,0.3,0.9,0.4,1.3h5.3V93
				h-5.1c-0.3,0-0.5,0-0.7-0.2C266.6,93,266.7,93.2,266.7,93.3z M278.7,98.4c1.4,0,2.2,0.8,2.2,2.5v9.3c0,1-0.2,1.6-0.7,1.9
				c-0.5,0.4-1.2,0.6-2.1,0.6c-1.9,0-3.3-0.3-4.3-0.8c-0.4-0.2-0.6-0.6-0.7-1.1c0-0.9,0.3-1.4,1-1.4c0.2,0,0.4,0.1,0.7,0.2
				c1,0.4,1.9,0.6,2.7,0.6c0.3-0.1,0.4-0.2,0.4-0.5v-1.8h-8.5v3.6c0,0.5-0.2,0.9-0.4,1.1c-0.2,0.2-0.6,0.3-1.1,0.3s-0.9-0.2-1.1-0.4
				c-0.2-0.3-0.3-0.6-0.3-1v-10.7c0-1.6,0.6-2.5,1.9-2.5L278.7,98.4L278.7,98.4z M278,102.1v-0.8c0-0.3-0.1-0.5-0.3-0.5H270
				c-0.4,0-0.5,0.2-0.5,0.5v0.8H278z M278,105.5v-1.2h-8.5v1.2H278z"/>
		</g>
	</g>
</g>
</svg>
