<svg xmlns="http://www.w3.org/2000/svg" width="109.6" height="28.9" style="overflow:visible;enable-background:new 0 0 109.6 28.9" xml:space="preserve">
    <path d="M9.5.8c.2 0 .3.2.3.5v1c0 .3-.1.5-.3.5h-1v25.7c0 .2-.1.4-.4.4H7c-.2 0-.3-.1-.3-.4v-5.3c-1.6.7-3.3 1.4-4.9 2-.3.6-.5.9-.6.9-.2 0-.5-.8-1.1-2.5.5-.1 1.1-.3 1.7-.5V2.8H.9c-.2 0-.3-.2-.3-.5v-1C.6 1 .7.8.9.8h8.6zM6.7 8.1V2.8h-3v5.3h3zm0 6.9v-5h-3v5h3zm0 6.3V17h-3v5.5l3-1.2zm9-19.7c.1.2.1.3.1.3 0 .2-.1.3-.4.3-.4 0-.7.1-.8.3-.9 1.8-1.7 3.4-2.5 4.8.4.4.7.9 1.1 1.4.2-.3.4-.7.6-1 .9-1.6 1.6-3 2.2-4.4 1.1 1.1 1.7 1.7 1.7 1.8 0 .1-.1.2-.3.2-.4 0-.6.1-.6.3-1.3 2.6-2.6 5-3.9 7.2.8-.1 1.6-.2 2.6-.3-.1-.9-.3-1.8-.4-2.5 0-.2.4-.5 1.2-1 .1 0 .2.1.2.1.4 1.7.8 3.5 1.1 5.5 0 .3-.1.5-.2.5-.6.5-1.1.7-1.5.7-.1-.7-.2-1.3-.3-1.9l-5.4 1.6c-.4.5-.7.7-.8.7-.1 0-.3-.9-.6-2.7 0-.1.6-.2 1.7-.4.7-1.2 1.3-2.3 1.8-3.2-.7-.7-1.3-1.2-1.7-1.6-.3-.3-1-.8-1.6-1.2 0-.1.3-.6 1-1.4.1-.1.1-.2.2-.2.2.2.4.4.7.6.4-.8.9-1.6 1.3-2.5.7-1.4 1.1-2.5 1.5-3.3l2 1.3zm-3 15.7c0 .2-.1.4-.2.4-.2 0-.2.2-.2.6v2.9h2.5c0-.5.1-1 .1-1.6v-2.8c0-.2.1-.4.2-.4 1.5.2 2.3.3 2.3.4 0 .1-.1.3-.3.4-.2.1-.3.2-.3.6-.1 2.7-.1 4.5-.3 5.3-.1.9-.3 1.7-.5 2.4s-.5 1.3-.9 1.8c-.5.6-1.1 1.1-1.8 1.4-.4.2-.7.3-.7.3-.2 0-.3-.1-.4-.3-.1-.3-.4-.7-.7-1.2-.1-.2-.1-.3-.1-.5.6-.2 1.1-.4 1.5-.7.4-.3.7-.7 1-1.2.2-.5.4-1.2.6-2h-2.3v1c0 .2-.1.4-.4.4h-1.1c-.2 0-.3-.1-.3-.4v-6.9c0-.2.1-.2.3-.2 1.3-.1 2 0 2 .3zM23.5 1.5c.1.2.1.3.1.3 0 .2-.2.2-.4.2-.4 0-.6.1-.8.3-1 1.9-1.8 3.7-2.6 5.2.5.4 1 .9 1.4 1.3.2-.5.4-.9.6-1.3.8-1.6 1.4-3 2-4.3C25 4.3 25.6 4.9 25.6 5c0 .1-.1.2-.2.2-.3 0-.5.1-.6.2-1.1 2.5-2.3 4.8-3.4 6.9.8-.1 1.6-.2 2.7-.3-.2-.9-.3-1.6-.4-2.3 0-.2.4-.5 1.2-1 0 .3 0 .3.1.4.4 1.7.8 3.6 1.2 5.6 0 .3-.1.5-.2.5-.6.5-1.1.7-1.5.7-.1-.8-.2-1.6-.3-2.3l-4.9 1.5c-.4.5-.7.7-.8.7-.1 0-.3-.9-.6-2.7 0-.1.4-.2 1.1-.3.5-1 1-1.9 1.4-2.7-.8-.6-1.4-1-1.8-1.3-.7-.4-1.4-.7-2.1-1.1 0-.2.4-.7 1.1-1.5.1-.1.1-.2.2-.2.2.1.3.2.4.3.5-.9 1-1.9 1.4-2.8C20.3 2 20.8.8 21.1 0l2.4 1.5zm-2.4 15.3c0 .3-.1.4-.3.5-.2 0-.3.2-.3.6v3.3H23v-4c0-.2.1-.2.3-.2 1.3 0 2 .1 2 .4s-.1.4-.2.4c-.2 0-.2.2-.2.6v7.5c0 .2-.1.4-.4.4h-1.1c-.2 0-.3-.1-.3-.4v-2.7h-2.5v5.5c0 .2-.1.4-.4.4H19c-.3 0-.4-.1-.4-.4V16.8c0-.2.1-.4.4-.4 1.4 0 2.1.1 2.1.4zM36.6 1.6c.1.2.1.3.1.3 0 .2-.2.3-.4.3-.4 0-.8.1-.9.3-1.3 1.8-2.4 3.4-3.6 4.7.7.7 1.3 1.4 2 2.1.1 0 .2-.1.3-.3 1.1-1.6 2-3 2.7-4.2 1.3 1.2 2 1.8 2 2 0 .1-.1.2-.3.2-.4 0-.7.1-.8.2-1.7 2.5-3.5 4.9-5.1 7 1.2-.1 2.6-.2 4.2-.3-.3-.7-.6-1.5-.9-2.2 0-.1.5-.4 1.4-1 .6 1.2 1 2.3 1.3 3.3.3.9.6 1.9.8 2.9 0 .1-.6.3-1.7.6-.1-.6-.3-1.4-.5-2.3l-2.3.5v12.7c0 .2-.2.4-.4.4h-1.1c-.3 0-.4-.1-.4-.4V16.1l-3.2.7c-.4.6-.7.8-.8.8-.1 0-.3-1-.6-2.9 0-.1.6-.2 1.8-.3 1.1-1.4 2.1-2.7 2.9-3.8-1.1-1-1.8-1.6-2.3-2.1-1-.5-1.8-1-2.7-1.4 0-.2.4-.7 1.1-1.6.1-.1.2-.2.3-.2.3.2.7.5 1 .8.7-.9 1.3-1.7 1.9-2.6 1-1.4 1.6-2.5 2-3.2l2.2 1.3zm-4.5 17.3c0 .2-.1.4-.3.5-.2.2-.3.3-.3.6-.2 1.9-.4 3.5-.6 4.7l-.6 2.1c-.1.2-.1.2-.2.2-.6-.2-1.2-.4-1.6-.4-.2-.1-.2-.2-.2-.3.3-.9.6-1.9.9-3 .3-1.1.4-2.6.6-4.7 0-.2.1-.3.3-.3 1.3.2 2 .5 2 .6zm5.6-.1c.5 1.4 1.1 3.6 1.8 6.7 0 .2-.6.4-1.7.6-.2 0-.3-.1-.3-.3-.3-2.1-.7-4.3-1.3-6.7 0-.2.5-.4 1.4-.6 0 .1 0 .2.1.3zM45.3.7c.3.2.4.3.4.5s-.2.4-.4.6c-.4 0-.6.2-.7.6-.1.2-.1.3-.2.4h7.7c.4 0 .6 0 .7.1.1.2.2.4.2.6-.9 2.4-1.8 4.4-2.8 5.9-.6.9-1.2 1.7-1.9 2.5.6.6 1.3 1.1 2.2 1.6.9.6 2 1 3.4 1.4.1.1.2.1.2.2 0 .2-.1.3-.1.3-.4.4-.7.7-1.1 1.2-.1.2-.3.3-.3.3l-.4-.2c-.7-.2-1.4-.6-2.2-1-1-.5-1.8-1.1-2.6-1.8l-.6-.6c-.3.2-.5.5-.8.7-1.4 1.3-3.1 2.3-5 2.9-.2 0-.3-.1-.4-.4-.2-.5-.4-1-.8-1.6 0-.3.1-.5.4-.6 1-.2 2-.7 3.2-1.4.7-.4 1.3-.8 1.9-1.4l-.1-.1c-.7-.9-1.2-1.9-1.5-2.9-.2-.5-.4-1.4-.7-2.3-.5 1.2-1 2.1-1.5 2.9-.3.4-.4.6-.5.6-.1 0-.3-.1-.5-.2-.4-.2-.7-.3-1.1-.5-.2-.1-.2-.1-.2-.2s.1-.2.2-.4c1-1.4 1.7-2.6 2.2-3.7.7-1.4 1.3-2.7 1.6-4.1.1-.4.2-.6.4-.6l1.7.7zM52 17.3c.3 0 .4.1.4.3v10.7c0 .2-.2.4-.4.4h-1.1c-.3 0-.4-.1-.4-.4V27H43v1.3c0 .2-.2.4-.4.4h-1.1c-.3 0-.4-.1-.4-.4V17.7c0-.3.1-.5.4-.5H52zM50.5 25v-5.8H43V25h7.5zM45.1 6.8c.3 1.1.8 2.1 1.4 3 .1.2.3.4.4.6.5-.6 1-1.2 1.5-2 .7-1 1.4-2.2 2.1-3.6h-5.9c.1.7.3 1.4.5 2zM71 .8c0 .3-.1.4-.3.5-.2 0-.3.2-.3.6v3.4h10.7c.2 0 .3.1.3.4v1.2c0 .3-.1.5-.3.5H67c-.1 1.9-.1 3.6-.3 5h11.9c.2 0 .3.2.3.5-.1 4.3-.2 7.4-.5 9.3-.3 2.3-.7 3.9-1.2 5-.5 1.2-1.8 1.8-3.9 1.8-1.5 0-2.2-.2-2.3-.7-.1-.5-.4-1.1-.9-1.8v-.2c1.1.2 2.2.2 3.2.2 1.1 0 1.9-.4 2.2-1.2.4-.7.7-1.9.9-3.8.3-1.4.4-3.8.5-7H66.6c-.1.6-.2 1.2-.3 1.6-.5 2.6-1.2 4.7-2 6.4-.8 1.4-1.7 2.5-2.8 3.5-1 1-2.2 1.9-3.8 2.7-.6-.6-1-1.2-1.4-1.7.8-.3 1.7-.9 2.9-1.9 1.2-1.1 2.2-2.2 3-3.5 1-1.8 1.6-3.8 2-6 .4-1.8.6-4.5.7-8.1h-8.1c-.2 0-.3-.2-.3-.5V5.7c0-.2.1-.4.3-.4h11.5V.8c0-.2.1-.3.4-.3 1.6 0 2.3.1 2.3.3zm26.4 5.9c-.1-1.7-.1-3.5-.1-5.3 0-.4.1-.6.3-.6l1.8.1c.3.1.4.2.4.4 0 .3-.1.5-.3.5-.2.1-.3.4-.3.7 0 1.5 0 2.9.1 4.3h9.8c.2 0 .3.2.3.5v1c0 .3-.1.5-.3.5h-9.7c.1.8.1 1.5.2 2.2.3 2.6.8 4.9 1.5 7 .6 2 1.3 3.6 2.2 4.9.7 1.2 1.3 2.1 2 2.8.4.2.7.4.9.4.1 0 .3-.2.5-.5s.7-1.6 1.4-3.7c.1-.3.2-.5.3-.5s.2.1.2.2c.2.4.4.7.8 1 .1.2.2.4.2.6-.8 2.1-1.4 3.7-1.9 4.7-.5.7-1 1-1.3 1-.6 0-1.5-.6-2.6-1.7-1-1-1.9-2.4-2.9-4.3-.8-1.6-1.5-3.7-2.2-6.4-.6-2.3-1-4.8-1.1-7.5v-.4H84.8c-.2 0-.3-.2-.3-.5v-1c0-.3.1-.5.3-.5h12.6zm-1.5 6.7c.2 0 .3.2.3.5v1c0 .3-.1.5-.3.5h-4v8.3c1.6-.4 3.2-.8 4.6-1.3.1 0 .1-.1.2-.1s.2.1.2.2c0 1-.1 1.6-.1 1.7-3.4 1-6.8 1.9-10.2 2.7-.3.6-.5.9-.6.9-.2 0-.5-.9-1.1-2.5 1.4-.2 3.1-.6 5-1.1v-8.8h-4.3c-.2 0-.3-.2-.3-.5v-1c0-.3.1-.5.3-.5h10.3zm10.2-10.5c.8.6 1.5 1.2 2.1 1.7 0 .1-.1.2-.1.3-.6 1-1 1.4-1 1.4-.9-.8-1.8-1.6-2.8-2.3-.8-.6-1.5-.9-2-1.2 0-.1.3-.6.9-1.4l.2-.2c1 .6 1.9 1.2 2.7 1.7z" style="fill:#fff"/>
</svg>
