<svg xmlns="http://www.w3.org/2000/svg" width="80.9" height="28.7" style="overflow:visible;enable-background:new 0 0 80.9 28.7" xml:space="preserve">
    <path d="M9.4 1c.3 0 .4.1.4.4v6.9h1.1c.3 0 .4.1.4.4v4.1c0 .2-.2.4-.4.4H10c-.3 0-.4-.1-.4-.4v-2.7H1.7v2.7c0 .2-.2.4-.4.4H.4c-.3-.1-.4-.2-.4-.5V8.6c0-.2.1-.4.4-.4h1V1.3c0-.2.1-.3.4-.3h7.6zM9 12.1c.3 0 .4.1.4.4v12.6c0 .9-.1 1.5-.3 1.8-.1.4-.9.8-2.5 1.2-.4.1-.6-.1-.6-.3-.1-.4-.2-.9-.4-1.6 1.3-.1 1.9-.5 2-1.1V22H3.7v5.8c0 .2-.1.4-.4.4h-.9c-.3 0-.4-.2-.4-.4V12.5c0-.2.1-.4.4-.4H9zM4.9 8.2V4.8c0-.2.1-.4.3-.4h2.9V2.8H3.2v5.4h1.7zM7.6 16v-2H3.7v2h3.9zm0 4.1v-2.3H3.7v2.3h3.9zm.5-11.9v-2H6.5v2.1h1.6zm8.2 16.3c.3.4.5.8.7 1.2h3.4c.4-.4.8-.8 1-1.2.4-.6.7-1.1.9-1.7.1-.2.1-.2.2-.2l1.4.6c.2.1.3.2.3.3 0 .1-.1.2-.3.2-.2 0-.4.1-.4.2-.3.7-.7 1.3-1 1.7h2.7c.1 0 .2.1.2.4v1c0 .3-.1.5-.2.5H11.9c-.1 0-.2-.2-.2-.5v-1c0-.2.1-.4.2-.4h3.4c-.1-.1-.2-.3-.2-.4-.4-.7-.9-1.3-1.5-2 0-.1.4-.4 1.2-.9.6.9 1.1 1.6 1.5 2.2zm-.2-22.1v-2c0-.2.1-.2.3-.2 1.1 0 1.6.1 1.6.2 0 .2-.1.4-.2.4s-.2.2-.2.6v1h1.9v-2c0-.2.1-.2.3-.2 1.1 0 1.6.1 1.6.2 0 .2-.1.4-.2.4s-.2.2-.2.6v1h3.1c.3 0 .4.1.4.4v8.1c0 .2-.1.4-.4.4H13c-.3 0-.4-.1-.4-.4V2.8c0-.2.1-.4.4-.4h3.1zm8.4 10.5c.1 0 .2.1.2.3v1c0 .3-.1.5-.2.5H12.9c-.2 0-.2-.2-.2-.5v-1c0-.2.1-.3.2-.3h11.6zm-.4 3.1c.3 0 .4.1.4.4v5.1c0 .2-.1.4-.4.4H13.3c-.3 0-.4-.1-.4-.4v-5.1c0-.2.1-.4.4-.4h10.8zm-8-9.9v-2h-1.8v2h1.8zm0 1.5h-1.8v1.9h1.8V7.6zm6.6 10.1h-8v2.4h8v-2.4zm-5-11.6h1.9v-2h-1.9v2zm1.9 1.5h-1.9v1.9h1.9V7.6zm1.6-1.5H23v-2h-1.8v2zm1.7 1.5h-1.8v1.9h1.8V7.6zM30 21.4c0 .6 0 1.3-.1 2.3-.1 1.2-.1 2.4-.1 3.6-.1 0-.3 0-.5-.1-.4-.1-.7-.2-1.1-.3-.2 0-.3-.1-.3-.3.1-.4.1-.8.2-1.3.1-1 .2-2.3.3-4 0-.1.1-.2.2-.2 1 0 1.4.1 1.4.3zm5.3-15.2h3c.1 0 .2.1.2.4v1c0 .3-.1.5-.2.5h-3v3h3c.1 0 .2.1.2.4v1c0 .3-.1.5-.2.5h-3v3H39c.2 0 .3.1.3.4-.1 3.2-.1 5.5-.3 6.9-.2 1.7-.4 3-.7 3.8-.3.9-1 1.3-2.2 1.3-1 0-1.6-.2-1.6-.5-.1-.4-.3-.9-.6-1.4v-.2h2.2c.4 0 .8-.3.9-.9.2-.4.3-1.3.4-2.5-.2.1-.5.2-.8.2-.1-.3-.2-.8-.3-1.3-.2-.6-.4-1.1-.8-1.7 0-.1.4-.4 1.2-.8.3.7.6 1.2.8 1.8v.1c.1-.9.1-2 .1-3.2h-7.2v1.1c0 .2-.1.4-.4.4h-1.1c-.2 0-.3-.1-.3-.4V1.7c0-.2.1-.3.3-.3h9.9c.1 0 .2.1.2.3v1c0 .3-.1.5-.2.5h-3.6v3zm-4.8 0h3v-3h-3v3zM33.4 8h-3v3h3V8zm0 7.9v-3h-3v3h3zm-1.2 5.2c.2 1.4.4 2.8.5 4.1 0 .2-.1.3-.4.3l-1.3.4v-4.5c0-.1.1-.2.2-.2l.9-.2c0-.1 0 0 .1.1zm1.9-.9c.6 1.3 1 2.5 1.3 3.8 0 .2-.1.3-.4.3l-1 .3c-.1 0-.2-.1-.2-.3-.2-1-.4-2.3-.9-3.8 0-.1.1-.2.3-.2l.8-.3s.1.1.1.2zM47.7 1.1c.1.2.2.3.2.4 0 .2-.1.3-.4.3-.3 0-.4.1-.5.2.4.8.9 1.6 1.4 2.2.7.8 1.4 1.5 2 2 .9.8 2 1.5 3.4 2 .1 0 .2.1.2.2 0 .2-.1.3-.1.4-.4.3-.7.7-1 1-.1.2-.2.2-.3.2-1-.4-1.8-.9-2.5-1.4-.8-.8-1.7-1.6-2.4-2.6-.5-.6-1.1-1.4-1.7-2.4-.3.6-.7 1.1-1 1.6-.4.7-1 1.4-1.6 2.1s-1.3 1.4-1.9 2c-.6.6-1.1 1-1.5 1.2-.2 0-.3-.1-.4-.3-.2-.4-.5-.7-.8-1-.2-.2-.3-.2-.3-.3 0-.1 0-.1.1-.2.9-.5 1.6-1 2.2-1.5.8-.7 1.6-1.5 2.4-2.6.5-.7 1-1.4 1.3-2 .4-.7.7-1.4 1-2.3.1-.2.2-.2.3-.2l1.9 1zm-3.5 19.4c.2.2.3.3.3.4 0 .2-.1.3-.2.3-.2 0-.3.1-.3.3-.1.5-.3.9-.4 1.3.2.4.4.7.7.9.3.4.8.9 1.6 1.4l.1.1c0 .1-.1.2-.2.2-.2.3-.5.6-.8 1-.1.2-.2.2-.3.2-.1 0-.1 0-.3-.1-.5-.4-1-.9-1.3-1.5-.1-.1-.1-.2-.2-.3-.3.7-.6 1.3-.9 2-.4.6-.7 1.1-1.1 1.6-.2 0-.4-.1-.6-.1-.3-.2-.7-.3-1-.4-.1-.1-.2-.1-.2-.2s0-.2.1-.2c.6-.7 1.2-1.6 1.7-2.7.3-.6.6-1.3.8-2 .2-.7.5-1.7.7-2.9 0-.1.1-.2.1-.2l1.7.9zm1-8.5c.3 0 .4.1.4.4v6.3c0 .2-.1.4-.4.4h-4.4c-.3 0-.4-.1-.4-.4v-6.3c0-.2.1-.4.4-.4h4.4zm-1.3 1.7h-1.8v3.6h1.8v-3.6zm5.9-5.2c.2 0 .2.1.2.4v1c0 .3-.1.5-.2.5h-7.3c-.2 0-.2-.2-.2-.5v-1c0-.2.1-.4.2-.4h7.3zm1 11.8c.2.2.3.3.3.4 0 .2-.1.3-.2.3-.2 0-.3.1-.3.3-.2.7-.3 1.3-.5 1.8.2.5.4.9.6 1.2.3.6.7 1 1.1 1.4.5.5 1.1 1 1.8 1.3.1 0 .1.1.1.1 0 .1-.1.2-.1.3-.4.3-.8.7-1.1 1-.1.2-.2.2-.2.2-.5-.3-1-.7-1.3-1-.5-.5-.9-1-1.3-1.6-.1-.2-.3-.5-.4-.7-.2.4-.4.9-.6 1.3-.3.6-.7 1.1-1.1 1.6-.2 0-.4-.1-.6-.1-.3-.2-.7-.3-1-.4-.1-.1-.2-.1-.2-.2s0-.2.1-.2c.6-.7 1.1-1.6 1.6-2.7.3-.6.5-1.3.8-2 .2-.7.4-1.7.7-2.9 0-.1.1-.2.1-.2l1.7.8zm1.3-8.3c.3 0 .4.1.4.4v6.3c0 .2-.1.4-.4.4h-4.5c-.3 0-.4-.1-.4-.4v-6.3c0-.2.1-.4.4-.4h4.5zm-1.3 1.7H49v3.6h1.8v-3.6zm9.4-6.8V2.2c0-.6-.1-1.1-.1-1.4-.1-.2-.1-.4-.1-.6 0-.1.1-.2.5-.2l2.2.3c.2.1.3.2.3.3 0 .2-.1.3-.3.3-.4.2-.6.7-.6 1.4v4.6h3.1c.2 0 .3.2.3.5v1c0 .3-.1.5-.3.5h-3.1v6.3c1-.7 1.9-1.4 2.8-2.1.1-.1.1-.1.2-.1s.2.1.2.3c0 1.1-.1 1.7-.1 1.8-1.1.9-2.1 1.7-3.1 2.4v8.7c0 1.5-1 2.2-2.9 2.2h-2c-.2 0-.2-.2-.2-.5-.1-.4-.3-.9-.5-1.4 0-.2.1-.2.2-.2.8.2 1.6.2 2.3.2.8 0 1.2-.4 1.2-1.1V19c-.8.6-1.5 1.1-2.3 1.6-.3.6-.6.8-.8.8-.2 0-.6-.9-1.1-2.7 1.1-.5 2.5-1.2 4.2-2.2V8.9h-3.5c-.2 0-.3-.2-.3-.5v-1c0-.3.1-.5.3-.5h3.5zm12.7 0V.3c0-.2.1-.3.4-.3 1.4 0 2.1.1 2.1.3 0 .3-.1.5-.3.5-.2 0-.3.2-.3.7v5.4h5.7c.3 0 .4.1.4.4v20.6c0 .2-.2.4-.4.4h-1.1c-.3 0-.4-.1-.4-.4v-2.1H68.8v2.1c0 .2-.2.4-.4.4h-1.1c-.3 0-.4-.1-.4-.4V7.4c0-.3.1-.5.4-.5h5.6zm0 8.4V8.9h-4v6.4h4zm0 8.6v-6.7h-4v6.7h4zm1.9-8.6H79V8.9h-4.2v6.4zm4.2 8.6v-6.7h-4.2v6.7H79z" style="fill:#fff"/>
</svg>
