<svg xmlns="http://www.w3.org/2000/svg" width="137.4" height="28.6" style="overflow:visible;enable-background:new 0 0 137.4 28.6" xml:space="preserve">
    <path d="M17.1 11.4c.2 0 .4.1.4.1.3.4.5.7.5.8L13.6 17v1.9h10.9c.2 0 .3.1.3.4v1.2c0 .3-.1.5-.3.5H13.6v5c0 1.4-1 2.2-2.9 2.2H8.2c-.1 0-.2-.2-.2-.6-.1-.5-.2-1-.4-1.4 0-.2 0-.2.1-.2 1.3.1 2.3.2 3 .2.6 0 .9-.4.9-1.1v-4H.3c-.2 0-.3-.2-.3-.5v-1.2c0-.2.1-.4.3-.4h11.2v-2.8c0-.2.1-.4.4-.4l.2.1 2.5-2.6H7c-.2 0-.3-.2-.3-.5v-1c0-.3.1-.5.3-.5h10.1zM18.6.8c.2 0 .4.1.4.2.3.4.5.7.5.8l-2.4 4.3H24c.2 0 .3.1.3.4-.1 2.7-.2 4.6-.4 5.8-.3 1.4-.6 2.5-1 3.1-.4.7-1.5 1.1-3.1 1.1-.9 0-1.3-.2-1.3-.6-.1-.4-.2-1-.5-1.6v-.2c.7.1 1.3.1 1.8.1.8 0 1.4-.2 1.6-.7.3-.4.5-1.1.7-2.2.1-.7.3-1.9.3-3.4H16l-.8 1.4c-.1.2-.2.2-.3.2-1-.2-1.5-.5-1.5-.7l3.5-6H9.8c-.1.7-.3 1.3-.4 2-.3 1.1-.6 2.1-1 2.9-.4.8-.8 1.6-1.3 2.4-.5.8-1.1 1.6-1.8 2.2-.7.6-1.3 1.1-1.9 1.5-.6.3-1.2.7-1.8.9-.2 0-.3-.1-.4-.2-.3-.4-.6-.9-1-1.3-.1-.1-.2-.2-.2-.3 0-.1 0-.1.1-.2.7-.2 1.3-.5 1.9-.8.6-.3 1.1-.7 1.5-1.1.7-.6 1.3-1.3 1.8-2.1.4-.6.9-1.4 1.3-2.3.4-.6.7-1.4.9-2.1.1-.5.3-1 .4-1.5H2.7c-.2 0-.3-.2-.3-.5v-1c0-.3.1-.5.3-.5h15.9zm15.3 0c0 .2-.1.3-.4.5-.2.1-.3.3-.4.6-.1 1.4-.3 2.9-.5 4.6h3.7c.2 0 .3.1.5.2.3.3.5.5.5.7-.2 2.1-.4 3.8-.6 5.2-.3 1.5-.6 2.9-1 4.3-.2.9-.6 1.9-1 3.1-.1.1-.1.2-.1.2l.3.3c.6.6 1.1 1.2 1.6 1.8 0 .1.1.1.1.2s-.4.5-1.3 1.1c-.1 0-.1 0-.2-.1L33.9 22c-.2.4-.4.7-.6 1-.4.7-1 1.5-1.7 2.3-.5.6-1.3 1.3-2.3 2.1-.2 0-.3-.1-.4-.3-.3-.3-.7-.6-1.1-.8l-.2-.2c0-.1 0-.2.1-.2 1-.7 1.9-1.4 2.6-2.1.7-.7 1.4-1.6 1.9-2.7.1-.1.1-.2.2-.3-.4-.3-.8-.7-1.3-1-.4-.2-.8-.5-1.2-.7-.1.5-.3 1-.4 1.5-.1 0-.3 0-.5-.1-.4-.1-.8-.2-1.3-.3-.1-.1-.2-.2-.2-.4.6-1.6 1-3 1.5-4.5.5-1.9 1-4.1 1.4-6.7h-1.9c-.2 0-.3-.2-.3-.5V7c0-.3.1-.5.3-.5h2.2c.3-2.1.4-4.2.4-6.2 0-.2.1-.3.2-.3 1.7.3 2.6.6 2.6.8zm-.2 17.1c.4-1.3.8-2.6 1.1-4 .2-1.4.5-3.2.8-5.4h-3.2c-.2 1.1-.4 2.2-.6 3.4-.3 1.7-.7 3.5-1.2 5.3.5.3 1.1.7 1.6 1.1.4.3.8.6 1.1.8.1-.5.3-.8.4-1.2zm5.4 2.8c.2 0 .3.1.3.3-.4 2.4-.8 4.4-1.4 6l-.1.2c-.3 0-.5-.1-.6-.1-.3-.2-.6-.3-1-.4-.2-.1-.2-.2-.2-.3.8-1.8 1.4-3.6 1.7-5.4.1-.3.2-.4.4-.4l.9.1zm8-15h4.6c.2 0 .3.2.3.5v1c0 .3-.1.5-.3.5h-4.6v3h4.6c.2 0 .3.2.3.5v1c0 .3-.1.5-.3.5h-4.6V16h5.8c.2 0 .3.2.3.5-.1 3.2-.1 5.5-.3 6.9-.2 1.7-.4 3-.7 3.8-.3.9-1.1 1.3-2.3 1.3-1.3 0-2-.2-2-.6-.1-.4-.4-1-.8-1.5v-.2h2.8c.5 0 .8-.3.9-.9.1-.5.3-1.4.4-2.7.1-1 .2-2.5.2-4.6H40.6v.7c0 .2-.1.4-.4.4h-1.1c-.3 0-.4-.1-.4-.4V1.2c0-.3.1-.5.4-.5h13.3c.2 0 .3.2.3.5v1c0 .3-.1.5-.3.5h-5.3v3zm-6.5 0h4.5v-3h-4.5v3zm4.5 1.9h-4.5v3h4.5v-3zm0 8.3v-3.3h-4.5v3.3h4.5zM42 20.5c.2 0 .3.1.3.2.1 1.7.2 3.5.2 5.4 0 .2-.1.2-.3.2h-1c-.3 0-.5-.1-.5-.2.1-1.6.2-3.4.2-5.4 0-.2.1-.2.2-.2h.9zm3.3-.1c.5 1.8.8 3.3 1 4.6 0 .2-.1.2-.4.3l-1.4.1c-.1 0-.2-.1-.2-.3-.1-1.4-.2-3-.4-4.5 0-.2.1-.3.3-.3h1c0-.2.1-.1.1.1zm3-.8c.6 1.3 1.1 2.5 1.5 3.8 0 .3-.1.4-.4.4l-1.3.3c-.1 0-.2-.1-.3-.3-.2-1-.6-2.3-1.1-3.8 0-.2.1-.2.3-.3l1-.3c.1 0 .2.1.3.2zm15-15.7c.3 0 .4.1.4.3v18.1c0 .2-.2.4-.4.4h-1.1c-.3 0-.4-.1-.4-.4v-1.9H58v3.3c0 .2-.2.4-.4.4h-1.1c-.3 0-.4-.1-.4-.4V4.4c0-.3.1-.5.4-.5h6.8zm-1.6 14.5V5.8h-3.8v12.6h3.8zM72 10.8V.6c0-.2.1-.4.4-.4 1.4 0 2.1.1 2.1.4 0 .3-.1.4-.3.5-.2 0-.3.2-.3.6v9.1h6.7c.2 0 .3.2.3.5v1c0 .3-.1.5-.3.5h-6.1c.8 2.3 1.5 4 2.1 5.3.7 1.5 1.5 2.9 2.5 4.1.8 1.1 1.6 1.9 2.4 2.4 0 .1-.1.2-.3.3-.4.4-.7.8-.9 1.1-.1.1-.2.2-.3.2-1.3-1.1-2.3-2.4-3-3.6-.9-1.4-1.7-2.9-2.3-4.4-.3-.6-.5-1.1-.8-1.8v11.5c0 .2-.2.4-.4.4h-1.1c-.3 0-.4-.1-.4-.4V16.7c-.3.7-.6 1.4-.9 1.9-.8 1.5-1.6 2.9-2.4 4.1-1 1.4-2 2.5-2.9 3.5-.2 0-.4-.1-.5-.2l-1.1-1.1c-.1-.1-.1-.2-.1-.3.9-.8 1.7-1.6 2.3-2.3.9-1 1.8-2.4 2.7-4.1.6-1.1 1.4-2.9 2.4-5.5h-6.3c-.2 0-.3-.2-.3-.5v-1c0-.3.1-.5.3-.5H72zm-4.6-8.7c.8 1.8 1.6 3.7 2.3 5.7 0 .3-.1.5-.2.5-.6.4-1.2.7-1.5.7-.7-2.4-1.4-4.5-2.1-6.1 0-.2.4-.5 1.2-1 .2 0 .2.1.3.2zm13.3.6c.3.2.4.3.4.5s-.1.3-.3.4c-.3 0-.4.2-.5.4-.7 2-1.4 3.5-2.1 4.7-.2.2-.3.3-.4.3-.1 0-.3-.1-.4-.2-.4-.2-.7-.3-1.1-.5-.2-.1-.3-.1-.3-.2s0-.2.1-.3c.6-1 1.1-1.8 1.5-2.6.5-.9.8-1.9 1.1-2.9.1-.3.1-.4.3-.4l1.7.8zm18.6 10.4v-2.6c0-.7 0-1.2-.1-1.6-.1-.2-.1-.5-.1-.7 0-.2.1-.2.4-.2l2.4.3c.2.1.3.2.3.3 0 .2-.1.3-.4.3-.4.2-.6.7-.6 1.6V13h7.1c.2 0 .3.1.3.4v1.2c0 .3-.1.5-.3.5h-7.1V26c0 1.6-1 2.4-3 2.4h-2.6c-.2 0-.2-.2-.2-.6-.1-.4-.3-.9-.5-1.5 0-.2.1-.3.2-.3 1.1.2 2 .3 2.9.3.8 0 1.2-.4 1.2-1.1v-10H84.5c-.2 0-.3-.2-.3-.5v-1.2c0-.2.1-.4.3-.4h14.8zM98.1.6c0 .3-.1.4-.3.5-.2 0-.3.2-.3.6v2.1h10c.3 0 .4.1.4.3v5.7c0 .2-.2.4-.4.4h-1.1c-.3 0-.4-.1-.4-.4V5.7H86.8v4.1c0 .2-.2.4-.4.4h-1.1c-.3 0-.4-.1-.4-.4V4.2c0-.3.1-.5.4-.5h10.3V.6c0-.2.1-.4.4-.4 1.4 0 2.1.1 2.1.4zm-6.4 18.2c.9.8 1.7 1.5 2.3 2.1 0 .1-.1.2-.1.3-.6 1-.9 1.4-1 1.4-1-1.1-2-2-3.1-2.9-.9-.7-1.7-1.2-2.2-1.5 0-.1.3-.6.9-1.4l.2-.2c1.2.9 2.2 1.6 3 2.2zm28-13.4c.2 0 .3.2.3.5v1c0 .3-.1.5-.3.5H112c-.2 0-.3-.2-.3-.5v-1c0-.3.1-.5.3-.5h7.7zm-.6 13c.3 0 .4.1.4.4v8.1c0 .2-.2.3-.4.3H118c-.2 0-.3-.1-.3-.3v-1h-3.4v1.7c0 .2-.1.4-.4.4h-1.1c-.2 0-.3-.1-.3-.4v-8.7c0-.3.1-.5.3-.5h6.3zm-.3-4.4c.2 0 .3.2.3.5v1c0 .3-.1.5-.3.5h-5.6c-.2 0-.3-.2-.3-.5v-1c0-.3.1-.5.3-.5h5.6zm0-12.9c.2 0 .3.2.3.5v1c0 .3-.1.5-.3.5h-5.5c-.2 0-.3-.2-.3-.5v-1c0-.3.1-.5.3-.5h5.5zm0 8.6c.2 0 .3.2.3.5v1c0 .3-.1.5-.3.5h-5.5c-.2 0-.3-.2-.3-.5v-1c0-.3.1-.5.3-.5h5.5zM117.7 24v-3.6h-3.4V24h3.4zm8-17.1c.3.2.4.3.4.5s-.1.3-.4.3c-.4 0-.6.1-.7.4-.1.2-.2.4-.3.5h4c.2-.3.4-.6.5-.9.2-.4.4-.8.5-1.2 0-.1.1-.2.1-.2l1.5.7c.2.1.4.2.4.4 0 .1-.1.1-.1.2-.1 0-.2.1-.2.2-.1.4-.3.7-.4.9h5.1c.1 0 .2.1.2.4v.7c0 .2-.1.4-.2.4h-5.2v1.3h4.5c.1 0 .2.1.2.3v.7c0 .2-.1.4-.2.4h-4.5v1.3h4.5c.1 0 .2.1.2.3v.7c0 .2-.1.3-.2.3h-4.5V17h5.5c.1 0 .2.1.2.4v.7c0 .2-.1.3-.2.3h-13.1c-.3 0-.4-.1-.4-.3v-6.5c-.2.2-.4.5-.6.7-.2.2-.4.3-.5.3-.1 0-.3-.1-.5-.2-.4-.2-.7-.3-1.1-.5-.2-.1-.2-.1-.2-.2l.2-.2c.9-.9 1.6-1.7 2-2.4.7-.9 1.1-1.7 1.5-2.6.1-.2.2-.4.4-.4l1.6.8zm2-6.3c0 .2-.1.4-.2.4-.2 0-.2.2-.2.6v4c0 .2-.2.4-.4.4h-1.1c-.2 0-.3-.1-.3-.4V4.1h-4.1c-.2 0-.2-.2-.2-.5v-1c0-.2.1-.4.2-.4h4.1V.5c0-.2.1-.2.3-.2 1.3-.1 1.9 0 1.9.3zm7 19.3c.3 0 .5 0 .6.1.1.1.2.3.2.5-1 1.5-2 2.6-3.1 3.5-.4.3-.8.7-1.2.9.8.4 1.6.7 2.4.9 1 .3 2.2.5 3.6.7.2 0 .4.1.4.2s-.1.2-.2.4c-.3.4-.5.7-.7 1.1-.1.2-.2.2-.3.2-1.9-.4-3.3-.8-4.3-1.2-1.1-.4-1.9-.8-2.7-1.2-.5.2-1 .5-1.5.7-1.6.8-3.5 1.4-5.6 1.7-.1 0-.3-.1-.4-.3l-.6-1.2c0-.2.1-.3.4-.4 1.1-.1 2.3-.4 3.7-.8.8-.2 1.6-.5 2.3-.9-.3-.2-.6-.5-.8-.7-.6-.6-1.4-1.5-2.3-2.7h-2.2c-.2 0-.2-.1-.2-.4v-1c0-.2.1-.4.2-.4h12.3zm-5.8-9.8h-4.2v1.3h4.2v-1.3zm0 2.8h-4.2v1.3h4.2v-1.3zm0 4.1v-1.3h-4.2V17h4.2zm-1.3 5.7c.5.5 1.1.9 1.8 1.4.4-.3.9-.6 1.3-.9.6-.4 1.2-.9 1.8-1.5h-6c.4.3.7.7 1.1 1zM132.5.6c0 .2-.1.4-.2.4-.2 0-.2.2-.2.6v.6h4.1c.1 0 .2.1.2.4v1c0 .3-.1.5-.2.5h-4.1v1.6c0 .2-.2.4-.4.4h-1.1c-.2 0-.3-.1-.3-.4V.5c0-.2.1-.2.3-.2 1.2-.1 1.9 0 1.9.3z" style="fill:#fff"/>
</svg>
