<svg xmlns="http://www.w3.org/2000/svg" width="87.7" height="329.7" style="overflow:visible;enable-background:new 0 0 87.7 329.7" xml:space="preserve">
    <style>
        .st0{fill:#f69a87}.st1{fill:#ebadae}.st2{fill:#122444}.st4{fill:#a84f37}.st5{fill:#dad5d2}.st6{fill:#f7b6bd}.st15{fill:#7c3b00}.st17{fill:#32637a}.st18{fill:#fff}
    </style>
    <path class="st0" d="M60.4 70.8c8.2-2.1 14 23.7 16.4 28 2.3 4.1 7.9 14.5 8 19 .1 4.5-10-11.5-11.2-13-4.1-5.4-11.8-20.4-14.1-25.6-2.6-5.7.9-8.4.9-8.4z"/>
    <path class="st1" d="M56.6 56.4c9.4 0 13.6 15.2 15.1 21.6 1 4.5 1.2 8.7 3.8 16.2 1.2 3.3 3.1 7.9-.6 10.2-5.7 3.6-9.4.9-10.4-1.2-3.3-7.3-16-29.1-17.4-35.8-1.7-7.4 9.5-11 9.5-11z"/>
    <path class="st1" d="M72.1 88.9c1 0 2.6-1.6 3.7-1 1.5.8.1 2.6.7 3.7.7 1.2 2.9.6 3.3 2.1.3 1.1-.6.8-.8 1.6-.3 1.1-.1.7.4 1.7.8 1.4 1.8 2.1-.2 2.9-1.4.5-2.8.3-4.2 1-2.7 1.3-5.3 2.4-8.1 3.4-1.2.5-2.5 1.3-3.7.4-1.3-1-.1-1.6-.3-3-.3-1.5-1.3-.7-2.3-1.9-.9-1.2 0-1.8.2-3.1-2.7-.2.3-2.8 1.1-3.3 1.4-1 3-1.6 4.4-2.4l5.8-2.1z"/>
    <path class="st0" d="M51.1 253c-1.1-14.2 1.6-18.9.7-28.8.4-6 5.7-7.6 9.2-8 4.5-.5 8 5.9 8 5.9-1.3 8.7 1.8 16 1.6 30.6-.2 16.8-5.4 60.4-5.4 60.4.3 2.5 5.4 4.6 11.2 7.6 0 0 3.1 2.6 2.8 3.1-.7 1.5-1.5 1.4-3.1 1.3-4-.4-7.4-1.9-11.2-2.6-1.9-.4-5.8-.8-7-2.3-1.5-1.9-1.3-4.3-1.1-6.6.2.1-4.6-46.5-5.7-60.6zm-7.3 67.9c-5.8-3-10.1-5.6-10.4-8 0 0 6.7-43 6.9-59.8.2-14.6-2.3-21.1-.9-29.8 0 0-6.1-7.4-10.7-6.9-3.5.4-6.4 1.9-6.8 7.9.8 9.8-2.8 14.3-1.7 28.5 1.1 14.2 3.9 61.1 3.9 61.1-.2 2.3-.3 4.7 1.2 6.6 1.2 1.5 5.1 1.9 7 2.3 3.8.8 7.2 2.2 11.2 2.6 1.6.1 2.4.3 3.1-1.3.3-.7-2.8-3.2-2.8-3.2z"/>
    <path class="st0" d="M69 223.1c-1.4 7.1-4.2 8.3-10.4 8.7-6.2.3-5.5-.3-6.3-5.9-3.9-3.4-3-46.9-3.5-49.6-3.1-20.3-4.4-33.7-4.4-33.7l.2-27.3h21.2c2.4 7.5 8.4 26.9 8.4 43.8.1 26.1-4.7 59.9-5.2 64z"/>
    <path class="st0" d="M22.2 223.1c1.4 7.1 4.2 8.3 10.4 8.7 6.2.3 4.7.9 5.4-4.6 2.9-1.1 3.9-48.2 4.3-50.9 3.1-20.3 4.4-33.7 4.4-33.7l19.9-14-3.9-13.2H25.3c-2.4 7.5-8.4 26.9-8.4 43.8.1 26 4.8 59.8 5.3 63.9z"/>
    <path class="st2" d="m47.9 195.5-4.7-38.2-.4-14.7.2-27.3h21.2c1.2 3.8 3.7 10.3 5.9 18.1 2.3 9.4 4.2 19.7 4.2 25.4 0 11.6 1.1 23.8 0 35.1 0 0-4.5 3.6-26.4 1.6z"/>
    <path class="st2" d="M48 148.5s-3.7 35.2-4.8 46.4c-17.2 4-27.9-2-28.1-2.2-.4-11.6 1.1-22.2 1.1-33.7 0-16.9 7.3-36.6 9.8-44.2l38.2.5 4.5 13.2-20.7 20z"/>
    <path style="fill:#021533" d="M24.5 119.4h41v-5.1H25.1z"/>
    <path class="st4" d="M20.7 2.2c-3.2 3-2.8 6.5-2.6 10.2.2 2.9-.9 5.6-2.7 8-3.5 4.6-9.1 8-11.4 13.2-2.3 5.2-.2 8.3 2 12.9 1.9 3.9 1.7 7.3.5 11.2C5.3 62.2 4 66.3 4 71c0 1.9-.5 4.7.2 6.5.9 2.3 4.3 4.1 6.6 5.1 4 1.8 8.8.9 11.6-2.2 3.7-4.2 2.4-10.1 6.8-14 4.8-4.2 9.4-8.9 10.1-15.1.5-4-1.3-8-.8-12 .4-3.4 3.3-6.4 4.1-9.8 1.1-4.2 1.4-8.1.4-12.5-.5-2.4-1-4.7-2.1-7-1.8-3.8-2.7-7.2-7.4-8.8-4.2-1.5-9.4-2.1-12.8 1z"/>
    <path class="st0" d="M26.4 54.9c1 0 10.8-6.3 6.3-22l2.1-2.3c5.2 1 17.2 1 15 5.4-8.8 17.4 6.2 20.3 7 20.3 0 0 2.9 14.1-10.8 14.1-13.8 0-17.8-11-18.7-12.6-1-1.8-.9-2.9-.9-2.9z"/>
    <path class="st5" d="M32.2 48.7c1.7-3.5 2.6-8.7.6-15.8l1.8-1.9c5.4.8 10.9 1.8 15.5 3.7.1.4 0 .9-.2 1.4-1.7 3.4-2.5 6.4-2.7 8.8-2.1.1-4.6-.1-6.8.2-3.4.4-6.3 2.1-8.2 3.6z"/>
    <path class="st6" d="M26.4 54.9c-6.4.6-10.1 1.5-10.9 3.7-.9 2.4 3.7 12.3 6.6 35 1.1 8.3-6.6 48.5-7.2 50.7 0 0 20.1 10.1 59.1.8 0 0-5.4-40.5-5-45.1.3-4.1-3.3-8.4-1.5-11.3 8.5-13.5-7.3-20.9-9.8-32.2 0 0-.9-.2-1.2-.3-1.9-.6-6.3-2-8.5-5.6l-16.1-1.8c.2 1.7-5.5 6.1-5.5 6.1z"/>
    <path class="st5" d="M22.1 93.5C20 77.1 17 67.4 15.9 62.3c1 .1 1.9.3 2.8.5 4.5 4.8 5.7 10 6.4 16 .7 5.9-.3 24.7-.6 27.2-.4 3.1-3.6 23.3-6.3 39.4-2.2-.7-3.3-1.3-3.3-1.3.6-2.1 8.3-42.3 7.2-50.6z"/>
    <path class="st6" d="M20.4 56.4C7.2 54.9 7.7 68.6 5.9 74.4 4.2 79.8 2.5 91.6.4 97c-1.3 3.3.5 6.8 3.5 8.3 6.5 3.5 10.6.1 11.6-2 3.6-7.3 10.1-29.3 11.7-36 1.6-7.3-6.8-10.9-6.8-10.9z"/>
    <path class="st4" d="M46.1 12.7c1.6 0 3.2.2 4.8.4 2.6.4 8.1.7 8.4 3.7l.4 4.3c1.1 2.4-1.2 15.8-13.6 18V12.7z"/>
    <path class="st0" d="M31.5 18.1c2.8-5.8 8.4-6.6 8.4-6.6 1.1-.2 2.2-.4 3.4-.5v-.1c.2 0 .4 0 .7.1.2 0 .4 0 .7-.1v.1c1.1.1 2.2.3 3.4.5 0 0 5.5.7 8.4 6.6 1.8 3.7.9 5.4.6 8.9-.2 3.3-.1 4-.8 6.7-.9 3.5-4.2 6.3-7.6 8.5-1.6.9-3.1 1.3-4.6 1.2-1.5.1-3-.3-4.6-1.2-3.4-2.2-6.7-5-7.6-8.5-.7-2.7-.6-3.4-.8-6.7-.5-3.5-1.4-5.2.4-8.9z"/>
    <path d="M30.4 3.7c2.5-2.1 15.8-3.8 23.2 1 5.8 3.7 8.2 9 7.8 15.3-.1 1.2-.2 2.5-.5 3.7-.1.7-1.1 3.9-1.1 3.9-6.6-1.5-5-8.7-12.3-8.9-6.2-.2-7.8-4.6-7.8-4.6-1 6-2.1 7.7-5 9.2-2.2 1.1-1.5 6.2-2.8 5-1.5-1.4-.8 1.5-.8 1.5s1.2 2.1.5 1.5c1 1.5 1 4.5 1 4.5-4.6-3.5-7.7-7.7-8.5-13.4-1.8-12.3 3.8-16.6 6.3-18.7z" style="fill:#be5b40"/>
    <path class="st0" d="M32 28.6c-.7-2.4-4.8-4.5-5.4-.8-.4 3.1 3.6 9.4 5.4 3.6v-2.8z"/>
    <path class="st5" d="M55.3 55.6s-3.8 6.3-18.3 3.3c-8.1-1.7-9.9-4.5-9.9-4.5l1.5-1.3 26.7 2.5z"/>
    <path class="st6" d="M47.2 47.4c-.1-.6-.2-2.2-.1-2.6.4.2 5.6-.1 4.8 3.9-.4 2-.4 2.7 1.3 3.3 1.1.4 1.7 2.5 2 3.6 0 0-13.9 7.4-26.7-2.5-4.2-3.2 1.4-5.4 1.4-5.4.5-1.3-.6-2.7 0-4 1.2-2.5 2.9-1.9 3.9-2 0 2.1.2 2.7 2.8 3.9 1.9.9 7 2.2 10.6 1.8z"/>
    <path d="M51.3 28.2s.3-.7 1.2-.7c.9 0 1.1.7 1.1.7m-13.2 0s-.3-.7-1.2-.7c-.9 0-1.1.7-1.1.7" style="fill:none;stroke:#540806;stroke-width:1.0316;stroke-linecap:round;stroke-linejoin:round;stroke-miterlimit:10"/>
    <path class="st4" d="M42.1 24.9c-.2-.4-.8-.7-1.2-.9-.4-.2-.9-.3-1.4-.4-.4 0-.9.1-1.3.2-.6.2-1.2.3-1.6.8-.3.4 0 1 .5 1.1.5.2 1.1-.1 1.5-.2.2 0 .3-.1.5-.1.1 0-.2 0 0 0h.4-.1.6s-.2 0 0 0c.1 0 .2 0 .3.1.1 0 .2.1.3.1h.1s.2.1.1 0h.1c.1 0 .2.1.3.1.2.1.3.1.5.1.4.1.6-.5.4-.9zm8.3.9c.3 0 .6-.1.8-.3h.1c.1 0 .1 0 .2-.1.1 0 .2-.1.3-.1.1 0 .2 0 .3-.1h.1c.1 0 .1 0 0 0 0 0-.1 0 0 0h.5-.1.4c.2 0 0 0 0 0 .1.1.4.1.5.1.5.1 1.1.4 1.6.2.4-.1.8-.7.5-1.1-.4-.5-1-.6-1.5-.8-.4-.1-.9-.2-1.3-.2-.5 0-.9.2-1.3.4-.5.2-1 .5-1.3 1-.6.5-.3 1.1.2 1z"/>
    <path d="M49.9 25.5c-.1 0-.3 0-.4.1l-.3.3-.6.6c-.1.2-.3.5-.4.7-.1.1-.1.3-.2.4 0 .2 0 .3.1.5 0 .1.2.1.3.1.1-.1.2-.1.3-.3 0-.1.1-.2.1-.2v-.1c.1-.2.2-.5.4-.7.1-.2.2-.5.4-.7.1-.1.2-.2.2-.4.1 0 .1-.1.1-.3zm-2.3 4.6c-.1.3-.3.7-.3 1.1 0 .3.1.7.1 1 .1.3.1.5.2.8 0 .1.1.2.1.4 0 .1 0-.1 0 0v.3c0-.1 0-.1.1-.2s-.1.1 0 0l-.2.2s-.1 0-.1.1c-.1 0-.1.1-.2.1-.3.1-.6.2-.8.1-.2 0-.3.2-.1.3.4.3 1 .3 1.5.2.3-.1.5-.2.7-.4.2-.2.1-.5.1-.8-.1-.4-.3-.8-.4-1.3-.1-.3-.1-.5-.2-.8-.1-.3-.1-.6-.1-1-.2-.2-.3-.3-.4-.1z" style="fill:#bdb7b2"/>
    <path d="M49.4 35.9c-2.8.4-7.6-.6-7.6-.6-.4 3.4 4.7 5.1 5.5 3.3.9-2 2.1-2.7 2.1-2.7z" style="fill:#efefee"/>
    <path d="M49.4 35.8h-2.3c-.8 0-1.6-.1-2.5-.2-.9-.1-1.8-.3-2.7-.4-.1 0-.2.1-.2.2-.2 1.8 1 3.2 2.6 3.9.7.3 1.4.5 2.1.3.3-.1.6-.2.8-.4.3-.3.5-.7.7-1 .3-.6.6-1.2 1-1.7.1-.2.3-.4.5-.5.1-.1 0-.2 0-.2-.5.3-.9.6-1.2 1-.4.5-.7 1-1 1.5-.1.2-.3.4-.5.5-.6.3-1.2.1-1.8 0-.7-.2-1.4-.6-1.9-1.2-.6-.7-1-1.6-.9-2.5-.1.1-.2.1-.2.2.9.2 1.9.3 2.8.4.8.1 1.7.2 2.5.2s1.6.1 2.3-.2c-.1.2-.1.1-.1.1z" style="fill:#a67c51"/>
    <path class="st5" d="M46 40.1c-.2-.2-.5-.4-.8-.5-.1 0-.3-.1-.5-.1h-.2c-.1 0-.2 0-.3.1-.1.1-.3.1-.4.2 0 .1-.1.2 0 .3l.1.1h.1s.1 0 0 0c.1 0 .3.1.4.1h.2s-.1 0 0 0h.1c.1 0 .1 0 .2.1h.2c.1 0 .3.1.4.1.1 0 .3 0 .3-.1.3-.1.3-.3.2-.3z"/>
    <path class="st6" d="M65.8 88.6c.8 6.7 19.4 14 16.6 31.9-2.3 14.5-11.5 16.6-11.6 21.5"/>
    <path class="st5" d="M52.5 145c10.8 0 20.7-5.8 20.7-7.5l.9 7.5s-12.1 2.8-21.6 0zm15.1-56.4c-4.9 2.7-11.6-1.3-13.8-1.3-2.1 0-13.9 7.4-21.3 0 7.9 9.7 20 .5 22.3 1.6 7.9 3.6 12.8-.3 12.8-.3z"/>
    <path class="st5" d="M65.8 125.7c-.9 3.6-6.5 2.3-9.5 2.3-4.7-.2-10-4.4-14-6.6-4.8-2.6-16.4-4-22.2-7.4l.6-2.7c1.9-2.3 8.2-3 10.5-2.1 6.5 2.4 12.3 7.3 19.2 9l15.4 7.5z" style="opacity:.52"/>
    <path class="st0" d="M7.9 99.8c3.4-5.6 9-.8 12.9 1.4 5.3 3 22.9 12.3 24.7 12.7 1.8.4 3.7 1.1 6.1 1 2.8-.1 5.1.2 7.6 1.2.9.4 2.6 1.3 2.4 1.9-.3 1-1.2.7-2.8.1-.4-.2-1.8-.3-2.7-.7 2.1 1.7 7.3 2.6 9.7 4.8 1.4 1.4 1.9 2.5.1 3.8-2.2 1.5-3.6-.1-6-.2-.9 0-2.4.8-5.2-.4-1.6-.7-3.3-1.6-4.6-2.6-1.7-1.2-3.8-2.1-5.3-2.8-1.4-.8-24.3-7.2-29.3-10-5.8-3.2-9-7.9-7.6-10.2z"/>
    <path class="st6" d="M11.6 93.3c1-.4 1.9-2.5 3.3-2.4 1.9.1 1.3 2.3 2.5 3.1 1.3.8 3.3-.6 4.5.5.9.9-.2 1-.1 1.8.2 1.1.2.7 1.2 1.3 1.5 1 2.9 1.2 1.2 2.7-1.2 1.1-2.7 1.4-3.8 2.6-2.2 2.3-4.3 4.4-6.7 6.5-1 .9-2 2.2-3.6 1.8-1.8-.4-.8-1.4-1.7-2.5-1-1.2-1.7-.1-3.3-.8-1.6-.7-.9-1.7-1.3-2.9-2.9.9-1-2.6-.4-3.5 1-1.5 2.3-2.7 3.4-4l4.8-4.2z"/>
    <path class="st0" d="M82.3 114c5.7 4 3.4 8.5.5 10.1-4.7 2.6-5.3-2-2.7-4 2-1.5 2.5-2.9 2.5-2.9l-.3-3.2z"/>
    <path d="M64.7 233.6c.7 2.4-.2 5-2.2 6.6-.3.3.1.7.5.5 2.2-1.8 3.2-4.6 2.4-7.2-.1-.4-.8-.3-.7.1zm-31.8 0c.7 2.4-.2 5-2.2 6.6-.3.3.1.7.5.5 2.2-1.8 3.2-4.6 2.4-7.2-.1-.4-.8-.3-.7.1z" style="fill:#682f19"/>
    <path d="M21 179.4c-.2 0-.4-.2-.4-.4.1-3.2.6-6.3 1.4-9.4.6-2.1 1.7-3.4 2.8-4.7.6-.7 1.1-1.3 1.7-2.2 1.8-2.6 2.5-5.7 2-8.4 0-.2.1-.4.3-.4.2 0 .4.1.5.3.6 2.9-.2 6.2-2.1 8.9-.6.9-1.2 1.5-1.7 2.2-1.1 1.3-2.1 2.5-2.7 4.5-.9 3-1.3 6.1-1.4 9.3 0 .2-.1.3-.4.3zm46.1-20.1c-.1 0-.1 0 0 0-.3 0-.4-.2-.4-.4.7-3 .6-6.1-.4-9-.1-.2.1-.4.3-.4.2-.1.4 0 .5.2 1 3 1.2 6.3.5 9.4-.2.1-.3.2-.5.2z" style="fill:#dddbff"/>
    <path class="st15" d="M28.3 23c-.2 0-.3-.1-.4-.2-.1-.2 0-.4.2-.5 1.6-.6 3.2-1.1 4.5-2.1 1.4-1 2.2-2.4 2.1-3.6 0-.5-.1-.9-.3-1.4l-.1-.4c-.2-1-.4-2.1-.3-3.1 0-.9.3-3.8 2.8-4.6.2-.1.4 0 .5.2.1.2 0 .4-.2.5-1.7.5-2.3 2.4-2.3 4 0 1 .1 2 .3 2.9l.1.4c.1.5.3 1 .3 1.5.1 1.5-.9 3.1-2.4 4.2-1.4 1-3.1 1.6-4.7 2.2h-.1zm25.4-2.3c-.2 0-.4-.2-.4-.3 0-1-.3-3.4-2.2-4.2-.5-.2-1-.3-1.6-.4-.8-.1-1.7-.3-2.4-.8s-1-1.2-1.3-1.9c-.2-.5-.4-1-.8-1.3-.1-.2-.1-.4.1-.5.2-.1.4-.1.6.1.4.5.7 1 .9 1.5.3.6.6 1.2 1.1 1.6.5.4 1.3.5 2 .6.6.1 1.2.2 1.8.5 2.3 1 2.6 3.7 2.7 4.8-.1.2-.3.3-.5.3z"/>
    <path class="st15" d="M56.6 22.6c-.3 0-.4-.2-.4-.4.4-2 .7-4-.3-5.8-1-1.9-3.3-3-5.2-3.9-.2-.1-.3-.3-.2-.5.1-.2.4-.2.6-.1 1.9 1 4.4 2.2 5.5 4.2 1.1 1.9.8 4.2.4 6.2 0 .1-.2.3-.4.3zM10.4 42.9c-.1 0-.2 0-.3-.1-.2-.1-.2-.4 0-.5 1.2-1.1 1.7-2.8 1.5-5.1 0-.6-.1-1.2-.2-1.8-.2-1.3-.4-2.6-.2-3.9.3-2.6 1.9-5.1 5-7.9l.6-.6c1.5-1.3 3-2.6 3.6-4.3.4-1.2.4-2.5.3-3.9 0-.6-.1-1.3-.1-2 .1-2.8 1.3-5.5 3.3-7.6.1-.1.4-.2.6 0 .2.1.2.4 0 .5-1.9 2-3.1 4.5-3.1 7.1 0 .6 0 1.3.1 1.9.1 1.4.2 2.8-.3 4.1-.7 1.8-2.2 3.2-3.8 4.6l-.6.6c-3 2.7-4.5 5-4.8 7.5-.2 1.2 0 2.5.2 3.8.1.6.2 1.2.2 1.8.2 2.5-.4 4.4-1.7 5.6-.1.1-.2.2-.3.2zM5.9 62.7c-.2 0-.4-.2-.4-.4.1-1.7 1.3-3 2.4-4.4 1-1.2 2-2.4 2.2-3.7.1-.6 0-1.3 0-2-.1-.9-.2-1.8.1-2.7.4-1.1 1.2-1.9 2-2.7.7-.7 1.4-1.4 1.8-2.2.3-.7.4-1.5.5-2.3v-.2c.5-5.1 2.1-10.2 4.8-14.8.1-.2.3-.2.5-.2.2.1.3.3.2.5-2.6 4.5-4.3 9.5-4.7 14.5v.2c-.1.8-.1 1.7-.5 2.5-.4.9-1.2 1.7-1.9 2.4-.8.8-1.6 1.5-1.9 2.4-.3.8-.2 1.6-.1 2.4.1.7.1 1.4 0 2.1-.3 1.5-1.3 2.8-2.4 4-1.1 1.3-2.1 2.5-2.2 4 0 .4-.2.6-.4.6z"/>
    <path class="st15" d="M15.2 49.6c-.1 0-.3-.1-.3-.2-.1-.2-.1-.4.1-.5 1.8-1 1.7-3.2 1.6-3.9 0-.5-.1-1.1-.2-1.6-.2-1-.4-2.1-.2-3.2.2-1.8 1.4-3.4 2.5-4.9.9-1.2 1.8-2.4 2.2-3.8.5-1.5.3-3.1.2-4.7-.2-2-.3-4 .7-5.9.1-.2.3-.3.5-.2.2.1.3.3.2.5-.9 1.7-.7 3.6-.6 5.6.1 1.7.3 3.4-.2 5-.5 1.5-1.4 2.7-2.3 4-1.1 1.5-2.2 2.9-2.4 4.6-.1 1 0 2 .2 3 .1.6.2 1.1.3 1.7.2 2.1-.6 3.8-2 4.6-.2-.2-.2-.1-.3-.1zM10.8 23c-1.3 0-2.6-.6-3.4-1.5-.8-.9-1-2.1-.6-3.2.1-.2.3-.3.5-.2.2.1.3.3.3.4-.3.9-.1 1.8.5 2.6.6.7 1.6 1.2 2.6 1.2.6 0 1.3-.1 1.9-.3.8-.2 1.5-.4 2.3-.3 1.8-3.3 3.4-6.6 4.9-10 .1-.2.3-.3.5-.2.2.1.3.3.2.5-1.5 3.5-3.2 7-5 10.3-.1.1-.3.2-.4.2-.8-.1-1.5.1-2.3.3-.6 0-1.3.2-2 .2z"/>
    <path d="M36.4 50.9c-1.6 0-3.2-.5-4.4-1.4-.3-.2-.6-.5-.9-.8-.4-.3-.7-.7-1.1-.9-.2-.1-.2-.3-.1-.5s.4-.2.6-.1c.5.3.8.7 1.2 1 .3.3.5.5.8.7 1.2.9 2.9 1.4 4.5 1.2.2 0 .4.1.4.3 0 .2-.1.4-.4.4-.1.1-.3.1-.6.1zm9 1.4c-.2 0-.4-.2-.4-.3 0-.2.2-.4.4-.4 2 0 3.9-.7 5.4-1.8.2-.1.4-.1.6 0 .1.1.1.4 0 .5-1.7 1.2-3.8 1.9-6 2 .1 0 0 0 0 0zm-23.6 48.6c-.1 0-.1 0 0 0-1.9-.3-3.3-2-3.1-3.6 0-.2.2-.3.4-.3s.4.2.4.4c-.2 1.3 1 2.6 2.4 2.8.2 0 .4.2.3.4-.1.2-.3.3-.4.3zm-2.1 1.4c-.2 0-.4-.1-.5-.2v-.1c-1.1-.3-1.9-1.1-2.1-2 0-.2.1-.4.3-.4.2 0 .4.1.5.3.2.7.9 1.3 1.7 1.5.4.1.7.3.7.5s-.1.4-.3.5c-.1-.1-.2-.1-.3-.1zm-.2-.3zm-2.1 2.1c-.1 0-.2 0-.3-.1-.3-.2-.8-.3-1.3-.4-.6-.1-1.3-.2-1.8-.6-.2-.1-.2-.4 0-.5.1-.1.4-.2.6 0 .3.2.8.3 1.3.4.3 0 .6.1.9.1-.5-.3-.9-.7-1.3-1.2-.1-.2-.1-.4.1-.5.2-.1.4-.1.6.1.5.6 1.2 1.2 2 1.6.1.1.2.2.2.3 0 .1 0 .2-.1.3l-.5.4c-.2.1-.3.1-.4.1zm-1.3 2.7H16c-1.6-.5-3.1-1.5-4.2-2.6-.1-.2-.1-.4.1-.5.2-.1.4-.1.6 0 1 1.1 2.3 1.9 3.8 2.4.2.1.3.3.2.5 0 .1-.2.2-.4.2zm-3.2 1.8c-.1 0-.2 0-.2-.1-1-.6-1.9-1.2-2.7-2-.2-.1-.1-.4 0-.5.2-.1.4-.1.6 0 .8.7 1.6 1.3 2.5 1.9.2.1.2.3.1.5 0 .1-.1.2-.3.2zm60.7 15c-.1 0-.2 0-.3-.1-.2-.1-.2-.3-.1-.5 2.8-3.2 4-7.5 2.9-11.5-.2-.8-.5-1.5-.9-2.1-.5-.8-1.1-1.4-1.9-2-.2-.1-.2-.3-.1-.5s.4-.2.6 0c.8.6 1.6 1.4 2.1 2.2.4.6.7 1.4.9 2.3 1.1 4.2 0 8.7-3.1 12.1.1.1 0 .1-.1.1zm-51.2 21.9h-.1c-.2-.1-.3-.3-.3-.4.8-2 1.1-4.2.9-6.3 0-.2.1-.4.4-.4.2 0 .4.1.4.3.2 2.2-.1 4.5-.9 6.5-.1.2-.3.3-.4.3zm2.6.6h-.2c-.2-.1-.3-.3-.2-.4.6-1.3.9-2.6 1-3.9 0-.2.2-.3.4-.3s.4.2.4.4c-.1 1.2-.3 2.3-.7 3.5.1.1.1.3 0 .4l-.3.4c-.1-.1-.2-.1-.4-.1zm2.7 1.3h-.1c-.2-.1-.3-.3-.3-.4.4-1.2.4-2.5 0-3.7-.1-.2.1-.4.3-.4.2-.1.4 0 .5.2.5 1.3.5 2.8 0 4.1-.1.1-.2.2-.4.2zm3.2-.4s-.1 0 0 0c-.3 0-.4-.2-.4-.4.2-.9.2-1.9.1-2.9 0-.2.1-.4.4-.4.2 0 .4.1.4.3.1 1 .1 2-.1 3-.1.3-.2.4-.4.4zm3.7 1.3h-.1c-.2-.1-.3-.3-.2-.5.5-1.2.6-2.6.2-3.8-.1-.2.1-.4.3-.4.2 0 .4.1.5.2.4 1.4.4 2.9-.2 4.2-.2.2-.4.3-.5.3zm3.3-.2c-.3 0-.4-.2-.4-.4.1-.9 0-1.8-.2-2.6 0-.2.1-.4.3-.4.2 0 .4.1.5.3.2.9.3 1.9.2 2.9 0 .1-.2.2-.4.2zm3.8-.2c-.3-.1-.4-.2-.4-.4.3-1.2.1-2.6-.5-3.7-.1-.2 0-.4.2-.5.2-.1.4 0 .5.2.7 1.3 1 2.7.6 4.1 0 .2-.2.3-.4.3zm3.3.4s-.1 0 0 0c-.3 0-.4-.2-.4-.4.3-1.1.1-2.3-.5-3.3-.1-.2 0-.4.2-.5.2-.1.4 0 .5.2.7 1.2.8 2.5.5 3.7 0 .2-.1.3-.3.3zm3.9-.2c-.2 0-.4-.1-.4-.3L48 145c0-.2.1-.4.3-.4.2 0 .4.1.5.3l.5 2.8c.1.2-.1.4-.4.4.1 0 .1 0 0 0zm4.1-.3h-.1c-.2 0-.3-.2-.3-.4.1-.8-.1-1.6-.6-2.2-.1-.2-.1-.4.1-.5.2-.1.4 0 .6.1.4.6.6 1.2.7 1.9.2.1.3.3.2.5l-.2.4c-.1.1-.3.2-.4.2zm3.5-.6c-.2 0-.3-.1-.4-.2l-.8-1.5c-.1-.2 0-.4.2-.5.2-.1.4 0 .5.2l.8 1.5c.1.2 0 .4-.2.5h-.1zm4-.4c-.2 0-.4-.2-.4-.3 0-.5-.2-1-.5-1.5-.1-.2-.1-.4.1-.5.2-.1.4-.1.6.1.4.6.6 1.2.6 1.8 0 .3-.2.4-.4.4zm3.8-.3c-.1 0-.2 0-.3-.1-.1-.1-.1-.2-.1-.3 0-.7-.4-1.4-1-1.8-.2-.1-.2-.3-.1-.5s.4-.2.6-.1c.7.4 1.2 1 1.3 1.7.1-.1.2-.1.3-.1.2 0 .4.2.3.4-.1.5-.5.8-1 .8zm4-.6c-.1 0-.1 0 0 0-.3 0-.4-.2-.4-.4 0-.7-.3-1.4-.7-2-.1-.2-.1-.4.1-.5.2-.1.4-.1.6.1.4.5.7 1 .8 1.5h.1c.2.1.3.3.2.5l-.2.5c-.2.2-.4.3-.5.3zm4.1-.5c-.2 0-.4-.1-.4-.3-.2-1.1-.8-2.1-1.6-2.8-.2-.1-.2-.4 0-.5.2-.1.4-.1.6 0 1 .9 1.7 2 1.9 3.2 0 .1-.2.3-.5.4.1 0 .1 0 0 0zM21.9 70.6c-.3 0-.4-.2-.4-.4.8-3.8 0-7.8-2.3-11.1-.1-.2-.1-.4.1-.5.2-.1.4-.1.6.1 2.4 3.4 3.3 7.6 2.4 11.6 0 .1-.2.3-.4.3zm52.9 26.5c-.1 0-.2 0-.3-.1-2.2-2-3.6-4.6-4.1-7.3 0-.2.1-.4.3-.4.2 0 .4.1.5.3.4 2.6 1.8 5 3.9 6.9.2.1.2.4 0 .5-.1.1-.2.1-.3.1z" style="fill:#d3008f"/>
    <path class="st17" d="M23.1 324.9c7.3 1.8 19 2.6 26.3 4.4 1.2.3 2.4.6 3.5.4 1.2-.2 2.3-1 2.5-2.1.1-1.2-.9-2.1-1.9-2.9-4.7-3.6-10.6-5.8-15-9.7-.8-.7-1.5-1.4-2.5-1.9s-2.2-.5-3.1.1c-.5.4-.8 1-1.3 1.4-1.1 1-3.1.8-4.5.1-.8-.4-1.6-1-2.6-1.1-.9-.1-2 .7-1.7 1.5l.3 9.8z"/>
    <path class="st18" d="M55 327.6c-4-.8-8.1-1.6-12.2-2.2-4.1-.6-8.1-1.2-12.2-1.6-2.3-.3-4.6-.5-6.9-.7-.3 0-.3.5 0 .5 4.1.3 8.2.8 12.3 1.3 4.1.5 8.1 1.2 12.1 1.9 2.3.4 4.5.9 6.8 1.3.3.1.4-.4.1-.5z"/>
    <path class="st18" d="M28.1 323.4c-.8-1.9-2.2-3.5-4.1-4.7-.3-.2-.5.3-.3.4 1.7 1 3.1 2.6 3.9 4.4.1.3.6.2.5-.1zm20.8 2.7c-.2-.9.3-1.8 1.2-2.2.1-.1.2-.2.1-.3-.1-.1-.2-.1-.4-.1-1.1.5-1.7 1.7-1.4 2.7.1.4.6.2.5-.1zm-8.4-4.4 1.5-1.8c.1-.1.1-.2 0-.3-.1-.1-.3-.1-.4 0l-1.5 1.8c-.1.1-.1.2 0 .3.2.1.4.1.4 0zm-1.3-1.2c0-.7.6-1.4 1.4-1.6.3-.1.2-.6-.2-.5-1 .3-1.7 1.1-1.7 2.1 0 .1.1.2.3.2.1 0 .2-.1.2-.2zm-1.9-1.5c.7-.7 1.3-1.5 1.5-2.4.1-.3-.4-.4-.5-.1-.3.8-.7 1.6-1.4 2.2-.2.2.2.5.4.3z"/>
    <path class="st17" d="M55.4 324.9c7.3 1.8 19 2.6 26.3 4.4 1.2.3 2.4.6 3.5.4s2.3-1 2.5-2.1c.1-1.2-.9-2.1-1.9-2.9-4.7-3.6-10.6-5.8-15-9.7-.8-.7-1.5-1.4-2.5-1.9s-2.2-.5-3.1.1c-.5.4-.8 1-1.3 1.4-1.1 1-3.1.8-4.5.1-.8-.4-1.6-1-2.6-1.1-.9-.1-2 .7-1.7 1.5l.3 9.8z"/>
    <path class="st18" d="M87.3 327.6c-4-.8-8.1-1.6-12.2-2.2-4.1-.6-8.1-1.2-12.2-1.6-2.3-.3-4.6-.5-6.9-.7-.3 0-.3.5 0 .5 4.1.3 8.2.8 12.3 1.3 4.1.5 8.1 1.2 12.1 1.9 2.3.4 4.5.9 6.8 1.3.3.1.4-.4.1-.5z"/>
    <path class="st18" d="M60.4 323.4c-.8-1.9-2.2-3.5-4.1-4.7-.3-.2-.5.3-.3.4 1.7 1 3.1 2.6 3.9 4.4.1.3.6.2.5-.1zm20.8 2.7c-.2-.9.3-1.8 1.2-2.2.1-.1.2-.2.1-.3-.1-.1-.2-.1-.4-.1-1.1.5-1.7 1.7-1.4 2.7.1.4.6.2.5-.1zm-8.4-4.4 1.5-1.8c.1-.1.1-.2 0-.3-.1-.1-.3-.1-.4 0l-1.5 1.8c-.1.1-.1.2 0 .3.2.1.4.1.4 0zm-1.3-1.2c0-.7.6-1.4 1.4-1.6.3-.1.2-.6-.2-.5-1 .3-1.7 1.1-1.7 2.1 0 .1.1.2.3.2.1 0 .2-.1.2-.2zm-1.9-1.5c.7-.7 1.3-1.5 1.5-2.4.1-.3-.4-.4-.5-.1-.3.8-.7 1.6-1.4 2.2-.2.2.2.5.4.3z"/>
    <path d="M66.4 124.3c-3.4 0-6.7-1.1-9.4-3-.2-.1-.2-.3-.1-.5s.4-.2.5-.1c2.6 1.8 5.7 2.8 9 2.8.2 0 .4.2.4.4-.1.3-.2.4-.4.4zm-3.2 2.4h-.1c-2.4-.8-4.7-1.7-6.9-2.9-.2-.1-.2-.3-.1-.5s.3-.2.5-.1c2.2 1.1 4.5 2.1 6.8 2.8.2.1.3.3.2.4-.1.2-.2.3-.4.3z" style="fill:#7f4a24"/>
</svg>
