<svg xmlns="http://www.w3.org/2000/svg" width="97.5" height="321.1" style="overflow:visible;enable-background:new 0 0 97.5 321.1" xml:space="preserve">
    <style>
        .st1{fill:#0d2241}.st2{fill:#f6a472}.st3{fill:#dad5d2}.st5{fill:#002243}.st6{fill:#b5bcdf}.st7{fill:#00001a}.st8{fill:#000a29}.st9{fill:#bdb7b2}.st10{fill:#f8bab4}.st11{fill:#8387c1}.st12{fill:#682f19}.st13{fill:#4300ee}.st14{fill:#6300db}.st15{fill:#7f4a24}
    </style>
    <path d="M10.1 202.3s10.3 9.9 38.5 9.9h.3c28.2 0 38.5-9.9 38.5-9.9S84.8 55.8 50.1 55.8c-34.7 0-40 146.5-40 146.5z" style="fill:#464c7c"/>
    <path class="st1" d="M72.9 47.4c.1-1.3.9-2.4 1.8-3.9 1.7-2.7 2.5-4.1.8-7.1-1.3-2.3-3.2-3.1-2.8-6.1.3-2 2.2-3.7 2.4-5.8.6-4.2-3.5-7.3-4.5-11.1s-.4-6.4-5.1-8.3C62.3 3.8 60.6 3 58.6.9s-6.6-.7-10 .8c-3.4-1.5-8-2.9-10-.8-2 2.1-3.7 2.8-6.9 4.2-3.9 1.6-4.8 3.6-4.8 6.6 0 3-1.1 4.5-2.9 7.1-4.5 6.4 4.3 12.8 0 19.5-1.3 2-3.4 3.5-3 6.1.4 2.5 2.7 4.4 2.9 7 .3 3.9-1.3 5.6-3 8.8-2.9 5.5 1.9 7.1 3.8 11.7 1.8 4.5-5.2 8.1-1.5 12.6 1.5 1.9 4.8 2.4 4.7 5.1-.1 2-2.4 3.8-2.3 6.2.3 6.4 7 2.9 10.1 7 2.6 3.5 1.7 6 7.4 5.9 3.7 0 9.2 1.9 12.5 1.1 7.7-1.8 3.6-7.4 5.7-11.9 2.5-5.3 12.2-2.6 12.3-9.7.1-5.4-5.6-7.2 0-12 2.3-2 3.7-3.2 3.1-6.1-.6-3-3.9-5-3.2-8.2.5-2.2 3-3.8 3.1-6.1.1-2.5-2.3-3.7-3.3-5.8-.3-1-.5-1.8-.4-2.6z"/>
    <path class="st2" d="M64.1 56.4c-1.3 0-6.6-2-8.9-5-1.6-4.4-3-8.9-1.3-10.6 3-3.1 4.6-4.3 2.3-5.9-2.2-1.6-4.9-2.5-7.7-3.2-2.8.7-5.4 1.7-7.6 3.2-2.2 1.6-.7 2.8 2.3 5.9 1.7 1.7.3 6.2-1.3 10.6-2.3 3-7.6 5-8.9 5 0 0-8.5 16 15.5 16 24.1 0 15.6-16 15.6-16z"/>
    <path class="st3" d="M53.9 40.8c3-3.1 4.6-4.3 2.3-5.9-2.2-1.6-4.9-2.5-7.7-3.2-2.8.7-5.4 1.7-7.6 3.2-2.2 1.6-.7 2.8 2.3 5.9.1.1.2.2.2.3 0 0 .8 1.5 4.1 2.4 4.5 1.2 5.8 4.3 6.8 5.6-1.1-3.6-1.7-6.9-.4-8.3z"/>
    <path d="M21.3 217.3s27 5.5 55.1-.5l-44.6-62.5-10.5 63z" style="fill:#a0a7c6"/>
    <path class="st2" d="M45.7 246.7c1.1-14.5-2.5-18.9-1.7-28.9-.4-6.1-5.8-7.6-9.4-8-4.6-.5-8.2 6-8.2 6 1.4 8.9-1.8 16.3-1.6 31.1.2 16.4 2.4 47.3 3.5 59.6-.3 2.5-4.5 6.4-9.4 9.6 0 0-3.2 2.6-2.9 3.2.8 1.5 1.6 1.4 3.2 1.3 4.1-.4 7.5-1.9 11.4-2.7 2-.4 5.9-.8 7.1-2.3 1.5-1.9.2-4 0-6.3l.2-2.3c-.1-.1 6.7-45.8 7.8-60.3zM78.3 316.1c-5.9-3-9.4-7.7-9.7-10.2 0 0-.1-.3-.1-.9 0 0 4.1-41 4.3-58.2.2-14.9-3-22.3-1.6-31.1 0 0-3.6-6.5-8.2-6-3.6.4-9.8 3.1-10.2 9.2.8 10-2.9 13.3-1.8 27.8 1.1 14.5 8.4 60.6 8.4 60.6l.1 1.9c-.2 2.3-1.6 4.4 0 6.3 1.3 1.6 5.2 1.9 7.1 2.3 3.8.8 7.3 2.3 11.4 2.7 1.6.2 2.4.3 3.2-1.3.2-.5-2.9-3.1-2.9-3.1z"/>
    <path class="st5" d="M27.8 315.1c-2.2.7-6.6 2.4-8.9 1-2.5 1.3-4.5 2.6-4.7 3.2-.5 1.8 3 2 4.6 1.8 4.1-.4 7.8-2 11.7-2.7 2-.4 6.3-.9 7.5-2.5 1.3-1.7.9-4.2-.2-5.8-2.3 2.7-6.4 3.9-10 5zM69.4 315.1c2.2.7 6.6 2.4 8.9 1 2.5 1.3 4.5 2.6 4.7 3.2.5 1.8-3 2-4.6 1.8-4.1-.4-7.8-2-11.7-2.7-2-.4-6.3-.9-7.5-2.5-1.3-1.7-.9-4.2.2-5.8 2.3 2.7 6.4 3.9 10 5z"/>
    <path class="st2" d="M26.6 216.7c1.4 7.2 4.2 8.5 10.6 8.8 6.4.3 5.1 2.6 5.8-3 4.7 3.5 3.7-50.7 4.1-53.4 3.1-20.6 4.4-34.3 4.4-34.3v-17.6H27.9c-2.7 7.9-6.7 17.2-6.7 34.4.1 26.6 4.9 61 5.4 65.1z"/>
    <path class="st2" d="M71 216.7c-1.4 7.2-4.2 8.5-10.6 8.8-6.4.3-7-.9-7.7-6.5.1-2.8-1.8-47.2-2.2-49.9-3.1-20.6-4.4-34.3-4.4-34.3L26.8 121l1.1-3.8h41.8c2.7 7.9 6.7 17.2 6.7 34.4 0 26.6-4.9 61-5.4 65.1z"/>
    <path class="st6" d="M77.9 134c-.7-17.4-8.8-45.1-7.3-48.3 6-12.7 1.9-23.6 1.7-27.7L64 56.4s-.3 16-15.4 16-15.4-16-15.4-16C26.6 57.1 25 58 25 58c-.2 3.8-4.2 17.1 3 27.7 2.7 4-5.7 30.9-6.6 51.1-.1 1.6-1 69.9-.1 80.4 0 0 12.9-10.8 11.6-36 0 0 3.6 37.9 43.6 35.5-.1.1 1.5-79.9 1.4-82.7z"/>
    <path class="st2" d="M61.1 17.2c-2.8-5.8-8.3-6.6-8.3-6.6-1.1-.2-2.2-.4-3.4-.5V10c-.2 0-.4 0-.7.1-.2 0-.4 0-.7-.1v.1c-1.1.1-2.2.3-3.4.5 0 0-5.5.7-8.4 6.6-1.8 3.7-.9 5.4-.6 8.9.2 3.3.1 4 .8 6.7.9 3.5 4.2 6.3 7.6 8.5 1.6.9 3.1 1.3 4.6 1.2 1.5.1 3-.3 4.6-1.2 3.4-2.2 6.7-5 7.6-8.5.7-2.7.6-3.4.8-6.7.4-3.5 1.3-5.2-.5-8.9z"/>
    <path class="st1" d="M46.5 7.4C37 9.2 33.3 16.5 31.2 23.9c.5 1.7 1.1 2.8 1.9 3.1.6.2.4-.4.8-.6.9-.3.9.2 1.9.2 2.1 0 .9-3.1 2.4-4.2.7-.5 1.6-.6 2.3-1.2.8-.8 1.2-2 1.4-2.9.4-2.1.6-3 2.9-4 2.1-.9 3.5-2.1 4.8-3.8-.9 2.6.4 4 3 4.9 2.4.8 3.5 1.9 3.6 4.2 0 .8-.2 2.1.7 2.6.8.6 1.9.2 2.7 1.1 1.2 1.4-.4 4.8 1.7 5.2 3.5.5 5.1-3.8 5.6-6.3-3.6-7.3-9.5-16.9-20.4-14.8z"/>
    <path class="st2" d="M37 27.8c-.7-2.4-4.8-4.5-5.4-.8-.4 3.1 3.6 9.4 5.4 3.6v-2.8zM60.5 27.8c.7-2.4 4.8-4.5 5.4-.8.4 3.1-3.6 9.4-5.4 3.6v-2.8z"/>
    <path class="st3" d="M47.6 38.7c.1 0 .2-.1.4-.1h.2c.1 0 .1 0 .2-.1H48.7s-.1 0 0 0H49c.1 0 .1 0 .2-.1h.2c.1 0 .2-.1.2-.2 0-.2-.2-.3-.3-.4-.1 0-.1-.1-.2-.1h-.3c-.2 0-.3 0-.5.1-.2 0-.3.1-.5.2-.1.1-.3.2-.4.3-.1.1-.1.2 0 .3 0 0 .1.1.2.1z"/>
    <path class="st7" d="M55.7 28c1.4 0 1.4-2.2 0-2.2-1.3 0-1.4 2.2 0 2.2z"/>
    <path class="st8" d="M53.5 24.5c.3 0 .6-.1.8-.3h.1c.1 0 .1 0 .2-.1.1 0 .2-.1.3-.1.1 0 .2 0 .3-.1h.1c.1 0 .1 0 0 0s-.1 0 0 0h.5-.1.4c.2 0 0 0 0 0 .1.1.4.1.5.1.5.1 1.1.4 1.6.2.4-.2.8-.7.5-1.1-.4-.5-1-.6-1.5-.8-.4-.1-.9-.2-1.3-.2-.5 0-.9.2-1.3.4-.5.2-1 .5-1.3 1-.5.5-.3 1 .2 1z"/>
    <path class="st7" d="M41.1 28c1.4 0 1.4-2.2 0-2.2s-1.4 2.2 0 2.2z"/>
    <path class="st8" d="M43.8 23.6c-.2-.4-.8-.7-1.2-.9-.4-.2-.9-.3-1.4-.4-.4 0-.8.1-1.3.2-.6.2-1.3.3-1.6.8-.1.2-.1.5 0 .7.1.2.3.3.5.4.5.2 1.1-.1 1.5-.2.2 0 .4 0 .5-.1h-.1.4-.1.6-.1c.1 0 .2 0 .3.1.2 0 .4.1.5.2h.1c.1 0 .2.1.3.1.1.1.3.1.4.1.7-.1.9-.6.7-1z"/>
    <path class="st9" d="M44.8 24.1c0 .1 0 .3.1.4 0 .1.2.3.2.4.2.3.4.5.6.8.2.2.4.5.5.7.1.1.1.2.2.4l.3.3c.1.1.3.1.3-.1 0-.1.1-.3.1-.5s-.1-.3-.2-.4c-.2-.3-.4-.6-.6-.8l-.7-.7c-.1-.1-.2-.2-.4-.3-.1-.1-.2-.1-.4-.2zM47.4 29c0 .3 0 .6-.1.9-.1.2-.1.5-.2.7-.1.4-.3.8-.4 1.2-.1.2-.1.4-.1.6 0 .3.1.5.3.6.4.3.8.3 1.2.2.4-.1.9-.1 1.3-.3.1-.1 0-.3-.1-.3-.4.1-.8 0-1.1-.1-.2-.1-.4-.1-.6-.2h-.1s-.1-.1 0 0c0 0-.1 0-.1-.1.1 0 .1 0 0 0 0 .1 0 .1.1.2V32.1c0-.1 0 0 0 0 0-.1 0-.2.1-.4.1-.3.1-.5.2-.8.1-.3.1-.6.1-.9 0-.4-.1-.8-.3-1.1 0-.1-.2-.1-.2.1z"/>
    <path class="st10" d="M51.8 35s-1.5.1-2.3-.1c-.3-.1-.8 0-1.1.2-.4-.2-.8-.3-1.2-.2-.7.3-2.3.2-2.3.2s1 2.1 3.5 2.1 3.4-2.2 3.4-2.2z"/>
    <path class="st10" d="M51.8 34.9h-.3c-.2.1-.4.2-.7.3-.3.1-.7.2-1 .3-.5.1-1 .1-1.5.1-.8 0-1.7-.2-2.5-.5-.1-.1-.3-.1-.4-.1h-.2c-.1 0-.1 0-.2-.1 0 0-.1-.1 0 0-.1-.1-.2.1-.1.1-.1 0 0 0 0 .1l.2.2c.1.1.3.3.6.5.9.4 1.8.5 2.7.5.9 0 1.8-.2 2.6-.6.3-.1.7-.3.8-.6.1-.1.1-.2 0-.2z"/>
    <path class="st6" d="M70.6 85.7H27.9c0 15.1-9 15.3-10.4 33.9-1.5 18.6 13.8 32.7 31.8 32.7s31.7-14.1 31.7-33c-.1-15.8-10.4-18.4-10.4-33.6z"/>
    <path class="st3" d="M49.2 148c-16.4 0-23.2-9.7-23.2-9.7 3.9 7.7 12.9 11.3 23.2 11.3 10.3 0 19.2-3.5 23.2-11.2 0 0-6.8 9.6-23.2 9.6zM49.2 85.4c-2.9 0-11.3 8.8-21.3.4 9.5 9.7 17.5 2.4 21.3 1.4 3.9 1 11.8 8.3 21.3-1.4-10.1 8.4-18.4-.4-21.3-.4z"/>
    <path class="st11" d="M42.4 50.2s-2.5 3.2-7.3 4.7c-6.1 1.9-17 3.8-19.6 9.5C11 74.5 2.2 95.4.2 104.6c-2 9.2 15.4 12.4 17.7 6.6 0 0-8.8 32.5-12.3 59.8-2.3 17.7 0 31.4 4.4 31.4 0 0 4.3-21.8 7.3-62.4 2.4-31.3 12-45.1 11.4-61.1C28.2 63 40.3 60 42.4 50.2zM54.7 50s2.8 3.3 7.6 4.9c6.1 1.9 17 3.8 19.6 9.5 4.6 10.1 13.4 31.9 15.4 40.2 1.9 8.4-12.7 11.4-15.1 5.6 0 0 7.7 33.5 11.2 60.8 2.3 17.7.8 29.9-6 31.4 0 0-7.6-23.3-5.7-63.9 1.3-26.6-12.7-42.3-12.2-59C70 64.6 57.3 60.7 54.7 50z"/>
    <path class="st3" d="M36.7 94.8c1.8-1.4 3.9-2.5 6.2-3.1 2.3-.6 4.8-.8 7.2-.6 2.4.2 4.8.7 7 1.5s4.3 1.9 6.1 3.3c-2-1.2-4.1-2.2-6.3-2.9-2.2-.7-4.5-1.2-6.9-1.3-2.3-.2-4.7 0-7 .5-2.2.5-4.3 1.4-6.3 2.6z"/>
    <path class="st2" d="M94.4 104.3c-5.7-4.1-9.4 1.3-12.1 4.7-3.7 4.7-11.8 18.9-13.3 19.9s-2.2 2.5-4.5 3.2c-2.7.9-4.7 1.9-6.6 3.7-.7.7-1.8 2.1-1.4 2.6.7.9 1.5.3 2.7-.9.3-.3 1.6-.9 2.2-1.6-1.2 2.3-5.7 4.9-7 7.8-.8 1.8-.7 3 1.6 3.6 2.8.7 3.3-1.3 5.5-2.2.9-.3 2.6-.1 4.7-2.1 1.2-1.1 2.4-2.6 3.2-4 1-1.7 2.3-4.1 3.3-5.3 1-1.2 15.2-13.8 18.6-18.1 4.1-5 5.4-9.7 3.1-11.3zM5.7 104.3c5.7-4.1 10 1.3 12.8 4.7 3.7 4.7 11.7 18.5 13.2 19.5s1.7 2.9 4 3.6c2.7.9 4.7 1.9 6.6 3.7.7.7 1.8 2.1 1.4 2.6-.7.9-1.5.3-2.7-.9-.3-.3-1.6-.9-2.2-1.6 1.2 2.3 5.7 4.9 7 7.8.8 1.8.7 3-1.6 3.6-2.8.7-3.3-1.3-5.5-2.2-.9-.3-2.6-.1-4.7-2.1-1.2-1.1-2.4-2.6-3.2-4-1-1.7-2.3-4.1-3.3-5.3-1-1.2-15.2-13.8-18.6-18.1-4.2-5-5.5-9.7-3.2-11.3z"/>
    <path class="st12" d="M67.6 228.9c.7 2.4-.2 5-2.2 6.6-.3.3.1.7.5.5 2.2-1.8 3.2-4.6 2.4-7.2-.2-.4-.8-.3-.7.1zM31.3 228.9c-.7 2.4.2 5 2.2 6.6.3.3-.1.7-.5.5-2.2-1.8-3.2-4.6-2.4-7.2.1-.4.8-.3.7.1z"/>
    <path class="st13" d="M81.8 102.5c-.2 0-.3-.1-.4-.2-1.8-4-3.6-8-5.3-12-.8-1.8-1.7-4.1-2.3-6.3-.5-2.2-.6-4.5-.8-6.7-.1-1.7-.2-3.4-.5-5.1-.4-2.7-1.8-7.5-6.1-9.7-.2-.1-.3-.3-.1-.5.1-.2.4-.2.6-.1 4.6 2.4 6 7.5 6.5 10.3.3 1.7.4 3.4.5 5.1.1 2.2.3 4.4.8 6.6.5 2.2 1.5 4.4 2.2 6.2 1.7 4 3.5 8.1 5.3 12 .1.2 0 .4-.2.5-.1-.1-.1-.1-.2-.1zM18.9 97.4h-.2c-.2-.1-.3-.3-.2-.5 3.5-5.5 5.5-11 5.9-16.3.1-.9.1-1.8.2-2.7.1-1.9.2-3.8.6-5.6.6-2.3 1.7-4.4 2.8-6.5.6-1.2 1.3-2.4 1.8-3.7.1-.2.3-.3.5-.2.2.1.3.3.2.5-.5 1.3-1.2 2.5-1.8 3.7-1.1 2-2.2 4.1-2.7 6.3-.5 1.8-.5 3.7-.6 5.5 0 .9-.1 1.8-.2 2.7-.5 5.4-2.5 11-6 16.6-.1.2-.2.2-.3.2zM89.9 196.6c-.2 0-.3-.1-.4-.2-2.3-5.4-3.5-11-3.5-16.8 0-.2.2-.4.4-.4s.4.2.4.4c.1 5.7 1.2 11.2 3.5 16.5.1.2 0 .4-.2.5h-.2zM10.5 182.8c-.2 0-.4-.2-.4-.4.5-7.7 1.3-15.5 2.6-23.1 0-.2.2-.3.5-.3.2 0 .4.2.3.4-1.2 7.6-2.1 15.4-2.6 23 0 .3-.2.4-.4.4zM33.7 182.2c-.3 0-.4-.2-.4-.4.6-5.6.2-11.3-1-16.8 0-.2.1-.4.3-.4.2 0 .4.1.5.3 1.3 5.6 1.6 11.3 1 17 0 .1-.2.3-.4.3zM69.6 215.3c-.1 0-.1 0 0 0-7.3-1.2-14.3-5.4-19.3-11.7-.1-.2-.1-.4.1-.5.2-.1.4-.1.6.1 4.8 6.1 11.7 10.3 18.7 11.4.2 0 .4.2.3.4-.1.2-.2.3-.4.3zM23 207.7h-.2c-.2-.1-.3-.3-.2-.5 2.5-4 3.9-8.6 4-13.2 0-.2.2-.4.4-.4s.4.2.4.4c-.1 4.7-1.5 9.4-4.1 13.5 0 .2-.2.2-.3.2z"/>
    <path class="st14" d="M70.7 37.8c-.1 0-.2 0-.3-.1-.2-.1-.2-.4 0-.5.6-.6.9-1.5.7-2.5-.1-.8-.5-1.5-.8-2.3l-.3-.5c-1.1-2.4-1.3-4.3-.9-6 .2-.7.5-1.4.9-2.1.2-.4.4-.8.5-1.2.5-1.3.5-2.3.1-3.1-.3-.5-.8-1-1.3-1.4-.5-.4-.9-.8-1.3-1.3-.8-1.2-.8-2.7-.7-4.1v-1c0-1.5-.5-3.3-2.1-3.8-.2 0-.3-.2-.2-.4.1-.2.3-.3.5-.2 2 .5 2.7 2.7 2.7 4.5v1c-.1 1.3-.1 2.6.6 3.7.3.4.7.8 1.1 1.2.5.5 1.1 1 1.4 1.6.5 1 .5 2.2-.1 3.7l-.6 1.2c-.3.7-.6 1.3-.8 2-.4 1.5-.1 3.3.9 5.6l.2.5c.4.8.7 1.6.9 2.4.2 1.2-.1 2.4-.9 3.1 0-.1-.1 0-.2 0zM35.4 45.4c-.1 0-.1 0 0 0-.9 0-1.4-.8-1.6-1.4-.1-.3-.3-.6-.2-1 .1-.4.5-.8 1.1-.9.5-.1.9-.1 1.3 0 .2 0 .4.2.4.4s-.2.3-.5.3-.7-.1-1 0c-.3.1-.5.2-.5.4 0 .1 0 .3.1.6.3.6.5.9.8.9.2 0 .4-.1.6-.2 1.4-.8 2.1-2.5 1.7-3.9-.2-.7-.6-1.3-1-1.9-.6-.9-1.2-1.8-1.2-2.9 0-.2.2-.4.4-.4s.4.2.4.4c0 .9.6 1.7 1.1 2.6.4.7.9 1.3 1.1 2.1.5 1.7-.3 3.7-2 4.7-.3 0-.6.2-1 .2zM58.4 13.5c-.5 0-1.1-.2-1.7-.5-.7-.4-1.4-.8-2-1.4-.3-.3-.6-.6-.7-1-.2-.5-.1-.9-.1-1.4v-.8c-.2-.4-.6-.9-.9-1.2-.1-.1-.7-.6-1.1-.4-.2.1-.4 0-.5-.2-.1-.2 0-.4.3-.4.6-.2 1.3 0 2 .6.4.4.9 1 1 1.8v.9c0 .4-.1.8.1 1.1.1.3.3.5.6.7.5.5 1.1.9 1.8 1.2.3.2 1.4.6 2 .2.4-.2.4-.7.4-1.1h-.8c-.2 0-.4-.1-.5-.3 0-.2.1-.4.3-.4.4 0 .7-.1 1.1-.1.1 0 .3 0 .5.2.2.1.2.3.2.4 0 .8-.2 1.5-.7 1.8-.5.2-.9.3-1.3.3zM32.5 11c-.2 0-.4-.2-.4-.3 0-.2.2-.4.4-.4 1.1 0 2.1-.7 2.5-1.6 0-.1.1-.2.1-.3.1-.3.2-.6.5-.9.3-.3.9-.5 1.2-.5 1-.2 2-.6 2.3-1.3.1-.1.1-.3.1-.5s.1-.3.1-.5c.4-1.2 1.7-1.8 2.9-1.9 1.2-.1 2.4.2 3.5.6.3 0 .4.2.3.4 0 .2-.3.3-.5.3-1-.3-2.1-.6-3.1-.5-.9.1-1.9.5-2.2 1.4 0 .1-.1.3-.1.4 0 .2-.1.4-.2.6-.4 1-1.6 1.4-2.9 1.7-.4.1-.7.2-.9.4-.2.2-.2.4-.3.6 0 .1-.1.2-.1.3-.4 1.1-1.7 2-3.2 2zM29.3 21.3c-.2 0-.4-.1-.4-.3-.1-.8-.2-1.7-.1-2.6.2-1 .7-1.9 1.4-2.4.2-.1.4-.3.6-.4.2-.1.5-.3.7-.4.3-.3.5-.6.7-.9.3-.5.7-1.1 1.3-1.4.3-.1.6-.2.8-.3.2 0 .3-.1.4-.1 1.2-.4 1.8-1.6 2.3-2.8.1-.2.3-.3.5-.2.2.1.3.3.2.5-.4 1-1.1 2.5-2.7 3-.2.1-.3.1-.5.1-.2.1-.5.1-.6.2-.4.2-.7.7-1 1.1-.2.4-.5.8-.8 1.1-.2.2-.5.4-.8.5-.2.1-.4.2-.5.3-.6.4-1 1.1-1.1 2-.1.8 0 1.6.1 2.4-.1.4-.3.5-.5.6zM75 48.1c-1.2 0-2.5-.3-3.2-1.3-.6-.9-.5-2.2.3-3.4.3-.5.7-.9 1-1.3.4-.4.7-.8 1-1.3.5-.8.8-1.9.2-2.7-.1-.2-.1-.4.1-.5.2-.1.4-.1.6.1.6.9.6 2.2-.2 3.4-.3.5-.7.9-1.1 1.4-.4.4-.7.8-1 1.2-.6 1-.7 2-.3 2.7.6.9 2.1 1.1 3.1.9.2 0 .2 0 .2-.1 0 0 0-.1.1-.2.1-.2.1-.5.1-.7 0-.1-.1-.1-.2-.2-.2.1-.5 0-.5-.2-.1-.2 0-.4.2-.5.2-.1.5 0 .7.1.3.1.5.3.6.6.1.4 0 .8-.1 1 0 .1-.1.3-.3.5-.2.2-.5.2-.7.3-.1.2-.3.2-.6.2z"/>
    <path class="st15" d="M45.6 146.5c-.1 0-.3-.1-.3-.2-1.1-2-2.9-3.8-5-4.9-.2-.1-.2-.3-.1-.5s.3-.2.5-.1c2.3 1.3 4.1 3.1 5.3 5.2.1.2 0 .4-.2.5h-.2zM43.3 146.7c-.1 0-.2 0-.3-.1-1.1-1.3-2.3-2.6-3.8-3.6-.2-.1-.2-.3-.1-.5s.4-.2.5-.1c1.5 1.1 2.8 2.3 3.9 3.7.1.2.1.4-.1.5.1.1 0 .1-.1.1zM54.7 146.2c-.1 0-.2 0-.3-.1-.1-.1-.1-.4 0-.5l4.7-4.3c.1-.1.4-.1.5 0 .1.1.1.4 0 .5l-4.7 4.3s-.1.1-.2.1zM56.9 147.5c-.1 0-.2 0-.3-.1-.1-.1-.1-.4 0-.5 1.7-1.4 3.4-2.9 5.1-4.3.2-.1.4-.1.5 0 .1.1.1.4 0 .5-1.7 1.4-3.4 2.9-5.1 4.3 0 .1-.1.1-.2.1z"/>
</svg>
