<svg xmlns="http://www.w3.org/2000/svg" width="300.1" height="314.8" style="overflow:visible;enable-background:new 0 0 300.1 314.8" xml:space="preserve">
    <style>
        .st0{fill:#fed5b7}.st1{fill:#363644}.st3{fill:#8ca3c4}.st4{fill:#e15046}.st5{fill:#f59f18}.st6{fill:#685434}.st7{fill:#9b5e0e}.st9{fill:#a46e4a}.st10{fill:#c13f37}
    </style>
    <path class="st0" d="M172.6 116.1c2.1-.2 4.2-.2 6.2.4 2 .6 3.8 2 4.6 3.9.1.3.2.7.1 1.1-.3.8-1.6.7-2.4.3-.8-.4-1.8-.9-2.5-.3-.8.7-.4 2.3-1.4 2.6-.4.1-.8-.1-1.2-.2-2.1-1.1-4.2-2.3-6.1-3.6.9-1.6 1.8-3.2 2.6-4.8l.1.6z"/>
    <path class="st1" d="M30.5 109.3c-.4 6.8 6.5 12.3 12.7 15.2 6.2 2.8 13.2 4.2 18.6 8.3 2.5 1.9 4.6 4.4 7.3 6.1 5.1 3.3 12.1 3.2 17.2-.1-3.1-2.6-.1-8.3-2.6-11.5-.7-.9-1.7-1.5-2.7-2-4.6-2.4-9.3-4.9-13.9-7.3-10.9-5.8-24.7-11.8-36.7-8.9l.1.2z"/>
    <path d="M190.3 245c13.5 3 27.1 5.9 40.6 8.9s27.1 5.9 40.6 8.9c7.6 1.7 15.2 3.3 22.8 5 .4.1.2.7-.2.6-13.5-3-27.1-5.9-40.6-8.9s-27.1-5.9-40.6-8.9c-7.6-1.7-15.2-3.3-22.8-5-.3-.1-.2-.7.2-.6z"/>
    <path d="M199.2 286.5c5.8-3.9 11.6-7.9 17.4-11.8s11.6-7.9 17.4-11.8c5.8-3.9 11.6-7.9 17.4-11.8 5.8-3.9 11.6-7.9 17.4-11.8 5.8-3.9 11.6-7.9 17.4-11.8.7-.5 1.4-1 2.2-1.5.3-.2.6.3.3.5-5.8 3.9-11.6 7.9-17.4 11.8-5.8 3.9-11.6 7.9-17.4 11.8-5.8 3.9-11.6 7.9-17.4 11.8-5.8 3.9-11.6 7.9-17.4 11.8s-11.6 7.9-17.4 11.8c-.7.5-1.4 1-2.2 1.5-.3.3-.6-.3-.3-.5z"/>
    <path d="M211.5 303.5c4-5.9 8-11.8 11.9-17.7 4-5.9 8-11.8 11.9-17.7 4-5.9 8-11.8 11.9-17.7 4-5.9 7.9-11.8 11.9-17.7 4-5.9 8-11.8 11.9-17.7.5-.7 1-1.5 1.5-2.2.2-.3.7 0 .5.3-4 5.9-8 11.8-11.9 17.7-4 5.9-8 11.8-11.9 17.7-4 5.9-8 11.8-11.9 17.7-4 5.9-7.9 11.8-11.9 17.7-4 5.9-8 11.8-11.9 17.7-.5.7-1 1.5-1.5 2.2-.2.3-.8 0-.5-.3z"/>
    <path d="M251.6 311.2c-2.4-14.2-4.7-28.4-7.1-42.6-2.4-14.2-4.7-28.4-7.1-42.6-1.3-8-2.7-16-4-24-.1-.4.5-.5.6-.1 2.4 14.2 4.7 28.4 7.1 42.6 2.4 14.2 4.7 28.4 7.1 42.6 1.3 8 2.7 16 4 24 .1.4-.5.5-.6.1z"/>
    <path d="M230.2 310.6c3.1-14.1 6.2-28.1 9.3-42.2 3.1-14.1 6.2-28.1 9.3-42.2 1.7-7.9 3.5-15.8 5.2-23.8.1-.4.7-.2.6.2-3.1 14.1-6.2 28.1-9.3 42.2-3.1 14.1-6.2 28.1-9.3 42.2-1.7 7.9-3.5 15.8-5.2 23.8-.1.3-.7.1-.6-.2z"/>
    <path d="M270.2 301.8c-3.7-6.1-7.4-12.2-11.1-18.4-3.7-6.1-7.3-12.2-11-18.3-3.7-6.1-7.3-12.2-11-18.3-3.7-6.1-7.4-12.2-11.1-18.4-3.7-6.1-7.3-12.2-11-18.3-.5-.8-.9-1.5-1.4-2.3-.2-.3.3-.6.5-.3 3.7 6.1 7.4 12.2 11.1 18.4 3.7 6.1 7.3 12.2 11 18.3 3.7 6.1 7.3 12.2 11 18.3 3.7 6.1 7.4 12.2 11.1 18.4 3.7 6.1 7.3 12.2 11 18.3.5.8.9 1.5 1.4 2.3.2.4-.3.7-.5.3z"/>
    <path d="M287.4 289.3c-5.7-4.3-11.4-8.6-17-12.9-5.7-4.4-11.4-8.7-17.1-13.1-5.8-4.4-11.5-8.9-17.3-13.3-5.7-4.4-11.4-8.8-17.2-13.2-5.7-4.3-11.3-8.6-17-12.9-.7-.5-1.4-1-2.1-1.6-.3-.2 0-.7.3-.5 5.7 4.3 11.4 8.6 17 12.9 5.7 4.4 11.4 8.7 17.1 13.1 5.8 4.4 11.5 8.9 17.3 13.3 5.7 4.4 11.4 8.8 17.2 13.2 5.7 4.3 11.3 8.6 17 12.9.7.5 1.4 1 2.1 1.6.3.2 0 .8-.3.5z"/>
    <path d="M297.7 249.1c-7 1.2-14 2.5-21 3.9-7.3 1.4-14.6 3-21.8 4.5-7.3 1.6-14.7 3.1-22 4.7-7.3 1.5-14.6 3.1-21.9 4.5-7 1.4-14 2.8-21.1 4-.9.2-1.7.3-2.6.4-.4.1-.5-.5-.1-.6 7-1.2 14-2.5 21-3.9 7.3-1.4 14.6-3 21.8-4.5 7.3-1.6 14.7-3.1 22-4.7 7.3-1.5 14.6-3.1 21.9-4.5 7-1.4 14-2.8 21.1-4 .9-.2 1.7-.3 2.6-.4.3 0 .4.6.1.6z"/>
    <path class="st1" d="M52.3 258c-1.6-.5-3.1-1.3-4.3-2.3-2.6-2.2-4.3-5.4-4.5-8.9-.4-6.5 4.8-8.4 7.2-9.3 3.3-1.3 6.9-1 10.5-.8 11.5.8 53.8 5 68.5 8.2 4.2.9 8 3.5 11.1 6.3 3.1 2.9 5.4 6.7 5.7 10.8.5 8.1-5.6 12.8-14 14.7-8.4 2-17.3.1-25.6-2.2-12.4-3.2-48.3-14.5-54.6-16.5z"/>
    <circle transform="rotate(-43.656 241.422 256.48)" class="st1" cx="241.4" cy="256.5" r="9.3"/>
    <path d="M127.7 181.5c.7 5.2 1.4 10.4 2 15.7.3 2.5.6 5 0 7.4-.5 1.9-1.5 3.6-2.5 5.3-7.7 13.2-15.4 26.5-23.2 39.7-3.1-2.4-6.3-4.7-9.4-7.1-.5-.4-1-.8-1.2-1.4-.1-.5 0-1.1.2-1.6 3.8-11.6 9.3-22.6 16.2-32.7.7-1 1.4-2 1.7-3.1.4-1.3.2-2.6.1-4l-2.1-21c5.8-.4 11.6.2 17.2 1.7l1 1.1z" style="fill:#ddb192"/>
    <path d="M5.3 237c13.5 3 27.1 5.9 40.6 8.9s27.1 5.9 40.6 8.9c7.6 1.7 15.2 3.3 22.8 5 .4.1.2.7-.2.6-13.5-3-27.1-5.9-40.6-8.9s-27.1-5.9-40.6-8.9c-7.6-1.7-15.2-3.3-22.8-5-.3-.1-.1-.6.2-.6z"/>
    <path d="M14.2 278.6c5.8-3.9 11.6-7.9 17.4-11.8 5.8-3.9 11.6-7.9 17.4-11.8 5.8-3.9 11.6-7.9 17.4-11.8 5.8-3.9 11.6-7.9 17.4-11.8 5.8-3.9 11.6-7.9 17.4-11.8.7-.5 1.4-1 2.2-1.5.3-.2.6.3.3.5-5.8 3.9-11.6 7.9-17.4 11.8-5.8 3.9-11.6 7.9-17.4 11.8-5.8 3.9-11.6 7.9-17.4 11.8-5.8 3.9-11.6 7.9-17.4 11.8-5.8 3.9-11.6 7.9-17.4 11.8-.7.5-1.4 1-2.2 1.5-.3.2-.6-.3-.3-.5z"/>
    <path d="M26.5 295.6c4-5.9 8-11.8 11.9-17.7 4-5.9 8-11.8 11.9-17.7 4-5.9 8-11.8 11.9-17.7 4-5.9 7.9-11.8 11.9-17.7 4-5.9 8-11.8 11.9-17.7.5-.7 1-1.5 1.5-2.2.2-.3.7 0 .5.3-4 5.9-8 11.8-11.9 17.7-4 5.9-8 11.8-11.9 17.7-4 5.9-8 11.8-11.9 17.7-4 5.9-7.9 11.8-11.9 17.7-4 5.9-8 11.8-11.9 17.7-.5.7-1 1.5-1.5 2.2-.2.3-.7 0-.5-.3z"/>
    <path d="M66.6 303.3c-2.4-14.2-4.7-28.4-7.1-42.6-2.4-14.2-4.7-28.4-7.1-42.6-1.3-8-2.7-16-4-24-.1-.4.5-.5.6-.1 2.4 14.2 4.7 28.4 7.1 42.6s4.7 28.4 7.1 42.6c1.3 8 2.7 16 4 24 .1.3-.5.5-.6.1z"/>
    <path d="M45.2 302.6c3.1-14.1 6.2-28.1 9.3-42.2 3.1-14.1 6.2-28.1 9.3-42.2 1.7-7.9 3.5-15.8 5.2-23.8.1-.4.7-.2.6.2-3.1 14.1-6.2 28.1-9.3 42.2-3.1 14.1-6.2 28.2-9.3 42.2-1.7 7.9-3.5 15.8-5.2 23.8-.1.4-.7.2-.6-.2z"/>
    <path d="M85.2 293.9c-3.7-6.1-7.4-12.2-11.1-18.4-3.7-6.1-7.3-12.2-11-18.3-3.7-6.1-7.3-12.2-11-18.3-3.7-6.1-7.4-12.2-11.1-18.4-3.7-6.1-7.3-12.2-11-18.3-.5-.8-.9-1.5-1.4-2.3-.2-.3.3-.6.5-.3 3.7 6.1 7.4 12.2 11.1 18.4 3.7 6.1 7.3 12.2 11 18.3 3.7 6.1 7.3 12.2 11 18.3 3.7 6.1 7.4 12.2 11.1 18.4 3.7 6.1 7.3 12.2 11 18.3.5.8.9 1.5 1.4 2.3.2.3-.3.6-.5.3z"/>
    <path d="M102.4 281.4c-5.7-4.3-11.4-8.6-17-12.9-5.7-4.4-11.4-8.7-17.1-13.1-5.8-4.4-11.5-8.9-17.3-13.3-5.7-4.4-11.4-8.8-17.2-13.2-5.7-4.3-11.3-8.6-17-12.9-.7-.5-1.4-1-2.1-1.6-.3-.2 0-.7.3-.5 5.7 4.3 11.4 8.6 17 12.9 5.7 4.4 11.4 8.7 17.1 13.1 5.8 4.4 11.5 8.9 17.3 13.3 5.7 4.4 11.4 8.8 17.2 13.2 5.7 4.3 11.3 8.6 17 12.9.7.5 1.4 1 2.1 1.6.3.2 0 .7-.3.5z"/>
    <path d="M112.7 241.2c-7 1.2-14 2.5-21 3.9-7.3 1.4-14.6 3-21.8 4.5-7.3 1.6-14.7 3.1-22 4.7-7.3 1.5-14.6 3.1-21.9 4.5-7 1.4-14 2.8-21.1 4-.9.2-1.7.3-2.6.4-.4.1-.5-.5-.1-.6 7-1.2 14-2.5 21-3.9 7.3-1.4 14.6-3 21.8-4.5 7.3-1.6 14.7-3.1 22-4.7 7.3-1.5 14.6-3.1 21.9-4.5 7-1.4 14-2.8 21.1-4 .9-.2 1.7-.3 2.6-.4.3 0 .5.5.1.6z"/>
    <path class="st3" d="M187.1 128.8c-.2 1.7-2.1 2.7-3.8 2.5-1.7-.2-3-1.4-4-2.8-.9-1.4-1.5-3-2.1-4.5-.4-.8-.8-1.7-1.5-2.2-1-.7-2.4-.6-3.7-.3-5.4 1-10.7 2.8-15.9 4.5-.9.3-1.8.6-2.3 1.4-.9 1.4.1 3.4 1.7 4 1.5.6 3.3.2 4.8-.2 3.1-.8 6.2-1.8 9.3-2.9.7-.2 1.3-.5 2-.4 2.4.3 2.8 3.8 4.9 5-4.4-.1-8.8 1.9-11.5 5.4-.6.7-.8 2.1.1 2.3.4.1.7-.2 1-.4 2.5-2.1 4.8-4.8 8.1-5.4 4-.6 7.9 2.4 11.9 1.5 2.7-.6 4.7-3.1 5.5-5.7.8-2.7.6-5.5.1-8.3-.2-.9-.4-1.9-1-2.6-1.1-1.2-3-1.1-4.7-.8-2.6.5-5.1 1.3-7.5 2.3-.6.3-1.3.6-1.5 1.2-.6 1.4 1.5 2.7 3 2.3 1.5-.4 2.9-1.5 4.5-1.5 1.4 0 2.7.9 3.2 2.2.5 1.3-.6 3.4-.6 3.4z"/>
    <path class="st4" d="M127.1 48c2.2 6.9 4 13.2 6.2 20.1.9 2.7 5.1 9.7 5.3 12.5.3 2.8-.1 5.6-.7 8.4-.9 3.7-2.5 7.3-5 10.1-1.5 1.7-3.3 3-4.8 4.7-2.2 2.5-6.5 4.8-7.8 7.9-1.7 4-4.5 15.3-5.4 15.3-11.3-.3-23.7-2.6-30.9-11.4 4.2-11.7 12.6-21.5 18.3-32.5 5.5-10.5 8.5-22 13.1-32.9.2-.5.4-1 .9-1.2.4-.2.9-.1 1.4 0 3.8.7 5.6-1.9 9.4-1z"/>
    <path class="st5" d="M122.2 1.8c-3.3-1.5-7.4-.1-10.1 2.3-2.7 2.4-4.5 5.7-6.6 8.8-2 3-4.5 6-8 7.3-1.8.6-3.6.8-5.5 1-2.6.4-5.3 1.1-7.1 3-3.7 3.8-2.6 10.7-6.6 14.2-3.3 2.9-8.3 2-12.6 3-4.5 1.1-8.4 4.6-10 9-1.5 4.4-.7 9.6 2.2 13.2-1.7-1.4-.1-4.6 2.1-5 2.2-.4 4.3 1 6.2 2.3 4.9 3.5 9.9 7.3 15.7 8.9 5.8 1.6 13 .3 16.3-4.8 2.2-3.4 2.7-8.2 6.1-10.4 2.5-1.6 5.8-1.2 8.5-2.5 3.3-1.7 4.7-6 3.7-9.6-.2-.8-.5-1.7-.1-2.4.3-.6.9-.9 1.5-1.2 4.5-2.5 6.9-8.2 5.5-13.2l-1.2-23.9z"/>
    <path class="st1" d="M138.1 79.3c9.8 13.8 20.4 28.2 35.9 34.9-.8 2.7-2 5.3-3.4 7.8-4.7-.3-9.5-1-13.9-2.7-10.5-3.9-18.3-12.6-25.8-21 4.4-5.2 7-11.8 7.4-18.5l-.2-.5z"/>
    <path class="st6" d="M126.2 164.8c1.7 5.5 3.3 11 5 16.4-7.8 2.2-15.9 3.2-24 2.7-6.2-11.2-11.4-23.1-15.4-35.3 6.9.4 13.9.9 20.3 3.3 6.5 2.4 12.4 7.1 14.7 13.6l-.6-.7z"/>
    <path class="st3" d="M114.8 242.7c-14.5.5-28.9-.2-43.3-2-1.9-.2-3.9-.5-5.6-1.3-1.8-.9-3.3-2.3-4.7-3.7-11.7-11.9-19.4-22.9-28.8-36.7 8.7-5 17.3-6.6 27.3-6.5 3.6 0 6.6.4 10.2 1 12 1.9 21.3 7.9 29 17.3 7.7 9.4 13.1 20.1 15.1 32.1l.8-.2z"/>
    <path class="st7" d="M114.6 262.7s4.5-24.1-3.8-38.1-27.1-32.8-47.8-33.8c-20.7-1-42.4 10.6-48.1 17.7s-8.5 12.6-8.5 12.6L1 222.8s7.6-24.2 32.3-32c24.8-7.8 44.1-3 52.4 1.5s29.6 20.2 33.2 37.1 1 34.7 1 34.7l-5.3-1.4zM241.9 193.1c-1.2 2.4-3.8 4-6.6 4-4.1 0-51.4 11-52.7 62.5-.1 3.4 1.4 6.7 1.6 10 .2 3.4 1 6.6-1.4 9.1 0 0-5.5-21.3-1.8-38.6s22.2-40.3 45.2-45.5c4.5-1 15.7-1.5 15.7-1.5z"/>
    <path class="st4" d="M22.1 183.2c.4-.8-.3-1.8-1.1-1.9-.9-.1-1.7.5-2.1 1.2-.4.7-.5 1.6-.6 2.5-.3 2.5-.6 5.1.2 7.6.3.8.8 1.7 1.7 1.7 1.1 0 1.4-1.4 1.5-2.4.3-3 .5-5.9.8-8.9l-.4.2z"/>
    <path d="M218.9 309.7c-6.8-3.1-12.8-7.4-18-12.8-5.2-5.4-9.2-11.7-11.9-18.6-2.8-7.2-4.2-14.7-4-22.5.2-7.8 1.9-15.3 5-22.3 3.1-6.8 7.4-12.8 12.8-18 5.4-5.2 11.7-9.2 18.6-11.9 7.2-2.8 14.7-4.2 22.5-4 7.8.2 15.3 1.9 22.3 5 6.8 3.1 12.8 7.4 18 12.8 5.2 5.4 9.2 11.7 11.9 18.6 2.8 7.2 4.2 14.7 4 22.5-.2 7.8-1.9 15.3-5 22.3-3.1 6.8-7.4 12.8-12.8 18-5.4 5.2-11.7 9.2-18.6 11.9-7.2 2.8-14.7 4.2-22.5 4-7.8-.1-15.3-1.8-22.3-5zm-31-53.8c-.7 30.1 23.2 55.2 53.3 55.9 30.1.7 55.2-23.2 55.9-53.3.7-30.1-23.2-55.2-53.3-55.9-30.1-.7-55.2 23.2-55.9 53.3z"/>
    <path class="st3" d="M219.2 308.1c-6.5-2.9-12.4-7.1-17.3-12.3-5-5.2-8.8-11.2-11.5-17.9-2.7-6.9-4-14.2-3.9-21.7.2-7.5 1.8-14.7 4.9-21.5 2.9-6.5 7.1-12.4 12.3-17.3 5.2-5 11.2-8.8 17.9-11.5 6.9-2.7 14.2-4 21.7-3.9 7.5.2 14.7 1.8 21.5 4.9 6.5 2.9 12.4 7.1 17.3 12.3 5 5.2 8.8 11.2 11.5 17.9 2.7 6.9 4 14.2 3.9 21.7-.2 7.5-1.8 14.7-4.9 21.5-2.9 6.5-7.1 12.4-12.3 17.3-5.2 5-11.2 8.8-17.9 11.5-6.9 2.7-14.2 4-21.7 3.9-7.5-.2-14.7-1.8-21.5-4.9zm-29.8-51.8c-.7 29 22.4 53.2 51.4 53.9 29 .7 53.2-22.4 53.9-51.4.7-29-22.4-53.2-51.4-53.9-29.1-.7-53.3 22.4-53.9 51.4zM34.8 300.9c-6.5-2.9-12.4-7.1-17.3-12.3-5-5.2-8.8-11.2-11.5-17.9-2.7-6.9-4-14.2-3.9-21.7.2-7.5 1.8-14.7 4.9-21.5 2.9-6.5 7.1-12.4 12.3-17.3 5.2-5 11.2-8.8 17.9-11.5 6.9-2.7 14.2-4 21.7-3.9 7.5.2 14.7 1.8 21.5 4.9 6.5 2.9 12.4 7.1 17.3 12.3 5 5.2 8.8 11.2 11.5 17.9 2.7 6.9 4 14.2 3.9 21.7-.2 7.5-1.8 14.7-4.9 21.5-2.9 6.5-7.1 12.4-12.3 17.3-5.2 5-11.2 8.8-17.9 11.5-6.9 2.7-14.2 4-21.7 3.9-7.5-.3-14.7-1.9-21.5-4.9zM4.9 249c-.7 29 22.4 53.2 51.4 53.9 29 .7 53.2-22.4 53.9-51.4.7-29-22.4-53.2-51.4-53.9-29-.7-53.2 22.4-53.9 51.4z"/>
    <path d="M33.9 301.7c-6.8-3.1-12.8-7.4-18-12.8-5.2-5.4-9.2-11.7-11.9-18.6-2.8-7.2-4.2-14.7-4-22.5s1.9-15.3 5-22.3c3.1-6.8 7.4-12.8 12.8-18 5.4-5.2 11.7-9.2 18.6-11.9 7.2-2.8 14.7-4.2 22.5-4 7.8.2 15.3 1.9 22.3 5 6.8 3.1 12.8 7.4 18 12.8 5.2 5.4 9.2 11.7 11.9 18.6 2.8 7.2 4.2 14.7 4 22.5-.2 7.8-1.9 15.3-5 22.3-3.1 6.8-7.4 12.8-12.8 18-5.4 5.2-11.7 9.2-18.6 11.9-7.2 2.8-14.7 4.2-22.5 4-7.8-.1-15.3-1.8-22.3-5zm-31-53.8c-.7 30.1 23.2 55.2 53.3 55.9 30.1.7 55.2-23.2 55.9-53.3.7-30.1-23.2-55.2-53.3-55.9-30.1-.7-55.1 23.2-55.9 53.3z"/>
    <path class="st5" d="M108.8 14.1c-4.1 3.1-5 9.7-1.9 13.9.4.5.8 1 1 1.5.3.9.1 1.9.1 2.9 0 2.2 1.1 4.4 2.9 5.6 1.8 1.2 4.3 1.4 6.3.4 1-.5 1.8-1.4 2.8-1.8.6-.3 1.3-.4 1.8-.7 1.5-.8 2.1-2.9 1.7-4.6-.4-1.7-1.7-3.1-3.1-4.2-.8-.7-1.7-1.3-2.3-2.1-1-1.3-1.3-3.1-1.8-4.7-.8-2.4-2.2-4.6-4.2-6.3l-3.3.1z"/>
    <path class="st0" d="M113.7 24.3c1.8-1.4 4.5-1.4 6.6-.4.1-5.4.2-9.4.2-14.9h20.7c.2 2.7 1.2 12.1 1.2 12.1l6.9 3.8-4.6 2.3s.5 7.8-.1 11.7c-.1.7-.3 1.5-.8 2.1-.6.6-1.5.8-2.3.9-1.7.2-3.5.2-5.2-.1-.5-.1-1.1-.2-1.7 0-.5.2-.8.7-1.1 1.2-1.8 3.2-5.3 9.6-5.3 9.6s1.9 14.5 3.9 21.6c-2.4-4.1-10.8-20.8-10.8-20.8l-7.9-5.6s2.9-9.8 5-14.6c-1.5 1.8-4.6-.6-5.9-2.5-1.3-2.2-.6-5 1.2-6.4z"/>
    <path class="st5" d="m20.8 191.5 8.4 16.2c5.8 10.9 26.2 41.4 29.5 44 3.8 3 8.7 3.9 13.4 4.9 14.2 2.7 28.4 5.5 42.6 8.2 3 .6 6 1.2 9 1.7 2.5.5 4.9 1 7.5.9 4.6 0 9-1.8 13-4.1 25.7-14.8 32.8-50.8 58.3-66 3.5 11.4 7 22.9 12.6 33.5 5.6 10.5 13.5 20.2 24 26 2.1 1.2 4.3-1.4 2.8-3.3-4.8-6.2-12.5-10.3-17.4-16.6-4.2-5.4-6.2-12.1-8.2-18.7-8.7-28.2-17.7-52.2-28.8-82.4-1.3.6-2.9.8-4.3.6l-1.1-.2s6.8 21.1 7.4 25.9c.2 1.8-.7 5.3-1.9 8.9-2.4 7.2-5.8 14-10 20.3-5.3 7.9-14.5 19.7-21.5 26.8-11.1 11.3-30.6 17.6-30.6 17.6l-26.3-79.6-6.6.7 11.2 29.6-7.1 7-12.5-10c-1.4-1.1-3.2-1.8-5-1.9l-50-3c-2-.1-4 .5-5.7 1.7l-.3.2c-1.8 1.3-3.1 3.3-3.5 5.5-.1 1.9.2 3.9 1.1 5.6zm109.9 66.4c-1.2-5.3-2.6-10.6-4.2-15.8 10.6-1.1 19.5-7.9 27.8-14.5 4.7-3.7 9.2-10.3 13.5-14.5 8.7-8.4 23.7-35.4 26.1-39.2 2.2 4.6 3.9 9.5 5.2 14.4 0 0-10.9 11.4-12.6 12.9-7.9 6.9-15.3 17.2-26.4 33.1-11.1 15.9-29.4 23.6-29.4 23.6zm-67.2-17.5 41.4-48c7.2 21.8 13.8 44.9 21.4 66.6l-59.5-10.1c-1.7-.2-3.1-1.2-3.9-2.7-1-1.8-.8-4.1.6-5.8zm-37.8-54c.8-3.2 5.1-3.8 8.5-3.6 9.9.5 19.7 1.1 29.6 1.6 3 .2 6 .3 9 .9 6.8 1.2 13.2 4.5 18.1 9.3 1.6 1.5 1.9 4 .7 5.8-9.3 13.8-20 26.7-32 38.3-1 .9-2.3 2-3.6.8-.2-.2-.3-.3-.4-.5-10-15.5-19.5-31.3-28.5-47.4-.9-1.6-1.8-3.4-1.4-5.2z"/>
    <path class="st3" d="M81.8 182.6c-.2-.3-33.7-1.7-50-2.3-4.5-.2-9.1-.4-13.4-1.9-.8-.3-1.2-1.2-.8-2 .3-.7 1-.7 1.5-.6 15.9.5 31.9 1 47.7 2.9 6.2.8 13 1.6 18.3-1.7 1.3 2.4-.3 5.4-3 5.7l-.3-.1z"/>
    <path class="st0" d="M160.3 119.2c1.5-.2 3.1-.4 4.6-.6 1.3-.2 2.7-.3 3.9.4.8.5 1.3 1.2 1.8 2 1.5 2.3 3.1 5.1 2 7.7-.3.6-.8 1.2-1.5 1.4-.7.1-1.5-.5-1.3-1.2.4.6.1 1.6-.6 1.9-.7.3-1.6-.1-1.8-.8.1.9-.4 1.9-1.2 2.1-.9.2-1.9-.8-1.3-1.5-.5.8-1.5 1.7-2.3 1.2-1-.6-.3-2-.4-3.1 0-1.2-.8-2.2-1.9-2.7-1-.6-2.2-.7-3.3-.9.9-1.9 1.9-3.8 2.8-5.7.2.2.3.4.5.5v-.7z"/>
    <path class="st5" d="M53.8 241.5C41 230.4 27.7 219.9 13.9 210c-1 .5-1.8 1.3-2.4 2.2 15.2 9.3 29.3 20 42.3 32 1.3-.3 1.2-2.6-.1-2.9l.1.2zM241.1 254.1c1.4 1.3.7 3.6-1.2 3.9-3.7.7-7.6.4-11.4.7-4 .3-44.6 7.1-45.6 7-.2-1.5-.1-.9-.3-2.4l48.1-7 7.8-2.8c.9-.2 1.9 0 2.6.6z"/>
    <path class="st0" d="M153.9 147.4c4.6 2.5 9.8 5.9 10.1 11.1.1 1.8-.4 3.5-1.1 5.2-3.4 8.7-9.9 15.6-15.5 23.1-5.5 7.4-10.2 15.4-13.9 23.9-.9 2-1.7 4.1-1.8 6.2-.1 2 .4 4 1.1 5.9 2 5.2 6 9.7 10.9 12.4 1 .6 2.3 1.2 2.5 2.4-7.8-.2-15.4-3.6-20.8-9.2-1.5-1.6-2.9-3.4-4.9-4.3-2.1-1-4.6-.9-6.4-2.4-2.6-2.1-2.1-6.4-.2-9.2 1.9-2.8 4.8-4.8 6.8-7.4 2.7-3.5 3.7-8 5.1-12.2 3.9-11.7 7-20.6 16.7-28.3-6.7-1.1-9.1-3.7-15.9-4.8l16.3-19 11 6.6z"/>
    <path d="M112.4 215.4c-.9.9-1.3 3.4-1.8 4.6-.5 1.2-.1 3 .9 3.9 1.1 1 2.2 2.1 3.6 2.7 1.5.7 3.4.7 4.7-.3 5.4 6.6 11.6 13.6 20 14.8 1.5.2 3.1.2 4.4-.5 1.3-.7 2.3-2.3 1.9-3.7-8.9-.2-15.9-6.5-22.8-12.3-5.7-4.9-10.9-9.2-10.9-9.2z"/>
    <path d="M141.5 231.4c-3.1 0-6.1 1.4-7.8 3.7-1.9-1.2-3.8-2.5-5.8-3.7 1.3-3 4.8-5 8.3-5l5.3 5zM133.1 219.6c-5.6.7-11.1 2.4-16.2 5-.8-.1-1.2-1.2-.8-2 .4-.7 1.2-1.1 2-1.5 4.6-2 9.4-3.3 14.3-4.1l.7 2.6z"/>
    <path d="M121.7 221.6c-1.8-4.5-3.5-8.9-5.3-13.4-.8.7-1.7 1.3-2.7 1.7 1.9 3.9 3.5 8.1 4.6 12.4 1.2-.2 2.4-.7 3.4-1.3v.6z"/>
    <path class="st4" d="M107.4 159.4c-9 .6-18.1.4-27.1-.4-2.1-.2-4.3-.5-6.1-1.6-1.4-.9-2.5-2.4-2.9-4-.3-1.1-.3-2.3.3-3.2.8-1.2 2.4-1.5 3.8-1.7 7.8-1 15.6.7 23.2 2.3 2.2.5 4.6 1 6.4 2.4 1.8 1.4 2.8 4.1 1.7 6.1l.7.1z"/>
    <path class="st3" d="M133.6 266.2c2.2-1.2 2.1-3.3 2.4-5.8.5-4.8 1.8-9.5 3-14.2.2-.9.5-1.9 1.2-2.7.6-.7 1.8-1.1 2.6-.6.8-.8 1.6-2.1.8-2.9-.3-.3-.8-.5-1.2-.6-4-.9-8-1.7-12-2.6-.8-.2-1.8-.3-2.4.2-.7.5-.7 1.6-.2 2.3.4.7 1.2 1.2 2 1.5 1.7.8 3.6 1.2 5.5 1.2-1.1 5.4-2.2 10.8-4.3 15.8-.8 1.8-1.7 3.7-1.4 5.6.1 2.1 2.3 3.8 4 2.8z"/>
    <path class="st1" d="M134.2 262.1c.6.4.6 1.2.2 1.8-.6 1-2.3 1.3-3.2.5-.9-.8-.7-2.6.4-3.1 1.1-.6 2.6.3 2.7 1.5l-.1-.7z"/>
    <path d="M115.2 125.8c13.6 5.9 25.4 11.6 38.4 18.9-5.7 9.2-12.4 18.8-18.1 28-14-4.5-25.1-9.4-38.2-16-4.9-2.4-9.7-5.1-13.5-9-3.8-3.9-6.4-9.3-5.7-14.7.3-2.2 1.1-4.3 1.9-6.4 1.7-4.5 3.5-9 5.2-13.5 10.4 3.3 20.5 7.7 30 13.2v-.5z" style="fill:#c2b38c"/>
    <path class="st9" d="M162.6 158.8c.6 1.2-.2 2.8-1.5 3.1-.4.1-.5-.5-.1-.6.5-.1.9-.4 1.1-.9.1-.2.2-.5.2-.7 0-.2 0-.5-.1-.7-.1-.1 0-.3.1-.4.1.1.3.1.3.2zM126.2 206.6c.7 1.6.3 3.5-1 4.7-.3.2-.7-.2-.4-.4 1.1-.9 1.5-2.6.9-3.9-.2-.4.3-.7.5-.4z"/>
    <path class="st6" d="M149.2 143.6c-2 3.7-4.3 7.3-6.8 10.7-2.5 3.5-5 6.8-7.3 10.4-1.3 2-2.5 4-3.6 6.1-.2.3-.7 0-.5-.3 2-3.7 4.3-7.3 6.8-10.7 2.5-3.5 5-6.8 7.3-10.4 1.3-2 2.5-4 3.6-6.1.2-.4.7 0 .5.3zM81.5 125c3.1-.4 6.3 0 9.3 1.1.1 0 .2.2.2.3-.4 2.9-.8 5.8-1.1 8.7-.2 1.2-.2 2.5-1 3.5-.4.4-.9.7-1.4 1-.6.3-1.2.6-1.8.8-1.4.6-2.9 1.2-4.4 1.7-.4.1-.5-.5-.1-.6 1.3-.4 2.5-.9 3.8-1.5.6-.3 1.2-.5 1.9-.8.5-.2 1-.5 1.5-.8.9-.8 1-2.1 1.1-3.2.2-1.4.4-2.7.5-4.1.2-1.6.4-3.1.6-4.7.1.1.1.2.2.3-2.9-1.1-6-1.4-9-1.1-.6 0-.7-.5-.3-.6z"/>
    <path class="st6" d="M90.3 130.2c-3.5-.6-7-1.1-10.5-1.7-.2 0-.2-.2-.2-.4s.2-.2.4-.2c3.5.6 7 1.1 10.5 1.7.2 0 .2.2.2.4-.1.2-.2.2-.4.2zM114.5 125.8c-3 1.9-6 3.8-8.9 5.6-.9.5-1.7 1.1-2.6 1.6-.3.2-.6-.3-.3-.5 3-1.9 6-3.8 8.9-5.6.9-.5 1.7-1.1 2.6-1.6.3-.2.6.3.3.5z"/>
    <path class="st6" d="M113.2 126c-3.2.8-6.5 1.6-9.5 3.1-.9.4-1.7.9-2.6 1.5-.3.2-.6-.3-.3-.5 1.4-.9 3-1.7 4.6-2.4 1.5-.6 3.1-1.1 4.7-1.5 1-.3 1.9-.5 2.9-.7.4-.2.6.4.2.5z"/>
    <circle class="st4" cx="57.3" cy="247.5" r="9.3"/>
    <path class="st5" d="M142.4 8.4c.8 3.2-1.4 6.8-4.7 7.7-2.3.7-5.1.2-7 1.7-1.8 1.4-2.1 4-3.9 5.4-1.4 1.1-3.4 1.1-5.2.8-1.8-.3-3.6-.8-5.4-.6-1.8.2-3.7 1.3-3.9 3.1-.6-3.5-5.2-5.5-5.4-9.1 0-1 .3-1.9.6-2.8.5-1.7 1.1-3.3 1.6-5 .4-1.3.9-2.7 2.1-3.5 1.6-1 3.8-.6 5.4-1.6 1.3-.8 2-2.3 3.2-3.2 1.9-1.6 4.8-1.5 7.2-.7s4.7 2 7.1 2.4c2 .4 4.1.3 6 .9 2 .7 2.3 4.5 2.3 4.5z"/>
    <path class="st3" d="M106.3 44c4.2-3.8 10.8-3.2 14.1 1.4 1.8 2.5 3.1 5.6 3.8 8.5 1.6 6.7 1.2 13.8 3.4 20.4 1.6 4.9 4.6 9.3 7.6 13.5 7.7 10.7 16.6 21.1 28.2 27.4-1.2 2.8-2.3 5.7-3.5 8.5-.3.7-.6 1.5-1.2 2.1-.7.7-1.7 1-2.6 1.2-8.2 1.7-16.9-1.9-23.1-7.6-6.3-5.6-15.4-10.6-19.6-17.9-9.4 4.2-11.6 9.9-18.6 17.4-7 7.5-15 15-25 17.3-2.5-4.4-6.9-7.3-11.6-9.4-4.6-2.1-9.5-3.4-14-5.7-5.5-2.9-10.2-7.1-13.7-12.1 9.5-2.2 17.2-8.8 24.6-15.2 5.8-5 22.9-13.2 27.6-19.2 4-5 13.8-21.6 23.6-30.6z"/>
    <path class="st1" d="M112.9 102.3c-2.1-1.9-3.8-4.2-5.2-6.6-1.4-2.4-2.6-5-3.7-7.7-1.2-2.9-2.3-5.8-3.2-8.8-.9-3-1.7-6.1-2.1-9.2-.4-3.1-.5-6.2-.2-9.4 0-.4.1-.8.2-1.2 0-.2.1-.3.3-.3.1 0 .3.1.3.3-.5 3.1-.5 6.2-.2 9.3.3 3.1 1 6.2 1.9 9.2.9 3 2 6 3.1 8.9 1 2.6 2.1 5.2 3.5 7.7 1.3 2.4 2.9 4.7 4.9 6.7l.7.7c.4.2 0 .6-.3.4zM159.1 113.2c-1.4 3.2-3.1 6.4-4.8 9.4-.5.9-1 1.7-1.6 2.6-.2.3-.7 0-.5-.3 1.9-3 3.6-6 5.1-9.1.4-.9.9-1.8 1.3-2.7.1-.1.2-.2.4-.2 0 0 .2.1.1.3z"/>
    <path class="st1" d="M159.6 126.1c-1.6.6-3.2.9-4.9 1.1-1.9.2-3.8.1-5.7-.2-2.2-.3-4.4-.9-6.5-1.7-2.4-.9-4.8-2.1-7-3.5-2.6-1.6-5-3.5-7.3-5.5l-.9-.9c-.3-.3.2-.7.4-.4 2.3 2.1 4.7 4.1 7.3 5.8 2.2 1.4 4.5 2.7 6.9 3.7 2.1.8 4.2 1.5 6.4 1.9 1.9.3 3.8.5 5.7.3 1.7-.1 3.3-.4 4.9-.9.2-.1.4-.1.6-.2.3-.2.4.4.1.5zM130.1 101.5l-4.5 9.3c-.2.3-.7 0-.5-.3l4.5-9.3c.2-.3.7 0 .5.3zM127.4 100.2c-.8 2.9-2 5.7-3.7 8.3-.2.3-.7 0-.5-.3 1.6-2.5 2.8-5.2 3.6-8.1.1-.4.7-.3.6.1zM105.3 100.5l-7.2 7.2-7.2 7.2c-2 2-4.1 4.1-6.4 5.7-1.1.8-2.4 1.5-3.7 2.1-1.1.5-2.3.8-3.5 1.2-2.1.6-4.6 1.3-6 3.1-.2.2-.3.5-.5.7-.2.3-.7 0-.5-.3 1.2-2.1 3.4-3 5.6-3.7 1.1-.4 2.3-.7 3.5-1 1.3-.4 2.5-1 3.7-1.8 2.4-1.5 4.5-3.5 6.6-5.6l7.1-7.1 7.2-7.2.9-.9c.2-.3.6.2.4.4zM85.5 109.2c-4.5-3.7-9.1-7.4-13.7-11-1.2-.9-2.3-1.8-3.5-2.7-.5-.4-1-.8-1.6-.5-.6.3-1 .9-1.5 1.3-2.1 2.1-4.2 4.1-6.4 6.2-2.4 2.3-4.8 4.7-7.1 7v-.4c4 4.1 8.1 8.1 12.3 12 .4.4.9 1 1.5 1.2.6.3 1.1 0 1.6-.3 1.2-.8 2.3-1.7 3.4-2.5 2.3-1.7 4.7-3.4 7-5.2 2.6-1.9 5.3-3.9 7.9-5.8.1-.1.3 0 .4.1.1.2 0 .3-.1.4-4.8 3.5-9.6 7.1-14.4 10.6-1.2.9-2.4 1.8-3.6 2.6-.5.4-1 .7-1.6.8-.6.1-1.2-.3-1.6-.7-1.1-.9-2.1-2-3.1-2.9-1.1-1-2.1-2-3.2-3-2.3-2.3-4.7-4.6-7-6.9-.1-.1-.1-.3 0-.4l13.1-12.8 1.5-1.5c.5-.4 1-.6 1.6-.5.6.2 1.2.7 1.7 1.1.6.5 1.2.9 1.8 1.4 2.4 1.8 4.7 3.7 7 5.6 2.6 2.1 5.3 4.2 7.8 6.4.6.3.1.7-.2.4z"/>
    <path class="st1" d="M80.7 111.9c-4-3.8-8.2-7.3-12.6-10.7-1.2-.9-2.5-1.9-3.8-2.8-.3-.2 0-.7.3-.5 4.5 3.2 8.9 6.7 13 10.4 1.2 1 2.3 2.1 3.5 3.1.4.3-.1.7-.4.5z"/>
    <path class="st9" d="M164.3 131c.7-1.8.6-3.8-.5-5.5-.2-.3.3-.6.5-.3 1.1 1.8 1.3 4 .5 5.9-.1.4-.7.2-.5-.1zM167.5 130.6c.5-2.1.2-4.4-.9-6.3-.2-.3.3-.6.5-.3 1.2 2 1.5 4.5 1 6.7-.1.5-.7.3-.6-.1zM170.2 129.9c.4-2.2.2-4.4-.7-6.5-.1-.4.4-.6.5-.3.9 2.2 1.2 4.6.7 6.9 0 .5-.6.3-.5-.1z"/>
    <path class="st9" d="M170.5 123.3c-2.5.8-5 1.6-7.5 2.3-.4.1-.5-.5-.1-.6 2.5-.8 5-1.6 7.5-2.3.3-.1.5.5.1.6zM178.5 119.9c-1.1 0-2.1.4-2.8 1.2-.1.1-.3.1-.4 0-.1-.1-.1-.3 0-.4.8-.9 2-1.4 3.2-1.4.4 0 .4.6 0 .6z"/>
    <path class="st1" d="M175.1 122c.5 1.5.3 3.2-.6 4.5-.2.3-.7 0-.5-.3.8-1.2 1-2.7.6-4.1-.2-.4.4-.5.5-.1zM189.3 119.6c.4 1.3-.2 2.9-1.3 3.6-.3.2-.6-.3-.3-.5 1-.6 1.4-1.9 1-3-.1-.3.5-.5.6-.1zM176.6 132.7c2.4 2.2 5.7 3.4 8.9 3 .9-.1 1.8-.4 2.6-.7.4-.1.6.4.3.5-3.2 1.3-6.8 1.1-9.9-.6-.9-.5-1.7-1.1-2.4-1.8-.2-.2.3-.7.5-.4z"/>
    <path class="st1" d="M187.2 131.6c.7.9.5 2.3-.2 3.1-.3.3-.7-.2-.4-.4.6-.6.6-1.7.1-2.4-.1-.1 0-.3.1-.4.1-.1.3-.1.4.1zM184.7 131.9c.6.7.6 1.7.2 2.5-.1.1-.3.2-.4.1-.1-.1-.2-.3-.1-.4 0-.1.1-.1.1-.2s.1-.2.1-.3v-.7c0-.1 0-.2-.1-.3 0-.1 0-.1-.1-.2 0 0 0-.1-.1-.1-.2-.2-.2-.4 0-.5.1 0 .3-.1.4.1zM182.8 132.1c.4 1.1 0 2.4-1 3-.3.2-.6-.3-.3-.5.4-.2.6-.6.8-.9.1-.4.2-.8 0-1.2-.1-.1 0-.3.1-.4.2-.2.4-.2.4 0z"/>
    <path class="st7" d="M193.4 174.5c1.5-2.9 1.3-6.5-.3-9.3-.5-.8-1-1.5-1.7-2.2-.3-.3.2-.7.4-.4 2.5 2.4 3.6 6.1 3 9.5-.2 1-.5 1.9-.9 2.7-.2.4-.7.1-.5-.3zM199.4 188.9c1.3.3 2.6 1 3.4 2.1.9 1.1 1.3 2.6 1.2 4-.1.8-.3 1.6-.7 2.4-.2.3-.7 0-.5-.3.9-1.5.9-3.4.1-4.9-.7-1.4-2.1-2.4-3.6-2.7-.5-.1-.3-.7.1-.6z"/>
    <path class="st1" d="M108.9 240c-5.1-.2-10.1-.5-15.2-1-5-.5-10.1-1.1-15.1-1.8-2.8-.4-5.6-.9-8.4-1.4-.4-.1-.2-.6.2-.6 5 .9 10 1.7 15 2.3 5 .6 10 1.1 15 1.4 2.8.2 5.7.3 8.5.4.4.2.3.7 0 .7zM63.5 231.5c-4.3-3.1-8.3-6.7-11.9-10.6-3.6-3.9-6.8-8.2-9.5-12.8-.7-1.2-1.4-2.3-2-3.6-.6-1.1-.9-2.6.2-3.5.9-.8 2.3-1 3.5-1.2 1.4-.3 2.9-.5 4.3-.6 5.8-.6 11.7-.2 17.5.9 5.8 1.1 11.5 2.8 17.1 4.9.7.3 1.4.5 2.1.8.4.1.2.7-.2.6-5.4-2.1-11-3.9-16.7-5.2-5.6-1.2-11.4-1.9-17.1-1.6-2.8.1-5.7.5-8.4 1.1-.5.1-1.1.3-1.5.6-.5.4-.7.9-.6 1.5.1.7.4 1.3.7 1.9.3.6.6 1.1.9 1.7 2.6 4.5 5.6 8.8 9 12.7 3.4 3.9 7.3 7.5 11.4 10.7.5.4 1 .8 1.5 1.1.3.3 0 .8-.3.6zM92.2 212c2.6 2.8 5 5.7 7.2 8.9 2.1 3.2 4 6.5 5.6 10 .9 1.9 1.7 3.9 2.4 5.9.1.4-.5.5-.6.1-1.3-3.6-2.8-7-4.6-10.3-1.8-3.3-3.9-6.4-6.3-9.4a48.1 48.1 0 0 0-4.2-4.8c-.2-.3.2-.7.5-.4zM197.6 159.4c-.2-.6-.4-1.2-.9-1.6-.5-.4-1.2-.6-1.7-.2-.2.2-.3.4-.4.7-.5 1.3-.5 2.8-.3 4.1.4 3.8 1.8 7.5 4 10.6.7.9 1.8 1.9 2.9 1.5 1-.4 1.1-1.9.9-3-.4-2.2-1.4-4.3-2.8-6l-1.7-6.1z"/>
    <path class="st4" d="M201.8 173.7c.5-.7.5-1.6.4-2.4-.4-4-1.9-7.9-4.1-11.2-.7-.9-1.6-1.9-2.7-1.7-.1 5.1 1.4 10.2 4.1 14.5.2.4.5.8 1 1 .4.2 1 0 1.2-.4l.1.2z"/>
    <path class="st7" d="M137.9 260.3c1.1 1.3.7 3.5-.8 4.3-.3.2-.6-.3-.3-.5 1.2-.6 1.5-2.4.6-3.4-.1-.2.3-.7.5-.4zM129.8 260.1c-.8.6-1.8.8-2.7.3-.1-.1-.2-.3-.1-.4.1-.1.3-.2.4-.1.6.3 1.5.2 2-.2.1-.1.3-.1.4 0 .1.1.1.3 0 .4zM97.5 195c.1 1-.7 1.8-1.6 2.1-1.1.4-2.4 0-3.4-.4-.4-.1-.2-.7.2-.6.9.4 1.9.8 2.9.5.7-.2 1.4-.8 1.3-1.6 0-.4.6-.4.6 0zM104.5 186.9c2.1.9 2.6 4 .9 5.6-.3.3-.7-.2-.4-.4 1.3-1.2 1-3.8-.7-4.6-.1-.1-.2-.2-.2-.4.1-.1.3-.3.4-.2z"/>
    <path class="st10" d="M63.4 244.5c1 2.6-.3 5.7-2.5 7.3-.6.4-1.4.8-2.1.9-.3.1-.6-.1-.7-.4-.1-.3.1-.7.4-.7.6-.1 1.1-.3 1.6-.6.2-.2.4-.3.6-.5l.6-.6c.4-.5.7-1 .9-1.5.2-.6.3-1.1.4-1.7v-.9c-.1-.3-.1-.7-.3-1-.1-.3.1-.7.4-.7.3-.1.6.1.7.4zM53.1 243.5c-.9.4-1.6 1-2.1 1.8s-.7 1.8-.6 2.6c0 .3-.1.6-.4.7-.3.1-.7-.1-.7-.4-.3-2.4 1-4.9 3.3-5.8.3-.1.6-.1.8.2.1.3 0 .7-.3.9zM117.6 109.3c-2.4.8-4.8 1.5-7.2 2.3-.4.1-.5-.5-.1-.6 2.4-.8 4.8-1.5 7.2-2.3.3-.1.4.5.1.6zM115.1 112.7c-1.4.3-2.8.6-4.2 1-.4.1-.5-.5-.1-.6 1.4-.3 2.8-.6 4.2-1 .3 0 .4.6.1.6zM135.2 80.8c-.6.3-1.2.7-1.9 1-.1.1-.3 0-.4-.1-.1-.1 0-.3.1-.4.6-.3 1.2-.7 1.9-1 .1-.1.3 0 .4.1.1.2.1.3-.1.4zM136 82.2c-.5.1-1.1.3-1.6.4-.2 0-.3-.1-.4-.2 0-.2.1-.3.2-.4.5-.1 1.1-.3 1.6-.4.2 0 .3.1.4.2 0 .2-.1.4-.2.4z"/>
    <path class="st5" d="M129.9 3c-6.1-1.6-12.6-3-18.7-.8-2.7 1-4.9 2.6-6.6 4.9-1.7 2.2-3 4.6-4.9 6.6-4 4-9.9 4-14.8 6.3-2.5 1.2-4.7 2.9-6.3 5.1-.9 1.1-1.6 2.3-2.1 3.6-.6 1.3-1.1 2.6-1.8 3.9-1.3 2.2-3.3 3.6-5.7 4.2-2.4.6-5 .4-7.3-.3-.6-.2-1.2-.3-1.7-.6-.4-.1-.2-.7.2-.6 4.4 1.6 10.5 1.9 13.6-2.3.8-1.2 1.4-2.5 2-3.9.6-1.3 1.2-2.5 2-3.6 1.5-2.2 3.6-4.1 5.9-5.4 2.4-1.4 5-2 7.7-2.8 2.6-.7 5.3-1.6 7.4-3.3 2.1-1.8 3.5-4.2 5-6.5.8-1.1 1.7-2.2 2.7-3.1 1-.9 2.2-1.6 3.4-2.2 5.7-2.7 12.2-1.9 18.1-.4l2.4.6c.1.2-.1.7-.5.6z"/>
    <path class="st9" d="M119.1 28.9c-1.1-.9-2.3-1.7-3.5-2.5-.3-.2 0-.7.3-.5 1.3.8 2.5 1.6 3.6 2.6.1.1.1.3 0 .4-.1.1-.3.1-.4 0z"/>
    <path class="st9" d="M118.1 28c-.7.4-1.4.7-2.1 1.1-.1.1-.3 0-.4-.1-.1-.1 0-.3.1-.4.7-.4 1.4-.7 2.1-1.1.1-.1.3 0 .4.1.1.2.1.4-.1.4z"/>
    <path style="opacity:.48;fill:#a46e4a" d="m134.5 41.5-12.2-1.7 9.2 5.6z"/>
    <ellipse transform="matrix(.02353 -.9997 .9997 .02353 110.405 160.89)" cx="137.6" cy="23.9" rx="1.8" ry="1.2"/>
    <path class="st9" d="M143.1 31c-1.6 0-3.2-.7-4.3-2-.3-.3.2-.7.4-.4 1 1.1 2.4 1.8 3.9 1.8.4 0 .4.6 0 .6z"/>
    <path class="st5" d="M138.7 18.7c.3.5.3 1 .2 1.5-1.7-.6-3.6-.4-5.1.6-.3-1.1.7-2.3 1.8-2.6 1.1-.4 2.3-.1 3.5.1l-.4.4z"/>
    <path class="st1" d="M156.8 127.1c.9.2 1.7 1 1.8 1.9.1.9-.4 1.9-1.3 2.3-.3.2-.6-.4-.3-.5.6-.3 1.1-1 1-1.7-.1-.7-.7-1.3-1.3-1.4-.2 0-.2-.2-.2-.4 0-.1.2-.2.3-.2z"/>
    <path class="st6" d="m126.6 165.8-18-8.4c-1.7-.8-3.4-1.6-5-2.3-.2-.1-.2-.3-.1-.4 2-4.2 4.1-8.4 6.3-12.5.6-1.2 1.3-2.3 1.9-3.5.1-.1.2-.2.3-.1 3 1.3 5.9 2.6 8.9 3.9 3 1.3 5.9 2.7 8.8 4.1 1.6.8 3.3 1.6 4.9 2.4.2.1.2.3.1.4-.3.5-.5 1.1-.8 1.6l-1.8 3.9c-.7 1.6-1.5 3.1-2.2 4.7-.6 1.4-1.3 2.7-1.9 4.1-.2.4-.4.9-.6 1.3l-.3.6c-.2.4-.7.1-.5-.3.3-.5.5-1.1.8-1.6l1.8-3.9c.7-1.6 1.5-3.1 2.2-4.7.6-1.4 1.3-2.7 1.9-4.1.2-.4.4-.9.6-1.3.1-.2.2-.5.3-.6 0 .1.1.2.1.4-5.7-2.9-11.6-5.6-17.5-8.2-1.7-.7-3.3-1.4-5-2.2.1 0 .2-.1.3-.1-2.2 4.1-4.4 8.2-6.5 12.4-.6 1.2-1.2 2.4-1.7 3.6 0-.1-.1-.3-.1-.4l18 8.4c1.7.8 3.4 1.6 5 2.3.5.2.1.7-.2.5z"/>
    <path class="st6" d="M112.6 139.1c1.7 3.6 3.5 7.1 5.6 10.4.6 1 1.2 1.9 1.8 2.8.1.2 0 .4-.2.4-3.9 1-8 1.7-12 1.9-1.1.1-2.3.1-3.4.1-.4 0-.4-.6 0-.6 4 0 8-.5 12-1.3 1.1-.2 2.2-.5 3.3-.8-.1.1-.1.3-.2.4-2.2-3.3-4.1-6.7-5.9-10.2l-1.5-3c-.2-.2.3-.4.5-.1z"/>
    <path class="st1" d="M96.6 66.5c.4 1.8 1.5 3.5 3 4.5.3.2 0 .7-.3.5-1.7-1.1-2.9-2.9-3.3-4.9 0-.3.6-.4.6-.1zM115.4 54c-.2.9-.4 1.7-.6 2.6 0 .2-.2.2-.4.2s-.2-.2-.2-.4c.2-.9.4-1.7.6-2.6 0-.2.2-.2.4-.2.1.1.2.3.2.4zM111.2 54.9v1c0 .2-.1.3-.3.3-.2 0-.3-.1-.3-.3v-1c0-.2.1-.3.3-.3.1 0 .3.1.3.3zM107.2 66.3c0 .9 0 1.7-.1 2.6 0 .4-.6.4-.6 0 0-.9 0-1.7.1-2.6 0-.4.6-.4.6 0zM109.5 78.4c.3 1 .7 2.1 1 3.1.1.2-.1.3-.2.4-.2 0-.3-.1-.4-.2-.3-1-.7-2.1-1-3.1-.1-.2.1-.3.2-.4.2-.1.3 0 .4.2zM107.3 82.4c.5.8.7 1.9.5 2.8 0 .2-.2.2-.4.2s-.2-.2-.2-.4c.2-.8 0-1.7-.4-2.4-.1-.1 0-.3.1-.4.2 0 .3.1.4.2zM90.6 88.1c-2.4-2.5-5-4.7-7.9-6.8-.8-.6-1.6-1.1-2.4-1.7-.3-.2 0-.7.3-.5 2.9 1.9 5.7 4.1 8.3 6.5l2.1 2.1c.3.2-.2.6-.4.4zM87.3 90.1c-2.7-2.2-5.3-4.5-7.9-6.7-.8-.6-1.5-1.3-2.3-1.9-.3-.2.1-.7.4-.4 2.6 2.2 5.3 4.5 7.9 6.7.8.6 1.5 1.3 2.3 1.9.3.3-.1.7-.4.4zM101.3 228c-1.5 2.8-2.9 5.5-4.4 8.3-.2.3-.7 0-.5-.3 1.5-2.8 2.9-5.5 4.4-8.3.2-.4.7-.1.5.3zM98.1 226.3c-1.5 1.3-2.6 3.1-3.1 5.1-.1.4-.7.2-.6-.2.5-2.1 1.7-3.9 3.3-5.3.3-.2.7.2.4.4zM95.1 224.2c-.9 1-1.8 2.1-2.7 3.1-.1.1-.3.1-.4 0-.1-.1-.1-.3 0-.4.9-1 1.8-2.1 2.7-3.1.1-.1.3-.1.4 0 .1.1.1.3 0 .4zM72.4 207.9c-2.1 4.3-4.3 8.6-6.4 12.9l-1.8 3.6c-.2.3-.7 0-.5-.3 2.1-4.3 4.3-8.6 6.4-12.9l1.8-3.6c.2-.3.7 0 .5.3zM67.3 207.8c-1.2 2.9-2.6 5.8-4.2 8.5-.4.8-.9 1.6-1.4 2.3-.2.3-.7 0-.5-.3 1.7-2.7 3.1-5.4 4.5-8.3.4-.8.7-1.6 1.1-2.5.1-.3.6-.1.5.3zM61.4 210.2c-1.2 1.7-2.4 3.5-3.6 5.2-.2.3-.7 0-.5-.3 1.2-1.7 2.4-3.5 3.6-5.2.2-.3.7 0 .5.3zM56.8 207.1c-1 1.7-1.9 3.4-2.9 5.1-.2.3-.7 0-.5-.3 1-1.7 1.9-3.4 2.9-5.1.2-.4.7-.1.5.3zM51.1 206c-.9.7-1.5 1.7-1.6 2.9 0 .2-.1.3-.3.3-.1 0-.3-.1-.3-.3.2-1.3.8-2.5 1.8-3.3.2-.3.6.1.4.4zM66.3 180.1c-5.3 0-10.6-.2-15.9-.4-5.3-.3-10.6-.6-15.9-1.1-3-.3-6-.6-8.9-.9-.4 0-.4-.6 0-.6 5.3.6 10.6 1.1 15.8 1.5 5.3.4 10.6.6 15.9.8 3 .1 6 .1 9 .2.4-.1.4.5 0 .5z"/>
    <path class="st7" d="M23.6 183.3c-1.4 1.4-1.7 3.7-.7 5.4.2.3-.3.6-.5.3-1.2-1.9-.8-4.5.8-6.1.3-.3.7.2.4.4zM24.6 185.1c-.7 1.5-.8 3.2-.1 4.7.2.3-.4.6-.5.3-.8-1.7-.7-3.6.1-5.3.2-.4.7-.1.5.3z"/>
    <path class="st1" d="M142.5 243c-3.3.1-6.7-.4-9.9-1.3l-2.7-.9c-.4-.1-.2-.7.2-.6 3.1 1.2 6.3 2 9.6 2.2.9.1 1.9.1 2.8.1.4-.1.4.5 0 .5z"/>
    <path class="st1" d="M139 239.5c.4 1 .4 2.1 0 3.1-.1.1-.2.2-.4.2-.1 0-.3-.2-.2-.4.3-.8.4-1.8 0-2.7-.1-.1 0-.3.1-.4.2.1.4.1.5.2zM136.6 238.9c.1.9.2 1.7.3 2.6 0 .2-.2.3-.3.3-.2 0-.3-.1-.3-.3-.1-.9-.2-1.7-.3-2.6 0-.2.2-.3.3-.3.2 0 .3.1.3.3zM134.3 238.4c.5.9.7 1.8.8 2.8 0 .2-.2.3-.3.3-.2 0-.3-.1-.3-.3 0-.9-.3-1.7-.7-2.5-.2-.4.3-.6.5-.3zM134.5 259.3v-.2c-.2-.3-.3-.3-.3-.4-.2-.1-.2-.1-.3-.1h-.5c-.3.1-.3.1-.4.1-.3.4-.4.5-.6.5-.1 0-.3-.2-.2-.4.2-.5.6-.8 1.2-.8.5 0 1 .1 1.3.4.2.2.3.4.4.7 0 .2 0 .3-.2.4-.2 0-.4-.1-.4-.2z"/>
    <path class="st7" d="M241.1 254c-1.4 1.2-3.4 1.4-5.1.5-.3-.2 0-.7.3-.5 1.4.7 3.1.6 4.3-.4.3-.2.8.2.5.4zM100.2 161.7c-1-.4-2-.4-3-.1-.2.1-.3-.1-.4-.2 0-.2.1-.3.2-.4 1.1-.4 2.3-.3 3.3.1.1.1.2.2.2.4 0 .1-.2.2-.3.2zM192 153.5c-.4.6-.7 1.2-1.1 1.8-.1.1-.3.2-.4.1-.1-.1-.2-.3-.1-.4.4-.6.7-1.2 1.1-1.8.1-.1.3-.2.4-.1.1 0 .1.2.1.4zM190.9 150.9l-1.3 1.3c-.1.1-.3.1-.4 0-.1-.1-.1-.3 0-.4l1.3-1.3c.1-.1.3-.1.4 0 .1.1.1.3 0 .4zM189.8 146.9c-.3.4-.5.9-.8 1.3-.1.1-.3.2-.4.1-.1-.1-.2-.3-.1-.4.3-.4.5-.9.8-1.3.1-.1.3-.2.4-.1.1 0 .1.2.1.4zM137.9 8.6c-.2 3.8-3.7 7-7.4 7.1-1.8 0-4.4-1.2-5.7.6-.5.7-.7 1.5-.9 2.3-.2.8-.5 1.7-.9 2.4-1.1 1.8-3.6 2.4-5.3 1.2-.3-.2 0-.7.3-.5 1.5 1 3.5.5 4.5-1 .9-1.4.8-3.2 1.7-4.6.5-.8 1.2-1.3 2.1-1.4 1-.2 2.1.1 3.1.2.9.1 1.8.1 2.7-.1.9-.2 1.7-.6 2.4-1.2 1.6-1.2 2.7-3.1 2.9-5.1 0-.3.6-.3.5.1zM104.5 24.1c-1 1.3-2.6 1.7-4.2 1.9-1.7.2-3.4.1-5.1.4-.8.1-1.6.3-2.3.7-.8.4-1.4 1-2 1.8-1.1 1.5-1.6 3.3-1.9 5.1-.3 2.3-.4 4.6-1 6.8-.5 1.9-1.5 3.6-3 5-1.4 1.3-3.1 2.2-4.9 2.6-2.3.5-4.7.3-7 .2-2-.1-4 0-5.8.9-1.5.7-2.9 1.8-3.4 3.3-.1.4-.2.8-.2 1.2 0 .4-.6.4-.6 0 .1-3.6 4.1-5.6 7.2-5.9 2.4-.2 4.8.2 7.2.1 2.1-.1 4.1-.6 5.8-1.8 1.6-1.1 2.8-2.6 3.6-4.3.9-2.1 1-4.4 1.3-6.7.2-2 .5-3.9 1.5-5.7.8-1.6 2.1-2.9 3.8-3.5 1.6-.6 3.4-.6 5.1-.6 1.5-.1 3.2-.2 4.6-1.1.3-.2.6-.5.8-.8.3-.3.7.1.5.4zM99.6 37c-2.4.2-4.6 1.5-6 3.5-.8 1.1-1.2 2.3-1.4 3.6-.2 1.5-.3 3-.5 4.5-.2 1.3-.7 2.5-1.5 3.6-.7 1-1.7 1.8-2.8 2.4-1.2.6-2.5.9-3.8 1-1.6.1-3.2-.2-4.8-.2-1.2 0-2.4.2-3.5.8-.9.5-1.8 1.3-2.1 2.4-.1.3-.1.5-.1.8 0 .4-.6.4-.6 0 0-2.4 2.4-4 4.6-4.4 3-.6 6.1.7 9-.4 2.4-.9 4.3-3 4.9-5.5.4-1.5.4-3.1.6-4.6.2-1.4.5-2.7 1.3-3.9 1.3-2.1 3.5-3.6 5.9-4 .3-.1.6-.1.9-.1.2-.2.2.4-.1.5zM99.1 44.2c.1.9-.1 1.8-.5 2.7-.4.9-1.1 1.5-1.8 2.1-.8.5-1.6.9-2.4 1.5-.8.5-1.4 1.2-1.8 2-1 1.6-1.4 3.5-2.1 5.2-.6 1.6-1.6 3.3-3.2 4.1-1.5.8-3.6.8-4.8-.6-.2-.3.2-.7.4-.4 1 1.1 2.7 1.1 3.9.5 1.6-.7 2.4-2.3 3.1-3.8.7-1.6 1.1-3.4 1.9-4.9.4-.8.9-1.5 1.6-2.1.7-.6 1.5-1 2.2-1.5.9-.5 1.7-1 2.2-1.9.5-.9.7-1.9.6-2.9 0-.2.2-.3.3-.3.3 0 .4.2.4.3zM117 12.3c-.6-.4-1.3 0-1.8.4-.6.4-1.1 1-1.5 1.6-.9 1.1-1.7 2.5-2.2 3.8-.3.8-.5 1.6-.6 2.4-.1.4-.7.4-.6 0 .2-1.6.8-3.2 1.6-4.6.4-.7.9-1.4 1.4-2.1.5-.6 1.1-1.2 1.7-1.7.7-.5 1.6-.9 2.4-.3.2.2-.1.7-.4.5zM111.2 28.4c0 2.7-1.7 5.3-4.2 6.5-.7.3-1.4.5-2.2.6-.4 0-.4-.6 0-.6 2.5-.3 4.6-2.1 5.5-4.4.2-.7.4-1.4.4-2.1-.1-.4.5-.4.5 0zM118.5 6.3c-2.6.4-4.9 2.4-5.7 4.9-.1.4-.7.2-.6-.2.9-2.7 3.3-4.8 6.1-5.3.5-.1.6.5.2.6z"/>
</svg>
