<!-- Generator: Adobe Illustrator 25.0.0, SVG Export Plug-In  -->
<svg version="1.1" xmlns="http://www.w3.org/2000/svg" xmlns:xlink="http://www.w3.org/1999/xlink" x="0px" y="0px" width="363.7px"
	 height="360.6px" viewBox="0 0 363.7 360.6" style="overflow:visible;enable-background:new 0 0 363.7 360.6;"
	 xml:space="preserve">
<style type="text/css">
	.st0{fill:#32637A;}
	.st1{fill:#F6A472;}
	.st2{fill:#6DA8C6;}
	.st3{opacity:0.37;}
	.st4{clip-path:url(#SVGID_2_);fill:#FFFFFF;}
	.st5{fill:#8E571F;}
	.st6{fill:#CE7F52;}
	.st7{fill:#C2B38C;}
	.st8{fill:#635437;}
	.st9{fill:#682F19;}
	.st10{opacity:0.61;fill:#682F19;}
	.st11{fill:#563211;}
	.st12{fill:#FFFFFF;}
	.st13{fill:#F59F18;}
	.st14{fill:#C23F37;}
	.st15{opacity:0.53;fill:#682F19;}
	.st16{fill:#8E2A28;}
	.st17{clip-path:url(#SVGID_4_);fill:#FFFFFF;}
</style>
<defs>
</defs>
<g>
	<g>
		<path class="st0" d="M75.2,202.1c4,5.7,8.2,11.5,12.2,17.2c3.3,4.7,7.1,9.7,12.7,10.8c3.9,0.7,7.9-0.6,11.7,0.4
			c5.8,1.5,9.5,8.1,15.5,8.6c2.8,0.2,5.5-1,8.3-0.9c5.1,0,9.6,4.1,14.7,4.1c5.8-0.1,11-4.8,14.5-9.5c-10.2,2.4-21-4.8-28.8-11.8
			c-7.8-7-15.8-15.1-26.2-16.1c-3.8-0.4-7.6,0.2-11.3-0.4c-2.9-0.5-5.7-1.8-8-3.8L75.2,202.1z"/>
		<path class="st1" d="M96.6,197.8c-6.9,7.3-13.2,15.1-18.8,23.4c-1.3-8.3-8.3-14.3-15.3-18.9c-7-4.6-14.7-8.9-18.9-16.2
			c-3.1,2.4-6.1,4.9-9.2,7.3c11,17.1,24.6,32.5,40,45.7c1.7,1.4,3.4,2.9,5.6,3.3c3.3,0.7,6.6-1.2,9.4-3.1
			c11.5-7.7,21.8-17.2,30.4-28c-0.4,0.5-0.8,1.1-1.2,1.6L96.6,197.8z"/>
		<path class="st1" d="M129.4,214.7c-2.5,7.9-4,16.2-4.4,24.5c-0.3,5.6-0.1,11.4-2.2,16.7c-1.9,4.7-2.8,8.6-4,13.5
			c-1.4,5.8-1.8,11.8-0.7,17.7c1.2,6.6,0.9,13.6-0.9,20c-1,3.7-2.5,7.7-0.8,11.1c0.7,1.5,2.1,2.6,3.6,3.3c1.3,0.6,1.4,5.2,2.8,4.8
			c3.7-1,1.6,1.2,3-2.3c14.3-36.2,16.7-72.8,27.3-102.2c0.4-1.2,0.9-2.5,0.4-3.7c-0.4-1.1-1.5-1.7-2.5-2.2
			c-4.9-2.4-10.4-3.4-15.8-2.7L129.4,214.7z"/>
		<path class="st2" d="M122.9,148.7c-3.3,6-10.8,8.1-15.9,12.7c-7.9,7.1-9.1,19.2-16.3,27c-4.9,5.3-12.1,7.4-15.5,13.7
			C84,204.9,87,216.9,94.7,222c10.5,7,25.7,0.7,36.8,6.8c3.8,2.1,6.8,5.5,10.8,7.2c6.9,3,17.4-0.2,24.4-2.8
			c-4.5-9-1.8-68.8-5.1-77.8c-6.5,0.9-12.7-2.2-18.7-4.8c-6-2.6-12.7-5-18.9-2.8L122.9,148.7z"/>
		<path class="st0" d="M102.9,322.4c4.5,9.7,14.3,23.2,18.9,32.9c0.7,1.5,1.5,3.1,2.8,4.2c1.3,1.1,3.3,1.5,4.7,0.6
			c1.5-1,1.7-3.1,1.7-4.9c-0.1-8.7-2.9-17.3-2.2-26c0.1-1.5,0.3-3.1,0-4.6c-0.3-1.5-1.4-2.9-2.9-3.2c-0.9-0.2-1.9,0.1-2.8,0
			c-2.3-0.2-3.8-2.5-4.3-4.8c-0.3-1.3-0.3-2.7-1.1-3.8c-0.8-1.1-2.7-1.5-3.3-0.3L102.9,322.4z"/>
		<path class="st0" d="M41.2,175.5c-10,1.9-24.8,7.8-34.9,9.7c-1.6,0.3-3.2,0.6-4.6,1.6s-2.2,2.7-1.6,4.2c0.6,1.6,2.4,2.3,4.1,2.7
			c8.1,2,16.7,1.4,24.5,4.1c1.4,0.5,2.8,1,4.2,1.1c1.5,0,3-0.6,3.7-1.9c0.4-0.8,0.3-1.8,0.6-2.6c0.7-2.1,3.2-2.9,5.4-2.8
			c1.3,0.1,2.6,0.4,3.8-0.1c1.2-0.5,2-2.1,1.1-3L41.2,175.5z"/>
		<g class="st3">
			<defs>
				<path id="SVGID_1_" class="st3" d="M122.9,148.7c-3.3,6-10.8,8.1-15.9,12.7c-7.9,7.1-9.1,19.2-16.3,27
					c-4.9,5.3-12.1,7.4-15.5,13.7C84,204.9,87,216.9,94.7,222c10.5,7,25.7,0.7,36.8,6.8c3.8,2.1,6.8,5.5,10.8,7.2
					c6.9,3,17.4-0.2,24.4-2.8c-4.5-9-1.8-68.8-5.1-77.8c-6.5,0.9-12.7-2.2-18.7-4.8c-6-2.6-12.7-5-18.9-2.8L122.9,148.7z"/>
			</defs>
			<clipPath id="SVGID_2_">
				<use xlink:href="#SVGID_1_"  style="overflow:visible;"/>
			</clipPath>
			<polygon class="st4" points="121.8,175.2 115,171.5 107.4,172.1 111,165.3 110.5,157.7 117.2,161.3 124.9,160.8 121.2,167.5 			
				"/>
			<polygon class="st4" points="132.2,201.3 125.5,197.7 117.9,198.3 121.5,191.6 120.9,184 127.6,187.6 135.2,187 131.6,193.7 			
				"/>
			<polygon class="st4" points="156.1,191.8 148.1,186.3 138.5,186 144,178 144.3,168.4 152.2,173.8 161.9,174.2 156.4,182.1 			"/>
			<polygon class="st4" points="152.2,156.2 141.9,150.7 130.3,151.6 135.8,141.3 134.8,129.7 145.1,135.2 156.8,134.2 151.3,144.6 
							"/>
			<polygon class="st4" points="154.9,218.5 146.7,215 137.9,216.5 141.5,208.3 140,199.5 148.2,203 157,201.5 153.5,209.7 			"/>
			<polygon class="st4" points="172,205.2 165.2,203.8 158.6,206.3 160,199.4 157.5,192.8 164.4,194.2 171,191.7 169.6,198.6 			"/>
			<polygon class="st4" points="143.8,243.1 134.2,240 124.5,242.5 127.6,233 125.1,223.3 134.6,226.4 144.3,223.9 141.2,233.4 			
				"/>
			<polygon class="st4" points="166.2,240.8 157,237.6 147.5,239.8 150.7,230.6 148.5,221.1 157.7,224.4 167.2,222.1 167.2,230.8 
							"/>
			<polygon class="st4" points="113.8,217.8 105.6,213.1 96.1,213.6 100.8,205.4 100.4,196 108.6,200.7 118,200.2 113.3,208.4 			
				"/>
			<polygon class="st4" points="100.1,186 95.7,183.9 91,184.5 93.1,180.2 92.5,175.5 96.8,177.5 101.5,176.9 99.5,181.3 			"/>
			<polygon class="st4" points="87.6,200.3 79.7,196.7 71.2,197.9 74.8,190.1 73.6,181.6 81.4,185.2 89.9,183.9 86.3,191.8 			"/>
			<polygon class="st4" points="113,193.2 109.5,190.5 105.1,190 107.9,186.5 108.3,182.1 111.8,184.9 116.2,185.4 113.4,188.8 			
				"/>
			<polygon class="st4" points="135,175.5 131.2,172.9 126.6,172.8 129.2,168.9 129.3,164.3 133.1,166.9 137.8,167 135.2,170.9 			
				"/>
			<polygon class="st4" points="143.7,163 140.7,161 137.2,160.9 139.2,158 139.2,154.4 142.2,156.4 145.8,156.5 143.8,159.5 			"/>
			<polygon class="st4" points="161.2,169.7 157.3,167.1 152.7,167 155.3,163.2 155.4,158.5 159.3,161.1 163.9,161.2 161.3,165.1 
							"/>
			<polygon class="st4" points="124.3,151.3 118.3,150.1 112.5,152.4 113.7,146.3 111.5,140.6 117.5,141.8 123.3,139.5 122.1,145.5 
							"/>
			<polygon class="st4" points="89.5,219.6 83.6,215 76.2,214.2 80.8,208.4 81.6,200.9 87.4,205.6 94.8,206.3 90.2,212.2 			"/>
			<polygon class="st4" points="131.1,216 126.4,212.9 120.9,212.8 123.9,208.2 124,202.6 128.6,205.7 134.2,205.8 131.1,210.4 			
				"/>
			<polygon class="st4" points="118.1,232.6 110.6,230.4 103.1,232.5 105.4,225.1 103.2,217.6 110.7,219.8 118.2,217.7 115.9,225.1 
							"/>
		</g>
		<path class="st5" d="M130.6,44.8c-3.1,1.8-7-0.1-10.4,0.5c-2.6,0.5-4.7,2.3-6.7,4.1c-2.6,2.3-5.4,5.2-5.2,8.7
			c0.1,1.4,0.7,2.8,0.7,4.3c0,1.9-1.1,3.6-1.9,5.3c-0.8,1.7-1.2,3.9,0,5.4c0.8,1,2.1,1.4,3.1,2.1c3.1,2.3,3.5,7.3,6.9,8.9
			c2,0.9,4.3,0.4,6.5-0.2c0.8-0.2,1.6-0.4,2.3-0.1c0.9,0.4,1.3,1.6,1,2.5c-0.2,1-0.9,1.7-1.6,2.4c3.1-2.5,6.5-5.6,6.2-9.5
			c-0.1-2-1.2-3.8-1.8-5.7c-1.3-5.1,1.4-10.2,4-14.7L130.6,44.8z"/>
		<path class="st1" d="M150.6,73.2c-0.6-1.4-1.5-3.1-2.4-4.8c-1.2,0.4-2.6,0.5-3.9,0.2c-1.9-0.4-3.6-1.3-5.2-2.3
			c2.4,0.8,5.3,0.3,7.3-1.2c-0.8-1.4-1.4-2.4-1.4-2.4l3.6-4.2l-6.2,0.4c0,0-3.4-6.1-5.1-9.2l-21,9.1c2.1,3.7,4.1,7.3,6.2,11
			c-4-0.3-7.5,4.4-6,8.1c1.5,3.7,7.2,4.8,9.9,1.9c1.8,8.8,1.2,11.2,2,20.1c3.5-0.5,15.2-3.9,15.1-4.8c-0.7-6.3-1.2-8.4-1.8-14.7
			c2.7-0.6,5.3-1.6,7.8-2.9c0.7-0.3,1.3-0.8,1.7-1.4C151.5,75.2,151.1,74.1,150.6,73.2z"/>
		<path class="st6" d="M172.8,15.1c-3-4.2-5.2-9.6-3.4-14.5c0.1-0.2,0.2-0.4,0.4-0.5c0.8-0.5,1.6,0.6,1.7,1.5c0.3,2.4-0.3,5,1.2,6.9
			c-0.1-2.7,0.6-5.5,2-7.9c0.3-0.5,1-0.4,1.2,0.2c0.7,3.3-1.3,7-0.3,10.4c-0.7-3-0.1-6.2,1.6-8.7c0.2-0.3,0.4-0.5,0.8-0.4
			c0.3,0.1,0.4,0.4,0.4,0.7c-0.2,3.2-0.3,6.5-0.5,9.7c-0.1-1.5-0.2-3,0.3-4.4c0-0.1,0.1-0.2,0.1-0.3c0.6-1.5,2.8-1.1,2.8,0.5
			l0.2,10.3c0,0.5-0.2,1-0.5,1.3c-0.6,0.5-1.1,0.3-1.6,0c-2-1-3.7-2.5-5-4.3L172.8,15.1z"/>
		<path class="st1" d="M162.5,62.3c3.9-9.9,9.8-23,13.2-33.1c0.7-1.9,1.3-4,0.9-6c-0.5-2.8-2.9-4.8-4.4-7.2
			c-2.3-3.7-2.4-8.6-0.4-12.4c2,2.5,1,6.5,3,9.1c1.8,2.4,5.7,2.6,7.3,5.2c0.9,1.5,0.8,3.3,0.7,5c-1,14.8-2.8,29.5-5.6,44.1
			L162.5,62.3z"/>
		<path class="st1" d="M89,79.7c-9.5-8.6-23.5-9.6-34.9-15.5c-6.6-3.4-19.2-13.8-20.3-13.3c-2.4,1.1,4.5,6.6,4.1,8.5
			c-4.1-0.9-13.3-1.5-17.4-0.8c-1.3,0.2-1.4,2-0.1,2.4c2.4,0.7,12,1.6,14.5,1.4c-2.7-0.6-12.6-1.1-15.2-0.4
			c-1.2,0.4-1.2,2.1,0.1,2.4c2.3,0.5,12.3,1.6,14.7,1.5c-1.6-0.2-10.8-1.1-12.4-1c-1.3,0.1-1.5,2.1-0.1,2.4
			c2.2,0.5,9.4,1.4,11.6,1.6c-1.4,0.4-5.7,3.2-6.9,4.1c-1.1,0.8-0.2,2.6,1.1,2.1c4.6-1.5,15.2-5.9,19.5-7.9
			C59.1,77,66.6,89.1,81.3,93.9L89,79.7z"/>
		<path class="st7" d="M85.4,77.4c-1.4,3.5-5.9,11-7.3,14.5c-0.3,0.8-0.6,1.6-0.4,2.4c0.2,0.9,1,1.6,1.8,2.1
			c4,3.1,17.1,17.3,36.3,29.4c4.3,2.7,6.8,16.3,6.6,21.3c0,0.9,0,1.8,0.7,2.4c0.6,0.6,1.5,0.7,2.4,0.7c6.4,0.7,12.1,4.5,17.8,7.4
			c5.8,3,12.6,5.2,18.6,2.7c0.6-0.2,1.2-0.6,1.6-1.1c0.5-0.7,0.6-1.6,0.7-2.5c0.9-10.4,6.7-20.1,6-30.5c-0.4-6.2-5.7-12.7-3-18.3
			c7.1-14.8,12.3-36.7,13-46.1c-5.8-1.6-11.7-2.8-17.6-3.7C159.8,69.8,148,91.7,147.2,90c-0.8-1.7-0.9-3.7-0.9-5.5
			c-4.8,1.6-15.4,5.6-20.4,6.2c0.3,2.4,0.3,4.8-0.2,7.1c-2.2-3.2-5.2-5.8-8.7-7.5c-2.8-1.3-6-2.1-8.6-3.7c-1.6-1-3-2.4-4.5-3.6
			c-5.3-4.2-12.1-6.5-18.9-6.5c0.3,0.3,0.6,0.7,0.9,1L85.4,77.4z"/>
		<g>
			<path class="st8" d="M128.2,90.9c-0.1,2.1-0.1,4.3-0.2,6.4c0,0.5,0.7,0.5,0.7,0c0.1-2.1,0.1-4.3,0.2-6.4
				C128.9,90.5,128.2,90.4,128.2,90.9L128.2,90.9z"/>
		</g>
		<g>
			<path class="st8" d="M131,91.1c0.2,2,0.2,4,0.2,5.9c0,0.5,0.7,0.5,0.7,0c0.1-2,0-4.1-0.2-6.1c0-0.2-0.3-0.3-0.4-0.3
				C131.1,90.7,131,90.9,131,91.1L131,91.1z"/>
		</g>
		<g>
			<path class="st8" d="M134.1,90.7c0.4,1.8,0.6,3.7,0.5,5.5c0,0.5,0.7,0.5,0.7,0c0-1.9-0.2-3.8-0.6-5.7
				C134.7,90.1,134,90.3,134.1,90.7L134.1,90.7z"/>
		</g>
		<g>
			<path class="st8" d="M137.5,89.3c0.7,1.9,0.9,4,0.9,6c0,0.5,0.7,0.5,0.7,0c0.1-2.1-0.2-4.2-0.9-6.2
				C138.1,88.7,137.4,88.8,137.5,89.3L137.5,89.3z"/>
		</g>
		<g>
			<path class="st8" d="M141.5,88.2c0.1,1.8,0.3,3.7,0.4,5.5c0,0.2,0.1,0.4,0.3,0.4c0.2,0,0.4-0.1,0.4-0.3c-0.1-1.8-0.3-3.7-0.4-5.5
				c0-0.2-0.1-0.4-0.3-0.4C141.7,87.9,141.5,88,141.5,88.2L141.5,88.2z"/>
		</g>
		<g>
			<path class="st8" d="M144.4,87.5c0.5,1.6,0.8,3.3,0.8,5c0,0.5,0.7,0.5,0.7,0c0-1.8-0.3-3.5-0.8-5.2C145,86.9,144.3,87,144.4,87.5
				L144.4,87.5z"/>
		</g>
		<g>
			<path class="st8" d="M148.5,91c2.6,2.5,5.1,5,7.7,7.6c1.3,1.3,2.5,2.5,3.8,3.8c1.1,1,2.1,2.1,3,3.3c1,1.3,1.9,2.7,2.3,4.3
				c0.1,0.4,0.8,0.3,0.7-0.2c-0.8-2.9-2.9-5.2-5-7.3c-2.5-2.5-5.1-5-7.6-7.5c-1.5-1.4-2.9-2.9-4.4-4.3
				C148.7,90.2,148.1,90.6,148.5,91L148.5,91z"/>
		</g>
		<g>
			<path class="st8" d="M163.7,60c-0.6,1.8-1.2,3.6-1.8,5.3c-0.2,0.4,0.5,0.7,0.7,0.2c0.6-1.8,1.2-3.6,1.8-5.3
				C164.5,59.7,163.8,59.5,163.7,60L163.7,60z"/>
		</g>
		<g>
			<path class="st8" d="M165.6,61c-0.2,1.5-0.6,3-1.1,4.4c-0.2,0.4,0.5,0.6,0.7,0.2c0.6-1.5,1-3,1.2-4.6
				C166.4,60.5,165.7,60.5,165.6,61L165.6,61z"/>
		</g>
		<g>
			<path class="st8" d="M168.5,61.8c-0.2,1.6-0.7,3.1-1.3,4.6c-0.2,0.4,0.5,0.6,0.7,0.2c0.6-1.5,1-3.2,1.3-4.8
				c0-0.2-0.2-0.4-0.3-0.4C168.7,61.5,168.6,61.6,168.5,61.8L168.5,61.8z"/>
		</g>
		<g>
			<path class="st8" d="M171.4,62.3c-0.7,1.7-1.4,3.4-2.1,5c-0.2,0.4,0.5,0.6,0.7,0.2c0.7-1.7,1.4-3.4,2.1-5
				C172.3,62.1,171.6,61.9,171.4,62.3L171.4,62.3z"/>
		</g>
		<g>
			<path class="st8" d="M174.6,62.5c-0.7,1.8-1.5,3.7-2.2,5.5c-0.2,0.4,0.5,0.6,0.7,0.2c0.7-1.8,1.5-3.7,2.2-5.5
				C175.5,62.3,174.8,62.1,174.6,62.5L174.6,62.5z"/>
		</g>
		<g>
			<path class="st8" d="M177.1,63.8c-0.5,1.6-1,3.1-1.4,4.7c-0.1,0.4,0.5,0.7,0.7,0.2c0.5-1.6,1-3.1,1.4-4.7
				C177.9,63.6,177.2,63.3,177.1,63.8L177.1,63.8z"/>
		</g>
		<g>
			<path class="st8" d="M79.5,93.4c1.3,1.2,2.6,2.4,3.8,3.6c0.3,0.3,0.9-0.2,0.5-0.5c-1.3-1.2-2.6-2.4-3.8-3.6
				C79.7,92.6,79.2,93.1,79.5,93.4L79.5,93.4z"/>
		</g>
		<g>
			<path class="st8" d="M80.9,91.5c1.3,0.6,2.5,1.4,3.5,2.3c0.1,0.1,0.4,0.2,0.5,0c0.1-0.1,0.2-0.4,0-0.5c-1.1-1-2.4-1.9-3.8-2.5
				c-0.2-0.1-0.4,0.1-0.5,0.2C80.6,91.3,80.7,91.4,80.9,91.5L80.9,91.5z"/>
		</g>
		<g>
			<path class="st8" d="M82.1,88.2c1.3,0.5,2.4,1.3,3.4,2.3c0.3,0.3,0.8-0.1,0.5-0.5c-1-1.1-2.3-1.9-3.7-2.5
				c-0.2-0.1-0.4,0.1-0.5,0.2C81.8,88,81.9,88.1,82.1,88.2L82.1,88.2z"/>
		</g>
		<g>
			<path class="st8" d="M83.1,84.4c1.6,0.4,3.1,1.1,4.5,2.1c0.4,0.3,0.8-0.3,0.4-0.6c-1.4-1-3-1.8-4.6-2.2
				C82.9,83.6,82.7,84.3,83.1,84.4L83.1,84.4z"/>
		</g>
		<g>
			<path class="st8" d="M85.4,81c1.3,0.5,2.6,1,4,1.4c0.4,0.2,0.7-0.5,0.2-0.7c-1.3-0.5-2.6-1-4-1.4C85.1,80.1,84.9,80.8,85.4,81
				L85.4,81z"/>
		</g>
		<g>
			<path class="st8" d="M87,78.5c1.1,0.6,2.2,1.2,3.4,1.8c0.2,0.1,0.4,0.1,0.5-0.1c0.1-0.2,0.1-0.4-0.1-0.5
				c-1.1-0.6-2.2-1.2-3.4-1.8c-0.2-0.1-0.4-0.1-0.5,0.1C86.8,78.2,86.9,78.4,87,78.5L87,78.5z"/>
		</g>
		<g>
			<path class="st8" d="M135.5,137.9c6.3-2.1,12.9-3.4,19.6-3.8c1.9-0.1,3.7-0.2,5.6-0.2c0.5,0,0.5-0.7,0-0.7
				c-6.7,0-13.4,0.8-19.9,2.4c-1.8,0.5-3.7,1-5.5,1.6C134.9,137.4,135,138.1,135.5,137.9L135.5,137.9z"/>
		</g>
		<g>
			<path class="st8" d="M137.1,140.9c5.3-1.7,10.8-2.9,16.4-3.6c1.6-0.2,3.2-0.3,4.7-0.4c0.5,0,0.5-0.7,0-0.7
				c-5.7,0.3-11.3,1.2-16.7,2.6c-1.5,0.4-3.1,0.9-4.6,1.3C136.5,140.3,136.7,141,137.1,140.9L137.1,140.9z"/>
		</g>
		<path class="st5" d="M121.4,69.9c3,0.4,6.2-2,6.6-5c0.5-3-1.2-6.6,0.9-8.8c1.7-1.9,4.8-1.2,7.2-2.1c3.1-1.1,4.9-4.8,4.1-8
			c-0.8-3.2-3.8-5.6-7.1-6.1c-0.3,0-0.7-0.1-1,0.1c-1,0.5-0.5,1.9-0.6,3c-0.1,1.3-1.2,2.3-2.4,2.7c-1.2,0.4-2.5,0.4-3.8,0.5
			c-3.5,0.2-7.5,1.8-8,5.2c-0.1,0.9,0,1.8-0.4,2.6c-0.7,1.6-2.9,1.9-4.3,3.1c-1.7,1.4-1.9,4.2-0.5,5.8c0.6,0.7,1.4,1.2,1.9,1.8
			c1.4,1.8,1,4.7,2.5,6.4c0.2,0.2,0.4,0.4,0.6,0.4c0.2,0,0.5-0.1,0.7-0.2c1.4-0.7,2.8-1.4,4.3-2L121.4,69.9z"/>
		<g>
			<path class="st9" d="M21.1,61.6c4,0.5,8.1,1,12.1,1.5c0.5,0.1,0.5-0.7,0-0.7c-4-0.5-8.1-1-12.1-1.5
				C20.6,60.9,20.6,61.6,21.1,61.6L21.1,61.6z"/>
		</g>
		<g>
			<path class="st9" d="M20.7,64.6c4.3,0.4,8.6,0.9,12.9,1.3c0.5,0,0.5-0.7,0-0.7c-4.3-0.4-8.6-0.9-12.9-1.3
				C20.2,63.9,20.2,64.6,20.7,64.6L20.7,64.6z"/>
		</g>
		<g>
			<path class="st9" d="M33.3,60.8c0.2,2.9,0.6,5.7,1.1,8.6c0.1,0.5,0.8,0.3,0.7-0.2c-0.5-2.8-0.9-5.6-1.1-8.4
				C34,60.4,33.3,60.4,33.3,60.8L33.3,60.8z"/>
		</g>
		<g>
			<path class="st9" d="M38,59.8c0.6,1.6,1.7,3.1,3.2,3.9c1.3,0.7,2.8,0.8,4.1-0.2c0.4-0.3-0.1-0.8-0.5-0.5c-1,0.8-2.3,0.6-3.4,0
				c-1.3-0.8-2.2-2.1-2.8-3.5C38.5,59,37.8,59.4,38,59.8L38,59.8z"/>
		</g>
		<g>
			<path class="st9" d="M38.7,66.3c0,0,0.1-0.1,0.1-0.1c0,0,0,0,0.1,0c0,0,0,0,0,0c0.1,0,0.1-0.1,0.2-0.1c0.2-0.1,0.3-0.2,0.5-0.2
				c0,0,0,0,0.1,0c0.1,0-0.1,0,0,0c0,0,0.1,0,0.1,0c0.1,0,0.2,0,0.2-0.1c0.2,0,0.3-0.1,0.5-0.1c0.2,0,0.3-0.3,0.3-0.4
				c-0.1-0.2-0.2-0.3-0.4-0.3c-0.8,0.1-1.5,0.4-2.1,0.9c-0.1,0.1-0.2,0.4,0,0.5C38.3,66.5,38.5,66.5,38.7,66.3L38.7,66.3z"/>
		</g>
		<g>
			<path class="st9" d="M78,81c0.7,0.6,1.6,0.9,2.5,1.1c0.2,0,0.4-0.2,0.4-0.3c0-0.2-0.1-0.3-0.3-0.4c0,0-0.1,0,0,0c0,0-0.1,0-0.1,0
				c-0.1,0-0.1,0-0.2,0c-0.1,0-0.2,0-0.3-0.1c-0.2-0.1-0.4-0.1-0.6-0.2c-0.1,0-0.1-0.1-0.2-0.1c-0.1,0-0.2-0.1-0.3-0.1
				c-0.2-0.1-0.3-0.2-0.5-0.3c-0.1-0.1-0.4,0-0.5,0.1C77.8,80.7,77.9,80.9,78,81L78,81z"/>
		</g>
		<g>
			<path class="st9" d="M176,3.4c0,2.2,0,4.3,0.1,6.5c0,0.5,0.7,0.5,0.7,0c0-2.2,0-4.3-0.1-6.5C176.7,2.9,176,2.9,176,3.4L176,3.4z"
				/>
		</g>
		<g>
			<path class="st9" d="M177.8,6c0,2.1,0,4.1-0.1,6.2c0,0.5,0.7,0.5,0.7,0c0-2.1,0-4.1,0.1-6.2C178.5,5.6,177.8,5.6,177.8,6L177.8,6
				z"/>
		</g>
		<g>
			<path class="st9" d="M175.1,10.4c1.2,1.4,2.8,2.5,4.5,3.3c0.2,0.1,0.4-0.1,0.5-0.2c0.1-0.2-0.1-0.4-0.2-0.5
				c-1.6-0.7-3-1.8-4.2-3.1C175.3,9.6,174.8,10.1,175.1,10.4L175.1,10.4z"/>
		</g>
		<g>
			<path class="st9" d="M170.5,10.7c-0.2-0.9-0.3-1.9-0.3-2.8c0-0.8,0-1.7,0.3-2.5c0.2-0.5,0.5-1.2,1.1-1.3c0.6-0.1,0.9,0.5,1.1,1
				c0.2,0.7,0.2,1.4,0.3,2.1c0.1,1,0.2,1.9,0.3,2.9c0.1,0.8,0.3,1.6,0.6,2.4c0.4,0.7,0.9,1.3,1.6,1.8c0.9,0.5,1.8,0.8,2.7,1.2
				c1.1,0.4,2.1,0.8,3.2,1.2c0.4,0.2,0.6-0.5,0.2-0.7c-1-0.4-2-0.8-2.9-1.1c-0.9-0.3-1.8-0.6-2.7-1.1c-0.8-0.4-1.3-1.1-1.7-1.9
				c-0.3-0.9-0.4-1.8-0.5-2.7c-0.1-1-0.1-1.9-0.2-2.9c-0.1-0.7-0.2-1.4-0.5-2c-0.4-0.6-1-0.9-1.6-0.8c-0.7,0.1-1.2,0.7-1.4,1.3
				c-0.4,0.8-0.5,1.8-0.5,2.8c0,1.1,0.1,2.3,0.4,3.4C170,11.3,170.7,11.1,170.5,10.7L170.5,10.7z"/>
		</g>
		<path class="st2" d="M175.2,30c2.6,1.1,5.4,1.5,8.2,1.2c0.1-1,0.2-2.1,0.3-3.1c-2.5,0.4-5,0.2-7.4-0.7L175.2,30z"/>
		<polygon class="st10" points="141.6,80.5 132.2,81.9 141.9,83.8 		"/>
		<g>
			<path class="st9" d="M119.7,74.5c1.8,0.2,3.3,1.4,4.1,3c0.2,0.4,0.8,0.1,0.6-0.3c-0.9-1.8-2.7-3.1-4.7-3.4
				C119.3,73.7,119.3,74.4,119.7,74.5L119.7,74.5z"/>
		</g>
		<g>
			<path class="st9" d="M121.1,76.9c0.2-0.1,0.4-0.3,0.7-0.4c0.1,0,0.1,0,0.2-0.1c0,0,0,0,0,0c0,0-0.1,0,0,0c0,0,0.1,0,0.1,0
				c0.1,0,0.3-0.1,0.4-0.1c0.2,0,0.3-0.2,0.3-0.4c-0.1-0.2-0.2-0.3-0.4-0.3c-0.5,0.1-1.1,0.3-1.5,0.7c-0.1,0.1-0.1,0.1-0.2,0.2
				c0,0.1,0,0.2,0,0.3C120.7,76.9,120.9,77,121.1,76.9L121.1,76.9z"/>
		</g>
		<path d="M139.1,61.6c0.3,1,0,2-0.6,2.2c-0.7,0.2-1.5-0.4-1.8-1.4c-0.3-1,0-2,0.6-2.2C137.9,59.9,138.7,60.6,139.1,61.6z"/>
		<path class="st5" d="M136,55.1c0.6,0.6,1.2,1.4,0.8,2.2c-0.2,0.4-0.7,0.6-1.1,0.9c-1.4,0.7-2.5,1.8-3.2,3.2
			c-0.4-1.1-0.2-2.5,0.5-3.5c0.6-1.1,1.5-1.9,2.4-2.7L136,55.1z"/>
		<path class="st5" d="M122.1,69c-0.4,0.8,0.4,1.7,1.1,2.1c1.3,0.7,2.8,1,4,1.8s2.2,2.4,1.5,3.7c1.1-1.2,1.1-3.2,0.1-4.5
			c-1.1-1.4-3.3-1.8-4.1-3.4c-0.6-1.2-0.3-2.6,0-3.8L122.1,69z"/>
		<g>
			<path class="st11" d="M110.7,55.2c0.9,1,1.4,2.3,1.4,3.7c0,1.4-0.5,2.7-1.3,3.9c-1.4,2.3-3.5,4.9-2.2,7.7
				c0.5,1.1,1.5,1.9,2.8,1.9c1.3,0,2.4-0.8,3.1-1.8c0.4-0.6,0.7-1.3,0.8-2c0.2-0.7,0.3-1.5,0.3-2.2c0-0.6-0.5-1.1-1.1-1.1
				c-0.6,0-1.1,0.3-1.4,0.7c-0.8,1-0.8,2.6,0.1,3.4c0.9,0.9,2.5,1,3.5,0.1c0.4-0.3-0.1-0.8-0.5-0.5c-0.7,0.6-1.9,0.6-2.6-0.1
				c-0.6-0.7-0.6-1.8,0-2.5c0.2-0.3,0.8-0.7,1.1-0.4c0.2,0.2,0.1,0.5,0.1,0.7c0,0.3-0.1,0.6-0.1,0.9c-0.2,1.2-0.6,2.4-1.6,3.2
				c-0.8,0.6-2,0.9-2.9,0.3c-0.8-0.5-1.3-1.5-1.3-2.5c-0.1-2.6,2.1-4.7,3.1-6.9c0.6-1.2,0.9-2.5,0.7-3.9c-0.2-1.3-0.7-2.5-1.5-3.5
				C111,54.4,110.4,54.9,110.7,55.2L110.7,55.2z"/>
		</g>
		<g>
			<path class="st11" d="M120,65.1c1.4,0.7,3.1,0.7,4.4-0.1c1.2-0.8,2.1-2.2,2.1-3.7c0-1.4-0.7-2.7-1.2-4c-0.5-1.3-0.9-2.7-0.1-4
				c0.8-1.3,2.3-1.9,3.7-2.2c1.7-0.4,3.4-0.4,5.1-0.8c1.3-0.4,2.7-1.1,3.5-2.4c0.6-1.1,0.8-2.6,0.1-3.7c-0.8-1.3-2.8-1.8-3.9-0.5
				c-0.5,0.6-0.6,1.3-0.2,2c0.4,0.6,1.2,0.9,1.9,0.6c0.4-0.2,0.1-0.8-0.3-0.6c-0.5,0.2-1-0.3-1.1-0.7c-0.1-0.6,0.4-1,0.9-1.2
				c1.2-0.4,2.3,0.6,2.4,1.7c0.2,1.2-0.4,2.3-1.3,3c-1,0.8-2.4,1.2-3.7,1.4c-2.7,0.4-6,0.4-7.6,3c-0.7,1.1-0.7,2.3-0.3,3.5
				c0.4,1.2,1,2.3,1.4,3.5c0.4,1.4,0.1,2.9-1,3.9c-1.1,1.1-2.9,1.3-4.2,0.6C120,64.3,119.6,64.9,120,65.1L120,65.1z"/>
		</g>
		<g>
			<path class="st11" d="M122.5,49.9c-1.7,0.3-3.4,1.2-4.5,2.6c-1,1.4-1.4,3.2-0.9,4.8c0.3,0.9,0.8,1.7,1.5,2.3
				c0.4,0.3,0.7-0.3,0.4-0.6c-1.1-0.9-1.6-2.5-1.4-3.9c0.2-1.5,1.2-2.8,2.5-3.6c0.8-0.5,1.6-0.8,2.5-0.9
				C123.1,50.5,122.9,49.8,122.5,49.9L122.5,49.9z"/>
		</g>
		<g>
			<path class="st11" d="M122.1,54.5c-0.8,0.3-1.5,1.1-1.7,2c-0.2,1,0.1,2,0.8,2.7c0.3,0.3,0.9-0.2,0.5-0.5c-0.5-0.5-0.8-1.3-0.6-2
				c0.2-0.7,0.7-1.3,1.3-1.5c0.2-0.1,0.2-0.3,0.1-0.5C122.5,54.5,122.3,54.4,122.1,54.5L122.1,54.5z"/>
		</g>
		<g>
			<path class="st11" d="M118.5,49.4c-1.6,0.4-2.7,1.7-3.2,3.2c-0.6,1.8-0.2,3.8,0.5,5.6c0.2,0.4,0.8,0.1,0.6-0.3
				c-0.6-1.5-1-3.3-0.4-4.9c0.4-1.3,1.4-2.4,2.8-2.8C119.1,50,118.9,49.3,118.5,49.4L118.5,49.4z"/>
		</g>
		<g>
			<path class="st11" d="M114.6,78.2c0.2,1.3,0.5,2.7,1.4,3.7c0.7,1,1.9,1.6,3.1,1.6c0.5,0,0.5-0.7,0-0.7c-1.1,0-2-0.6-2.7-1.4
				c-0.7-1-1-2.2-1.2-3.3C115.3,77.6,114.6,77.7,114.6,78.2L114.6,78.2z"/>
		</g>
		<g>
			<path class="st11" d="M113.5,75.1c0,1,0.5,2,1.4,2.5c0.2,0.1,0.4,0.1,0.5-0.1c0.1-0.2,0.1-0.4-0.1-0.5c-0.1-0.1-0.2-0.1-0.3-0.2
				c0,0,0,0-0.1,0c0,0,0,0,0,0c0,0-0.1-0.1-0.1-0.1c-0.1-0.1-0.1-0.2-0.2-0.2c0,0-0.1-0.1,0,0c0,0,0,0,0,0c0,0-0.1-0.1-0.1-0.1
				c-0.1-0.1-0.1-0.2-0.1-0.3c0,0,0,0,0-0.1c0,0.1,0,0,0,0c0,0,0-0.1,0-0.1c0-0.1,0-0.2-0.1-0.3c0,0,0-0.1,0,0c0,0,0-0.1,0-0.1
				c0-0.1,0-0.1,0-0.2c0-0.2-0.1-0.4-0.3-0.4C113.7,74.8,113.5,74.9,113.5,75.1L113.5,75.1z"/>
		</g>
		<g>
			<path class="st11" d="M119.2,67.6c0.3,0.3,0.6,0.6,0.9,0.9c0.1,0.1,0.4,0.2,0.5,0c0.1-0.1,0.2-0.4,0-0.5
				c-0.3-0.3-0.6-0.6-0.9-0.9c-0.1-0.1-0.4-0.2-0.5,0C119.1,67.2,119.1,67.4,119.2,67.6L119.2,67.6z"/>
		</g>
		<g>
			<path class="st8" d="M117.1,126.9c2.7-2,4.8-4.8,6.1-7.9c1.5-3.5,2.2-7.3,2.3-11c0.1-2.3-0.1-4.6-0.3-6.9c0-0.5-0.7-0.3-0.7,0.2
				c0.4,3.9,0.5,8-0.2,11.9c-0.6,3.3-1.9,6.6-3.8,9.4c-1.1,1.5-2.4,2.8-3.8,3.9C116.2,126.6,116.7,127.1,117.1,126.9L117.1,126.9z"
				/>
		</g>
		<g>
			<path class="st8" d="M122.5,103.4c0.6,0.7,1.3,1.4,1.9,2.1c0.1,0.1,0.4,0.2,0.5,0c0.1-0.1,0.2-0.4,0-0.5
				c-0.6-0.7-1.3-1.4-1.9-2.1c-0.1-0.1-0.4-0.2-0.5,0C122.4,103,122.3,103.2,122.5,103.4L122.5,103.4z"/>
		</g>
		<g>
			<path class="st8" d="M151.6,91.9c0.4,0.6,0.7,1.3,1.1,1.9c0.1,0.2,0.3,0.3,0.5,0.1c0.2-0.1,0.3-0.3,0.1-0.5
				c-0.4-0.6-0.7-1.3-1.1-1.9c-0.1-0.2-0.3-0.3-0.5-0.1C151.6,91.5,151.5,91.7,151.6,91.9L151.6,91.9z"/>
		</g>
		<g>
			<path class="st8" d="M125.4,147.1c0,0.8-0.1,1.7-0.3,2.4c-0.1,0.2,0,0.4,0.2,0.5c0.2,0.1,0.4,0,0.5-0.2c0.3-0.9,0.4-1.7,0.3-2.6
				c0-0.2-0.1-0.4-0.3-0.4C125.6,146.7,125.4,146.9,125.4,147.1L125.4,147.1z"/>
		</g>
		<g>
			<path class="st8" d="M128.3,147.5c0,0.6,0.1,1.3,0.1,1.9c0,0.2,0.1,0.4,0.3,0.4c0.2,0,0.4-0.1,0.4-0.3c0-0.6-0.1-1.3-0.1-1.9
				c0-0.2-0.1-0.4-0.3-0.4C128.5,147.2,128.3,147.3,128.3,147.5L128.3,147.5z"/>
		</g>
		<g>
			<path class="st8" d="M131.3,148.5c0,0.7-0.1,1.4-0.3,2.1c-0.1,0.2,0,0.4,0.2,0.5c0.2,0.1,0.4,0,0.5-0.2c0.3-0.7,0.4-1.5,0.3-2.3
				c0-0.2-0.1-0.4-0.3-0.4C131.5,148.2,131.3,148.3,131.3,148.5L131.3,148.5z"/>
		</g>
		<g>
			<path class="st8" d="M133.7,149.8c0,0.8-0.1,1.5-0.4,2.3c-0.1,0.2,0,0.4,0.2,0.5c0.2,0.1,0.4,0,0.5-0.2c0.3-0.8,0.4-1.6,0.4-2.5
				c0-0.2-0.1-0.4-0.3-0.4C133.8,149.4,133.7,149.6,133.7,149.8L133.7,149.8z"/>
		</g>
		<g>
			<path class="st8" d="M135.9,150.3c-0.2,0.8-0.4,1.7-0.5,2.5c0,0.2,0,0.4,0.2,0.5c0.2,0.1,0.4,0,0.5-0.2c0.2-0.8,0.4-1.7,0.5-2.5
				c0-0.2,0-0.4-0.2-0.5C136.2,150.1,136,150.1,135.9,150.3L135.9,150.3z"/>
		</g>
		<g>
			<path class="st8" d="M138.9,152.3c-0.2,0.7-0.5,1.4-0.7,2.1c-0.1,0.2,0,0.4,0.2,0.5c0.2,0.1,0.4,0,0.5-0.2
				c0.2-0.7,0.5-1.4,0.7-2.1c0.1-0.2,0-0.4-0.2-0.5C139.2,152,139,152.1,138.9,152.3L138.9,152.3z"/>
		</g>
		<g>
			<path class="st8" d="M141.5,152.9c-0.4,0.7-0.6,1.7-0.3,2.5c0.1,0.2,0.2,0.3,0.4,0.3c0.2,0,0.3-0.2,0.3-0.4
				c-0.1-0.2-0.1-0.3-0.1-0.5c0,0,0,0,0-0.1c0,0,0,0,0,0c0,0,0-0.1,0-0.1c0-0.1,0-0.2,0-0.3c0-0.2,0-0.3,0.1-0.5
				c0-0.1,0.1-0.2,0.1-0.2c0,0,0,0,0,0c0,0,0,0,0-0.1c0,0,0-0.1,0.1-0.1c0.1-0.2,0.1-0.4-0.1-0.5
				C141.8,152.7,141.6,152.7,141.5,152.9L141.5,152.9z"/>
		</g>
		<g>
			<path class="st8" d="M144.5,153.8c-0.4,0.9-0.5,2-0.5,3c0,0.2,0.1,0.4,0.3,0.4c0.2,0,0.4-0.1,0.4-0.3c-0.1-1,0.1-1.9,0.4-2.8
				c0.1-0.2-0.1-0.4-0.2-0.5C144.8,153.5,144.6,153.7,144.5,153.8L144.5,153.8z"/>
		</g>
		<g>
			<path class="st8" d="M147.9,155.2c-0.4,0.9-0.6,1.8-0.5,2.8c0,0.2,0.3,0.3,0.4,0.3c0.2,0,0.3-0.2,0.3-0.4c-0.1-0.7,0-1.6,0.4-2.2
				c0.1-0.2,0.1-0.4-0.1-0.5C148.3,155,148,155,147.9,155.2L147.9,155.2z"/>
		</g>
		<g>
			<path class="st8" d="M150.8,155.8c-0.5,1-0.7,2.1-0.4,3.2c0.1,0.4,0.8,0.3,0.7-0.2c-0.2-0.9-0.1-1.8,0.3-2.6
				c0.1-0.2,0.1-0.4-0.1-0.5C151.1,155.6,150.9,155.6,150.8,155.8L150.8,155.8z"/>
		</g>
		<g>
			<path class="st8" d="M154.3,156.4c-0.4,0.9-0.6,1.8-0.5,2.8c0,0.2,0.3,0.3,0.4,0.3c0.2,0,0.3-0.2,0.3-0.4
				c-0.1-0.7,0.1-1.6,0.4-2.2c0.1-0.2,0.1-0.4-0.1-0.5C154.6,156.2,154.3,156.2,154.3,156.4L154.3,156.4z"/>
		</g>
		<g>
			<path class="st8" d="M157.5,156.2c-0.7,0.8-0.8,2-0.3,2.9c0.1,0.2,0.3,0.2,0.5,0.1c0.2-0.1,0.3-0.3,0.1-0.5
				c-0.1-0.1-0.1-0.2-0.1-0.3c0,0,0-0.1,0,0c0,0,0,0,0,0c0-0.1,0-0.1,0-0.2c0,0,0-0.1,0-0.1c0,0,0,0,0-0.1c0-0.1,0,0,0,0
				c0-0.1,0-0.2,0-0.3c0,0,0-0.1,0-0.1c0,0,0-0.1,0,0c0,0,0,0,0-0.1c0-0.1,0.1-0.2,0.1-0.3c0,0,0-0.1,0-0.1c0,0,0,0,0,0
				c0,0,0-0.1,0.1-0.1c0,0,0.1-0.1,0.1-0.1c0,0,0,0,0-0.1c0,0,0.1-0.1,0,0c0.1-0.1,0.2-0.4,0-0.5
				C157.9,156.1,157.7,156.1,157.5,156.2L157.5,156.2z"/>
		</g>
		<g>
			<path class="st8" d="M160.4,156.5c-0.4,0.7-0.6,1.7-0.3,2.5c0.1,0.2,0.2,0.3,0.4,0.3c0.2,0,0.3-0.2,0.3-0.4
				c-0.1-0.2-0.1-0.3-0.1-0.5c0,0,0,0,0-0.1c0,0,0,0,0,0c0,0,0-0.1,0-0.1c0-0.1,0-0.2,0-0.3c0-0.2,0-0.3,0.1-0.5
				c0-0.1,0.1-0.2,0.1-0.2c0,0,0,0,0,0c0,0,0,0,0-0.1c0,0,0-0.1,0.1-0.1c0.1-0.2,0.1-0.4-0.1-0.5
				C160.7,156.3,160.5,156.4,160.4,156.5L160.4,156.5z"/>
		</g>
		<g>
			<path class="st8" d="M162.4,157.2c-0.4,0.6-0.5,1.4-0.3,2.1c0.1,0.2,0.2,0.3,0.4,0.3c0.2,0,0.3-0.2,0.3-0.4
				c0-0.1-0.1-0.3-0.1-0.4c0,0.1,0,0,0-0.1c0,0,0-0.1,0-0.1c0-0.1,0-0.1,0-0.2c0,0,0-0.1,0-0.1c0,0,0-0.1,0-0.1c0-0.1,0-0.2,0.1-0.2
				c0,0,0-0.1,0-0.1c0,0,0.1-0.1,0-0.1c0-0.1,0.1-0.1,0.1-0.2c0.1-0.2,0.1-0.4-0.1-0.5C162.7,157,162.5,157,162.4,157.2L162.4,157.2
				z"/>
		</g>
		<g>
			<path class="st8" d="M168.1,80.6c-0.2,0.8-0.5,1.5-0.7,2.3c-0.1,0.2,0,0.4,0.2,0.5c0.2,0.1,0.4,0,0.5-0.2
				c0.2-0.8,0.5-1.5,0.7-2.3c0.1-0.2,0-0.4-0.2-0.5C168.4,80.3,168.2,80.4,168.1,80.6L168.1,80.6z"/>
		</g>
		<g>
			<path class="st8" d="M171.4,81.4c-0.3,0.6-0.5,1.3-0.8,1.9c-0.1,0.2,0.1,0.4,0.2,0.5c0.2,0.1,0.4,0,0.5-0.2
				c0.3-0.6,0.5-1.3,0.8-1.9c0.1-0.2-0.1-0.4-0.2-0.5C171.6,81.2,171.4,81.3,171.4,81.4L171.4,81.4z"/>
		</g>
		<g>
			<path class="st8" d="M174.5,76.6c-0.4,0.6-0.8,1.3-1,2c-0.1,0.2,0,0.4,0.2,0.5c0.2,0.1,0.4,0,0.5-0.2c0-0.2,0.1-0.3,0.2-0.5
				c0-0.1,0.1-0.2,0.1-0.2c0,0,0-0.1,0.1-0.1c0,0,0,0,0,0c0,0,0,0,0,0c0.2-0.3,0.3-0.6,0.5-0.9c0.1-0.2,0.1-0.4-0.1-0.5
				C174.8,76.4,174.6,76.4,174.5,76.6L174.5,76.6z"/>
		</g>
		<g>
			<path class="st8" d="M169.3,90c-0.5,0.4-0.8,1-0.8,1.6c0,0.2,0.1,0.4,0.3,0.4c0.2,0,0.4-0.1,0.4-0.3c0-0.1,0-0.1,0-0.2
				c0,0,0-0.1,0-0.1c0,0,0,0.1,0,0c0,0,0,0,0,0c0-0.1,0-0.1,0-0.2c0,0,0-0.1,0-0.1c0,0,0,0,0,0c0,0,0-0.1,0,0c0,0.1,0,0,0,0
				c0,0,0-0.1,0-0.1c0-0.1,0.1-0.1,0.1-0.2c0,0,0,0,0,0c0,0,0,0.1,0,0c0,0,0,0,0.1-0.1c0,0,0.1-0.1,0.1-0.1c0.1-0.1,0.2-0.4,0-0.5
				C169.7,89.9,169.5,89.9,169.3,90L169.3,90z"/>
		</g>
		<g>
			<path class="st8" d="M93.8,102c0.7,0.8,1.3,1.5,2,2.3c0.1,0.1,0.4,0.2,0.5,0c0.1-0.1,0.2-0.4,0-0.5c-0.7-0.8-1.3-1.5-2-2.3
				c-0.1-0.1-0.4-0.2-0.5,0C93.7,101.6,93.7,101.8,93.8,102L93.8,102z"/>
		</g>
		<g>
			<path class="st8" d="M97.2,100.9c0.1,0,0.2,0.1,0.3,0.1c0.1,0,0.1,0.1,0.2,0.1c0.2,0.1,0.4,0.2,0.5,0.3c0.2,0.1,0.3,0.2,0.5,0.4
				c0,0,0,0,0.1,0c0,0,0,0,0,0c0,0,0.1,0.1,0.1,0.1c0.1,0.1,0.2,0.2,0.2,0.2c0.1,0.1,0.4,0.2,0.5,0c0.1-0.1,0.2-0.4,0-0.5
				c-0.7-0.7-1.4-1.2-2.3-1.5c-0.2-0.1-0.4,0.1-0.5,0.2C96.9,100.6,97,100.8,97.2,100.9L97.2,100.9z"/>
		</g>
		<g>
			<path class="st8" d="M107,88c-0.7,2-1.3,4.1-2,6.1c-0.1,0.4,0.5,0.7,0.7,0.2c0.7-2,1.3-4.1,2-6.1C107.9,87.8,107.2,87.6,107,88
				L107,88z"/>
		</g>
		<g>
			<path class="st8" d="M108.9,88.8c-0.4,2-0.7,4-0.9,6.1c0,0.5,0.7,0.5,0.7,0c0.1-2,0.4-3.9,0.8-5.9
				C109.7,88.5,109,88.3,108.9,88.8L108.9,88.8z"/>
		</g>
		<g>
			<path class="st7" d="M107.8,117.4c-1.1,1.4-1.9,2.8-2.6,4.4c-0.1,0.2,0.1,0.4,0.2,0.5c0.2,0.1,0.4-0.1,0.5-0.2
				c0.7-1.5,1.5-2.9,2.6-4.2C108.7,117.4,108.1,117,107.8,117.4L107.8,117.4z"/>
		</g>
		<g>
			<path class="st7" d="M108.1,120.3c-0.7,0.9-1.2,2-1.6,3.1c-0.1,0.4,0.5,0.7,0.7,0.2c0.3-1.1,0.8-2.1,1.5-3c0.1-0.2,0-0.4-0.1-0.5
				C108.4,120,108.2,120.1,108.1,120.3L108.1,120.3z"/>
		</g>
		<g>
			<path class="st7" d="M152.5,78.9c0.8,0.7,1.6,1.4,2.3,2c0.1,0.1,0.4,0.2,0.5,0c0.1-0.1,0.2-0.4,0-0.5c-0.8-0.7-1.6-1.4-2.3-2
				c-0.1-0.1-0.4-0.2-0.5,0C152.4,78.5,152.4,78.7,152.5,78.9L152.5,78.9z"/>
		</g>
		<g>
			<path class="st7" d="M153.9,77.5c0.8,0.7,1.7,1.4,2.5,2.1c0.1,0.1,0.4,0.2,0.5,0c0.1-0.1,0.2-0.4,0-0.5c-0.8-0.7-1.7-1.4-2.5-2.1
				c-0.1-0.1-0.4-0.2-0.5,0C153.8,77.1,153.8,77.4,153.9,77.5L153.9,77.5z"/>
		</g>
		<g>
			<path class="st7" d="M167.1,118c0.7-0.5,1.6-0.7,2.4-0.7c0.2,0,0.4-0.1,0.4-0.3c0-0.2-0.1-0.4-0.3-0.4c-1,0-2,0.3-2.8,0.8
				c-0.2,0.1-0.2,0.3-0.1,0.5C166.7,118,166.9,118.1,167.1,118L167.1,118z"/>
		</g>
		<g>
			<path class="st7" d="M167.6,119.7c0.1,0,0.3-0.1,0.4-0.1c0,0,0.1,0,0.1,0c0.1,0-0.1,0,0,0c0.1,0,0.1,0,0.2,0c0.1,0,0.3,0,0.4,0
				c0,0,0.1,0,0.1,0c0.1,0-0.1,0,0,0c0.1,0,0.1,0,0.2,0.1c0.2,0,0.4,0,0.5-0.2c0-0.2,0-0.4-0.2-0.5c-0.6-0.2-1.3-0.2-1.9,0
				c-0.2,0.1-0.3,0.2-0.3,0.4C167.2,119.6,167.4,119.7,167.6,119.7L167.6,119.7z"/>
		</g>
		<g>
			<path class="st7" d="M120.6,143.3c0.8-0.3,1.7-0.6,2.5-0.7c0.2,0,0.3-0.3,0.3-0.4c0-0.2-0.2-0.3-0.4-0.3
				c-0.9,0.1-1.8,0.4-2.7,0.7c-0.2,0.1-0.2,0.3-0.1,0.5C120.2,143.3,120.4,143.4,120.6,143.3L120.6,143.3z"/>
		</g>
		<g>
			<path class="st7" d="M96.8,78c0.1,1.1-0.1,2.2-0.4,3.3c-0.2,0.4,0.5,0.7,0.7,0.2c0.4-1.2,0.6-2.4,0.4-3.7c0-0.2-0.3-0.3-0.4-0.3
				C96.8,77.6,96.8,77.8,96.8,78L96.8,78z"/>
		</g>
		<g>
			<path class="st7" d="M98.9,78.8c-0.3,0.9-0.6,1.7-0.9,2.6c-0.1,0.2,0,0.4,0.2,0.5c0.2,0.1,0.4,0,0.5-0.2c0.3-0.9,0.6-1.7,0.9-2.6
				c0.1-0.2,0-0.4-0.2-0.5C99.2,78.5,99,78.6,98.9,78.8L98.9,78.8z"/>
		</g>
		<g>
			<path class="st0" d="M83.1,201c3.7,3.2,5.7,7.8,8.4,11.8c1.3,1.9,2.8,3.8,4.7,5.2c2.2,1.7,4.9,2.5,7.7,2.8c6,0.6,12-1.1,18,0.1
				c6.1,1.2,11.1,5.1,16.6,7.8c4.9,2.4,10.8,4.1,16.1,2.1c0.6-0.2,1.2-0.5,1.8-0.9c0.4-0.2,0.1-0.9-0.3-0.6
				c-4.9,2.9-11.1,1.6-16-0.6c-5.5-2.4-10.3-6.2-16-7.9c-2.9-0.9-5.8-1-8.8-0.9c-3,0.1-5.9,0.5-8.9,0.4c-2.9,0-5.8-0.5-8.3-1.9
				c-2-1.2-3.7-2.9-5.1-4.8c-2.8-3.8-4.7-8.4-8-11.9c-0.4-0.4-0.8-0.8-1.3-1.2C83.2,200.3,82.7,200.7,83.1,201L83.1,201z"/>
		</g>
		<g>
			<path class="st0" d="M131.1,181.3c-1.3,3.9-2.8,7.7-4.3,11.5c-1.5,3.8-3.2,7.6-4.9,11.3c-1,2.1-2,4.2-3,6.3
				c-0.2,0.4,0.4,0.8,0.6,0.4c1.8-3.7,3.6-7.5,5.2-11.3c1.7-3.8,3.2-7.6,4.7-11.5c0.8-2.2,1.6-4.4,2.4-6.6
				C131.9,181.1,131.2,180.9,131.1,181.3L131.1,181.3z"/>
		</g>
		<g>
			<path class="st0" d="M136.9,181c-1.6,3.6-3.1,7.2-4.5,10.8c-1.4,3.7-2.6,7.4-3.8,11.1c-0.6,2.1-1.2,4.2-1.8,6.4
				c-0.1,0.4,0.6,0.7,0.7,0.2c1-3.8,2.1-7.5,3.4-11.2c1.2-3.7,2.6-7.4,4.1-11c0.8-2,1.7-4.1,2.6-6.1
				C137.8,180.8,137.1,180.6,136.9,181L136.9,181z"/>
		</g>
		<g>
			<path class="st0" d="M122.7,155.8c4.8,0.3,9,2.7,12.9,5.2c4,2.5,8.1,5.1,12.8,6c2.6,0.5,5.2,0.4,7.6-0.5c0.2-0.1,0.2-0.3,0.1-0.5
				c-0.1-0.2-0.3-0.2-0.5-0.1c-4.5,1.7-9.3,0.2-13.4-1.8c-4.2-2.1-7.9-5-12.2-7c-2.3-1.1-4.8-1.9-7.4-2
				C122.3,155.1,122.3,155.8,122.7,155.8L122.7,155.8z"/>
		</g>
		<g>
			<path class="st0" d="M125.6,158.2c-2.6,4.1-6.5,7.4-11,9.1c-1.3,0.5-2.6,0.9-3.9,1.1c-0.5,0.1-0.3,0.8,0.2,0.7
				c4.9-0.9,9.5-3.5,12.8-7.2c0.9-1,1.8-2.2,2.5-3.4C126.4,158.2,125.8,157.8,125.6,158.2L125.6,158.2z"/>
		</g>
		<g>
			<path class="st0" d="M119.8,156.8c-2.8,2.4-5.5,4.8-8,7.5c-1.2,1.3-2.3,2.8-3.3,4.3c-1,1.6-1.8,3.2-2.5,4.9
				c-1.4,3.5-2.5,7.1-4.1,10.5c-1.5,3.3-3.6,6.3-6.1,8.9c-2.5,2.6-5.2,5-8,7.3c-0.3,0.3-0.7,0.6-1,0.8c-0.4,0.3,0.1,0.8,0.5,0.5
				c2.8-2.3,5.5-4.6,8.1-7.2c2.5-2.6,4.8-5.4,6.4-8.6c1.7-3.3,2.8-6.9,4.2-10.4c0.7-1.7,1.4-3.5,2.3-5.1c0.9-1.6,1.9-3.1,3.1-4.5
				c2.3-2.8,5.1-5.2,7.8-7.6c0.3-0.3,0.7-0.6,1-0.9C120.6,157,120.2,156.5,119.8,156.8L119.8,156.8z"/>
		</g>
		<g>
			<path class="st9" d="M77.1,234.8c0.3,2.8,3.1,4.9,5.8,4.5c0.5-0.1,0.3-0.8-0.2-0.7c-2.4,0.3-4.7-1.6-5-4
				C77.8,234.2,77.1,234.3,77.1,234.8L77.1,234.8z"/>
		</g>
		<g>
			<path class="st9" d="M141,247.8c0.7,2.7-0.2,5.7-2.2,7.6c-0.3,0.3,0.1,0.8,0.5,0.5c2.2-2.1,3.2-5.3,2.4-8.3
				C141.5,247.2,140.8,247.4,141,247.8L141,247.8z"/>
		</g>
		<g>
			<path class="st9" d="M77.1,222.8c0,1.3,0,2.7,0,4c0,0.5,0.7,0.5,0.7,0c0-1.3,0-2.7,0-4C77.8,222.3,77.1,222.3,77.1,222.8
				L77.1,222.8z"/>
		</g>
		<g>
			<path class="st12" d="M107.5,321.1c2.2,5.1,4.4,10.2,6.9,15.2c2.4,5,4.9,10,7.5,14.8c1.5,2.8,3,5.5,4.5,8.2
				c0.2,0.4,0.9,0.1,0.6-0.3c-2.8-4.8-5.4-9.7-7.9-14.7c-2.5-4.9-4.9-9.9-7.2-15c-1.3-2.8-2.5-5.7-3.8-8.6
				C107.9,320.3,107.3,320.6,107.5,321.1L107.5,321.1z"/>
		</g>
		<g>
			<path class="st12" d="M122.4,351.5c2.4-1.5,5.4-1.6,7.9-0.5c0.4,0.2,0.6-0.5,0.2-0.7c-2.7-1.2-6-1-8.5,0.5
				C121.6,351.1,122,351.7,122.4,351.5L122.4,351.5z"/>
		</g>
		<g>
			<path class="st12" d="M111.1,316.7c2.1,3.2,1.9,7.6-0.5,10.6c-0.3,0.4,0.3,0.7,0.6,0.4c2-2.4,2.6-5.9,1.7-8.9
				c-0.3-0.9-0.6-1.7-1.1-2.4C111.4,316,110.8,316.3,111.1,316.7L111.1,316.7z"/>
		</g>
		<g>
			<path class="st12" d="M122.9,331.9c1,0.2,1.9,0.4,2.9,0.6c0.2,0,0.4,0,0.5-0.2c0.1-0.2,0-0.4-0.2-0.5c-1-0.2-1.9-0.4-2.9-0.6
				c-0.2,0-0.4,0-0.5,0.2C122.6,331.6,122.7,331.9,122.9,331.9L122.9,331.9z"/>
		</g>
		<g>
			<path class="st12" d="M122.3,334.8c1.1,0.2,2.2,0.5,3.3,0.7c0.2,0,0.4,0,0.5-0.2c0.1-0.2,0-0.4-0.2-0.5c-1.1-0.2-2.2-0.5-3.3-0.7
				c-0.2,0-0.4,0-0.5,0.2C122,334.5,122.1,334.7,122.3,334.8L122.3,334.8z"/>
		</g>
		<g>
			<path class="st12" d="M123.7,338.5c0.9-0.3,1.9-0.3,2.7,0.2c0.2,0.1,0.4,0.1,0.5-0.1c0.1-0.1,0.1-0.4-0.1-0.5
				c-1-0.5-2.2-0.6-3.2-0.2c-0.2,0.1-0.3,0.2-0.3,0.4C123.3,338.4,123.5,338.5,123.7,338.5L123.7,338.5z"/>
		</g>
		<g>
			<path class="st12" d="M0.7,190.7c5.5-1.2,10.9-2.6,16.2-4.2c5.4-1.5,10.7-3.2,15.9-5c3-1,5.9-2.1,8.9-3.2
				c0.4-0.2,0.1-0.8-0.3-0.6c-5.2,2-10.5,3.8-15.8,5.5c-5.3,1.7-10.6,3.2-15.9,4.6c-3,0.8-6.1,1.5-9.1,2.2
				C0.1,190.1,0.2,190.8,0.7,190.7L0.7,190.7z"/>
		</g>
		<g>
			<path class="st12" d="M36.2,180.6c2.2,2.1,5,3.4,8,3.8c0.5,0.1,0.5-0.7,0-0.7c-2.8-0.4-5.4-1.6-7.5-3.6
				C36.4,179.8,35.8,180.2,36.2,180.6L36.2,180.6z"/>
		</g>
		<g>
			<path class="st12" d="M9.1,189.1c0.8,1,0.8,2.6,0,3.6c-0.1,0.2,0,0.4,0.1,0.5c0.2,0.1,0.4,0,0.5-0.1c1-1.3,1-3.2,0-4.5
				C9.3,188.3,8.8,188.7,9.1,189.1L9.1,189.1z"/>
		</g>
		<g>
			<path class="st12" d="M22.1,190.1c-0.2,1.1-0.5,2.2-0.7,3.3c0,0.2,0,0.4,0.2,0.5c0.2,0.1,0.4,0,0.5-0.2c0.2-1.1,0.5-2.2,0.7-3.3
				c0-0.2,0-0.4-0.2-0.5C22.4,189.8,22.1,189.9,22.1,190.1L22.1,190.1z"/>
		</g>
		<g>
			<path class="st12" d="M24.5,190.9c0.4,1,0.2,2.2-0.6,2.9c-0.3,0.3,0.1,0.8,0.5,0.5c1-1,1.3-2.5,0.8-3.8c-0.1-0.2-0.3-0.2-0.5-0.1
				C24.5,190.5,24.4,190.7,24.5,190.9L24.5,190.9z"/>
		</g>
		<g>
			<path class="st12" d="M27.7,191.8c-0.5,1.3-0.6,2.7-0.3,4.1c0.1,0.5,0.8,0.3,0.7-0.2c-0.2-1.2-0.1-2.5,0.3-3.7
				C28.6,191.6,27.9,191.4,27.7,191.8L27.7,191.8z"/>
		</g>
	</g>
	<g>
		<polygon class="st0" points="208.1,140 234.2,147.2 257.2,140.6 264.8,133 226.4,120.6 		"/>
		<path class="st13" d="M342.8,263.6c0.9,3.2,4.3,5.4,7.6,5.1c1.6-0.2,3.2-0.9,4.9-0.8c2,0.2,3.6,1.7,4.5,3.5
			c0.9,1.8,1.2,3.8,1.5,5.8c0.5,3.8,1,7.7,1.6,11.5c0.8,5.6,1.5,11.5-0.2,16.9c-0.9,2.8-3.3,5.7-6.1,5c-0.7-0.2-1.3-0.6-1.9-1
			c-4-3.3-3.7-9.3-5.2-14.3c-1.1-3.5-3.3-6.6-5.5-9.6c-4-5.6-7.9-11.2-11.9-16.8c2.2-3.2,6.2-5.1,10.1-4.9L342.8,263.6z"/>
		<path class="st13" d="M198,291c-2.2,4.3-0.6,9.6,1.8,13.7c1.4,2.5,3.2,5.5,1.7,8c-1.5,2.5-5,2.5-7.8,2.9
			c-5.6,0.8-10.4,4.3-15.5,6.7c-3.4,1.6-7,2.7-10.7,3.3c-1.3,0.2-2.6,0.3-3.8-0.1c-1.2-0.5-2.1-1.8-1.8-3c0.2-0.9,1-1.5,1.7-2
			c11.8-9.4,18.5-23.6,24.7-37.4c3.4,1.5,6.8,2.9,10.2,4.4L198,291z"/>
		<path class="st1" d="M257.6,119.5c-0.7,10.6-0.1,21.3,1.9,31.8c-9.2,6.1-20.3,9.4-31.4,9.1c-7.4-12.7-12.4-26.8-14.6-41.3
			c13.4-0.7,26.9-1.3,40.3-2c1.1-0.1,2.5,0.1,2.8,1.1L257.6,119.5z"/>
		<g>
			<path class="st1" d="M323.5,61.7c1.7-1.8,9.2-5.6,11.6-5.2c0.7,0.1,1.4,0.3,2,0.2c1.2-0.2,1.8-1.4,2.5-2.4c1.4-2.1,3.1-4,5.2-5.5
				c0.5-0.4,0.7-1,0.5-1.5c-0.4-1.1-2-0.5-2.9,0.2c-1.4,1.1-2.9,2.3-4.3,3.4c-0.7-0.5-0.3-1.7,0.2-2.4c2.7-3.7,7.1-6.3,8.7-10.4
				c0.2-0.6-0.3-1.1-0.9-0.9c-2.6,1.1-4.9,2.9-6.5,5.1l5.8-6.4c0.2-0.2,0.3-0.5,0.3-0.8c-0.1-1-1.6-0.7-2.3-0.1
				c-2.2,1.6-4.2,3.5-6,5.5c1.8-1.1,3.4-2.7,4.5-4.5c0.3-0.5-0.2-1.1-0.7-0.9c-2.3,0.9-4.2,2.9-5.8,4.8c1.2-1.2,2.3-2.5,3.2-3.9
				c0.3-0.4-0.1-1-0.6-0.9c-2,0.4-3.8,2-5.1,3.7c-1.1,1.4-2,3-2.7,4.7c-0.5,1.2-1,2.5-1.7,3.6c-1.8,2.8-8.1,6.1-11.1,7.3L323.5,61.7
				z"/>
			<g>
				<path class="st9" d="M345.2,37.8c-2.8,2-5.3,4.3-7.5,7c-0.3,0.4-0.9,0-0.6-0.4c2.2-2.7,4.8-5.1,7.6-7.1
					C345,37,345.5,37.5,345.2,37.8L345.2,37.8z"/>
			</g>
			<g>
				<path class="st9" d="M343.8,35.6c-2.8,2.3-5.3,4.9-7.4,7.9c-0.3,0.4-0.9,0-0.6-0.4c2.1-3,4.6-5.7,7.5-8.1
					C343.6,34.8,344.1,35.3,343.8,35.6L343.8,35.6z"/>
			</g>
			<g>
				<path class="st9" d="M339.5,36.4c-2,1.6-3.8,3.4-5.3,5.4c-0.3,0.4-0.9,0-0.6-0.4c1.6-2.1,3.4-4,5.4-5.6
					C339.4,35.5,339.9,36.1,339.5,36.4L339.5,36.4z"/>
			</g>
			<g>
				<path class="st9" d="M337.3,45.3c-1.6-1.3-3.2-2.5-4.8-3.7c-0.4-0.3,0-0.9,0.4-0.6c1.7,1.1,3.3,2.4,4.8,3.7
					c0.1,0.1,0.2,0.3,0.1,0.5C337.7,45.4,337.5,45.5,337.3,45.3L337.3,45.3z"/>
			</g>
		</g>
		<g>
			<path class="st1" d="M184.8,35.5c-0.2-2.5-3.9-10.6-6.1-11.9c-0.6-0.3-1.2-0.6-1.7-1.1c-0.7-0.9-0.6-2.2-0.4-3.4
				c0.3-2.5,0.1-5.1-0.6-7.5c-0.2-0.6,0.1-1.2,0.6-1.5c1-0.6,1.9,0.8,2.2,2c0.4,1.8,0.8,3.6,1.2,5.4c0.9,0,1.3-1.1,1.4-2
				c0.2-4.6-1.6-9.4-0.3-13.6c0.2-0.6,1-0.7,1.3-0.1c1.3,2.5,2,5.3,1.8,8.1l-0.6-8.6c0-0.3,0.1-0.6,0.3-0.8c0.7-0.7,1.6,0.4,1.9,1.4
				c0.7,2.6,1.1,5.3,1.2,8c-0.8-2.1-1-4.4-0.7-6.5c0.1-0.5,0.7-0.6,0.9-0.2c1.4,2.2,1.5,5,1.6,7.6c-0.2-1.4-0.2-2.9-0.1-4.3
				c0.1-0.8,1.1-1.1,1.6-0.4c1,1.5,1.2,3.5,1.2,5.4c0,1.8-0.3,3.6-0.8,5.4c-0.3,1.3-0.8,2.5-0.9,3.8c-0.3,3.3,1.4,6.4,3,9.2
				L184.8,35.5z"/>
			<g>
				<path class="st9" d="M183.2,1.9c1.3,3.6,1.8,7.6,1.4,11.4c0,0.5-0.8,0.4-0.7,0c0.4-3.8-0.1-7.6-1.4-11.2
					C182.3,1.7,183,1.5,183.2,1.9L183.2,1.9z"/>
			</g>
			<g>
				<path class="st9" d="M185.8,1.6c1.2,4,1.6,8.2,1,12.3c-0.1,0.5-0.8,0.4-0.7,0c0.5-4.1,0.2-8.2-1-12.1
					C184.9,1.3,185.6,1.2,185.8,1.6L185.8,1.6z"/>
			</g>
			<g>
				<path class="st9" d="M188.5,4.9c0.9,3,1,6.2,0.4,9.2c-0.1,0.5-0.8,0.2-0.7-0.2c0.6-2.9,0.4-6-0.4-8.9
					C187.6,4.6,188.3,4.5,188.5,4.9L188.5,4.9z"/>
			</g>
			<g>
				<path class="st9" d="M189.9,15.1c-2.5-0.4-5-0.6-7.5-0.8c-0.5,0-0.4-0.7,0-0.7c2.5,0.1,5,0.4,7.5,0.8
					C190.4,14.5,190.3,15.2,189.9,15.1L189.9,15.1z"/>
			</g>
		</g>
		<path class="st14" d="M253.6,45c1.8-1.2,4.6-0.9,6,0.8c1.4,1.5,1.6,3.8,2.6,5.6c1.2,2,3.3,3.3,5.2,4.8c1.8,1.5,3.5,3.7,3,6
			c-0.6,3-4.5,5-4.2,8.1c0.2,2.1,2.4,3.4,3.5,5.2c1.3,2.1,1.1,4.9,0.1,7.2c-1,2.3-2.7,4.2-4.4,6c-2.5-0.5-5.1-0.7-7.6-0.7
			c0.2-1.8,0.3-3.5,0.5-5.3c-1.3,0.8-2.3,2-2.9,3.4c-11.2-3.2-22.3-6.9-33.2-11.1c0.6-1.8,1.2-3.7,1.7-5.5c-0.9,1.3-1.9,2.5-2.8,3.8
			c-1.3-0.7-2.5-1.3-3.8-2c1-1.7,1.7-3.5,2.2-5.4c-1.3,1.2-2.7,2.5-4,3.7c-1.8-1-3.6-2.1-5.4-3.1c0.3-3.2,4.8-3.7,6.9-6.1
			c1.7-1.9,1.6-4.8,2.9-7c2.1-3.7,6.9-4.5,10.9-6.1c3.7-1.5,7.1-3.9,10.9-5.1c3.9-1.2,8.7-0.6,10.8,2.9L253.6,45z"/>
		<path class="st2" d="M301,59.4c5.6-4.4,16.9-6.5,21.7-12.3c1.7,2.5,6.5,9.8,8.2,12.3c0.5,0.7-1.9,5-10.2,9.1
			c-4.8,2.4-9.1,5.6-13.4,8.8c-12.2,9.2-39.3,26.4-42.5,41.4c-1.1,5.2-0.5,1.6-0.2,14.3c-12.9,7.7-28.7,7.6-43.7,7.3
			c-4.3-0.1-8.6-0.2-13-0.3c-2.6-9-4.7-15.8-4.5-25.2c0.4-12.3,5-14.6,3.2-26.7c-0.7-4.8-5.8-9.5-7.5-14
			c-5.7-14.3-12.1-26.7-17.8-41c2.6-1.4,9.2-4.5,11.8-5.9c2.8,7.5,9,13.1,12.7,20.2c2.8,5.4,4,11.4,6.5,16.8
			c2.8,6.1,7.2,11.3,11.6,16.4c2.1,2.4,4.2,4.9,6.8,6.7c8,5.4,19,3.1,27.6-1.3C258.5,86,286.6,70.7,301,59.4z"/>
		<path class="st7" d="M258.9,145.6c-10.2,6.6-22.5,10-34.7,9.5c1.2,6,1.9,12.2,2.2,18.3c0.1,1.9,0.1,3.9-0.4,5.7
			c-0.6,2.2-2,4.1-3.3,5.9c-11.3,15.5-22.8,31.4-28.1,49.8c-1.9,6.8-2.9,13.8-4,20.7c-1.6,10.6-3.1,21.3-4.7,31.9
			c3.7,3.3,8.3,5.5,13.2,6.3c15.4-19.8,18.5-46.8,32.4-67.7c5.2-7.8,11.9-14.5,18.5-21.2c7.3,13.1,15,26.6,27.2,35.3
			c10.6,7.6,23.6,11,35.1,17.1c8.1,4.3,15.5,10,21.7,16.8c4.6-2.9,8.9-6.3,12.8-10.1c-13.3-18.3-27.4-37.4-47.8-47.3
			c-1.8-0.9-3.8-1.8-5-3.3c-0.9-1.1-1.4-2.5-1.9-3.9c-2.7-7.4-5.3-14.7-8-22.1c-4.2-11.6-9.4-24.3-20.6-29.3L258.9,145.6z"/>
		<path class="st1" d="M231.6,50.7c-2.2,7.5-4.6,14.9-7.2,22.3c-0.5,1.4-1,2.9-0.9,4.4c0.3,3.2,8.7,5.3,8.9,5.7
			c0.1,0.2-0.9,2.9-1.8,5.1c-0.8,1.9,0.2,4.1,2.1,4.9c2.2,0.9,5.1,1.9,7.6,2.5c2.1,0.5,4.2-0.7,4.9-2.8c1.6-4.8,2.8-8,4.7-13.7
			c2.7,2.6,8,1.2,9-2.3c1-3.6-2.7-7.6-6.3-6.8c1.8-3.7,3.1-7.6,3.8-11.6L231.6,50.7z"/>
		<path class="st14" d="M254.6,69.3c-2.9,1.3-6.6-1.3-6.9-4.5c-0.2-2.1,0.4-4.7-1.3-5.9c-1.2-0.9-3-0.4-4.5-0.9
			c-2.4-0.8-3.3-4-5.7-4.8c-2-0.7-4.7,0.5-6.2-1c-1.1-1.2-0.5-3.3,0.8-4.2c1.3-0.9,3.1-0.8,4.7-0.4c1.6,0.4,3,1.1,4.6,1.5
			c2.8,0.6,5.8-0.1,8.6,0c2.6,0.1,5.2,0.8,7.4,2.1c1.4,0.8,2.7,1.9,3.2,3.4c0.6,1.7,0.2,3.6,0.4,5.3c0.3,2.2,1.5,4.1,2,6.3
			c0.5,2.1-0.2,4.9-2.3,5.5c-2.2,0.5-4.1-1.6-6.2-2.2L254.6,69.3z"/>
		<polygon class="st15" points="232.4,83.1 242.6,85.7 230.9,87.3 		"/>
		<g>
			<path class="st9" d="M256.7,74.9c-1.8-0.6-4-0.1-5.4,1.2c-0.3,0.3-0.8-0.2-0.5-0.5c1.6-1.5,4-2.1,6.1-1.4
				C257.3,74.4,257.1,75.1,256.7,74.9L256.7,74.9z"/>
		</g>
		<g>
			<path class="st9" d="M255.1,76.7c-0.8-0.5-1.6-1.1-2.4-1.6c-0.2-0.1-0.2-0.3-0.1-0.5c0.1-0.2,0.3-0.2,0.5-0.1
				c0.8,0.5,1.6,1.1,2.4,1.6c0.2,0.1,0.2,0.3,0.1,0.5C255.5,76.8,255.3,76.9,255.1,76.7L255.1,76.7z"/>
		</g>
		<g>
			<path class="st9" d="M237,64.2c-0.9,2.2-3.2,3.8-5.6,3.8c0.1-0.1,0.2-0.3,0.4-0.4c0.1,1.1,0.6,2.2,1.4,3c0.3,0.3-0.2,0.8-0.5,0.5
				c-0.9-0.9-1.5-2.1-1.6-3.3c0-0.2,0.1-0.4,0.4-0.4c2.1,0,4.1-1.3,4.9-3.3C236.5,63.5,237.2,63.7,237,64.2L237,64.2z"/>
		</g>
		<g>
			<path class="st12" d="M231.6,74c-0.1,0-0.1-0.1-0.2-0.1c-0.8-0.6-1.4-2.6-1.2-2.7c2.1,1,4.7,1.5,6.9,1.3
				C237.2,72.5,235.5,75.8,231.6,74z"/>
			<g>
				<path class="st9" d="M231.5,74.3c-0.5-0.3-0.9-0.9-1.1-1.5c-0.2-0.5-0.5-1-0.4-1.5c0-0.2,0.2-0.5,0.5-0.5c0.2,0,0.4,0.2,0.6,0.3
					c0.2,0.1,0.4,0.2,0.6,0.3c0.8,0.3,1.7,0.5,2.6,0.7c1,0.2,2,0.2,3,0.1c0.3,0,0.4,0.3,0.3,0.6c-0.7,1.3-2.2,2.2-3.6,2.2
					C233.1,74.9,232.3,74.7,231.5,74.3c-0.3-0.1-0.1-0.8,0.3-0.6c1.3,0.6,2.7,0.7,4-0.1c0.5-0.3,0.9-0.8,1.2-1.3
					c0.1,0.2,0.2,0.4,0.3,0.6c-2.4,0.2-4.9-0.3-7.1-1.4c0.1,0,0.2,0,0.4,0c0,0,0.2-0.1,0.1-0.2c0,0,0,0.1,0,0.1c0,0,0,0.2,0,0.2
					c0.1,0.2,0.1,0.5,0.2,0.7c0.2,0.5,0.5,1,0.9,1.3C232.2,74,231.8,74.6,231.5,74.3z"/>
			</g>
		</g>
		<path d="M241.5,67.9c-0.3,1.1,0.1,2,0.8,2.2c0.7,0.2,1.5-0.5,1.8-1.6c0.3-1.1-0.1-2-0.8-2.2C242.5,66.1,241.8,66.9,241.5,67.9z"/>
		<ellipse transform="matrix(0.2242 -0.9746 0.9746 0.2242 116.6229 274.4373)" cx="230.7" cy="64" rx="2" ry="1.3"/>
		<path class="st14" d="M251.2,68c0.5,0.3,0.7,0.9,0.6,1.4c-0.1,0.6-0.4,1-0.9,1.4c-0.6,0.4-1.4,0.7-1.8,1.2
			c-0.4,0.6-0.4,1.4-0.3,2.1c0.1,0.7,0.4,1.4,0.9,1.8c-0.3-0.7-0.3-1.5-0.1-2.2c0.2-0.7,0.8-1.3,1.6-1.5c0.7-0.2,1.5,0,2.3-0.1
			c0.9-0.1,1.7-0.8,2.1-1.6c0.4-0.8,0.6-1.8,0.5-2.7L251.2,68z"/>
		<path class="st14" d="M246.2,64.5c-1.4-1-3.1-1.8-4.8-2.2c-0.1,0-0.2-0.1-0.3-0.2c-0.1-0.1-0.1-0.2,0-0.3c0,0,0,0,0,0
			c0.1-1.1,1.4-1.5,2.1-0.7L246.2,64.5z"/>
		<path class="st14" d="M229.8,57.9c1.7-0.3,3.5-0.2,5.2,0.2c0.1,0,0.2,0.1,0.4,0c0.1-0.1,0.2-0.2,0.2-0.3c0,0,0,0,0,0
			c0.4-1-0.6-1.9-1.6-1.6L229.8,57.9z"/>
		<g>
			<path class="st16" d="M236.7,46.7c-1.1,0.6-2.1,1.2-3.1,1.8c-0.7,0.5-1.9,1.3-1.3,2.3c0.2,0.4-0.4,0.7-0.6,0.3
				c-0.3-0.5-0.3-1.2,0-1.7c0.3-0.6,0.7-1,1.2-1.3c1.1-0.8,2.3-1.5,3.5-2.1C236.8,45.8,237.1,46.5,236.7,46.7L236.7,46.7z"/>
		</g>
		<g>
			<path class="st16" d="M235.1,50c0.6,0.9,1.9,0.8,2.8,0.7c1.1-0.1,2.2,0,3.2,0.3c1,0.3,2,0.8,2.7,1.6c0.8,0.9,1,2,1.3,3.1
				c0.2,0.6,0.4,1.1,0.9,1.5c0.4,0.3,0.8,0.5,1.3,0.6c1.1,0.3,2.2,0.2,3.3,0.2c1.2,0,2.5,0.2,3.6,0.8c1,0.6,1.7,1.5,1.8,2.7
				c0.1,0.6,0,1.2-0.3,1.7c-0.3,0.6-1,0.9-1.3,1.5c-0.3,0.5-0.1,1.3,0.3,1.7c0.5,0.5,1.2,0.8,1.9,0.9c0.5,0.1,0.2,0.8-0.2,0.7
				c-1.2-0.2-2.4-0.9-2.7-2.2c-0.1-0.6,0-1.2,0.3-1.7c0.3-0.5,0.9-0.8,1.2-1.3c0.5-0.9,0.1-2.2-0.6-2.9c-0.9-0.9-2.2-1.2-3.4-1.2
				c-2.1-0.1-4.9,0.4-6.2-1.8c-0.6-1-0.6-2.3-1.2-3.4c-0.5-0.9-1.5-1.6-2.4-1.9c-1.2-0.4-2.4-0.4-3.6-0.4c-1.2,0-2.5,0-3.2-1.1
				C234.2,49.9,234.8,49.6,235.1,50L235.1,50z"/>
		</g>
		<g>
			<path class="st16" d="M247.1,46.4c0.8,2.9,3.4,4.7,6.1,5.7c1.7,0.6,3.4,1,5.1,1.8c1.4,0.6,2.7,1.4,3.8,2.6c1.1,1.1,1.8,2.5,2,4
				c0.2,1.5,0,3-0.8,4.3c-0.4,0.6-0.9,1.1-1.4,1.6c-0.4,0.5-0.8,1.2-0.6,1.9c0.3,0.7,0.9,1.3,1.5,1.9c0.6,0.6,1.2,1.2,1.8,1.9
				c1.1,1.4,2,3.2,1.4,5c-0.5,1.5-2.1,2.6-3.6,2.1c-0.4-0.1-0.2-0.8,0.2-0.7c1.4,0.4,2.6-0.9,2.8-2.1c0.2-1.6-0.7-3.1-1.7-4.3
				c-0.5-0.6-1.2-1.2-1.7-1.8c-0.5-0.6-1.1-1.1-1.4-1.9c-0.5-1.4,0.8-2.6,1.6-3.5c1-1.1,1.4-2.5,1.2-4c-0.2-1.5-0.8-2.8-1.8-3.9
				c-1-1.1-2.4-1.9-3.7-2.5c-1.6-0.7-3.3-1.1-4.9-1.7c-2.9-1.1-5.7-3.1-6.6-6.3C246.3,46.1,247,46,247.1,46.4L247.1,46.4z"/>
		</g>
		<g>
			<path class="st16" d="M261.8,72.5c1.1,1.2,1.1,3.3-0.1,4.4c-0.3,0.3-0.8-0.2-0.5-0.5c0.9-0.9,0.9-2.5,0-3.4
				C261,72.6,261.5,72.1,261.8,72.5L261.8,72.5z"/>
		</g>
		<g>
			<path class="st16" d="M256,46c1.5,0.1,3,1,3.7,2.3c0.6,1.2,0.6,2.8-0.4,3.9c-0.3,0.3-0.8-0.2-0.5-0.5c0.8-0.8,0.7-2.1,0.2-3.1
				c-0.6-1.1-1.8-1.8-3-1.9C255.5,46.6,255.5,45.9,256,46L256,46z"/>
		</g>
		<g>
			<path class="st16" d="M253.4,46.5c0.6,0.4,0.9,1.1,0.7,1.8c-0.2,0.7-0.9,1.1-1.5,1.1c-0.2,0-0.4-0.2-0.3-0.4
				c0-0.2,0.2-0.3,0.4-0.3c0,0,0.1,0,0.1,0c-0.1,0,0,0,0,0c0.1,0,0.1,0,0.2,0c-0.1,0,0,0,0,0c0,0,0.1,0,0.1,0c0,0,0,0,0.1,0
				c0,0,0,0,0,0c0.1,0,0.1-0.1,0.1-0.1c0,0,0.1-0.1,0,0c0,0,0,0,0,0c0,0,0-0.1,0.1-0.1c0,0,0.1-0.1,0,0c0-0.1,0-0.1,0.1-0.2
				c0,0,0-0.1,0,0c0,0,0-0.1,0-0.1c0,0,0-0.1,0-0.1c0,0,0-0.1,0-0.1c0,0,0,0,0,0c0,0,0-0.1,0-0.1c0,0,0-0.1,0-0.1c0-0.1,0,0,0,0
				c0-0.1,0-0.1-0.1-0.2c0,0-0.1-0.1,0,0c0,0,0,0,0-0.1c0,0-0.1-0.1-0.1-0.1c0.1,0.1,0,0,0,0c0,0-0.1,0-0.1-0.1
				c-0.2-0.1-0.2-0.3-0.1-0.5C253,46.4,253.2,46.4,253.4,46.5L253.4,46.5z"/>
		</g>
		<g>
			<path class="st16" d="M227.5,53.2c-1.2,0.2-2.4,0.8-3.3,1.6c-0.9,0.9-1.2,2-1.2,3.2c0,1.2,0.1,2.4-0.2,3.6
				c-0.2,1.1-0.9,1.9-1.8,2.5c-1,0.7-2.2,0.9-3.3,0.6c-0.4-0.1-0.2-0.8,0.2-0.7c1,0.2,2,0,2.8-0.6c0.9-0.6,1.4-1.6,1.5-2.7
				c0.1-1.2,0-2.4,0.1-3.5c0.1-1.2,0.6-2.3,1.5-3.1c1-0.9,2.3-1.5,3.6-1.8C227.8,52.4,227.9,53.1,227.5,53.2L227.5,53.2z"/>
		</g>
		<g>
			<path class="st16" d="M226.1,56.8c0.3,2.8-0.9,5.6-3,7.4c-0.4,0.3-0.8-0.2-0.5-0.5c1.9-1.6,3.1-4.2,2.8-6.7
				c0-0.2,0.1-0.4,0.3-0.4C225.8,56.5,226,56.6,226.1,56.8L226.1,56.8z"/>
		</g>
		<g>
			<path class="st14" d="M242.7,42.7c-2.3,1-4.7,1.9-7.2,2.5c-1.2,0.3-2.4,0.5-3.7,0.5c-1.1,0-2.2-0.1-3.3-0.1c-1,0-2.1,0.2-2.9,0.8
				c-0.8,0.7-1.2,1.6-1.9,2.3c-0.7,0.8-1.7,1.1-2.7,1.2c-1,0.1-2.2,0.1-3.1,0.6c-1,0.6-1.7,1.6-1.9,2.7c-0.4,1.4-0.2,2.9,0.1,4.4
				c0.1,0.5-0.6,0.6-0.7,0.2c-0.4-2.4-0.6-5,1.1-7c0.7-0.8,1.7-1.3,2.8-1.4c1.1-0.1,2.2,0,3.2-0.5c0.9-0.5,1.4-1.5,2-2.3
				c0.7-0.9,1.5-1.4,2.6-1.6c1.1-0.2,2.1-0.1,3.2-0.1c1.3,0.1,2.5,0,3.8-0.2c2.9-0.5,5.6-1.6,8.3-2.7
				C242.7,41.9,243.1,42.5,242.7,42.7L242.7,42.7z"/>
		</g>
		<g>
			<path class="st14" d="M261.7,51.1c0.8,1.9,1.9,3.9,3.8,5c2,1.2,4.6,0.8,6.6,2c1.7,0.9,3.1,2.7,3,4.7c-0.1,1-0.6,1.9-1.2,2.7
				c-0.6,0.8-1.3,1.6-1.4,2.6c-0.2,1.1,0.3,2.3,1.2,2.9c1,0.7,2.3,0.7,3.3,0.1c0.4-0.2,0.7,0.4,0.3,0.6c-1.9,1.2-4.5,0.4-5.3-1.7
				c-0.4-1-0.4-2,0.1-3c0.4-1,1.2-1.7,1.7-2.7c0.5-0.9,0.7-1.8,0.4-2.8c-0.3-1-1-1.8-1.8-2.4c-0.9-0.7-2-1-3.1-1.2
				c-1.2-0.2-2.5-0.4-3.7-0.9c-2.3-1.1-3.6-3.3-4.6-5.5C260.9,51,261.5,50.7,261.7,51.1L261.7,51.1z"/>
		</g>
		<g>
			<path class="st8" d="M253.6,150.5c0.8,2.6,1.5,5.3,2,8c0.1,0.5-0.6,0.6-0.7,0.2c-0.5-2.7-1.2-5.4-2-8
				C252.7,150.2,253.4,150,253.6,150.5L253.6,150.5z"/>
		</g>
		<g>
			<path class="st8" d="M251.7,151.6c0.7,2.4,0.9,5,0.5,7.5c-0.1,0.5-0.8,0.4-0.7,0c0.4-2.4,0.2-4.9-0.5-7.3
				C250.9,151.3,251.6,151.1,251.7,151.6L251.7,151.6z"/>
		</g>
		<g>
			<path class="st8" d="M229.4,157.3c0.9,2,1.5,4.1,1.7,6.3c0,0.2-0.1,0.4-0.3,0.4c-0.2,0-0.4-0.1-0.4-0.3c-0.2-2.1-0.8-4.2-1.7-6.1
				C228.5,157.2,229.2,156.9,229.4,157.3L229.4,157.3z"/>
		</g>
		<g>
			<path class="st8" d="M226.5,157.3c1,1.7,1.6,3.6,1.9,5.6c0.1,0.5-0.6,0.6-0.7,0.2c-0.3-1.9-0.9-3.7-1.9-5.4
				C225.7,157.2,226.3,156.9,226.5,157.3L226.5,157.3z"/>
		</g>
		<g>
			<path class="st8" d="M239.4,158.5c0.5,0.8,0.3,1.9-0.3,2.6c-0.7,0.7-1.7,0.8-2.6,0.4c-0.9-0.5-1.4-1.4-1.2-2.4c0.2-1,1-1.8,2-1.8
				c1.1-0.1,2.2,0.7,2.5,1.8c0.1,0.4-0.6,0.6-0.7,0.2c-0.2-0.7-0.8-1.2-1.5-1.2c-0.7-0.1-1.3,0.4-1.6,1.1c-0.2,0.7-0.1,1.4,0.5,1.8
				c0.5,0.4,1.3,0.5,1.8,0c0.6-0.5,0.8-1.3,0.4-2C238.5,158.5,239.1,158.1,239.4,158.5L239.4,158.5z"/>
		</g>
		<g>
			<path class="st8" d="M253.2,162c-3.4,1.1-6.8,2-10.2,2.9c-2.2,0.5-4.4,1-6.7,1.2c-1.3,0.1-2.6,0.2-3.8-0.1
				c-0.4-0.1-0.2-0.8,0.2-0.7c1.1,0.2,2.2,0.2,3.3,0.1c1.1-0.1,2.3-0.3,3.4-0.5c2.7-0.5,5.4-1.2,8.1-2c1.9-0.5,3.7-1.1,5.6-1.7
				C253.4,161.2,253.6,161.9,253.2,162L253.2,162z"/>
		</g>
		<g>
			<path class="st8" d="M242.7,165.4c1.1,6.5,2.3,13,3.8,19.4c0.4,1.8,0.8,3.6,1.3,5.5c0.1,0.3-0.2,0.5-0.5,0.4
				c-3.3-0.6-5.4-3.6-6.5-6.6c-0.6-1.7-1-3.6-1.5-5.4c-0.5-2-1-4-1.5-5.9c-0.5-2.2-1.1-4.4-1.6-6.6c-0.1-0.4,0.6-0.6,0.7-0.2
				c0.9,3.8,1.9,7.6,2.8,11.4c0.4,1.8,0.8,3.6,1.4,5.4c0.5,1.6,1.1,3.2,2.2,4.5c1.1,1.3,2.5,2.4,4.2,2.7c-0.2,0.1-0.3,0.3-0.5,0.4
				c-1.5-6.4-2.9-12.8-4.1-19.3c-0.3-1.8-0.7-3.7-1-5.5C241.9,165.1,242.6,164.9,242.7,165.4L242.7,165.4z"/>
		</g>
		<g>
			<path class="st8" d="M246.8,189.7c0.5,4.1,1.1,8.2,1.9,12.3c0.2,1.2,0.5,2.3,0.7,3.5c0.1,0.5-0.6,0.6-0.7,0.2
				c-0.9-4.1-1.6-8.2-2.2-12.3c-0.2-1.2-0.3-2.4-0.5-3.5C246.1,189.4,246.8,189.2,246.8,189.7L246.8,189.7z"/>
		</g>
		<g>
			<path class="st8" d="M251.7,190.5c-3.9,0.5-7.7,1.1-11.5,1.7c-0.5,0.1-0.6-0.6-0.2-0.7c3.8-0.7,7.7-1.2,11.5-1.7
				C252,189.8,252.2,190.5,251.7,190.5L251.7,190.5z"/>
		</g>
		<g>
			<path class="st8" d="M253.5,165.4c1.3,2.9,3.8,5.2,6.8,6.2c0.9,0.3,1.7,0.5,2.7,0.6c0.5,0,0.4,0.8,0,0.7
				c-3.4-0.3-6.5-2.1-8.6-4.7c-0.6-0.8-1.1-1.6-1.5-2.4C252.7,165.3,253.3,165,253.5,165.4L253.5,165.4z"/>
		</g>
		<g>
			<path class="st8" d="M260.1,162.3c2.2,8,4.8,15.9,7.8,23.6c3,7.7,6.4,15.3,10.1,22.6c1.9,3.7,3.8,7.4,6.2,10.8
				c2.2,3.2,4.9,6,7.7,8.6c5.9,5.3,12.6,9.7,19,14.3c7.2,5.1,14.5,10.2,21.7,15.3c0.9,0.6,1.8,1.3,2.7,1.9c0.4,0.3,0,0.9-0.4,0.6
				c-7.3-5.1-14.6-10.3-22-15.4c-3.5-2.5-7-4.9-10.5-7.4c-3.1-2.2-6.2-4.5-9.2-7c-2.9-2.4-5.6-5.1-8-8.1c-2.6-3.2-4.6-6.8-6.5-10.4
				c-3.9-7.4-7.4-14.9-10.5-22.7c-3.1-7.7-5.8-15.5-8.1-23.5c-0.3-1-0.6-2-0.9-3C259.3,162,260,161.8,260.1,162.3L260.1,162.3z"/>
		</g>
		<g>
			<path class="st8" d="M339.5,256.8c-0.8,1.6-2.2,2.7-3.6,3.7c-0.7,0.5-1.5,0.9-2.2,1.4c-0.8,0.5-1.5,1.1-2.2,1.7
				c-0.8,0.7-1.7,1.4-2.8,1.7c-0.4,0.1-0.6-0.6-0.2-0.7c0.9-0.3,1.6-0.9,2.4-1.5c0.7-0.6,1.4-1.1,2.1-1.6c1.4-0.9,2.9-1.8,4.2-2.9
				c0.7-0.6,1.3-1.3,1.7-2.2C339.1,256,339.7,256.4,339.5,256.8L339.5,256.8z"/>
		</g>
		<g>
			<path class="st8" d="M244,192c-2.7,6.2-5.5,12.3-8.7,18.2c-1.6,3-3.3,5.9-5.1,8.8c-1.8,2.9-3.7,5.8-5.6,8.6
				c-3.6,5.5-6.9,11.3-9.7,17.3c-2.8,5.9-5.2,12-7.4,18.2c-2.2,6.2-4.2,12.5-6.2,18.8c-0.2,0.8-0.5,1.5-0.7,2.3
				c-0.1,0.4-0.8,0.2-0.7-0.2c2-6.3,3.9-12.5,6.1-18.7c2.1-6.2,4.5-12.3,7.2-18.3c2.7-5.9,5.7-11.7,9.1-17.2
				c1.9-2.9,3.8-5.8,5.7-8.7c1.8-2.8,3.6-5.7,5.2-8.7c3.3-5.9,6.3-12.1,9-18.3c0.3-0.8,0.7-1.5,1-2.3
				C243.5,191.4,244.2,191.6,244,192L244,192z"/>
		</g>
		<g>
			<path class="st8" d="M203,286.1c-3.9-0.9-7.7-2.1-11.4-3.5c-1.1-0.4-2.1-0.8-3.1-1.3c-0.4-0.2-0.2-0.9,0.2-0.7
				c3.7,1.5,7.4,2.9,11.3,3.9c1.1,0.3,2.2,0.6,3.3,0.9C203.6,285.5,203.4,286.2,203,286.1L203,286.1z"/>
		</g>
		<g>
			<path class="st8" d="M231.9,167.4c-0.5,3.9-3.2,6.9-5.7,9.8c-0.3,0.3-0.8-0.2-0.5-0.5c2.4-2.7,4.9-5.6,5.4-9.3
				C231.3,166.9,232,167,231.9,167.4L231.9,167.4z"/>
		</g>
		<g>
			<path class="st8" d="M293.5,216.1c-1.8,2.8-4,5.4-6.5,7.6c-0.3,0.3-0.8-0.2-0.5-0.5c2.5-2.2,4.6-4.7,6.4-7.4
				C293.2,215.3,293.8,215.7,293.5,216.1L293.5,216.1z"/>
		</g>
		<g>
			<path class="st8" d="M292.5,215.6c-2.4,1.9-4.8,3.8-7.2,5.7c-0.4,0.3-0.8-0.2-0.5-0.5c2.4-1.9,4.8-3.8,7.2-5.7
				C292.4,214.8,292.9,215.4,292.5,215.6L292.5,215.6z"/>
		</g>
		<g>
			<path class="st8" d="M226,234.2c-3.3-1.7-6.8-2.9-10.4-3.7c-0.4-0.1-0.2-0.8,0.2-0.7c3.7,0.8,7.3,2.1,10.6,3.8
				C226.8,233.8,226.4,234.4,226,234.2L226,234.2z"/>
		</g>
		<g>
			<path class="st8" d="M223.3,236.9c-2.4-1.1-4.8-1.9-7.3-2.5c-0.4-0.1-0.2-0.8,0.2-0.7c2.5,0.6,5,1.5,7.3,2.5
				C223.9,236.5,223.7,237.1,223.3,236.9L223.3,236.9z"/>
		</g>
		<g>
			<path class="st12" d="M201,310.3c-4,3.5-9.4,4.1-14.4,5.2c-2.6,0.5-5.1,1.2-7.5,2.4c-2.4,1.2-4.7,2.7-7.1,4
				c-2.6,1.4-5.4,2.5-8.4,2.5c-0.5,0-0.4-0.7,0-0.7c5.4,0.1,9.8-3.7,14.4-6c2.3-1.2,4.8-2,7.3-2.6c2.5-0.6,5.1-0.9,7.6-1.6
				c2.7-0.7,5.4-1.7,7.5-3.6C200.8,309.5,201.3,310,201,310.3L201,310.3z"/>
		</g>
		<g>
			<path class="st12" d="M166.6,318.8c1.1,0.8,2,1.8,2.8,3c0.1,0.2,0,0.4-0.1,0.5c-0.2,0.1-0.4,0-0.5-0.1c-0.7-1.1-1.5-2-2.5-2.7
				c-0.2-0.1-0.2-0.3-0.1-0.5C166.2,318.8,166.4,318.7,166.6,318.8L166.6,318.8z"/>
		</g>
		<g>
			<path class="st12" d="M199.8,306.6c-1.8,1.5-3,3.7-3.4,6.1c-0.1,0.5-0.8,0.4-0.7,0c0.4-2.5,1.7-4.9,3.6-6.6
				C199.7,305.7,200.1,306.3,199.8,306.6L199.8,306.6z"/>
		</g>
		<g>
			<path class="st12" d="M177.6,313.4c-1-0.8-2-1.6-3.1-2.2c-0.4-0.2,0-0.8,0.4-0.6c1.1,0.7,2.2,1.4,3.1,2.2
				c0.1,0.1,0.2,0.3,0.1,0.5C178,313.4,177.7,313.5,177.6,313.4L177.6,313.4z"/>
		</g>
		<g>
			<path class="st12" d="M179.3,311.5c-0.8-0.8-1.7-1.4-2.7-2c-0.2-0.1-0.2-0.3-0.1-0.5c0.1-0.2,0.3-0.2,0.5-0.1
				c1,0.6,2,1.3,2.9,2.1c0.1,0.1,0.1,0.4,0,0.5C179.7,311.6,179.4,311.6,179.3,311.5L179.3,311.5z"/>
		</g>
		<g>
			<path class="st12" d="M181.1,309.6c-0.7-0.8-1.6-1.4-2.6-1.8c-0.2-0.1-0.3-0.3-0.2-0.5c0.1-0.2,0.3-0.3,0.5-0.2
				c1.1,0.4,2.1,1.1,2.9,2C181.9,309.4,181.4,309.9,181.1,309.6L181.1,309.6z"/>
		</g>
		<path class="st12" d="M193.1,299c0.9,0.5,1.2,1.8,0.8,2.7c-0.4,0.9-1.5,1.5-2.5,1.6c-0.6,0.1-1.3-0.1-1.8-0.4
			c-1.1-0.8-1.1-2.5-0.1-3.5c0.9-0.9,2.5-1,3.7-0.3L193.1,299z"/>
		<g>
			<path class="st12" d="M356.4,269c2.1,5.5,3.2,11.3,4,17.1c0.4,2.9,0.7,5.8,1,8.7c0.2,2.5,0.4,5,0.2,7.5c-0.3,2.7-1.1,5.3-3,7.4
				c-0.3,0.3-0.8-0.2-0.5-0.5c3.3-3.7,3.1-9.1,2.6-13.6c-0.5-5.6-1.1-11.3-2.3-16.8c-0.7-3.2-1.5-6.3-2.6-9.3
				C355.6,268.9,356.2,268.5,356.4,269L356.4,269z"/>
		</g>
		<g>
			<path class="st12" d="M360.5,304.8c-1.3-0.1-2.6-0.1-4,0.1c-0.6,0.1-1.3,0.2-1.9,0.4c-0.6,0.2-1.2,0.4-1.9,0.4
				c-0.5,0-0.4-0.7,0-0.7c0.6,0,1.3-0.2,1.9-0.4c0.6-0.2,1.3-0.3,2-0.4c1.3-0.2,2.6-0.2,3.9,0C361,304.1,361,304.8,360.5,304.8
				L360.5,304.8z"/>
		</g>
		<g>
			<path class="st12" d="M357.2,274c-2.9-0.4-5.4-2.3-6.7-4.9c-0.2-0.4,0.4-0.7,0.6-0.3c1.2,2.4,3.5,4.1,6.1,4.5
				C357.6,273.4,357.6,274.1,357.2,274L357.2,274z"/>
		</g>
		<path class="st12" d="M347.6,273.4c0.8,0.6,1.2,1.8,0.8,2.7c-0.4,1-1.3,1.6-2.3,1.8c-0.9,0.1-1.9-0.2-2.3-1
			c-0.3-0.6-0.2-1.4,0-2.1c0.4-0.9,1.1-1.8,2.1-2.1c1-0.3,2.2,0.3,2.4,1.3L347.6,273.4z"/>
		<g>
			<path class="st12" d="M355.2,289c-2,0.3-4,0.9-5.9,1.7c-0.4,0.2-0.8-0.5-0.3-0.6c2-0.8,4-1.4,6.1-1.8
				C355.5,288.2,355.7,288.9,355.2,289L355.2,289z"/>
		</g>
		<g>
			<path class="st12" d="M355.6,292.1c-1.4,0-2.8,0.3-4.2,0.7c-0.2,0.1-0.4-0.1-0.4-0.3c0-0.2,0.1-0.4,0.3-0.4
				c1.4-0.5,2.9-0.7,4.3-0.8C356.1,291.4,356.1,292.1,355.6,292.1L355.6,292.1z"/>
		</g>
		<g>
			<path class="st12" d="M355.9,295.4c-1.6,0.6-3.3,0.8-4.9,0.7c-0.5,0-0.4-0.7,0-0.7c1.6,0.1,3.2-0.2,4.7-0.7
				c0.2-0.1,0.4,0.1,0.4,0.3C356.2,295.2,356,295.3,355.9,295.4L355.9,295.4z"/>
		</g>
		<g>
			<path class="st0" d="M262.6,130.6c-2.4,1.8-4.8,3.6-7.5,4.8c-2.8,1.3-5.9,1.8-9,2c-3.3,0.2-6.6,0.2-9.9,0.3
				c-3.3,0.1-6.7,0.2-10,0.3c-3.8,0.1-7.6,0.2-11.3,0.3c-0.5,0-0.4-0.7,0-0.7c6.6-0.2,13.3-0.4,19.9-0.6c3.3-0.1,6.5-0.2,9.8-0.3
				c3.1-0.1,6.2-0.4,9.1-1.5c3.1-1.2,5.7-3.2,8.4-5.2C262.5,129.8,262.9,130.3,262.6,130.6L262.6,130.6z"/>
		</g>
		<g>
			<path class="st0" d="M248.5,93.5c0,1.9-1.4,3.5-3.1,4.2c-2.1,0.8-4.4,0.6-6.6,0.3c-2.2-0.3-4.4-0.7-6.5-1.5
				c-1.8-0.7-3.5-1.8-4.4-3.5c-0.9-1.7-0.9-4,0.6-5.4c0.3-0.3,0.8,0.2,0.5,0.5c-1.1,1.1-1.1,2.9-0.5,4.3c0.7,1.6,2.2,2.7,3.8,3.3
				c1.8,0.8,3.8,1.2,5.7,1.5c2,0.3,4.2,0.6,6.1,0.2c1.8-0.4,3.7-1.8,3.7-3.8C247.7,93,248.5,93.1,248.5,93.5L248.5,93.5z"/>
		</g>
		<g>
			<path class="st0" d="M217.4,78.8c-3.6,3.4-5.9,7.8-7.9,12.2c-0.6,1.3-1.1,2.6-1.7,3.9c-0.2,0.4-0.9,0.2-0.7-0.2
				c1.9-4.6,3.9-9.3,6.9-13.3c0.9-1.1,1.8-2.2,2.8-3.1C217.3,77.9,217.8,78.5,217.4,78.8L217.4,78.8z"/>
		</g>
		<g>
			<path class="st0" d="M214.8,78.5c-0.4,1.5-0.9,3-1.3,4.5c-0.1,0.4-0.8,0.2-0.7-0.2c0.4-1.5,0.9-3,1.3-4.5
				C214.2,77.8,214.9,78,214.8,78.5L214.8,78.5z"/>
		</g>
		<g>
			<path class="st0" d="M263.9,119.7c-0.5-1.5-0.7-2.9-0.5-4.5c0.1-0.8,0.3-1.5,0.5-2.3c0.2-1,0.3-1.9,0.6-2.9c0.6-2,1.4-3.9,1.6-6
				c0.2-2.2-0.1-4.3-0.4-6.4c-0.3-2.4-0.7-4.9-1-7.3c-0.1-0.5,0.6-0.6,0.7-0.2c0.3,2.2,0.6,4.3,0.9,6.5c0.3,2.1,0.6,4.3,0.6,6.4
				c0,1.1-0.2,2.1-0.4,3.1c-0.3,1-0.6,2-0.9,2.9c-0.6,1.8-0.9,3.6-1.2,5.4c-0.2,0.7-0.3,1.5-0.3,2.2c0,0.9,0.3,1.8,0.6,2.7
				C264.8,119.9,264.1,120.1,263.9,119.7L263.9,119.7z"/>
		</g>
		<g>
			<path class="st0" d="M268,91.4c-0.3,1.2-1.5,1.8-2,2.9c-0.1,0.2-0.3,0.2-0.5,0.1c-0.2-0.1-0.2-0.3-0.1-0.5
				c0.3-0.5,0.7-0.9,1.1-1.4c0.2-0.2,0.4-0.4,0.5-0.6c0.2-0.2,0.3-0.4,0.3-0.7c0-0.2,0.3-0.3,0.5-0.2C267.9,91,268,91.2,268,91.4
				L268,91.4z"/>
		</g>
		<g>
			<path class="st0" d="M330,59.4c-1.3,1.3-2.6,2.6-4,3.9c-0.3,0.3-0.8-0.2-0.5-0.5c1.3-1.3,2.6-2.6,4-3.9
				C329.8,58.5,330.3,59.1,330,59.4L330,59.4z"/>
		</g>
		<g>
			<path class="st0" d="M328.2,58.1c-1.2,0.9-2.3,2-3.3,3c-0.1,0.1-0.4,0.1-0.5,0c-0.1-0.2-0.1-0.4,0-0.5c1-1.1,2.2-2.1,3.3-3
				c0.2-0.1,0.4-0.1,0.5,0C328.4,57.7,328.4,58,328.2,58.1L328.2,58.1z"/>
		</g>
		<g>
			<path class="st0" d="M327.1,55.3c-1.4,1.2-2.7,2.6-3.8,4.1c-0.3,0.4-0.9,0-0.6-0.4c1.2-1.5,2.5-2.9,4-4.2
				C327,54.4,327.5,55,327.1,55.3L327.1,55.3z"/>
		</g>
		<g>
			<path class="st0" d="M325.2,53.4c-1.3,1.1-2.5,2.4-3.6,3.8c-0.3,0.4-0.9,0-0.6-0.4c1.1-1.4,2.3-2.8,3.7-4
				C325,52.6,325.5,53.1,325.2,53.4L325.2,53.4z"/>
		</g>
		<g>
			<path class="st0" d="M324.1,51.2c-1.4,0.8-2.6,1.8-3.6,3.1c-0.3,0.4-0.9,0-0.6-0.4c1-1.4,2.3-2.5,3.8-3.4
				C324.1,50.4,324.5,51,324.1,51.2L324.1,51.2z"/>
		</g>
		<g>
			<path class="st0" d="M323.1,49.8c-1,0.7-1.9,1.3-2.9,2c-0.2,0.1-0.4,0-0.5-0.1c-0.1-0.2,0-0.4,0.1-0.5c1-0.7,1.9-1.3,2.9-2
				c0.2-0.1,0.4,0,0.5,0.1C323.4,49.5,323.3,49.6,323.1,49.8L323.1,49.8z"/>
		</g>
		<g>
			<path class="st0" d="M192.3,28.3c0.9,1.7,1.7,3.4,2.6,5.1c0.2,0.4-0.4,0.7-0.6,0.3c-0.9-1.7-1.7-3.4-2.6-5.1
				C191.5,28.3,192.1,27.9,192.3,28.3L192.3,28.3z"/>
		</g>
		<g>
			<path class="st0" d="M190.5,29.5c0.8,1.7,1.5,3.4,2.3,5.1c0.2,0.4-0.4,0.8-0.6,0.3c-0.8-1.7-1.5-3.4-2.3-5.1
				C189.7,29.4,190.3,29.1,190.5,29.5L190.5,29.5z"/>
		</g>
		<g>
			<path class="st0" d="M189.2,31.2c0.6,1.4,1.2,2.8,1.9,4.2c0.2,0.4-0.4,0.8-0.6,0.3c-0.6-1.4-1.2-2.8-1.9-4.2
				C188.3,31.1,189,30.8,189.2,31.2L189.2,31.2z"/>
		</g>
		<g>
			<path class="st0" d="M186.6,32.1c0.9,1.7,1.8,3.4,2.5,5.2c0.2,0.4-0.5,0.8-0.6,0.3c-0.8-1.8-1.6-3.5-2.5-5.2
				C185.7,32,186.3,31.7,186.6,32.1L186.6,32.1z"/>
		</g>
		<g>
			<path class="st0" d="M185,33.4c0.4,1.4,0.9,2.9,1.5,4.2c0.2,0.4-0.4,0.8-0.6,0.3c-0.6-1.4-1.1-2.9-1.6-4.4
				C184.2,33.1,184.9,32.9,185,33.4L185,33.4z"/>
		</g>
		<g>
			<path class="st0" d="M201.6,66.6c0.6,1,1,2.1,1.2,3.3c0.1,0.5-0.6,0.6-0.7,0.2c-0.2-1.1-0.6-2.2-1.2-3.1
				C200.7,66.5,201.4,66.2,201.6,66.6L201.6,66.6z"/>
		</g>
		<g>
			<path class="st0" d="M199.3,67c0.6,0.7,1.1,1.6,1.3,2.5c0,0.2-0.1,0.4-0.3,0.4c-0.2,0-0.4-0.1-0.4-0.3c-0.1-0.4-0.2-0.8-0.4-1.2
				c-0.1-0.2-0.2-0.4-0.3-0.5c0,0,0-0.1,0,0c0,0,0,0,0-0.1c0,0-0.1-0.1-0.1-0.1c-0.1-0.1-0.1-0.2-0.2-0.3c-0.1-0.1-0.1-0.4,0-0.5
				C199,66.9,199.2,66.9,199.3,67L199.3,67z"/>
		</g>
		<g>
			<path class="st0" d="M196.1,56.5c0.6,1.1,1.2,2.3,1.6,3.5c0.1,0.2-0.1,0.4-0.3,0.4c-0.2,0-0.4-0.1-0.4-0.3
				c-0.4-1.2-0.9-2.3-1.5-3.3C195.2,56.4,195.9,56.1,196.1,56.5L196.1,56.5z"/>
		</g>
		<g>
			<path class="st0" d="M203.8,75.5c0.7,1,1.2,2,1.6,3.2c0.1,0.2-0.1,0.4-0.3,0.4c-0.2,0-0.4-0.1-0.4-0.3c-0.3-1-0.8-2-1.4-2.9
				c-0.1-0.2-0.1-0.4,0-0.5C203.4,75.3,203.7,75.3,203.8,75.5L203.8,75.5z"/>
		</g>
		<g>
			<path class="st0" d="M249.7,127.8c-4.4-1.2-8.8-2.3-13.2-3.5c-4.4-1.2-8.8-2.3-13.1-3.5c-2.5-0.7-5-1.3-7.4-2
				c-0.4-0.1-0.2-0.8,0.2-0.7c4.4,1.2,8.8,2.3,13.2,3.5c4.4,1.2,8.8,2.3,13.1,3.5c2.5,0.7,5,1.3,7.4,2
				C250.4,127.2,250.2,127.9,249.7,127.8L249.7,127.8z"/>
		</g>
		<g>
			<path class="st0" d="M241.6,130.8c-5.9-2-11.8-3.9-17.7-5.9c-1.7-0.6-3.3-1.1-5-1.7c-0.4-0.1-0.2-0.8,0.2-0.7
				c5.9,2,11.8,3.9,17.7,5.9c1.7,0.6,3.3,1.1,5,1.7C242.3,130.3,242.1,131,241.6,130.8L241.6,130.8z"/>
		</g>
		<g>
			<path class="st0" d="M295.5,78.7c-1.2,0.9-2.3,2-3.2,3.3c-0.3,0.4-0.9,0-0.6-0.4c0.9-1.3,2-2.5,3.3-3.4c0.2-0.1,0.4-0.1,0.5,0
				C295.6,78.3,295.6,78.6,295.5,78.7L295.5,78.7z"/>
		</g>
		<g>
			<path class="st0" d="M299.5,79c-0.1,0.8-0.5,1.5-1.2,2c-0.1,0.1-0.4,0.1-0.5,0c-0.1-0.1-0.1-0.4,0-0.5c0.1-0.1,0.3-0.2,0.4-0.3
				c0,0,0-0.1,0,0c0,0,0,0,0,0c0,0,0-0.1,0.1-0.1c0.1-0.1,0.1-0.1,0.1-0.2c0-0.1,0.1-0.1,0.1-0.2c0,0,0,0.1,0,0c0,0,0,0,0-0.1
				c0,0,0-0.1,0-0.1c0-0.1,0.1-0.2,0.1-0.2c0,0,0-0.1,0-0.1c0,0,0,0,0-0.1c0,0,0-0.1,0,0c0-0.1,0-0.2,0.1-0.2
				c0.1-0.1,0.2-0.1,0.3-0.1C299.3,78.6,299.5,78.8,299.5,79L299.5,79z"/>
		</g>
		<g>
			<path class="st0" d="M304.2,69.9c-1,0.9-1.9,1.8-2.6,2.9c-0.1,0.2-0.3,0.2-0.5,0.1c-0.2-0.1-0.2-0.3-0.1-0.5
				c0.8-1.1,1.7-2.1,2.8-3C304.1,69,304.6,69.6,304.2,69.9L304.2,69.9z"/>
		</g>
		<g>
			<path class="st0" d="M306.1,72.9c-0.6,0.7-1.2,1.5-1.8,2.2c-0.1,0.1-0.3,0.2-0.5,0.1c-0.1-0.1-0.2-0.3-0.1-0.5
				c0.6-0.7,1.2-1.5,1.8-2.2c0.1-0.1,0.3-0.2,0.5-0.1C306.2,72.5,306.3,72.8,306.1,72.9L306.1,72.9z"/>
		</g>
		<g>
			<path class="st0" d="M308.6,65.6c-0.7,0.7-1.4,1.4-2.1,2.1c-0.1,0.1-0.4,0.1-0.5,0c-0.1-0.2-0.1-0.4,0-0.5
				c0.7-0.7,1.4-1.4,2.1-2.1c0.1-0.1,0.4-0.1,0.5,0C308.7,65.3,308.7,65.5,308.6,65.6L308.6,65.6z"/>
		</g>
		<g>
			<path class="st7" d="M250.6,64c-1,0.9-2,1.8-2.9,2.8c-0.1,0.1-0.4,0.1-0.5,0c-0.1-0.2-0.1-0.4,0-0.5c0.9-1,1.9-1.9,2.9-2.8
				C250.4,63.2,250.9,63.7,250.6,64L250.6,64z"/>
		</g>
		<g>
			<path class="st7" d="M249.8,62.1c-1,0.8-2,1.6-2.9,2.6c-0.1,0.1-0.4,0.1-0.5,0c-0.1-0.2-0.1-0.4,0-0.5c0.9-1,1.8-1.8,2.9-2.6
				c0.2-0.1,0.4-0.1,0.5,0C250,61.8,250,62,249.8,62.1L249.8,62.1z"/>
		</g>
	</g>
</g>
</svg>
