<svg xmlns="http://www.w3.org/2000/svg" width="161.9" height="223.5" style="overflow:visible;enable-background:new 0 0 161.9 223.5" xml:space="preserve">
    <style>
        .st0{fill:#92603a}.st1{fill:#fad1b9}.st2{fill:#f3b65c}.st3{fill:#a46e4b}.st8{fill:#56321a}
    </style>
    <path class="st0" d="M55.5 1.2c-5 1.1-11.7 8-11.9 13.2-.1 3.1 1.1 6.4-.2 9.3-1.2 2.9-4.4 4.4-6.1 7-2.2 3.3-1.6 7.7-.9 11.6l7.5-.9c.5-1.3 1-2.5 1.4-3.8.5.9 1 1.8 1.5 2.8 12.5 1.2 25.3.6 37.6-1.7-.3-1.8 0-3.7.8-5.3 1.2 1.3 2.1 2.9 2.8 4.5 2-.7 4.2-1 6.3-.9 1.9-4.2.6-9.5-3-12.3-1.5-1.2-3.5-2-4.7-3.5-3-3.5-1.8-10.1-5.8-12.3-.8-.4-1.6-.6-2.5-1-1.6-.7-3.2-1.5-4.4-2.8-7.3-8.2-18.4-3.9-18.4-3.9z"/>
    <path class="st1" d="M37.3 145.2c-.4 6-1.1 12-2.1 18-1 5.5-2.3 11-3.7 16.5-1.9 7.9-3.8 15.8-5.8 23.7-.3 1.1-.6 2.3-1.3 3.1-.9 1-2.4 1.4-3.8 1.7-5.1 1.1-10.3 2.2-15.4 3.2-1.5.3-3.3 1-3.3 2.6 3.9 2.3 8.9 1.1 13.2 2.4 3.2.9 5.8 3.2 9 4.2 3.1 1 7.5.1 8.2-3.1.2-.8.1-1.7.2-2.5.1-3.2 1.8-6.1 3.4-8.9 3.4-5.9 6.8-11.9 10.2-17.8 3.1-5.5 6.3-11.7 4.7-17.7-.4-1.4-1-2.8-1-4.3.1-1.3.7-2.6 1.4-3.7 3.3-5.8 7-11.4 11-16.8l-24.9-.6zm46.7 4.4c1 4.3 2.2 8.6 3.6 12.9.6 1.7 1.3 3.5 2.5 4.8 2.4 2.5 6.3 2.7 9.9 2.8 12 .1 24.4-1.5 36.4-1.4 3.4 0 7.2.3 9.5 2.8 1 1.1 2.2 3.6 2.7 5 2 5.2 5.6 9.8 7.6 14.9 2.6-1.2.7-3.4.4-6.2-.3-2.9-1.2-5.7-.9-8.5.5-4.2 3.8-7.5 4.6-11.6.2-.9.2-2-.4-2.8-.6-.8-1.6-1.2-2.6-1.4-3.4-.6-7 .1-10.3-.7-2.5-.7-4.7-2.2-7-3.4-11-6-24.4-5.4-36.5-2.6.8-6.5 1.2-13.1 1.2-19.7 0-.7 0-1.5-.6-2.1-.4-.4-1.1-.5-1.7-.6-3.7-.4-7.4-.8-11.1-1.3L84 149.6zM69.4 67.8c-6.4 8.7-12.9 17.4-19.3 26-1 1.4-2.1 2.8-3.8 3.3-1.5.5-3.2.1-4.8-.4-10.4-3.3-30.6-14.5-28-16.4.3-.8 1-1.3 1.8-1.6-.8 0-1.4-.9-1.2-1.6.2-.8 1.2-1.2 1.9-.8-.7-.2-1.1-1.1-.8-1.7.3-.7 1.2-.9 1.9-.5-.1-.8-.3-1.5-.4-2.3C18 71 21.9 73.4 24 75c-.2-1.2-.4-2.5-.6-3.7-.1-.6-.1-1.3.4-1.6.6-.3 1.1.3 1.5.8 2.1 3.1 3.2 6.9 3.2 10.6 5.5.8 10.9 2.2 16.1 4.3 2.3-6.5 4.9-12.8 7.8-19 .6-1.3 1.3-2.7 2.5-3.5 1.1-.7 2.5-.9 3.8-.9 4.2.2 8.3 2.5 10.6 6.1l.1-.3z"/>
    <path class="st0" d="M63.5 50.1c-7.2 7.1-19 18.4-24 27.1 5.1 6.1 9.9 12.5 14.3 19.1 5.9-4.4 11.7-9 15.9-15 2.5-3.6 4.5-8.2 3.1-12.4-1-3.2-3.8-5.5-6.8-7.1-3-1.6 1.6-8.8-1.4-10.4l-1.1-1.3z"/>
    <path class="st1" d="M47.5 14.2c.1 4.5.1 9 .2 13.4 0 .6 0 1.2-.4 1.7-.3.3-.7.4-1.1.5-1.4.4-2.7.7-4.1 1.1 1.5.4 3 .8 4.5 1.3 0 3.3.3 4.4.7 7.6.2 1.1.3 2.2.9 3.1 1.1 1.7 9.6-.2 11.3-1.2.8 3.8 1.8 9.8 2.3 10.1.4.2.8.2 1.3.2 5.1-.3 10.1-2.5 13.7-6.1-3.1-5.2-3.9-5.3-5.5-11.1 3.3.8 6.9-2.6 6.4-6-.6-3.4-5-5.4-7.9-3.6-.5-4.2-1-8.4-1.6-12.7-6.8 0-13.7.6-20.4 1.6l-.3.1z"/>
    <path class="st0" d="M47.2 13.8c-.5.4-.2 1.3.2 1.8 1.6 2 4.2 3.2 6.8 3.3 1.7.1 3.4-.3 5.2-.5 1.7-.1 3.6 0 4.9 1.1 1.5 1.2 2 3.2 3.4 4.5 1 .9 2.4 1.3 3.7 1.2.2 0 .4-.1.5-.2.2-.2.2-.4.2-.7l-.3-13.8c0-.5 0-1-.3-1.4-.4-.5-1.1-.8-1.7-.9-5.6-1.4-11.6-1.1-17.4-.7-1.8.2-3.7.4-5.1 1.5-1.3 1.1-1.5 3.6.1 4.4l-.2.4z"/>
    <path class="st2" d="M60.3 53.8c2.1-2.6 4.5-4.9 7.2-6.8 2.7-1.9 5.7-3.8 7.9-4 1-.1 2-.1 2.9.4.8.4 1.4 1.1 1.9 1.8 4.9 6.4 6.7 14.6 7.2 22.7.5 8-.1 16.1.4 24.1.3 4.6 1 9.1 1.6 13.7-11.1 5-33.6 3.6-34.3 2.9-.5-.5-8.5-21.7-6.8-33 1.4-7.8 8-16.9 12-21.8z"/>
    <path class="st2" d="M54.5 108.2c.3 3.4-1.9 6.4-4.3 8.8-2.4 2.4-5.2 4.5-6.7 7.5-1.6 3.1-1.6 6.7-2.5 10.1-1.4 5.1-4.9 9.2-7.7 13.6s-1.6 12.5-8 15.2c6.7 6.5 20.2 12 29.2 9.7 5.5-1.4 9.9-5.7 15.5-6.8 5.5-1 11 1.3 16.5 2 8 1.1 16.1-1.2 22.9-5.5 6.8-4.3 12.3-10.4 16.6-17.1-4.3 1.5-5.6-5.4-7.3-9.7-1.8-4.3-5.5-6.4-8.7-9.7-4-4.1-7.8-8-11.7-12.2-3.5-3.7-6.7-5.8-9-10.3-10.5.3-21 .7-31.5 1l-3.3 3.4z"/>
    <path class="st1" d="M88.2 54.2c7.3 8 14.6 15.9 21.8 23.9 1.2 1.3 2.4 2.6 2.6 4.3.2 1.6-.6 3.2-1.3 4.6-5.2 9.6-20.1 27.2-21.5 24.4-.7-.4-1.1-1.2-1.2-2-.2.8-1.1 1.2-1.8.9-.7-.3-.9-1.4-.4-2-.3.7-1.3.9-1.9.5-.6-.4-.7-1.4-.2-1.9-.8 0-1.9 1.6-2.3 0-.6-1.4 2.5-4.8 4.6-6.6-1.3 0-2.5-.1-3.8-.1-.6 0-1.3-.2-1.5-.7-.1-.6.5-1.1 1.1-1.3 3.5-1.4 7.4-1.8 11.1-1.1 1.8-5.3 4.3-10.3 7.3-15-5.9-3.5-11.6-7.2-17.1-11.3-1.2-.9-2.4-1.8-2.9-3.1-.5-1.2-.4-2.6-.1-3.9 1-4.1 4.1-7.7 8-9.3l-.5-.3z"/>
    <path class="st2" d="M76.8 46.3c1.1-1.2 3.2-.5 4.6.4 8.5 5.4 15.1 13.3 21.6 21-3.5 6.3-7.6 12.2-12.1 17.8-5.4-2.9-10.4-6.6-14.7-10.9-2.5-2.6-4.9-5.4-6-8.8-2-6.3 1-13.8 6.8-16.9l-.2-2.6z"/>
    <path class="st3" d="M72.6 30.7c.1-.2.1-.2.2-.3 0-.1.1-.1.1-.2l.4-.4c.2-.1.2-.2.3-.2.1-.1.2-.1.4-.2s.2-.1.3-.1h.8c.3 0 .5-.3.5-.5 0-.3-.2-.5-.5-.5-.7 0-1.4.2-2 .6-.6.4-1.1 1-1.4 1.7-.1.3.1.6.4.6.2 0 .4-.2.5-.5z"/>
    <path class="st3" d="M72.4 29.9c.4.6.4.7.4.8 0 .2 0 .3-.1.4-.2.4-.1.7.1.9.3.1.6.1.7-.2.6-.9.3-2.2-.7-2.8-.2-.1-.6-.1-.7.2-.1.2 0 .5.3.7zm-25.3 6c1.3 0 2.6-.9 3-2.1.1-.3-.1-.6-.4-.6-.3-.1-.5.1-.6.4-.1.1-.1.2-.1.3 0 .1-.1.1-.1.2-.1.1-.1.2-.2.2l-.1.1-.1.1c-.2.1-.3.2-.4.2-.1.1-.2.1-.3.1-.1 0-.3 0-.4.1h-.3c-.3 0-.5.2-.5.5s.2.5.5.5z"/>
    <path style="opacity:.58;fill:#a46e4b" d="m59.6 41.8 8.7-2.2-7.9 5.9z"/>
    <path d="M54.3 27.8c0 .8-.4 1.4-1 1.4s-1-.6-1-1.4c0-.8.4-1.4 1-1.4s1 .6 1 1.4z" style="fill:#010101"/>
    <path class="st0" d="M68.9 21.6c-.7.6-2.6.3-2.3 1.2.9 3.6 2.5 2.9 3.1 4 .6 1.2-.2 2.9-1.6 3.1 1-.2 2.1.4 3-.1.7-.3 1-1.2 1-2s-.2-1.5-.2-2.3c0-1.4.7-2.8 1.8-3.7l-4.8-.2z"/>
    <path d="M64.3 20.6c-1-.5-1.6-1.5-1.5-2.6.1-.6.4-1.1.7-1.6.5-.7 1-1.4 1.6-2-.2 0-.4.1-.6.1.3.2.3.6.3.9 0 .6-.2 1.1-.3 1.7l-.9 3.9c.2-.2.4-.3.7-.4-.3-.1-.6-.1-.7.2-.1.2-.1.6.2.7.3.1.7 0 .8-.3.3-1.5.7-3.1 1-4.6.2-1 .5-2.5-.6-3.1-.2-.1-.5-.1-.6.1-.7.7-1.3 1.5-1.9 2.3-.4.6-.7 1.3-.8 2.1-.1 1.5.8 2.8 2.1 3.5.6.3 1.1-.6.5-.9z" style="fill:#8ca3c4"/>
    <path class="st0" d="M62.5 1.1c3.2 0 6.9.1 9.5 2.4 1.3 1.1 2.2 2.6 3.7 3.4 1.5.8 3.3 1 5 1.3 1.6.4 3 1.1 4.2 2.3 1.2 1.3 1.7 2.8 2 4.5.3 1.7.7 3.3 1.8 4.7 1 1.2 2.3 2.1 3.6 2.9 1.5 1 3 1.8 4.2 3.2 1.1 1.3 1.8 3.1 1 4.7-.3.6.6 1.1.9.5 1.6-3.2-1.1-6.5-3.6-8.2-1.4-.9-2.8-1.7-4.1-2.7-1.3-1.1-2.2-2.4-2.5-4.1-.4-1.8-.6-3.6-1.6-5.2-.9-1.4-2.2-2.5-3.7-3.1-1.7-.7-3.5-.8-5.2-1.3-.9-.3-1.7-.7-2.4-1.3-.7-.4-1.3-1.1-1.9-1.7C72 2 70.4 1 68.4.6c-1.9-.5-4-.5-5.9-.6-.7 0-.7 1 0 1.1zM48.9 5.7c-1.8 1.7-3.2 3.9-4.1 6.2-.4 1.2-.7 2.4-.9 3.6-.2 1.4-.1 2.8-.5 4.2-.6 2.4-2.6 4-4.3 5.7-1.7 1.7-3 3.8-3.6 6.1-.7 2.6-.7 5.5.3 8.1.2.6 1.2.4 1-.3-1.6-4.5-.4-9.6 2.9-13 1.6-1.6 3.5-3.1 4.4-5.3.5-1.2.6-2.6.7-3.9.1-1.3.3-2.5.6-3.7.8-2.7 2.3-5.1 4.3-7 .5-.4-.3-1.2-.8-.7zm2.8 17.4c-.2.4.4.9.8.8.5-.1.9-.4 1.3-.6.8-.4 1.8-.3 2.6.3-.4-1-1.3-1.8-2.4-2-1.1-.2-2.2.3-2.9 1.1l.6.4z"/>
    <path d="M59.7 32.1c0 1.6-1.3 2.9-2.9 2.9-1.6 0-2.9-1.3-2.9-2.9 0-1.6 1.3-2.9 2.9-2.9 1.6 0 2.9 1.3 2.9 2.9z" style="opacity:.11;fill:#92603a"/>
    <path class="st8" d="M48.5 15.4c-1-3.3.1-7 2.7-9.3.5-.5-.2-1.2-.7-.7-2.9 2.5-4.1 6.7-3 10.3.2.6 1.2.3 1-.3zm1.4-2.1c1.3 1.1 2.8 2.3 4.6 2.5.8.1 1.7-.1 2.5-.2.8-.2 1.7-.3 2.4.2.5.4 1.1-.5.5-.9-1.4-1-3.1-.1-4.7-.1-1.8 0-3.3-1.2-4.5-2.3-.6-.4-1.3.4-.8.8zm7.7-1.1c.9.4 2 .7 3 .6.3 0 .5-.2.5-.5s-.2-.5-.5-.5h-.7c-.4 0-.5-.1-.6-.1-.2 0-.4-.1-.6-.2-.1 0-.2-.1-.3-.1-.1-.1-.2-.1-.2-.1-.2-.1-.6-.1-.7.2-.2.2-.2.5.1.7zm11.6 1c3.7-.2 7.3 2.1 9.1 5.3.4.8.8 1.7.9 2.6.2 1 .2 2 .5 2.9.3 1 .9 1.7 1.8 2.2.9.5 1.9.8 2.8 1.4 1.8 1.1 3.4 2.8 3.6 4.9.1.7 1.1.7 1.1 0-.2-2-1.3-3.8-2.9-5-.8-.7-1.7-1.2-2.7-1.6-1-.4-2-.8-2.4-1.8-.4-1-.4-2.1-.6-3.1-.2-.9-.5-1.8-.9-2.7-.9-1.7-2.2-3.2-3.9-4.3-1.8-1.2-4-1.9-6.2-1.8-.9 0-.9 1-.2 1zm13.7 4.4c0 2.6 1.6 5.1 4 6.2.3.1.6.1.7-.2.1-.2.1-.6-.2-.7-2.1-.9-3.5-3-3.4-5.3-.1-.7-1.1-.7-1.1 0zm-6.4-7.2c.1 0 .1.1.2.1s.2.1.3.1l.6.3c.3.2.6.5.9.8.3.3.5.6.8 1 .1.2.2.4.3.5.1.2.1.3.2.6s.4.4.6.4c.3-.1.5-.4.4-.6-.7-1.9-2.2-3.5-4-4.2-.3-.1-.6.1-.6.4-.2.3 0 .5.3.6zm-1.3 1.1c.5.2 1 .5 1.5.9l.2.2.3.3.6.6c.2.2.6.2.7 0 .2-.2.2-.5 0-.7-.8-.9-1.7-1.6-2.8-2.1-.3-.1-.6-.1-.7.2-.1.1-.1.5.2.6zm5.2 18.9.2.2c.2.2.3.4.3.5.1.2.1.3.1.4 0 .1.1.3.1.5v.6c0 .3-.1.4-.1.6-.1.2-.1.3-.2.4-.1.3-.1.6.2.7.2.1.6.1.7-.2.8-1.4.5-3.2-.6-4.3-.2-.2-.5-.2-.7 0-.2 0-.2.4 0 .6zm2.4 0c.1.1.1.2.2.4 0 .1.1.2.1.3.1.3.2.5.2.8 0 .1.1.3.1.4v1.1c0 .3.2.5.5.5s.5-.2.5-.5c0-1.2-.3-2.4-.8-3.5-.1-.2-.5-.3-.7-.2-.2.2-.2.5-.1.7zM44.3 17.9c1 2 .4 4.5-1.2 5.9-.5.5.2 1.2.7.7 2-1.8 2.5-4.8 1.3-7.2-.2-.5-1.1 0-.8.6zm1.6 7c-.1.5-.3 1.1-.4 1.6-.1.3.1.6.4.6.3.1.6-.1.6-.4.1-.5.3-1.1.4-1.6.1-.3-.1-.6-.4-.6-.3 0-.6.2-.6.4zM39 32.3c-1.4 1.7-1.5 4.2-.1 6 .2.2.6.2.7 0 .2-.2.2-.5 0-.7-1-1.3-.9-3.3.1-4.5.2-.2.2-.5 0-.7-.1-.3-.5-.3-.7-.1zm1.4 2.9c.1.5.2 1.1.2 1.6 0 .1.1.3.2.3.1.1.3.1.4.1.1 0 .3-.1.3-.2.1-.1.1-.3.1-.4-.1-.5-.2-1.1-.2-1.6 0-.1-.1-.3-.2-.3-.1-.1-.3-.1-.4-.1-.1 0-.3.1-.3.2-.1.2-.1.3-.1.4zM57 5.2c1.9-.7 4-1.2 6-.8 1.6.3 3.1 1.3 3.9 2.8.3.6 1.2.1.9-.5-.9-1.7-2.6-2.8-4.4-3.2-2.2-.5-4.6 0-6.7.8-.6.1-.3 1.2.3.9zm5 4.1c1.4-.2 2.9.5 3.7 1.6.2.2.5.3.7.2.2-.1.3-.5.2-.7-1-1.5-2.8-2.4-4.6-2.2-.3 0-.5.2-.5.5s.2.6.5.6zm5.7-4.4c.2 0 .4.1.6.2.3.1.4.2.5.2.2.1.3.2.5.3.2.1.3.3.4.5.1.1.1.1.1.2.1.1.1.2.2.3.1.1.1.2.2.3 0 .1 0 .1.1.2.2.4.2.8.2 1.2 0 .7 1.1.7 1.1 0 0-2-1.5-3.9-3.5-4.4-.3-.1-.6.1-.6.4-.2.3-.1.6.2.6zm.5 11.5c-.8 2.3.1 5 2.2 6.3.6.4 1.1-.5.5-.9-1.7-1.1-2.4-3.3-1.7-5.1.1-.3-.1-.6-.4-.6-.3-.1-.5 0-.6.3zm2.5 1.8c0 .4.2.9.4 1.2.1.2.3.3.4.5.2.2.4.3.7.4.1 0 .3 0 .4-.1.1-.1.2-.2.2-.3 0-.1 0-.3-.1-.4-.1-.1-.2-.2-.3-.2-.1 0-.2-.1-.3-.2l-.2-.2s-.1-.2-.2-.3c0 0 0-.2-.1-.3 0-.3-.2-.6-.5-.5-.2-.1-.4.2-.4.4z"/>
    <path class="st3" d="M18.8 73c.8.1 1.7.4 2.4.8.4.2.7.5 1 .7.2.2.7.6.7.9-.1 1.4-4.4-.7-5-1-.2.3-.4.6-.5.9 1.1.5 2.3 1.5 2.8 2.7 0 .1 0 .2.1.2-.1 0-.4-.1-.5-.1-.3-.1-.7-.2-1-.4-.7-.3-1.3-.7-1.9-1.2-.2.3-.4.6-.6.8 1 .8 1.8 1.8 2.3 3 .1-.2.2-.4.4-.6-1.1.2-2.1 0-3-.7-.6-.4-1.1.5-.5.9.5.3.9.7 1.3 1.2l.6.6c.2.2.3.5.5.7 0-.1-.1-.1-.1-.1h-.4c-.3 0-.6-.1-.8-.2-.6-.2-1.2-.4-1.7-.8-.6-.4-1.1.6-.5.9.7.5 1.5.8 2.4 1 .7.1 1.7.4 2.1-.4.4-.8-.4-1.6-.9-2.1-.6-.7-1.2-1.2-1.9-1.8-.2.3-.4.6-.5.9 1.1.8 2.5 1 3.8.8.3-.1.5-.4.4-.6-.6-1.4-1.5-2.7-2.7-3.6-.5-.4-1.1.4-.6.8.8.7 1.7 1.2 2.6 1.6.7.3 2.2.9 2.5-.3.2-.9-.6-1.8-1.1-2.4-.6-.7-1.4-1.3-2.3-1.7-.6-.3-1.1.6-.5.9 1.2.6 2.4 1.1 3.7 1.5 1 .3 2.6.2 2.8-1.1.2-1.1-1-2.1-1.9-2.6-1-.7-2.1-1-3.3-1.2-.8 0-.8 1-.2 1.1z"/>
    <path class="st3" d="M18.1 82.7c.7-.2 1.5-.2 2.2-.1.3.1.7.2 1 .3.2.1.4.2.5.3.1 0 .2.1.3.2.1.1 0 0 0 0 0-.1 0-.2.1-.3.2-.1.3-.1.4-.2.1 0 .2.1.3.2v.3c0 .1-.1.1-.1.2-.1 0-.1.1-.2.1.2.1.4-.2.4-.5s-.2-.5-.5-.5c-.5-.1-.7.5-.5.9.2.3.6.5.9.3.4-.3.4-.8.1-1.1-.2-.3-.6-.5-.9-.6-1.3-.6-2.8-.8-4.2-.4-.8 0-.5 1 .2.9zm5.2-7.4c-.4 1-.5 2.2-.4 3.3.1.5.2 1 .4 1.5.1.2.2.5.3.7 0 .1 0 .2.1.2 0 0 .1-.1.2-.1-.6.2-.4 1.2.3 1 .6-.2.7-.8.5-1.3-.1-.3-.2-.5-.3-.7-.1-.3-.2-.6-.3-.8-.3-1.2-.2-2.4.2-3.5.1-.3-.1-.6-.4-.6-.2-.2-.4 0-.6.3zm20.4 11.4c1.2 1.6 1.6 3.6 1.2 5.5-.1.7.9.9 1 .3.5-2.2 0-4.5-1.3-6.3-.2-.2-.5-.3-.7-.2-.2.2-.3.5-.2.7zm40.2 21c.4-.8.9-1.5 1.3-2.3.1-.2.1-.6-.2-.7-.3-.1-.6-.1-.7.2-.4.8-.9 1.5-1.3 2.3-.1.2-.1.6.2.7.3.1.6 0 .7-.2zm2.1 1.4c.7-.8 1.2-1.7 1.5-2.7.1-.3-.1-.6-.4-.6-.3-.1-.6.1-.6.4 0 .1-.1.2-.1.3 0 .1 0 .1-.1.2-.1.3-.2.5-.3.7l-.3.6c-.1.1-.1.2-.2.3l-.1.1c-.1.2-.2.3-.2.4 0 .1.1.3.2.4 0 .1.4.1.6-.1zm2.9 1.5c.3-.7.6-1.4.9-2 .1-.1.1-.3.1-.4 0-.1-.1-.3-.2-.3-.2-.1-.6-.1-.7.2-.3.7-.6 1.4-.9 2-.1.1-.1.3-.1.4 0 .1.1.3.2.3.2.1.5 0 .7-.2z"/>
    <path class="st3" d="M84.4 105.3c1.9 1.4 3.9 2.8 5.8 4.2.2.2.6 0 .7-.2.2-.3 0-.6-.2-.7-1.9-1.4-3.9-2.8-5.8-4.2-.2-.2-.6 0-.7.2-.2.2-.1.5.2.7zm16.5-22.4c1.5-.7 3.2-1 4.8-.6.3.1.6-.1.6-.4.1-.3-.1-.6-.4-.6-1.9-.4-3.9-.1-5.6.7-.5.3 0 1.2.6.9z"/>
    <path class="st8" d="M33.5 214c-3.6-1.5-8.9 2.9-12.6 1.5-1.4-.5-2.3-1.9-2.7-3.3-.4-1.4-.3-2.9-.2-4.4-.8.1-1.7.2-2.5.4-.1 1.3-.3 2.6-.4 4-4.1-1.5-8.7-1.8-12.9-.9-1.1.2-2.5 1-2.2 2.1.1.4.4.7.7 1 3.7 3.2 8.8 3.7 13.3 5.5 4.3 1.7 11.8 5.4 15.4 2.6 3-2.2 4.1-8.5 4.1-8.5zm117.2-54.6c-.7 3.8 4.8 8.1 4.3 11.9-.2 1.5-1.3 2.7-2.6 3.3-1.3.7-3.2.9-4.7 1.2l.9 2.4c1.3-.2 3.1-.3 4.4-.5-.6 4.3.1 8.8 2 12.8.5 1 1.5 2.2 2.5 1.7.4-.2.6-.6.8-.9 2.3-4.3 1.7-9.4 2.4-14.2.7-4.6 2.7-12.7-.9-15.6-2.7-2.4-9.1-2.1-9.1-2.1z"/>
    <path class="st0" d="M60.5 58.1c3.8-4.2 8.7-7.3 14-9.1 1.5-.5 3.1-.9 4.7-1.2.7-.1.4-1.1-.3-1-5.7 1.1-11.1 3.6-15.6 7.2-1.3 1-2.5 2.2-3.6 3.4-.4.5.3 1.2.8.7zm-5.9 49.6c6.9-.2 13.7-.7 20.6-1.4 1.9-.2 3.9-.4 5.8-.7.3 0 .5-.2.5-.5s-.2-.6-.5-.5c-6.8.9-13.7 1.5-20.5 1.9-1.9.1-3.9.2-5.8.2-.8-.1-.8 1-.1 1zm17.8-50.2c2.5 7.4 5.6 14.7 10.2 21 1.3 1.8 2.7 3.5 4.2 5.1.5.5 1.2-.3.7-.7-5.3-5.6-9-12.4-11.9-19.5-.8-2-1.6-4.1-2.3-6.2-.1-.6-1.1-.3-.9.3zm17.7 23c1.3-2.5 2.9-4.7 4.6-6.9 1.7-2.2 3.3-4.4 4.6-6.9.3-.6-.6-1.1-.9-.5-1.3 2.5-2.9 4.7-4.6 6.9-1.7 2.2-3.3 4.4-4.6 6.9-.3.6.6 1.2.9.5z"/>
    <path class="st0" d="M73.9 105.5c.1 1.3-.1 2.6-.4 3.9-.3 1.2-.5 2.4-.6 3.7-.2 2.2.2 4.5 1.6 6.3.6.8 1.5 1.7 2.6 1.5.9-.1 1.4-.9 1.5-1.8.1-1-.4-2-.7-2.9-.4-1.1-.8-2.2-.8-3.4 0-1.3.4-2.6.2-4-.2-1.3-1-2.4-1.8-3.4-.4-.5-1.3 0-.9.5 1.9 3 4 6.1 7 8.1.7.4 1.5.7 2.3.4.8-.3 1.1-1.2.8-2-.5-1.6-2.1-2.6-3.5-3.4-2.1-1.2-4.2-2.4-6.3-3.7-.6-.3-1.1.6-.5.9 1.6.9 3.2 1.8 4.8 2.8 1.3.8 2.8 1.5 3.8 2.6.3.4 1.1 1.3.6 1.8-.5.5-1.4-.2-1.8-.5-1.2-.9-2.3-2-3.3-3.2-1.1-1.4-2.1-2.8-3-4.3-.3.2-.6.4-.9.5.6.8 1.2 1.6 1.5 2.6.3 1 .2 2.1 0 3.1-.1 1-.1 2 .2 3.1.3 1 .7 2 1 3 .2.5.5 1.5 0 2-.6.7-1.7-.6-2.1-1.1-1.2-1.6-1.4-3.6-1.3-5.5.2-2.5 1.2-5 1-7.6 0-.7-1.1-.7-1 0z"/>
    <path class="st0" d="M74.4 107.1c3.3 2.2 3.4 6.7 4.3 10.1.9 3.7 2.8 7 5.1 10 1.3 1.7 2.7 3.3 4.1 5 .4.5 1.2-.2.7-.7-2.5-2.9-5-5.8-6.8-9.2-.9-1.7-1.6-3.4-2-5.3-.5-2-.7-4.1-1.4-6.1-.6-1.8-1.7-3.6-3.4-4.7-.6-.4-1.2.5-.6.9z"/>
    <path class="st0" d="M77.6 112c3.3 2.5 3.8 7.1 5.6 10.6.9 1.7 2.1 3.3 3.8 4.2 2.1 1.1 4.4.7 6.7.9 2.4.2 4.5 1.5 5.5 3.7.3.6 1.2.1.9-.5-.8-1.9-2.5-3.4-4.5-3.9-2.3-.7-4.8 0-7.1-.7-4-1.2-5.2-6.1-6.5-9.5-.9-2.2-2-4.3-3.9-5.8-.6-.3-1.1.6-.5 1zm-19.2-5.1c-1.2 3.1-1 6.5-1.7 9.7-.3 1.5-.8 3-1.8 4.2-1 1.2-2.3 2.1-3.6 3-1.3 1-2.5 2-3.2 3.5-.8 1.6-.9 3.4-1 5.1-.1 1.6-.1 3.2-.4 4.8-.3 1.5-.7 3-1.3 4.4-1.3 3.1-3.5 5.8-6.7 7.2-.6.3-.1 1.2.5.9 5.8-2.6 8.5-9.2 8.8-15.2.1-1.8.1-3.6.5-5.4.4-1.6 1.4-2.9 2.7-4 1.2-1 2.6-1.9 3.8-3 1.2-1.1 1.9-2.5 2.4-4.1 1.1-3.6.6-7.4 2-10.9.3-.5-.8-.8-1-.2zm-.8 20.2c-2 1.1-2.9 3.3-3 5.5-.2 2.7 1 5.3 1.7 7.9.8 2.8.9 5.8-.3 8.5-1.1 2.6-3.3 4.5-4.5 7-1 2.2-1.1 5.3.9 7 .5.4 1.3-.3.7-.7-1.7-1.4-1.6-3.9-.8-5.7 1.1-2.4 3.1-4.3 4.3-6.7 1.2-2.5 1.5-5.2 1-7.9s-1.8-5.2-2.1-7.9c-.2-2.2.3-4.9 2.5-6.1.7-.3.2-1.2-.4-.9zm10.1 3.3c-.6 2.2-1.2 4.4-1 6.7.2 1.9.9 3.8 2.4 5.1 1.5 1.2 3.3 1.8 4.9 2.8 1.6.9 2.6 2.4 3.2 4.1.6 1.9.5 4 0 5.9-.2.7.8.9 1 .3.9-3.3.5-7.4-2-9.9-1.3-1.4-3.1-2-4.8-2.9-.9-.4-1.7-1-2.3-1.7-.6-.7-1-1.7-1.2-2.6-.6-2.5.1-5 .8-7.4.2-.8-.8-1.1-1-.4zm14.6 7.7c.2 1.8 1 3.6 2.4 4.8 1.6 1.4 3.7 1.8 5.7 2.3 2.1.5 4.3 1 6.3 1.7 1.9.7 3.8 1.6 5.2 3.1 1.4 1.5 2.3 3.7 1.7 5.8-.2.7.8.9 1 .3.5-1.8 0-3.8-.9-5.4-1-1.7-2.6-2.9-4.4-3.8-1.9-.9-4-1.5-6-2.1-1.2-.3-2.3-.6-3.5-.8-1.1-.2-2.1-.5-3.1-1-1.9-.9-3.1-2.8-3.3-4.9-.1-.7-1.2-.7-1.1 0zm19.9-8.8c.8 3.4 1.7 7 4.1 9.6 1.2 1.3 2.8 2.1 4.3 2.9 1.6.8 3.2 1.6 4.3 3 1.2 1.6 1.7 3.7 1.2 5.6-.2.7.9.9 1 .3.4-1.8.2-3.6-.6-5.3-.8-1.6-2.2-2.8-3.8-3.7-1.6-.9-3.3-1.6-4.7-2.7-1.4-1.1-2.4-2.6-3.1-4.2-.8-1.9-1.3-3.9-1.8-5.9 0-.6-1-.3-.9.4zM53.6 90.5c4.6-3.7 10.9-3.7 16.6-3.7.7 0 .7-1 0-1.1-6 0-12.4 0-17.3 4-.6.5.2 1.2.7.8zm3.8 1.1c1.5-.3 3.1-.6 4.6-.7.3 0 .5-.2.5-.5s-.2-.5-.5-.5c-1.7.1-3.3.3-4.9.7-.3.1-.4.4-.4.6.1.3.4.5.7.4zm19.1-39.2c.8-1.8 2.4-3.1 4.2-3.8.3-.1.4-.4.4-.6-.1-.3-.4-.5-.6-.4-2.1.7-3.9 2.3-4.8 4.3-.1.3-.1.6.2.7.1.1.5.1.6-.2z"/>
</svg>
