<svg xmlns="http://www.w3.org/2000/svg" xmlns:xlink="http://www.w3.org/1999/xlink" width="200" height="217.8" style="overflow:visible;enable-background:new 0 0 200 217.8" xml:space="preserve">
    <style>
        .st3{fill:#a46e4a}.st5{fill:#fbd1b9}.st6{fill:#1a1a1a}.st7{fill:#fff}.st8{fill:#7f4e33}.st10{clip-path:url(#SVGID_6_)}.st12{fill:#4f657f}.st13{fill:#ed6b55}
    </style>
    <defs>
        <circle id="SVGID_1_" cx="100" cy="100" r="100"/>
    </defs>
    <clipPath id="SVGID_2_">
        <use xlink:href="#SVGID_1_" style="overflow:visible"/>
    </clipPath>
    <circle cx="100" cy="100" r="100" style="clip-path:url(#SVGID_2_);fill:#cca6c3"/>
    <g style="clip-path:url(#SVGID_2_)">
        <path d="M74.5 64.9c-3.7-.5-7.4-1.5-10.3-3.9-2.8-2.4-4.5-6.5-3-10 2-4.7 8.2-5.7 13.3-5.7 19.4-.2 39.3 2.6 56.3 11.9 4.2 2.3 8.3 5.1 10.7 9.2 2.4 4.2 2.4 9.9-1 13.3-4.1 4.1-10.9 2.9-16.5 1.3-16.1-4.5-31.9-10-47.3-16.5l-2.2.4z" style="fill:#724328"/>
        <path class="st3" d="M76.5 103.1C81 115 89.6 126 101.6 130.3c3 1.1 6.3 1.7 9.5 1.4 7.2-.7 13.2-6.4 15.8-13.1 2.6-6.7 2.2-14.3.4-21.3l-50.8 5.8zM81.3 48.3c-.3-1.6-1.6-2.8-2.9-3.9-1.1-.9-2.3-1.8-3.4-2.8 3.1.2 6.2 1.5 8.4 3.7.8-3.1 3.4-5.7 6.6-6.2-2.5 1.7-2.7 5.8-.4 7.8l-8.3 1.4z"/>
        <defs>
            <path id="SVGID_3_" d="M155.3 168.3c-10.4-6.9-22.9-9.7-35.1-12.2-.7-.1-1.5-.3-2.1-.8-1-.8 1.3-27.8 0-39.6l-17.4 1.6-17.4-1.6c-1.3 11.8 1 38.8 0 39.6-.6.5-1.4.6-2.1.8-12.2 2.5-24.7 5.2-35.1 12.2-10.4 6.9-18.2 19-16.5 31.4 10.4-.1 39.4.1 68.8.5v.1h4.8v-.1c29.4-.4 58.4-.6 68.8-.5 1.5-12.4-6.4-24.5-16.7-31.4z"/>
        </defs>
        <use xlink:href="#SVGID_3_" style="overflow:visible;fill:#fbd1b9"/>
        <clipPath id="SVGID_4_">
            <use xlink:href="#SVGID_3_" style="overflow:visible"/>
        </clipPath>
        <path d="M60 115.4c6.9-4.4 7.2-6.6 7.5-4.4 1.6 10.4 18.1 35.6 33.1 35.6 19.4 0 30.7-32.8 32.5-41.1-22.5 3.2-45.2 6.4-67.7 3.7.6.6 1.2 1.2 1.9 1.8l-7.3 4.4z" style="clip-path:url(#SVGID_4_);fill:#dba78a"/>
        <path class="st5" d="M74.7 58.1c-4 13.5-3 37.3 0 51.1v.2c1.6 7.4 4.3 14.8 9.2 20.6 4.9 5.8 12.5 9.7 20 8.6 7.3-1 13.4-6.4 16.9-12.8 3.5-6.4 4.9-13.8 5.9-21.1 1.7-12.7 1.3-46.3.1-46.4-15.6-1.3-36.8-4.5-52.1-.6v.4z"/>
        <path class="st5" d="M126.2 99.5c.4-2.8 3.7-4.5 6.4-3.7s4.5 3.6 4.7 6.4c.2 2.8-.9 5.6-2.5 7.9-2.7 3.8-7.4 6.8-11.9 5.6.7-5.8 1.8-11.5 3.1-17.2l.2 1zM75.2 99.5c-.4-2.8-3.7-4.5-6.4-3.7-2.7.8-4.5 3.6-4.7 6.4-.2 2.8.9 5.6 2.5 7.9 2.7 3.8 7.4 6.8 11.9 5.6-.7-5.8-1.8-11.5-3.1-17.2l-.2 1z"/>
        <path class="st3" d="M126.9 96.8c-.6-6-1.3-12.1-1.9-18.1-10.5-2.3-20.5-7.1-28.9-13.9 2.3 6.3 8.6 8.9 13.9 12.9-9.2-3.3-19.8-5.9-26.4-13.1 1.1 5.6 6.3 8.2 10.2 12.4-6.3-3-14.4-4.7-19-10C76 77 76 87.1 75 97c-2.6-.6-6.3-1.2-6.3-1.2-.6-1.4-1.6-24.1-.7-31.9.5-4.8 1.5-9.7 4.5-13.4 3.1-3.7 8.9-5.5 12.8-2.7 4-4.1 9.6-6.4 15.4-7.1 5.7-.7 11.5.2 17 1.8 4.2 1.2 8.5 2.9 11.5 6.1 5.1 5.4 5.5 13.5 5.3 20.9-.2 9-1 18-2.4 26.9-1.6-.4-3.2-.3-4.7.4h-.5zM128.7 107.8c1.4-2.6 3.1-4.9 5.3-6.9.3-.3.3-.9 0-1.2-.3-.3-.9-.3-1.2 0-2.3 2-4.2 4.5-5.6 7.2-.2.4-.1.9.3 1.2.5.2 1 .1 1.2-.3z"/>
        <path class="st3" d="m130.5 103.4 1.2 5.4c.1.4.6.7 1 .6.5-.1.7-.6.6-1l-1.2-5.4c-.1-.4-.6-.7-1-.6-.4.1-.7.5-.6 1zM67.5 102.5c2 2.4 3.9 4.8 5.9 7.2.3.4.9.3 1.2 0 .3-.3.3-.8 0-1.2-2-2.4-3.9-4.8-5.9-7.2-.3-.4-.9-.3-1.2 0-.4.3-.3.8 0 1.2z"/>
        <path class="st3" d="M69.1 108.7c.8-.4 1.7-.9 2.5-1.3.4-.2.5-.8.3-1.2-.3-.4-.7-.5-1.2-.3-.8.4-1.7.9-2.5 1.3-.4.2-.5.8-.3 1.2.3.4.8.5 1.2.3z"/>
        <ellipse class="st6" cx="87.7" cy="94.5" rx="3" ry="4.1"/>
        <ellipse class="st6" cx="115.1" cy="94.5" rx="3" ry="4.1"/>
        <path class="st7" d="M100.3 121.8c3.1.6 7.9-4.9 8.6-7.3.2.4-16.7.4-16.6 0 0 .1 4.7 6.7 8 7.3z"/>
        <path class="st3" d="M100.1 122.6c2.3.4 4.3-1.2 5.9-2.6 1.5-1.4 3.1-3.2 3.8-5.2h-1.6c-.1-.9.4-.9.5-1h-.1s.2 0 0 0h-.3c-.4 0-.8.1-1.2.1-1.3 0-2.6.1-3.9.1-2.8 0-5.7 0-8.5-.1-.5 0-1 0-1.6-.1h-.5c.4 0 .1 0 0 0 .2.2.7 0 .6.8-.5.1-1 .3-1.6.4.9 1.3 1.9 2.5 3 3.6 1.4 1.6 3.3 3.6 5.5 4 1.1.2 1.5-1.4.4-1.6-2-.4-3.6-2.3-4.9-3.7-.9-1-1.8-2.1-2.6-3.2-.5-.7-1.5-.4-1.6.4-.1 1.1 1.5 1 2.2 1 1.4.1 2.8.1 4.2.1 3.1 0 6.3 0 9.4-.1.9 0 2.7.1 2.5-1.2-.1-.9-1.4-.7-1.6 0-.5 1.6-1.9 3.1-3.1 4.2-1.1 1-2.9 2.7-4.5 2.4-1-.1-1.5 1.6-.4 1.7z"/>
        <path class="st8" d="M84.8 48.9c.1 4.4 1.1 8.6 2.8 12.6.2.4.8.5 1.2.3.4-.2.5-.7.3-1.2-1.6-3.7-2.4-7.7-2.6-11.8-.1-1-1.7-1-1.7.1zM90.5 55.5c6.4 5.5 13.5 10.1 21.1 13.6 2.2 1 4.4 1.9 6.7 2.8 1 .4 1.5-1.3.4-1.6-9.9-3.6-19-9-27-15.9-.8-.8-2 .4-1.2 1.1zM106.8 61.5c5.8 4.1 12.6 6.6 19.6 7.4 1.1.1 1.1-1.6 0-1.7-6.8-.8-13.2-3.3-18.8-7.2-.8-.6-1.7.9-.8 1.5zM117 60.6c4.9 2 10 3.2 15.2 3.7 1.1.1 1.1-1.6 0-1.7-5.1-.4-10.1-1.7-14.8-3.6-1-.5-1.4 1.2-.4 1.6zM72.3 59.2c-.8 3.3-1.3 6.7-1.5 10.1-.1 1.1 1.6 1.1 1.7 0 .2-3.3.7-6.5 1.5-9.7.2-1-1.4-1.4-1.7-.4zM77.4 58.5c-.1 1.7-.3 3.4-.4 5.1 0 .4.4.9.8.8.5 0 .8-.4.8-.8.1-1.7.3-3.4.4-5.1 0-.4-.4-.9-.8-.8-.4 0-.8.3-.8.8zM89.8 81.4c.8.8.4 2.3-.5 3.1-.9.7-2.1.9-3.3 1.1-1.8.2-3.5.5-5.3.7 2.3-2.7 5.1-5.6 8.7-5.6l.4.7zM110.7 81.8c-.9.9-.4 2.4.7 3 1 .6 2.4.6 3.7.7h6c-2.7-2.4-6-5-10-4.6l-.4.9z"/>
        <path d="M135.5 159.7c-8.1 11.1-20 15.4-33.9 14.9v-.1c-.3 0-.6 0-.9.1-.3 0-.6 0-.9-.1v.1c-13.8.5-25.1-3.8-33.2-14.9 0 0-42.3 8.1-37.9 42.2 0 .2 35 .5 71.1.8h1.8c36.1-.2 71.1-.5 71.1-.8 3-33.5-37.2-42.2-37.2-42.2z" style="fill:#8ca3c3"/>
        <defs>
            <path id="SVGID_5_" d="M135.5 159.7c-8.1 11.1-20 15.4-33.9 14.9v-.1c-.3 0-.6 0-.9.1-.3 0-.6 0-.9-.1v.1c-13.8.5-25.1-3.8-33.2-14.9 0 0-42.3 8.1-37.9 42.2 0 .2 35 .5 71.1.8h1.8c36.1-.2 71.1-.5 71.1-.8 3.6-33.5-37.2-42.2-37.2-42.2z"/>
        </defs>
        <clipPath id="SVGID_6_">
            <use xlink:href="#SVGID_5_" style="overflow:visible"/>
        </clipPath>
        <g class="st10">
            <path class="st7" d="M40.9 168.3c8.8 1.6 17.6 3.3 26.5 4.5 8.8 1.2 17.6 2 26.5 2.2 17.8.5 35.7-.4 53.4-2.2 9.9-1 19.7-2.3 29.5-3.9 1.1-.2.6-1.8-.4-1.6-17.4 2.9-35 4.7-52.7 5.6-17.6.9-35.4.9-52.9-1.3-9.9-1.3-19.7-3.1-29.4-4.9-1.1-.2-1.5 1.4-.5 1.6z"/>
        </g>
        <g class="st10">
            <path class="st7" d="M30.2 179.1c20.5 3.5 41.2 4.5 62 4.3 20.8-.2 41.6-1.5 62.4-2.7 11.9-.7 23.7-1.3 35.6-2 1.1-.1 1.1-1.7 0-1.7-21 1.2-42 2.4-63 3.4-20.6 1-41.2 1.8-61.8.7-11.6-.6-23.2-1.8-34.7-3.8-1.1-.1-1.6 1.6-.5 1.8z"/>
        </g>
        <g class="st10">
            <path class="st7" d="M24.5 193.2c4.5 2.1 9.5 2.9 14.4 3.2 5.4.4 10.8.3 16.1.4 11.2.1 22.5.1 33.7-.1 11.2-.2 22.5-.5 33.7-.9 11.2-.5 22.4-1.1 33.6-1.8 11.2-.7 22.4-1.6 33.6-2.7 1.4-.1 2.8-.3 4.2-.4 1.1-.1 1.1-1.8 0-1.7-22.3 2.1-44.6 3.7-66.9 4.7-22.2 1-44.5 1.4-66.7 1.3-6.1 0-12.2 0-18.3-.3-5.6-.2-11.4-.8-16.6-3.2-.9-.4-1.8 1-.8 1.5z"/>
        </g>
        <path d="M58.1 156.6c8 15.8 25.7 26.3 43.6 25.8 17.9-.5 35-11.9 42.2-28-28.2 3.6-55.7 4-85.1 1l-.7 1.2z" style="clip-path:url(#SVGID_6_);fill:#4f657f"/>
        <g class="st10">
            <path class="st12" d="M149.4 182.5c.9 9.3.4 18.8-1.5 27.9-.2 1.1 1.4 1.5 1.6.4 1.9-9.3 2.5-18.9 1.6-28.4-.1-1-1.8-1-1.7.1z"/>
        </g>
        <g class="st10">
            <path class="st12" d="M48.1 183c.3 9.6 2.8 19 7.2 27.5 1.3 2.4 2.7 4.7 4.2 6.9.6.9 2.1 0 1.5-.9-5.4-7.6-9-16.4-10.5-25.7-.4-2.6-.7-5.3-.8-8 0-.9-1.6-.9-1.6.2z"/>
        </g>
        <path class="st13" d="M85 107.1c-6.2 0-11.2-5-11.2-11.2 0-6.2 5-11.2 11.2-11.2s11.2 5 11.2 11.2c0 6.1-5.1 11.2-11.2 11.2zm0-21.3c-5.6 0-10.1 4.5-10.1 10.1S79.4 106 85 106s10.1-4.5 10.1-10.1C95 90.3 90.5 85.8 85 85.8zM114.4 107.1c-6.2 0-11.2-5-11.2-11.2 0-6.2 5-11.2 11.2-11.2 6.2 0 11.2 5 11.2 11.2 0 6.1-5.1 11.2-11.2 11.2zm0-21.3c-5.6 0-10.1 4.5-10.1 10.1s4.5 10.1 10.1 10.1 10.1-4.5 10.1-10.1c-.1-5.6-4.6-10.1-10.1-10.1z"/>
        <path class="st13" d="M96.7 96.3c.8-.9 2-1.3 3.2-1.2 1.1.1 2.1.8 2.7 1.8.6.9 2 .1 1.5-.9-.9-1.4-2.3-2.4-4-2.6-1.6-.2-3.3.5-4.4 1.7-.3.3-.3.9 0 1.2.1.3.7.3 1 0z"/>
        <path class="st3" d="M102.7 101.5c-2.5-.8-5.1-1.5-7.6-2.3-.4-.1-.7.1-1 .4-1.3 1.8-.4 4 .8 5.5 1.3 1.7 2.9 3 4.6 4.3l.9.6c.1.1.2.1.3.2l.1.1c-.1 0-.2-.2-.3-.3 0-.3.1-.7.1-1-.8.8.4 2 1.2 1.2.3-.3.3-.7.1-1-.1-.3-.8-.6-1.1-.9-.7-.5-1.1-.8-1.8-1.4-.8-.6-1.5-1.3-2.2-2.1-.3-.4-.6-.7-.8-1.1-.1-.2-.3-.4-.4-.6-.1-.1-.1-.2-.2-.3-.1-.2 0-.1-.1-.2-.1-.2-.1-.4-.2-.7v-.7c0-.1.1-.2.1-.3 0-.1-.1.1 0 0 0-.1.1-.1.1-.2.1-.1.1-.2.2-.3-.3.1-.6.3-1 .4 2.5.8 5.1 1.5 7.6 2.3 1.2.3 1.6-1.3.6-1.6z"/>
        <path d="M62.2 50.3c2.4-6.8 11.1-8.4 16.8-12.7 3.5-2.7 9.8-12.5 12.7-15.7 9.1-10.2 20.2-8.7 33.4-5.1 3.4.9 6.7 2.4 9.2 4.8 1.9 1.9 3.2 4.3 4.1 6.8 2.2 6.4 1.7 13.5.7 20.2-.3 2.1-.7 4.3-.3 6.4.6 3.5 3.2 6.2 4.7 9.4 2.2 4.6 1.9 10.3-.7 14.7-3.8-9.4-14.4-13.7-24.1-16.7C101.5 57.1 84 53 66.3 50l-4.1.3z" style="fill:#f5e6df"/>
        <path class="st8" d="M79 39.3c16.1 2.6 31.9 6.8 47.1 12.5 4.4 1.6 8.7 3.4 12.9 5.3 1 .4 1.8-1 .9-1.5-15-6.7-30.7-11.9-46.7-15.4-4.5-1-9.1-1.9-13.7-2.6-1.1-.1-1.5 1.6-.5 1.7z"/>
    </g>
</svg>
