<svg version="1.1" id="圖層_1" xmlns="http://www.w3.org/2000/svg" x="0" y="0" viewBox="0 0 369.8 234.2" style="enable-background:new 0 0 369.8 234.2" xml:space="preserve">
    <style>
        .st0{fill:#ed1c24}
    </style>
    <path class="st0" d="M58.6 117.1h287c13.4 0 24.2-10.8 24.2-24.2V24.2C369.8 10.8 359 0 345.6 0H24.2C10.8 0 0 10.8 0 24.2v68.7c0 13.4 10.8 24.2 24.2 24.2h19.1"/>
    <path d="M33.6 15.4v3h6v4.2H38c-.4 1.8-.9 3.6-1.4 5.3h3.6v4.3h-6.8v2.6h6.4v4.3h-5.7c2 1.5 3.9 3 5.4 4.4L37 47.4c-1.2-1.4-2.4-2.7-3.6-3.9v9.8h-4v-9c-.2.3-.3.4-.4.6-1.9 2.4-3.5 4.2-4.8 5.1l-2.1-3.9c1.3-.9 2.7-2.2 4.1-4 .8-1 1.4-2 2-3.1h-5v-4.3h6v-2.6h-6.7v-4.3h3.6c-.2-1.8-.5-3.6-.7-5.3h-2.2v-4.2h5.7v-3h4.7v.1zm-.9 12.5c.5-1.7 1-3.5 1.4-5.3h-4.6c.3 1.7.6 3.4.9 5.3h2.3zm23.2-8.2c-3 1.1-6.4 1.9-10.2 2.5v5.9h10.8v4.3h-2.9v21h-4.2v-21h-3.7c-.1 6.3-.5 10.9-1.2 13.7-.8 2.9-1.9 5.3-3.3 7.3l-3.4-3.2c1.1-1.6 2-3.6 2.6-6.1.8-2.8 1.2-8.3 1.2-16.5v-9.4c4.9-.6 9-1.6 12.1-2.8l2.2 4.3zm27.3-4.3v14.5h14.3v4.7H86.9v11.2c0 1 .3 1.5.8 1.7.6.3 1.5.5 2.5.5s1.7 0 2-.2c.4-.1.8-.3 1-.6.3-.4.5-2 .6-4.6l4.3 2.1c-.2 1.9-.5 3.7-1 5.5-.3 1.1-1 1.7-2 2-1.1.3-2.8.4-5 .4-2.5 0-4-.2-4.5-.5-2.2-.2-3.2-1.7-3.2-4.6V34.6h-5.1c-.6 5.2-1.7 9.2-3.3 12-2 3.2-4.7 5.5-8.1 6.8L64 48.6c2.8-1.1 5-2.9 6.5-5.5 1.1-1.8 1.8-4.7 2.3-8.4h-8.1V30h14.2V15.4h4.3zm-7.1 10.9-4.3 2.8c-1.1-2.8-2.6-5.5-4.4-8.1l4-2.8c1.9 2.6 3.5 5.3 4.7 8.1zM95 21.4c-1.8 3.4-3.6 6-5.5 7.9L86 25.8c2-2.2 3.7-4.5 5-7.1l4 2.7zm29.4-6v10.9c1.1 4.2 2.5 7.8 4.1 10.8 2.3 4.5 6 8.6 11.2 12.1l-3.9 4.1c-4-3.1-7-6.3-9.1-9.9-1.5-2.4-2.8-5.2-3.9-8.4-.8 2.4-1.9 4.7-3.3 6.8-3 4.7-6.8 8.4-11.4 11.4l-2.5-4.5c5-3.4 8.7-7.1 11.1-11.3 2.2-4 3.3-8.2 3.3-12.6v-9.5h4.4v.1zm56.5 22.8v3.4h-4.7v1h4.1v3.6h-4.1V48c0 2.1-.3 3.5-1 4.1-.7.8-2 1.1-3.7 1.1-.7 0-1.4-.1-1.9-.3l-.4-3-3.3 2c-.6-1.4-1.4-2.6-2.3-3.9l2.4-1.6h-3.3v-3.6h9.6v-1h-24.8v-3.4h33.4v-.2zm-.3-12.9V32h-4.4v-3.3h-28.6v-3.4h33zm-18.7-8.5v-1.5h4.1v1.5h13.8v3.4H166v1h12.3v3.3h-27.9v-3.3h11.5v-1h-13.3v-3.4h13.3zm13.4 12.8v3.3h-9.7V34h12.5v3.3h-29V34h12.2v-1.2h-10.6v-3.3l24.6.1zm-13.6 21.6h-8.6v1.5h-3.8v-10h12.4v8.5zm-3.8-3.4v-1.6h-4.7v1.6h4.7zm11.2 1.7-.2-1c.8.5 1.7.7 2.5.7.5 0 .7-.6.7-2v-.8H167c.9 1 1.6 2.1 2.1 3.1zm38.8-34.4v2.5h14.2v9h-4.3V22h-14.5l2.4.8c-.3.4-.6.8-.9 1.1h12.4v3.9c-2.3 2.1-4.7 4-7 5.5.6.3 1.2.5 1.9.6 2.2.8 5.9 1.6 11.1 2.4l-1.9 4.6c-1.2-.2-2.3-.4-3.4-.6v12.8h-4.3v-1.5h-15.8v1.5h-4.3V40.9c-1.3.3-2.6.6-3.8.8l-1.5-4.4c4.2-.8 8.4-2 12.3-3.7-1.3-.8-2.5-1.8-3.5-2.7-1.3.9-2.7 1.7-4.1 2.4l-2.2-4.6c4.5-2.1 7.9-4.4 10-6.7h-6.9v4.6h-4.3v-9h13.7v-2.5h4.7zm5.6 32.3v-3.9h-15.8v3.9h15.8zm-.6-8.1c-.7-.2-1.4-.4-2-.6-2-.6-3.9-1.4-5.7-2.3-.2.1-.3.2-.4.2-2.1 1.1-4.1 1.9-6.1 2.7h14.2zm-8-8.2c.2.1.3.2.4.2 1.9-1 3.6-2.1 5.1-3.4h-9.6l-.3.3c1.3 1 2.8 1.9 4.4 2.9zm39.5-14.8v31.2c0 3.6-1.5 5.4-4.6 5.4h-2.2l-.9-4.6c.8.2 1.6.3 2.4.3.9 0 1.3-1 1.3-2.9v-5.8h-4.3c-.1 2.7-.3 5.1-.6 7.4-.4 2.3-.9 4.3-1.7 6.1l-4-1.6c.7-1.8 1.3-3.9 1.7-6.4.5-2.4.7-5.5.7-9.3V16.3h12.2zm-3.9 10v-5.6h-4.3v5.6h4.3zm0 9.3v-5.1h-4.3v5.1h4.3zm10.3 17.8h-4.3V16.3h16.1c-.1 6.8-.7 10.8-1.9 11.9-.8.8-1.9 1.2-3.3 1.2-1.1 0-2.4-.1-3.7-.3l-.9-4.5c1.3.3 2.6.3 3.9.3.5 0 .7-.1.8-.3.2-.5.5-1.8.7-3.9h-7.4V31h13v3.3c-1 4.6-2.2 8.2-3.6 10.8 1.4 1.4 2.9 2.8 4.7 3.9l-3.1 4.3c-1.5-1.3-2.9-2.8-4.2-4.3-1.5 1.9-3.3 3.4-5.1 4.3l-1.8-3.8.1 3.9zm0-16.9v12.2c1.6-.8 2.9-2 4.2-3.4-1.7-2.5-3.1-5.4-4.2-8.8zm6.5 4.9c.8-1.8 1.5-3.8 2-6h-5.1c1 2.3 2 4.3 3.1 6zm38.5.3v-1.3h4.3v1.3h5.5v3.9h-5.5V48c0 2.2-.4 3.6-1.2 4.2-.9.8-2.3 1.2-4.4 1.2-1.2 0-2.3-.2-3.3-.5l-.8-4.6c1.3.5 2.6.8 4 .8.9 0 1.3-.6 1.3-2v-1.5h-12.1c1.3.8 2.5 1.7 3.6 2.6l-2.8 3.9c-1.7-1.8-3.6-3.2-5.4-4.4l1.8-2.1h-8.3v-3.9h23.3zm-9.2-24.8v-1.5h4.1v1.5H305V21h-14.3v1h11.8v13h-.7c1.1 1.3 2 2.7 2.7 4.1l-3.4 2.1c-.3-.6-.7-1.2-1.1-1.8-7.4.8-16 1.2-26 1.3l-.6-3.9c4.6 0 9 0 13-.2V35h-11.5V22h11.5v-1h-13.3v-4.1h13.5zm0 9.9v-1.2h-7.4v1.2h7.4zm0 4.6v-1.1h-7.4v1.1h7.4zm4.2-4.6h7.7v-1.2h-7.7v1.2zm0 4.6h7.7v-1.1h-7.7v1.1zm6.3 4.1.7-.5h-7.1v1.5c2.4-.1 4.8-.2 7-.3-.2-.3-.4-.5-.6-.7zm25.5-18.6c-1.4 2.9-2.6 5.5-3.9 7.7.5.3.8.7 1.2 1 1-2.1 2-4.2 2.8-6.2l4.2 2c-1.3 2.6-2.5 4.9-3.7 7l2.8-.9c.9 2.7 1.7 5.7 2.2 8.9l-3.9 1.3c-.1-.5-.2-1.1-.2-1.6-.5.1-1.1.2-1.5.2V53h-4V36.7c-1.5.2-3.1.3-4.6.5l-.8-4.5c1 0 1.9-.1 2.8-.1.6-.9 1.1-1.9 1.6-2.8-1.7-1.4-3.3-2.9-5-4.4l2.5-3.4c.1.1.2.2.3.2 1.2-2.4 2.3-4.7 3.1-7.1l4.1 1.8zm-4.3 23.2c-.5 4.1-.9 7.5-1.3 10.2l-3.9-1.3c.6-3.3 1-6.6 1.4-9.8l3.8.9zm4.4-10.8c-.6 1.1-1.2 2.1-1.7 3 .8 0 1.7-.1 2.5-.2-.3-1-.6-2-.8-2.8zm15.6-13.2c-.2.8-.5 1.6-.8 2.3h8.9v16.2h-6.6v3.5c.2.3.4.7.6 1 1.6-.8 3.2-1.8 4.8-3.2l2.5 3.7c-1.5 1.2-3.1 2.1-4.7 2.9 1.5 1.8 3.3 3.2 5.3 4.2l-2.2 4.6c-1.6-.9-3.1-2.2-4.6-3.8-.6-.6-1.2-1.4-1.7-2.2v1.9c0 2.2-.3 3.7-.8 4.5-.7.9-1.9 1.4-3.6 1.4-1.2 0-2.3-.3-3.4-.8l-.5-3.1c-.9 1-1.9 1.8-2.9 2.6l-2.4-3.7c.1 0 .2-.1.3-.2l-1.9.6c-.3-3.2-.7-6.1-1.3-8.7l3.6-1.1c.6 2.4 1.1 5 1.5 7.8.9-.8 1.7-1.6 2.4-2.6.8-1 1.4-2.1 1.9-3h-4.6v-4.1h7.7v-2.1h-7.1V18.4h4.6c.3-1.1.6-2.2.8-3.3l4.2 1zm-3.9 29.3c-.7 1.1-1.4 2-2.1 2.9.8.3 1.6.5 2.4.5.3 0 .6-.2.7-.5.1-.5.2-1.2.2-2.1v-2.9c-.4.7-.8 1.5-1.2 2.1zm7.8-20.9v-2h-9.6v2h9.6zm0 6.1v-2.1h-9.6v2.1h9.6zM44 93.2c-1.7 3.4-4.5 5.1-8.2 5.1s-6.5-1.7-8.2-5.1c-1.4-2.6-2.1-6.2-2.1-10.5s.7-7.9 2.1-10.6c1.7-3.5 4.5-5.2 8.2-5.2s6.5 1.7 8.2 5.2c1.4 2.7 2.1 6.3 2.1 10.6 0 4.4-.7 7.9-2.1 10.5zM35.8 72c-3.4 0-5.1 3.6-5.1 10.6 0 6.9 1.7 10.4 5.1 10.4s5.1-3.5 5.1-10.4c0-7-1.7-10.6-5.1-10.6zm36.3 23.9c-1.9 1.6-4.3 2.3-7.2 2.3-2.9 0-5.2-.8-7.1-2.4-2.1-1.7-3.1-4.1-3.1-7.2 0-2.7 1.1-4.9 3.3-6.6-1.9-1.6-2.9-3.6-2.9-6.2 0-2.8 1-5.1 3-6.8 1.8-1.5 4-2.2 6.7-2.2s4.9.7 6.8 2.2c2 1.6 3 3.9 3 6.8 0 2.6-.9 4.6-2.8 6.2 2.2 1.6 3.3 3.9 3.3 6.6.1 3.2-1 5.6-3 7.3zm-7.2-11.3c-3.3 0-4.9 1.4-4.9 4 0 1.5.5 2.6 1.5 3.3.9.7 2.1 1 3.5 1s2.5-.3 3.5-1S70 90 70 88.6c-.1-2.6-1.8-4-5.1-4zM68 72.9c-.8-.5-1.8-.9-3.1-.9s-2.3.3-3.1.9c-.9.7-1.4 1.6-1.4 2.9 0 2.4 1.5 3.6 4.5 3.6s4.6-1.2 4.6-3.6c0-1.2-.5-2.2-1.5-2.9zm34.3 20.3c-1.7 3.4-4.5 5.1-8.2 5.1s-6.5-1.7-8.2-5.1c-1.4-2.6-2.1-6.2-2.1-10.5s.7-7.9 2.1-10.6c1.7-3.5 4.5-5.2 8.2-5.2s6.5 1.7 8.2 5.2c1.4 2.7 2.1 6.3 2.1 10.6 0 4.4-.7 7.9-2.1 10.5zM94.2 72c-3.4 0-5.1 3.6-5.1 10.6 0 6.9 1.7 10.4 5.1 10.4s5.1-3.5 5.1-10.4c-.1-7-1.8-10.6-5.1-10.6zm37.3 21.2c-1.7 3.4-4.5 5.1-8.2 5.1s-6.5-1.7-8.2-5.1c-1.4-2.6-2.1-6.2-2.1-10.5s.7-7.9 2.1-10.6c1.7-3.5 4.5-5.2 8.2-5.2s6.5 1.7 8.2 5.2c1.4 2.7 2.1 6.3 2.1 10.6 0 4.4-.7 7.9-2.1 10.5zM123.3 72c-3.4 0-5.1 3.6-5.1 10.6 0 6.9 1.7 10.4 5.1 10.4s5.1-3.5 5.1-10.4c0-7-1.7-10.6-5.1-10.6zm18.4 18v-5.8H152V90h-10.3zm36.8 3.2c-1.7 3.4-4.5 5.1-8.2 5.1s-6.5-1.7-8.2-5.1c-1.4-2.6-2.1-6.2-2.1-10.5s.7-7.9 2.1-10.6c1.7-3.5 4.5-5.2 8.2-5.2s6.5 1.7 8.2 5.2c1.4 2.7 2.1 6.3 2.1 10.6 0 4.4-.7 7.9-2.1 10.5zM170.3 72c-3.4 0-5.1 3.6-5.1 10.6 0 6.9 1.7 10.4 5.1 10.4 3.4 0 5.1-3.5 5.1-10.4 0-7-1.7-10.6-5.1-10.6zm36.1 23.9c-1.9 1.6-4.3 2.4-7 2.4-6.5 0-9.7-3.5-9.9-10.5h5.3c0 1.9.4 3.2 1.1 4.1.7.8 1.8 1.2 3.4 1.2 1.3 0 2.5-.4 3.4-1.1 1-.8 1.5-2 1.5-3.3s-.6-2.4-1.7-3.1c-.9-.5-2.1-.9-3.5-.9-.3 0-1.1.1-2.3.3v-5.7c1 .1 1.9.2 2.7.2 1.2 0 2.3-.3 3.1-.9.9-.7 1.4-1.6 1.4-2.9 0-1.2-.5-2.1-1.4-2.7-.8-.5-1.9-.8-3-.8-1.6 0-2.7.4-3.3 1.2-.6.7-.9 1.9-1 3.7H190c.1-6.7 3.2-10 9.2-10 2.8 0 5.1.7 6.9 2 2.1 1.6 3.1 3.8 3.1 6.7 0 2.6-1 4.7-3 6.3 2.2 1.8 3.4 4.1 3.4 7-.1 2.7-1.1 5-3.2 6.8zm21.9 1.7V75.7c-1.1.8-2.5 1.6-4.4 2.4v-6c2.5-1.2 4.4-2.8 6-4.7h3.5v30.2h-5.1zM247 90v-5.8h10.3V90H247zm28.3 7.6V75.7c-1.1.8-2.5 1.6-4.4 2.4v-6c2.5-1.2 4.4-2.8 6-4.7h3.5v30.2h-5.1zm29.2 0V75.7c-1.1.8-2.5 1.6-4.4 2.4v-6c2.5-1.2 4.4-2.8 6-4.7h3.5v30.2h-5.1zm36.6-2.5c-1.8 2.1-4.1 3.2-7 3.2-6.2 0-9.5-3.3-9.7-10h5.2c.2 1.7.6 2.9 1.2 3.6.6.8 1.6 1.1 3.1 1.1 1.4 0 2.5-.5 3.4-1.7.7-1 1.2-2.3 1.2-4 0-1.6-.4-2.8-1.2-3.7-.8-.9-1.9-1.4-3.2-1.4-2.2 0-3.6 1.4-4.3 4.1H325l.8-18.8h16.6v5.1h-11.8l-.2 5.3c1.3-.7 2.7-1.1 4.2-1.1 2.7 0 4.9 1 6.6 3 1.6 2 2.5 4.6 2.5 7.6 0 3.1-.9 5.7-2.6 7.7zM58.6 234.2h287c13.4 0 24.2-10.8 24.2-24.2v-68.7c0-13.4-10.8-24.2-24.2-24.2H24.2C10.8 117.1 0 127.9 0 141.3V210c0 13.4 10.8 24.2 24.2 24.2h19.1" style="fill:#fff"/>
    <path class="st0" d="M33.6 132.5v3h6v4.2H38c-.4 1.8-.9 3.6-1.4 5.3h3.6v4.3h-6.8v2.6h6.4v4.3h-5.7c2 1.5 3.9 3 5.4 4.4l-2.5 3.9c-1.2-1.4-2.4-2.7-3.6-3.9v9.8h-4v-9c-.2.3-.3.4-.4.6-1.9 2.4-3.5 4.2-4.8 5.1l-2.1-3.9c1.3-.9 2.7-2.2 4.1-4 .8-1 1.4-2 2-3.1h-5v-4.3h6v-2.6h-6.7v-4.3h3.6c-.2-1.8-.5-3.6-.7-5.3h-2.2v-4.2h5.7v-3h4.7v.1zm-.9 12.5c.5-1.7 1-3.5 1.4-5.3h-4.6c.3 1.7.6 3.4.9 5.3h2.3zm23.2-8.2c-3 1.1-6.4 1.9-10.2 2.5v5.9h10.8v4.3h-2.9v21h-4.2v-21h-3.7c-.1 6.3-.5 10.9-1.2 13.7-.8 2.9-1.9 5.3-3.3 7.3l-3.4-3.2c1.1-1.6 2-3.6 2.6-6.1.8-2.8 1.2-8.3 1.2-16.5v-9.4c4.9-.6 9-1.6 12.1-2.8l2.2 4.3zm27.3-4.3V147h14.3v4.7H86.9v11.2c0 1 .3 1.5.8 1.7.6.3 1.5.5 2.5.5s1.7 0 2-.2c.4-.1.8-.3 1-.6.3-.4.5-2 .6-4.6l4.3 2.1c-.2 1.9-.5 3.7-1 5.5-.3 1.1-1 1.7-2 2-1.1.3-2.8.4-5 .4-2.5 0-4-.2-4.5-.5-2.2-.2-3.2-1.7-3.2-4.6v-12.9h-5.1c-.6 5.2-1.7 9.2-3.3 12-2 3.2-4.7 5.5-8.1 6.8l-1.9-4.8c2.8-1.1 5-2.9 6.5-5.5 1.1-1.8 1.8-4.7 2.3-8.4h-8.1v-4.7h14.2v-14.6h4.3zm-7.1 10.9-4.3 2.8c-1.1-2.8-2.6-5.5-4.4-8.1l4-2.8c1.9 2.6 3.5 5.3 4.7 8.1zm18.9-4.9c-1.8 3.4-3.6 6-5.5 7.9l-3.5-3.5c2-2.2 3.7-4.5 5-7.1l4 2.7zm29.4-6v10.9c1.1 4.2 2.5 7.8 4.1 10.8 2.3 4.5 6 8.6 11.2 12.1l-3.9 4.1c-4-3.1-7-6.3-9.1-9.9-1.5-2.4-2.8-5.2-3.9-8.4-.8 2.4-1.9 4.7-3.3 6.8-3 4.7-6.8 8.4-11.4 11.4l-2.5-4.5c5-3.4 8.7-7.1 11.1-11.3 2.2-4 3.3-8.2 3.3-12.6v-9.5h4.4v.1zm56.5 22.8v3.4h-4.7v1h4.1v3.6h-4.1v1.8c0 2.1-.3 3.5-1 4.1-.7.8-2 1.1-3.7 1.1-.7 0-1.4-.1-1.9-.3l-.4-3-3.3 2c-.6-1.4-1.4-2.6-2.3-3.9l2.4-1.6h-3.3v-3.6h9.6v-1h-24.8v-3.4h33.4v-.2zm-.3-12.9v6.7h-4.4v-3.3h-28.6v-3.4h33zm-18.7-8.5v-1.5h4.1v1.5h13.8v3.4H166v1h12.3v3.3h-27.9v-3.3h11.5v-1h-13.3v-3.4h13.3zm13.4 12.8v3.3h-9.7v1.1h12.5v3.3h-29v-3.3h12.2v-1.2h-10.6v-3.3h24.6v.1zm-13.6 21.6h-8.6v1.5h-3.8v-10h12.4v8.5zm-3.8-3.4v-1.6h-4.7v1.6h4.7zm11.2 1.7-.2-1c.8.5 1.7.7 2.5.7.5 0 .7-.6.7-2v-.8H167c.9 1 1.6 2.1 2.1 3.1zm38.8-34.4v2.5h14.2v9h-4.3v-4.6h-14.5l2.4.8c-.3.4-.6.8-.9 1.1h12.4v3.9c-2.3 2.1-4.7 4-7 5.5.6.3 1.2.5 1.9.6 2.2.8 5.9 1.6 11.1 2.4l-1.9 4.6c-1.2-.2-2.3-.4-3.4-.6v12.8h-4.3v-1.5h-15.8v1.5h-4.3V158c-1.3.3-2.6.6-3.8.8l-1.5-4.4c4.2-.8 8.4-2 12.3-3.7-1.3-.8-2.5-1.8-3.5-2.7-1.3.9-2.7 1.7-4.1 2.4l-2.2-4.6c4.5-2.1 7.9-4.4 10-6.7h-6.9v4.6h-4.3v-9h13.7v-2.5h4.7zm5.6 32.3v-3.9h-15.8v3.9h15.8zm-.6-8.1c-.7-.2-1.4-.4-2-.6-2-.6-3.9-1.4-5.7-2.3-.2.1-.3.2-.4.2-2.1 1.1-4.1 1.9-6.1 2.7h14.2zm-8-8.2c.2.1.3.2.4.2 1.9-1 3.6-2.1 5.1-3.4h-9.6l-.3.3c1.3 1 2.8 1.9 4.4 2.9zm39.5-14.8v31.2c0 3.6-1.5 5.4-4.6 5.4h-2.2l-.9-4.6c.8.2 1.6.3 2.4.3.9 0 1.3-1 1.3-2.9V157h-4.3c-.1 2.7-.3 5.1-.6 7.4-.4 2.3-.9 4.3-1.7 6.1l-4-1.6c.7-1.8 1.3-3.9 1.7-6.4.5-2.4.7-5.5.7-9.3v-19.8h12.2zm-3.9 10v-5.6h-4.3v5.6h4.3zm0 9.3v-5.1h-4.3v5.1h4.3zm10.3 17.8h-4.3v-37.1h16.1c-.1 6.8-.7 10.8-1.9 11.9-.8.8-1.9 1.2-3.3 1.2-1.1 0-2.4-.1-3.7-.3l-.9-4.5c1.3.3 2.6.3 3.9.3.5 0 .7-.1.8-.3.2-.5.5-1.8.7-3.9h-7.4v10.3h13v3.3c-1 4.6-2.2 8.2-3.6 10.8 1.4 1.4 2.9 2.8 4.7 3.9l-3.1 4.3c-1.5-1.3-2.9-2.8-4.2-4.3-1.5 1.9-3.3 3.4-5.1 4.3l-1.8-3.8.1 3.9zm0-16.9v12.2c1.6-.8 2.9-2 4.2-3.4-1.7-2.5-3.1-5.4-4.2-8.8zm6.5 4.9c.8-1.8 1.5-3.8 2-6h-5.1c1 2.3 2 4.3 3.1 6zm38.5.3v-1.3h4.3v1.3h5.5v3.9h-5.5v2.4c0 2.2-.4 3.6-1.2 4.2-.9.8-2.3 1.2-4.4 1.2-1.2 0-2.3-.2-3.3-.5l-.8-4.6c1.3.5 2.6.8 4 .8.9 0 1.3-.6 1.3-2v-1.5h-12.1c1.3.8 2.5 1.7 3.6 2.6l-2.8 3.9c-1.7-1.8-3.6-3.2-5.4-4.4l1.8-2.1h-8.3v-3.9h23.3zm-9.2-24.8v-1.5h4.1v1.5H305v4.1h-14.3v1h11.8v13h-.7c1.1 1.3 2 2.7 2.7 4.1l-3.4 2.1c-.3-.6-.7-1.2-1.1-1.8-7.4.8-16 1.2-26 1.3l-.6-3.9c4.6 0 9 0 13-.2v-1.6h-11.5v-13h11.5v-1h-13.3V134h13.5zm0 9.9v-1.2h-7.4v1.2h7.4zm0 4.6v-1.1h-7.4v1.1h7.4zm4.2-4.6h7.7v-1.2h-7.7v1.2zm0 4.6h7.7v-1.1h-7.7v1.1zm6.3 4.1.7-.5h-7.1v1.5c2.4-.1 4.8-.2 7-.3-.2-.3-.4-.5-.6-.7zm25.5-18.6c-1.4 2.9-2.6 5.5-3.9 7.7.5.3.8.7 1.2 1 1-2.1 2-4.2 2.8-6.2l4.2 2c-1.3 2.6-2.5 4.9-3.7 7l2.8-.9c.9 2.7 1.7 5.7 2.2 8.9l-3.9 1.3c-.1-.5-.2-1.1-.2-1.6-.5.1-1.1.2-1.5.2v16.7h-4v-16.3c-1.5.2-3.1.3-4.6.5l-.8-4.5c1 0 1.9-.1 2.8-.1.6-.9 1.1-1.9 1.6-2.8-1.7-1.4-3.3-2.9-5-4.4l2.5-3.4c.1.1.2.2.3.2 1.2-2.4 2.3-4.7 3.1-7.1l4.1 1.8zm-4.3 23.2c-.5 4.1-.9 7.5-1.3 10.2l-3.9-1.3c.6-3.3 1-6.6 1.4-9.8l3.8.9zm4.4-10.8c-.6 1.1-1.2 2.1-1.7 3 .8 0 1.7-.1 2.5-.2-.3-1-.6-2-.8-2.8zm15.6-13.2c-.2.8-.5 1.6-.8 2.3h8.9v16.2h-6.6v3.5c.2.3.4.7.6 1 1.6-.8 3.2-1.8 4.8-3.2l2.5 3.7c-1.5 1.2-3.1 2.1-4.7 2.9 1.5 1.8 3.3 3.2 5.3 4.2l-2.2 4.6c-1.6-.9-3.1-2.2-4.6-3.8-.6-.6-1.2-1.4-1.7-2.2v1.9c0 2.2-.3 3.7-.8 4.5-.7.9-1.9 1.4-3.6 1.4-1.2 0-2.3-.3-3.4-.8l-.5-3.1c-.9 1-1.9 1.8-2.9 2.6l-2.4-3.7c.1 0 .2-.1.3-.2l-1.9.6c-.3-3.2-.7-6.1-1.3-8.7l3.6-1.1c.6 2.4 1.1 5 1.5 7.8.9-.8 1.7-1.6 2.4-2.6.8-1 1.4-2.1 1.9-3h-4.6v-4.1h7.7v-2.1h-7.1v-16.3h4.6c.3-1.1.6-2.2.8-3.3l4.2 1zm-3.9 29.3c-.7 1.1-1.4 2-2.1 2.9.8.3 1.6.5 2.4.5.3 0 .6-.2.7-.5.1-.5.2-1.2.2-2.1v-2.9c-.4.7-.8 1.5-1.2 2.1zm7.8-20.9v-2h-9.6v2h9.6zm0 6.1v-2.1h-9.6v2.1h9.6zM44 210.3c-1.7 3.4-4.5 5.1-8.2 5.1s-6.5-1.7-8.2-5.1c-1.4-2.6-2.1-6.2-2.1-10.5s.7-7.9 2.1-10.6c1.7-3.5 4.5-5.2 8.2-5.2s6.5 1.7 8.2 5.2c1.4 2.7 2.1 6.3 2.1 10.6 0 4.4-.7 7.9-2.1 10.5zm-8.2-21.2c-3.4 0-5.1 3.6-5.1 10.6 0 6.9 1.7 10.4 5.1 10.4s5.1-3.5 5.1-10.4c0-7-1.7-10.6-5.1-10.6zM72.1 213c-1.9 1.6-4.3 2.3-7.2 2.3-2.9 0-5.2-.8-7.1-2.4-2.1-1.7-3.1-4.1-3.1-7.2 0-2.7 1.1-4.9 3.3-6.6-1.9-1.6-2.9-3.6-2.9-6.2 0-2.8 1-5.1 3-6.8 1.8-1.5 4-2.2 6.7-2.2s4.9.7 6.8 2.2c2 1.6 3 3.9 3 6.8 0 2.6-.9 4.6-2.8 6.2 2.2 1.6 3.3 3.9 3.3 6.6.1 3.2-1 5.6-3 7.3zm-7.2-11.3c-3.3 0-4.9 1.4-4.9 4 0 1.5.5 2.6 1.5 3.3.9.7 2.1 1 3.5 1s2.5-.3 3.5-1 1.5-1.9 1.5-3.3c-.1-2.6-1.8-4-5.1-4zM68 190c-.8-.5-1.8-.9-3.1-.9s-2.3.3-3.1.9c-.9.7-1.4 1.6-1.4 2.9 0 2.4 1.5 3.6 4.5 3.6s4.6-1.2 4.6-3.6c0-1.2-.5-2.2-1.5-2.9zm34.3 20.3c-1.7 3.4-4.5 5.1-8.2 5.1s-6.5-1.7-8.2-5.1c-1.4-2.6-2.1-6.2-2.1-10.5s.7-7.9 2.1-10.6c1.7-3.5 4.5-5.2 8.2-5.2s6.5 1.7 8.2 5.2c1.4 2.7 2.1 6.3 2.1 10.6 0 4.4-.7 7.9-2.1 10.5zm-8.1-21.2c-3.4 0-5.1 3.6-5.1 10.6 0 6.9 1.7 10.4 5.1 10.4s5.1-3.5 5.1-10.4c-.1-7-1.8-10.6-5.1-10.6zm37.3 21.2c-1.7 3.4-4.5 5.1-8.2 5.1s-6.5-1.7-8.2-5.1c-1.4-2.6-2.1-6.2-2.1-10.5s.7-7.9 2.1-10.6c1.7-3.5 4.5-5.2 8.2-5.2s6.5 1.7 8.2 5.2c1.4 2.7 2.1 6.3 2.1 10.6 0 4.4-.7 7.9-2.1 10.5zm-8.2-21.2c-3.4 0-5.1 3.6-5.1 10.6 0 6.9 1.7 10.4 5.1 10.4s5.1-3.5 5.1-10.4c0-7-1.7-10.6-5.1-10.6zm18.4 18v-5.8H152v5.8h-10.3zm36.8 3.2c-1.7 3.4-4.5 5.1-8.2 5.1s-6.5-1.7-8.2-5.1c-1.4-2.6-2.1-6.2-2.1-10.5s.7-7.9 2.1-10.6c1.7-3.5 4.5-5.2 8.2-5.2s6.5 1.7 8.2 5.2c1.4 2.7 2.1 6.3 2.1 10.6 0 4.4-.7 7.9-2.1 10.5zm-8.2-21.2c-3.4 0-5.1 3.6-5.1 10.6 0 6.9 1.7 10.4 5.1 10.4 3.4 0 5.1-3.5 5.1-10.4 0-7-1.7-10.6-5.1-10.6zm36.1 23.9c-1.9 1.6-4.3 2.4-7 2.4-6.5 0-9.7-3.5-9.9-10.5h5.3c0 1.9.4 3.2 1.1 4.1.7.8 1.8 1.2 3.4 1.2 1.3 0 2.5-.4 3.4-1.1 1-.8 1.5-2 1.5-3.3s-.6-2.4-1.7-3.1c-.9-.5-2.1-.9-3.5-.9-.3 0-1.1.1-2.3.3v-5.7c1 .1 1.9.2 2.7.2 1.2 0 2.3-.3 3.1-.9.9-.7 1.4-1.6 1.4-2.9 0-1.2-.5-2.1-1.4-2.7-.8-.5-1.9-.8-3-.8-1.6 0-2.7.4-3.3 1.2-.6.7-.9 1.9-1 3.7H190c.1-6.7 3.2-10 9.2-10 2.8 0 5.1.7 6.9 2 2.1 1.6 3.1 3.8 3.1 6.7 0 2.6-1 4.7-3 6.3 2.2 1.8 3.4 4.1 3.4 7-.1 2.7-1.1 5-3.2 6.8zm21.9 1.7v-21.9c-1.1.8-2.5 1.6-4.4 2.4v-6c2.5-1.2 4.4-2.8 6-4.7h3.5v30.2h-5.1zm18.7-7.6v-5.8h10.3v5.8H247zm28.3 7.6v-21.9c-1.1.8-2.5 1.6-4.4 2.4v-6c2.5-1.2 4.4-2.8 6-4.7h3.5v30.2h-5.1zm29.2 0v-21.9c-1.1.8-2.5 1.6-4.4 2.4v-6c2.5-1.2 4.4-2.8 6-4.7h3.5v30.2h-5.1zm36.6-2.5c-1.8 2.1-4.1 3.2-7 3.2-6.2 0-9.5-3.3-9.7-10h5.2c.2 1.7.6 2.9 1.2 3.6.6.8 1.6 1.1 3.1 1.1 1.4 0 2.5-.5 3.4-1.7.7-1 1.2-2.3 1.2-4 0-1.6-.4-2.8-1.2-3.7-.8-.9-1.9-1.4-3.2-1.4-2.2 0-3.6 1.4-4.3 4.1H325l.8-18.8h16.6v5.1h-11.8l-.2 5.3c1.3-.7 2.7-1.1 4.2-1.1 2.7 0 4.9 1 6.6 3 1.6 2 2.5 4.6 2.5 7.6 0 3.1-.9 5.7-2.6 7.7z"/>
</svg>
