<svg xmlns="http://www.w3.org/2000/svg" width="166.6" height="330.3" style="overflow:visible;enable-background:new 0 0 166.6 330.3" xml:space="preserve">
    <style>
        .st3{fill:#f5a372}.st4{fill:#7f4a23}.st6{fill:#db4345}.st7{fill:#87c2a8}.st8{fill:#32674f}.st12{fill:#9a653e}.st13{fill:#8c2a30}.st14{fill:#331e0f}
    </style>
    <path d="M62.8 12.9c1.5-3.1 3.7-5.9 6.3-8.3 1.6-1.5 3.5-2.8 5.6-3.6 3.8-1.5 8.2-1.3 11.9.5 3.6 1.9 6.4 5.3 7.4 9.3.7 2.8.6 5.7.2 8.5-10.1-3.8-20.7-7.6-31.4-6.6v.2z" style="fill:#8aa2c2"/>
    <path d="M65.1 7.1c9.5-.7 19.4-1.2 28.2 2.4.3.1.7.3.9.6.2.3.3.7.3 1.1 0 1.1.1 2.2.1 3.4-10.1-3.3-21-3.2-31.6-3.1.8-1.4 1.7-2.8 2.5-4.2l-.4-.2z" style="fill:#f39e1e"/>
    <path d="M55.7 265.1c.2 3-1.5 5.7-3.1 8.3-1.6 2.6-3.1 5.5-2.6 8.4.5 2.8 2.9 4.9 5.5 6 4.6 1.9 10.5.9 13.4-3.1 3.1-4.2 2.2-10.2 4-15.2.7-1.9 1.8-3.7 1.7-5.7-.1-1.7-1.1-3.2-2.4-4.2-1.3-1.1-2.8-1.8-4.3-2.5l-12.2 8z" style="fill:#6da6c5"/>
    <path class="st3" d="M70.9 250.3c.4-12.3 1.2-32-2.7-43.5-.8-2.3-1.8-4.6-2.1-7-.4-3 .2-6 .7-8.9 1.5-8.9 1.9-18 1.1-27-.1-.7-.1-1.4-.5-2-.5-.8-1.4-1.2-2.3-1.5-6.5-2.2-13.8-2.2-20.3-.1l-5.1 3.6c1.9 7.1 3.7 14.1 5.6 21.2 2.2 8.4 4.7 16.7 6.4 25.2 9.5 45.9 5.3 54.6 1.2 61.8-1 1.7-2 3.3-2.6 5.2-.4 1.5-.4 3.2.3 4.5.3.6 1.2.9 1.7.4.6-.4 1-.9 1.3-1.6 0 1.1 1.3 1.5 2 1 0 .4 0 .8.1 1.1.2.5.5.9 1 1 .7.2 1.1-.3 1.4-.7.1-.2.2-.4.3-.5v.2c.2 1 1.4 1.3 2.1.6.7-.8 1.3-1.7 1.7-2.7-.2.8-.3 1.6-.4 2.4-.1 1 .9 1.7 1.8 1.2 2.1-1.2 3.8-3 4.7-5.2.8-1.8 1-3.8 1.2-5.8.8-7.2 2.6-7.7 3.4-14.9l-2-8z"/>
    <path d="M53.6 268.6c2.7-4.5 8.7-6.6 13.6-4.9.8.3 1.7.8 2 1.6.2.5.1 1 0 1.5-.2 1.7-.5 3.4-.7 5.1-4.2-2.1-9.3-2.6-13.8-1.2-1.2.3-2.4.8-3.3 1.6-1.9 1.7-2.2 4.5-2.4 7 5.2-3.5 12.1-4.1 17.9-1.7.4.2.9.4 1.1.8.3.6-.1 1.4-.6 1.9-2.3 2.8-5.8 4.8-9.4 4.9-3.6.1-7.4-2-8.8-5.3.8 2.9 1.7 5.7 2.5 8.6.2.6.4 1.2.8 1.7.5.5 1.1.6 1.7.8 2.4.6 4.8 1.3 7.3 1.2 4.1-.2 7.9-2.8 9.7-6.5 2-4 1.5-8.9 3.9-12.7.6-1 1.4-1.8 1.6-2.9.2-.9 0-1.7-.1-2.6-.5-2.6-.9-5.1-1.4-7.7-.1-.6-.2-1.1-.6-1.5-.4-.4-.9-.5-1.4-.6-6.2-1.3-11.5-1.1-17.4 1.2l-2.2 9.7z"/>
    <path class="st4" d="M61.3 283.1c-.8-1.4-.8-3.3.1-4.6.3-.4.9 0 .6.4-.8 1.2-.8 2.7-.1 3.9.3.3-.3.6-.6.3zM57.7 283.1c.2-1.7.6-3.4 1.3-5 .1-.2.3-.2.5-.1s.2.3.1.5c-.6 1.5-1 3.1-1.2 4.7 0 .4-.7.4-.7-.1zM55.1 282.2c0-1.6.4-3.1 1.3-4.4.2-.4.9 0 .6.4-.8 1.2-1.2 2.6-1.2 4 0 .4-.7.4-.7 0zM53.5 281.3c-.2-1.4.1-2.9.9-4.1.3-.4.9 0 .6.4-.7 1-1 2.3-.8 3.6 0 .2 0 .4-.2.4s-.5-.1-.5-.3z"/>
    <path d="M73.8 47.1c-5.3-2.2-11-3.4-16.4-5.6-5.3-2.2-10.5-5.6-13-10.8-.9-1.8-1.4-3.8-1-5.7.3-1.4 1-2.6 1.8-3.7 3.9-5.4 10-8.8 16.5-10.4 6.4-1.6 13.2-1.3 19.8-.4 5.5.8 10.9 2.1 15.9 4.6 4.9 2.5 9.3 6.3 11.8 11.3 1 2 1.7 4.3 1.4 6.6-.6 4.5-4.7 7.6-8.8 9.6-7.5 3.7-15.9 5.4-24.3 5l-3.7-.5z" style="fill:#cedbf0"/>
    <path class="st6" d="M84.7 20c5.9 2 3.9 3.4 5.9 3.9 2 .5 3 2.6 4.5 4 2 1.9 1.5 5.2 2.6 7.7 1.9 4.4 7.6 5.3 11.3 8.2 3.8 3 5.4 8.4 3.8 13-.6 1.8-1.7 3.5-1.8 5.5 0 1.9 1.8 4.1 3.6 3.4-.2 2.6-3.6 4.4-5.8 3.1-2.4-1.3-2.8-4.7-5-6.3-1.8-1.4-4.4-1.3-6.5-.4-2.1.9-3.8 2.5-5.6 3.9-3 2.5-6.4 4.6-10.1 5.7-3.8 1-8 .8-11.3-1.2-2.4-1.5-4.4-3.9-7.2-4.1-2.5-.2-4.7 1.5-6.9 2.6-3.9 2-8.7 2.3-12.7.7-4.1-1.7-7.3-5.4-8-9.8 5 .6 11.3-.4 12.9-5.2.6-1.7.4-3.6.8-5.4.7-2.8 3.1-5.1 5.9-5.6.8-.2 1.7-.2 2.4-.7 1.4-1 1.1-3.2.6-4.8-1-3.7-1.9-8.1.5-11.1 1-1.2 2.4-2.1 3-3.5.5-1 .5-2.1 1-3.1 1.2-2.2 4.3-2.4 6.8-2.3 2.4.1 4.8.2 7 1 2.2.9 4.2 2.6 4.6 5l3.7-4.2z"/>
    <path class="st3" d="M6.2 66c9.5 13.1 14.3 21.8 22.2 32.3.4.5.8 1 1.4 1.2 1 .4 2-.2 2.8-.8 3.2-2.4 5.6-5.8 6.7-9.7-9.3-7.2-21.6-21.8-21.6-21.8-.7-1.8-.9-9.5-2.1-11-1.2-1.5-3.1-2.7-5-2.5-1.2.1-4.8-.2-5.7.7-3.2 3-.8 9.7 2.2 12.9L6.2 66zM68.9 161.6c1.1 9.8 2.3 19.6 3.4 29.3.5 4.5 1.1 9.1 3.4 13 2.9 5 8.1 8.1 13.3 10.8 4.8 2.5 24.7 9.1 29.6 11.3.6.3 1.2.5 1.9.5.7-.1 1.4-.5 1.9-1 3.3-2.8 5.9-6.3 7.5-10.3-4.6-6.6-26.1-16-33.4-19.2-.9-.4-1.8-.7-2.3-1.5-.4-.7-.5-1.5-.6-2.3-.8-12-.9-24.1-.1-36.1-8.4-1.4-17.3.9-24 6.2l-.6-.7zM101.1 128.1c1.7 6.2 3.7 12.3 6 18.3.4 1 3.8 10.5 4.6 11.2 1.3 1.2 7.4-1 9.2-.9 3.5.2-.2-5.1 2.9-3.5.8.4 1.6.9 2.4.9.9.1 1.9-.4 2.1-1.2.3-.9-.5-1.8-1.2-2.5-2.8-2.6-6.2-4.4-9.9-5.4-.6-.2-1.2-.3-1.6-.8-.3-.4-.3-.8-.3-1.3-.4-5.1-.9-10.2-1.3-15.3-.2-2.8-.5-5.6-1.8-8.1-2.8.2-5.6.7-7.9 2.2-2.3 1.5-3.9 4.3-3.5 7l.3-.6z"/>
    <path class="st7" d="M161.4 315c1.3.4 2 1.9 1.9 3.2-.1 1.3-.9 2.5-2 3.4-.9.7-2 1.3-3.1 1.3-2 0-3.8-1.6-4.2-3.5s.7-4 2.5-5 4-.9 5.7.1l-.8.5zM128.3 322.2c.7-1.2 2.2-1.6 3.5-1.2 1.3.4 2.3 1.4 2.9 2.6.5 1 .9 2.2.6 3.3-.4 2-2.3 3.4-4.3 3.4-2-.1-3.8-1.5-4.4-3.4-.6-1.9-.1-4.1 1.3-5.5l.4.8zM106.2 302.8c.7-1.2 2.2-1.6 3.5-1.2 1.3.4 2.3 1.4 2.9 2.6.5 1 .9 2.2.6 3.3-.4 2-2.3 3.4-4.3 3.4-2-.1-3.8-1.5-4.4-3.4-.6-1.9-.1-4.1 1.3-5.5l.4.8z"/>
    <path d="M164.8 309.5c-.1 3-1.3 6.1-3.2 8.4-.4.5-1 1-1.6 1.2-.7.2-1.5-.1-1.7-.8-.2-.6.2-1.2.4-1.8.8-2 .3-4.5-1.3-6.1l8.1-2.1-.7 1.2zM134.5 317.7c-2.5.7-3.8 3.8-2.7 6.1.1.3.3.6.3.9 0 .9-1.1 1.4-2 1.3-2.5-.3-4.2-2.7-5.1-5-1-2.8-1.4-5.8-1-8.7 3.6.7 7.2 1.8 10.5 3.4v2zM112.4 298.2c-2.5.7-3.8 3.8-2.7 6.1.1.3.3.6.3.9 0 .9-1.1 1.4-2 1.3-2.5-.3-4.2-2.7-5.1-5-1-2.8-1.4-5.8-1-8.7 3.6.7 7.2 1.8 10.5 3.4v2z"/>
    <path class="st6" d="M98.1 210.6c.2-1.6.7-3.3 1.5-4.7 1.4-2.5 4-4.2 6.9-4.7l24.7-4.6c1.4-.3 2.9-.2 4.3.1 1.6.4 3 1.1 4.3 2.2l21.9 18.6c1.3 1.1 2.3 2.5 2.9 4l1.5 3.8c.5 1.3.7 2.6.7 4l-1.4 80.1-8 1.8-5.1 6.1-16.4 3-2.1-3.2-2 .5c-2.4.6-5-.1-6.9-1.7l-.3 3.3-23.7-24.9-2.8-83.7z"/>
    <path class="st8" d="M150.4 317.4c.4-26.2 2.2-52.6 2.7-78.8.1-7.5.3-18.4-6.1-22.5l-21.3-18.8-6.9 1 17.2 16.1c5.3 4.2 9.1 10.1 10.5 16.7.5 2.3.7 4.7.7 7.1l-2.3 80.1 5.5-.9z"/>
    <path d="M134.9 217.7c-3.3.6-6.8-1.5-8-4.7-.2-.5-.3-1.1-.6-1.6-.4-.9-1.2-1.5-1.9-2.1-1.4-1.2-2.8-2.3-4.4-3.1-1.2-.5-2.5-.8-3.5-1.6s-1.6-2.4-.7-3.4c.6-.6 1.6-.8 2.4-.5.8.3 1.5.8 2.2 1.4 5.4 4.5 10.9 9.2 14.7 15.2l-.2.4zM137.7 261.4c.5-1.7.2-3.4.7-5.1.5-1.7 2.5-3.3 3.9-2.2.7.6.9 1.6 1 2.5.9 7.7 1.8 15.4 1 23.1-.3 3.5-1 6.9-1.6 10.3-.3 1.4-1 3.1-2.4 3.1-1.4-.1-1.9-1.9-2-3.3-.1-1.8-.3-3.6-.4-5.4 0-.4 0-.9.2-1.1.3-.4.9-.3 1.4-.4.8-.3 1.2-1.3 1.3-2.1 1.2-5.4 1.1-11.1-.2-16.4-.4-1.5-1.2-3.2-2.7-3.2l-.2.2z"/>
    <path d="M127 217.5c-1.9 1.5-5.6 4.9-6.5 7.2-.2.5-.4 1.1-.9 1.5-.8.5-1.8.1-2.6-.4-4.3-2.5-8-6.2-10.6-10.5-.6-1-1.2-2.1-1.2-3.3-.1-2.3 1.8-4.2 3.5-5.8 1.6-1.4 3.5-3 5.5-2.5.9.2 1.7.8 2.4 1.4 2.8 2.3 5.4 4.9 7.7 7.8 1.3 1.7 3.3 4.1 2.7 4.6z" style="fill:#1c3f2d"/>
    <path d="m137.6 252.8.3-14.5c.1-4.4.5-9.1-1.2-13.3-.8-2-2.1-3.8-3.8-5-.4-.3 0-.9.4-.6 3.5 2.3 4.9 6.5 5.3 10.5.2 2.4.2 4.8.1 7.1 0 2.5-.1 5-.1 7.4-.1 2.8-.1 5.6-.2 8.4-.1.5-.8.5-.8 0zM137.7 298.1v15.6c0 .5-.7.5-.7 0v-15.6c0-.5.7-.5.7 0zM127 246.7c.1 8.1.1 16.1-.1 24.2-.1 8.1-.3 16.1-.7 24.2-.2 4.5-.4 9-.6 13.6 0 .5-.7.5-.7 0 .4-8.1.8-16.1 1-24.2.2-8.1.4-16.1.4-24.2v-13.6c0-.4.7-.4.7 0z"/>
    <path d="M134.8 227.4c-2.9 1.1-5.2 3.5-6.3 6.4-.3.8-.5 1.7-.6 2.5-.1.4-.8.5-.7 0 .4-3.3 2.3-6.3 5-8.2.8-.5 1.6-1 2.5-1.3.3-.3.5.4.1.6zM134 225c-2.8.2-5.3 2-6.4 4.6-.2.4-.8.1-.6-.4 1.2-2.8 4-4.7 7.1-4.9.4 0 .4.7-.1.7zM131.6 223.4c-2.4 0-4.7 1.6-5.7 3.8-.2.4-.8.1-.6-.4 1.1-2.4 3.6-4.1 6.3-4.1.4 0 .4.7 0 .7zM129.8 220.2c-2.7.7-5 2.7-6 5.3-.2.4-.9.2-.7-.2 1.2-2.8 3.6-5 6.5-5.8.4-.1.6.5.2.7zM107.4 204.7c-1.8.7-3.2 2.3-3.7 4.2-.1.4-.8.3-.7-.2.6-2.1 2.2-3.9 4.2-4.7.2-.1.4.1.4.2.1.3 0 .5-.2.5zM105.5 204.3c-1.5.6-2.8 1.6-3.7 3-.2.4-.9 0-.6-.4 1-1.5 2.4-2.7 4.1-3.3.2-.1.4.1.4.2.1.3 0 .5-.2.5zM162.9 225.8c-2.1-.4-4.3.4-5.7 2-.3.3-.8-.2-.5-.5 1.6-1.8 4-2.6 6.4-2.2.4.1.2.8-.2.7zM162.5 223.7c-2.2-.3-4.6.6-6 2.3-.3.4-.8-.2-.5-.5 1.6-1.9 4.2-2.9 6.7-2.5.4.1.3.8-.2.7zM161 221.5c-2-.4-4 .3-5.4 1.7-.3.3-.8-.2-.5-.5 1.6-1.6 3.9-2.3 6.1-1.9.4.1.2.8-.2.7zM159.4 218.7c-2.2-.7-4.7.1-6.2 1.9-.3.4-.8-.1-.5-.5 1.6-2 4.4-2.8 6.8-2.1.5.2.3.9-.1.7zM144.8 249.8l.1-7.5c0-1.2-.9-2.2-2.1-2.3h-.1c-1.3-.1-2.5.9-2.5 2.3l.1 7.6c0 1.1.9 2.1 2 2.2 1.3.1 2.5-.9 2.5-2.3z"/>
    <path class="st8" d="M117.4 148.6c3.4.3 6.5 2.9 7.4 6.2.4 1.7.3 3.4.2 5.2-1.1 18.9-2.1 37.8-3.2 56.6-.1 2.3-1.6 4.5-3.8 5.3 0 0 9.3-76.6-1.9-68.7-5.5 0-5.4 64-5.4 64l-3.9-3.7 3.1-61.8c.1-2.4 2.4-4.2 4.7-3.6l2.8.5z"/>
    <path class="st7" d="M124.2 216.5c-1.5.8-2.7 1.9-3.7 3.2-.5.6-.8 1.4-1.3 2-.5.6-1.3 1-2.1.9-.8-.1-1.6-.4-2.3-.9-.7-.4-1.4-.9-2-1.5-1.3-1-2.5-2.2-3.6-3.4-1.2-1.4-2.3-2.9-3.3-4.6-.2-.4.4-.8.6-.4 1.6 2.8 3.7 5.3 6.1 7.3.6.5 1.2 1 1.9 1.4.7.5 1.4.9 2.2 1.1.8.2 1.5 0 2-.6s.8-1.3 1.3-1.9c1.1-1.4 2.4-2.6 3.9-3.4.4-.1.7.6.3.8z"/>
    <path class="st3" d="M111.6 159.2a7.5 7.5 0 0 1-1.4-5.2c0-.3.1-.5.3-.8.6-.6 1.6 0 2.1.7.8 1.1 1.5 2.2 2.1 3.3-.7-1-1.4-2.1-1.2-3.2.1-1.2 1.5-2.2 2.5-1.5.4.2.6.7.7 1 .5 1 .9 2 1.4 2.9-.6-.7-1.1-1.4-1.2-2.3 0-.9.8-1.8 1.6-1.5.4.1.6.4.8.7.7 1 1.2 2.1 1.6 3.3-.4-.7-.9-1.6-.6-2.3.3-.7 1.2-1 1.9-.8.7.2 1.3.7 1.8 1.4.7 1 1.1 2.1 1.2 3.3.1.7 0 1.4-.5 2-.5.5-1.4.6-1.8.1 0 .9-.9 1.5-1.8 1.5s-1.7-.5-2.3-1.1c.4.8-.6 1.6-1.4 1.5s-1.4-1-1.7-1.8c0 1.1-1.6 1.6-2.6 1s-1.4-1.7-1.7-2.8l.2.6z"/>
    <path d="M68.8 53.1C63 53 56.6 53 52.2 56.9c-3.1 2.7-4.5 6.8-5.4 10.7-.9 4-1.4 8.1-3 11.8-1.7 3.7-4.4 5.1-8.4 5.6-1.3 3.2-7.9 12.5-7.9 13.8 0 3.4 5.8 7.6 9.2 8.2 3.3.6 6.7-.5 10-1.5-3.3 20.5-15 39-17.6 59.5 4.3-1.7 8.8 1.4 12.6 3.9 5.2 3.5 11.3 6.4 17.5 5.6 5.2-.7 10.1-4 15.2-2.9 3.7.7 7 3.6 10.6 3 1.6-.3 3-1.3 4.4-2.2 2.6-1.8 12.4 1.2 14.9-.6-2.1-4.4-2.4-9.4-2.7-14.3-.6-10.8-7.9-26.5-7.7-37.3.9 4.1 3.7 6.3 7.2 8.6 1.8-5.7 7.2-6.7 13.1-6.3 2-9.8-1.3-10.1-2.2-14.4-.5-2.5-1-5.1-1-7.7 0-3.9 1.3-7.7 1.8-11.6.9-7.5-1-15.1-3.3-22.3-2-6.1-4.9-12.8-10.9-15-3.3-1.2-7-.3-10.5.2-6.4.8-12.8 1-19.2 1.8l-.1-.4z" style="fill:#663c17"/>
    <path class="st3" d="M10.5 51.2c.7 0 1.5-.1 2.2.1 2.3.6 3.4 3.2 4.1 5.4.3 1.1.5 2.6-.5 3.2-.9.6-2.1-.2-2.7-1.1-.6-.9-.9-2-1.7-2.8-.6-.6-3.3-.3-4.1-.6-1.7-.7-2.2-1.1-3.9-1.7.2-.5 1.6-1.8 2.2-1.8 0 0 2.4-.6 4.4-.7zM4.2 56.3c-.3.8-3 .4-3.6 1-.5.7-.9 1.7-.3 2.4.2.3.6.4.7.8.1.4-.3.8-.5 1.2-.7 1.1-.1 2.8 1.2 3.1-.6.6-.7 1.5-.3 2.2s1.3 1 2.1.8c-.5.3-.3 1.2.2 1.4.5.3 1.1.2 1.7.1 1.7-.3 3.4-.8 4.8-1.8s2.4-2.8 2-4.5c-1.2.3-2.4 1.1-3.2 2.1.7-.7 1.6-.9 2.3-1.6.7-.6-.5-2.1-1.4-2.2-.3 0 .7 0 .4.1-.9.3-1.8.7-2.6 1.1 1.1-.4 2.5-1.3 2.1-2.4-.2-.8-1.2-1.1-2-.8-.8.2-1.4.8-1.9 1.4.8-.1 1.5-.7 1.7-1.5.2-.8-.2-1.7-.9-2.1-1.3-.8-1.4 1.3-2.1-.1l-.4-.7zM61.8 18.9c.1 5.4.4 10.8 1.1 16.2.3 2.4.7 4.9 2.2 6.7 1.5 1.9 7.7 1.8 7.7 1.8l2 7.9s-4.9 1.1-6.6 1.7c-1.5 8.6-1.9 17.3-1.5 26 6-10.2 13.5-19.6 22.1-27.7-1.4-5.3-2.6-10.6-3.4-16 2 1.3 5.1.1 5.7-2.2.5-2.3-1.7-4.8-4.1-4.5-.9-1.9.5-4.4-.6-6.1-.5-.7-1.3-1.1-2.1-1.5-6.1-2.9-12.9-5.4-19.6-4-1.3.3-2.8.9-2.9 2.2v-.5z"/>
    <path d="M66.9 35.3c1.7.1 3.3.2 5 .3.6 0 1.3.1 1.9-.3-.6 1.4-2 2.3-3.5 2.3-1.6 0-3-.9-3.4-2.3z" style="fill:#fff"/>
    <path class="st12" d="M66.9 35c1.2.1 2.3.2 3.5.2.6 0 1.1.1 1.7.1.5 0 1 0 1.5-.2.3-.2.6.2.5.5-.6 1.5-2.2 2.5-3.8 2.5-1.6 0-3.1-1.1-3.7-2.6-.2-.4.5-.6.7-.2.5 1.2 1.8 2.1 3.1 2.1 1.4 0 2.6-.9 3.1-2.1l.5.5c-1 .6-2.2.3-3.3.2-1.2-.1-2.5-.2-3.7-.3-.6-.1-.6-.8-.1-.7zM85.5 32.8c.8-.7 1.8-1.3 2.8-1.6.2-.1.4.1.4.2.1.2-.1.4-.2.4-.9.3-1.8.8-2.5 1.4-.1.1-.4.1-.5 0-.1 0-.1-.3 0-.4z"/>
    <path class="st12" d="M87.1 32.2c.3.6.5 1.2.6 1.9 0 .2-.2.4-.4.4s-.3-.2-.4-.4v-.4c0-.1-.1-.3-.1-.4 0-.1 0-.1-.1-.2v-.4c0-.1-.1-.1-.1-.2-.1-.2 0-.4.1-.5.1 0 .3.1.4.2zM68.3 33c-.7-.4-1.3-.8-2-1.1-.2-.1-.2-.5 0-.6 1.5-.8 2.5-2.5 2.3-4.3 0-.2 0-.4.2-.4s.4.1.4.2c.3 2-.8 4.1-2.6 5.1v-.6c.7.4 1.3.8 2 1.1.4.2.1.8-.3.6z"/>
    <path d="M74.6 27.5c.4-.7 1.2-1.2 2.1-1.1.8 0 1.6.5 1.9 1.3.1.2 0 .4-.1.5-.2.1-.4 0-.5-.1-.3-.5-.8-.9-1.3-.9-.6 0-1.2.3-1.5.8-.2.3-.8-.1-.6-.5zM62.8 27.6c.4-.7 1.2-1.2 2.1-1.1.8 0 1.6.5 1.9 1.3.1.2 0 .4-.1.5-.2.1-.4 0-.5-.1-.3-.5-.8-.9-1.3-.9-.6 0-1.2.3-1.5.8-.2.2-.8-.1-.6-.5z"/>
    <path class="st12" d="M73.7 43.5c2.7-.5 5.4-1 8-1.5.4-.1.6.6.2.7-2.7.5-5.4 1-8 1.5-.5 0-.7-.7-.2-.7zM4.5 53.3c.4.3.8.6 1.3.9.5.2 1 .3 1.6.2 1.2-.1 2.4-.1 3.6-.2.2 0 .4.2.3.4-.3 2 .7 4.2 2.4 5.2.4.2 0 .8-.4.6-2-1.2-3.1-3.7-2.7-6 .1.1.2.3.3.4-1.3.1-2.5.2-3.8.2-.6 0-1.1-.1-1.7-.3-.5-.2-1-.6-1.4-.9-.2-.2.2-.8.5-.5zM1.5 56.7c.9-.3 1.8-.4 2.7-.4.8 0 1.8.1 2.5.5.7.3 1.2 1 1.1 1.8-.1.7-.6 1.2-1.2 1.6-.8.5-1.8.7-2.7.9-.4.1-.7-.5-.3-.6.9-.4 1.9-.9 2.9-1.1.9-.2 1.8-.3 2.6.1.8.3 1.2 1.2.8 2-.2.4-.5.7-.9 1l-1.2.9c-1 .6-2 1.1-3.1 1.4-.4.1-.6-.4-.3-.6 1.5-.9 3.2-1.8 5-1.9.7 0 1.6.1 1.9.8.4.8-.3 1.6-1 2-.9.6-1.9 1.1-2.9 1.7-.1-.2-.2-.4-.4-.6.9-.4 2-.9 2.9-.3.7.4 1.1 1.3.7 2-.2.4-.8 0-.6-.4.3-.4-.1-1-.5-1.1-.7-.3-1.5.1-2.1.4-.4.2-.8-.4-.4-.6.9-.5 1.8-1.1 2.7-1.6.3-.2.8-.5.9-.9.1-.4-.3-.6-.7-.6-.9-.1-1.9.2-2.7.5-.9.4-1.7.9-2.6 1.3l-.3-.6c1-.3 2-.8 2.9-1.4.8-.6 1.3-.9 1.6-1.2.3-.3.7-.7.6-1.2-.2-.8-1.6-.7-2.2-.6-1.1.2-2.1.7-3.2 1.2l-.3-.6c.9-.2 4.3-.9 3.2-2.5-.5-.7-1.6-.8-2.4-.9-1-.1-2 .1-2.9.4-.4 0-.6-.7-.1-.8z"/>
    <path class="st6" d="M73.5 17.3c-1.1 1.4-.1 3.6 1.5 4.5 1.5.9 3.4 1.1 4.9 2 2.1 1.1 4.7 1.8 4.7 4.1 0 .8 0 2-.9 4 0 0 1.7-2.3 2.4-2.3l3.9-.3c-1.2-1.9-1.1-4.4-2.2-6.3-.8-1.4-2.2-2.4-3.6-3.2-6-3.5-13.3-4.6-20.1-3.1-.8.2-1.5.4-2.1.9-1 .8-1.2 2.2-1.1 3.5.1 1.3.3 2.5.1 3.8-.2 1.2-1.1 2.5-2.4 2.6 2.2 1.2 4.9-.6 6.5-2.6 1.6-2 3.1-4.4 5.6-4.8.9-.1 2.1-.2 2.3-1.1l.5-1.7zM88.2 21.7c.7 1 1.8 1.4 3 1.7 1.2.3 2.4.6 3.5 1.1 1.1.5 2 1.2 2.6 2.2.6.9 1 2 1.3 3.1.6 2.2.9 4.7 2.5 6.4 1 1 2.3 1.5 3.6 2 1.3.4 2.6.9 3.8 1.6 2.5 1.5 4.7 3.9 4.9 7 0 .5-.7.5-.7 0-.2-2.7-2-4.8-4.2-6.2-1.2-.7-2.5-1.2-3.8-1.6-1.3-.4-2.7-.9-3.8-1.9-1.8-1.6-2.2-4-2.8-6.2-.3-1.1-.6-2.2-1.1-3.2-.5-1-1.3-1.8-2.3-2.3-2.3-1.2-5.4-1-7.1-3.3-.3-.4.3-.7.6-.4z"/>
    <path class="st6" d="M62.2 19c-.8.7-1.4 1.6-1.8 2.6-.4 1-.4 2.1-1 3.1-.9 1.4-2.4 2.2-3.6 3.3-.6.5-1.1 1.1-1.3 1.9-.3 1 .1 2.1.4 3.1.3 1 .7 2.1.6 3.2-.1 1-.5 2-1.1 2.8-1.6 2.1-4.1 2.9-6.5 3.5-.4.1-.6-.6-.2-.7 2.1-.5 4.4-1.2 5.9-2.9.7-.8 1.2-1.7 1.2-2.8.1-1.1-.3-2.1-.6-3.1s-.6-2.1-.4-3.2c.2-.8.6-1.4 1.1-2 1.1-1.2 2.6-1.9 3.6-3.2.3-.4.5-.8.7-1.3.2-.6.3-1.3.5-1.9.4-1.1 1.1-2.1 2-2.9.3-.3.8.2.5.5z"/>
    <path class="st13" d="M74.6 23.1v1.3c1.8-.3 3.5.6 5 1.5-.5-1-1.1-1.9-2.1-2.4-.9-.5-2-.4-3.1-.3l.2-.1zM68 21.1v1.3c-1.8-.3-3.5.6-5 1.5.5-1 1.1-1.9 2.1-2.4.9-.5 2-.4 3.1-.3l-.2-.1zM77.2 18.6c1.2 1.5 2.8 2.8 4.5 3.6.4.2 0 .8-.4.6-1.8-.9-3.4-2.2-4.7-3.8-.1-.2-.1-.4 0-.5.3 0 .5-.1.6.1zM83.2 21.1c0 .1 0 .1 0 0l.1.1s-.1-.1 0 0l.2.2.2.2.1.1s.1.1 0 0c0 0 .1 0 .1.1.1 0 .1.1.2.1s.1.1.2.1h.2c.2.1.3.2.2.4-.1.2-.2.3-.4.2-.7-.2-1.3-.7-1.7-1.3-.1-.2 0-.4.1-.5.2.1.3.2.5.3zM94.6 34.1c.9 3.1 2.9 5.8 5.5 7.7 2.7 1.9 6.1 3.4 7.5 6.6.7 1.6.8 3.5-.2 5.1-.2.4-.9 0-.6-.4.8-1.3.8-3 .1-4.4-.6-1.4-1.8-2.6-3.1-3.5-1.4-1-2.9-1.9-4.3-2.9-1.3-.9-2.4-2.1-3.3-3.3-1-1.4-1.8-3-2.3-4.7-.2-.4.5-.6.7-.2zM95.7 41.2c2.4 1.5 3.6 4.4 3.1 7.1-.1.4-.8.3-.7-.2.4-2.4-.7-5-2.8-6.3-.4-.3 0-.9.4-.6zM62.4 41.2c0 .9-.1 1.8-.5 2.6-.3.8-1 1.4-1.8 1.8-.8.3-1.6.5-2.5.7-.9.2-1.8.6-2.6 1.2-.8.7-1.3 1.7-1.2 2.8 0 .5-.7.4-.7 0-.2-2 1.3-3.5 3-4.2.8-.3 1.7-.5 2.6-.7.8-.2 1.7-.5 2.2-1.2.6-.8.6-1.9.7-2.9.2-.6.9-.6.8-.1zM64.1 46.7c-.9.9-2 1.6-3.1 2.3-.4.2-.8-.4-.4-.6 1.1-.6 2.1-1.3 3-2.2.3-.3.8.2.5.5zM69.3 45.1c.1 1.2-.3 2.4-1.1 3.4-.1.1-.4.1-.5 0-.1-.1-.1-.4 0-.5.7-.8 1-1.8.9-2.9 0-.2.2-.4.4-.4.1 0 .2.2.3.4z"/>
    <path class="st12" d="M10.9 63.1c2 .6 3.6 2.2 4.2 4.2.1.4-.5.6-.7.2-.5-1.7-2-3.2-3.7-3.7-.4-.1-.2-.8.2-.7zM113.9 154.3c.9 2 1.5 4.1 1.7 6.2.1.5-.7.4-.7 0-.2-2-.8-4-1.6-5.9-.2-.3.5-.7.6-.3zM116.6 153.3c1.3 2.2 2.1 4.6 2.5 7.2.1.4-.6.6-.7.2-.4-2.5-1.2-4.8-2.5-7-.1-.4.5-.8.7-.4zM121.2 154.7c.7 1.9 1.1 3.9 1.4 5.9 0 .5-.7.4-.7 0-.2-1.9-.7-3.8-1.3-5.7-.3-.4.4-.6.6-.2zM109.8 145.1c1.1-1.2 2.9-1.7 4.5-1.2.4.1.2.8-.2.7-1.3-.4-2.9 0-3.8 1-.3.3-.8-.2-.5-.5z"/>
    <path class="st4" d="M55.2 205.2c-.9 1.8-.2 4.3 1.6 5.3.4.2 0 .8-.4.6-2.1-1.2-3-4.1-1.8-6.3.2-.3.8 0 .6.4zM77.8 200c-.7 1.7.3 3.8 2.1 4.3.4.1.3.8-.2.7-2.1-.5-3.5-3.1-2.6-5.1.1-.2.2-.3.4-.2.2-.1.3.1.3.3z"/>
    <path class="st14" d="M46.5 105.2c5.7 1.9 11.5 3.3 17.4 4.4 5.9 1.1 11.9 1.8 17.9 2.1 3.4.2 6.7.2 10.1.1.5 0 .5.7 0 .7-6 .2-12-.1-18-.7s-11.9-1.7-17.7-3.1c-3.3-.8-6.6-1.7-9.8-2.8-.5-.2-.3-.9.1-.7z"/>
    <path class="st14" d="M98 56.4c-1.9 3.7-3.5 7.6-4.5 11.6-1.1 4-1.8 8.2-2 12.3-.2 4.5.1 9 .4 13.4.3 4.6.6 9.1.8 13.7.3 4.3.4 8.8 1.5 13 .1.5.3 1 .5 1.5.1.4-.5.6-.7.2-1.4-4.2-1.6-8.6-1.8-12.9-.3-4.6-.6-9.2-.8-13.8-.3-4.6-.7-9.1-.5-13.7.1-4.2.7-8.4 1.7-12.5s2.4-8 4.3-11.8c.2-.5.5-.9.7-1.4 0-.3.7 0 .4.4zM99 124.5c2.6-2.4 5.8-4.2 9.3-5 1-.2 2-.4 3-.5.5 0 .4.7 0 .7-3.4.3-6.7 1.6-9.5 3.5-.8.6-1.6 1.2-2.3 1.8-.4.3-.9-.2-.5-.5zM46 105c1.2-2.7 2.1-5.5 2.7-8.4.3-1.4.6-2.8.4-4.2-.2-1.4-1.1-2.5-1.5-3.8-.4-1.4-.1-2.9.2-4.3l.9-4.5c.6-3.1 1.3-6.1 1.9-9.2l2.1-10.2c.1-.4.8-.3.7.2-1.3 6.1-2.5 12.3-3.8 18.4-.3 1.5-.6 3.1-.9 4.6-.3 1.4-.7 2.9-.5 4.4.2 1.4 1.2 2.5 1.5 3.8.3 1.4.1 2.9-.2 4.2-.6 3.2-1.6 6.4-2.9 9.4-.2.4-.8 0-.6-.4zM66 55.3c-1.1 3.6-1.6 7.3-1.8 11.1-.1 3.8.2 7.5.7 11.2.3 2.1.7 4.2 1.2 6.3-.2 0-.4-.1-.6-.1 2.6-4.1 5.4-8.1 8.3-11.9 2.9-3.9 5.9-7.6 9.1-11.3 1.8-2.1 3.6-4.1 5.5-6.1.3-.3.8.2.5.5-3.3 3.5-6.4 7.2-9.5 10.9-3 3.7-6 7.6-8.7 11.5-1.6 2.2-3.1 4.5-4.6 6.7-.2.2-.6.2-.6-.1-.9-3.7-1.5-7.5-1.8-11.3-.3-3.8-.3-7.6.2-11.4.3-2.1.7-4.2 1.4-6.3.1-.3.8-.1.7.3zM101.7 95.9c2.5-.1 5 .2 7.5.9.4.1.3.8-.2.7-2.4-.7-4.8-.9-7.3-.8-.5-.1-.5-.8 0-.8zM101 98.8c2.6-.2 5.2-.1 7.8.2.4.1.5.8 0 .7-2.6-.3-5.2-.4-7.8-.2-.4.1-.4-.6 0-.7zM37.5 86c-1.6 3.8-3.3 7.7-5.5 11.2-.6 1-1.3 2-2.1 2.9-.3.4-.8-.1-.5-.5 2.6-3.2 4.4-7 6.1-10.7.5-1.1.9-2.2 1.4-3.2.2-.5.8-.1.6.3zM41.1 86c.9 2.7 1.4 5.5 1.5 8.4 0 .5-.7.5-.7 0-.1-2.8-.6-5.5-1.5-8.2-.1-.5.5-.7.7-.2zM43.2 86.2c1.1 1.5 1.9 3.3 2.3 5.1.1.4-.6.6-.7.2-.3-1.8-1.1-3.5-2.2-5-.1-.2 0-.4.1-.5.2 0 .4.1.5.2zM58.1 108.8c-1.1 5.9-2.9 11.7-4.7 17.5-1.9 5.8-3.8 11.5-5.4 17.3-.9 3.3-1.6 6.6-2.1 9.9-.1.4-.7.3-.7-.2.9-6 2.5-11.8 4.3-17.6 1.8-5.8 3.8-11.5 5.5-17.3.9-3.2 1.8-6.5 2.4-9.8.1-.5.8-.3.7.2zM59.9 109.8c-.6 5-1.3 10-2.2 15-.9 5-1.8 10-3 14.9-.6 2.8-1.3 5.6-2 8.3-.1.4-.8.3-.7-.2 1.2-4.9 2.4-9.8 3.4-14.7 1-4.9 1.9-9.9 2.6-14.9.4-2.8.8-5.6 1.1-8.4.1-.5.8-.5.8 0zM76.3 117.1c-.5 7.5-1.2 14.9-2.1 22.3-.2 2.1-.5 4.2-.8 6.3 0 .2-.1.4-.4.4-.2 0-.4-.2-.4-.4 1-7.4 1.8-14.9 2.4-22.3.2-2.1.3-4.2.5-6.3.1-.4.9-.4.8 0zM78.9 122.5c.2 5.6.1 11.3-.4 16.9-.1 1.6-.3 3.2-.5 4.7-.1.4-.8.5-.7 0 .7-5.6 1-11.3 1-16.9 0-1.6 0-3.2-.1-4.8-.1-.4.6-.4.7.1zM84.2 135.9c.5 4.9.6 9.8.2 14.6-.1 1.4-.3 2.8-.4 4.1 0 .2-.1.4-.4.4-.2 0-.4-.2-.4-.4.6-4.8.8-9.7.5-14.6-.1-1.4-.2-2.8-.3-4.1.1-.5.8-.5.8 0zM44.4 162.5c1.9 2.4 4.4 4.3 7.2 5.5 2.8 1.2 6 1.7 9 1.3 1.6-.2 3.2-.6 4.7-1.2 1.8-.7 3.5-1.5 5.4-1.6 1.8-.2 3.6.1 5.3.7.8.3 1.6.7 2.4 1.2.8.5 1.5 1.1 2.3 1.5 1.6.9 3.5.7 5.2 0 1.7-.7 3.1-2 4.4-3.3.3-.3.6-.7.9-1 .3-.3.8.2.5.5-2.5 2.6-5.5 5.7-9.4 5.1-1.9-.3-3.2-1.7-4.8-2.6-1.6-.9-3.4-1.4-5.3-1.5-2 0-3.7.5-5.5 1.3-1.6.6-3.2 1.2-5 1.5-3.1.5-6.3.1-9.3-.9-3-1.1-5.7-2.8-7.8-5.2-.3-.3-.5-.6-.8-.9-.3-.4.3-.8.6-.4zM52.8 93.4c3.4 0 6.8.1 10.1.3 3.2.1 6.5.3 9.7.7 1.8.2 3.5.6 5.3 1.1.4.1.2.8-.2.7-3-1-6.2-1.3-9.4-1.5-3.3-.2-6.6-.4-9.9-.5-1.9-.1-3.8-.1-5.7-.1-.4 0-.4-.7.1-.7zM58.8 96.1c2.9 0 5.8.1 8.7.3.5 0 .5.7 0 .7-2.9-.2-5.8-.3-8.7-.3-.5 0-.5-.7 0-.7z"/>
</svg>
