<!-- Generator: Adobe Illustrator 25.0.0, SVG Export Plug-In  -->
<svg version="1.1" xmlns="http://www.w3.org/2000/svg" xmlns:xlink="http://www.w3.org/1999/xlink" x="0px" y="0px" width="159.8px"
	 height="346.2px" viewBox="0 0 159.8 346.2" style="overflow:visible;enable-background:new 0 0 159.8 346.2;"
	 xml:space="preserve">
<style type="text/css">
	.st0{fill:#F5A372;}
	.st1{fill:#663C17;}
	.st2{fill:#331E0F;}
	.st3{fill:#DB4345;}
	.st4{fill:#B5683F;}
	.st5{fill:#7F4A23;}
	.st6{fill:#8C2A30;}
	.st7{clip-path:url(#SVGID_2_);}
	.st8{fill:#FFFFFF;}
	.st9{clip-path:url(#SVGID_2_);fill:#FFFFFF;}
	.st10{clip-path:url(#SVGID_4_);}
	.st11{clip-path:url(#SVGID_4_);fill:#FFFFFF;}
	.st12{fill:#99B8DB;}
	.st13{clip-path:url(#SVGID_6_);}
	.st14{clip-path:url(#SVGID_6_);fill:#FFFFFF;}
	.st15{clip-path:url(#SVGID_8_);}
	.st16{clip-path:url(#SVGID_8_);fill:#FFFFFF;}
</style>
<defs>
</defs>
<g>
	<path d="M94.7,49.6c5.9,0.6,11,5.1,11.4,10.3c0.2,2.3-0.4,4.6-1,6.8c-0.8,2.8-1.5,5.7-2.3,8.5c-0.7,2.8-1.6,5.8-3.9,7.9
		c-3.6,3.3-9.5,3.3-14.2,5.1c-2.9,1.1-5.5,3-8.6,3.9c-3.1,0.8-7.1,0.2-8.3-2.4c1.2,1.1,3.5-0.4,3.6-1.9c0-1.5-1.2-2.8-2.1-4.1
		c-3.6-5-3.8-11.2-3.6-17.1c0.2-5.5,1-11.5,5.6-15.3c3-2.5,7.3-3.6,11.5-3.8c4.2-0.1,8.3,0.6,12.4,1.4c1.9,0.4,4.1,0.9,5,2.5
		L94.7,49.6z"/>
	<path class="st0" d="M59.2,227.9c-0.8,12.6-4.9,24.8-5.9,37.5c-1.6,21.5,6,42.6,8.4,64.1c3.8-1,7.8-1.2,11.7-0.7
		c4.5-34,7.5-68.2,9.1-102.5L59.2,227.9z"/>
	<path class="st0" d="M120,222.7c0.2,0.3,0.3,0.6,0.5,1c3,6.3,7.8,26.5,6.8,31.9c-1,5.6-3.2,11-5.2,16.3
		c-6.6,17.4-7.8,35.4-12.1,53.4c-3.3-0.4-9.8-0.8-13.1-1.2c-0.5-12.4-0.7-24.8-0.4-37.2c0.1-6.7,0.4-13.6,3-19.9
		c0.9-2.1,2-4.2,2.2-6.5c0.1-1.3,0-2.7-0.2-4c-0.9-6.9-4.6-25.1-5.5-32L120,222.7z"/>
	<path class="st1" d="M110.8,156.1c-1.1,4.1,3.7,9.5,5.7,13.2c6.8,12.7,11.7,62.2,11.6,71.4c-9,0.7-23.7,2.2-32.6,1.1
		c-0.7-7.9-0.7-18.9-2.5-26.6c-1.7,9-3.7,17.9-6.1,26.7c-11.4,0.6-22.9-0.2-34.2-2.6c-1.1-14.2-0.5-28.6,1.8-42.6
		c0.7-4.5,1.6-9,3.6-13.1c1.3-2.7,3.1-5.2,4.5-7.8c3.9-6.9,5.7-15,5.3-22.9L110.8,156.1z"/>
	<path class="st2" d="M89.3,234c-13.4-3.8-25.3-3.6-39.1-5.2c-0.2,4.2-0.6,8.3-1.2,12.4l38.6,2.8L89.3,234z"/>
	<path class="st2" d="M130.2,233.1c-12.1-0.6-24.3-1.2-36.4-1.9c-0.2,0-0.4,0-0.6,0.1c-0.2,0.1-0.2,0.4-0.2,0.7c-0.1,4,0,8,0.3,12
		l36.7-1.3L130.2,233.1z"/>
	<path class="st0" d="M157.1,120.4c-2.8,1.8-6,2.9-9.3,3.3c-0.4-4-0.3-8.1,0.5-12c0.1-0.3,0.1-0.7,0.3-1c0.3-0.4,0.7-0.5,1.1-0.7
		c1.8-0.7,3.7-1.1,5.5-1.3L157.1,120.4z"/>
	<path class="st0" d="M121.9,136.6l17.5-12.7c1.4-1,2.8-2,3.3-3.6c0.3-1,0.2-2.1,0.3-3.2c0.4-5.8,5.9-9.8,10.8-12.9
		c0.4-0.2,0.8-0.5,1.3-0.3c0.5,0.2,0.8,0.8,0.6,1.4c-0.2,1.1-1.2,1.6-1.9,2.3c-3.5,3.5-0.4,9.6-1.8,14.4c-0.5,1.7-1.6,3.1-2.6,4.5
		c-1.3,1.8-2.6,3.5-3.9,5.3c-5.8,7.8-12,15.9-20.7,20.4c-1.1,0.6-2.3,1.1-3.5,0.7c-1.7-0.5-2.5-2.5-2.8-4.2c-0.5-3-0.1-6.2,1-9.1
		L121.9,136.6z"/>
	<path class="st3" d="M92.7,97.2c5.8-1.2,12.4-2.2,16.9,1.6c1.9,1.6,3.1,3.9,4.2,6.1c4.5,8.7,8.7,17.6,12.6,26.6
		c0.2,0.4,0.4,0.9,0.4,1.4c0,0.8-0.5,1.5-0.9,2.2c-3.2,4.8-6,11.4-5.9,17.2c-3.7-1.9-6-5.5-8.6-8.8c0.3,2.6,0.6,5.1,1.1,7.7
		c0.6,3.6-2,7-5.6,7.3c-13.4,1.2-26.9,0.2-39.9-2.9c-0.7-0.2-1.4-0.3-1.8-0.9c-0.4-0.5-0.5-1.1-0.6-1.7c-0.7-4.9-1.5-9.9-2.2-14.8
		c-1.7,4.1-4.6,7.7-8.5,9.8c-3.9,2.1-8.7,2.4-12.8,0.6c-2.7-1.2-5-3.4-6.3-6c-0.2-0.4-0.4-0.8-0.3-1.2c0-0.3,0.3-0.6,0.4-0.9
		c5.9-8.6,11.8-17.2,17.7-25.8c2.9-4.2,5.8-8.4,9.7-11.6c3.9-3.2,9.2-5.1,14.2-4.1L92.7,97.2z"/>
	<path class="st1" d="M154.4,136.3c0.7-0.1,1.1-0.8,1.1-1.5L152.7,1.5c-1.3-1.4-2.8-0.5-3.2,0.7l2.8,132.7
		C152.8,135.8,153.6,136.4,154.4,136.3z"/>
	<path class="st0" d="M153.3,108.2c0.8-0.9,2.3-0.8,3,0.1c0.7,0.9,0.5,2.4-0.5,3c0.6-1,2.3-0.5,2.7,0.6c0.4,1.1-0.2,2.3-0.9,3.2
		c0.5-0.9,2-0.3,2.2,0.7c0.1,1-0.6,1.9-1.3,2.7c1,0.4,0.7,1.9,0,2.6c-0.9,0.9-2.4,1.4-3.4,0.7s-1-2.7,0.3-3c-0.5,1-2.2,0.5-2.4-0.6
		c-0.2-1.1,0.6-2.1,1.4-2.8c-0.6,0.4-1.3,0.9-2.1,0.8c-0.4-0.1-0.9-0.3-1-0.8c-0.2-0.5,0.1-0.9,0.4-1.2c0.5-0.6,0.9-1.2,1.4-1.8
		l-1.5,0.4c-0.5,0.1-1-0.3-1-0.8c0.2-1.8,1.6-3.6,3.4-4L153.3,108.2z"/>
	<path class="st0" d="M101.5,55.4c-0.2,7.8,1.6,30.1,0,32.6c-1.6,2.5-8.8,2.8-8.8,2.8l0.2,6.4l1.8,27.8
		c-6.5-7.9-19.8-24.7-18.2-26.2c0,0,0.9-10.3,0.2-16.9c-0.6,0.9-6.3,0.2-6.5-0.9c-2.4-10.3,6.3-11.1,6.7-8.5
		c-0.7,0-1.6-9.4-1.2-14.5L101.5,55.4z"/>
	<polygon class="st4" points="92.7,90.8 82.8,91.2 92.8,95 	"/>
	<g>
		<path class="st5" d="M156.8,110.8c-1.3,1.2-2.8,2-4.5,2.4c-0.5,0.1-0.6-0.6-0.2-0.7c1.5-0.4,3-1.1,4.1-2.2
			C156.6,110,157.2,110.5,156.8,110.8L156.8,110.8z"/>
	</g>
	<g>
		<path class="st5" d="M158.8,114.3c-1.4,1.5-3.4,2.4-5.5,2.3c-0.5,0-0.5-0.7,0-0.7c1.9,0.1,3.7-0.7,5-2.1
			C158.6,113.5,159.1,114,158.8,114.3L158.8,114.3z"/>
	</g>
	<g>
		<path class="st5" d="M158.8,118.5c-0.4,0.8-1.2,1.3-2,1.5c-1,0.3-2.1,0.2-3.1,0.1c-0.2,0-0.4-0.2-0.4-0.4c0-0.2,0.2-0.4,0.4-0.4
			c1.5,0.2,3.7,0.4,4.5-1.2C158.4,117.8,159.1,118.1,158.8,118.5L158.8,118.5z"/>
	</g>
	<g>
		<path class="st5" d="M152.6,109.4c-0.7,0.8-1.4,1.7-1.7,2.7c-0.4,1.1-0.1,2.2-0.2,3.3c-0.2,2-1.1,3.9-2.6,5.4
			c-0.3,0.3-0.8-0.2-0.5-0.5c1.4-1.5,2.3-3.4,2.4-5.5c0-0.6,0-1.2,0-1.8c0-0.5,0.2-1,0.4-1.5c0.4-1,1.1-1.8,1.7-2.6
			C152.4,108.5,152.9,109,152.6,109.4L152.6,109.4z"/>
	</g>
	<g>
		<path class="st5" d="M145.8,124.4c-0.6-0.7-1.2-1.4-1.8-2.1c-0.1-0.1-0.2-0.4,0-0.5c0.1-0.1,0.4-0.2,0.5,0
			c0.6,0.7,1.2,1.4,1.8,2.1c0.1,0.1,0.2,0.4,0,0.5C146.2,124.5,146,124.6,145.8,124.4L145.8,124.4z"/>
	</g>
	<g>
		<path class="st5" d="M153.1,116.8c-0.9,0.2-1.6-0.5-1.8-1.3c-0.3-0.9,0.3-1.9,0.8-2.6c0.1,0.2,0.1,0.4,0.2,0.5
			c-0.8-0.1-1.3-0.9-1.4-1.7c-0.1-1,0.4-1.8,0.9-2.6c0.3-0.4,0.9,0,0.6,0.4c-0.4,0.6-0.8,1.2-0.9,2c0,0.6,0.3,1.1,0.9,1.2
			c0.2,0,0.3,0.4,0.2,0.5c-0.4,0.5-0.8,1.1-0.7,1.8c0,0.5,0.4,1.1,1,1C153.4,116,153.6,116.7,153.1,116.8L153.1,116.8z"/>
	</g>
	<g>
		<path class="st5" d="M75.6,78.9c-1.2-1.1-2.4-2.2-3.6-3.2c-0.4-0.3,0.2-0.8,0.5-0.5c1.2,1.1,2.4,2.2,3.6,3.2
			C76.4,78.7,75.9,79.2,75.6,78.9L75.6,78.9z"/>
	</g>
	<g>
		<path class="st5" d="M74,77.1c-0.5,0.7-0.8,1.6-0.9,2.4c0,0.2-0.2,0.4-0.4,0.4c-0.2,0-0.4-0.2-0.4-0.4c0-1.1,0.4-2.1,1.1-2.9
			c0.1-0.2,0.4-0.1,0.5,0C74.2,76.7,74.2,76.9,74,77.1L74,77.1z"/>
	</g>
	<g>
		<path class="st0" d="M46.5,130.1c-7.3-8.2-14.5-16.5-21.8-24.7c-0.5-0.5-0.9-1-1.2-1.6c-0.4-0.8-0.5-1.7-0.6-2.6
			c-0.5-3.8-3.2-8.1-5.2-12c-0.4-0.8-1.6-0.4-1.4,0.5c0.6,2.5,1.5,5,1,7.3c-2.7-3.2-5.8-6.1-9.2-8.5c-0.8-0.6-1.8,0.5-1.1,1.2
			l5.6,6.4C10,92.8,7,89.9,3.7,87.5C3,87,2,87.9,2.5,88.6c2,3.2,4.4,6.2,7,8.9c-2.2-2.9-4.8-5.4-7.8-7.4C1,89.6,0,90.5,0.6,91.3
			c2.1,3.2,4.6,6.2,7.5,8.9c-1.9-2.3-4.2-4.3-6.7-5.8c-0.8-0.4-1.6,0.5-1.1,1.2c2.5,3.7,5.5,7,8.8,10c1.2,1.1,2.5,2.2,4.1,2.7
			c0.9,0.3,2,0.5,2.8,0.9c1.4,0.8,2.3,2.3,3,3.7c5.4,10.1,10.8,20.2,16.2,30.3c6.2-0.7,11.5-6.4,11.8-12.7L46.5,130.1z"/>
		<g>
			<path class="st5" d="M17.3,96.9c0.4,0.5,0.5,1.1,0.4,1.8c-0.1,0.7-0.5,1.3-0.8,1.9c-0.3,0.7-0.3,1.3,0,2c0.3,0.6,0.8,1.2,1.3,1.7
				c0.3,0.3-0.2,0.8-0.5,0.5c-0.9-1-2-2.1-1.8-3.6c0.1-0.7,0.5-1.3,0.8-2c0.2-0.5,0.4-1.3,0-1.8C16.4,97.1,17,96.5,17.3,96.9
				L17.3,96.9z"/>
		</g>
		<g>
			<path class="st5" d="M7.3,89.5c1.9,2.2,3.9,4.3,6,6.3c0.3,0.3-0.2,0.8-0.5,0.5c-2.1-2-4.1-4.1-6-6.3C6.5,89.7,7,89.2,7.3,89.5
				L7.3,89.5z"/>
		</g>
		<g>
			<path class="st5" d="M4.2,90.7c2.1,2.4,4.3,4.7,6.6,6.9c0.3,0.3-0.2,0.8-0.5,0.5c-2.3-2.2-4.5-4.5-6.6-6.9
				C3.3,90.9,3.9,90.4,4.2,90.7L4.2,90.7z"/>
		</g>
		<g>
			<path class="st5" d="M3.7,95c1.5,1.3,2.9,2.6,4.4,3.9c0.4,0.3-0.2,0.8-0.5,0.5c-1.5-1.3-2.9-2.6-4.4-3.9
				C2.8,95.2,3.4,94.7,3.7,95L3.7,95z"/>
		</g>
		<g>
			<path class="st5" d="M14.2,95.7c-2.3,1.9-4.7,3.6-7.3,5c-0.4,0.2-0.8-0.4-0.4-0.6c2.5-1.4,4.9-3.1,7.2-4.9
				C14.1,94.9,14.6,95.4,14.2,95.7L14.2,95.7z"/>
		</g>
		<g>
			<path class="st5" d="M10.5,99.7c0.6,0.8,1.2,1.6,1.9,2.4c-0.1,0-0.2-0.1-0.4-0.1c0.8-0.3,1.8-0.1,2.5,0.4
				c0.8,0.6,1.3,1.4,1.8,2.2c0.2,0.4-0.4,0.8-0.6,0.4c-0.7-1.2-1.9-2.9-3.5-2.3c-0.1,0-0.3,0-0.4-0.1c-0.6-0.8-1.2-1.6-1.9-2.4
				C9.7,99.9,10.2,99.4,10.5,99.7L10.5,99.7z"/>
		</g>
	</g>
	<g>
		<path class="st2" d="M108.8,161c-0.2,1.2,0,2.4,0.5,3.5c0.1,0.2,0.1,0.4-0.1,0.5c-0.2,0.1-0.4,0.1-0.5-0.1c-0.6-1.3-0.7-2.7-0.5-4
			c0-0.2,0.3-0.3,0.4-0.3C108.7,160.7,108.8,160.8,108.8,161L108.8,161z"/>
	</g>
	<g>
		<path class="st2" d="M106.4,160.4c0.5,1.2,0.8,2.6,0.6,3.9c0,0.2-0.2,0.4-0.4,0.4c-0.2,0-0.4-0.2-0.4-0.4c0.1-1.2,0-2.4-0.5-3.6
			c-0.1-0.2-0.1-0.4,0.1-0.5C106,160.1,106.3,160.2,106.4,160.4L106.4,160.4z"/>
	</g>
	<g>
		<path class="st2" d="M81.3,160.1c-0.6,1.1-0.5,2.4,0.1,3.4c0.3,0.4-0.4,0.8-0.6,0.4c-0.8-1.2-0.9-2.9-0.1-4.2
			C80.9,159.3,81.6,159.7,81.3,160.1L81.3,160.1z"/>
	</g>
	<g>
		<path class="st2" d="M78.5,160.4c0.2,1.2,0.5,2.5,0.7,3.7c0,0.2-0.1,0.4-0.3,0.4c-0.2,0-0.4-0.1-0.4-0.3c-0.2-1.2-0.5-2.5-0.7-3.7
			c0-0.2,0.1-0.4,0.3-0.4C78.3,160.1,78.5,160.2,78.5,160.4L78.5,160.4z"/>
	</g>
	<path class="st2" d="M91.5,165.4c0,1.1,1,2,2.1,2c1.1,0,2-1,2-2.1c0-1.1-1-2-2.1-2C92.4,163.3,91.5,164.3,91.5,165.4z"/>
	<g>
		<path class="st2" d="M97.2,172.8c-0.4-0.4-0.7-0.9-0.6-1.5c0-0.5,0.7-0.5,0.7,0c0.3,5,0.3,10,0.1,15c-0.2,5-0.6,10-1.3,14.9
			c-0.1,0.7-0.2,1.4-0.3,2.1c0,0.3,0,0.7-0.2,0.9c-0.2,0.2-0.6,0.3-0.9,0.4c-1.2,0.5-2.5,0.6-3.7,0.5c-0.2,0-0.4-0.1-0.4-0.4
			c-0.1-4.3-0.3-8.5-0.4-12.8c-0.1-4.3-0.3-8.5-0.4-12.8c-0.1-2.4-0.2-4.8-0.2-7.3c0-0.5,0.7-0.5,0.7,0c0.1,4.3,0.3,8.5,0.4,12.8
			s0.3,8.5,0.4,12.8c0.1,2.4,0.2,4.8,0.2,7.3c-0.1-0.1-0.2-0.2-0.4-0.4c1.4,0.2,2.9-0.1,4.2-0.7c-0.1,0.1-0.1,0.1-0.2,0.2
			c0.6-4.2,1.1-8.4,1.4-12.7c0.3-4.2,0.4-8.5,0.4-12.7c0-2.4-0.1-4.8-0.2-7.2c0.2,0,0.5,0,0.7,0c0,0.4,0.1,0.7,0.4,1
			C98.1,172.6,97.6,173.1,97.2,172.8L97.2,172.8z"/>
	</g>
	<g>
		<path class="st2" d="M93.5,204.8c-0.4,3-0.9,6-1.3,9c-0.1,0.5-0.8,0.3-0.7-0.2c0.4-3,0.9-6,1.3-9
			C92.8,204.1,93.5,204.3,93.5,204.8L93.5,204.8z"/>
	</g>
	<g>
		<path class="st2" d="M99.1,208.3c-3.8-1.3-7.8-2.3-11.7-2.9c-1.1-0.2-2.3-0.3-3.5-0.4c-0.5,0-0.5-0.8,0-0.7
			c4.1,0.4,8.1,1.2,12,2.3c1.1,0.3,2.2,0.7,3.4,1.1C99.7,207.8,99.5,208.5,99.1,208.3L99.1,208.3z"/>
	</g>
	<g>
		<path class="st2" d="M79.9,168.4c0.5,3.6-1.1,7.1-3.5,9.8c-2.6,2.9-6.2,4.7-9.8,5.9c-1.1,0.4-2.1,0.7-3.2,1
			c-0.5,0.2-1,0.3-1.6,0.5c-0.2,0.1-0.5,0-0.7,0c0,0-0.1,0-0.1,0c-0.1,0-0.1,0-0.1-0.1c0-0.1,0-0.1,0-0.2c0,0,0,0,0,0
			c0,0,0.1-0.1-0.1,0c-0.1,0.1-0.1,0.1-0.2,0.2c0.1,0.3,0,0.4,0,0.3c-0.1-0.2,0-0.4,0.1-0.5c0.2-0.1,0.4,0,0.5,0.1
			c0.2,0.3-0.1,0.7-0.4,0.6c-0.3-0.1-0.6-0.3-0.5-0.7c0.1-0.4,0.6-0.5,1-0.4c0.5,0,1-0.2,1.5-0.3c2.1-0.6,4.2-1.3,6.1-2.1
			c3.8-1.6,7.2-4.1,9.1-7.8c1-1.9,1.5-4.1,1.2-6.2C79.1,168,79.8,168,79.9,168.4L79.9,168.4z"/>
	</g>
	<g>
		<path class="st2" d="M71,170.2c-2.9,2.4-5.3,5.3-7.3,8.5c-2,3.3-3.4,6.8-4.5,10.5c-1.3,4.3-2,8.7-2.5,13.1
			c-0.5,4.5-0.8,9-1.2,13.5c-0.4,4.6-0.7,9.3-1.1,13.9c0,0.6-0.1,1.1-0.1,1.7c0,0.5-0.8,0.5-0.7,0c0.4-4.7,0.7-9.4,1.1-14.1
			c0.4-4.6,0.7-9.1,1.2-13.7c0.5-4.5,1.2-9,2.3-13.3c1-3.8,2.4-7.4,4.3-10.8c1.8-3.3,4.1-6.4,7-8.9c0.4-0.3,0.7-0.6,1.1-0.9
			C70.8,169.4,71.3,169.9,71,170.2L71,170.2z"/>
	</g>
	<g>
		<path class="st2" d="M109.8,169.8c1,3.4,2.9,6.5,5.6,8.9c0.7,0.7,1.5,1.3,2.4,1.9c0.4,0.3,0,0.9-0.4,0.6c-3.1-2-5.6-4.9-7.1-8.3
			c-0.4-0.9-0.8-1.9-1.1-2.9C109,169.5,109.7,169.4,109.8,169.8L109.8,169.8z"/>
	</g>
	<g>
		<path class="st2" d="M114.7,169c1.3,4,2.6,8.1,3.7,12.2c1.1,4.1,2.1,8.2,2.9,12.4c0.9,4.2,1.6,8.4,2.2,12.6
			c0.6,4.2,1.1,8.4,1.4,12.6c0.4,4.2,0.6,8.4,0.7,12.7c0,0.5,0,1.1,0,1.6c0,0.5-0.7,0.5-0.7,0c-0.1-4.2-0.3-8.4-0.6-12.6
			c-0.3-4.2-0.8-8.4-1.3-12.6c-0.6-4.2-1.3-8.3-2.1-12.5c-0.8-4.2-1.8-8.3-2.8-12.4c-1.1-4.1-2.2-8.1-3.5-12.1
			c-0.2-0.5-0.3-1-0.5-1.5C113.8,168.7,114.5,168.5,114.7,169L114.7,169z"/>
	</g>
	<g>
		<path class="st6" d="M95.1,125.1c0,4.2,0.1,8.3,0.1,12.5c0,4.2,0.1,8.3,0.1,12.5c0,2.3,0,4.7,0.1,7c0,0.5-0.7,0.5-0.7,0
			c0-4.2-0.1-8.3-0.1-12.5c0-4.2-0.1-8.3-0.1-12.5c0-2.3,0-4.7-0.1-7C94.3,124.7,95.1,124.7,95.1,125.1L95.1,125.1z"/>
	</g>
	<g>
		<path class="st6" d="M94.2,125.5c-2.3-2.3-5-4.2-8-5.6c-3-1.4-6.2-2.3-9.5-2.5c-1.8-0.2-3.7-0.1-5.5,0.1c-0.1,0-0.3-0.1-0.3-0.2
			c-1.2-2.6-1.9-5.3-2-8.2c-0.1-1.4,0-2.9,0.2-4.3c0.2-1.2,0.4-2.4,0.9-3.5c0.5-1.1,1.3-2.1,2.5-2.4c0.5-0.1,0.6,0.6,0.2,0.7
			c-2.1,0.5-2.6,3.3-2.9,5.1c-0.4,2.6-0.2,5.3,0.3,7.8c0.3,1.5,0.8,2.9,1.4,4.3c-0.1-0.1-0.2-0.1-0.3-0.2c3.3-0.4,6.7-0.1,10,0.7
			c3.2,0.8,6.4,2.2,9.2,4c1.6,1,3,2.2,4.4,3.6C95,125.3,94.5,125.8,94.2,125.5L94.2,125.5z"/>
	</g>
	<g>
		<path class="st6" d="M94.6,125.2c1.8-4.1,4.6-7.7,8-10.5c1.8-1.4,3.7-2.6,5.7-3.5c0.5-0.2,1.1-0.4,1.2-1c0.1-0.6-0.1-1.2-0.2-1.7
			c-0.3-1.2-0.6-2.4-1-3.5c-1-2.5-2.4-4.9-4.2-7c-0.3-0.3,0.2-0.9,0.5-0.5c1.7,1.9,3,4,4,6.3c0.5,1.1,0.9,2.3,1.2,3.5
			c0.2,0.6,0.3,1.2,0.4,1.8c0.1,0.6,0.2,1.2-0.1,1.7c-0.3,0.5-0.8,0.8-1.4,1c-0.5,0.2-1,0.5-1.6,0.8c-1,0.5-2,1.2-2.9,1.8
			c-1.8,1.3-3.5,2.9-5,4.6c-1.7,2-3,4.2-4,6.6C95.1,126,94.4,125.7,94.6,125.2L94.6,125.2z"/>
	</g>
	<g>
		<path class="st6" d="M64.5,113.9c-0.1,6.8-0.5,13.5-1.1,20.2c-0.2,1.9-0.4,3.8-0.6,5.7c-0.1,0.5-0.8,0.5-0.7,0
			c0.7-6.7,1.3-13.5,1.5-20.2c0.1-1.9,0.1-3.8,0.2-5.7C63.8,113.4,64.5,113.4,64.5,113.9L64.5,113.9z"/>
	</g>
	<g>
		<path class="st6" d="M67,119.6c-0.9,1.8-1.8,3.5-2.7,5.3c-0.2,0.4-0.8,0.1-0.6-0.4c0.9-1.8,1.8-3.5,2.7-5.3
			C66.5,118.8,67.2,119.2,67,119.6L67,119.6z"/>
	</g>
	<g>
		<path class="st6" d="M111.7,116c1.1,3.5,1.8,7.2,2.1,10.9c0.2,3.7,0,7.4-0.7,11c-0.4,2.1-0.9,4.1-1.6,6.1
			c-0.2,0.4-0.9,0.3-0.7-0.2c2.4-6.9,3-14.4,1.7-21.6c-0.4-2-0.8-4-1.5-6C110.8,115.8,111.5,115.6,111.7,116L111.7,116z"/>
	</g>
	<g>
		<path class="st6" d="M114.1,118.1c-0.3,1.3-0.6,2.5-0.9,3.8c-0.1,0.5-0.8,0.3-0.7-0.2c0.3-1.3,0.6-2.5,0.9-3.8
			C113.5,117.4,114.2,117.6,114.1,118.1L114.1,118.1z"/>
	</g>
	<g>
		<path class="st6" d="M49.1,128.8c1.4,3.7,0.3,8.1-2.5,10.9c-0.8,0.8-1.7,1.4-2.7,1.9c-0.4,0.2-0.8-0.4-0.4-0.6
			c3.4-1.6,5.5-5.3,5.4-9c0-1.1-0.2-2.1-0.6-3.1C48.2,128.5,48.9,128.3,49.1,128.8L49.1,128.8z"/>
	</g>
	<g>
		<path class="st6" d="M51.5,134c-0.1,2.9-1.2,5.7-3.1,7.9c-0.3,0.4-0.8-0.2-0.5-0.5c1.8-2,2.8-4.7,2.9-7.4
			C50.7,133.6,51.5,133.6,51.5,134L51.5,134z"/>
	</g>
	<g>
		<path class="st6" d="M124.4,134.4c-2,2.4-3.1,5.6-3.1,8.7c0,0.5-0.7,0.5-0.7,0c0-3.4,1.1-6.7,3.3-9.2
			C124.1,133.5,124.6,134,124.4,134.4L124.4,134.4z"/>
	</g>
	<g>
		<path class="st6" d="M122,134.8c-1.4,1.9-2.4,4.1-2.6,6.5c-0.1,0.5-0.8,0.5-0.7,0c0.3-2.5,1.2-4.8,2.7-6.8
			C121.7,134.1,122.3,134.5,122,134.8L122,134.8z"/>
	</g>
	<g>
		<path class="st6" d="M97.8,140.6c-4-0.5-8.1-0.4-12.1,0.2c-0.5,0.1-0.7-0.6-0.2-0.7c4.1-0.6,8.2-0.7,12.3-0.2
			C98.3,139.9,98.3,140.6,97.8,140.6L97.8,140.6z"/>
	</g>
	<g>
		<path class="st6" d="M98.4,144.1c-2.6-0.4-5.3-0.4-7.9-0.1c-0.5,0.1-0.5-0.7,0-0.7c2.7-0.3,5.4-0.3,8.1,0.1
			C99,143.4,98.8,144.2,98.4,144.1L98.4,144.1z"/>
	</g>
	<g>
		<g>
			<defs>
				<path id="SVGID_1_" d="M75.6,321.9c-5.3,0-10.5,0.1-15.8,0.3c-0.3,7.9-0.7,15.8-1.2,23.7c10.4-0.3,20.7-0.2,31.1,0.2
					c1.2,0.1,1.6-1.5,0.6-2.1C84.3,341,77.4,335.8,75.6,321.9L75.6,321.9z"/>
			</defs>
			<use xlink:href="#SVGID_1_"  style="overflow:visible;fill:#DB4345;"/>
			<clipPath id="SVGID_2_">
				<use xlink:href="#SVGID_1_"  style="overflow:visible;"/>
			</clipPath>
			<g class="st7">
				<path class="st8" d="M90.5,343.5c-5.6,0.2-11.3,0.4-16.9,0.5c-5.6,0.2-11.2,0.4-16.8,0.5c-3.2,0.1-6.3,0.2-9.5,0.3
					c-0.5,0-0.5-0.7,0-0.7c5.6-0.2,11.3-0.4,16.9-0.5c5.6-0.2,11.2-0.4,16.8-0.5c3.2-0.1,6.3-0.2,9.5-0.3
					C91,342.8,91,343.5,90.5,343.5L90.5,343.5z"/>
			</g>
			<g class="st7">
				<path class="st8" d="M57.5,337.1c3.8,0.7,7.2,3.2,8.9,6.6c0.2,0.4-0.4,0.8-0.6,0.4c-1.7-3.3-4.8-5.6-8.5-6.3
					C56.9,337.8,57.1,337.1,57.5,337.1L57.5,337.1z"/>
			</g>
			<g class="st7">
				<path class="st8" d="M83.8,339.3c-1.9,0.1-3.6,1.6-4.2,3.4c-0.1,0.4-0.8,0.3-0.7-0.2c0.6-2.2,2.6-3.8,4.9-3.9
					C84.3,338.5,84.2,339.2,83.8,339.3L83.8,339.3z"/>
			</g>
			<g class="st7">
				<path class="st8" d="M81.7,333.4c-3,0.1-5.7,2.4-6.4,5.3c-0.1,0.5-0.8,0.3-0.7-0.2c0.8-3.2,3.8-5.6,7.1-5.8
					C82.2,332.6,82.2,333.3,81.7,333.4L81.7,333.4z"/>
			</g>
			<g class="st7">
				<path class="st8" d="M79.4,331.6c-2.5,0.6-4.7,2-6.3,4c-0.3,0.4-0.8-0.2-0.5-0.5c1.7-2.1,4-3.5,6.6-4.1
					C79.7,330.8,79.9,331.5,79.4,331.6L79.4,331.6z"/>
			</g>
			<path class="st9" d="M63.7,330.3c0,1.1,1,2,2.1,2c1.1,0,2-1,2-2.1c0-1.1-1-2-2.1-2C64.5,328.2,63.6,329.2,63.7,330.3z"/>
		</g>
	</g>
	<g>
		<g>
			<defs>
				<path id="SVGID_3_" d="M112.1,319c-5.2-0.5-10.5-1-15.8-1.4c-1.1,7.8-2.4,15.7-3.7,23.5c10.3,0.8,20.6,2,30.9,3.6
					c1.2,0.2,1.8-1.4,0.8-2C118.6,338.9,112.4,333,112.1,319L112.1,319z"/>
			</defs>
			<use xlink:href="#SVGID_3_"  style="overflow:visible;fill:#DB4345;"/>
			<clipPath id="SVGID_4_">
				<use xlink:href="#SVGID_3_"  style="overflow:visible;"/>
			</clipPath>
			<g class="st10">
				<path class="st8" d="M124.6,342.1c-5.6-0.4-11.2-0.9-16.9-1.3c-5.6-0.4-11.2-0.9-16.8-1.3c-3.2-0.2-6.3-0.5-9.5-0.7
					c-0.5,0-0.5-0.8,0-0.7c5.6,0.4,11.2,0.9,16.9,1.3c5.6,0.4,11.2,0.9,16.8,1.3c3.2,0.2,6.3,0.5,9.5,0.7
					C125.1,341.4,125.1,342.1,124.6,342.1L124.6,342.1z"/>
			</g>
			<g class="st10">
				<path class="st8" d="M92.4,332.1c2.9,0.8,5.4,2.8,7,5.3c0.5,0.7,0.8,1.5,1.1,2.3c0.2,0.4-0.5,0.6-0.7,0.2
					c-1.3-3.4-4.2-6.1-7.7-7.1C91.8,332.7,92,332,92.4,332.1L92.4,332.1z"/>
			</g>
			<g class="st10">
				<path class="st8" d="M118.4,337.1c-1.9-0.1-3.8,1.1-4.5,2.9c-0.1,0.2-0.2,0.3-0.4,0.3c-0.2,0-0.3-0.3-0.3-0.4
					c0.9-2.1,3-3.5,5.2-3.4C118.8,336.4,118.8,337.1,118.4,337.1L118.4,337.1z"/>
			</g>
			<g class="st10">
				<path class="st8" d="M117,331c-3-0.2-5.9,1.7-6.9,4.5c-0.2,0.4-0.9,0.2-0.7-0.2c1.1-3.1,4.3-5.2,7.6-5
					C117.4,330.3,117.4,331,117,331L117,331z"/>
			</g>
			<g class="st10">
				<path class="st8" d="M114.8,329c-2.5,0.3-4.8,1.5-6.6,3.2c-0.3,0.3-0.8-0.2-0.5-0.5c1.9-1.9,4.4-3.1,7.1-3.4
					C115.2,328.2,115.2,328.9,114.8,329L114.8,329z"/>
			</g>
			<path class="st11" d="M99.3,326c-0.1,1.1,0.8,2.1,1.9,2.2c1.1,0.1,2.1-0.8,2.2-1.9c0.1-1.1-0.8-2.1-1.9-2.2
				C100.4,324,99.4,324.8,99.3,326z"/>
		</g>
	</g>
	<g>
		<path class="st5" d="M75.3,251.3c1.3,1.7,0.6,4.4-1.3,5.3c-0.4,0.2-0.8-0.4-0.4-0.6c1.6-0.7,2.1-2.9,1-4.3c-0.1-0.2,0-0.4,0.1-0.5
			C75,251,75.2,251.1,75.3,251.3L75.3,251.3z"/>
	</g>
	<g>
		<path class="st5" d="M124.4,252.5c1,1.9,0.3,4.5-1.5,5.6c-0.4,0.2-0.8-0.4-0.4-0.6c1.5-0.9,2.1-3,1.2-4.6
			C123.5,252.5,124.2,252.1,124.4,252.5L124.4,252.5z"/>
	</g>
	<g>
		<path class="st6" d="M83,152.4c-0.3,1-0.5,1.9-0.8,2.9c-0.1,0.5-0.8,0.3-0.7-0.2c0.3-1,0.5-1.9,0.8-2.9
			C82.4,151.8,83.1,152,83,152.4L83,152.4z"/>
	</g>
	<g>
		<path class="st6" d="M78.8,151.9c0.4,1.1,0.7,2.2,1.1,3.3c0.1,0.4-0.6,0.6-0.7,0.2c-0.4-1.1-0.7-2.2-1.1-3.3
			C77.9,151.7,78.6,151.5,78.8,151.9L78.8,151.9z"/>
	</g>
	<g>
		<path class="st6" d="M103.8,155.6c-0.3,0.6-0.6,1.3-0.9,1.9c-0.1,0.2-0.3,0.2-0.5,0.1c-0.2-0.1-0.2-0.3-0.1-0.5
			c0.3-0.6,0.6-1.3,0.9-1.9c0.1-0.2,0.3-0.2,0.5-0.1C103.8,155.2,103.9,155.4,103.8,155.6L103.8,155.6z"/>
	</g>
	<g>
		<path class="st6" d="M101.5,155c0,0.3,0,0.6,0,0.9c0,0.2-0.2,0.4-0.4,0.4c-0.2,0-0.4-0.2-0.4-0.4c0-0.3,0-0.6,0-0.9
			c0-0.2,0.2-0.4,0.4-0.4C101.4,154.7,101.5,154.8,101.5,155L101.5,155z"/>
	</g>
	<path d="M102.5,55.3c0.3,2.1-1.4,1.9-2.2,3.8c-0.8,1.9-2.5,3.5-4.6,3.8C94.1,63,92.5,62.4,91,62c-1.5-0.4-3.4-0.4-4.5,0.6
		c-1.7,1.5-1.1,4.5-2.4,6.3c-1.8,2.5-5.6,1.7-8.6,2.3c-2.5,0.4-4.8,1.9-6.1,4.1c1.5-3.1,2.2-6.6,2.1-10c-0.1-3.9-1.2-8.2,1.1-11.4
		c1.9-2.6,5.4-3.4,8.5-3.9c3.4-0.6,6.9-1.2,10.4-1c3.5,0.2,7,1.2,9.6,3.6L102.5,55.3z"/>
	<path d="M72.7,51.7c2-2.7,1.1-7.2-1.8-8.9c-2.9-1.7-7.3-0.4-8.7,2.7c-0.3,0.6-0.4,1.2-0.9,1.7c-0.8,0.9-2.2,1.1-3.3,1.6
		c-1.8,0.8-2.9,2.8-3.2,4.7c-0.5,3.6,1.5,7.5,4.8,9.1c3.3,1.6,7.6,0.8,10.1-1.8L72.7,51.7z"/>
	<g>
		<path class="st3" d="M68.6,57.4c0.9-1.1,1.6-2.4,2-3.8c0.2-0.7,0.4-1.4,0.4-2.2c0-0.6,0.1-1.2-0.2-1.7c-0.3-0.4-0.8-0.6-1.2-0.3
			c-0.4,0.3-0.7,0.8-0.9,1.3c-0.4,1.2-0.3,2.4,0,3.5c0.3,1.4,0.8,2.8,0.8,4.3c0,0.4-0.5,0.4-0.7,0.2c-0.7-0.9-1.8-1.5-2.9-2
			c-1.2-0.4-2.4-0.7-3.7-0.6c-1.1,0.1-2.4,0.5-3,1.6c-0.1,0.3-0.2,0.6,0,0.9c0.2,0.3,0.6,0.4,1,0.5c0.8,0.2,1.7,0.4,2.5,0.4
			c1.9,0.1,3.8-0.4,5.5-1.3c0.2-0.1,0.5,0,0.5,0.2c0.5,2.7,1,5.3,1.5,8c0.1,0.5-0.6,0.7-0.7,0.2c-0.5-2.7-1-5.3-1.5-8
			c0.2,0.1,0.4,0.1,0.5,0.2c-1.7,0.9-3.6,1.4-5.5,1.4c-1,0-1.9-0.1-2.9-0.4c-0.8-0.2-1.7-0.6-1.8-1.6c-0.1-0.8,0.5-1.6,1.2-2.1
			c0.5-0.4,1.1-0.6,1.7-0.7c1.4-0.3,2.9-0.1,4.2,0.3c1.5,0.5,2.9,1.3,3.9,2.5c-0.2,0.1-0.5,0.1-0.7,0.2c-0.1-2.8-1.9-5.6-0.7-8.3
			c0.5-1.1,1.7-2.3,2.9-1.3c0.5,0.4,0.7,1.1,0.7,1.7c0,0.8-0.1,1.6-0.3,2.4c-0.4,1.8-1.3,3.5-2.4,4.9C68.8,58.3,68.3,57.8,68.6,57.4
			L68.6,57.4z"/>
	</g>
	<g>
		<path class="st3" d="M68.6,57.9c2.7,1.2,5.3,2.7,7.8,4.3c0.4,0.3,0,0.9-0.4,0.6c-2.5-1.6-5.1-3-7.8-4.3
			C67.8,58.3,68.2,57.7,68.6,57.9L68.6,57.9z"/>
	</g>
	<path d="M76.2,70.1c0.7-0.1,1.3,0.2,1.7,0.7s0.5,1.3,0.2,1.9c-0.2,0.5-0.7,0.9-0.9,1.3c-0.3,0.6-0.3,1.4,0.1,1.9
		c0.4,0.5,1.4,0.5,1.7,0c-0.9,0.8-2.5,0.5-3.2-0.4c-0.6-0.8-0.5-1.9-0.8-2.9c-0.2-1-1-2-2-1.9L76.2,70.1z"/>
	<g>
		<path d="M73.4,48.9c0.4-2.2-0.7-4.6-2.4-5.9c-1.8-1.4-4.2-1.5-6.2-0.6c-1,0.4-1.9,1.1-2.5,2c-0.4,0.5-0.6,1.1-1,1.6
			c-0.4,0.5-0.9,0.8-1.4,1c-1.1,0.5-2.4,0.5-3.4,1.3c-0.9,0.7-1.6,1.8-1.8,3c-0.4,2.8,1.8,5.4,3.9,7c0.4,0.3,0,0.9-0.4,0.6
			c-2.1-1.6-4.1-3.9-4.3-6.7c-0.1-1.3,0.3-2.6,1.2-3.7c0.8-1,1.9-1.6,3.2-2c0.7-0.2,1.3-0.3,1.9-0.7c0.6-0.4,0.9-1,1.2-1.6
			c0.6-1,1.5-1.9,2.6-2.4c2.1-1.1,4.8-1.2,6.9,0.1c2.4,1.5,3.7,4.3,3.2,7.1C74,49.5,73.3,49.3,73.4,48.9L73.4,48.9z"/>
	</g>
	<g>
		<path d="M74.4,48.9c4.6-1.3,9.4-1.9,14.2-1.8c4.1,0,8.6,0.8,11.6,3.8c1.5,1.5,2.6,3.4,2.8,5.5c0,0.5-0.7,0.5-0.7,0
			c-0.4-3.7-3.6-6.5-7-7.6c-2-0.7-4.2-0.9-6.3-1c-2.3-0.1-4.6,0.1-6.8,0.3c-2.6,0.3-5.1,0.8-7.6,1.5C74.2,49.7,74,49,74.4,48.9
			L74.4,48.9z"/>
	</g>
	<g>
		<path d="M101.1,52.8c3.7,0.8,6.5,3.9,6.8,7.7c0.2,2-0.3,4-1.4,5.6c-1.1,1.7-2.5,3.2-2.7,5.3c-0.3,2.4,0.6,4.8,1.4,7.1
			c0.2,0.4-0.5,0.6-0.7,0.2c-0.8-1.9-1.5-4-1.5-6.1c0-1,0.1-2.1,0.5-3c0.4-0.9,0.9-1.7,1.4-2.4c0.5-0.8,1.1-1.5,1.5-2.4
			c0.4-0.9,0.7-1.8,0.7-2.8c0.1-1.9-0.4-3.8-1.5-5.3c-1.2-1.6-2.9-2.7-4.8-3.1C100.5,53.4,100.7,52.7,101.1,52.8L101.1,52.8z"/>
	</g>
	<g>
		<path class="st5" d="M95,70.5c0,2.8,0.2,6.1,2.7,7.9c0.2,0.1,0.2,0.3,0.1,0.5c-0.7,1-1.6,1.8-2.7,2.2c-0.4,0.2-0.6-0.5-0.2-0.7
			c0.9-0.4,1.7-1,2.3-1.9c0,0.2,0.1,0.3,0.1,0.5c-2.7-2-3-5.5-3-8.5C94.3,70.1,95,70.1,95,70.5L95,70.5z"/>
	</g>
	<path d="M97.4,74.3c0,1,0.6,1.8,1.3,1.8c0.7,0,1.2-0.9,1.2-1.9s-0.6-1.8-1.3-1.8C97.9,72.5,97.4,73.3,97.4,74.3z"/>
	<path d="M86.6,74.7c0,1,0.6,1.8,1.3,1.8c0.7,0,1.2-0.9,1.2-1.9c0-1-0.6-1.8-1.3-1.8C87.1,72.9,86.6,73.7,86.6,74.7z"/>
	<path d="M89.9,65.7c0.4,0.8-0.2,1.9-1.1,2c-0.4,0-0.8-0.1-1.2-0.2c-1.3-0.3-2.7,0.3-3.6,1.3c0.3-2.3,2.7-4.2,5-3.8
		C89.5,65.1,90,65.3,89.9,65.7L89.9,65.7z"/>
	<path d="M94.7,65c-0.4,0.8,0.3,1.9,1.2,1.9c0.4,0,0.8-0.2,1.2-0.3c1.3-0.3,2.8,0.1,3.7,1.1c-0.4-2.3-3-4-5.3-3.5
		C95.1,64.3,94.6,64.6,94.7,65L94.7,65z"/>
	<g>
		<path class="st3" d="M150.4,38.6c-6-2.7-14.7-6.4-20.4-1.3c-5.2,4.8-12.7,9.9-20.9,9.7c-3.4-0.1-8.7-2.2-11.7-4.4
			c-9.7-7.4-17.3-9-29.6-6.2c5.3-9.3,10-11.9,17-12.8C82.8,19,75.3,14,69.7,13c6.5-3.9,15.8-3.8,22.5-0.5c5.5,2.7,9.4,5.1,15.3,4.7
			c7.6-0.5,14.8-3.9,20.8-10c6.1-6,15.4-10.2,21.6-4.4L150.4,38.6z"/>
	</g>
	<g>
		<path class="st2" d="M97.2,208.9c-3.6-1.9-7.2-3.7-10.9-5.4c-1-0.5-2.1-0.9-3.1-1.4c-0.2-0.1-0.2-0.3-0.1-0.5
			c0.1-0.2,0.3-0.2,0.5-0.1c3.7,1.6,7.4,3.3,11,5.2c1,0.5,2,1.1,3,1.6C97.9,208.5,97.6,209.1,97.2,208.9L97.2,208.9z"/>
	</g>
	<g>
		<path class="st5" d="M93.9,83.3c-0.5,0.4-1.2,0.4-1.8,0.2c-0.6-0.2-1.1-0.6-1.4-1.3c-0.1-0.2,0.1-0.4,0.3-0.4
			c0.2-0.1,0.4,0.1,0.4,0.3c0-0.1,0,0,0,0c0,0,0,0.1,0,0.1c0,0.1,0.1,0.1,0.1,0.1c0,0,0,0,0,0c0,0,0,0,0.1,0.1c0,0,0.1,0.1,0.1,0.1
			c0,0,0,0,0,0c0,0,0.1,0,0.1,0.1c0,0,0.1,0.1,0.2,0.1c0,0,0.1,0,0.1,0c0.1,0,0,0,0,0c0.1,0,0.1,0,0.2,0.1c0.1,0,0.1,0,0.2,0
			c0,0,0.1,0,0,0c0,0,0.1,0,0.1,0c0.1,0,0.2,0,0.4,0c-0.1,0,0,0,0,0c0,0,0.1,0,0.1,0c0.1,0,0.1,0,0.2-0.1c0,0,0.1,0,0,0
			c0,0,0.1,0,0.1,0c0.1,0,0.1-0.1,0.2-0.1c0.2-0.1,0.4,0,0.5,0.1C94.2,82.9,94.1,83.1,93.9,83.3L93.9,83.3z"/>
	</g>
	<g>
		<path class="st12" d="M97.8,96c0.4,2.3,0.5,4.7,0.1,7.1c-0.3,2.1-1,4.2-1.9,6.1c-1.8,3.9-4.4,7.3-6.9,10.7
			c-1.3,1.8-2.6,3.7-3.7,5.7c-0.1,0.2-0.5,0.3-0.6,0c-2.9-6.8-5.5-13.7-7.8-20.8c-0.6-2-1.3-3.9-1.8-5.9c-0.1-0.4,0.6-0.6,0.7-0.2
			c2.1,7,4.5,13.9,7.2,20.8c0.8,1.9,1.5,3.8,2.4,5.8c-0.2,0-0.4,0-0.6,0c1.9-3.6,4.5-6.8,6.8-10.1c2.4-3.4,4.6-7.1,5.4-11.3
			c0.5-2.5,0.5-5.1,0-7.7C97,95.8,97.7,95.6,97.8,96L97.8,96z"/>
	</g>
	<path class="st8" d="M93.1,126.2c0,0-8.7-0.4-11.8-0.4c-1.2,0-2.3,1-2.3,2.2v5c0,1.2,1,2.2,2.2,2.2c2.5,0,6.8,0,9.4,0
		c1.3,0,2.4-1.1,2.4-2.4V126.2L93.1,126.2z"/>
	
		<rect x="88.8" y="128.8" transform="matrix(-1 -4.581325e-11 4.581325e-11 -1 179.7574 261.8743)" class="st12" width="2.2" height="4.4"/>
	<g>
		<path class="st12" d="M87,129.9c-2.1,0-4.3,0-6.4,0c-0.5,0-0.5-0.7,0-0.7c2.1,0,4.3,0,6.4,0C87.5,129.1,87.5,129.9,87,129.9
			L87,129.9z"/>
	</g>
	<g>
		<path class="st12" d="M86.8,131.8c-0.7,0-1.5,0-2.2,0c-0.2,0-0.4-0.2-0.4-0.4c0-0.2,0.2-0.4,0.4-0.4c0.7,0,1.5,0,2.2,0
			c0.2,0,0.4,0.2,0.4,0.4C87.1,131.7,87,131.8,86.8,131.8L86.8,131.8z"/>
	</g>
	<g>
		<path class="st12" d="M82.6,131.8c-0.6,0-1.2,0-1.7,0c-0.2,0-0.4-0.2-0.4-0.4c0-0.2,0.2-0.4,0.4-0.4c0.6,0,1.2,0,1.7,0
			c0.2,0,0.4,0.2,0.4,0.4C82.9,131.7,82.8,131.8,82.6,131.8L82.6,131.8z"/>
	</g>
	<g>
		<path class="st12" d="M86.8,133.8c-1.9,0-3.8,0-5.7,0c-0.5,0-0.5-0.7,0-0.7c1.9,0,3.8,0,5.7,0C87.3,133.1,87.3,133.8,86.8,133.8
			L86.8,133.8z"/>
	</g>
	<g>
		<path class="st8" d="M94.4,26.4l0.5,5.4c0,0.3,0.1,0.5,0.2,0.6c0.1,0.1,0.2,0.1,0.4,0.1l1.6-0.2l0.2,1.9l-1.6,0.2
			c-0.8,0.1-1.4-0.1-1.7-0.5c-0.4-0.4-0.6-1.1-0.7-2l-0.5-5.3l-1.5,0.1l-0.2-1.9l1.5-0.1l-0.2-2.4L94,22l0.2,2.4l2.1-0.2l0.2,1.9
			L94.4,26.4z"/>
		<path class="st8" d="M102.5,30.3l-0.9,4.9l-1.8-0.3l1.9-9.6l1.8,0.3l-0.2,1.2c0.4-0.4,0.9-0.6,1.5-0.7c0.4-0.1,1,0,1.7,0.1
			l-0.4,1.9C104,27.8,102.9,28.5,102.5,30.3z"/>
		<path class="st8" d="M111.8,37.7c-0.1-0.5-0.1-0.9-0.1-1.3c-1,0.8-2.1,1-3.2,0.8c-0.8-0.1-1.5-0.5-1.9-1.1
			c-0.5-0.6-0.6-1.3-0.5-2.1c0.2-1.2,0.9-2.1,2-2.5c1-0.4,2.5-0.5,4.4-0.2c0.1-1.2-0.4-1.9-1.5-2.1c-0.8-0.1-1.5,0.2-2.1,1l-1.5-1.1
			c1-1.4,2.4-1.9,4-1.7c1.2,0.2,2,0.8,2.5,1.6c0.4,0.8,0.6,1.9,0.3,3.2l-0.7,4.1c-0.1,0.4-0.1,1,0,1.6L111.8,37.7z M107.9,34.4
			c-0.1,0.5,0.2,0.9,0.9,1s1.4,0,2-0.4c0.6-0.4,1.1-1,1.3-1.8C109.5,32.8,108.1,33.2,107.9,34.4z"/>
		<path class="st8" d="M124.7,36.5l-1.7,0.6l-6.7-8.1l1.8-0.6l4.9,6l0.1-7.7l1.8-0.6L124.7,36.5z"/>
		<path class="st8" d="M134.5,30.4c-1,0.8-2,1-3.2,0.6c-1.1-0.3-2.1-1.1-3-2.3c-1-1.2-1.4-2.4-1.3-3.7c0-1.1,0.5-2,1.4-2.7
			c0.8-0.7,1.8-0.9,2.9-0.7c1.1,0.2,2.1,0.9,3,2l0.6,0.7l-4.7,3.7c1.2,1.3,2.3,1.6,3.3,0.9c0.7-0.6,0.9-1.5,0.7-2.9l1.8-0.2
			C136.2,27.9,135.7,29.5,134.5,30.4z M129.4,23.9c-0.8,0.6-0.9,1.5-0.5,2.6l3-2.4C131,23.4,130.2,23.3,129.4,23.9z"/>
		<path class="st8" d="M139.7,26.2l-8.1-12.1l1.5-1l8.1,12.1L139.7,26.2z"/>
	</g>
</g>
</svg>
