<svg xmlns="http://www.w3.org/2000/svg" xmlns:xlink="http://www.w3.org/1999/xlink" width="206.6" height="196.1" style="overflow:visible;enable-background:new 0 0 206.6 196.1" xml:space="preserve">
    <style>
        .st0{fill:#f6a472}.st1{fill:#010101}.st2{fill:#8ca3c4}.st4{fill:#363745}.st5{fill:#a3b8d9}.st6{fill:#4a201e}.st9{fill:#9b6026}.st10{fill:#fff}
    </style>
    <path class="st0" d="M121.6 160.9c-1.5 4-2.9 8.1-4.2 12.1 2.9 1.9 6.7 2.5 10.1 1.5.4-.1.7-.2 1.1-.5.3-.3.5-.6.8-1 2.5-4.2 3.1-8.6 5.6-12.8l-13.4.7zm-85.1-24.4c-4.6 2.6-18.8 6.8-20.9 7.7s-3.9 2.5-4.3 4.6c-.2 1.3.1 2.6.4 3.8.4 1.4.8 2.8 1.9 3.8 1.2 1.1 2 0 3.6-.2s17-5.5 22.7-8.1c.4-.2.9-.4 1.1-.8.2-.4.2-.8.1-1.2-.2-3.1-1.1-6.2-2.6-9.1-.4-.8-1.3-1.6-1.9-1l-.1.5z"/>
    <path class="st1" d="M143.5 31.2c.5.5 1.2.9 1.7 1.4 1.3 1.3 1.7 3.1 2.9 4.5 1.2 1.3 4.2 1.4 4.5-.3l21.7.6c-.2.7.8 1.2 1.5 1.1.8-.1 1.4-.6 2.1-.8 1-.3 2.1 0 3.2-.3 1-.3 1.8-1.6 1-2.2 1.1.6 2.6.4 3.5-.4.9-.9 1-2.3.3-3.3 2.3-.1 3.4-3.5 1.5-4.7.3-.4.5-.9.7-1.3.5-.2.9-.5 1.1-1 .3-.6.2-1.4-.3-1.8V22c1.1-.6 1.8-1.9 1.6-3-.2-1.2-1.3-2.2-2.5-2.5v-.2c1.2-.4 2.1-1.7 1.8-2.9-.2-1.1-1.2-1.9-2.4-2 0-.4-.1-.8-.2-1.2.5-.9.6-2 0-2.9-.7-1.1-2.6-1.2-3.5-.4-.3 0-.6-.1-.9 0 1.3-1.4.5-3.9-1.3-4.6-1.8-.7-4.1.2-5.1 1.8-.2-1.5-1.5-2.9-3.1-3.1-1.6-.2-3.4.7-4 2.1.3-2-2.6-3.3-4.6-2.6-2 .8-3.2 2.7-4.1 4.5-.4-1.9-3.2-2.5-4.9-1.5-1.7 1-2.5 3-3 4.8-1.2-1.4-3.8-.6-4.7 1-.9 1.6-.6 3.5-.2 5.2-1.7-.3-3.4 1.1-3.8 2.6-.5 1.6-.1 3.2.3 4.8 0-.1-1.3.6-1.4.7-.5.4-.9.8-1.2 1.4-.7 1.3-.4 2.8.7 3.9.5.5 1.1.8 1.4 1.4.4.7.1 1.4 0 2.1-.2 1-.4 2-.1 3 .4 1.3 1.7 1.6 2.9 1.2.4-.1.7-.3 1.1-.5-1 .5-1.2 1.9-.7 2.8.5.9 1.7 1.4 2.8 1.2 1.1-.2 2-1 2.5-1.9.2 1.1 1.6 1.7 2.7 1.3 1.1-.4 1.8-1.4 2.1-2.5 0-.2-.1-.4-.2-.3l-13.4-4.5z"/>
    <path class="st0" d="M181.7 24.4c.3 3.5-1 10.6-1 10.6l5.2 4-6 1.5-1.8 7.2c-.2.8-.4 1.7-1 2.3-1.4 1.4-3.7.6-5.4-.3-2.8-1.5-5.4-3.3-7.8-5.4l-5.8 5.8c-3.1-2.7-6.6-4.9-10.3-6.7 3.4-2.8 6.6-6 9.4-9.4-1.5 1.1-3.9 0-4.4-1.8-.5-1.8.7-3.8 2.4-4.5 1.7-.8 3.8-.4 5.4.5 1.2-2.3 1.9-4.8 2.2-7.4l18.9 3.6zm-30.9 36c1.8 4.8 3.6 9.7 5.4 14.5 2.1 5.6 4.2 11.2 7.7 15.9 2.2 2.9 4.9 5.4 7.6 7.9l11.4 10.5c3.1 2.8 6.2 5.8 8 9.6 1.1 2.5 1.9 5.4 3.6 7.4.5.6 1.5.1 1.3-.7-.4-1.8-.9-3.6-1.3-5.4 1.4 2.6 4.7 5.9 6.5 8.2.5.7 1.6.1 1.3-.7-.8-2.3-4.1-6.4-5.3-8.5l5.5 8.3c.3.4 1 .1.8-.4l-3.3-9.3c1.2 1.9 3.4 4.3 5.5 5.2.7.3 1.4-.5 1-1.2l-7.3-10h5.3c.8 0 1.1-1 .4-1.4-3.5-2.1-7.4-3.5-11.4-4-.7-.1-1.4-.2-2-.5-.7-.4-1.1-1-1.5-1.7-2.5-3.8-4.9-7.7-7.4-11.5-2.7-4.2-5.5-8.6-9.5-11.6-.7-.5-1.5-1.1-2-1.8-.6-.9-.9-1.9-1.1-2.9-.7-3.4-1.5-6.8-2.2-10.1-.6-2.6-1.3-5.4-3.5-6.8-1.2-.8-2.6-1-4-1-3.3-.2-6.6.4-9.7 1.5l.2.5zm-44.5 1.7c-7.7 8.3-19.2 12-27.5 19.7-2.9 2.7-5.6 6-9.3 7.5-4.1 1.6-9.2.9-12.6 3.8-1 .9-1.6 2.8-.4 3.4-.9.1-1.5.9-1.5 1.8.1.9.9 1.6 1.7 1.6-.8.4-1.2 1.6-.7 2.4.5.8 1.7 1.1 2.5.6-.4 1 .9 2 2 1.9s2-.9 2.8-1.5c.9-.7 1.9-1.3 3-1.2-.9 1-1 2.9-1 4.6 0 .9 1.3 1.3 1.7.5l3.4-5.6c1.8-2.9 3.6-5.9 6.4-7.9 3.4-2.4 7.8-2.8 11.8-4.1 10-3.4 17.1-12.7 27.1-16.1.5-.2 1-.3 1.2-.8.2-.3.1-.7.1-1-.6-5-5.2-9.1-10.2-9.2l-.5-.4z"/>
    <path class="st2" d="M84.6 91.6c-2 2.5-3.2 5.5-3.4 8.7-.1 1.6 0 3.2-.3 4.7-.5 2.4-2.1 4.5-3.7 6.4-13.5 15.3-34 22-53.4 28.1 3 7.6 6 15.2 9.1 22.8 29.9-3.3 60-15.7 78.6-39.3 4.7 1.8 9.5 3.5 14.2 5.3 1 .4 2.1.8 2.8 1.6 1.3 1.4 1.1 3.7.8 5.6-1.6 9-4.4 17.8-8.4 26.1 6.9 1.7 14 2.8 21.2 3.1.6 0 1.3 0 1.9-.3.6-.3 1-1 1.3-1.6 3.5-6.5 7-12.9 10.5-19.4 3-5.6 6.2-11.9 4.8-18.2-1.2-5.6-5.8-9.8-10.2-13.4-6.1-5-12.6-9.9-20.1-12.2-5.1-1.6-11.1-2.4-13.9-6.9l-31.8-1.1z"/>
    <path d="M113.4 177.6c-.2.9-.3 2 .2 2.8.7 1 2.2 1.1 3.4 1.1 10.6-.1 21.2-.5 31.8-1.1.5 0 .9-.1 1.3-.4.5-.4.5-1.3.2-1.9-.4-.6-1-1-1.6-1.3-2.4-1.3-4.8-2.4-7.4-3.2-1.4-.4-2.8-.8-3.9-1.7-1.5-1.2-2.5-3.3-4.5-3.4-1.4-.1-2.6 1.1-3.7 2-1.6 1.3-3.8 2.3-5.9 1.8-1.4-.4-2.6-1.3-3.9-2-1.3-.7-3-.9-4.1 0 .1.3-1.6 6-1.9 7.3zm-98.2-31.2c1.2-1.4.6-3.5-1.1-4.1-1.7-.6-3.4-1.2-5.2-1.6-1.4-.3-3.1-.5-4.2.5-.8.7-1 1.8-1.2 2.8-2.1 11-4.2 22.3-3.2 33.5.1.8.2 1.6 1.1 2 .8.4 1.8.2 2.4-.5 1.4-1.5 6.4-14.6 10.8-17.8 1.1-.8 2.3-1.7 3-2.9.7-1.2.8-2.9-.2-3.9-1.1-1-2.9-1-3.9-2.1-1.5-1.6-.1-4.1 1.5-5.7l.2-.2z" style="fill:#e15147"/>
    <path class="st4" d="M151.5 181.3c.7 2.1 1 4.2 1 6.4.6 0 1.3-.1 1.9-.4 0-2.5.4-5 1.2-7.4-1.5-.1-3.1.4-4.2 1.4h.1zM92 184.6c1.1 2.5 1.9 5.1 2.2 7.8.8-.4 1.7-.6 2.6-.6-.3-2.6-.1-5.2.6-7.7-1.9-.1-3.8-.1-5.7.1l.3.4z"/>
    <path class="st2" d="M71.9 183c-1.2-.4-2.6-1.7-1.7-2.6.2-.2.4-.3.7-.3 3.9-.6 7.3 2.2 11 3.3 2.9.8 5.9.6 8.9.4 17.8-1.4 35.6-2.7 53.4-4.1 4.5-.3 9-.7 13.3-2 3.7-1.2 7.2-3.1 10.9-4.3.9-.3 1.9-.5 2.7.3.4.4.6 1 .5 1.6-.2 1.2-1.1 2.1-2 2.8-4.4 3.6-23.3 5.6-23.3 5.6l-44.5 3.4c-7.8.6-15.6-.1-23.1-2.2l-6.8-1.9z"/>
    <path class="st4" d="M149.9 188.1c.2 2.2 2.1 3.9 4.3 3.8 2.2-.2 3.9-2.1 3.8-4.3-.2-2.2-2.1-3.9-4.3-3.8-2.2.1-3.9 2-3.8 4.3z"/>
    <path class="st5" d="M151.8 187.9c.1 1.2 1.1 2.1 2.3 2 1.2-.1 2.1-1.1 2-2.3-.1-1.2-1.1-2.1-2.3-2-1.2.1-2.1 1.1-2 2.3z"/>
    <path class="st4" d="M91.1 192.3c.2 2.2 2.1 3.9 4.3 3.8 2.2-.2 3.9-2.1 3.8-4.3-.2-2.2-2.1-3.9-4.3-3.8-2.3.1-3.9 2.1-3.8 4.3z"/>
    <path class="st5" d="M93 192.2c.1 1.2 1.1 2.1 2.3 2 1.2-.1 2.1-1.1 2-2.3-.1-1.2-1.1-2.1-2.3-2-1.2 0-2.1 1.1-2 2.3z"/>
    <path class="st1" d="M160 27.1c.1 1.9 2.7 3 4.4 2 1.7-.9 2.2-3.2 1.7-5 .4 1.2 1.7 2 2.9 1.7 1.2-.2 2.2-1.4 2.1-2.7.5 1.3 1.8 2.4 3.2 2.6 1.4.2 2.9-.4 3.8-1.5-.5 1-.2 2.3.6 3 .8.7 2.1.8 3.1.3-1 .2-1.4 1.7-.7 2.5s2 .8 2.9.2c.9-.6 1.4-1.6 1.6-2.6.6-2.5-.1-5.1-1.4-7.3-.3-.4-.6-.9-1.1-1.1-.5-.2-1.1-.1-1.4.4.4.5 1.3.2 1.4-.4.2-.6-.1-1.2-.4-1.7-2.6-4.1-8.6-5.5-12.8-3.1-1.3-1.2-2.8-2.4-4.5-2.7s-3.9.5-4.2 2.3c-1.6-.7-3.6-.4-5 .6-1.4 1.1-2.1 2.9-1.9 4.6l5.7 7.9z"/>
    <path class="st6" d="M156.3 29.3c1.1.6 1.9 1.7 2 3 0 .3-.4.3-.5 0-.1-1.1-.8-2.1-1.7-2.6-.3-.1-.1-.5.2-.4z"/>
    <path class="st6" d="M156 31.1c.5-.1 1.1-.2 1.6-.3.1 0 .3 0 .3.2 0 .1 0 .3-.2.3-.5.1-1.1.2-1.6.3-.1 0-.3 0-.3-.2 0-.1 0-.3.2-.3z"/>
    <path style="opacity:.61;fill:#4a201e" d="m163.8 44.3-5.5-4.6 3.6 6.7z"/>
    <path class="st6" d="M174.4 41.3c.6 1 1.6 1.6 2.7 1.7.1 0 .2.2.2.3 0 .1-.2.2-.3.2-1.2-.1-2.4-.9-3-1.9-.2-.3.2-.5.4-.3z"/>
    <path class="st1" d="M175.7 33.9c0 .9-.4 1.6-1 1.7-.6 0-1.1-.7-1.2-1.6 0-.9.4-1.6 1-1.7.7 0 1.2.7 1.2 1.6zm1.4-6.1c-.1.8-.1 1.7-.2 2.5-1.8-.3-3.7-.3-5.4.2.6-.9 1.3-1.8 2.2-2.4.9-.6 2.1-.9 3.1-.5l.3.2z"/>
    <path class="st6" d="M197.7 118.5c1.4 2.9 2.9 5.7 4.5 8.5.2.3-.2.5-.4.3-1.7-2.8-3.2-5.6-4.6-8.6-.1-.3.3-.5.5-.2z"/>
    <path class="st6" d="M193.6 119.7c1.9-.9 3.7-1.8 5.5-2.9.3-.2.5.2.3.4-1.8 1.1-3.7 2.1-5.6 2.9-.3.2-.5-.3-.2-.4zM65.8 101.8c-.2-.8-.3-1.6-.5-2.4-.1-.8-.3-1.6-.3-2.4 0-1.5.9-2.6 1.8-3.6.2-.2.6.1.4.3-.9 1-1.7 2-1.7 3.4 0 .7.2 1.5.3 2.2.2.8.3 1.5.5 2.3.1.4-.4.5-.5.2zm-5.7 2.6c1.3-.8 2.4-1.8 3.3-3 .4-.5 1-1.3.6-1.9-.2-.3-.6-.3-.9-.2-.4.1-.7.3-1.1.5-.8.4-1.5.9-2.1 1.5-.1-.1-.2-.2-.3-.4.5-.4 1-.8 1.4-1.4l.6-.9c.1-.3.4-.7.3-1-.1-.3-.4-.4-.7-.3-.4 0-.7.2-1 .4-.7.4-1.4.9-2.2 1.3-.1-.1-.1-.3-.2-.4 1-.4 1.9-1.1 2.7-1.9.2-.2.4-.4.5-.6.1-.2.4-.5.3-.7 0-.2-.3-.2-.5-.2-.3 0-.6.1-.9.1-.7.1-1.4.3-2.1.6 0-.2-.1-.3-.1-.5.7-.2 1.4-.5 2-.8.5-.3 1.2-.5 1.6-1 .1-.2.2-.5.1-.7-.2-.2-.5-.3-.7-.4-.7-.1-1.3 0-1.9.3-.3.1-.5-.3-.3-.4.5-.3 1.2-.5 1.8-.4.5 0 1.2.1 1.5.6.3.5.1 1-.2 1.4-.4.4-1 .7-1.5 1-.7.3-1.4.6-2.1.8-.3.1-.4-.4-.1-.5.7-.3 1.4-.4 2.2-.6.3-.1.7-.1 1-.1.3 0 .6.1.7.3.5.5-.1 1.2-.4 1.6-.4.5-.9 1-1.4 1.4-.6.5-1.2.8-1.9 1.1-.2.1-.4-.3-.2-.4.7-.4 1.3-.8 2-1.2.5-.3 1.2-.7 1.8-.6.6.2.9.7.7 1.3-.2.6-.6 1.1-.9 1.6-.4.6-1 1-1.5 1.4-.2.2-.5-.2-.3-.4.7-.6 1.4-1.2 2.2-1.6l1.2-.6c.4-.1.8-.2 1.2 0 .7.5.6 1.4.2 2.1-.4.7-1 1.4-1.6 2-.7.7-1.5 1.3-2.3 1.8-.5.5-.7.1-.5 0z"/>
    <path class="st6" d="M61.4 93.7c1.6.1 3.1-.4 4.3-1.4.2-.2.5.2.3.4-1.3 1-2.9 1.5-4.6 1.5-.3 0-.3-.5 0-.5zm8.7-3.3c.8 1.3 1.5 2.5 2.4 3.8.2.3-.2.5-.4.3-.8-1.2-1.6-2.5-2.4-3.8-.1-.3.3-.6.4-.3zm97.4-4.6c.3 1 1 1.9 1.9 2.4.3.2 0 .6-.2.4-1-.6-1.8-1.6-2.1-2.7-.1-.2.3-.4.4-.1zM101 69.7c-.7.4-.9 1.5-.3 2 .1.1.1.2 0 .3-.1.1-.2.1-.3 0-.7-.8-.6-2.3.4-2.8.1-.1.3 0 .3.1.1.1 0 .3-.1.4z"/>
    <defs>
        <path id="SVGID_1_" d="M144.5 41.5c3.1-.8 6.3-.8 9.3.1 1.8.6 3.5 1.3 5.1 2.3 4.7 3.2 6.9 8.9 8.3 14.3 1.4 5.5 2.4 11.2 5.4 16-2.7 1.5-11.9 8.8-15 9.2 0 0-5.2-7.2-5.3-7.1-2.2 6.4-18.6 20.1-25.7 21.8-1 .2-16.3-2.1-22.2-2.1-4.2 0-8.4.3-12.5-.4-4.1-.8-8.2-3-10-6.8 9.6-3.8 18.2-10.1 24.8-18.2-1.5-1.9-3-3.8-4.8-5.5 11-12.1 26.4-19.5 42.3-23.6h.3z"/>
    </defs>
    <use xlink:href="#SVGID_1_" style="overflow:visible;fill:#f59f1e"/>
    <clipPath id="SVGID_2_">
        <use xlink:href="#SVGID_1_" style="overflow:visible"/>
    </clipPath>
    <path d="m142.7 61.4 1.7 3.8 3.9-1.4-1.9 3.7 3.5 2.2-4.1.8.5 4.2-3.2-2.8-2.9 3 .1-4.2-4.1-.4 3.3-2.5-2.2-3.6 4 1.1zm-8.2-21.3 1.7 3.8 3.9-1.4-1.9 3.8 3.6 2.2-4.1.8.4 4.1-3.2-2.7-2.9 3 .1-4.2-4.1-.5 3.3-2.5-2.2-3.5 4 1.1zm26.3 2.8 1.7 3.9 4-1.4-2 3.7 3.6 2.2-4.1.8.5 4.1-3.2-2.7-3 3 .2-4.2-4.2-.4 3.4-2.5-2.3-3.6 4.1 1.1zm8.9 24.3 1.7 3.8 3.9-1.4-1.9 3.7 3.5 2.2-4.1.8.5 4.2-3.2-2.7-2.9 2.9.1-4.1-4.1-.5 3.3-2.5-2.2-3.5 4 1zm-33.5 16.7 1.6 3.8 4-1.4-1.9 3.7 3.5 2.3-4.1.8.5 4.1-3.2-2.7-3 3 .2-4.2-4.2-.5 3.4-2.5-2.3-3.5 4.1 1.1zm-20.6-13.4 1.7 3.8 4-1.4-2 3.7 3.6 2.3-4.1.8.4 4.1-3.1-2.7-3 3 .2-4.2-4.2-.5 3.3-2.5-2.2-3.5 4.1 1.1zm-7.7-19.3 1.7 3.8 3.9-1.4-1.9 3.7 3.5 2.3-4.1.8.5 4.1-3.2-2.7-2.9 3 .1-4.2-4.2-.5 3.4-2.5-2.2-3.5 4 1.1zM94.1 87.8l1.7 3.8 3.9-1.4-1.9 3.7 3.5 2.3-4.1.8.5 4.1-3.2-2.7-2.9 3 .1-4.2-4.2-.5 3.4-2.5-2.3-3.5 4.1 1.1zm22.1 4.3 1.7 3.8 3.9-1.4-1.9 3.7 3.5 2.2-4.1.8.5 4.2-3.2-2.7-2.9 2.9.1-4.2-4.2-.4 3.4-2.5-2.2-3.6 4 1.1z" style="clip-path:url(#SVGID_2_);fill:#fff"/>
    <path class="st9" d="M156.6 84.9c5.8-3.4 11.5-6.7 17.3-10.1.1-.1.2-.1.3-.3.1-.2 0-.4-.1-.5l-1.2-2.7c-5.6 4-11.5 7.7-17.6 11.1l1.3 2.5zm-4.6-8.2c-1.5-2.8-2.9-5.5-4.1-8.4-1.1-2.8-2-5.8-2.3-8.8-.2-1.7-.2-3.5 0-5.2 0-.3.5-.2.5.1-.3 3 0 6 .7 8.9.8 2.9 1.9 5.8 3.2 8.5.8 1.6 1.6 3.1 2.4 4.6.2.3-.2.6-.4.3zm-8.7-19.9c.8 1.6 1.5 3.1 2.3 4.7.1.3-.3.5-.4.3-.8-1.6-1.5-3.1-2.3-4.7-.1-.3.3-.5.4-.3zm-36.9 13.7c2.8-3.2 5.7-6.3 8.8-9.3 3-3 6.2-5.8 9.4-8.5 1.8-1.5 3.7-3 5.6-4.5.2-.2.5.2.3.4-3.4 2.6-6.6 5.3-9.8 8.1-3.1 2.8-6.2 5.7-9.1 8.8-1.6 1.7-3.3 3.5-4.8 5.3-.2.2-.6-.1-.4-.3z"/>
    <path class="st9" d="M108.5 68.3c-1.8-2.3-3.5-4.7-5-7.1-1.2.8-2.4 1.7-3.4 2.7 2.3 1.8 4.4 3.8 6.1 6.2.9-.4 1.8-1 2.3-1.8zM87.6 89.8c1.6 1.5 3.6 2.5 5.7 3.1 2.2.6 4.5.8 6.7.8 2.3 0 4.7-.2 7-.4 2.5-.2 5-.3 7.5-.1 2.4.2 4.8.7 7 1.8.3.1.5.3.8.4.3.2 0 .6-.2.4-2.1-1.3-4.5-1.9-6.9-2.2-2.5-.3-5-.2-7.5 0-2.4.2-4.7.4-7.1.4-2.3 0-4.6-.1-6.8-.7-2.1-.5-4.2-1.4-5.9-2.8l-.6-.6c-.3.1 0-.3.3-.1zm63.9-19.7c.2 1.1.4 2.2.6 3.2 0 .1 0 .3-.2.3-.1 0-.3 0-.3-.2-.2-1.1-.4-2.2-.6-3.2 0-.1 0-.3.2-.3.1 0 .2 0 .3.2zm2.6.2c.1.5.3 1 .4 1.4 0 .1 0 .3-.2.3-.1 0-.3 0-.3-.2-.1-.5-.3-1-.4-1.4 0-.1 0-.3.2-.3.1 0 .2.1.3.2zm-.7-6.6c.1.2.3.5.4.7v.2c0 .1-.1.1-.1.1-.1.1-.3 0-.3-.1-.1-.2-.3-.5-.4-.7v-.2c0-.1.1-.1.1-.1.1 0 .2 0 .3.1zm9.7-5.4c.3.8.5 1.7.8 2.5.1.3-.4.4-.5.1-.3-.8-.5-1.7-.8-2.5-.1-.3.4-.4.5-.1zm.2-3.3c.2.7.5 1.5.7 2.2.1.3-.4.4-.5.1-.2-.7-.5-1.5-.7-2.2-.1-.3.4-.4.5-.1zm-50.8 14.7c-.5.5-.9 1-1.4 1.5-.1.1-.2.1-.3 0-.1-.1-.1-.2 0-.3.5-.5.9-1 1.4-1.5.1-.1.2-.1.3 0v.3zm4.9-2c-.6.6-1.2 1.3-1.7 1.9-.2.2-.6-.1-.4-.3.6-.6 1.2-1.3 1.7-1.9.3-.3.6 0 .4.3zm9.2-8c-.6.6-1.2 1.3-1.7 1.9-.2.2-.6-.1-.4-.3.6-.6 1.2-1.3 1.7-1.9.3-.3.6 0 .4.3z"/>
    <path class="st10" d="M114.2 175.9c.8.1 1.6.5 2.3 1 .8.5 1.5 1.2 2.2 1.8.3.3.6.7.9 1 .2.2-.2.5-.4.3-.7-.8-1.5-1.6-2.4-2.3-.8-.6-1.8-1.3-2.8-1.4-.2 0-.1-.4.2-.4z"/>
    <path class="st10" d="M114 179.1c4.6.5 9.2.8 13.8.7 4.6-.1 9.1-.4 13.7-1.1 2.6-.4 5.1-.8 7.6-1.4.3-.1.4.4.1.5-4.5 1-9.1 1.7-13.7 2.1-4.6.4-9.2.5-13.9.3-2.6-.1-5.2-.3-7.8-.6-.2-.1-.1-.6.2-.5z"/>
    <path class="st10" d="M144.1 175.5c-1.5.5-2.8 1.7-3.3 3.3-.1.3-.6.2-.5-.1.6-1.7 1.9-3.1 3.6-3.6.3-.1.5.4.2.4zm-7.9 1.1 2.7-2.4c.1-.1.2-.1.3 0 .1.1.1.3 0 .3l-2.7 2.4c-.1.1-.2.1-.3 0 0-.1-.1-.3 0-.3zm-1.8-1.5c.8-.6 1.6-1.3 2.5-1.9.1-.1.3 0 .3.1.1.1 0 .3-.1.3-.8.6-1.6 1.3-2.5 1.9-.1.1-.3 0-.3-.1-.1-.1 0-.2.1-.3zm-1.5-1.3c.8-1.1 2-1.9 3.3-2.4.3-.1.4.3.1.5-1.2.4-2.3 1.2-3.1 2.3-.2.2-.5-.1-.3-.4zM8.5 166.9c1.6-.2 3.2.5 4.3 1.8.2.2-.2.5-.4.3-.9-1.1-2.4-1.7-3.8-1.6-.4 0-.4-.5-.1-.5zm-.1-2.8c1.8-.2 3.6.4 5 1.5.2.2-.1.5-.3.4-1.3-1.1-3-1.6-4.7-1.4-.3 0-.3-.5 0-.5zm-5.3 9.6c1 .4 2 .9 3 1.3.3.1.1.5-.2.4-1-.4-2-.9-3-1.3-.3-.1-.1-.5.2-.4zm4.1-26.8c1.6-1.2 2.3-3.4 1.6-5.2-.1-.3.4-.4.5-.1.7 2.1-.1 4.5-1.8 5.8-.3.1-.6-.3-.3-.5zm6.1-.5c-.9.6-1.6 1.6-1.8 2.7-.2 1.1.1 2.2.7 3.1.4.5.8 1 1.4 1.3.3.2 0 .6-.2.4-1.1-.6-1.9-1.7-2.2-2.9-.3-1.2-.2-2.5.5-3.6.4-.6.8-1.1 1.4-1.5.2-.1.4.3.2.5zm107.2 27.1c1.9 1.4 4.4 1.7 6.6.9.6-.2 1.2-.5 1.7-.9.3-.2.5.2.3.4-2 1.4-4.8 1.7-7.1.9-.7-.2-1.3-.6-1.9-1-.2-.2.2-.5.4-.3z"/>
    <path class="st4" d="m83 183.7 4.8 2.1c.3.1.1.5-.2.4l-4.8-2.1c-.3-.1-.1-.5.2-.4zm84.6-7.6c-1.7 1.5-3.7 2.8-5.8 3.7-.6.3-1.2.5-1.8.7-.3.1-.4-.4-.1-.5 2.7-.8 5.3-2.3 7.4-4.2.2-.3.5.1.3.3zm-6.8 2c-.7.7-1.7 1.1-2.7 1.1-.1 0-.2-.1-.2-.2s.1-.3.2-.2c.9 0 1.8-.3 2.4-1 .1-.2.5.1.3.3zM110 123.8c1.4-2.6 2.8-5.2 4.1-7.8 1.3-2.6 2.6-5.3 3.8-8 .7-1.5 1.3-3 2-4.6.1-.3.5-.1.4.2-1.1 2.7-2.3 5.4-3.5 8.1-1.3 2.7-2.6 5.3-3.9 7.9-.8 1.5-1.6 2.9-2.4 4.4-.3.3-.7.1-.5-.2zm-79.1 14.3c.9 3 2 6 3.1 8.9 1.2 2.9 2.5 5.8 3.9 8.6.8 1.6 1.7 3.1 2.5 4.7.2.3-.2.5-.4.3-1.6-2.7-3-5.5-4.4-8.4-1.3-2.9-2.5-5.8-3.6-8.8-.6-1.7-1.2-3.4-1.7-5.1.1-.4.5-.5.6-.2zm92.4 19.1c2.8.3 5.7.5 8.5.8 2.8.2 5.7.4 8.5.5 1.6.1 3.2.1 4.8.2.3 0 .3.5 0 .5-2.9-.1-5.7-.2-8.6-.4-2.8-.2-5.7-.4-8.5-.6-1.6-.1-3.2-.3-4.8-.5-.3-.1-.2-.6.1-.5zm5.9-28.1c2.7-1.7 5.4-3.4 8.2-5.1.3-.2.5.2.3.4-2.7 1.7-5.4 3.4-8.2 5.1-.3.2-.5-.2-.3-.4zm.4 1.4c2.1-1.7 4.6-2.8 7.3-3.2.1 0 .2.1.2.2s-.1.2-.2.2c-2.6.5-5 1.6-7 3.2-.3.2-.5-.2-.3-.4z"/>
    <path class="st4" d="M115.3 113.8c2.8 2.2 5.7 4.4 8.5 6.6 1.4 1.1 2.8 2.1 4.1 3.2 1.2 1 2.4 2 3.4 3.1 1 1.2 1.8 2.4 2.3 3.9.5 1.4.8 3 .9 4.5.1 1.6.1 3.1.1 4.7-.1 1.8-.1 3.5-.3 5.3-.3 3.5-.7 7-1.3 10.5-.1.4-.2.9-.2 1.3-.1.3-.5.2-.5-.1.6-3.4 1.1-6.9 1.4-10.3.2-1.7.3-3.5.3-5.2.1-1.6.1-3.2 0-4.8-.1-3.1-.8-6.1-2.7-8.6-.9-1.2-2.1-2.2-3.2-3.2-1.3-1-2.6-2-3.9-3.1l-8.4-6.6c-.3-.3-.7-.5-1-.8-.1-.2.2-.5.5-.4zm-5.8-15.3c-1.3 1.7-2.9 3.3-4.6 4.6-1.7 1.3-3.7 2.4-5.7 3.2-1.1.5-2.3.8-3.5 1.1-.3.1-.4-.4-.1-.5 2.1-.5 4.1-1.2 6-2.3 1.9-1 3.6-2.3 5.2-3.8.9-.8 1.7-1.7 2.4-2.7.1-.2.5.2.3.4z"/>
    <path class="st4" d="M99.5 98.8c-2 4.9-4.6 9.6-7.7 14-3.1 4.4-6.7 8.4-10.6 12.1-3.9 3.7-8.2 7.1-12.6 10.2-4.4 3.1-9.1 6-13.8 8.6-5.4 3-11.1 5.9-17.2 7-.7.1-1.5.2-2.2.3-.3 0-.3-.4 0-.5 6.3-.7 12.1-3.4 17.6-6.4 4.8-2.6 9.4-5.4 13.9-8.5 4.4-3 8.7-6.3 12.7-10 3.9-3.6 7.6-7.5 10.8-11.8 3.2-4.2 5.9-8.8 8.1-13.6.3-.6.5-1.2.8-1.8-.1-.1.3.1.2.4z"/>
    <path class="st4" d="m71.2 125.4 4.2 7.5c.4.7.8 1.4 1.2 2.2.1.3-.3.5-.4.3l-4.2-7.5c-.4-.7-.8-1.4-1.2-2.2-.1-.3.3-.6.4-.3zm3.3-.2c1 1.6 2 3.1 2.9 4.7.2.3-.2.5-.4.3-1-1.6-2-3.1-2.9-4.7-.2-.3.2-.5.4-.3z"/>
    <path class="st10" d="M6.8 141.3c.1 5-.2 10.1-1 15-.4 2.5-.8 4.9-1.4 7.4-.6 2.4-1.3 4.8-1.8 7.3-.5 2.7-.8 5.6-.3 8.3.1.3-.4.4-.5.1-1-5 .5-9.9 1.7-14.7 1.2-4.9 2-9.9 2.4-14.9.2-2.8.3-5.7.2-8.5.3-.3.7-.3.7 0z"/>
</svg>
