<svg xmlns="http://www.w3.org/2000/svg" width="131.5" height="282.1" style="overflow:visible;enable-background:new 0 0 131.5 282.1" xml:space="preserve">
    <style>
        .st0{fill:#af4e4e}.st1{fill:#75431f}.st2{fill:#a34545}.st3{fill:#fff}.st5{fill:#fed5b7}.st6{fill:#ea7d7a}.st7{fill:#8e571f}.st8{fill:#f59f18}.st10{fill:#3f1e08}.st11{fill:#1a495e}
    </style>
    <path class="st0" d="M101.7 74.5c.8.1 1.6-.6 1.8-1.4.2-.8 0-1.7-.2-2.5-2.4-8.9-9.1-16.6-17.3-20.9-.4.5.2 1.2.3 1.8 1.7 7.7 5.6 14.8 11.2 20.4l4.2 2.6z"/>
    <path class="st1" d="M33.5 49.2c-.8 1.4-.6 3.3.4 4.5 1.1 1.2 2.9 1.6 4.4 1 1.3-.6 2.2-1.9 3-3.1.2-.4.4-.7.5-1.1.2-1-.2-1.9-.8-2.7-.7-.9-1.5-1.8-2.5-2.2-1-.5-2.3-.5-3.3.1l-1.7 3.5zm3.7 8.5c.9 1 1.9 2 2.5 3.2.6 1.2.7 2.8-.1 3.9.9-.5 1.8-.9 2.6-1.4 1.4-.8 2.9-1.6 3.8-3 .9-1.4 1-3.2.2-4.6l-9 1.9z"/>
    <path class="st2" d="M87.2 275.6c4 2.2 8.1 4.4 12.5 5.4 4.4 1.1 14.2 1.7 18.3-.3-3.1-2.2-10-4.7-11.2-8.3-.7-2.1-1.7-5-1.6-7.1.1-2.8.3-5.6.4-8.4-4.2-1.2-10.3-4.3-14.2-6.2 0 .1-3.1 19.4-4.2 24.9z"/>
    <path class="st3" d="M88.6 274c3.6 1.5 7.2 3.1 11 4.2 3.4 1 6.9 1.8 10.5 1.9 1.6.1 3.3 0 4.9-.5.4-.1.3-.8-.2-.7-1.3.5-2.8.5-4.2.5-1.7 0-3.4-.3-5.1-.6-3.2-.6-6.5-1.5-9.5-2.6-2.4-.9-4.7-1.9-7.1-2.9-.5-.2-.7.5-.3.7z"/>
    <path class="st3" d="M88.4 270.2c2 .1 3.7 2.3 3.2 4.3-.1.5.6.6.7.2.6-2.5-1.4-5.1-3.9-5.2-.5-.1-.5.7 0 .7zm10.4-8.8c-1.5 1.1-2.4 2.8-2.6 4.6-.1.9-.1 1.8.2 2.7.3.9.7 1.9 1.7 2.1 1 .2 2.1-.2 3-.8.8-.5 1.7-1.3 1.7-2.4 0-.4-.2-.9-.6-1.1-.4-.3-1-.2-1.4 0-.8.4-1.4 1.2-1.7 2.1-.6 2.1 1 4.3 3.2 4.4.5 0 .5-.7 0-.7-1.5-.1-2.7-1.4-2.6-2.9 0-.7.4-1.4.9-1.9.2-.2.7-.6 1-.5.3.1.5.5.4.8-.1.8-.9 1.4-1.6 1.7-.7.4-1.6.7-2.4.5-.7-.2-1-1.2-1.1-1.8-.2-.7-.2-1.4-.1-2.1.2-1.6 1-3.1 2.3-4.1.4-.2.1-.9-.3-.6z"/>
    <path class="st2" d="M77.5 259.4c-3.6 2.9-7.4 5.7-11.7 7.7s-14.3 5-18.9 4.3c2.7-2.7 9.3-6.5 9.7-9.9.2-1.9.7-4.7.1-6.5-.8-2.3-1.5-4.7-2.3-7 4-2.1 9.7-6.2 13.3-8.8-.1-.1 7.4 15.7 9.8 20.2z"/>
    <path class="st3" d="M75.2 257.8c-3.4 2.2-6.7 4.4-10.3 6.3-3.3 1.7-6.7 3.2-10.2 4.2-1.6.5-3.3.8-5.1.8-.5 0-.5.7 0 .7 1.5.1 3.1-.2 4.5-.6 1.8-.5 3.5-1.1 5.2-1.7 3.3-1.3 6.4-2.9 9.4-4.7 2.3-1.4 4.5-2.8 6.7-4.3.6-.4.2-1-.2-.7z"/>
    <path class="st3" d="M51.6 266.7c1.5-.3 3.5.1 4.4 1.5.3.4.9 0 .6-.4-1.1-1.7-3.4-2.2-5.2-1.8-.4.1-.2.8.2.7zm23.2-12.3c-1.2.3-2.2 1.2-2.8 2.3-.5 1-.6 2.2 0 3.2.2.4.9 0 .6-.4-.5-.8-.4-1.8 0-2.5.5-.9 1.3-1.6 2.3-1.9.6-.2.4-.9-.1-.7zM62 250.7c1.3.4 2.5 1.4 3.1 2.6.3.6.5 1.2.5 1.8 0 .6 0 1.6-.5 2-.6.5-1.7.4-2.4.4-.8-.1-1.7-.3-2.3-.9-.2-.2-.3-.4-.2-.7.2-.4.6-.3 1-.3.7.2 1.3.6 1.7 1.2.9 1.5-.5 3-1.9 3.4-.4.1-.3.8.2.7 1.6-.5 3.2-2.2 2.6-4-.3-.8-1-1.5-1.8-1.8-.8-.3-2-.4-2.4.6-.3.9.6 1.7 1.3 2 1 .4 2.1.6 3.1.5.5-.1 1.1-.1 1.5-.5.4-.3.6-.7.8-1.2.2-.8.2-1.7 0-2.5-.5-2-2.1-3.4-4-4.1-.5 0-.7.7-.3.8z"/>
    <path d="M49.6 145.5c-8.6 7.9-17.2 15.8-25.8 23.6-2.7 2.5-5.7 5.3-6.3 8.9-.5 3 .7 5.9 1.9 8.7 9 22.1 20.4 43.1 33.9 62.8 6.8-2.8 13.7-5.6 20.5-8.5-6.4-16.9-22.5-57-22.5-57s23.5-19.4 24.7-18.9c1 .4 19 33.3 19 33.3s-7.4 41.4-8.3 58.9c7.1 2.1 14.6 2.9 22 2.3 6-16 11.1-32.4 15.1-49 1.2-5 2.4-10.2 2-15.4-.5-7-3.9-13.5-7.1-19.7-9.3-17.8-18.6-35.6-27.9-53.3-15 4.4-29.6 10.2-43.6 17.1l2.4 6.2z" style="fill:#6da8c6"/>
    <path class="st5" d="M80 75.9c7.8-6.8 26.2-22.3 26.2-23.8 0-1.3-.6-2.4-1.1-3.6-2.8-5.9-13.7-24-13.9-25.1-.2-1.1-.4-4.8-1-6.8-1.3-4.5-2.9-8.8-4.7-13.1-.1-.1-.1-.3-.2-.4-.5-.9-1.9-.4-1.8.6.2 2.2.9 4.4 2 6.4-.7-2.9-2.4-6.9-4.3-9.7-.4-.7-1.5-.3-1.4.5.3 3.3 1.6 7.4 3 10-.8-2.6-1.8-6.7-3.3-9.6-.4-.7-1.6-.3-1.5.5.4 3.8 1.2 8.7 2.8 11.5-1-2.9-2-5.9-4-8.2-.4-.5-1.2-.1-1.2.5.6 4.6 1.1 10 3.1 14.1 0 0-3.2-5.4-3.3-5.6-2.1-2.2-1.4 4.3 1.8 9 .5.7.9 1.5 1.6 1.9 1.2.8 3 .5 4 1.5.5.5.7 1.1 1 1.8 2.3 6.5 3.5 13.7 5.8 20.2C82.3 53.4 69.9 64 69.9 64l4.5 10.4 5.6 1.5z"/>
    <path class="st6" d="M46.1 65.9c-19 3.1-29.9 17.5-31 30.2-.1.6-.1 1.3.2 1.8.2.4.7.8 1.1 1 4 2.6 8.5 4.5 13.2 5.3 1.2.2 2.4.4 3.4 1 .7.4 1.2 1 1.7 1.7 7.9 10.4 8.3 29.6 14.1 41.3 3.3-2.5 10.3 5.3 14.4 5 4.9-.3 4.6-12.5 9.5-12.7 10.3-.4 19.1-7.4 27-14-4.7-8.6-8.1-17.9-10-27.5-1.4-7.5-2-15.2-4.9-22.2-2.9-7-9-13.4-16.6-14-2.8-.2-5.7.4-8.4 1-5.2 1-13.7 2.1-13.7 2.1z"/>
    <path class="st6" d="M56.4 64.1c9.5-1.3 22.5-7.8 29.7-14.3 5 7.3 7.6 14.7 16.9 24.3-8.8 5-19 11.4-26.8 17.9-3.4-6.3-12.4-12.6-18.8-15.9l-1-12z"/>
    <path d="M47.2 143.2c3.7-.2 7.5-.5 11.2-1 3.8-.5 7.5-1.1 11.2-1.9 3.5-.8 7-1.7 10.4-2.9 3.3-1.2 6.5-2.6 9.6-4.3 3.1-1.7 5.9-3.7 8.6-6 .3-.3.6-.6 1-.9.3-.3.3-.8 0-1-.3-.3-.7-.3-1 0-2.5 2.3-5.3 4.3-8.2 6-2.9 1.7-6.1 3.2-9.3 4.4-3.3 1.2-6.7 2.2-10.1 3-3.6.8-7.3 1.5-11 2s-7.3.8-11 1c-.4 0-.9 0-1.3.1-.4 0-.7.3-.7.7-.2.5.2.8.6.8z"/>
    <path d="M46.6 142c-1.8 1.4-4 1.2-6.1 1.2-2.6-.1-5.4-.4-8 .3-1.2.3-2.6.8-3 2.1-.4 1.2.6 2.5 1.7 2.9 1.3.5 2.8.1 4.1-.3l3.9-1.2c2.9-1 5.8-2.2 8.6-3.7.6-.3.3-1.4-.4-1.4-4.9 0-9.9-1.1-14.3-3.4-.5-.3-1.1-.6-1.6-.9-.2-.1-.4-.2-.6-.4l-.2-.2c-.1-.1-.1-.1-.1-.2.1-.1.2-.1.3-.2.2-.1.5-.2.7-.3.5-.1 1-.1 1.5-.1 2.4.3 4.2 2.3 6.1 3.6 2.3 1.6 4.9 2.7 7.7 3.1.4.1.8-.1.9-.5.1-.3-.1-.8-.5-.9-2.6-.4-5-1.4-7.2-2.9s-4.1-3.5-6.8-3.9c-.7-.1-1.4-.1-2.1.1-.6.1-1.3.4-1.7.9-.5.5-.6 1.3-.2 1.9.4.6 1 .9 1.5 1.2 2.3 1.4 4.8 2.4 7.4 3.2 2.9.8 5.9 1.2 9 1.2-.1-.5-.2-.9-.4-1.4-2.3 1.2-4.6 2.2-7 3.1-1.2.4-2.5.9-3.7 1.2-.6.2-1.2.3-1.8.5-.6.1-1.2.3-1.8.3-.5 0-1-.1-1.3-.3-.2-.2-.3-.3-.4-.5 0-.1 0-.1-.1-.2v-.2c.1-.4.4-.6.8-.8.5-.2 1.1-.4 1.6-.5 1.2-.3 2.4-.3 3.7-.3 1.2 0 2.4.1 3.6.1 1.2.1 2.5.1 3.7-.1 1.2-.2 2.4-.7 3.3-1.5.3-.2.3-.8 0-1 0 .1-.4.1-.8.4z"/>
    <path d="M45.5 142.4c-2.8.4-5.8.3-8.6-.1-2.9-.4-5.6-1.4-8.4-2.3-2.6-.9-5.3-1.6-8.1-1.9-2.7-.3-5.4-.2-8 .2-3 .5-5.9 1.4-8.6 2.7-.4.2-.4.7-.3 1 .2.4.6.4 1 .3 4.7-2.2 10-3.1 15.2-2.8 2.7.2 5.3.8 7.9 1.7 2.7.9 5.4 1.9 8.2 2.4 3.2.6 6.5.7 9.7.3.4 0 .7-.3.7-.7 0-.4-.3-.8-.7-.8z"/>
    <path d="M41 142.5c-2.7-.5-5.4-1.3-7.9-2.3-2.5-1-4.9-2.4-7.4-3.6-1.3-.6-2.5-1.2-3.9-1.6-1.3-.4-2.7-.7-4-.8-2.7-.3-5.4-.2-8.1.1-3.1.4-6.1 1.1-9.2 1.8-.4.1-.6.5-.5.9.1.4.5.6.9.5 5.2-1.2 10.6-2.4 16-1.9 2.6.2 5.1.9 7.5 2 2.5 1.2 4.8 2.6 7.3 3.6 2.8 1.2 5.8 2.1 8.8 2.7.4.1.8-.1.9-.5.2-.3-.1-.8-.4-.9z"/>
    <path class="st7" d="M49 136.4c2.9 9 10.1 29.5 11.2 29.9 12.9 5.1 27-.7 34.4-9.6 1.1 1-3.7-18.6-8.2-32.9L49 136.4z"/>
    <path class="st8" d="M49.8 137c.4.4.9.7 1.5.8 10.7 3.1 23 .3 31.3-7.3 1.2-1.1 2.4-2.3 3.1-3.9s.8-3.4-.1-4.8c-1-1.7-9.2-7.6-30.7 2.4-2.2 1-3.9 2.9-5.1 5-.9 1.5-1.4 3.3-1.3 5 0 1.1.5 2.1 1.3 2.8z"/>
    <path class="st7" d="M87.1 123.9c2.4 9.2 8.2 30.1 9.3 30.6 12.5 5.9 26.9.9 34.9-7.5 1 1.1-2.6-18.8-6.2-33.3l-38 10.2z"/>
    <path class="st8" d="M87.8 124.5c.4.4.9.7 1.4.9 10.5 3.7 22.9 1.7 31.7-5.4 1.3-1 2.5-2.2 3.3-3.7.8-1.5 1-3.3.2-4.8-.9-1.7-8.7-8.2-30.8.5-2.2.9-4 2.7-5.4 4.6-1 1.4-1.6 3.2-1.6 4.9 0 1.2.4 2.2 1.2 3zm-33.2 29.1c5.6.1 11.2.1 16.7-.8 4.8-.8 9.6-2.2 13.8-4.7 2.3-1.3 4.4-3 6.2-4.9.3-.3-.2-.9-.5-.5-3.2 3.4-7.3 5.9-11.7 7.5-4.9 1.8-10 2.5-15.2 2.7-3.1.1-6.2.1-9.3 0-.4 0-.4.7 0 .7z"/>
    <path class="st8" d="M55.8 157.8c2.8 0 5.7-.1 8.5-.1 2.8-.1 5.6-.2 8.3-.7 4.7-.8 9.2-2.5 13.3-5 2.3-1.4 4.4-3 6.4-4.9.3-.3-.2-.8-.5-.5-3.4 3.2-7.4 5.8-11.8 7.5-2.2.9-4.5 1.5-6.8 2-2.6.5-5.3.7-8 .7-3.1.1-6.3.1-9.4.1-.5.2-.5.9 0 .9zm36.4-15.2c5 1.4 10.3 1.7 15.5 1 5.2-.7 10.2-2.4 14.7-5 2.6-1.5 4.9-3.3 7.1-5.3.3-.3-.2-.8-.5-.5-3.7 3.5-8.2 6.3-13 8-4.8 1.8-10 2.6-15.1 2.4-2.9-.1-5.8-.5-8.5-1.3-.4-.1-.6.6-.2.7zm2.6 5.3c5.3.3 10.7.9 16 .2 4.6-.6 9.2-1.9 13.3-4.2 2.3-1.3 4.4-2.8 6.3-4.6.3-.3-.2-.8-.5-.5-3.3 3.2-7.4 5.5-11.8 6.9-4.5 1.5-9.2 2.1-13.9 1.9-3.2-.1-6.4-.3-9.5-.5-.3 0-.3.8.1.8z"/>
    <path class="st7" d="M106.3 111.2c-3.1 3.3-6.1 6.7-9.2 10-.3.3.2.9.5.5 3.1-3.3 6.1-6.7 9.2-10 .3-.4-.2-.9-.5-.5zm4.6 1.2c-3.4 3.2-6.9 6.3-10.3 9.5-.3.3.2.8.5.5 3.4-3.2 6.9-6.3 10.3-9.5.4-.3-.1-.8-.5-.5zm-43.2 8.8c-3.5 3.4-6.7 7.1-9.8 10.9-.3.4.2.9.5.5 3-3.8 6.3-7.4 9.8-10.9.3-.3-.2-.8-.5-.5zm5.6.3c-2.3 2.3-4.7 4.6-7 6.9-.3.3.2.8.5.5 2.3-2.3 4.7-4.6 7-6.9.4-.3-.1-.9-.5-.5zm5.4-1.3c-2.2 2.9-4.5 5.7-7 8.4-.3.3.2.9.5.5 2.6-2.7 4.9-5.6 7.2-8.5.2-.4-.4-.8-.7-.4z"/>
    <path class="st1" d="M74.7 13.9c.6.9 1.2 1.8 1.8 2.8.3.5.6.9.9 1.4.3.4.5.9.8 1.2.6.8 1.6.4 2.5.5.8.1 1.7.3 2.4.6.9.4 1.6 1 2.3 1.8.3.4.8-.2.5-.5-1.1-1.3-2.6-2.2-4.2-2.5-.4-.1-.8-.1-1.2-.1h-.6c-.2 0-.5.1-.7 0-.4-.1-.7-.8-.9-1.1-.3-.5-.6-.9-.9-1.4-.7-1-1.3-2-2-3.1-.3-.3-1 .1-.7.4zm4.4-12.4c1.6 3.2 3 6.5 4.1 9.9.1.4.8.3.7-.2-1.2-3.4-2.6-6.8-4.2-10.1-.1-.3-.8 0-.6.4zm-.9 6.2c.6 1.5 1.3 3 1.9 4.5.1.2.2.3.4.3s.3-.3.3-.4c-.6-1.5-1.3-3-1.9-4.5-.1-.2-.2-.3-.4-.3-.3 0-.4.2-.3.4zm4.7-3.4c.8 2.6 1.5 5.3 2.3 7.9.1.4.8.3.7-.2-.8-2.6-1.5-5.3-2.3-7.9-.1-.5-.8-.3-.7.2z"/>
    <path class="st1" d="M78.5 13.6c3.1-.2 6.1-.6 9.2-1 .2 0 .3-.3.3-.4-.1-.2-.3-.3-.4-.3-3 .4-6 .7-9 1-.5 0-.5.7-.1.7zm7.5 1.9c.5.8.8 1.7 1 2.7 0-.1.1-.2.1-.4-1 1.1-1.1 2.9-.1 4.1.1.2.3.2.5.1s.2-.3.1-.5c-.6-.8-.7-2-.2-2.9.1-.3.4-.4.3-.7-.1-.3-.2-.6-.3-1-.2-.6-.5-1.3-.8-1.8-.2-.4-.9 0-.6.4zm-.3 11.2c1.1-.1 2.1-.4 3-1 .4-.2 0-.9-.4-.6-.8.5-1.7.8-2.6.9-.2 0-.4.2-.4.4s.2.4.4.3zm4.9 22.5c1.8 0 3.6.1 5.4.5.5.1.7-.6.2-.7-1.8-.4-3.7-.5-5.6-.5-.5 0-.5.7 0 .7z"/>
    <path class="st5" d="M57.5 29.6c3 6.4 5.2 13 6.8 19.9.4 1.8.8 3.8.1 5.5-1.2 3.4-5 3.9-5 3.9l1.2 2.9c1.2 2.9 3.1 8.4-3.6 10.3-8.3 2.3-9.6-2.2-10.6-5.2-1.2-3.4-2.3-6-4-10.3-1 2.3-3.8 3.5-6.1 2.8-2.3-.8-3.9-3.4-3.4-5.8s3-4.2 5.5-3.9c-1.8-4.1-3.3-8.3-4.4-12.7 7.6-2.6 15.3-4.9 23.1-6.6l.4-.8z"/>
    <path class="st1" d="M36.4 53.5c1.5.5 2.8 1.5 3.7 2.8.3.4.9 0 .6-.4-1-1.5-2.4-2.6-4.1-3.1-.4-.2-.6.5-.2.7z"/>
    <path class="st1" d="M37 55.4c.5-.4 1-.7 1.6-1.1.2-.1.2-.3.1-.5s-.3-.2-.5-.1c-.5.4-1 .7-1.6 1.1-.2.1-.2.3-.1.5.1.1.3.2.5.1z"/>
    <path class="st1" d="m59.4 58.9-11.3 2.7 12.5.2z" style="opacity:.45"/>
    <path class="st1" d="M35.5 49.6c.6-.9 2.3-.3 3.1.4.9.7 1.4 1.7 2.2 2.4.8.7 2.1 1.2 2.9.4-1.9-.3-3.4-2.1-3.5-4-.1-1.7.8-3.3.5-4.9-.4-2.7-3.8-4.5-3.8-7.3 1.3.2 2.4 1 3.6 1.7 1.2.6 2.6 1.1 3.8.5 1.2-.6 1.6-2.6.5-3.2 1.4.6 2.9 1.3 4.3 1 1.5-.3 2.7-2.1 1.9-3.4 1.4 1.8 4.7 1.3 5.7-.7 1.5.3 3.1.1 4.3-.8 1.2-.9 1.8-2.6 1.2-4-.9-1.9-3.5-2.1-5.6-2.1 1.7-.4 2-3 .8-4.3-1.2-1.3-3.1-1.5-4.9-1.5-1.5 0-3.2.3-4.3 1.3.3-.4 0-1-.4-1.3-.4-.2-1-.2-1.5-.1-2.9.4-5.5 2.2-7 4.7-.8-1.2-2.7-.7-4.1 0-2.5 1.2-5.3 2.9-5.9 5.6-1.8.1-3.6 1.2-4.5 2.8-.9 1.6-.9 3.7 0 5.3-1.3.1-2.2 1.6-2.2 2.9.1 1.3.8 2.5 1.6 3.6 2.5 3.5 5.3 6.7 8.3 9.6.4-1.9 1.6-3.6 3.1-4.7l-.1.1z"/>
    <path class="st1" d="M52.8 41.1c2.1 1.7 3.6 4.1 4.3 6.7l.4-.4c-.9-.3-1.8-.4-2.7-.4-.5 0-.5.7 0 .7.9 0 1.7.1 2.5.3.3.1.5-.2.4-.4-.6-2.8-2.2-5.3-4.4-7.1-.4-.2-.9.3-.5.6zM51 49.6c.9.6 2 .9 3 .8.2 0 .4-.2.4-.4s-.2-.4-.4-.4c-.9.1-1.9-.1-2.6-.7-.2-.1-.4 0-.5.1-.1.2 0 .4.1.6z"/>
    <path d="M46.4 47c-.1-.8.4-1.7 1.2-1.9.7-.3 1.7 0 2.1.6.1.2.3.2.5.1s.2-.3.1-.5c-.7-.9-1.9-1.3-3-1-1.1.4-1.8 1.5-1.7 2.6 0 .2.2.4.4.4s.4-.1.4-.3zm10.5-4.3c-.1-.8.4-1.7 1.2-1.9.7-.3 1.7 0 2.1.6.1.2.3.2.5.1s.2-.3.1-.5c-.7-.9-1.9-1.3-3-1-1.1.4-1.8 1.5-1.7 2.6 0 .2.2.4.4.4.3.1.5-.1.4-.3z"/>
    <path class="st1" d="M48.4 40.4c.5.3.4 1 .1 1.5-.3.5-.8.7-1.3 1-.9.4-1.8.9-2.8 1.3-.2.1-.4.2-.6.1-.4-.1-.4-.7-.2-1.1.9-1.8 2.7-3 4.7-3l.1.2zm5.5-4.1c-.2.5.3 1.1.8 1.3.5.2 1.1 0 1.6-.1 1-.2 2-.4 3-.7.2 0 .4-.1.5-.3.2-.4-.2-.8-.6-1-1.8-.9-4-.7-5.6.5l.3.3z"/>
    <path class="st10" d="M37.4 30.9c.5 2.2 2.3 4.1 4.6 4.7 1.3.3 2.7.2 3.7-.6.9-.7 1.4-1.9 1.2-3.1-.1-.7-.5-1.3-.8-1.8-.3-.5-.7-1-1.2-1.3-.8-.6-2.1-.7-2.9 0-1 .9-.4 2.2.3 3.1.7.9 1.6 1.6 2.6 2.1 2 .9 4.6 1.1 6.4-.4.9-.8 1.2-1.9.7-3.1-.2-.6-.5-1.2-.9-1.7-.3-.5-.7-.9-1.3-1.1-.5-.2-1.1-.3-1.5.1-.5.4-.5 1-.3 1.6.5 1.1 1.4 1.9 2.4 2.5 1 .5 2.2.8 3.3.7 1.2-.1 2.4-.6 2.7-1.9.4-1.3-.3-2.5-1.1-3.4-.7-.8-1.8-2-3-1.3-.5.3-.7.9-.5 1.4.2.5.6 1 1.1 1.4.9.7 2 1.1 3.1 1.1.5 0 1.1-.1 1.6-.3.4-.2.2-.9-.2-.7-1.6.6-3.8.1-4.8-1.4-.3-.4-.3-.9.2-1 .5-.1.9.3 1.2.6.7.7 1.5 1.6 1.6 2.6.3 2.3-2.6 2.4-4.2 1.9-.9-.3-1.7-.8-2.3-1.5-.3-.3-.6-.7-.8-1.2-.2-.5.3-.7.7-.6.9.2 1.4 1.3 1.8 2.1.2.5.4 1 .3 1.5-.1.4-.3.8-.6 1-1.3 1.2-3.4 1.2-5 .7-.9-.3-1.7-.7-2.3-1.3-.3-.3-.6-.6-.9-1-.3-.4-.6-.9-.5-1.4.1-.8 1.1-1 1.7-.7.9.3 1.5 1.3 1.9 2.2.5.9.5 1.9-.2 2.8-.2.5-1.2.9-2.2.8-1.9-.1-3.6-1.4-4.5-3-.2-.4-.4-.8-.5-1.3 0-.5-.7-.3-.6.2zM27 36c-.9 1.9-1.4 4.2-.9 6.3.2 1 .7 1.9 1.5 2.4s1.8.6 2.7.1c.7-.4 1.3-1.2 1.5-2.1.1-.7 0-1.6-.7-2-.8-.4-1.6.1-2 .8-.4.8-.4 1.8-.1 2.6.8 2.2 3.1 3.2 5.3 2.9.5-.1.3-.8-.2-.7-1.6.2-3.2-.4-4.1-1.8-.4-.6-.6-1.4-.5-2.1.1-.5.4-1.3 1-1.2.6 0 .6.7.6 1.2-.1.6-.5 1.3-1.1 1.6-.7.4-1.4.3-2-.1-.6-.5-1-1.2-1.1-2-.4-1.9 0-4 .8-5.7.2-.2-.5-.6-.7-.2zm2.8-1.2c-.3 1.3.1 2.7 1 3.7s2.3 1.4 3.6 1.3c-.1-.2-.3-.4-.4-.5-.9 1.1-1 2.8-.2 4 .7 1.2 2.1 1.9 3.4 1.8.5 0 .5-.8 0-.7-1.1.1-2.2-.5-2.8-1.4-.6-1-.5-2.3.2-3.3.2-.3-.1-.6-.4-.5-1.1.1-2.2-.3-2.9-1.1-.7-.8-1-2-.8-3 .1-.6-.6-.8-.7-.3zm3.4-3.8c.1 1.1.8 2.1 1.9 2.4.2.1.4-.1.4-.3 0-.2-.1-.4-.3-.4-.1 0-.1 0-.2-.1-.2-.1-.3-.1-.4-.2-.1-.1-.2-.1-.2-.2-.1-.1-.1-.2-.2-.2-.1-.1-.1-.2-.1-.2l-.1-.1c-.1-.2-.1-.3-.1-.4v-.2c0-.3-.2-.5-.4-.5-.1 0-.3.2-.3.4z"/>
    <path class="st10" d="M38 26.9c.4-1 1.4-1.6 2.4-1.6.5 0 1.1.1 1.6.4.2.1.5.3.7.5l.6.6c.4.4 1 .4 1.4.1.5-.3.7-.9.9-1.4.3-.5.7-.9 1.2-1.2.5-.3 1-.7 1.5-.9.5-.2 1.2-.4 1.7-.1.4.2.6.7.4 1.1-.2.3.2.7.5.5.8-.4 1.6-.7 2.4-.8.3 0 .8-.1 1 .2.1.1.1.4 0 .4-.5.1-.3.8.2.7.5-.1.7-.6.6-1-.1-.5-.5-.9-1-1-.6-.1-1.2 0-1.8.1-.7.2-1.3.4-1.9.7l.5.5c.6-.9-.2-2.2-1.2-2.3-.7-.1-1.3.1-1.9.4-.6.3-1.2.7-1.7 1.1-.5.4-.9.8-1.2 1.4-.2.4-.6 1.4-1.2.9-.2-.2-.4-.5-.7-.7-.2-.2-.5-.4-.8-.5-.6-.3-1.2-.4-1.8-.4-1.4 0-2.6.9-3.1 2.1-.1.5.6.7.7.2z"/>
    <path class="st0" d="M73.3 62.8c4.8 3.8 8.6 8.7 11 14.3.7 1.6 1.2 3.2 1.7 4.8.1.4.8.3.7-.2-1.6-6-4.8-11.5-9-16-1.2-1.3-2.5-2.4-3.9-3.5-.4-.2-.9.3-.5.6zm9.2-9.8c4.2 4.8 7.9 10 11.1 15.5.9 1.6 1.8 3.1 2.6 4.7.2.4.8 0 .6-.4-2.9-5.7-6.4-11.1-10.3-16.2-1.1-1.4-2.3-2.8-3.5-4.2-.3-.2-.8.3-.5.6z"/>
    <path class="st0" d="M75.4 62.6c.6.7.9 1.5 1 2.4 0 .2.3.3.4.3.2-.1.3-.3.3-.4-.2-.9-.5-1.8-1.1-2.6-.1-.2-.3-.2-.5-.1-.1 0-.2.2-.1.4zm-31.2 5.3c.3 4.1 3.8 7.3 7.8 8 4.1.6 8.9-1 11.2-4.6 1.3-2 1.5-4.6.4-6.8-.2-.4-.8 0-.6.4.9 1.7.7 3.9-.2 5.6-.9 1.7-2.4 2.9-4.1 3.7-3.5 1.7-8.1 1.6-11.2-1.1-1.5-1.3-2.5-3.2-2.7-5.2.1-.5-.6-.5-.6 0zm3.6 44.1c4.6-2.9 9.2-5.6 14-8.2 4.8-2.5 9.6-4.9 14.6-7.1 2.8-1.2 5.6-2.4 8.4-3.5.4-.2.2-.9-.2-.7-5.1 1.9-10 4.1-14.9 6.4-4.9 2.3-9.7 4.9-14.4 7.6-2.7 1.5-5.3 3.1-7.9 4.8-.3.3 0 1 .4.7zm5.9.2c3.4-2.1 6.9-4.1 10.5-6 3.6-1.9 7.2-3.7 10.8-5.4 2.1-.9 4.2-1.9 6.3-2.7.2-.1.3-.2.3-.4s-.3-.3-.4-.3c-3.7 1.6-7.4 3.2-11.1 5-3.7 1.8-7.3 3.7-10.8 5.7-2 1.1-4 2.3-5.9 3.5-.5.2-.1.8.3.6z"/>
    <path class="st5" d="M76.3 112.7c-.1-.2-.2-.3-.4-.3-2.4-.9-4.5 2.2-7 1.9 1.9-4.1 3.4-8.3 4.7-12.6.4-1.2.6-2.6.1-3.7-.2-.5-.9-.5-1.3-.1-1.1 1.6-2.8 7.2-3.1 8.3.3-1.2 2.2-7.7 1.7-10-.2-.7-1-.8-1.3-.2-.5.9-1 2.5-1.4 4.2.3-1.5.4-3 .2-3.8-.1-.6-1-.8-1.3-.2-1.5 2.5-2.6 5.4-3.2 8.3.1-1.3 0-2.9-.1-4.2-.1-.7-1.1-.9-1.4-.2-1.7 4.2-3.3 10.1-5 13.6-.5.9-1 1.9-1.6 2.7-5.5-.5-16.6-.5-22-1-.8-.1-1.7-.2-2-1-.1-.3-.1-.6-.1-1 .1-6.7 1.9-13.5 2.1-20.2 0-.5 0-1.1-.2-1.5-.3-.5-.9-.8-1.5-1-3.5-1.4-5.3-4.6-12.7-2.7L18 97.2c-.9 8.3-.9 16.7.1 25 .3 2.6.9 5.5 3 6.9 1.7 1.1 3.9 1 5.9.8 8.6-.8 32-6.7 32.5-7 1.8-1.1 4.1-1.1 6.1-1.8 1.6-.6 3-1.7 4.4-2.8 1.9-1.5 3.8-3.1 5.7-4.6.4-.2.8-.6.6-1z"/>
    <path class="st6" d="M25.7 76.2c-4.1 3.7-9.2 10.8-10.3 16.2-1.1 5.4-1.1 10.9-1.1 16.4 0 .6 22.6 5.9 22.7 5.4.2-5.8 2.2-13.9 4.9-19 .4-.7.8-1.4.7-2.2 0-.9-.6-1.7-1.3-2.4-3.5-4.1-7.5-7.7-11.9-10.6l-3.7-3.8z"/>
    <path class="st1" d="M75.3 112.1c-.9-.4-1.9-.2-2.8.3-.8.5-1.6 1.2-2.6 1.4-.5.1-1 0-1.5.1s-1 .5-1.5.7c-1 .6-2 1.3-3.1 1.9-.4.2 0 .9.4.6 1-.6 1.9-1.2 2.9-1.8.4-.3.9-.6 1.4-.8.5-.1 1 0 1.4-.1.9-.1 1.7-.6 2.5-1.1.7-.5 1.7-1 2.5-.6.5.2.8-.4.4-.6zm-12-11.8c.6 2.9.3 6-.8 8.8 0 .1 0 .3.1.4.9.7.8 1.8.5 2.8-.3 1.2-.8 2.4-1.2 3.5-.1.4.6.6.7.2.2-.7.5-1.3.7-2 .2-.6.5-1.3.6-2 .2-1.1.1-2.4-.8-3.1 0 .1.1.2.1.4 1.1-2.9 1.4-6.1.8-9.1-.1-.6-.8-.4-.7.1zm5.5-3.2c-.9 3.6-1.8 7.2-2.7 10.7-.1.5.6.6.7.2.9-3.6 1.8-7.2 2.7-10.7.1-.5-.6-.7-.7-.2z"/>
    <path class="st1" d="M63.7 108.2c2.2.5 4.4 1 6.6 1.6.5.1.6-.6.2-.7-2.2-.5-4.4-1-6.6-1.6-.4-.1-.6.6-.2.7z"/>
    <path class="st1" d="M70.3 102.5c-.7 2.1-1.4 4.2-2 6.4-.1.4.6.6.7.2.7-2.1 1.4-4.2 2-6.4.2-.4-.5-.6-.7-.2zm-38.2 12.7c-2.3 2-4.4 4.3-6.1 6.8-.3.4.4.8.6.4 1.7-2.5 3.7-4.7 6-6.7.4-.3-.1-.8-.5-.5z"/>
    <path class="st0" d="M25.3 80.1c2.3 3.6 4.4 7.4 6.1 11.3 1.7 3.9 3.1 8 4.2 12.1.6 2.3 1.1 4.7 1.5 7.1.1.5.8.3.7-.2-.7-4.3-1.8-8.5-3.2-12.5-1.4-4.1-3.1-8.1-5.1-11.9-1.1-2.1-2.4-4.2-3.7-6.3-.1-.4-.7 0-.5.4z"/>
    <path class="st0" d="M27.1 79.1c.3 1.4.6 2.9 1 4.3.1.5.8.3.7-.2-.3-1.4-.6-2.9-1-4.3-.2-.4-.9-.2-.7.2z"/>
    <path class="st8" d="M88.8 126.7c-.5 1.3-.1 2.9.9 3.8 1 1 2.6 1.1 3.8.4.7-.4 1.2-1 1.5-1.7-.2-.1-.5-.1-.7-.2-.2 1.4.5 2.9 1.8 3.6 1.3.7 2.9.3 3.9-.8.6-.6.9-1.4.9-2.3-.2 0-.5.1-.7.1.3 1.6 1.8 2.8 3.4 2.8 1.6 0 3.1-1.3 3.4-2.8-.2 0-.5-.1-.7-.1.1 1.3 1.2 2.2 2.4 2.4 1.5.2 2.7-.6 3.5-1.8.5-.7.7-1.5.9-2.3-.2 0-.5-.1-.7-.1-.2 1.4 1.2 2.4 2.4 2.6 1.6.2 2.8-.8 3.5-2.1.4-.8.7-1.7.8-2.6-.2 0-.5-.1-.7-.1 0 .8.5 1.5 1.3 1.8.8.3 1.6.2 2.3-.2 1.8-1.2 1.7-3.5 1.5-5.4l-.6.3c.4.5 1 1.1 1.7 1.1.6 0 1.2-.4 1.2-1 .1-.5-.7-.5-.7 0 0 .3-.5.3-.7.3-.4-.1-.7-.5-1-.8-.2-.2-.6-.1-.6.3.1 1.5.3 3.4-.9 4.5-.5.4-1.1.6-1.7.5-.6-.2-1-.6-1-1.2 0-.4-.6-.5-.7-.1-.1.9-.4 1.7-.8 2.5-.4.7-1 1.4-1.7 1.7-1.2.4-3-.3-2.9-1.8 0-.4-.6-.5-.7-.1-.3 1.4-1 3.1-2.6 3.6-1.1.3-2.8-.3-2.8-1.6 0-.4-.6-.5-.7-.1-.2 1.3-1.4 2.3-2.7 2.3-1.3 0-2.4-1-2.7-2.3-.1-.4-.7-.3-.7.1 0 1.5-1.3 2.8-2.8 2.7-1.4-.1-2.6-1.6-2.4-3 .1-.5-.5-.6-.7-.2-.5 1.3-2.2 2-3.5 1.5-1.3-.6-1.9-2.2-1.4-3.5.2-.9-.5-1.1-.6-.7zm-36.4 13.5c-.3 1.7.5 3.7 2.1 4.5 1.6.9 3.6.2 4.5-1.3.5-.8.6-1.9.2-2.8-.1-.3-.7-.2-.7.2.1 1.5 1.3 2.8 2.7 3.2 1.5.4 3-.4 3.8-1.6.4-.7.6-1.6.5-2.4-.2.1-.5.1-.7.2.6 1.4 1.7 2.9 3.2 3.3.7.2 1.5.1 2.1-.2.6-.4 1-.9 1.3-1.6.3-.8.4-1.6.5-2.4-.2 0-.5.1-.7.1.3 1.4 1.6 2.2 2.9 2.3 1.6.2 2.9-.8 3.8-2 .5-.8.9-1.7 1.1-2.6-.2 0-.5-.1-.7-.1 0 1.4 1.3 2.3 2.5 2.4 1.6.1 2.8-1 3.3-2.4.3-.8.4-1.8.3-2.7-.2.1-.4.2-.5.3 1.7 1.2 4.5-.5 4.2-2.6-.1-.5-.8-.5-.7 0 .2 1.5-1.8 2.8-3.1 1.9-.2-.1-.6 0-.5.3.1 1.5-.3 3.6-1.8 4.2-1.1.5-2.9-.2-2.9-1.5 0-.4-.6-.5-.7-.1-.4 1.6-1.3 3.5-3 4-1.3.4-3-.2-3.3-1.7-.1-.4-.7-.3-.7.1-.1 1.3-.5 3.3-2.1 3.6-.8.1-1.5-.3-2.1-.8-.6-.6-1.2-1.3-1.5-2.1-.2-.4-.8-.3-.7.2.2 1.5-.9 3-2.4 3.2-1.5.2-3.1-1.1-3.2-2.6-.2.1-.5.1-.7.2.6 1.3-.4 2.8-1.6 3.3-1.4.5-2.8-.3-3.4-1.6-.4-.7-.5-1.5-.4-2.3-.2-.4-.9-.6-.9-.1z"/>
    <path class="st11" d="M88.1 248.9c6.1 1 12.3 1.3 18.4.9 1.7-.1 3.4-.3 5.1-.5.2 0 .3-.3.3-.4-.1-.2-.3-.3-.4-.3-6 .8-12.1.9-18.1.3-1.7-.2-3.4-.4-5.1-.7-.5-.1-.7.6-.2.7zm7.7-49.4c2.8-.5 5.5-1.1 8.3-1.6.5-.1.3-.8-.2-.7-2.8.5-5.5 1.1-8.3 1.6-.5.1-.3.8.2.7zm.6 1.1h6c.5 0 .5-.7 0-.7h-6c-.4 0-.4.7 0 .7z"/>
    <path class="st11" d="M87.7 166.1c1 5 3.1 9.6 5.5 14.1 2.4 4.6 4.9 9 6.8 13.8 2 5.3 2.8 11 3 16.7.2 6 .1 12.1-.2 18.1-.3 6.1-.8 12.2-1.5 18.2-.1.8-.2 1.5-.3 2.3-.1.5.7.5.7 0 .8-6.1 1.3-12.2 1.6-18.3.3-6.1.5-12.2.4-18.2-.1-5.8-.6-11.6-2.4-17-1.6-4.8-4.1-9.3-6.4-13.8-2.4-4.5-4.7-9.1-6-14.1-.2-.6-.3-1.2-.4-1.9-.2-.5-.9-.3-.8.1zM49 243c4.9-3.1 9.9-6 15.1-8.7 1.4-.8 2.9-1.5 4.4-2.3.4-.2.1-.8-.4-.6-5.2 2.6-10.3 5.4-15.2 8.4-1.4.8-2.8 1.7-4.2 2.6-.5.3-.1.9.3.6zm8.1-75.2c-3.4 2-7 4.2-9.6 7.3-1.3 1.5-2.3 3.1-2.9 4.9-.8 2.3-.7 4.7-.3 7.1.5 2.6 1.4 5 2.2 7.4.9 2.5 1.8 5.1 2.7 7.6 1.8 5.1 3.6 10.1 5.5 15.2 1.9 5 3.7 10.1 5.6 15.1.2.6.5 1.2.7 1.8.2.4.9.2.7-.2-1.9-4.9-3.7-9.9-5.6-14.9-1.8-5-3.6-9.9-5.4-14.9-.9-2.5-1.8-5-2.6-7.4-.9-2.4-1.8-4.9-2.5-7.4-.7-2.4-1.2-5-.8-7.5.3-1.9 1.1-3.7 2.2-5.2 2.3-3.2 5.7-5.5 9.1-7.6.4-.3.8-.5 1.3-.8.5-.1.2-.7-.3-.5z"/>
    <path class="st11" d="M51.6 183.6c-3.9-.3-7.8-1-11.6-2.2-.4-.1-.6.6-.2.7 3.8 1.2 7.8 1.9 11.8 2.2.4.1.4-.6 0-.7zm-1.3 1.5c-3.2.8-6.4 1.1-9.7.8-.5 0-.5.7 0 .7 3.3.3 6.7 0 9.9-.8.5-.1.3-.8-.2-.7zm61.7 40.4c-.2 1-.3 2-.5 3 0 .2 0 .4.3.4.2 0 .4-.1.4-.3.2-1 .3-2 .5-3 0-.2 0-.4-.3-.4-.1 0-.4.1-.4.3zm4-3.8c-.2 1-.5 2-.7 3 0 .2.1.4.3.4.2.1.4-.1.4-.3.2-1 .5-2 .7-3 0-.2-.1-.4-.3-.4-.1 0-.3.1-.4.3zm1.6-8.2c.1 1.2 0 2.5-.3 3.7-.1.4.6.6.7.2.4-1.2.5-2.6.4-3.9 0-.2-.1-.4-.4-.4-.3 0-.5.2-.4.4zm-75.9 5.9c-.2 1 0 2.1.5 2.9.1.2.3.2.5.1s.2-.3.1-.5c-.4-.7-.6-1.6-.5-2.4 0-.2-.1-.4-.3-.4 0 0-.3.1-.3.3zm2.4-1.8c-.3.6-.1 1.4.4 1.9.1.1.4.1.5 0 .1-.1.1-.4 0-.5l-.2-.2c-.1-.2-.1-.2-.1-.3v-.3c0-.2.1-.2.1-.3v-.3c0-.1-.1-.1-.2-.2-.3-.1-.4 0-.5.2zm-3-6.7c.2.6.5 1.3.7 1.9.1.2.2.3.4.3.2-.1.3-.3.3-.4-.2-.6-.5-1.3-.7-1.9-.1-.2-.2-.3-.4-.3-.3 0-.4.2-.3.4zM25.6 187c-.2.7 0 1.4.4 1.9.1.1.4.1.5 0 .1-.2.1-.4 0-.5-.1-.1-.1-.2-.2-.3-.1-.2-.1-.2-.1-.3v-.6c.1-.2-.1-.4-.3-.4-.1-.1-.3 0-.3.2zm2.3 1.5.4.4.1.1h.2s.1 0 .1-.1c.1-.1.1-.2.1-.3 0-.2-.1-.2-.1-.3l-.4-.4-.1-.1H28s-.1 0-.1.1c-.1.1-.1.2-.1.3.1.2.1.2.1.3z"/>
    <path class="st0" d="M14.9 106c5.7 1.5 11.4 2.6 17.2 3.4 1.6.2 3.3.4 4.9.6.5 0 .5-.7 0-.7-5.7-.6-11.5-1.5-17.1-2.8-1.6-.4-3.2-.7-4.8-1.2-.4-.1-.6.6-.2.7z"/>
</svg>
