<svg xmlns="http://www.w3.org/2000/svg" xmlns:xlink="http://www.w3.org/1999/xlink" width="138.8" height="290.6" style="overflow:visible;enable-background:new 0 0 138.8 290.6" xml:space="preserve">
    <style>
        .st0{fill:#773b0a}.st1{fill:#cc7748}.st2{fill:#dc4345}.st3{fill:#3b4a56}.st4{clip-path:url(#SVGID_2_)}.st5{fill:#fff}.st6{clip-path:url(#SVGID_4_)}.st7{clip-path:url(#SVGID_6_)}.st8{fill:#b25f14}.st10{fill:#561e1c}.st12{fill:#511014}.st13{fill:#512c13}
    </style>
    <path class="st0" d="m88 262.9 9.7 4.2c2.6 1.1 5.4 1.5 8.1 1l12.4-1.9c3.8-.6 7.2-2.6 9.5-5.7l-17.2-3.9-22.5 6.3zm-59.9-48v9c0 8.3 2.2 16.5 6.5 23.7l2.8 4.6 9.5-25.1-18.8-12.2z"/>
    <path class="st1" d="M16.6 217.3c4.3-.9 8.6-1.6 13-1.9.8-.1 1.7-.1 2.3.5.4.4.6 1 .7 1.6.6 3.2 1.3 6.4 1.9 9.7-6.5.5-13.1.3-19.6-.4l-1.8-5.4 3.5-4.1z"/>
    <path class="st2" d="M17.8 228.9c1-.8 2.4-.5 3.7-.5 1.3.1 4.3 1.7 4.8.5.3-.8-1.4-3.5-1.7-4.3l-2.4-7.2c-.1-.2-.2-.5-.3-.6-.3-.3-.8-.4-1.2-.5-4.8-.7-9.7-.9-14.6-.8l.4 34.2s3.8 2.2 4.2-1.6c.5-3.8-.4-4.9-.4-4.9l7.5-14.3z"/>
    <path class="st3" d="m6.5 250-6 .1-.5-34.5 6.1-.1.5 34.7z"/>
    <defs>
        <path id="SVGID_1_" d="M17.8 228.9c1-.8 2.4-.5 3.7-.5 1.3.1 4.3 1.7 4.8.5.3-.8-1.4-3.5-1.7-4.3l-2.4-7.2c-.1-.2-.2-.5-.3-.6-.3-.3-.8-.4-1.2-.5-4.8-.7-9.7-.9-14.6-.8l.4 34.2s3.8 2.2 4.2-1.6c.5-3.8-.4-4.9-.4-4.9l7.5-14.3z"/>
    </defs>
    <clipPath id="SVGID_2_">
        <use xlink:href="#SVGID_1_" style="overflow:visible"/>
    </clipPath>
    <g class="st4">
        <path class="st5" d="M18.6 217.3c1.1 2 2 4.2 2.6 6.4.2-.1.3-.2.5-.3l-2.4-.6c-.7-.2-1.5-.3-2.3-.1-.7.2-1.4.5-1.8 1.1-.4.6-.5 1.2-.5 1.9-.1.7-.1 1.3-.2 2-.1.6-.4 1.2-.6 1.7-.5 1.2-1.3 2.2-2 3.3-.7 1.2-1.4 2.5-1.7 3.9-.1.4.6.5.7.1.5-2.4 2.2-4.3 3.3-6.4.6-1.1 1-2.2 1.1-3.4.1-1.2 0-2.7 1.3-3.4.7-.4 1.5-.3 2.3-.2.9.2 1.8.4 2.6.7.2.1.5-.1.5-.3-.6-2.3-1.5-4.5-2.7-6.6-.3-.4-.9-.2-.7.2z"/>
    </g>
    <g class="st4">
        <path class="st5" d="M12.4 235c.9.2 1.7.8 2.1 1.7.2.4.8.1.6-.3-.5-1.1-1.5-1.9-2.6-2.1-.2 0-.3.1-.4.3 0 .2.2.4.3.4z"/>
    </g>
    <g class="st4">
        <path class="st5" d="M13.9 232.8c.9.3 1.7.9 2.1 1.8.1.2.3.2.4.2.2-.1.3-.3.2-.4-.5-1-1.4-1.8-2.5-2.1-.2-.1-.4 0-.4.2-.1 0 0 .2.2.3z"/>
    </g>
    <g class="st4">
        <path class="st5" d="M15.1 230.4c.9.5 1.8 1.1 2.5 1.9.1.1.3.2.5.1.1-.1.2-.3.1-.5-.8-.9-1.7-1.6-2.7-2.1-.2-.1-.4 0-.4.2-.2.1-.1.3 0 .4z"/>
    </g>
    <g class="st4">
        <path class="st5" d="M7.5 244.5c.7-.3 1.5-.3 2.2-.1.2 0 .3-.1.4-.3 0-.2-.1-.3-.3-.4-.9-.2-1.8-.2-2.6.2-.2 0-.2.2-.2.4.1.2.3.2.5.2z"/>
    </g>
    <g class="st4">
        <path class="st5" d="M6.7 219.8c1.8.1 3.6-.6 5.1-1.6 1.5-1.1 2.6-2.7 3.6-4.3l1.5-3c.2-.4-.4-.6-.6-.2-1.5 3.1-3.2 6.6-6.6 8-.9.4-1.8.6-2.8.5-.5 0-.6.6-.2.6z"/>
    </g>
    <path class="st1" d="M106.4 272.2c-.6-4.3-1-8.7-1-13.1 0-.8 0-1.7.6-2.2.4-.4 1.1-.5 1.7-.6 3.3-.4 6.5-.8 9.8-1.2 0 6.5-.6 13.1-1.8 19.5-1.8.5-3.7 1-5.5 1.5l-3.8-3.9z"/>
    <path class="st2" d="M118 271.8c-.7-1.1-.4-2.4-.2-3.7.2-1.3 2-4.1.8-4.7-.8-.4-3.6 1.2-4.4 1.4-2.4.6-4.9 1.3-7.3 1.9-.2.1-.5.1-.7.3-.3.3-.5.7-.5 1.1-1 4.8-1.6 9.6-1.8 14.5l34.2 2s2.4-3.6-1.3-4.3c-3.7-.7-5 .1-5 .1l-13.8-8.6z"/>
    <path class="st3" d="m138.3 284.6-.4 6-34.4-1.9.3-6.1 34.6 1.9z"/>
    <defs>
        <path id="SVGID_3_" d="M118 271.8c-.7-1.1-.4-2.4-.2-3.7.2-1.3 2-4.1.8-4.7-.8-.4-3.6 1.2-4.4 1.4-2.4.6-4.9 1.3-7.3 1.9-.2.1-.5.1-.7.3-.3.3-.5.7-.5 1.1-1 4.8-1.6 9.6-1.8 14.5l34.2 2s2.4-3.6-1.3-4.3c-3.7-.7-5 .1-5 .1l-13.8-8.6z"/>
    </defs>
    <clipPath id="SVGID_4_">
        <use xlink:href="#SVGID_3_" style="overflow:visible"/>
    </clipPath>
    <g class="st6">
        <path class="st5" d="M106.5 270.2c2.1-1 4.3-1.7 6.6-2.2-.1-.2-.2-.3-.3-.5-.3.8-.6 1.6-.8 2.4-.2.7-.4 1.5-.3 2.3.1.7.4 1.4 1 1.9.5.4 1.2.6 1.8.7.7.1 1.3.2 1.9.4.6.2 1.1.4 1.7.7 1.1.6 2.1 1.4 3.2 2.2 1.2.8 2.4 1.6 3.8 2 .4.1.5-.5.1-.6-2.4-.7-4.2-2.5-6.2-3.7-1-.6-2.1-1.2-3.3-1.4-1.2-.2-2.7-.2-3.3-1.5-.3-.8-.2-1.6 0-2.3.2-.9.6-1.7.8-2.6.1-.2 0-.5-.3-.5-2.3.4-4.6 1.2-6.8 2.2-.2.1 0 .7.4.5z"/>
    </g>
    <g class="st6">
        <path class="st5" d="M123.7 277.6c.2-.9.9-1.7 1.8-2 .4-.1.2-.8-.2-.6-1.1.4-2 1.3-2.2 2.4 0 .2.1.4.3.4.1.1.3 0 .3-.2z"/>
    </g>
    <g class="st6">
        <path class="st5" d="M121.6 276c.3-.9 1-1.6 1.9-2 .2-.1.3-.2.2-.4-.1-.2-.3-.3-.4-.2-1 .4-1.9 1.3-2.3 2.3-.1.2 0 .4.2.4.1.2.4.1.4-.1z"/>
    </g>
    <g class="st6">
        <path class="st5" d="M119.3 274.6c.5-.9 1.2-1.7 2-2.3.1-.1.2-.3.1-.5-.1-.1-.3-.2-.5-.1-.9.7-1.7 1.6-2.3 2.6-.1.2 0 .4.2.4.2.1.4.1.5-.1z"/>
    </g>
    <g class="st6">
        <path class="st5" d="M132.8 283.2c-.2-.7-.2-1.5.1-2.2.1-.2-.1-.4-.3-.4-.2 0-.3.1-.4.3-.3.8-.3 1.7 0 2.6.1.2.3.3.4.2.2-.1.3-.3.2-.5z"/>
    </g>
    <g class="st6">
        <path class="st5" d="M108.2 282.3c.3-1.8-.3-3.6-1.3-5.2s-2.5-2.8-4.1-3.9c-.9-.6-1.9-1.2-2.8-1.7-.4-.2-.7.4-.3.6 3 1.7 6.4 3.7 7.6 7.2.3.9.4 1.9.3 2.8-.1.5.6.6.6.2z"/>
    </g>
    <defs>
        <path id="SVGID_5_" d="M97.3 127.2c4.1 10.5 17 37.4 29.2 63.1 11.4 24.2 1.8 69.8 1.2 70.2 0 0-29.6 5.8-39.7 2.3-1.4-15.5 15.9-59.1 15.8-59.1-1.9-14.5-11.1-26.8-14.1-38.8 2.6 10.1 1.9 36.8-2.6 46.2-4.6 9.4-23.7 43-49.7 41-2.3-8.9-7-28.4-9.3-37.3 16.4-3.9 24.6-8.1 38.7-16.7-3.5-15.4-2.1-43.5-4.6-59 13.5-2.1 35.1-11.9 35.1-11.9z"/>
    </defs>
    <use xlink:href="#SVGID_5_" style="overflow:visible;fill:#ec8117"/>
    <clipPath id="SVGID_6_">
        <use xlink:href="#SVGID_5_" style="overflow:visible"/>
    </clipPath>
    <g class="st7">
        <path class="st8" d="M65.6 135c2 8.1 3.6 16.4 4.8 24.7 1.1 8.3 1.8 16.8 2 25.2.2 6.9.4 15-4.9 20.2-2.7 2.6-6.2 4.3-9.5 6.1-3.6 2-7.3 3.9-11 5.7-7.4 3.7-15 7.1-22.6 10.3-.9.4-1.9.8-2.8 1.2-.4.1-.2.7.2.6 7.8-3.2 15.4-6.6 22.9-10.2 3.8-1.8 7.5-3.7 11.2-5.7 1.9-1 3.7-2 5.5-3 1.6-.9 3.2-1.8 4.7-2.9 1.4-1.1 2.7-2.3 3.7-3.8 1-1.4 1.7-3 2.2-4.6 1-3.4 1.2-6.9 1.2-10.4 0-8.5-.6-17-1.6-25.4-1-8.4-2.5-16.8-4.5-25-.2-1-.5-2.1-.8-3.1-.2-.5-.8-.3-.7.1z"/>
    </g>
    <g class="st7">
        <path class="st8" d="M73.1 135c2.3 9 4.1 18.1 5.3 27.3 1.2 9.1 1.8 18.3 1.9 27.5 0 4.2-.1 8.5-1.5 12.6-1.4 4-4.1 7.2-7.1 10.1-6.2 6.1-12.8 11.8-19.5 17.2-6.2 5.1-12.5 9.9-19 14.5-.8.6-1.6 1.1-2.4 1.7-.3.2 0 .8.3.5 6.5-4.6 13-9.3 19.2-14.4 6.9-5.5 13.5-11.4 20-17.4 2.9-2.8 5.9-5.6 7.8-9.2 2-3.7 2.6-7.9 2.8-12.1.2-4.5 0-9.1-.3-13.6-.2-4.7-.6-9.4-1.2-14.1-1.1-9.2-2.7-18.4-4.9-27.4-.3-1.1-.6-2.2-.8-3.3-.1-.5-.7-.3-.6.1z"/>
    </g>
    <g class="st7">
        <path class="st8" d="M81.5 130.8c2.2 10.2 3.8 20.4 5.1 30.8.6 5.2 1.1 10.4 1.5 15.6.3 5 .7 10 .5 15-.2 4.9-1 9.8-3.1 14.2-1.9 4.1-4.8 7.7-7.8 11.1-3.2 3.6-6.6 7-10 10.5-3.6 3.6-7.2 7.2-10.8 10.7-7.3 7-14.7 13.8-22.3 20.5-.9.8-1.9 1.6-2.8 2.5-.3.3.1.7.4.4 7.8-6.7 15.4-13.6 22.8-20.7 7.3-7 14.5-14.1 21.4-21.5 3.1-3.3 6.1-6.8 8.3-10.7 2.4-4.1 3.7-8.5 4.2-13.2.5-4.9.3-9.9 0-14.9-.3-5.2-.7-10.5-1.3-15.7-1.1-10.4-2.7-20.7-4.7-31-.3-1.3-.5-2.5-.8-3.8-.1-.3-.7-.2-.6.2z"/>
    </g>
    <g class="st7">
        <path class="st8" d="M86.1 128.4c3.4 8.7 6.5 17.6 9.2 26.6 2.7 9 5.1 18 6.9 27.2.9 4.7 1.5 9.5 1.7 14.2.2 4.4.1 8.9-.1 13.4-.4 8.8-1.6 17.5-3.6 26.1-2 8.6-4.8 16.9-8.3 25-.4 1-.9 2-1.4 3.1-.2.4.4.7.5.3 3.7-8 6.7-16.3 8.9-24.9 2.2-8.5 3.6-17.1 4.2-25.8.7-9.1.7-18.3-.7-27.3-1.4-9.4-3.9-18.6-6.5-27.7-2.6-9.1-5.6-18.1-9-27-.4-1.1-.8-2.2-1.3-3.3 0-.5-.6-.3-.5.1z"/>
    </g>
    <g class="st7">
        <path class="st8" d="M91.8 128.9c5.1 9 9.4 18.5 12.7 28.3 3.3 9.7 5.8 19.8 7.3 29.9 1.5 10.2 2.2 20.6 1.9 30.9-.3 10.3-1.5 20.7-3.6 30.8-2.1 10.1-5.1 19.9-9 29.4-.5 1.2-1 2.4-1.6 3.7-.2.4.4.7.5.3 4.2-9.5 7.5-19.3 9.8-29.4 2.3-10.1 3.8-20.4 4.3-30.7.5-10.4.1-20.9-1.2-31.2s-3.5-20.4-6.7-30.3c-3.1-9.9-7.1-19.5-12-28.6-.6-1.2-1.3-2.3-1.9-3.4-.1-.4-.7-.1-.5.3z"/>
    </g>
    <g class="st7">
        <path class="st8" d="M105.4 145.3c3.8 7.8 6.9 15.8 9.2 24.1 2.4 8.2 4.1 16.7 5.1 25.2s1.4 17.1 1 25.7c-.4 8.6-1.4 17.1-3.1 25.5-1.7 8.4-4.2 16.6-7.3 24.6-.4 1-.8 2-1.2 2.9-.1.4.4.5.6.2 3.3-8 5.9-16.3 7.8-24.7 1.9-8.4 3.1-16.9 3.6-25.5.5-8.6.3-17.3-.5-25.9-.9-8.6-2.4-17-4.7-25.4-2.2-8.3-5.1-16.4-8.7-24.1-.5-1-.9-2-1.4-3-.1-.3-.6 0-.4.4z"/>
    </g>
    <g class="st7">
        <path class="st8" d="M122.9 173.1c1.4 7.5 2.3 15 2.9 22.6.5 7.5.7 15.1.4 22.7-.3 7.6-1 15.2-2 22.7-1.1 7.5-2.6 14.9-4.4 22.2-1.9 7.3-4.1 14.5-6.8 21.6-.3.9-.7 1.8-1 2.6-.1.4.4.5.6.2 2.8-7.1 5.2-14.4 7.1-21.7 2-7.3 3.5-14.8 4.7-22.3 1.2-7.5 1.9-15.1 2.3-22.6.4-7.6.3-15.2-.1-22.8-.4-7.6-1.3-15.1-2.6-22.6-.2-.9-.3-1.9-.5-2.8-.1-.3-.7-.2-.6.2z"/>
    </g>
    <g class="st7">
        <path class="st0" d="m83.1 166 11.4-3.3c.4-.1.2-.7-.2-.6l-11.4 3.3c-.3.1-.2.7.2.6z"/>
    </g>
    <g class="st7">
        <path class="st0" d="M34.8 207c.8 3.7 1.6 7.3 2.4 10.9.8 3.6 1.7 7.2 2.6 10.8.9 3.6 1.8 7.2 2.8 10.9 1 3.6 1.9 7.2 2.9 10.8 1 3.6 2 7.1 3.1 10.7.1.5.3.9.4 1.4.1.4.7.2.6-.2-1.1-3.6-2.1-7.2-3.1-10.8l-3-10.8c-1-3.6-1.9-7.2-2.8-10.9-.9-3.6-1.8-7.3-2.6-10.9-.8-3.6-1.7-7.2-2.4-10.9-.1-.5-.2-.9-.3-1.4-.1-.1-.7.1-.6.4z"/>
    </g>
    <g class="st7">
        <path class="st0" d="M83.6 254.8c3.3.2 6.7.3 10.1.4 3.4 0 6.7-.1 10.1-.2 3.4-.2 6.7-.5 10-.8 3.3-.4 6.6-.9 9.9-1.4 3.3-.6 6.6-1.2 9.9-2l1.2-.3c.4-.1.2-.7-.2-.6-3.2.8-6.5 1.5-9.8 2.1-3.3.6-6.6 1.1-10 1.5-3.3.4-6.6.7-10 .9-3.3.2-6.7.3-10 .3-3.4 0-6.7-.1-10.1-.3-.4 0-.8 0-1.2-.1-.3-.1-.3.5.1.5z"/>
    </g>
    <g class="st7">
        <path class="st0" d="M99.3 205.5c4.5-1.9 9.1-3.7 13.8-5.4 1.3-.5 2.6-.9 3.9-1.3.4-.1.2-.7-.2-.6-4.7 1.6-9.4 3.3-14 5.2-1.3.5-2.6 1.1-3.9 1.6-.3.1 0 .6.4.5z"/>
    </g>
    <g class="st7">
        <path class="st0" d="M99.7 208.7c4.6-1.7 9.3-3.4 14-4.9 1.3-.4 2.7-.9 4-1.3.4-.1.2-.7-.2-.6-4.7 1.5-9.4 3.1-14.1 4.7-1.3.5-2.6 1-3.9 1.4-.3.3-.2.9.2.7z"/>
    </g>
    <g class="st7">
        <path class="st0" d="M63.3 195.8 74.4 206c1 1 2.1 1.9 3.1 2.9.3.3.7-.2.4-.4l-11.1-10.2c-1-1-2.1-1.9-3.1-2.9-.3-.3-.7.2-.4.4z"/>
    </g>
    <g class="st7">
        <path class="st0" d="M62.7 194c4.1 3.2 8.5 6.1 13.1 8.5 1.3.7 2.6 1.3 4 2 .4.2.7-.4.3-.5-4.7-2.2-9.2-4.8-13.5-7.8-1.2-.8-2.4-1.7-3.5-2.6-.2-.3-.7.1-.4.4z"/>
    </g>
    <g class="st7">
        <path class="st0" d="M69.2 132c0 5-.4 10.1-1.2 15-.8 4.9-2.1 9.8-3.8 14.5-1 2.7-2 5.3-3.3 7.8-.2.4.4.7.5.3 2.2-4.6 3.9-9.3 5.3-14.2 1.3-4.9 2.2-9.9 2.7-14.9.3-2.8.4-5.7.4-8.6 0-.3-.6-.3-.6.1z"/>
    </g>
    <g class="st7">
        <path class="st0" d="M71.6 133.8c0 4.2-.4 8.4-1.2 12.6-.7 4.2-1.8 8.3-3.2 12.2-.8 2.2-1.7 4.4-2.7 6.6-.2.4.4.7.5.3 1.8-3.9 3.3-7.9 4.4-12 1.1-4.1 1.9-8.3 2.4-12.6.2-2.4.4-4.8.4-7.2 0-.3-.6-.3-.6.1z"/>
    </g>
    <g class="st7">
        <path class="st0" d="M87.4 125.7c2.6 3.6 6 6.7 9.7 9.1 3.8 2.4 8 4.1 12.4 5 2.5.5 5 .7 7.5.7.4 0 .4-.6 0-.6-4.4.1-8.7-.8-12.8-2.3-4.1-1.6-7.9-3.9-11.2-6.8-1.8-1.6-3.5-3.5-5-5.5-.3-.2-.8.1-.6.4z"/>
    </g>
    <g class="st7">
        <path class="st0" d="M87.1 131.6c2.6 2.9 5.8 5.2 9.3 6.9 3.5 1.7 7.3 2.7 11.2 2.9 2.2.1 4.4 0 6.5-.3.4-.1.2-.7-.2-.6-3.7.6-7.6.4-11.3-.5-3.7-.9-7.2-2.5-10.3-4.6-1.8-1.2-3.4-2.7-4.8-4.3-.3-.2-.7.2-.4.5z"/>
    </g>
    <path class="st1" d="M50.2 95.5c-4.8 8.7-10 17.1-15.6 25.3-3.1-4.7-5.9-9.6-8.3-14.7-1.5-3-5.6-14-5.4-17.3.1-1.8.6-3.5.2-5.2-.4-1.7-2.4-3.2-3.9-2.3-.3-3.4-2.1-8.5-4.2-12-.4-.7-1.4-.4-1.4.4 0 3 .9 7 1.8 9.1-.3-1.1-.8-2.1-1.5-3-.4-.5-1.2-.4-1.5.2-.4 1.1-.4 2.3.1 3.3 0-1.2-.7-2.4-1.7-3.1-.5-.3-1.2 0-1.3.6-.2 1.2-.2 2.4.1 3.5-.1-1-.2-2.1-1.2-2.6-.5-.3-1.1-.2-1.5.2-.4.5-.3 1.1-.1 1.6 3.5 11.8 9.7 31.4 13.2 43.2 1.4 4.9 3 9.9 6.2 13.9 1.4 1.8 4.8 7 11.6 4.3 12.9-5.2 20.9-18.9 28-30.9L50.2 95.5zm47.5-21.8c5.8-2 17.2-8.1 17.2-9 .3-11.4 3-25.1 3.2-36.5 0-.8 0-1.6-.2-2.4-.5-1.8-4.5-7.6-4.3-9 .2-1.8 1.3-4 1.8-5.7 0 0 .8-7.3 1.2-10.9.7-1 2.1.5 2.3 1.7.5 2.5.8 5 .9 7.6-.2-1.5-.1-3.1.5-4.5.3-.8 1.3-1 1.9-.3.8.9 1.3 2.3 1 3.5-.1-1 .1-2 .6-2.8.5-.7 1.6-.7 1.9.1.4.8.6 1.7.7 2.7-.8-.6.6-2 1.5-1.4.9.5 1 1.8 1 2.8.1 6.7.2 13.4.4 20.1l.3 14.2c.1 6.5.4 20.4.5 26.8.1 5.1-.1 3.1-2.9 7.3-1.7 2.5-4.2 4.4-6.8 6-8.2 5.2-15.6 8.2-21.6 10.9-2.2-4.2-4-8.7-5.2-13.4l4.1-7.8z"/>
    <path d="M79.2 77.2c7.8-2.2 15.6-4.5 23.5-6.7.5-.1 1.1-.3 1.4-.7.3-.3.4-.8.7-1.2.6-.8 1.9-.8 2.6-.1-.5-1.7 2-3.4 3.4-2.2.5-1.4 2.6-2 3.8-1 1.9 6.1 8.6 9.1 14.6 11.4.3 1.6-1.3 3.2-2.9 3 1.1.8 1.5 2.5.7 3.7-.8 1.2-2.5 1.5-3.7.8 1.4.3 1.2 2.5 0 3.2-1.2.7-2.7.3-4.1-.1-.1 2.2-2.8 3.1-4.9 3.7-3.4.9-7.7 3.6-10.6 5.5-.6.4-1.3.9-1.7 1.6-.5.7-.6 1.6-.8 2.4-.8 4.7-.1 8.4-.1 13.2-.1 5.4.3 10.9-.8 16.1-.2 1.1-.6 2.2-1.3 3.1-.6.7-1.4 1.2-2.3 1.7-10 5.5-21.7 7.6-33 6.2-.8-.1-1.6-.2-2.2-.7-.6-.5-.9-1.4-1.2-2.1-1.5-4.7-3-9.4-4.6-14.1l-3.6 5.4c1.4.4 1.6 2.4.6 3.4-.9 1-2.5 1.2-3.9 1.1.7.8.2 2.2-.7 2.9-.9.7-2 .9-3 1.5-.5.3-1 .6-1.5.6-.8 0-1.2-.8-1.6-1.5-2.7-5.4-5.1-11-7-16.7-.5-1.6-.7-3.9.9-4.5-1-1.3.2-3.5 1.8-3.3-.8-1.2 0-3 1.4-3.3-.8.2-1.4-.8-1.1-1.6.3-.8 1-1.2 1.7-1.7 4.8-3.2 7.1-8.9 10.9-13.2 4.5-5 10.8-8 16.9-10.8 3.6-1.7 7.2-3.3 11.1-4.2l.6-.8z" style="fill:#a32b31"/>
    <path class="st10" d="M17.2 81.3c-1.6 1-3.1 2.2-4.4 3.6-.3.3-.6.6-.6 1 0 .3.2.6.5.8.6.5 1.6.4 2.3.4 1.1-.1 2.2-.3 3.2-.7-.1-.2-.2-.3-.3-.5-1.7 1.5-2.4 4.1-1.5 6.3.1.4.7.2.6-.2-.8-2-.2-4.3 1.4-5.7.2-.2 0-.6-.3-.5-.8.3-1.6.5-2.4.6-.4.1-.8.1-1.3.1-.3 0-.7 0-1-.1-.2-.1-.5-.2-.5-.4-.1-.3.4-.6.6-.8.6-.6 1.2-1.1 1.8-1.6.7-.6 1.5-1.2 2.3-1.7.2-.2-.1-.8-.4-.6zm-5.1-4.9c.4 1 .7 2 1.1 3 .2.5.3.9.5 1.4.1.3.2.6.1 1 0 .3-.2.5-.5.5-.4 0-.7-.4-1-.7-.6-.7-1-1.5-1.2-2.3-.2.1-.4.2-.6.2.5.8.9 1.6 1.2 2.5.2.5.3.9.4 1.4.1.3.1.8-.2 1-.3.2-.6 0-.9-.1-.3-.2-.6-.5-.8-.8-.5-.7-.9-1.6-1.2-2.5-.2.1-.4.2-.6.2.4.7.8 1.4.9 2.2.1.6.3 1.6-.2 2-.5.4-1.2-.1-1.5-.6-.4-.7-.5-1.5-.9-2.1-.2-.3-.7 0-.5.3.4.6.5 1.4.9 2 .3.5.8 1 1.4 1.1.6.1 1.2-.2 1.4-.8.2-.6.2-1.4 0-2-.2-.8-.5-1.6-1-2.4-.2-.3-.7-.1-.6.2.2.8.6 1.6 1 2.3.4.6.9 1.2 1.6 1.5.6.2 1.4 0 1.6-.7.1-.4.1-.8 0-1.1-.1-.4-.2-.8-.3-1.3-.3-.9-.7-1.9-1.3-2.7-.2-.3-.6-.1-.6.2.2.8.5 1.5 1 2.1.4.6 1.1 1.4 1.9 1.3.7 0 1-.7 1-1.3 0-.8-.3-1.6-.6-2.3-.3-1-.7-2.1-1.1-3.1.1-.1-.5 0-.4.4z"/>
    <path class="st10" d="M9.5 86.3c2.2 1.6 3.9 3.9 4.9 6.4.1.4.7.2.6-.2-1.1-2.7-2.8-5.1-5.2-6.8-.3-.2-.6.3-.3.6zm106.1-73.8c2 .4 3.9 1.3 5.5 2.7.4.3.8.7 1.1 1.1.3.4.6.9.4 1.3-.2.8-1.2.8-1.9.6-.5-.2-.9-.5-1.3-.7-.5-.3-1-.6-1.6-.7-.3-.1-.5.4-.2.6 2.1 1.4 4.6 3.1 4.9 5.8 0 .4.6.4.6 0-.3-3-2.9-4.9-5.2-6.4-.1.2-.2.4-.2.6 1.1.2 1.9 1.1 2.9 1.4.8.3 1.9.2 2.4-.5.7-1-.1-2.1-.8-2.8-.8-.8-1.8-1.5-2.8-2.1-1.1-.6-2.4-1.1-3.7-1.4-.4-.2-.5.4-.1.5zm3.6-5.9c-.5 2.3-.9 5.3 1 7.1.1.1.3.1.4 0 1.3-1.4 2-3.1 2.2-4.9 0-.2-.1-.3-.3-.3-.2 0-.3.1-.3.2-.6 1.4-.7 3-.3 4.5.1.3.2.6.5.8.3.2.7.2 1 0 .5-.4.9-1 1.1-1.6.2-.7.2-1.5 0-2.2-.1-.3-.5-.3-.6 0-.1.8-.2 1.6-.2 2.5 0 .7-.1 1.5.3 2s1 .5 1.5.3c.6-.2 1-.6 1.3-1.2.3-.6.5-1.4 1.1-1.9.3-.3-.2-.7-.4-.4-.5.5-.7 1.2-1 1.8-.3.6-.7 1.1-1.3 1.2-.8.1-.8-.8-.8-1.4 0-.9.1-1.8.2-2.8h-.6c.2.6.2 1.3 0 1.9-.1.3-.3.6-.5.8l-.3.3c-.2.1-.3.1-.4-.1-.2-.3-.2-.7-.3-1.1-.1-.4-.1-.8-.1-1.2 0-.8.2-1.6.5-2.3-.2 0-.4-.1-.6-.1-.2 1.7-.9 3.3-2.1 4.5h.4c-1.8-1.6-1.3-4.4-.8-6.5.1-.1-.5-.3-.6.1z"/>
    <path class="st10" d="M125.5 14.8c-1.9 2-2.1 5.4-.4 7.6.2.3.7-.1.4-.4-1.5-1.9-1.3-5 .4-6.7.3-.3-.1-.8-.4-.5zm-91 106.1c0 2.2-.1 4.3-.5 6.4-.1.4.5.5.6.2.4-2.2.6-4.4.6-6.6-.1-.4-.7-.4-.7 0zm85.8-54.7c.3 1 .3 2.1-.1 3-.1.2 0 .3.1.4.1.1.4 0 .4-.1.5-1.1.5-2.3.1-3.5 0-.3-.6-.1-.5.2z"/>
    <defs>
        <path id="SVGID_7_" d="M79.2 77.2c7.8-2.2 15.6-4.5 23.5-6.7.5-.1 1.1-.3 1.4-.7.3-.3.4-.8.7-1.2.6-.8 1.9-.8 2.6-.1-.5-1.7 2-3.4 3.4-2.2.5-1.4 2.6-2 3.8-1 1.9 6.1 8.6 9.1 14.6 11.4.3 1.6-1.3 3.2-2.9 3 1.1.8 1.5 2.5.7 3.7-.8 1.2-2.5 1.5-3.7.8 1.4.3 1.2 2.5 0 3.2-1.2.7-2.7.3-4.1-.1-.1 2.2-2.8 3.1-4.9 3.7-3.4.9-7.7 3.6-10.6 5.5-.6.4-1.3.9-1.7 1.6-.5.7-.6 1.6-.8 2.4-.8 4.7-.1 8.4-.1 13.2-.1 5.4.3 10.9-.8 16.1-.2 1.1-.6 2.2-1.3 3.1-.6.7-1.4 1.2-2.3 1.7-10 5.5-21.7 7.6-33 6.2-.8-.1-1.6-.2-2.2-.7-.6-.5-.9-1.4-1.2-2.1-1.5-4.7-3-9.4-4.6-14.1l-3.6 5.4c1.4.4 1.6 2.4.6 3.4-.9 1-2.5 1.2-3.9 1.1.7.8.2 2.2-.7 2.9-.9.7-2 .9-3 1.5-.5.3-1 .6-1.5.6-.8 0-1.2-.8-1.6-1.5-2.7-5.4-5.1-11-7-16.7-.5-1.6-.7-3.9.9-4.5-1-1.3.2-3.5 1.8-3.3-.8-1.2 0-3 1.4-3.3-.8.2-1.4-.8-1.1-1.6.3-.8 1-1.2 1.7-1.7 4.8-3.2 7.1-8.9 10.9-13.2 4.5-5 10.8-8 16.9-10.8 3.6-1.7 7.2-3.3 11.1-4.2l.6-.8z"/>
    </defs>
    <clipPath id="SVGID_8_">
        <use xlink:href="#SVGID_7_" style="overflow:visible"/>
    </clipPath>
    <path d="M69 111.2c0 1.1-.9 2-2 2s-2-.9-2-2 .9-2 2-2 2 .9 2 2zm-1.4 18.7c0 1.1-.9 2-2 2s-2-.9-2-2 .9-2 2-2c1.2 0 2 .9 2 2zm13.7-29c0 1.1-.9 2-2 2s-2-.9-2-2 .9-2 2-2 2 .9 2 2zm-31.5 13.8c0 1.1-.9 2-2 2s-2-.9-2-2 .9-2 2-2c1.2 0 2 .9 2 2zm-10.1-2.1c0 1.1-.9 2-2 2s-2-.9-2-2 .9-2 2-2 2 .9 2 2zm9.6 16.8c0 1.1-.9 2-2 2s-2-.9-2-2 .9-2 2-2c1.1.1 2 .9 2 2zm20.2-45.6c0 1.1-.9 2-2 2s-2-.9-2-2 .9-2 2-2 2 .9 2 2zm-16.7 8.5c0 1.1-.9 2-2 2s-2-.9-2-2 .9-2 2-2c1.1.1 2 .9 2 2zm33.8 23c0 1.1-.9 2-2 2s-2-.9-2-2 .9-2 2-2 2 .9 2 2zm14.4 0c0 1.1-.9 2-2 2s-2-.9-2-2 .9-2 2-2 2 .9 2 2zm-6.8 11.3c0 1.1-.9 2-2 2s-2-.9-2-2 .9-2 2-2 2 .9 2 2zm-9.3 5.4c0 1.1-.9 2-2 2s-2-.9-2-2 .9-2 2-2 2 .9 2 2zm8.9-36.3c0 1.1-.9 2-2 2s-2-.9-2-2 .9-2 2-2 2 .9 2 2zm9.5 8.3c0 1.1-.9 2-2 2s-2-.9-2-2 .9-2 2-2c1.1.1 2 .9 2 2zm-20-19.6c0 1.1-.9 2-2 2s-2-.9-2-2 .9-2 2-2 2 .9 2 2zm18.1-2.5c0 1.1-.9 2-2 2s-2-.9-2-2 .9-2 2-2 2 .9 2 2zm12.6 4.3c0 1.1-.9 2-2 2s-2-.9-2-2 .9-2 2-2 2 .9 2 2zm1.9-10.5c0 1.1-.9 2-2 2s-2-.9-2-2 .9-2 2-2c1.2 0 2 .9 2 2zM61 98c0 1.1-.9 2-2 2s-2-.9-2-2 .9-2 2-2 2 .9 2 2z" style="clip-path:url(#SVGID_8_);fill:#fff"/>
    <path class="st12" d="M36.1 116.3c2.7 4.2 4.9 8.6 6.8 13.3.5 1.3 1 2.6 1.4 3.9.1.4.7.2.6-.2-1.6-4.7-3.6-9.3-6.1-13.7-.7-1.2-1.4-2.5-2.2-3.7-.2-.2-.7.1-.5.4zm1.7-5.5c3.2 4.3 5.9 8.9 8 13.8.3.7.6 1.4.9 2 .1.3.3.7.4 1 .1.2.1.3.2.5 0 .1.1.2.1.2v.1c.4-.1.5 0 .2.3h-.2c.2 0 .3 0 .4-.2 0-.1-.1-.4-.2-.4-.7-.1-.5 1 .1.8.3-.1.3-.5.2-.7-.1-.4-.3-.7-.4-1-.6-1.4-1.2-2.9-1.8-4.3-1.3-2.8-2.8-5.5-4.4-8.1-.9-1.5-1.9-2.9-3-4.3-.2-.3-.7 0-.5.3zm3.3 2.9c2.5 3.7 4.8 7.5 6.6 11.6.5 1.1 1 2.3 1.5 3.5.1.4.7.2.6-.2-1.7-4.2-3.7-8.2-6.1-12-.7-1.1-1.4-2.1-2.1-3.2-.2-.3-.7 0-.5.3zm7.3 6.8c1.2 2.3 2.3 4.6 3.5 6.9.2.4.7 0 .5-.3-1.2-2.3-2.3-4.6-3.5-6.9-.2-.4-.7-.1-.5.3zm2.4-20.9c1.3 6.3 2.6 12.7 3.9 19 .4 1.8.7 3.6 1.1 5.4.1.4.7.2.6-.2-1.3-6.3-2.6-12.7-3.9-19-.4-1.8-.7-3.6-1.1-5.4-.1-.4-.7-.2-.6.2z"/>
    <path class="st12" d="M49.5 105.1c1.1 1.2 2.1 2.4 3 3.8.2.3.7 0 .5-.3-.9-1.4-1.9-2.7-3.1-3.9-.2-.3-.6.1-.4.4zm-7.6 2c1.8 1.8 3.1 4 3.7 6.5.1.4.7.2.6-.2-.6-2.6-2-4.9-3.9-6.8-.2-.2-.7.2-.4.5zm1.8-.4c.8 1.5 1.7 3 2.5 4.6.2.3.7 0 .5-.3-.8-1.5-1.7-3-2.5-4.6-.2-.3-.7 0-.5.3zm50.3-25c2.4 4.1 4.2 8.5 5.3 13 .3 1.3.6 2.6.8 3.9.1.4.6.2.6-.2-.7-4.7-2.2-9.3-4.3-13.6-.6-1.2-1.2-2.4-1.9-3.5-.2-.2-.7.1-.5.4z"/>
    <path class="st12" d="M96 81.4c1 2.4 1.7 5 1.9 7.7 0 .4.6.4.6 0-.2-2.7-.8-5.4-1.9-7.9-.1-.2-.2-.3-.4-.2-.1.1-.3.3-.2.4zm11.3-9.4c2 4.3 4.8 8.3 8.3 11.5 1 .9 2 1.8 3.1 2.6.3.2.6-.3.3-.5-3.8-2.8-7-6.4-9.4-10.4-.7-1.1-1.3-2.3-1.8-3.5-.2-.4-.7-.1-.5.3z"/>
    <path class="st12" d="M109.6 73.5c1.3 2.9 3.1 5.7 5.2 8 .6.7 1.2 1.3 1.9 1.9.3.3.7-.2.4-.4-2.3-2.2-4.3-4.7-5.8-7.5l-1.2-2.4c-.1-.3-.6 0-.5.4zm1.2-5.3c2.3 3.6 5.1 6.8 8.5 9.4.9.7 1.9 1.4 2.9 2.1.3.2.6-.3.3-.5-3.5-2.2-6.6-5-9.2-8.3-.7-.9-1.4-1.9-2-2.9-.2-.5-.7-.2-.5.2z"/>
    <path class="st12" d="M115.6 72.3c1.2 1 2.4 1.9 3.6 2.9.1.1.3.1.4 0 .1-.1.1-.3 0-.4-1.2-1-2.4-1.9-3.6-2.9-.1-.1-.3-.1-.4 0-.1.1-.1.3 0 .4zm1.2 7.2c1.5 1.4 3.2 2.6 5.2 3.4.2.1.3-.1.4-.2.1-.2-.1-.3-.2-.4-1.8-.8-3.5-1.9-4.9-3.2-.3-.3-.8.1-.5.4zm5.8-2.6c.9.2 1.8.5 2.5 1.1.1.1.3.1.4 0 .1-.1.1-.3 0-.4-.8-.7-1.8-1.1-2.8-1.3-.2 0-.3 0-.4.2.1.2.1.4.3.4zm-75.8 55.2.9 1.5c.1.1.3.2.4.1.1-.1.2-.3.1-.4l-.9-1.5c-.1-.1-.3-.2-.4-.1-.2.1-.2.3-.1.4zm21.9-51c-3 1-5.2 3.7-5.6 6.9-.2 1.5.3 3 1.2 4.3.7 1 1.6 1.8 2.8 2.1 1.6.4 3.3-.4 4.6-1.4 2-1.6 3.7-3.9 3.6-6.5 1.8 1.7 4.5 2.3 6.8 1.6 1.9-.6 3.6-2.2 3.7-4.2.1-2.2-1.5-4.1-3.4-5.2-1.5-.9-3.3-1.5-5-1.3-1.4.2-2.6.9-3.8 1.6-1.4.8-3.3 1.5-4.9 2.1z"/>
    <path class="st12" d="M75.4 87c1.4 3.1 2.7 6.3 3.9 9.5 1.2 3.2 2.2 6.5 3.1 9.8.9 3.3 1.7 6.6 2.3 9.9.6 3.4 1.1 6.8 1.5 10.2.4 3.4.6 6.8.7 10.2v1.3c0 .4.6.4.6 0-.1-3.4-.2-6.9-.6-10.3-.3-3.4-.8-6.8-1.4-10.2-.6-3.4-1.3-6.7-2.2-10.1-.9-3.3-1.9-6.6-3-9.8-1.1-3.2-2.4-6.5-3.8-9.6-.2-.4-.3-.8-.5-1.2-.2-.3-.7 0-.6.3z"/>
    <circle class="st12" cx="85.9" cy="100.9" r="1.4"/>
    <path class="st12" d="M89.9 113c0 .8-.6 1.4-1.4 1.4-.8 0-1.4-.6-1.4-1.4 0-.8.6-1.4 1.4-1.4.8.1 1.4.7 1.4 1.4z"/>
    <circle class="st12" cx="90.1" cy="122.2" r="1.4"/>
    <path class="st12" d="M63.6 121.8c4.1-1 8.3-2.1 12.4-3.1.2 0 .2-.2.2-.4-.6-3.3-1.5-6.5-2.5-9.7l-.9-2.7c-.1-.2-.2-.3-.4-.2-4.1 1.2-8.2 2.3-12.4 3.3-.2 0-.3.2-.2.4.4 1.4.8 2.8 1.1 4.1l1.8 6.6c.1.5.3 1 .4 1.5.1.4.7.2.6-.2-.4-1.4-.8-2.8-1.1-4.1l-1.8-6.6c-.1-.5-.3-1-.4-1.5-.1.1-.1.3-.2.4 4.2-1 8.3-2.1 12.4-3.3-.1-.1-.3-.1-.4-.2 1.1 3.1 2.1 6.3 2.8 9.6.2.9.4 1.9.6 2.8.1-.1.1-.3.2-.4-4.1 1-8.3 2.1-12.4 3.1-.3.1-.2.7.2.6z"/>
    <path class="st12" d="M61.8 112.3c3.8-1.1 7.7-2 11.6-2.8.4-.1.2-.7-.2-.6-3.9.8-7.7 1.7-11.6 2.8-.4.1-.2.7.2.6zm13.6-25.2c.8 3.8 1.3 7.6 1.6 11.5 0 .4.6.4.6 0-.3-3.9-.9-7.8-1.7-11.7 0-.4-.5-.2-.5.2zm.8-.3c1.7 2.7 3.6 5.2 5.7 7.5.6.7 1.2 1.3 1.9 2 .3.3.7-.2.4-.4-2.2-2.2-4.2-4.6-6-7.1-.5-.7-1-1.5-1.5-2.2-.2-.5-.7-.2-.5.2zm-5.6 51 1.8 3c.2.3.7 0 .5-.3l-1.8-3c-.1-.4-.7-.1-.5.3zm2.7-.5c.1 1.1.4 2.1.9 3.1.1.1.3.2.4.1.2-.1.2-.3.1-.4-.4-.9-.7-1.8-.8-2.8 0-.2-.1-.3-.3-.3-.1 0-.3.1-.3.3zm17-2.2c-.2.7-.1 1.4.3 2 .1.1.3.2.4.1.1-.1.2-.3.1-.4-.1-.1-.1-.2-.2-.4 0-.1 0-.1-.1-.2v-.7c0-.1 0 0 0 0 0-.1 0-.2.1-.2 0-.2-.1-.3-.2-.4-.2 0-.4.1-.4.2zm1.4-.5v1.5c0 .2.1.3.3.3.2 0 .3-.1.3-.3v-1.5c0-.2-.1-.3-.3-.3-.1 0-.3.1-.3.3zm2.2-.5c-.4.5-.7 1.1-.7 1.7 0 .2.1.3.3.3.2 0 .3-.1.3-.3v-.3c0-.1.1-.3.1-.4v-.1c0-.1.1-.1.1-.2 0 0 0-.1.1-.1 0-.1.1-.1.1-.2.1-.1.1-.3 0-.4 0-.1-.2-.1-.3 0z"/>
    <path class="st13" d="M64.5 75.7c-2.2 2.2-6.7.8-7.3-2.3-2.2-.2-4.2-1.7-4.9-3.8-.7-2.1 0-4.6 1.6-6-2.2-.4-4.2-2.1-4.9-4.2s-.1-4.7 1.4-6.3c-2.4-.6-4.2-2.9-4.2-5.4 0-2.5 1.8-4.8 4.2-5.5-2-1.6-2.6-4.7-1.5-6.9 1.2-2.3 4-3.5 6.5-2.9.5-2.1 2.8-3.5 4.9-3 2.1.5 3.6 2.7 3.1 4.8.8-1.4 2.5-2.3 4.1-2.1 1.6.2 3 1.6 3.3 3.2 2.9-1 6.2 2.2 5.4 5.1 2.4.3 3.6 3.8 1.9 5.5 1-.4 2.1.7 2.2 1.8 0 1.1-.6 2.1-1.3 3 1.3 0 1.6 1.9 1.4 3.2-.2 2-.4 3.9-.7 5.9.7 1 .4 2.6-.5 3.4 1.3.5 1.5 2.4.8 3.6-.7 1.2-2 1.9-3.2 2.5l-12.3 6.4z"/>
    <path class="st1" d="M77.2 50c1.8 4.7 3.4 9.5 4.7 14.3.4 1.4.8 2.9.3 4.2-.7 2.4-3.4 3.4-5.8 4.1 1.1 3.2 2.1 6.4 3.2 9.6.2.5.4 1.1.2 1.7-.1.6-.6 1-1.1 1.4-1.9 1.5-4.3 2.4-6.7 2.6-1.6.2-3-.8-3.5-2.4-1.2-4.2-2.6-8.4-4.2-12.5-1.3 1.1-3.2 1.5-4.8.7-1.5-.7-2.5-2.6-2-4.2s2.5-2.7 4.1-2c-1.5-5.2-3.2-10.3-5.2-15.3l18.5-7.4 2.3 5.2z"/>
    <path class="st13" d="M60.3 66.9c.5.4 1.4.2 1.8-.4.4-.6.4-1.3.2-2-.4-2-1.7-3.8-3.5-4.7 1.9.3 3.3-2.1 2.8-3.9-.4-1.9-2-3.2-3.5-4.4 2.4.2 5.4 0 6.2-2.3.8 1.2 2.3 1.8 3.7 1.6 1.4-.2 2.6-1.3 3-2.7.4 1.3 2.4 1.6 3.4.7 1-.9 1.2-2.6.8-3.9.4.6 1.2 1 1.9.9.8-2.1-.9-4.5-3-5.2-2.1-.7-4.4-.3-6.6.2-4.6 1.1-9.1 2.3-13.5 3.7-.6.2-1.2.4-1.6.8-1.1 1-.8 2.8-.4 4.2 1.5 5.7 3 11.3 4.5 17l3.8.4z"/>
    <path style="opacity:.44;fill:#561e1c" d="m76.4 72.6-6.8 1.9 7.9 1.5z"/>
    <path class="st10" d="M59.1 69.9c1.4.5 2.8 1.2 4 2.1.1.1.3.1.4 0 .1-.1.1-.3 0-.4-1.3-1-2.7-1.8-4.3-2.3-.3-.1-.5.4-.1.6z"/>
    <path class="st10" d="M60.4 72c.4-.3.9-.5 1.3-.8.1-.1.2-.3.1-.4-.1-.1-.3-.2-.4-.1-.4.3-.9.5-1.3.8-.1.1-.2.3-.1.4.1.1.2.2.4.1zm11.5-14.8c2 1.9 3.5 4.2 4.4 6.8.1-.1.1-.3.2-.4-1.2.3-2.5.6-3.7.9-.4.1-.2.7.2.6 1.2-.3 2.5-.6 3.7-.9.2 0 .3-.2.2-.4-1-2.7-2.5-5.1-4.6-7.1-.3-.2-.7.2-.4.5zm-2.6 8.3c.4.8 1.2 1.5 2.1 1.7.9.2 2 0 2.8-.5.3-.2 0-.8-.3-.5-.7.5-1.5.7-2.3.5-.8-.2-1.4-.7-1.7-1.4-.3-.5-.8-.2-.6.2z"/>
    <path d="M68.1 61.9c.3.7.1 1.4-.5 1.7-.6.2-1.2-.2-1.5-.9-.3-.7-.1-1.4.5-1.7.6-.2 1.2.2 1.5.9zm10.6-3.2c.3.7.1 1.4-.5 1.7-.6.2-1.2-.2-1.5-.9-.3-.7-.1-1.4.5-1.7.6-.2 1.3.2 1.5.9z"/>
    <path class="st10" d="M66.1 56c.8-.3 1.7.3 1.7 1.1 0 .2 0 .3-.1.5-.1.3-.4.5-.7.7-1 .8-2.2 1.4-3.4 1.8-.1 0-.2.1-.3.1-.3 0-.6-.3-.6-.6-.2-.9.6-1.7 1.4-2.3.5-.4 1-.8 1.5-1.1l.5-.2zm6.5-4.4c-.8.4-1 1.4-.4 2 .1.1.3.2.4.3.3.1.6.1 1 0 1.3-.2 2.5-.5 3.7-1 .1 0 .2-.1.3-.2.2-.2.2-.6 0-.9-.5-.8-1.6-.8-2.6-.7-.6.1-1.3.1-1.9.2l-.5.3z"/>
    <path d="M57.6 41.1c.5-.9 1-1.8 1.8-2.4.7-.5 1.7-.8 2.6-.3.7.4 1.1 1.2 1.2 2 .1 1-.3 1.9-.8 2.7-.1.2-.3.4-.4.6-.2.2-.3.4-.5.5-.1.1-.3.1-.4-.1-.1-.1.2-.4.3-.5.5-.6 1.3-1.1 2.1-1.1.9-.1 1.6.3 2.2.9.5.6.8 1.5.7 2.3-.2.9-.9 1.7-1.7 2-1 .4-2.1 0-2.9-.7-.3-.3-.7.2-.4.4.8.8 2 1.2 3.2 1 1-.3 1.9-1 2.2-2 .8-2-.8-4.4-3-4.5-1 0-2.1.4-2.7 1.2-.3.3-.8.9-.5 1.4.3.5.9.5 1.3.2.5-.3.9-.9 1.2-1.4.3-.5.6-1.1.7-1.7.2-1.1 0-2.2-.6-3-.8-1-2.1-1.3-3.2-.8-1.3.6-2.1 1.8-2.8 3-.3.3.2.6.4.3zM67.8 39c.2-.6.9-1 1.5-.9.7.1 1.2.8 1.3 1.4.2.8-.1 1.7-.6 2.4-.2.3-.5.7-.8.9-.1.1-.3.2-.5.1-.1-.1-.1-.2 0-.4.1-.3.4-.6.7-.8.4-.2.8-.4 1.2-.5.8-.2 1.7-.1 2.3.4.6.4 1 1.1 1 1.8 0 .8-.5 1.5-1.2 2-1.2.9-3.2 1.2-4.2-.1-.2-.3-.7.1-.4.4 1.2 1.5 3.6 1.2 5 .2.8-.6 1.5-1.5 1.5-2.5s-.6-1.8-1.4-2.4c-.9-.6-2-.6-3-.4-.9.3-2 .8-2.2 1.8-.1.5.2.9.7 1 .5.1 1-.3 1.3-.7.7-.8 1.3-1.9 1.2-3-.1-1-.7-2.1-1.8-2.4-1-.2-2.1.3-2.3 1.3 0 .6.6.8.7.4z"/>
    <path d="M72.9 37.7c.6-.7 1.8-.2 2.2.5.7 1.1-.1 2.5-.9 3.3-.2.2.1.7.4.5 1-.8 2.5-.9 3.6-.2 1 .7 1.2 2 .6 3.1-.3.5-.8.9-1.5.9-.4 0-.4.6 0 .6 1.5-.1 2.5-1.5 2.5-2.9 0-1.6-1.4-2.7-2.9-2.8-.9-.1-1.8.2-2.5.7.1.2.2.3.4.5 1-1 1.8-2.8.9-4.1-.7-.9-2.2-1.5-3.1-.5-.4.2.1.7.3.4zm-18.7 8.2c-1.2.9-2.2 2.1-2.6 3.5-.3 1.3-.1 2.7.8 3.7.8.9 2.1 1.2 3.3.7.5-.2 1-.6 1.2-1.1.1-.3 0-.6-.3-.7-.3-.1-.6-.1-.8-.1-.6.1-1.1.6-1.5 1.1-.4.5-.7 1.1-.9 1.8-.3 1.3 0 2.7.9 3.8.4.5 1 .9 1.6 1.2.6.3 1.4.5 2 .2.6-.3.6-1 .3-1.5-.4-.6-1.1-.7-1.8-.4-.7.3-1.2.9-1.6 1.6-.3.6-.5 1.4-.3 2.1.3 1.1 1.6 1.9 2.6 1.4.3-.1.4-.3.6-.5.2-.3-.3-.6-.5-.3-.3.4-.9.4-1.3.2-.5-.2-.9-.7-.9-1.2-.1-.7.3-1.4.7-1.9.4-.4 1.2-1.2 1.8-.7.2.1.3.4.2.6-.1.3-.6.2-.8.2-.6-.1-1.2-.4-1.7-.9-1-.9-1.5-2.2-1.2-3.5.1-.7.5-1.4 1-1.9.2-.2.5-.5.8-.6.2-.1.6-.2.7.1v-.3c-.5 1.2-2.3 1.4-3.3.6-1.3-1.1-1.2-3-.4-4.4.5-.9 1.2-1.6 2-2.2.1-.5-.3-.9-.6-.6zM49.9 34c-.6-.1-1.2.2-1.5.8-.4.5-.4 1.2 0 1.7.9 1.4 2.7 1.2 4.2.9-.1-.1-.2-.3-.3-.4-.3.6-.4 1.2-.6 1.8-.1.3-.1.6-.1.9v.5c0 .1 0 .3.1.5s.5.3.7.4c.3.1.5.2.8.3.6.1 1.2.2 1.8.1.4-.1.2-.6-.2-.6-1 .1-1.9-.1-2.7-.6.1.1.1.2.2.3-.1-1.1.1-2.2.5-3.2.1-.2-.1-.5-.3-.4-1.1.2-2.4.4-3.3-.4-.3-.3-.5-.8-.4-1.2.1-.4.5-.8.9-.7.4-.1.5-.7.2-.7z"/>
</svg>
