<svg xmlns="http://www.w3.org/2000/svg" width="136.4" height="263.4" style="overflow:visible;enable-background:new 0 0 136.4 263.4" xml:space="preserve">
    <style>
        .st1{fill:#fed5b7}.st3{fill:#912826}.st5{fill:#af6c15}.st6{fill:#682f19}.st7{fill:#c23f37}.st9{fill:#fff}
    </style>
    <path d="M66.2 231.9c2.8 2.8 4.8 6.3 5.9 10.1.8 2.7 1 5.7 2.4 8.2 1.4 2.5 4.4 4.4 7 3.4 2.8-1.1 3.5-4.8 3.4-7.8-.2-8.3-3-16.6-1.4-24.8.5-2.4 1.2-5.2-.3-7-1.5-1.8-4.4-1.6-6.7-1.3-1.6.3-3.3.5-4.9.8-.9.1-1.7.3-2.5.7-1 .6-1.5 1.8-1.9 2.9-1.4 3.6-2.2 7.5-2.5 11.3l1.5 3.5z" style="fill:#477a8e"/>
    <path class="st1" d="M67.9 230.7c.6-.4 1.4-.1 2 .2 3.3 1.4 6.5 3 9.6 4.8.6.3 1.2.7 1.9.7.9 0 1.7-.5 2.3-1.1 2.3-2.2 2.7-5.7 3-9 0-.4.1-.8-.1-1.2-.2-.4-.6-.6-1-.7-4.3-2-8.5-4.1-12.8-6.1-.2-.1-.4-.2-.6-.1-.2.1-.2.2-.3.4-1.3 2.9-2.6 5.8-4 8.7v3.4z"/>
    <path d="M83.2 222.2c-1.4-.2-2.1 1.7-1.8 3 .4 1.3 1.3 2.5 1.4 3.9.3 3.3-4.1 5.5-3.8 8.8.1.9.6 1.8 1.1 2.6 2 3.6 3.3 7.6 3.7 11.7.2 2 .2 4 .7 5.9.5 1.9 1.6 3.8 3.3 4.7 2.9 1.5 6.7-.3 8.4-3.2 1.7-2.8 1.9-6.3 1.8-9.6 0-3-.1-6.1-1.1-9-.8-2.4-2.3-4.5-3.2-6.9-1.2-3-1.4-6.2-1.5-9.5 0-1.3-1-2.3-2.3-2.3l-6.7-.1z" style="fill:#6da8c6"/>
    <path class="st3" d="M22.1 137.3c1.6 3.4 6.1 5.8 9.7 6.3 3.7.5 7.4-.8 11.1-.6 4.3.3 8.2 2.5 12.2 4s11.3 2 14.6-.7c.6-.5-.3.7 0 0 .3-.8-.6-3.4-.6-4.3-.4-5.4-2.7-10.6-6.3-14.6s-8.8-6.5-14.2-6.7c-5.2-.2-10.4 1.8-14.7 4.6-4.3 3.1-8.1 8.3-11.8 12 .5.5-.4-.4 0 0z"/>
    <path d="M30.2 145.6c-5.9 13.8-11 28-15.2 42.5-2.5 8.7-4.6 18.4-.6 26.5.8 1.7 1.9 3.2 3.3 4.5 2.6 2.3 6 3.2 9.4 4.1l20.1 5.4c2.9.8 4.9 1.7 6.7-.8 3.5 1.7 8.8 3 12.3 4.7.5.2 1 .5 1.6.4.7-.1 1.2-.6 1.7-1.2 3-3.5 5.3-7.7 6.6-12.2.2-.6.3-1.2.1-1.7-.2-.6-.9-.9-1.4-1.2-8.2-4.3-16.4-8.5-24.6-12.8 5.2-7.9 11.7-14.9 16.1-23.2 4.4-8.3 6.3-18.8 1.9-27.1-1.3-2.4-3-4.5-4.4-6.7-2.7-4.1-4.5-8.8-5.2-13.7-.1-.7-.3-1.5-.9-1.9-.5-.3-1-.2-1.5-.1-9 1.2-18 2.4-26.9 3.6.4.3.9.6 1.3.9l-.4 10z" style="fill:#f59f18"/>
    <path class="st5" d="M39.4 168.1c-2.4 5.6-4.5 11.4-6.3 17.2-1.8 5.8-3.2 11.8-4.3 17.8-.5 2.6-.8 5.4-.4 8.1.2 1.3.6 2.6 1.3 3.7.7 1.1 1.5 2.1 2.5 3 1.8 1.6 3.9 2.8 6 3.9 2.2 1.2 4.5 2.3 6.7 3.3 4.6 2 9.3 3.8 14.1 5.1.5.1 1 .3 1.5.4.4.1.5-.5.2-.6-4.7-1.2-9.2-2.8-13.6-4.7-2.3-1-4.6-2-6.8-3.1-2-1-4.1-2.2-5.9-3.5-2.2-1.5-4.1-3.4-5-6-.8-2.5-.6-5.3-.2-7.9.4-2.9 1.1-5.7 1.7-8.6.7-2.9 1.4-5.8 2.3-8.7 1.7-5.8 3.6-11.4 5.9-17l.9-2.1c.1-.3-.4-.6-.6-.3z"/>
    <path class="st1" d="M89.7 50.2c.5 3.9 4.6 8.6 8.3 9.9.4.1.8.2 1.2.2.7-.1 1.2-.7 1.6-1.2 6.7-8.4 23-29.9 23.9-30.1 3.4-.6 5.6-2.2 7.6-5 1.4-1.9 2.7-3.8 3.9-5.7.3-.5-.2-1-.7-.8-1.5.8-3.8 2.6-4.9 3.8 1.5-2.2 3.6-5.4 4.4-8 .2-.6-.6-.9-.9-.5l-5.8 6.7c2-2 5.4-6 6.6-8.6.2-.5-.4-1-.8-.7-2.5 1.8-6.1 5.5-8.2 7.7 1.5-2 4.1-5.7 5-8.1.2-.5-.5-1-.9-.6-3 2.9-5.7 6.1-8.1 9.6l.7-6.8c0-.5-.6-.8-.9-.4-1.7 2-2.7 4.5-2.9 7.1-.1 1.3.1 2.6-.2 3.9-.5 2-2.1 3.5-3.6 5-7.9 7.4-25.3 22.6-25.3 22.6z"/>
    <path class="st6" d="M121.8 18.3c0 .7.3 1.3.6 1.9.2.6.4 1.1.4 1.7 0 1.1-.6 2.3-1.5 2.9-.3.2 0 .8.3.5 1-.8 1.6-1.9 1.8-3.2.1-.6 0-1.2-.2-1.8-.3-.7-.7-1.4-.7-2.1-.1-.3-.7-.3-.7.1zm8.7 3.3c-.2.7-.7 1.1-1.4 1.3-.8.3-1.6.2-2.4.3-1.3.1-3 .5-3.3 2.1-.1.4.5.6.6.2.3-1.6 2.4-1.6 3.7-1.7 1.3-.1 3-.5 3.4-2 .1-.4-.5-.5-.6-.2z"/>
    <path class="st6" d="M125.3 17c2 1.5 3.9 3.2 5.5 5.1.3.3.7-.1.4-.4-1.7-2-3.6-3.7-5.6-5.2-.3-.3-.6.3-.3.5z"/>
    <path class="st6" d="m133.3 12.7-5.4 6.3c-.3.3.2.7.4.4l5.4-6.3c.3-.3-.1-.7-.4-.4z"/>
    <path d="M37.2 60.6c-1.8-2-2-5.1-1.2-7.6.8-2.6 2.5-4.8 4.3-6.8 1.6-1.8 3.3-3.7 5.7-4.3 2.8-.7 5.7.6 8.5.7 1.4 0 2.8-.2 4.2.1 1.2.3 2.2 1 3.1 1.7 4 3.2 7 7.8 7.7 12.8.8 5.1-.9 10.6-4.7 14-1.2 1.1-2.6 1.9-3.6 3.1-1.1 1.2-1.9 2.8-1.5 4.3-2 1-4.3-.8-5.5-2.7-1.2-1.9-2-4.3-4-5.3-1.2-.6-2.6-.7-3.9-1-1.3-.3-2.7-1.2-2.9-2.6l-6.2-6.4z"/>
    <path class="st1" d="M24.8 53c-3.3-9.6-8.1-20.3-11.4-29.8-.6-1.8-1.3-3.8-.8-5.7.3-1.2 1.1-2.2 1.6-3.3 1.1-2.2 1.4-4.8.8-7.2-.1-.5-.8-.5-1-.1l-2.5 5.9C11.1 8.9 10.3 5 9.1 1.3c-.1-.5-.8-.4-.9.1-.2 2.4.2 6.6.5 8.9-.7-2.8-2-7.4-3.3-10-.2-.5-.9-.3-.9.2-.2 2.6.7 7.5 1.6 10L4.2 2.4c-.1-.5-.9-.5-1 0-.6 2.5-.2 6 0 8.6-.4-1.5-1.5-4-2.4-5.4-.2-.5-.8-.3-.8.3.1 2.2.4 4.3.7 6.5.5 3.2 1.5 5.6 4.1 7.6.6.4 6 25 7.7 35 .1.6.3 1.3.8 1.7.3.2.7.3 1.1.4 3.7.6 7.6-1 9.8-4l.6-.1z"/>
    <path class="st7" d="M11 64.6c.2-.2 6.5 12 8 18.9.7 3.3 3.5 5.7 4.1 9 .8 4.4 3.2 8.3 3.9 12.7.8 5.8-1.6 11.6-3 17.3-1.1 4.8-2.3 9.9-1.8 14.8 4-1.5 9.1.5 13.4.5 4.4-.1 8.5-2.5 12.8-3.4 8.1-1.7 17.6 4.7 21.5 12 .4-20.2 2.5-41.4 12.7-58.9C86.3 80.8 89.9 77 95 71.1c2.6-3 4.7-10.2 7.3-13.2-4.2-2.8-8-6.4-11-10.4-7.5 6.6-16.4 11-22.8 22.1-5 8.7-13.8 13.1-23.8 12.8-2.4-.1-1.1-1.7-2.9-3.2-1.2-.9-1.1-3.4-1.9-4.7-5.6-8.6-10.3-16.3-14.9-26.2-4.1 1.3-11 2.7-15.1 4L11 64.6z"/>
    <path class="st1" d="m38.6 50.3-2.4 17.4c-.4 2.9-.7 6.2 1.5 8.2 1.7 1.6 4.4 1.7 6.8 1.6 0 2.6 0 5.1.1 7.7 0 .6 0 1.3.3 1.8s.9.8 1.5 1.1c2.7 1.1 5.8 1.1 8.5.1.5-.2 1-.5 1.4-.9.3-.4.5-1 .6-1.6 1-5.2.7-9.1 1.7-14.3-.2 1.6 3.3 1.2 4.6.5 1.4-.7 2-2.4 2.1-3.9.2-1.5.1-3.1-.8-4.3-.9-1.2-2.9-1.6-3.9-.6.1-3.8.3-7.6.4-11.4l-22.4-1.4z"/>
    <path d="M61.7 47.3c4.8.1 8.8-3.7 10.9-7.9s3-9 5-13.4c2-4.3 5.5-8.5 10.3-9 3.2-.3 6.6 1 9.6 0 3.9-1.4 6.6-6.5 10.6-5.7 1.2.2 2.2.9 3.1 1.8 3.7 3.4 5.3 9.2 2.8 13.6-2.9 5-9.6 6.1-15.4 6.1-1.9 0-3.9 0-5.6.9-3.2 1.9-3.4 6.3-4.6 9.8-2.4 6.9-11.2 11.2-17.7 7.8-1.5-.8-2.9-2-4.5-2.6-1.6-.7-3.7-.7-4.9.5l.4-1.9z"/>
    <path d="M40.3 47.9c-1.9 1.8-3.1 4.3-3.1 7 0 .3 0 .6.2.8.3.4 1 .3 1.4.1 2.5-.9 4.7-2.6 6.1-4.8-1.3 1.3-2.8 3.2-2 4.9.8 1.8 3.5 1.7 5.1.7 1.7-1 2.9-2.7 4.5-3.7-.5 1-1.1 2-1.2 3.1-.1 1.1.6 2.3 1.6 2.6.5.1 1 0 1.5-.1 2.1-.4 4.4-1 5.4-2.9-.8.9-1.6 2-1.8 3.2-.2 1.2.2 2.6 1.3 3.3 1.3.8 3.2.1 4.1-1.2s1-3 .8-4.6c-.5-4.4-3-8.5-6.7-11l-17.2 2.6z"/>
    <path d="M60.3 61c-.4.2-.9.5-1.1 1-.3.8.4 1.5.8 2.2.5 1.2-.2 2.9-1.5 3.3 1.5-.1 2.8-1.1 3.3-2.5.4-1.1.2-2.3.6-3.3.4-1.1 1.5-1.9 2.7-2.1L60.3 61z"/>
    <path style="opacity:.56;fill:#682f19" d="m44.4 77.5 8.9.6-8.8 2.8z"/>
    <path class="st6" d="M11.9 11.6c-2 1.1-3 3.7-2.3 5.9.1.4.7.2.6-.2-.6-1.9.2-4.2 2-5.2.3-.1 0-.7-.3-.5zm-9.5-.7c.4.6.9 1.2 1.5 1.6.5.5 1.1.9 1.7 1.3.5.4 1 .9 1.3 1.6.3.6.3 1.3 0 1.8-.2.3.3.6.5.3.8-1.3 0-2.9-1-3.8-.6-.5-1.2-.9-1.8-1.4-.6-.5-1.2-1.1-1.6-1.8-.3-.3-.8 0-.6.4zm1.7-8.5c.7 2.9 1.5 5.8 2.4 8.6.1.4.7.2.6-.2C6.2 8 5.4 5.1 4.7 2.2c-.1-.4-.7-.2-.6.2z"/>
    <path class="st6" d="M4 11.7c1.9-.1 3.8-.3 5.6-.7.4-.1.2-.7-.2-.6-1.7.4-3.5.6-5.4.7-.4 0-.4.7 0 .6z"/>
    <path class="st9" d="M88 262.3c2.2-1.1 4-2.9 5.3-4.9 1.3-2.1 2.2-4.4 2.4-6.9.1-1.2.1-2.4-.1-3.7-.2-1.3-.6-2.6-1.2-3.9-.7-1.5-1.5-2.9-2.2-4.4-.7-1.5-1.3-3-1.8-4.6-1-3.1-1.5-6.4-1.6-9.6v-1.2c0-.4-.6-.4-.6 0 0 3.2.4 6.4 1.2 9.5.4 1.6.9 3.1 1.5 4.6.6 1.5 1.4 2.9 2.1 4.3.7 1.3 1.3 2.7 1.7 4.1.3 1.2.4 2.4.4 3.5-.1 2.4-.7 4.8-1.9 6.9-1.2 2.1-2.8 3.9-4.9 5.2-.3.2-.5.3-.8.4-.2.4.1.9.5.7z"/>
    <path class="st9" d="M83.9 223c.7 2 2.2 3.8 4.1 4.8.4.2.7-.3.3-.5-1.8-.9-3.2-2.5-3.8-4.4-.2-.5-.8-.3-.6.1zm1.2 34.5c2.2-1.5 5.2-1.7 7.6-.4.3.2.7-.3.3-.5-2.6-1.4-5.8-1.2-8.2.4-.3.1 0 .7.3.5zm-.3-8c1.1-1.1 2.7-1.6 4.2-1.2.4.1.5-.5.2-.6-1.7-.4-3.6.1-4.8 1.3-.3.4.1.8.4.5zm-.8-3.2c.8-1 2-1.5 3.3-1.3.2 0 .3 0 .4-.2 0-.1-.1-.3-.2-.4-1.4-.3-3 .3-3.9 1.4-.1.1-.1.3 0 .4 0 .2.3.2.4.1zm-1.2-3.9c.5-1 1.6-1.5 2.7-1.4.2 0 .3-.2.3-.3 0-.2-.1-.3-.3-.3-1.3-.2-2.6.5-3.2 1.7-.2.3.4.6.5.3zm-1.6-5.7c2.3-2.5 3.4-6 3.1-9.4 0-.4-.7-.4-.6 0 .3 3.2-.7 6.5-2.9 8.9-.3.4.2.8.4.5zm-.9-23.2c1.2 2.2 1.9 4.6 2.1 7 0 .4.7.4.6 0-.2-2.6-1-5.1-2.2-7.3-.2-.3-.7 0-.5.3zm1.3 32c0 2.5-1.6 4.8-3.9 5.7-.4.1-.2.7.2.6 2.6-1 4.3-3.6 4.3-6.3 0-.4-.6-.4-.6 0zm-7.5.5c1.7-1.3 3.9-1.8 6-1.5.4.1.6-.5.2-.6-2.2-.4-4.6.1-6.4 1.5-.4.4-.1.9.2.6zm-.3-5.3c.8-.6 1.6-1 2.6-1.2.4-.1.2-.7-.2-.6-1 .2-1.9.7-2.7 1.2-.1.1-.2.3-.1.4.1.2.3.3.4.2zm-1.5-3.2c.9-.3 1.8-.6 2.6-1 .2-.1.3-.2.2-.4 0-.2-.2-.3-.4-.2-.9.3-1.8.6-2.6 1-.2.1-.3.2-.2.4 0 .1.2.2.4.2z"/>
    <path class="st5" d="M68.7 213.8c.4 1.3.1 2.6-.3 3.8-.3 1.3-.7 2.5-1.1 3.8-.4 1.2-.7 2.5-1.1 3.7-.3 1-.6 2-1.1 2.9-.5 1-1.2 2-2.1 2.7-.3.2 0 .8.3.5 1.8-1.3 2.6-3.4 3.3-5.5.8-2.6 1.5-5.2 2.2-7.8.4-1.4.8-2.9.3-4.4.1-.3-.5-.1-.4.3zm-25.3 10.1c-.5.8-.9 1.6-1.4 2.4-.2.3.3.7.5.3.5-.8.9-1.6 1.4-2.4.3-.3-.3-.6-.5-.3zm.5-18.2c2.3-1.1 4.8-1.8 7.3-2.1.2 0 .3-.2.2-.4 0-.2-.2-.2-.4-.2-2.6.4-5.1 1.1-7.4 2.2-.3.2 0 .7.3.5z"/>
    <path class="st5" d="M44.7 207.6c2.1-1.2 4.2-2.3 6.3-3.5.3-.2 0-.7-.3-.5-2.1 1.2-4.2 2.3-6.3 3.5-.3.2 0 .7.3.5zm-7.6-65.3c.3.3.6.6.9.8.9.5 2.1 0 2.5-.9.3-.9-.4-2.1-1.4-2.2-1-.1-1.9 1.1-1.5 2l-.5.3zm11.2-5.1.6 3.3c0 .2.2.3.4.2.2 0 .2-.2.2-.4l-.6-3.3c0-.2-.2-.3-.4-.2-.1.1-.2.2-.2.4zm2.7.5c.4.5.6 1.2.5 1.9 0 .2.2.3.3.3.2 0 .3-.1.3-.3.1-.8-.2-1.7-.7-2.3-.1-.1-.3-.1-.4 0-.1.1-.1.2 0 .4zm-15.8 9.2c-.2 3.2-.2 6.4 0 9.6.1 1.6.2 3.2.3 4.7.1.7.2 1.5.4 2.2.2.6.5 1.2.9 1.7.9 1.2 2 2.1 3.1 2.9.2.1.5-.1.5-.3.1-5.7.2-11.4.4-17 0-1.6.1-3.2.1-4.8 0-.4-.6-.4-.6 0-.1 5.7-.2 11.4-.4 17 0 1.6-.1 3.2-.1 4.8.2-.1.3-.2.5-.3-1-.8-2-1.5-2.8-2.5-.4-.5-.7-1-.9-1.6-.2-.7-.3-1.4-.4-2.1-.3-3-.4-6.1-.5-9.2 0-1.8 0-3.5.1-5.3.1-.2-.5-.2-.6.2zm14.7-3.1c1.2 3 3.4 5.5 6.4 6.7.9.3 1.8.5 2.7.6.4 0 .4-.6 0-.6-3-.2-5.7-1.9-7.3-4.4-.5-.7-.9-1.5-1.2-2.3-.2-.5-.8-.4-.6 0z"/>
    <path class="st5" d="M56.7 142.9c2.9 5.2 2.8 11.4 1.4 17.1-1.5 6.1-4.6 11.6-7.4 17.2-2.7 5.5-5.2 11.2-5.7 17.3-.3 2.9-.1 5.9.8 8.7.9 2.8 2.4 5.3 4.3 7.5s4.2 4.2 6.6 5.9c2.5 1.8 5.2 3.4 8 4.8l2.1.9c.4.2.7-.4.3-.5-5.6-2.4-10.9-5.7-15.2-10-2.1-2.1-3.9-4.5-5-7.2-1.1-2.8-1.5-5.7-1.4-8.7.2-6.2 2.6-12 5.3-17.5 2.7-5.6 5.9-11 7.6-17 1.5-5.4 2-11.5-.2-16.9l-.9-1.8c-.2-.5-.8-.2-.6.2zm-13.4 2.3c4-.9 7.9-2 11.8-3.1 1.1-.3 2.2-.7 3.3-1.1.4-.1.2-.7-.2-.6-3.9 1.3-7.8 2.4-11.7 3.4-1.1.3-2.3.6-3.4.8-.3.1-.2.7.2.6zm-6.4 20.1c-2.8 4.3-5.1 8.8-7 13.5-1.9 4.8-3.4 9.7-4.4 14.7-.5 2.5-.8 5-1.1 7.6-.2 2.6-.4 5.2-.3 7.8.1 2.4.6 4.8 1.9 6.9 1 1.7 2.4 3.1 4 4.2 3.3 2.4 7.4 3.7 11.3 4.7.5.1 1 .3 1.5.4.4.1.5-.5.2-.6-3.9-1-7.9-2.1-11.4-4.2-1.6-1-3.2-2.2-4.3-3.8-1.4-1.8-2.1-4-2.4-6.2-.3-2.5-.1-5.1.1-7.7.2-2.5.5-5 .9-7.5.9-4.9 2.2-9.8 4-14.5 1.8-4.7 4-9.2 6.6-13.5.3-.5.7-1.1 1-1.6.1-.2-.4-.5-.6-.2zm-4.6-24.8c-.5 1.1-.7 2.2-.7 3.4 0 .2.1.3.3.3.2 0 .3-.1.3-.3-.1-1.1.1-2.1.6-3.1.1-.1 0-.3-.1-.4-.1-.1-.3 0-.4.1zm1.8.1c-.2 1-.5 2-.7 2.9-.1.4.5.5.6.2.2-1 .5-2 .7-2.9 0-.4-.5-.6-.6-.2zM69 155.9c-1.1-.1-2.3-.1-3.4.2-.1 0-.2.2-.2.3.1 2.6.1 5.2.2 7.8 0 1.3.1 2.6.1 4 0 1 0 2 .3 2.9.3.9.8 1.7 1.8 1.9.4.1.6-.5.2-.6-.8-.1-1.1-.8-1.3-1.5-.3-.9-.2-1.9-.2-2.8-.1-2.5-.1-5-.2-7.4 0-1.4-.1-2.8-.1-4.2-.1.1-.2.2-.2.3 1.1-.3 2.1-.3 3.2-.2.2-.1.2-.7-.2-.7z"/>
    <path class="st5" d="M66 160h3.3c.4 0 .4-.6 0-.6H66c-.4 0-.4.6 0 .6z"/>
    <path class="st3" d="M41.9 88c1.2 2.4 3.7 3.8 6.3 4 1.5.2 3.1-.1 4.5-.6s2.8-1.2 3.8-2.2c1.1-1 1.9-2.5 1.3-3.9-.2-.4-.7 0-.5.3.5 1.1-.3 2.4-1.1 3.1-1 .9-2.2 1.5-3.5 2-2.4.9-5.2 1-7.5-.3-1.2-.6-2.2-1.6-2.8-2.8-.1-.3-.7 0-.5.4zm49-37c-.9 1.1-1.8 2.2-2.7 3.2-.1.1-.1.3 0 .4.1.1.3.1.4 0 .9-1.1 1.8-2.2 2.7-3.2.1-.1.1-.3 0-.4-.1-.1-.3-.2-.4 0zm.5 2.1-1.8 2.4c-.1.1 0 .3.1.4.2.1.3 0 .4-.1l1.8-2.4c.1-.1 0-.3-.1-.4-.1-.1-.3 0-.4.1zm2.5.5-3 3.3c-.3.3.2.7.4.4l3-3.3c.3-.2-.2-.7-.4-.4zm1.4 2.1-2.1 2.7c-.1.1-.1.3 0 .4.1.1.3.1.4 0l2.1-2.7c.1-.1.1-.3 0-.4-.1-.1-.3-.1-.4 0zm2.1.9L95.3 59c-.1.1-.1.3 0 .4.1.1.3.1.4 0l2.1-2.4c.1-.1.1-.3 0-.4-.1-.1-.3-.2-.4 0zm1.8 1.8c-.9.8-1.6 1.7-2.1 2.7-.2.3.3.7.5.3.5-1 1.2-1.9 2-2.6.1-.1.1-.3 0-.4-.1-.2-.3-.1-.4 0zm-88-5.1c.5 1.3.8 2.7.7 4 0 .4.6.4.6 0 .1-1.4-.2-2.9-.7-4.2-.1-.2-.2-.3-.4-.2-.1 0-.3.2-.2.4zm2.8.8c.5 1.3.9 2.6 1.2 3.9.1.4.7.2.6-.2-.3-1.3-.7-2.6-1.2-3.9-.1-.2-.2-.3-.4-.2-.1.1-.3.2-.2.4zm2.3-.6c.3 1.1.7 2.1 1 3.2.1.4.7.2.6-.2-.3-1.1-.7-2.1-1-3.2-.1-.3-.7-.1-.6.2zm3-.9.6 2.7c.1.4.7.2.6-.2l-.6-2.7c-.1-.3-.7-.1-.6.2zm2.7-.9c.4 1 .6 2 .8 3 0 .2.2.3.4.2.2 0 .2-.2.2-.4-.1-1-.4-2-.8-3-.1-.2-.2-.3-.4-.2-.1.1-.3.3-.2.4zm2.2-.2c.1 0 .2.1.2.1h.1s.1 0 0 0h.1l.2.2v.1s0 .1.1.1c0 0 0 .1.1.1v.1c0 .1.1.2.1.3v.1c0-.1 0 0 0 0v.4c0 .2.2.3.3.3.2 0 .3-.1.3-.3.1-.9-.4-1.8-1.2-2.1-.1-.1-.3 0-.4.1-.1.3 0 .5.1.5zM23 134.8c1.2-.9 2.8-.9 4.3-.6 1.6.3 3.1 1 4.6 1.5 1.5.5 3 .8 4.6.5 1.4-.2 2.7-.8 3.9-1.5 2.6-1.4 5-3.3 7.9-3.9 3.3-.8 6.7-.2 9.8 1 3.2 1.3 6 3.2 8.8 5.2.3.2.7.5 1 .7.3.2.6-.3.3-.5-2.8-2-5.6-4-8.8-5.4-3.1-1.4-6.5-2.2-9.9-1.8-1.6.2-3.1.7-4.5 1.4-1.3.7-2.5 1.5-3.8 2.2-1.2.7-2.5 1.4-3.9 1.8-1.5.4-3 .4-4.5 0-1.6-.4-3.1-1.2-4.7-1.6-1.4-.4-3-.5-4.4 0-.3.1-.7.3-1 .5-.3.2 0 .7.3.5zm5.2-29.1c.7-3.3 1.3-6.7 2.1-10 .7-3 1.5-6 2.7-8.8.7-1.6 1.6-3.1 2.6-4.4.2-.3-.3-.6-.5-.3-1.8 2.5-3.1 5.3-4 8.2-1 3-1.6 6.1-2.2 9.2l-1.2 6c-.1.3.5.5.5.1zm37.2-26.9c1.7 3 3.3 6.1 4.6 9.2 1.4 3.2 2.6 6.4 3.6 9.7.3.9.5 1.8.8 2.8.1.5.3.9.4 1.4 0 .2.2.7-.1.8-.4.1-.2.7.2.6.7-.2.7-1 .5-1.6-.2-.9-.5-1.8-.7-2.6-.5-1.7-1.1-3.4-1.6-5.1-1.2-3.4-2.6-6.8-4.2-10-.9-1.8-1.8-3.6-2.9-5.4-.3-.4-.8-.1-.6.2z"/>
    <path class="st3" d="M68.1 79.1c.4 1.9.5 3.9.5 5.9 0 .4.6.4.6 0 0-2-.2-4.1-.5-6-.1-.5-.7-.3-.6.1zm-33.5 34.7c2.9-1.2 5.9-1.6 9-1.5 1.6 0 3.1.2 4.6.4 1.3.2 2.7.4 4 .9 1.3.4 2.6 1.2 3.5 2.3.2.3.8 0 .5-.3-1.6-2.3-4.5-2.9-7.1-3.4-3.2-.5-6.4-.8-9.6-.4-1.8.2-3.5.6-5.2 1.3-.2.2 0 .8.3.7zm.4 3.9c4.1-1.3 8.4-1.7 12.7-1.1 1.2.2 2.4.4 3.5.7.4.1.5-.5.2-.6-4.2-1.1-8.7-1.3-13-.5-1.2.2-2.4.5-3.6.9-.4.1-.2.7.2.6zm-10.4-39V82c0 .4.6.4.6 0v-3.3c0-.4-.6-.4-.6 0zm.2-4.9c.7.8 1 1.8.9 2.8 0 .2.1.3.3.3.2 0 .3-.1.3-.3.1-1.2-.3-2.4-1.1-3.3-.1-.1-.3-.1-.4 0-.1.1-.1.3 0 .5zM23.2 67c.7.9 1.2 2 1.5 3.2.1.4.7.2.6-.2-.2-1.2-.8-2.4-1.5-3.3-.1-.1-.3-.2-.4-.1-.3 0-.3.2-.2.4zm-4.8 3.8c.6.9 1 1.8 1.2 2.9 0 .2.2.3.4.2.2 0 .2-.2.2-.4-.2-1.1-.6-2.1-1.3-3-.1-.1-.3-.2-.4-.1-.1.1-.2.3-.1.4zm-.9-5.1.6 1.5c.1.1.2.3.4.2.1 0 .3-.2.2-.4l-.6-1.5c-.1-.1-.2-.3-.4-.2-.1.1-.3.2-.2.4zm4.2 11.8c.2.6.4 1.2.5 1.8 0 .2.2.3.4.2.2-.1.3-.2.2-.4-.2-.6-.4-1.2-.5-1.8 0-.2-.2-.3-.4-.2-.1.1-.2.3-.2.4zm59.3-.4c-.5 1-1 2-1.5 2.9-.2.4.3.7.5.3.5-1 1-2 1.5-2.9.2-.3-.3-.6-.5-.3zm2.9 1-.6 1.8c-.1.2.1.3.2.4.2 0 .3-.1.4-.2l.6-1.8c.1-.2-.1-.3-.2-.4-.2-.1-.3 0-.4.2zm6-9-1.2 2.4c-.1.1 0 .3.1.4.1.1.3 0 .4-.1l1.2-2.4c.1-.1 0-.3-.1-.4-.2-.1-.4-.1-.4.1zm-4.8-2-.6 1.8c-.1.2.1.3.2.4.2 0 .3-.1.4-.2l.6-1.8c.1-.2-.1-.3-.2-.4-.2-.1-.3 0-.4.2zm.5 8.4c.9.5 1.6 1.4 1.7 2.4 0 .2.1.3.3.3.1 0 .3-.1.3-.3-.2-1.2-.9-2.3-2-2.9-.1-.1-.3 0-.4.1-.1.1-.1.3.1.4zm2-1.1c.7.9 1.3 1.8 2 2.7.1.1.3.2.4.1.1-.1.2-.3.1-.4-.7-.9-1.3-1.8-2-2.7-.1-.1-.3-.2-.4-.1-.1.1-.2.3-.1.4zm-26.2 47.3c-.1 1-.3 2-.4 3 0 .2.2.3.3.3.2 0 .3-.1.3-.3.1-1 .3-2 .4-3 0-.2-.2-.3-.3-.3-.2 0-.3.2-.3.3zm2.6.6v2.1c0 .2.1.3.3.3.2 0 .3-.1.3-.3v-2.1c0-.2-.1-.3-.3-.3-.2 0-.3.2-.3.3zm2.4-8.9v3c0 .4.6.4.6 0v-3c0-.4-.6-.4-.6 0zm-38.5 13.8c-.1.8-.2 1.6-.4 2.4 0 .2 0 .3.2.4.1 0 .4 0 .4-.2.1-.8.2-1.6.4-2.4 0-.2 0-.3-.2-.4-.2 0-.4.1-.4.2zm2.9-.4c-.4.6-.5 1.4-.3 2.1.1.2.2.3.4.2.2 0 .3-.2.2-.4 0-.1 0-.1-.1-.2v-.6c0-.1.1-.3.1-.4v-.1s0-.1.1-.1c0-.1.1-.1.1-.2.1-.1 0-.3-.1-.4-.2-.1-.3 0-.4.1zm2.1-1-.3 1.5c0 .2 0 .3.2.4.2 0 .3 0 .4-.2l.3-1.5c0-.2 0-.3-.2-.4-.2-.1-.4 0-.4.2zm-1.8-8.7c-.4.6-.4 1.5 0 2.1.1.1.3.2.4.1.1-.1.2-.3.1-.4 0-.1-.1-.1-.1-.2v-1c0-.1.1-.1.1-.2.1-.1 0-.3-.1-.4-.1-.2-.3-.1-.4 0z"/>
    <path class="st6" d="M60.4 69.2c.9-.8 1.8-1.5 2.7-2.3.1-.1.1-.3 0-.4-.1-.1-.3-.1-.4 0-.9.8-1.8 1.5-2.7 2.3-.1.1-.1.3 0 .4.1.2.3.1.4 0z"/>
    <path class="st6" d="m61.5 68.2.1.1.1.1c.1.1.1.2.2.3 0 .1.1.1.1.2 0 0 0-.1 0 0v.1c0 .1.1.2.1.4s.2.3.4.2c.2-.1.2-.2.2-.4-.1-.6-.4-1.1-.8-1.5-.1-.1-.3-.1-.4 0-.1.2-.1.4 0 .5z"/>
    <path class="st9" d="M49.7 69.6c-.9 1.2-2.7 1.7-4.1 1.1l1.6 1.9c.7.8 2 .4 2.1-.6l.4-2.4z"/>
    <path class="st6" d="M49.5 69.3c-.9 1.1-2.5 1.6-3.8 1.1-.3-.1-.5.3-.3.5.3.3.6.7.9 1 .3.4.6.8 1 1.1.6.5 1.6.3 2.1-.3.3-.4.3-1 .4-1.5.1-.5.1-1.1.2-1.6 0-.2 0-.3-.2-.4-.1 0-.4.1-.4.2-.1.4-.1.8-.2 1.3-.1.4-.1.9-.2 1.3-.2.6-.9.9-1.4.5l-.3-.3c-.2-.2-.3-.4-.5-.6-.3-.4-.6-.7-1-1.1-.1.2-.2.3-.3.5 1.5.6 3.4.1 4.4-1.2.1-.1.1-.3 0-.4-.1-.2-.3-.2-.4-.1z"/>
    <path d="M49.9 65c.3-.8 1.2-1.3 2-1.1.8.2 1.4 1.1 1.2 2-.1.4.5.6.6.2.2-1.2-.5-2.4-1.7-2.7-1.1-.3-2.4.4-2.8 1.5-.1.3.5.4.7.1zm-11.3-.6c.3-.8 1.2-1.3 2-1.1.8.2 1.4 1.1 1.2 2-.1.4.5.6.6.2.2-1.2-.5-2.4-1.7-2.7-1.1-.3-2.4.4-2.8 1.5 0 .3.6.4.7.1zm10.5-3.9c-.3.2-.2.8.1 1 .3.2.8.2 1.1 0 .4-.1.7-.4 1-.5 1.3-.5 2.7.3 3.8 1.2-.1-1.4-1.2-2.5-2.5-2.9s-2.3.6-3.5 1.2zm-4.7-.8c.3.3.1.8-.3.9-.4.1-.8 0-1.1-.2-.3-.2-.6-.5-.9-.7-1.2-.7-2.7-.2-3.9.5.4-1.3 1.7-2.2 3-2.3s2.2 1 3.2 1.8z"/>
    <path class="st6" d="M45.7 62.4c.1 2.1-1.1 4.1-2.9 5-.1.1-.2.3-.1.4.7.9 1.6 1.5 2.7 1.7.4.1.6-.5.2-.6-.9-.2-1.7-.6-2.3-1.4 0 .1-.1.3-.1.4 2-1 3.3-3.2 3.2-5.5-.1-.4-.7-.4-.7 0z"/>
    <path d="M62.3 46.9c1.8.3 3.6-.3 5.1-1.4 1.6-1.2 2.7-2.7 3.4-4.5.8-1.9 1.2-3.9 1.6-6 .5-2.3.9-4.6 1.4-6.8.8-3.8 1.7-7.9 4.7-10.7 1.5-1.4 3.3-2.3 5.2-2.8 2.1-.5 4.2-.4 6.3-.2 4.4.6 8.5 2.2 12.9 2.8.5.1 1.1.1 1.6.1.4 0 .4-.6 0-.6-4.5-.2-8.6-1.8-13-2.6-4.1-.7-8.4-.7-12 1.6-1.6 1.1-2.9 2.5-3.9 4.2-1 1.7-1.6 3.6-2 5.6-.5 2.1-.9 4.2-1.3 6.4-.4 2.1-.8 4.3-1.4 6.4-.5 1.9-1.3 3.8-2.6 5.3-1.2 1.3-2.8 2.4-4.6 2.6h-1.3c-.2 0-.3 0-.4.2 0 .2.1.4.3.4zm-9.2-4.1c-1-.1-2-.4-2.9-.8-.9-.4-1.9-.7-2.9-.7-2-.2-4 .3-5.8 1.2-1.8.9-3.3 2.2-4.7 3.6-1.3 1.4-2.8 2.9-3 4.9-.3 2.3 1.1 4.3 2.4 6 .2.3.7-.1.4-.4-1.1-1.4-2.3-3.2-2.3-5.1 0-1.9 1.4-3.4 2.6-4.7 2.6-2.7 6-5 9.9-4.9 1.1.1 2.1.4 3.1.8s2 .8 3.1.8c.5-.1.5-.7.1-.7zM66 49.2c1.4 1.7 2.6 3.6 3.5 5.6.5 1 .9 2.1 1 3.2.1 1-.1 2-.5 2.9-.5 1-1.2 2-2 2.8-.3.3.2.7.4.4 1.5-1.5 2.7-3.4 2.7-5.6 0-1.2-.4-2.3-.8-3.3-.5-1.1-1-2.1-1.6-3.2-.7-1.1-1.4-2.2-2.3-3.3-.2-.2-.6.2-.4.5z"/>
    <path class="st7" d="M65.7 47.9c-1.2-1.4-2.2-2.9-3-4.6-.4-.8-.8-1.6-1.1-2.5-.3-.8-.5-1.7-.1-2.5-.1 0-.3.1-.4.1 1.5 1 2 2.9 2.5 4.5.3 1.1.7 2.3 1 3.4.3 1 .5 2.1.9 3 .3.9.8 1.8 1.5 2.4.7.6 1.6 1 2.4 1.3.7.2 2 .8 2.4-.2.3-.8-.6-1.7-1.1-2.3-1.5-1.6-3.3-2.8-5.3-3.6-.1 0-.2 0-.3.1-2.6 2.5-5 5.3-6.9 8.4-.6.9-1.1 1.8-1.6 2.7-.2.3.3.7.5.3 1.8-3.1 3.9-6.1 6.3-8.7.7-.8 1.4-1.5 2.1-2.2-.1 0-.2.1-.3.1 1.7.6 3.2 1.6 4.5 2.8.3.3.6.6.9 1 .3.3.6.7.7 1.1.1.5-.5.3-.8.3-.4-.1-.8-.3-1.2-.4-.8-.3-1.6-.7-2.2-1.4-.6-.7-.9-1.5-1.2-2.4-.6-2-1.2-4.1-1.7-6.1-.5-1.7-1.1-3.6-2.7-4.7-.1-.1-.3 0-.4.1-.8 1.3 0 2.9.5 4.2.6 1.4 1.3 2.7 2.2 4 .5.7 1 1.4 1.6 2.1.1.5.5 0 .3-.3z"/>
    <path class="st7" d="M65.7 47.5c-.7.5-1 1.3-1.3 2-.4 1-.7 2-1.1 3-.7 2-1.3 4.1-1.9 6.1-.1.4.5.5.6.2.5-2 1.1-3.9 1.8-5.8.3-.9.6-1.9 1-2.8.3-.7.5-1.7 1.2-2.1.4-.3.1-.9-.3-.6z"/>
</svg>
