<svg xmlns="http://www.w3.org/2000/svg" width="179.2" height="268.7" style="overflow:visible;enable-background:new 0 0 179.2 268.7" xml:space="preserve">
    <style>
        .st0{fill:#7f201d}.st1{fill:#fed5b7}.st5{fill:#fff}.st6{fill:#173642}.st7{fill:#682f19}
    </style>
    <path class="st0" d="M6.4 172.6c2.5 4.2 5.2 8.7 9.6 10.8 1.6.8 3.3 1.2 5 1.6 4 1 8.1 2 12.1 2.9 3.8.9 7.6 1.8 11.4 1.8 8.7.1 17.1-3.1 22.7-9.9-4.9-1-9.8-4-14.4-6.1-6.6-2.9-12.7-6.8-19.5-9.1-6.8-2.4-14.6-3.1-20.9.3l-6 7.7z"/>
    <path class="st1" d="M83.8 214.5c2-4.2 3.7-8.4 5.1-12.8 5 .5 9.9 2.3 14 5.3-2.9 5.6-5.1 11.6-6.5 17.8-3.2-3.5-6.6-7.3-11.2-8.4l-1.4-1.9z"/>
    <path d="M88.3 189.9c-1 2.4-1.5 6.4-1.2 9 .2 1.8 1.1 3.9 2.9 4.2.7.1 1.4 0 2.1 0 3-.1 5.6 2 7.4 4.4.5.7 1 1.4 1.8 1.8 1.8 1 3.9-.2 5.7-1.1 5-2.5 10.9-3.3 16.4-2.2 1.1.2 2.5.4 3.2-.4.3-.4.4-.9.5-1.3.1-1.8-1-3.4-2.4-4.5s-3.1-1.7-4.8-2.2c-8.4-2.8-31.6-7.7-31.6-7.7z" style="fill:#c2b38c"/>
    <path d="M16.8 176.4c-4.5 18.4-9.1 36.7-13.6 55.1-1.8 7.3-3.6 14.6-3.1 22.1.4 6.2 3.3 13.2 9.3 14.7 3.8 1 7.8-.5 10.9-2.8 5.8-4.2 9-11 12-17.5 3.1-6.7 3.9-16.2 7-22.9 1.4 4.4 5 11.7 6.4 16.2 1.9 6.4 4 12.9 8 18.2 4.1 5.3 10.7 9.1 17.3 7.9 5.2-.9 9.4-4.7 12.8-8.7 8.7-10.2 14.5-22.9 16.4-36.2.1-.3.1-.7 0-1-.2-.4-.6-.7-1-1-5.2-3.4-10.3-6.7-15.5-10.1-2.7 4.6-5.3 9.2-8 13.9.6-12.8-.5-26.5-8-36.9-1.6-2.2-3.5-4.3-4.8-6.7-1.5-2.8-2.2-6-2.8-9.2l-43.3 4.9z" style="fill:#32637a"/>
    <path class="st1" d="M71.9 114.8c9.2-3.5 18.4-7 26.8-12 9.6-5.8 44.7-20.7 50.7-21.1.7 0 8.9-9.6 13.9-12.3.2 3.6-3.1 6.7-4 8.4.4-.6 9.4-3.5 14.8-6 1-.5 1.9 1 1 1.6-3 2.2-6.5 3.9-10.1 4.9 3.9-1.9 9-2 13.3-3 .8-.2 1.3.8.7 1.4-3.1 2.9-8.5 3.3-12.6 5 3.5-1.7 8.5-3 12.3-3.1.5 0 .7.6.3.9-3.1 2.4-7.9 4.5-11.6 5.5 2.4-1.2 5.3-1.5 7.9-1 .4.1.5.6.2.9-2.8 2.1-6.3 3.3-9.6 4.3-4.2 1.3-10.8 1.5-11.9 1.6-1.3 0-19.2 10.5-25 14.4-2.9 1.9-13.1 6.1-15 7-2.4 1.1-4.3 3-6.2 4.8-8.9 8.4-18.6 15.8-29 22.2-.6.3-1.2.7-1.8.6-.7-.1-1.1-.8-1.5-1.3-2.8-4.5-5-9.5-6.3-14.7l2.7-9zm-31.5-1.3c-.9-9.8-1.8-19.6-1-29.3 1-11.2-1-49.3-3.3-54.8-.3-.7 4.7-12.2 5-17.9-3.3 1.4-4.7 5.7-5.8 7.3.4-.6-1-10-1.1-15.9 0-1.1-1.7-1.3-1.9-.2-.7 3.7-.6 7.5.1 11.2 0-4.3-2.1-9-3.1-13.3-.2-.8-1.3-.8-1.5-.1-1.3 4.1.8 9.1 1.1 13.5.1-3.9-1-8.9-2.6-12.5-.2-.4-.8-.4-.9.1-.8 3.8-.6 9 .2 12.9 0-2.7-.9-5.4-2.5-7.6-.2-.3-.8-.2-.9.2-.7 3.5-.2 7.1.3 10.6.6 4.4 3.4 10.4 3.8 11.3.5 1.2-1 21.9-2 28.8-.5 3.4.3 14.5.3 16.5 0 2.6-.4 5.9-.3 8.5.2 14.1-2.4 21.7-3.6 33.9-.1.6.8 2.6 1.2 3.1.4.5-3 1.2-2.3 1.2 5.3.5 9.1-.4 14.4-1.4l6.4-6.1z"/>
    <path d="M43 83.8c1.2 15.1 14.6 26.4 29.7 24.6.2 0 .4-.1.7-.1 10.7-1.4 20.7-5.9 30.4-10.6.4-.2.9-.4 1.3-.3.5.1.7.6 1 1.1 2.1 4.3 4 8.8 5.5 13.4.3.8.5 1.6.3 2.4-.1.6-.5 1.2-.9 1.7-8.5 11-35.1 25.7-36.2 26.4-1.1.7-7.4 16.7-7.5 24.1-.1 4.4.1 8.9 0 13.3-10.2-1.3-20.5 4.4-30.7 3.6-5.3-.4-10.4-2.6-15.3-4.7-4.8-2.1-10-4.1-14.9-6.2 2.5-9 5.3-18.2 6.3-27.6.4-3.7.5-7.4 1.2-11.1.8-4 2.2-7.8 3.3-11.7 1.6-5.7 2.4-11.5 3.1-17.3 1.1-8.8 2-17.6 2.7-26.5 6.5-.8 13-.9 19.5-.2l.5 5.7z" style="fill:#c23f37"/>
    <path class="st5" d="M88.2 192.6c4.9 1.5 9.8 2.9 14.8 4.3 4.9 1.4 9.9 2.7 14.9 4l8.4 2.1c.4.1.6-.5.2-.6-5-1.2-10-2.4-14.9-3.8-5-1.3-9.9-2.7-14.8-4.1-2.8-.8-5.5-1.6-8.3-2.5-.6-.1-.7.5-.3.6z"/>
    <path class="st5" d="M116.9 201c.1 1.7.9 3.3 2.3 4.3.1.1.3 0 .4-.1.1-.2 0-.3-.1-.4-1.2-.9-2-2.3-2-3.8 0-.4-.6-.4-.6 0zm-11.8 1.7c.7 1.5 1 3.2 1.1 4.8 0 .4.6.4.6 0-.1-1.8-.5-3.5-1.2-5.1-.1-.2-.3-.2-.4-.1-.2 0-.2.2-.1.4zm2.3-.9c.8 1.6 1.1 3.6.7 5.3-.1.4.5.6.6.2.4-2 .2-4-.7-5.8-.2-.4-.7-.1-.6.3zm-15.7-7.9c-.2.9-.9 1.7-1.6 2.2-.7.6-1.6 1.1-2.5 1.1-.4 0-.4.6 0 .6 1.1 0 2.1-.6 2.9-1.3.8-.6 1.6-1.5 1.8-2.6.1-.2-.5-.4-.6 0z"/>
    <path class="st6" d="M33.1 186c.7-1.2 2.9-1 3.2.4.1.7-.2 1.5-.8 1.9-.6.5-1.4.4-1.9-.1-.6-.5-.9-1.5-.5-2.2.2-.3-.3-.7-.5-.3-.5.9-.3 2 .4 2.7.6.8 1.7 1 2.6.6.9-.4 1.4-1.4 1.4-2.4s-.7-1.8-1.7-2c-1-.3-2.2.1-2.7 1-.2.4.3.7.5.4zm.7 5.4c-.1 6.1.2 12.2.9 18.2.2 1.7.4 3.4.6 5 0 .1.2.2.3.2 1.4-.1 2.7.1 4 .6.2.1.4-.1.4-.3.1-6.3 0-12.5-.2-18.8-.1-1.8-.1-3.5-.2-5.3 0-.4-.6-.4-.6 0 .3 6.3.5 12.5.4 18.8v5.3c.1-.1.3-.2.4-.3-1.3-.5-2.8-.7-4.2-.6.1.1.2.2.3.2-.9-6-1.3-12-1.5-18v-5.1c0-.3-.6-.3-.6.1z"/>
    <path class="st6" d="M39.5 213.1c-.8 3.2.2 6.4 0 9.6 0 .9-.2 1.8-.5 2.7-.1.4.5.5.6.2 1-3.1.1-6.4.1-9.6 0-.9.1-1.8.3-2.7.2-.4-.4-.5-.5-.2z"/>
    <path class="st6" d="M33 216.4c3.5-.7 7-1.1 10.5-1.2 1 0 2-.1 3-.1.4 0 .4-.6 0-.6-3.6 0-7.2.3-10.7.8-1 .1-2 .3-3 .5-.4.1-.2.6.2.6zm18.1-32.5c-.1-.2-.3-.4-.5-.3-.2.1-.4.3-.4.6s.1.4.2.7c.1.3.3.5.5.8.6 1 1.4 1.9 2.2 2.7 1.7 1.6 3.7 2.8 5.8 3.6 1.2.4 2.5.7 3.9.8.4 0 .4-.6 0-.6-4-.3-7.7-2.3-10.3-5.3-.4-.4-.7-.9-1-1.4-.2-.2-.3-.5-.5-.7-.1-.1-.2-.2-.2-.3v-.1c.1-.1 0-.2-.4-.1.2.2.8 0 .7-.4z"/>
    <path class="st6" d="M58.8 183.2c2.9 5 4.4 10.5 5.2 16.2.9 5.8 1.1 11.6 1.5 17.5.4 5.8 1.1 11.6 2.8 17.2.4 1.2.8 2.4 1.5 3.4.6 1 1.4 1.9 2.5 2.4s2.3.5 3.4 0c1.2-.6 2.1-1.7 2.9-2.7 3.7-5 6.5-10.6 8.4-16.5.2-.7.5-1.5.7-2.2.1-.4-.5-.5-.6-.2-1.6 5.9-4.2 11.5-7.6 16.6-.8 1.2-1.6 2.4-2.6 3.4-.9.9-2.1 1.6-3.4 1.4-1.1-.2-2-.9-2.6-1.8-.8-1-1.3-2.1-1.7-3.2-.9-2.7-1.5-5.4-1.9-8.2-.5-2.8-.8-5.7-1-8.5-.5-5.7-.7-11.4-1.4-17.1-.7-5.5-2-11.1-4.5-16.1-.3-.6-.6-1.2-1-1.8-.3-.5-.8-.2-.6.2z"/>
    <path class="st6" d="M82.7 213.7c3.9 3.5 8 6.8 12.1 9.9 1.2.9 2.4 1.7 3.6 2.6.3.2.6-.3.3-.5-4.2-3-8.3-6.1-12.3-9.5-1.1-.9-2.2-1.9-3.3-2.9-.3-.3-.7.1-.4.4zm-7.8 10.4c-.9 4.6-1.7 9.3-2.2 14-.1 1.3-.3 2.7-.4 4 0 .4.6.4.6 0 .4-4.7 1-9.4 1.8-14 .2-1.3.5-2.6.7-3.9.1-.3-.5-.5-.5-.1zm1.3 1.9c.2 4.2.2 8.3 0 12.5l-.3 3.6c0 .4.6.4.6 0 .4-4.1.5-8.3.5-12.5 0-1.2-.1-2.4-.1-3.6-.1-.4-.7-.4-.7 0zm-51.4-44.2c-1.6 2.6-3.9 4.7-6.6 6.1-.8.4-1.6.7-2.4 1-.4.1-.2.7.2.6 3-.9 5.7-2.7 7.8-5.2.6-.7 1.1-1.4 1.6-2.2.2-.3-.4-.6-.6-.3zm6.9 52.8c-1.2 4.3-1.8 8.8-1.9 13.3 0 1.3 0 2.5.1 3.8 0 .4.6.4.6 0-.2-4.4.1-8.9.9-13.3.2-1.2.5-2.5.9-3.7.1-.3-.5-.5-.6-.1z"/>
    <path class="st6" d="M33.2 236.4c-1.1 3.3-1.9 6.7-2.3 10.2-.1 1-.2 2-.3 2.9 0 .4.6.4.6 0 .2-3.4.8-6.8 1.7-10.2.3-.9.5-1.9.9-2.8.1-.3-.5-.4-.6-.1z"/>
    <path class="st6" d="M33.8 216.2c-1.9 3.9-3.3 8-4.1 12.3-.4 2.1-.7 4.2-.8 6.4-.1 1.7 0 3.4.4 5 .4 1.8 1.4 3.4 2.9 4.5.3.2.6-.3.3-.5-2.7-1.8-3.1-5.6-3-8.6.2-4.1.9-8.2 2.2-12.1.7-2.3 1.6-4.5 2.6-6.6.2-.4-.4-.7-.5-.4z"/>
    <path class="st0" d="M75.2 142.4c.7-3.8 1-7.8.9-11.7-.1-3.9-.6-7.7-1.5-11.5-.5-2.1-1.2-4.3-1.9-6.3-.1-.4-.7-.2-.6.2 1.3 3.6 2.3 7.4 2.9 11.2.6 3.8.7 7.7.5 11.5-.1 2.2-.4 4.3-.8 6.5-.2.4.4.5.5.1z"/>
    <path class="st0" d="M75.2 114.3c-.7 1.2-1.1 2.5-1.2 3.9 0 .4.6.4.6 0 .1-1.3.5-2.5 1.1-3.6.3-.3-.3-.6-.5-.3zm-54.7-2c2.1-2.3 4.4-4.5 6.8-6.5 2.5-2 5.1-3.7 7.8-5.3 1.6-.9 3.1-1.7 4.8-2.4.4-.2 0-.7-.3-.5-2.9 1.3-5.7 2.8-8.3 4.6-2.6 1.7-5.1 3.7-7.5 5.8-1.3 1.2-2.6 2.5-3.8 3.8-.2.3.2.8.5.5z"/>
    <path class="st0" d="M36.2 97c-1.2.8-2.1 1.9-2.6 3.3-.1.2.1.3.2.4.2 0 .3-.1.4-.2.5-1.2 1.3-2.2 2.3-2.9.3-.3 0-.9-.3-.6zm10.8 7.4c-1.8.9-2.3 3.2-1.9 5 .6 2.3 2.5 4.1 4.1 5.6 1.7 1.6 3.7 3 5.9 3.8 1.9.7 4 .8 6 .1 2-.7 3.7-2.2 4.1-4.3.1-.4-.5-.6-.6-.2-.4 1.7-1.6 3-3.2 3.7-1.7.8-3.6.9-5.3.4-2.1-.6-4-1.8-5.6-3.3-.8-.7-1.7-1.5-2.4-2.3-.8-.8-1.5-1.6-1.9-2.6-.5-1-.6-2-.4-3.1.2-1 .7-1.9 1.6-2.3.3-.2-.1-.7-.4-.5zm54.7-4.3c.6.9 1.1 2 1.6 3 .5 1.1.9 2.2 1.4 3.3 1 2.2 1.9 4.5 2.9 6.7.5 1.3 1.1 2.6 1.6 3.8.2.4.7.1.5-.3l-5.7-13.5c-.5-1.2-1-2.3-1.7-3.4-.3-.3-.8 0-.6.4zM23.4 82c.9-.7 2.1-.6 3.2-.6 1.3-.1 2.5-.1 3.8-.2 2.5-.1 5-.2 7.5-.4 1.4-.1 2.9-.1 4.3-.2.4 0 .4-.6 0-.6-5.2.2-10.3.5-15.5.7-1.2.1-2.6-.1-3.6.7-.1.1-.2.3-.1.4.1.2.3.3.4.2zM9.8 170.4c3.2 1.9 6.3 3.7 9.6 5.4 3.2 1.6 6.6 3 10.1 3.9 3.4.9 7 1.2 10.5.8 3.5-.4 6.9-1.7 10.2-2.8 3.3-1.1 6.6-2.2 10.1-2.2.4 0 .9 0 1.3.1.4 0 .4-.6 0-.6-3.4-.3-6.8.6-10.1 1.6-3.3 1.1-6.6 2.4-10 3.1-3.5.6-7.1.5-10.5-.3-3.5-.7-6.9-2-10.1-3.5-3.3-1.6-6.5-3.4-9.6-5.2-.4-.2-.8-.5-1.2-.7-.3-.4-.6.2-.3.4zm19.8-22.7c3.4-2.4 6.9-4.7 10.5-6.8 3.6-2.1 7.3-4 11-5.8 2.1-1 4.3-1.9 6.5-2.8.4-.1.2-.7-.2-.6-3.9 1.6-7.7 3.3-11.5 5.2-3.7 1.9-7.4 4-10.9 6.3-2 1.3-3.9 2.6-5.9 4-.2.2.1.7.5.5zm5.3 2.4c2.8-2.3 5.7-4.4 8.7-6.4 3-1.9 6.2-3.6 9.5-5.1 1.8-.8 3.7-1.6 5.6-2.3.4-.1.2-.7-.2-.6-3.4 1.3-6.7 2.8-10 4.5-3.2 1.7-6.3 3.6-9.3 5.8-1.7 1.2-3.3 2.5-4.9 3.8-.2.1.3.6.6.3z"/>
    <path class="st7" d="M159.4 77.5c-.3 1.6-.1 3.5-1.4 4.7-1.1 1-2.8 1.1-4.3 1.2-.4 0-.4.6 0 .6 1.3-.1 2.6-.2 3.8-.7 1.2-.6 1.9-1.8 2.2-3.1l.3-2.4c.1-.6-.5-.7-.6-.3zm9.3 3.6c2.5-1 5.1-1.8 7.7-2.4.4-.1.2-.7-.2-.6-2.6.6-5.2 1.4-7.7 2.4-.4.2-.2.8.2.6z"/>
    <path class="st7" d="M166.3 77.6c1 2.3 2.1 4.6 3.3 6.8.2.4.7 0 .5-.3-1.2-2.2-2.3-4.5-3.3-6.8-.1-.4-.7-.1-.5.3z"/>
    <path class="st7" d="M170.2 84.2c1.7-.7 3.5-1.3 5.3-1.8.4-.1.2-.7-.2-.6-1.8.5-3.5 1.1-5.3 1.8-.3.2-.2.8.2.6zm-2.5-1.3c-1.5.5-3 1.1-4.5 1.6.1 0 .2.1.4.1-.5-.8-1.6-1-2.6-1-1.2 0-2.3.2-3.3.7-.2.1-.2.3-.1.4.1.2.3.2.4.1.9-.4 1.9-.6 2.8-.6.7 0 1.8 0 2.2.6.1.1.2.2.4.1 1.5-.6 3-1.1 4.5-1.6.3.1.2-.5-.2-.4zm-18.6 2.8c.3 1.1.7 2.2 1.3 3.2.2.4.7 0 .5-.3-.5-1-.9-2-1.2-3-.1-.4-.7-.3-.6.1zm-35.4 17.8c1.1-.5 2.3-.9 3.4-1.4.2-.1.3-.2.2-.4 0-.1-.2-.3-.4-.2-1.1.5-2.3.9-3.4 1.4-.2.1-.3.2-.2.4 0 .2.2.3.4.2zM33.3 72c-.7 1-.6 2.3.2 3.2.3.3.7-.1.4-.4-.6-.7-.6-1.7-.1-2.4.1-.1 0-.3-.1-.4-.2-.2-.4-.1-.4 0zm2.3-53.5c-.9 1.2-1.9 2.3-2.8 3.5-.8 1-1.5 2.3-1.1 3.6.1.4.7.2.6-.2-.4-1.2.4-2.4 1.1-3.3.8-1.1 1.7-2.1 2.6-3.2.3-.3-.1-.7-.4-.4zM25 11.2c.2.9.3 1.8.5 2.7.1.8.3 1.7.5 2.5.1.6.4 1.2 1 1.5.3.1.7.1 1 .3.3.2.5.4.7.7.5.8.3 1.9.1 2.8-.1.4.5.6.6.2.2-.9.3-1.7.1-2.6-.2-.7-.6-1.3-1.2-1.6-.2-.1-.3-.1-.5-.2-.2 0-.4 0-.6-.1-.3-.1-.4-.4-.5-.7-.1-.3-.2-.7-.2-1-.1-.5-.2-.9-.3-1.4-.2-1.1-.4-2.1-.6-3.2 0-.4-.6-.2-.6.1zm2.1-8.7c.2 2 .6 4 1.1 5.9.2 1 .5 2 .8 2.9.1.5.3.9.5 1.4.2.4.5 1 .4 1.5-.1.4.5.6.6.2.1-.5-.1-.9-.3-1.4-.2-.5-.3-1-.5-1.5-.3-1-.6-1.9-.8-2.9-.5-2-.9-4-1.1-6.1-.2-.4-.8-.4-.7 0z"/>
    <path class="st7" d="m27.8 15.5 5.7-1.2c.4-.1.2-.7-.2-.6l-5.7 1.2c-.4 0-.2.6.2.6zm24.4 75.4c-.1 2.3-1.3 4.5-3.2 5.8 1.3.8 2.6 1.5 4.1 1.9 1.5.4 3.1.4 4.4-.4 1.2-.7 1.9-1.8 2.7-2.9l-8-4.4z"/>
    <path class="st1" d="M83 83c-1.7 5.4-4.5 13-6.3 18.4-.8 2.5-2 5.4-4.6 6.1-2.8.7-5.5-1.6-8.4-1.9-.9 2.6-1.9 5.3-2.8 7.9-.1.3-.3.7-.6.9-.4.3-1 .3-1.5.2-3.4-.5-6.6-2-9.3-4.2-1.1-.9-1.4-2.3-.9-3.6L54.9 93c-.8 1.7-5.2-1.9-3.8-5.4.6-1.5 2.1-2.5 3.6-3s3.3-.1 4.4 1.1c.8-3.5 1.8-7 3.1-10.4L83 83z"/>
    <path class="st7" d="M54.8 87c.7.8 1.2 1.8 1.4 2.9 0 .2.1.3.3.3.2 0 .3-.1.3-.3-.2-1.2-.7-2.4-1.5-3.3-.3-.4-.8.1-.5.4z"/>
    <path class="st7" d="M54.4 89.2c.1 0 .1-.1.2-.1h.2c.1-.1.2-.1.4-.1.3-.1.5-.1.8-.2.2 0 .3-.2.2-.4-.1-.2-.2-.2-.4-.2-.6.1-1.1.3-1.7.5-.1.1-.2.3-.1.4.1.2.3.2.4.1z"/>
    <path style="opacity:.36;fill:#682f19" d="m63.7 105.6-9.3-3.4 8.2 6.7z"/>
    <path class="st7" d="M58.1 89c-.1.3-.1.7.1 1 .3.4.9.3 1.3 0 .3-.3.4-.8.5-1.3.9-4.2 2.2-8.3 3.8-12.2 1.6 1.7 3.3 3.3 5.1 4.8.2.2.5.4.8.5.5.1 1-.3 1.2-.8.2-.5.2-1 .1-1.5 1.1 1.6 2.7 3 4.4 4 .7.4 1.4.7 2.1.5.7-.2 1.1-1.4.4-1.8.7 1.2 1.8 2.1 3 2.7.6.3 1.3.5 2 .2.6-.2 1.1-1 .7-1.6.7.9 2.3.4 2.7-.7.4-1.1-.1-2.3-.8-3.2-1.5-1.9-3.9-2.8-6.1-3.7 1-.7 2.2-.8 3.3-1.3 1.1-.4 2.2-1.4 2.1-2.6-.2-1.5-2.2-2-3.7-2-2.4.1-4.7.5-7 1.3.5-.3 1.1-.7 1.4-1.2.3-.5.4-1.3 0-1.7-.3-.3-.6-.4-1-.5-3.3-.8-6.9-.7-10.1.5.3-1.2-.9-2.3-2.1-2.4s-2.3.6-3.1 1.5c-1.4 1.5-2 3.4-2.6 5.3-1.2 3.9-3.4 8.4-3.8 12.5 1.3-.7 3.9-1.3 5.4.3.1.1.2 1.7-.1 3.4zm12.7.4c-.3 1.2-.6 2.4-.8 3.6 0 .2.1.4.3.4 1.2 0 2.5.1 3.7.1-.1-.2-.1-.4-.2-.5-.4.5-.9.9-1.3 1.4-.7.7-1.5 1.5-2.4 2.1-.3.2 0 .8.3.5.9-.6 1.7-1.4 2.4-2.1l1.4-1.4c.2-.2.1-.5-.2-.5-1.2 0-2.5-.1-3.7-.1.1.1.2.3.3.4.3-1.2.6-2.4.8-3.6 0-.5-.6-.7-.6-.3z"/>
    <path class="st5" d="M65.2 96.2c0 .8-.4 3.4.3 3.8s2.3-1.6 3-2l-3.3-2v.2z"/>
    <path class="st7" d="M64.9 96.2c0 1.1-.3 2.2 0 3.3.1.5.4.9 1 .8.5-.1 1-.5 1.4-.9.3-.2.5-.5.8-.7l.3-.3.2-.2c.2-.1.2-.4 0-.5-1-.6-1.9-1.2-2.9-1.8-.1-.1-.3-.2-.4-.3-.3-.2-.7.3-.3.5 1 .6 1.9 1.2 2.9 1.8.1.1.3.2.4.3v-.5c-.9.6-1.5 1.5-2.4 2-.1 0-.1.1-.2.1.1 0-.1 0 0 0-.1 0 0 0 0 0v-.4c-.1-.5-.1-1.1-.1-1.6s.1-1.1.1-1.6c-.2-.4-.8-.4-.8 0z"/>
    <ellipse transform="rotate(-71.627 65.92 88.955)" cx="65.9" cy="89" rx="1.8" ry="1.1"/>
    <path d="M77.7 93.1c-.3.9-1 1.5-1.6 1.3-.6-.2-.8-1.1-.5-2 .3-.9 1-1.5 1.6-1.3.5.2.8 1.1.5 2z"/>
    <path class="st7" d="M77.8 85.5c-.3.4-.5.8-.7 1.3 0 .1-.1.2 0 .3 0 .1.2.2.3.3.4.2.9.3 1.3.5.8.4 1.2 1.2 1.5 2 .3-.3.5-.7.7-1 .1-.2.2-.4.2-.6v-.6c-.2-.8-.9-1.4-1.7-1.7l-1.6-.5zM69.7 82c0 .5-.1 1-.3 1.4 0 .1-.1.2-.2.2-.1.1-.3 0-.4 0-.5-.1-.9-.4-1.3-.5-.9-.2-1.7.2-2.4.6-.1-.4 0-.9.1-1.3 0-.2.1-.4.2-.6.1-.2.2-.3.4-.4.6-.5 1.6-.5 2.4-.2l1.5.8z"/>
    <path d="M65.2 72.1c-.6.2-.2.9 0 1.2.3.5.6 1.1.9 1.6.6 1 1.3 2 2 3 .2.2.4.5.5.7.2.2.3.5.6.6.6.1.8-.6.9-1 .3-1.1.3-2.3 0-3.4-.1-.5-.3-1.1-.6-1.6-.3-.4-.8-.6-1.2-.3-.5.3-.3 1-.3 1.5.1.6.2 1.1.5 1.6.4 1 1.1 2 1.8 2.9.6.7 1.8 1.5 2.7.8.9-.7.6-2.1.4-3-.2-.6-.4-1.3-.7-1.9-.3-.5-.6-1-1.2-1.2-.2 0-.3.1-.4.2-.2.9.1 1.9.6 2.7.4.8.9 1.5 1.5 2.2.6.6 1.2 1.3 2 1.6.8.3 1.7.1 1.9-.8.1-.9-.1-1.8-.5-2.6-.2-.4-.4-.8-.7-1-.4-.2-.8 0-.8.4-.2.8.4 1.8.8 2.5s.9 1.3 1.6 1.8c.7.5 1.8 1 2.5.4.8-.7.4-1.8-.1-2.6-.3-.4-.5-.4-.7-.4-.5.3-.4 1-.2 1.5.3.5.7 1 1.1 1.4 1 .8 2.2 1.1 3.4.9.4-.1.2-.7-.2-.6-.9.1-1.9-.1-2.6-.6-.4-.3-.7-.6-1-.9-.1-.2-.6-.9-.3-1.1-.1 0-.3-.1-.4-.1.3.5.8 1.2.3 1.8-.4.4-1.2 0-1.6-.3-1-.6-1.8-1.8-2.2-3-.1-.2-.1-.4-.1-.6v-.2h-.1s.1 0 .1.1c.2.2.4.6.5.9.3.6.4 1.3.4 2-.1.8-1.1.4-1.5.1-.5-.4-1-.8-1.4-1.3-.5-.6-.9-1.2-1.2-1.8-.4-.7-.8-1.5-.6-2.3-.1.1-.3.1-.4.2.4.1.6.5.8.8.2.4.4.8.6 1.3.2.7.5 1.6.3 2.4-.1.3-.2.6-.6.7-.4.1-.8-.2-1.1-.4-.6-.5-1.1-1.3-1.5-2-.5-.8-.9-1.6-1-2.5 0-.2-.2-1 .1-1 .3.1.5.7.6 1 .3.8.4 1.7.3 2.6 0 .4-.1.9-.3 1.3l-.1.2h.1l-.1-.1c-.2-.2-.3-.4-.5-.6-.6-.8-1.2-1.7-1.8-2.6-.3-.5-.6-.9-.8-1.4-.1-.2-.3-.4-.4-.7-.1-.1-.1-.2-.2-.4 0 0 0-.1-.1-.1-.1-.2 0-.1-.2 0 .4 0 .3-.6-.1-.5zm-5.5 3.8c-.3 1-.5 2-.8 3-.1.4.5.6.6.2.3-1 .5-2 .8-3 .1-.5-.5-.6-.6-.2zm-.7-4.2c-.7 1.2-1.2 2.4-1.5 3.7-.1.4.5.6.6.2.3-1.3.7-2.5 1.4-3.6.2-.3-.3-.6-.5-.3zm2.9 2.6c-.2.8-.4 1.7-.6 2.5 0 .2 0 .3.2.4.1 0 .4-.1.4-.2.2-.8.3-1.7.6-2.5.1-.4-.5-.6-.6-.2zM57 78.6c-.1 1-.3 1.9-.4 2.9 0 .2.2.3.3.3.2 0 .3-.1.3-.3.1-1 .3-1.9.4-2.9 0-.2-.2-.3-.3-.3-.2 0-.3.1-.3.3zm8.9-8.9c.8-.5 1.7-.8 2.7-.8.2 0 .5.1.7.1.1 0 .2.1.3.1 0 0 .1 0 .1.1.1.1 0 0 0 .1-.1.2-.3.4-.4.5-.2.1-.4.3-.6.3.1.2.2.3.3.5.4-.3.9-.4 1.4-.4.6 0 1.2.1 1.8.2.2.1.5.1.7.2.2.2.1.4-.1.5-.4.4-.9.8-1.4 1.1-.3.2 0 .7.3.5.6-.4 1.3-.8 1.7-1.4.2-.3.3-.6.1-.9-.2-.3-.4-.4-.7-.5-.7-.2-1.5-.3-2.3-.4-.7 0-1.4.1-2 .6-.2.2 0 .6.3.5.6-.2 1.2-.6 1.4-1.2.4-.7-.4-1-1-1.1-1.3-.3-2.7 0-3.8.7-.1.4.2.9.5.7zm12 1.6c.1-.2.3-.3.5-.4.1 0 .4-.1.5 0 .1.2-.2.5-.3.6-.2.2-.3.4-.6.5 0 0-.1.2 0 .3.1.2.2.3.5.4.3.1.5.1.8.1.5.1 1 .2 1.5.4l.2.1s-.1.1-.1.2c-.2.2-.3.3-.5.4-.4.2-.9.4-1.3.5-.4.1-.2.7.2.6.5-.2 1.1-.4 1.6-.6.4-.2 1-.7.9-1.2-.1-.5-.8-.7-1.3-.8-.3-.1-.6-.2-.9-.2-.1 0-.3 0-.4-.1h-.3c-.1 0 0 0 0 .1s-.1.2-.1.4c.4-.2.7-.5.9-.8.2-.3.4-.8.1-1.2-.2-.3-.7-.3-1.1-.2-.4.1-.7.4-1 .7-.5.2 0 .6.2.2zM52 95.2l-.1.1c.2.1.3.2.5.4 0-.1 0-.1.1-.2v.1c.1-.1.1-.3.2-.4v.1l.3-.3h-.1l.1-.1c.1-.1.2-.3.1-.4-.1-.1-.3-.2-.4-.1-.4.3-.7.7-.9 1.2 0 .1 0 .3.1.3.1.1.2.1.3 0l.1-.1c.1 0 .1-.1.1-.2v-.2c0-.2-.2-.3-.4-.2zm.5 1.6c.3-.2.5-.4.7-.6.1-.1.1-.1.1-.2s0-.2-.1-.2c-.1-.1-.1-.1-.2-.1s-.2 0-.2.1l-.5.5h.1l-.1.1c-.1 0-.1.1-.1.2v.2c0 .1.1.1.2.1-.1-.1 0-.1.1-.1z" style="fill:#33130a"/>
</svg>
