<svg xmlns="http://www.w3.org/2000/svg" width="212.5" height="277" style="overflow:visible;enable-background:new 0 0 212.5 277" xml:space="preserve">
    <style>
        .st7{fill:url(#SVGID_7_)}.st8{fill:url(#SVGID_8_)}.st9{fill:url(#SVGID_9_)}.st10{fill:url(#SVGID_10_)}.st11{fill:url(#SVGID_11_)}.st12{fill:url(#SVGID_12_)}
    </style>
    <path d="M212.1 79.9c-1.3-4.4-5.4-7.8-9.3-7.7h-.4l-8.1.7c6.6-1.9 13.4-4.7 13.8-4.8 1.7-.7 2.9-2.2 3.3-4.2.4-2 .1-4.3-1-6.4-1.8-3.5-5.2-5.8-8.5-5.8-.7 0-1.4.1-2.1.4-.1 0-12.5 5-18.6 5.9l-1.9.3c-1.9-2.5-4.7-4.2-7.5-4.2h-.5l-3.9.3-.2-.2v-.6c-.2-2.3-1.2-4.5-2.9-6.3-1.9-1.9-4.3-3-6.7-3.1h-.3C126.7 48.1 125 18.4 125 18.4h-.4c-.2-.8-.5-1.6-.9-2.4-1.8-3.5-5.2-5.8-8.5-5.8-.7 0-1.4.1-2.1.4-.1 0-12.5 5-18.6 5.9l-1.9.3c-1.9-2.5-4.7-4.2-7.5-4.2h-.4l-5.4.5c.5-1.1.7-2.4.6-3.9-.2-2.3-1.2-4.5-2.9-6.3-1.9-1.9-4.3-3-6.7-3.1H70c-4.3.1-7.3 3.4-6.9 7.9.2 2.3 1.2 4.5 2.9 6.3l.2.2-11.2 1c-1.9.2-3.5 1.2-4.4 2.9-.9 1.7-1 3.9-.4 6.1.5 1.7 1.4 3.2 2.6 4.5 0 .3.1.6.1.9l-2.9.3c-1.9.2-3.5 1.2-4.4 2.9-.9 1.7-1 3.9-.4 6.1.7 2.4 2.3 4.5 4.1 5.9l-.7.1c-1.9.2-3.5 1.2-4.4 2.9-.9 1.7-1 3.9-.4 6.1.2.8.6 1.6 1 2.3-1.3.9-2.2 2.3-2.5 4.2 0 .1-.3 2-1.2 3.8-.7 1.4-1.9 3-3.7 3h-1.2c-3.8.1-6.1 3.3-5.5 7.6.3 2.2 1.4 4.4 3.1 6.1 1.7 1.7 3.7 2.8 5.7 3 5.7 3 4.5 9.2 4.5 9.2v.1c-1.5 1.9-1.9 4.9-.7 8l3.4 8.5c.4 1.1 1 2 1.7 2.9L28.1 114c-4 .3-6.1 4.3-4.8 8.9 1.3 4.4 5.4 7.8 9.3 7.8 12.4-.2 6.2 12.2 6.2 12.2l-.3.7c-4.1 5.9-9.6 11.1-16.3 11.2h-1.7c-3.8.1-6.2 3.5-5.4 7.9.4 2.2 1.6 4.4 3.3 6 1.7 1.7 3.7 2.7 5.7 2.8.7 0 1.5.1 2.2.1.4 0 .8 0 1.3-.1l-2.2 5.6s-16 4.5-22.8 24.1c-7.5 21.4 2.3 38.5 16.8 49.3 7.9 5.9 20.3 9.4 32.8 8.9l43.9-.7c.4 1.7 1.2 3.3 2.4 4.7 1.5 1.8 3.5 3.1 5.6 3.5 1.1.2 2.3.4 3.4.4 0 .3.1.6.1.9.4 2.2 1.6 4.4 3.3 6 1.7 1.7 3.8 2.6 5.8 2.8 2 .1 4.1.2 6 .1 10.7-.2 19.9-2.6 27.3-7.3 6.4 3.2 13.4 5.4 20.9 6.6.4.1.8.1 1.2.1 3.6-.1 6-3.1 5.5-7.1-.2-2.2-1.2-4.4-2.8-6.2-1.6-1.8-3.6-3-5.6-3.3-2.5-.4-5-1-7.3-1.6 0-.1.1-.1.1-.2 6.9-10.4 7.5-21.5 7.5-22 .1-2.6-1-5.5-3-7.7-.8-.8-1.6-1.5-2.5-2l5.5-.4c1.9-.1 3.5-1.1 4.4-2.8.9-1.7 1.1-3.8.4-6.1-.2-.8-.5-1.5-.9-2.2-4-9.5 2.6-11.4 2.6-11.4 4.3-.1 7.3-3.4 6.9-7.9-.1-1.8-.8-3.5-1.9-5.1 1.4-.8 2.4-2.3 2.7-4.2l7.4-45.3c.3-2-.2-4.3-1.3-6.3-1.6-4.3 1.9-7.3 1.9-7.3l.7-2.2 7.2-27.7c.5-2 .2-4.2-.8-6.4-.3-.5-.5-1-.9-1.5l9.7-.8c3.7-.3 5.8-4.4 4.5-8.9zm-3.4.2c.2.6.2 1.2.2 1.8.1-.6 0-1.2-.2-1.8 0-.2-.1-.3-.2-.5.1.2.2.4.2.5zm-5-4.1s.1 0 0 0h-.2.2zm4.4-14.8c0-.4-.1-.8-.2-1.2.1.4.2.8.2 1.2zm-5.3-5.7zm-25.7 5.1c0-.1-.1-.1-.1-.2 0 .1.1.1.1.2zm-4.3-2.7s.1.1 0 0h-.2c0 .1.1 0 .2 0zm14.8 12.5c7.3-1.6 18.1-5.9 18.6-6.1 1.2-.5 1.9-1.7 1.9-3 0 1.4-.7 2.6-1.9 3-.5.2-11.3 4.5-18.6 6.1l-.9 3.2.9-3.2zm-71.4-56.3zm-25.7 5.1c0-.1-.1-.1-.1-.2 0 .1 0 .2.1.2zm-4.3-2.6H86h.2zm-13.9-3.3h-.4.4zM71 3.8h.2-.3c0 .1 0 .1.1 0zm-4.4 4.7c0 .2.1.5.1.7 0-.2 0-.5-.1-.7V8v.5zm-9.9 19.1c-.2-.1-.5-.3-.7-.5.2.2.4.4.7.5zm-6 14.1c.8.6 1.8 1 2.7 1-.9 0-1.9-.4-2.7-1-.3-.3-.7-.6-1-.9.3.3.7.6 1 .9zM37.2 70.8h-.4.4zm3.5 9.1c-.6 0-1.1 0-1.7-.1-1.4-.1-2.8-1.1-3.7-2.3.9 1.3 2.3 2.2 3.7 2.3.6.1 1.2.1 1.7.1zm-8.8 46.9h-.2c-1.4 0-2.8-.8-3.8-2 1 1.2 2.4 2 3.8 2h.2l3.6-.3-3.6.3zm-10.4 31.8h.3-.3c-.1 0 0 0 0 0zm3.8 9h-1.9c-1.2-.1-2.3-.7-3.2-1.6.9.9 2 1.5 3.2 1.6h1.9c1.3 0 2.6-.2 3.9-.4-1.2.2-2.5.4-3.9.4zm140.4 68c0 .3-.1.7-.1 1.2 0-.5.1-.9.1-1.2 0-.3 0-.6.1-.7-.1.1-.1.4-.1.7zm5.3-17.3c0-.4-.1-.7-.2-1.1.1.4.1.8.2 1.1zm9-33.6 1.6-9.8-1.6 9.8zm15.9-89.1-4.9 18.8 4.9-18.8c.1-.3.1-.7.1-1.1.1.4 0 .8-.1 1.1zM206.2 85l-12.5 1 12.5-1c1.6-.1 2.7-1.4 2.8-3.1-.2 1.7-1.2 2.9-2.8 3.1z" style="fill:#fff"/>
    <linearGradient id="SVGID_1_" gradientUnits="userSpaceOnUse" x1="527.16" y1="122.455" x2="534.458" y2="115.157" gradientTransform="matrix(.9374 -.015 .2614 1.0626 -457.088 -109.688)">
        <stop offset="0" style="stop-color:#f16768"/>
        <stop offset="1" style="stop-color:#eae735"/>
    </linearGradient>
    <path d="M76.4 8.7c-.2-2.6-2.6-4.8-5.3-4.8-2.7 0-4.7 2-4.5 4.7.2 2.6 2.6 4.8 5.3 4.8 2.7 0 4.8-2.1 4.5-4.7z" style="fill:url(#SVGID_1_)"/>
    <linearGradient id="SVGID_2_" gradientUnits="userSpaceOnUse" x1="539.776" y1="223.756" x2="547.074" y2="216.458" gradientTransform="matrix(.9374 -.015 .2614 1.0626 -457.088 -109.688)">
        <stop offset="0" style="stop-color:#f16768"/>
        <stop offset="1" style="stop-color:#eae735"/>
    </linearGradient>
    <path d="M114.8 116.1c-.2-2.6-2.6-4.8-5.3-4.8-2.7 0-4.7 2-4.5 4.7.2 2.6 2.6 4.8 5.3 4.8 2.6 0 4.7-2.1 4.5-4.7z" style="fill:url(#SVGID_2_)"/>
    <linearGradient id="SVGID_3_" gradientUnits="userSpaceOnUse" x1="587.602" y1="298.587" x2="594.9" y2="291.288" gradientTransform="matrix(.9374 -.015 .2614 1.0626 -457.088 -109.688)">
        <stop offset="0" style="stop-color:#f16768"/>
        <stop offset="1" style="stop-color:#eae735"/>
    </linearGradient>
    <path d="M179.1 194.9c-.2-2.6-2.6-4.8-5.3-4.8-2.7 0-4.7 2-4.5 4.7.2 2.6 2.6 4.8 5.3 4.8 2.7 0 4.8-2.1 4.5-4.7z" style="fill:url(#SVGID_3_)"/>
    <linearGradient id="SVGID_4_" gradientUnits="userSpaceOnUse" x1="514.876" y1="173.67" x2="521.833" y2="166.713" gradientTransform="matrix(.9374 -.015 .2614 1.0626 -457.088 -109.688)">
        <stop offset="0" style="stop-color:#f16768"/>
        <stop offset="1" style="stop-color:#eae735"/>
    </linearGradient>
    <path d="M78 63.5c-.2-2.5-2.5-4.6-5-4.6-2.6 0-4.5 1.9-4.3 4.4.2 2.5 2.5 4.6 5 4.6s4.5-1.9 4.3-4.4z" style="fill:url(#SVGID_4_)"/>
    <linearGradient id="SVGID_5_" gradientUnits="userSpaceOnUse" x1="608.393" y1="165.278" x2="615.691" y2="157.98" gradientTransform="matrix(.9374 -.015 .2614 1.0626 -457.088 -109.688)">
        <stop offset="0" style="stop-color:#f16768"/>
        <stop offset="1" style="stop-color:#eae735"/>
    </linearGradient>
    <path d="M163.8 53c-.2-2.6-2.6-4.8-5.3-4.8-2.7 0-4.7 2-4.5 4.7.2 2.6 2.6 4.8 5.3 4.8 2.7 0 4.7-2.1 4.5-4.7z" style="fill:url(#SVGID_5_)"/>
    <linearGradient id="SVGID_6_" gradientUnits="userSpaceOnUse" x1="596.109" y1="213.775" x2="603.066" y2="206.819" gradientTransform="matrix(.9374 -.015 .2614 1.0626 -457.088 -109.688)">
        <stop offset="0" style="stop-color:#f16768"/>
        <stop offset="1" style="stop-color:#eae735"/>
    </linearGradient>
    <path d="M164.6 104.9c-.2-2.5-2.5-4.6-5-4.6-2.6 0-4.5 1.9-4.3 4.4.2 2.5 2.5 4.6 5 4.6 2.6 0 4.5-1.9 4.3-4.4z" style="fill:url(#SVGID_6_)"/>
    <path d="m165.5 213-25.7 1.8c.7-2.3 1.1-3.8 1.1-4 .6-2.2-.8-4.9-3-6.1-2.2-1.2-4.5-.4-5 1.7 0 .1-1 3.8-2.8 9.1l-17.9 1.3c-2.2.2-3.3 2.3-2.6 4.8.7 2.4 2.9 4.3 5 4.2h.2l11.8-.9c-1 2.4-2 5-3.2 7.5-6.9 15.1-14.4 23-20.5 21.7-2.3-.5-4 1.1-3.8 3.6.2 2.4 2.1 4.8 4.4 5.3 1.1.2 2.1.3 3.1.3 7.3-.1 14.1-6 20.6-17.8 2.4 3.7 6.4 9 12.5 13.9-6.9 3.7-15.5 5.2-25.8 4.6-2.2-.1-3.7 1.8-3.2 4.3s2.7 4.6 4.9 4.7c2 .1 3.9.2 5.8.1 12.2-.2 21-3.5 27.2-7.8 5.9 3.2 12.9 5.8 21.5 7.2.2 0 .4.1.7 0 1.9 0 3.2-1.6 3-3.9-.3-2.5-2.3-4.8-4.6-5.1-5.4-.9-10-2.3-14-4 1.3-1.5 2.4-2.9 3.4-4.4 6.5-9.8 7-20 7-20.4.1-1.4-.6-3-1.6-4.1-1.1-1.2-2.5-1.8-3.8-1.7l-26 2c.9-2.3 1.8-4.6 2.5-6.7l31.4-2.3c2.2-.2 3.3-2.3 2.6-4.8-.7-2.4-3-4.3-5.2-4.1zm-14.1 36c-1.4 2.1-3.1 4-4.9 5.7-7.9-5.4-12-11.5-13.6-14.5l23.4-1.8c-.8 3.1-2.3 6.9-4.9 10.6zM52.3 57.7h.2l6.3-.5L54.9 76c-.5 2.2 1 4.9 3.2 6 .7.3 1.3.5 1.9.5 1.4 0 2.6-.9 2.9-2.5l4.9-23.7 14.3-1.2c2.2-.2 3.3-2.4 2.6-4.8-.7-2.5-3.1-4.3-5.3-4.2l-9.7.8 1.2-5.7 12.4-1.1c2.2-.2 3.3-2.4 2.6-4.8-.7-2.4-2.9-4.2-4.9-4.2l.3-1.6c.2-1.1 0-2.3-.5-3.4l7.7-.7c2.2-.2 3.3-2.4 2.6-4.8-.7-2.5-3.1-4.3-5.3-4.2L56.1 19c-2.2.2-3.3 2.4-2.6 4.8.5 1.6 1.6 3 3 3.7l-.1.6c-.4 1.6.3 3.5 1.6 4.9l-7 .6c-2.2.2-3.3 2.4-2.6 4.8.7 2.4 2.9 4.2 5 4.2h.2l8.1-.7-1.2 5.7-10.9.9c-2.2.2-3.3 2.4-2.6 4.8 1 2.6 3.2 4.4 5.3 4.4zm12.3-25.3.6-2.5c.2-.7.1-1.5-.1-2.2l8-.7-.3 1c-.3 1.2 0 2.6.7 3.8l-9.1.8c.2-.1.2-.2.2-.2zM48.5 94.9c-2.1.5-2.9 2.8-1.9 5.3l3.4 8.5c.9 2.2 2.9 3.7 4.8 3.7.2 0 .5 0 .7-.1 2.1-.5 2.9-2.8 1.9-5.3L54 98.5c-1-2.5-3.4-4.1-5.5-3.6zM88.8 93l-7.1 8.9c-1.3 1.6-.8 4.5 1.1 6.4 1 1.1 2.3 1.6 3.5 1.6.9 0 1.7-.4 2.3-1.1l7.1-8.9c1.3-1.6.8-4.5-1.1-6.4-2-2-4.5-2.2-5.8-.5z"/>
    <path d="M39 79.8c.6.1 1.2.1 1.7.1 11.2-.2 13.3-14 13.4-14.6.3-2.3-1.2-4.9-3.5-5.9s-4.3.1-4.7 2.4c0 .1-1.5 9.8-8.3 9.1-2.3-.2-3.8 1.6-3.4 4.1.4 2.4 2.5 4.6 4.8 4.8zm42.2 4.5c.7.4 1.5.6 2.2.6 1.4 0 2.5-.8 2.9-2.3l10.2-37.2h.6l22.4-1.9c2.2-.2 3.3-2.4 2.6-4.8-.7-2.5-3.1-4.3-5.3-4.2L99 36.1l1.9-7.1c7.3-1.6 18.1-5.9 18.6-6.1 1.9-.8 2.5-3.3 1.2-5.7-1.2-2.4-3.8-3.7-5.7-2.9-.1.1-12.7 5.1-19.2 6h-.1c-1.1.2-1.9.9-2.2 2.1L78.3 78.2c-.6 2.1.7 4.9 2.9 6.1z"/>
    <path d="M106.3 48.1c-2.2-1.2-4.5-.4-5 1.8l-7.2 27.7c-.6 2.2.8 4.9 3 6.1.7.4 1.5.6 2.1.6 1.4 0 2.5-.9 2.9-2.3l7.2-27.7c.6-2.2-.8-5-3-6.2zM135.2 80c.7 2.4 2.9 4.2 5 4.2h.2l8.1-.7-1.2 5.7-10.8.8c-2.2.2-3.3 2.4-2.6 4.8.7 2.4 2.9 4.2 5 4.2h.2l6.3-.5-3.9 18.9c-.5 2.2 1 4.9 3.2 6 .7.3 1.3.5 1.9.5 1.4 0 2.6-.9 2.9-2.5l4.9-23.7 14.3-1.2c2.2-.2 3.3-2.4 2.6-4.8-.7-2.5-3.1-4.3-5.3-4.2l-9.7.8 1.2-5.7 12.4-1.1c2.2-.2 3.3-2.4 2.6-4.8-.7-2.4-2.9-4.1-4.9-4.2l.3-1.6c.2-1.1 0-2.3-.5-3.4l7.7-.7c2.2-.2 3.3-2.4 2.6-4.8-.7-2.5-3.1-4.4-5.3-4.2l-29.7 2.6c-2.2.2-3.3 2.4-2.6 4.8.5 1.6 1.6 3 3 3.7l-.1.6c-.4 1.6.3 3.5 1.6 4.9l-7 .6c-2 .3-3.2 2.5-2.4 5zm16-6.2.6-2.5c.2-.7.1-1.5-.1-2.2l8-.7-.2 1.1c-.3 1.2 0 2.6.7 3.8l-9.1.8c.1-.2.1-.3.1-.3z"/>
    <path d="M120.9 116.3c.4 2.5 2.5 4.7 4.8 4.9.6.1 1.2.1 1.7.1 11.2-.2 13.3-14 13.4-14.6.3-2.3-1.2-4.9-3.5-5.9s-4.3.1-4.7 2.4c0 .1-1.5 9.8-8.3 9.1-2.3-.3-3.8 1.5-3.4 4zm86.5-57.7c-1.2-2.4-3.8-3.7-5.7-2.9-.1.1-12.7 5.1-19.2 6h-.1c-1.1.2-1.9.9-2.2 2.1L165 119.5c-.6 2.2.7 4.9 2.9 6.2.7.4 1.5.6 2.2.6 1.4 0 2.5-.8 2.9-2.3l10.2-37.2h.6l22.4-1.9c2.2-.2 3.3-2.4 2.6-4.8-.7-2.5-3.1-4.4-5.3-4.2l-17.8 1.5 1.9-7.1c7.3-1.6 18.1-5.9 18.6-6.1 1.9-.6 2.4-3.2 1.2-5.6z"/>
    <path d="M193 89.5c-2.2-1.2-4.5-.4-5 1.8l-7.2 27.7c-.6 2.2.8 4.9 3 6.1.7.4 1.5.6 2.1.6 1.4 0 2.5-.9 2.9-2.3l7.2-27.7c.5-2.2-.8-5-3-6.2zm-87.7 100.1c-2.2-.1-3.7 1.8-3.2 4.2.5 2.5 2.6 4.6 4.9 4.8h1.1c8.6-.1 15.6-8.6 20.8-25.1l5.9.1h.1c2.1 0 3.4-2 2.9-4.4-.5-2.5-2.8-4.5-5-4.6h-1.5c.5-1.9.9-3.8 1.3-5.7l5 .1h.1c2.1 0 3.4-2 2.9-4.4-.5-2.5-2.8-4.5-5-4.6h-1.4c.8-5.3 1.2-8.9 1.2-9.2.2-2.3-1.4-4.9-3.7-5.8-2.3-.9-4.3.3-4.5 2.6 0 .1-1.4 13.8-5.1 27.2-6.1 22.2-13.2 25.1-16.8 24.8zM79 161.1c12.8-.2 19.6-14.3 19.9-14.9.9-2 0-4.8-2.1-6.3s-4.5-1.2-5.4.7c0 0-1.5 3.2-4.3 6.2-2.4 2.6-6.2 5.6-11 5.3-1.7-.1-2.5-.4-2.9-.6 0-.3 0-.8.1-1.1v-.1l5.6-27.3 20.8-1.7c2.2-.2 3.3-2.3 2.6-4.8-.7-2.5-3.1-4.4-5.2-4.2l-23.9 1.9 5-20.5c.5-2.2-.8-4.9-3.1-6.1-2.2-1.2-4.5-.4-5 1.8L64 114.8v.2l-34.8 2.8c-2.2.2-3.3 2.3-2.6 4.8.7 2.4 2.9 4.2 5 4.2h.2l19.7-1.6c-1.3 4-3.3 9.3-6.1 14.6-4.7 9-12.7 19.5-23.6 18.7-2.2-.2-3.7 1.7-3.2 4.2.4 2.5 2.6 4.6 4.9 4.8.7 0 1.3.1 1.9 0 23.2-.4 33.7-35.6 35.7-43.2l8.8-.7-4.6 22.1c-.3 1.2-1.2 5.6 1.7 9.8 2.3 3.3 5.9 5.1 10.8 5.4.4.2.8.2 1.2.2z"/>
    <path d="M138.6 198.1c.7.3 1.3.5 1.9.5 1.5 0 2.6-1 2.9-2.5l11.1-56c.3-1.4-.2-3.1-1.3-4.5-1.1-1.3-2.6-2.1-4-2l-7.5.5c-2.2.1-3.4 2.3-2.6 4.8.7 2.5 3 4.4 5.2 4.2l.8-.1-9.7 49.1c-.5 2.2 1 4.9 3.2 6zm43.5-65-7.5.5c-2.2.1-3.4 2.3-2.6 4.8.7 2.5 3 4.4 5.2 4.2l1-.1-6.3 38.5c-.4 2.3 1.1 4.9 3.4 6 .6.3 1.2.4 1.8.4 1.5 0 2.7-1 3-2.7l7.4-45.3c.2-1.4-.3-3.1-1.4-4.4-1.2-1.3-2.7-2-4-1.9z"/>
    <path d="M170.6 168.8c-.5-2.5-2.8-4.5-5-4.6l-3.5-.1 1.1-5.7c.2 0 .4.1.6.1l6.6.1h.1c2.1 0 3.4-2 2.9-4.4-.5-2.5-2.8-4.5-5-4.6l-3.5-.1 1.9-9.7c.4-2.2-1-4.9-3.3-6-2.2-1.1-4.4-.2-4.9 2.1l-11.1 56c-.4 2.2 1 4.9 3.3 6 .7.3 1.3.5 1.9.5 1.5 0 2.6-1 2.9-2.5l4.5-22.8c.2 0 .4.1.6.1l6.6.1h.1c2.4-.1 3.7-2 3.2-4.5z"/>
</svg>
