<svg xmlns="http://www.w3.org/2000/svg" width="50.6" height="190.1" style="overflow:visible;enable-background:new 0 0 50.6 190.1" xml:space="preserve">
    <style>
        .st0{fill:#f69a87}.st1{fill:#ebadae}.st2{fill:#122444}.st4{fill:#a84f37}.st5{fill:#dad5d2}.st6{fill:#f7b6bd}.st8{fill:none;stroke:#540806;stroke-width:.5946;stroke-linecap:round;stroke-linejoin:round;stroke-miterlimit:10}.st9{fill:#bdb7b2}.st13{fill:#682f19}.st14{fill:#dddbff}.st15{fill:#7c3b00}.st16{fill:#d3008f}.st17{fill:#32637a}.st18{fill:#fff}.st19{fill:#7f4a24}
    </style>
    <path class="st0" d="M34.8 40.8c4.7-1.2 8.1 13.7 9.4 16.2 1.3 2.4 4.5 8.3 4.6 11 .1 2.6-5.8-6.6-6.5-7.5-2.4-3.1-6.8-11.8-8.1-14.8-1.4-3.3.6-4.9.6-4.9z"/>
    <path class="st1" d="M32.6 32.5c5.4 0 7.8 8.7 8.7 12.5.6 2.6.7 5 2.2 9.3.7 1.9 1.8 4.5-.4 5.9-3.3 2.1-5.4.5-6-.7-1.9-4.2-9.2-16.7-10.1-20.6-.8-4.3 5.6-6.4 5.6-6.4z"/>
    <path class="st1" d="M41.5 51.3c.6 0 1.5-.9 2.1-.6.9.5.1 1.5.4 2.1.4.7 1.7.4 1.9 1.2.2.7-.4.5-.5.9-.2.6-.1.4.2 1 .5.8 1.1 1.2-.1 1.7-.8.3-1.6.2-2.4.6-1.6.8-3.1 1.4-4.7 2-.7.3-1.5.8-2.1.2-.7-.6 0-.9-.2-1.7-.2-.8-.8-.4-1.3-1.1-.5-.7 0-1.1.1-1.8-1.6-.1.2-1.6.6-1.9.8-.6 1.7-.9 2.5-1.4l3.5-1.2z"/>
    <path class="st0" d="M29.5 145.8c-.6-8.2.9-10.9.4-16.6.2-3.4 3.3-4.4 5.3-4.6 2.6-.3 4.6 3.4 4.6 3.4-.8 5 1 9.2.9 17.6-.1 9.7-3.1 34.8-3.1 34.8.2 1.4 3.1 2.7 6.5 4.4 0 0 1.8 1.5 1.6 1.8-.4.9-.9.8-1.8.7-2.3-.2-4.3-1.1-6.4-1.5-1.1-.2-3.3-.4-4-1.3-.9-1.1-.7-2.5-.6-3.8-.1.1-2.8-26.7-3.4-34.9zM25.3 185c-3.4-1.7-5.8-3.2-6-4.6 0 0 3.8-24.8 4-34.5.1-8.4-1.3-12.1-.5-17.2 0 0-3.5-4.3-6.1-4-2 .2-3.7 1.1-3.9 4.5.5 5.7-1.6 8.2-1 16.4.6 8.2 2.2 35.2 2.2 35.2-.1 1.3-.2 2.7.7 3.8.7.9 2.9 1.1 4 1.3 2.2.4 4.1 1.3 6.4 1.5.9.1 1.4.1 1.8-.7.2-.3-1.6-1.7-1.6-1.7z"/>
    <path class="st0" d="M39.8 128.6c-.8 4.1-2.4 4.8-6 5-3.6.2-3.2-.2-3.6-3.4-2.3-1.9-1.8-27-2-28.6-1.8-11.7-2.5-19.4-2.5-19.4l.1-15.7H38c1.4 4.3 4.8 15.5 4.8 25.2 0 15.1-2.8 34.6-3 36.9z"/>
    <path class="st0" d="M12.8 128.6c.8 4.1 2.4 4.8 6 5 3.6.2 2.7.5 3.1-2.7 1.7-.6 2.2-27.8 2.5-29.3C26.2 89.9 27 82.2 27 82.2l11.4-8.1-2.2-7.6H14.6C13.2 70.8 9.8 82 9.8 91.7c0 15.1 2.7 34.6 3 36.9z"/>
    <path class="st2" d="m27.6 112.7-2.7-22-.3-8.5.1-15.7H37c.7 2.2 2.1 6 3.4 10.4 1.3 5.4 2.4 11.4 2.4 14.6 0 6.7.6 13.7 0 20.3 0-.1-2.5 2-15.2.9z"/>
    <path class="st2" d="M27.6 85.6s-2.1 20.3-2.8 26.7c-9.9 2.3-16.1-1.2-16.2-1.3-.2-6.7.7-12.8.7-19.4 0-9.8 4.2-21.1 5.6-25.5l22 .3 2.6 7.6-11.9 11.6z"/>
    <path style="fill:#021533" d="M14.1 68.8h23.7v-2.9H14.5z"/>
    <path class="st4" d="M11.9 1.3C10.1 3 10.3 5 10.4 7.2c.1 1.7-.5 3.2-1.6 4.6-2 2.7-5.2 4.6-6.6 7.6-1.3 3-.1 4.7 1.2 7.4 1.1 2.2 1 4.2.3 6.5-.7 2.6-1.5 4.9-1.5 7.6 0 1.1-.3 2.7.1 3.8.7 1.3 2.6 2.4 3.9 3 2.3 1 5.1.5 6.7-1.3 2.1-2.4 1.4-5.8 3.9-8.1 2.7-2.4 5.4-5.1 5.8-8.7.3-2.3-.7-4.6-.4-6.9.2-2 1.9-3.7 2.4-5.7.6-2.4.8-4.7.3-7.2-.3-1.4-.6-2.7-1.2-4-1-2.2-1.6-4.1-4.2-5.1-2.6-.9-5.6-1.2-7.6.6z"/>
    <path class="st0" d="M15.2 31.6c.6 0 6.2-3.6 3.7-12.7l1.2-1.3c2.9.6 9.9.6 8.6 3.2-5.1 10.1 3.6 11.7 4 11.7 0 0 1.7 8.1-6.2 8.1s-10.3-6.3-10.8-7.2c-.5-1.1-.5-1.8-.5-1.8z"/>
    <path class="st5" d="M18.6 28.1c1-2 1.5-5 .3-9.1l1-1.1c3.1.5 6.3 1 8.9 2.2.1.2 0 .5-.1.8-1 2-1.4 3.7-1.6 5.1-1.2.1-2.7 0-3.9.1-1.9.1-3.5 1.1-4.6 2z"/>
    <path class="st6" d="M15.2 31.6c-3.6.4-5.8.9-6.2 2.1-.5 1.4 2.1 7.1 3.8 20.2.6 4.8-3.8 28-4.1 29.2 0 0 11.6 5.8 34.1.5 0 0-3.1-23.4-2.9-26 .2-2.4-1.9-4.8-.8-6.5 4.9-7.8-4.2-12.1-5.6-18.6 0 0-.5-.1-.7-.2-1.1-.3-3.6-1.2-4.9-3.2l-9.3-1c-.1 1-3.4 3.5-3.4 3.5z"/>
    <path class="st5" d="M12.7 53.9c-1.2-9.5-2.9-15.1-3.6-18 .5.1 1.1.1 1.6.3 2.6 2.7 3.3 5.8 3.7 9.2.4 3.4-.2 14.3-.3 15.7-.2 1.8-2.1 13.4-3.6 22.7-1.3-.4-1.9-.7-1.9-.7.3-1.2 4.8-24.4 4.1-29.2z"/>
    <path class="st6" d="M11.8 32.5c-7.6-.9-7.3 7.1-8.3 10.4-1 3.1-2 10-3.2 13-.7 1.9.3 3.9 2 4.8 3.7 2 6.1.1 6.7-1.1 2.1-4.2 5.8-16.9 6.7-20.8.9-4.2-3.9-6.3-3.9-6.3z"/>
    <path class="st4" d="M26.6 7.3c.9 0 1.9.1 2.8.2 1.5.3 4.6.5 4.8 2.2l.2 2.5c.6 1.4-.7 9.1-7.8 10.4V7.3z"/>
    <path class="st0" d="M18.1 10.4c1.6-3.4 4.8-3.8 4.8-3.8.6-.1 1.3-.2 1.9-.3h.8v.1c.6.1 1.3.2 1.9.3 0 0 3.2.4 4.8 3.8 1 2.1.5 3.1.4 5.2-.1 1.9-.1 2.3-.5 3.9-.5 2-2.4 3.6-4.4 4.9-.9.5-1.8.7-2.6.7s-1.7-.2-2.6-.7c-2-1.2-3.9-2.9-4.4-4.9-.4-1.6-.3-1.9-.5-3.9-.1-2.1-.6-3.1.4-5.3z"/>
    <path d="M17.5 2.2C19 1 26.6 0 30.9 2.7c3.3 2.2 4.7 5.2 4.5 8.8 0 .7-.1 1.4-.3 2.1-.1.4-.6 2.2-.6 2.2-3.8-.9-2.9-5-7.1-5.1-3.6-.1-4.5-2.6-4.5-2.6-.6 3.5-1.2 4.4-2.9 5.3-1.3.7-.9 3.6-1.6 2.9-.8-.8-.5.9-.5.9s.7 1.2.3.9c.6.9.6 2.6.6 2.6-2.6-2-4.4-4.4-4.9-7.7-1-7.2 2.2-9.7 3.6-10.8z" style="fill:#be5b40"/>
    <path class="st0" d="M18.5 16.5c-.4-1.4-2.8-2.6-3.1-.5-.3 1.8 2.1 5.4 3.1 2.1v-1.6z"/>
    <path class="st5" d="M31.9 32s-2.2 3.7-10.6 1.9c-4.7-1-5.7-2.6-5.7-2.6l.9-.7L31.9 32z"/>
    <path class="st6" d="M27.2 27.3c0-.3-.1-1.3-.1-1.5.2.1 3.2-.1 2.8 2.2-.2 1.1-.2 1.6.8 1.9.7.2 1 1.4 1.2 2.1 0 0-8 4.3-15.4-1.4-2.4-1.9.8-3.1.8-3.1.3-.8-.3-1.6 0-2.3.7-1.4 1.7-1.1 2.3-1.2 0 1.2.1 1.6 1.6 2.2 1 .6 3.9 1.4 6 1.1z"/>
    <path class="st8" d="M29.6 16.3s.1-.4.7-.4.6.4.6.4M23.3 16.3s-.1-.4-.7-.4c-.5 0-.6.4-.6.4"/>
    <path class="st4" d="M24.3 14.4c-.1-.3-.5-.4-.7-.5-.3-.1-.5-.2-.8-.2-.2 0-.5 0-.7.1-.3.1-.7.2-.9.5-.2.2 0 .6.3.6.3.1.6-.1.9-.1.1 0 .2 0 .3-.1.1 0-.1 0 0 0H23c.1 0-.1 0 0 0h.4s-.1 0 0 0h.1c.1 0 .1 0 .2.1h.2c.1 0 .1 0 .2.1.1 0 .2.1.3.1-.1-.1 0-.4-.1-.6zM29 14.9c.2 0 .3-.1.5-.1-.1 0 0 0 0 0h.7c.1 0 0 0 0 0H30.5c.1 0 0 0 0 0 .1 0 .2 0 .3.1.3.1.6.2.9.1.2-.1.4-.4.3-.6-.2-.3-.6-.4-.9-.5-.2-.1-.5-.1-.7-.1-.3 0-.5.1-.8.2-.3.1-.6.3-.7.5-.3.1-.1.4.1.4z"/>
    <path class="st9" d="M28.8 14.7c-.1 0-.1 0-.2.1-.1 0-.1.1-.2.2s-.2.2-.3.4c-.1.1-.2.3-.2.4 0 .1-.1.2-.1.2 0 .1 0 .2.1.3 0 .1.1.1.2 0 .1 0 .1-.1.2-.1 0 0 0-.1.1-.1.1-.1.1-.3.2-.4.1-.1.1-.3.2-.4 0-.1.1-.1.1-.2-.1-.2-.1-.3-.1-.4zM27.4 17.3c-.1.2-.2.4-.2.6 0 .2 0 .4.1.6 0 .1.1.3.1.4v.4-.1c0-.1-.1 0 0 0l-.1.1h-.1s-.1 0-.1.1c-.1.1-.3.1-.5.1-.1 0-.1.1-.1.2.3.2.6.2.9.1.2 0 .3-.1.4-.2.1-.1.1-.3 0-.5s-.2-.5-.2-.7c0-.1-.1-.3-.1-.4 0-.2-.1-.4-.1-.6.2-.1.1-.1 0-.1z"/>
    <path d="M28.5 20.7c-1.6.2-4.4-.4-4.4-.4-.2 2 2.7 3 3.2 1.9s1.2-1.5 1.2-1.5z" style="fill:#efefee"/>
    <path d="M28.5 20.7h-1.3c-.5 0-1-.1-1.4-.1-.5-.1-1.1-.1-1.6-.3-.1 0-.1 0-.1.1-.1 1 .6 1.9 1.5 2.2.4.2.8.3 1.2.2.2 0 .3-.1.5-.2.2-.2.3-.4.4-.6.2-.3.4-.7.6-1 0-.1.1-.2.2-.3 0 0 0-.1 0 0-.3.2-.5.4-.7.6l-.6.9-.3.3c-.3.1-.7.1-1 0-.4-.1-.8-.4-1.1-.7-.4-.4-.6-.9-.5-1.4l-.1.1c.5.1 1.1.2 1.6.3.5.1 1 .1 1.5.1.3-.1.7 0 1.2-.2z" style="fill:#a67c51"/>
    <path class="st5" d="M26.5 23.1c-.1-.1-.3-.2-.4-.3H25.5c-.1 0-.2.1-.2.1v.2h.2s.1 0 0 0h.6c.1 0 .2 0 .3.1.1 0 .2 0 .2-.1 0 .1 0 0-.1 0z"/>
    <path class="st6" d="M37.9 51c.5 3.9 11.2 8 9.5 18.4-1.3 8.4-6.7 9.6-6.7 12.4"/>
    <path class="st5" d="M30.3 83.6c6.2 0 11.9-3.3 11.9-4.3l.5 4.3s-7 1.6-12.4 0zM39 51c-2.8 1.5-6.7-.8-7.9-.8-1.2 0-8 4.3-12.3 0 4.6 5.6 11.5.3 12.8.9 4.5 2.2 7.4-.1 7.4-.1z"/>
    <path class="st5" d="M37.9 72.5c-.5 2.1-3.8 1.3-5.5 1.3-2.7-.1-5.8-2.5-8.1-3.8-2.8-1.5-9.5-2.3-12.8-4.2l.3-1.5c1.1-1.3 4.7-1.7 6-1.2 3.8 1.4 7.1 4.2 11.1 5.2l9 4.2z" style="opacity:.52"/>
    <path class="st0" d="M4.6 57.5c2-3.2 5.2-.5 7.5.8 3.1 1.7 13.2 7.1 14.2 7.3 1 .2 2.1.6 3.5.6 1.6-.1 2.9.1 4.4.7.5.2 1.5.8 1.4 1.1-.2.6-.7.4-1.6.1-.2-.1-1.1-.2-1.5-.4 1.2 1 4.2 1.5 5.6 2.8.8.8 1.1 1.5.1 2.2-1.3.9-2.1-.1-3.4-.1-.5 0-1.4.5-3-.2-.9-.4-1.9-.9-2.7-1.5-1-.7-2.2-1.2-3-1.6-.8-.4-14-4.2-16.9-5.8-3.6-1.9-5.4-4.7-4.6-6z"/>
    <path class="st6" d="M6.7 53.8c.6-.2 1.1-1.4 1.9-1.4 1.1.1.8 1.3 1.4 1.8.8.5 1.9-.4 2.6.3.5.5-.1.6 0 1.1.1.6.1.4.7.8.9.6 1.7.7.7 1.6-.7.6-1.6.8-2.2 1.5-1.2 1.3-2.5 2.5-3.8 3.7-.6.5-1.1 1.3-2.1 1.1-1-.2-.5-.8-1-1.5-.6-.7-1 0-1.9-.5-.9-.4-.5-1-.7-1.7-1.7.5-.6-1.5-.2-2 .6-.8 1.3-1.6 2-2.3l2.6-2.5z"/>
    <path class="st0" d="M47.5 65.7c3.3 2.3 2 4.9.3 5.8-2.7 1.5-3-1.2-1.6-2.3 1.1-.9 1.4-1.7 1.4-1.7l-.1-1.8z"/>
    <path class="st13" d="M37.3 134.6c.4 1.4-.1 2.9-1.3 3.8-.2.2.1.4.3.3 1.3-1 1.8-2.7 1.4-4.2-.1-.2-.5-.1-.4.1zM19 134.6c.4 1.4-.1 2.9-1.3 3.8-.2.2.1.4.3.3 1.3-1 1.8-2.7 1.4-4.2-.1-.2-.5-.1-.4.1z"/>
    <path class="st14" d="M12.1 103.4c-.1 0-.2-.1-.2-.2 0-1.8.3-3.7.8-5.4.3-1.2 1-2 1.6-2.7.3-.4.6-.8 1-1.2 1-1.5 1.5-3.3 1.2-4.9 0-.1.1-.2.2-.2s.2.1.3.2c.3 1.7-.1 3.6-1.2 5.1-.3.5-.7.9-1 1.3-.7.8-1.2 1.4-1.5 2.6-.5 1.7-.8 3.5-.8 5.3-.1 0-.2.1-.4.1zM38.7 91.8c-.1 0-.1 0 0 0-.2 0-.3-.1-.2-.2.4-1.7.3-3.5-.3-5.2 0-.1 0-.2.2-.3.1 0 .3 0 .3.1.6 1.7.7 3.6.3 5.4-.1.2-.2.2-.3.2z"/>
    <path class="st15" d="M16.3 13.3c-.1 0-.2 0-.2-.1s0-.2.1-.3c.9-.3 1.8-.7 2.6-1.2.8-.6 1.3-1.4 1.2-2.1 0-.3 0-.6-.1-.8l-.1-.2c-.1-.6-.2-1.2-.2-1.8 0-.5.1-2.2 1.6-2.7.1 0 .3 0 .3.1s0 .2-.1.3c-1 .3-1.3 1.4-1.3 2.3 0 .6.1 1.1.2 1.7l.1.2c.1.3.2.6.2.9 0 .9-.5 1.8-1.4 2.4-.9.6-1.8.9-2.9 1.3.1 0 .1 0 0 0zM31 11.9c-.1 0-.2-.1-.2-.2 0-.6-.2-1.9-1.3-2.4-.3-.1-.6-.2-.9-.2-.5-.1-1-.2-1.4-.5-.4-.3-.6-.7-.8-1.1-.1-.3-.3-.5-.4-.8-.1-.1-.1-.2 0-.3.1-.1.2-.1.3 0 .2.3.4.6.5.9.2.4.3.7.6.9.3.2.7.3 1.2.4.3.1.7.1 1 .3 1.4.6 1.5 2.1 1.5 2.8.1.1 0 .2-.1.2z"/>
    <path class="st15" d="M32.7 13c-.1 0-.1 0 0 0-.2 0-.3-.1-.2-.2.2-1.1.4-2.3-.2-3.3-.6-1.1-1.9-1.7-3-2.3-.1-.1-.2-.2-.1-.3.1-.1.2-.1.3-.1 1.1.6 2.5 1.3 3.2 2.4.6 1.1.5 2.4.2 3.6 0 .1-.1.2-.2.2zM6 24.7c-.1 0-.1 0-.2-.1s-.1-.2 0-.3c.7-.6 1-1.6.9-2.9 0-.3-.1-.7-.1-1-.1-.7-.2-1.5-.1-2.3.2-1.5 1.1-2.9 2.9-4.5l.4-.3c.8-.7 1.7-1.5 2.1-2.5.1-.7.1-1.4.1-2.2V7.5c.1-1.6.7-3.2 1.9-4.4 0-.1.2-.1.3-.1.1.1.1.2 0 .3-1.1 1.1-1.8 2.6-1.8 4.1v1.1c0 .8.1 1.6-.2 2.4-.4 1.1-1.3 1.9-2.2 2.6l-.4.3c-1.7 1.5-2.6 2.9-2.8 4.3-.1.7 0 1.4.1 2.2.1.3.1.7.1 1.1.1 1.4-.2 2.5-1 3.2.1.1.1.1 0 .1zM3.4 36.1c-.1 0-.2-.1-.2-.2.1-1 .7-1.8 1.4-2.5.6-.7 1.1-1.4 1.3-2.1.1-.4 0-.7 0-1.1 0-.5-.1-1 .1-1.5.1-.7.6-1.2 1-1.7.4-.4.8-.8 1-1.2.2-.4.2-.9.3-1.3v-.1c.3-2.9 1.2-5.9 2.8-8.5.1-.1.2-.1.3-.1.1.1.2.2.1.3-1.5 2.6-2.5 5.5-2.7 8.4v.1c0 .5-.1 1-.3 1.4-.2.5-.7 1-1.1 1.4-.5.4-.9.9-1.1 1.4-.1.4-.1.9-.1 1.4 0 .4.1.8 0 1.2-.1.9-.8 1.6-1.4 2.3-.6.7-1.2 1.5-1.3 2.3.1 0 0 .1-.1.1z"/>
    <path class="st15" d="M8.8 28.6c-.1 0-.2 0-.2-.1-.1-.1 0-.2.1-.3 1-.6 1-1.9.9-2.3 0-.3-.1-.6-.1-.9-.1-.6-.2-1.2-.1-1.8.1-1.1.8-2 1.4-2.8.5-.7 1-1.4 1.3-2.2.3-.9.2-1.8.1-2.7-.2-1.2-.2-2.4.3-3.5.1-.1.2-.1.3-.1.1 0 .2.2.1.3-.5 1-.4 2.1-.3 3.2.1 1 .2 1.9-.1 2.9-.3.8-.8 1.6-1.3 2.3-.6.9-1.2 1.7-1.4 2.7-.1.6 0 1.1.1 1.7.1.3.1.7.1 1 .1 1.2-.3 2.2-1.2 2.6zM6.2 13.2c-.8 0-1.5-.3-1.9-.9-.4-.5-.6-1.2-.4-1.8 0-.1.2-.2.3-.1.1 0 .2.1.2.3-.2.5-.1 1.1.3 1.5s.9.7 1.5.7c.4 0 .7-.1 1.1-.2.4-.1.9-.2 1.4-.2 1-1.9 2-3.8 2.8-5.8 0-.1.2-.2.3-.1.1 0 .2.2.1.3-.9 2-1.8 4-2.9 5.9 0 .1-.1.1-.2.1-.4-.1-.9 0-1.3.1-.5.1-.8.2-1.3.2z"/>
    <path class="st16" d="M21 29.4c-.9 0-1.9-.3-2.6-.8-.2-.1-.3-.3-.5-.4-.2-.2-.4-.4-.6-.5-.1-.1-.1-.2 0-.3.1-.1.2-.1.3 0 .3.2.5.4.7.6.2.1.3.3.5.4.7.5 1.7.8 2.6.7.1 0 .2.1.3.2 0 .1-.1.2-.2.2-.2-.1-.4-.1-.5-.1zM26.2 30.1c-.1 0-.2-.1-.2-.2s.1-.2.2-.2c1.1 0 2.2-.4 3.1-1 .1-.1.2-.1.3 0s.1.2 0 .3c-1 .7-2.2 1.1-3.4 1.1zM12.5 58.2c-1.1-.2-1.9-1.1-1.8-2.1 0-.1.1-.2.3-.2.1 0 .2.1.2.2-.1.7.5 1.5 1.4 1.6.1 0 .2.1.2.2-.1.2-.1.3-.3.3zM11.4 59c-.1 0-.2 0-.3-.1v-.1c-.6-.1-1.1-.6-1.2-1.2 0-.1.1-.2.2-.2s.2.1.3.2c.1.4.5.8 1 .9.2 0 .4.1.4.3 0 .1-.1.2-.2.3l-.2-.1zm-.1-.2zM10 60h-.1c-.2-.1-.5-.2-.8-.2-.4 0-.7-.1-1-.3-.1-.2-.1-.3-.1-.4.1-.1.2-.1.3 0 .2.1.5.2.8.2.2 0 .3 0 .5.1-.3-.2-.5-.4-.7-.7-.1-.1-.1-.2 0-.3.1-.1.2 0 .3 0 .3.4.7.7 1.1.9.1 0 .1.1.1.2s0 .1-.1.2l-.1.3H10zM9.3 61.6s-.1 0 0 0c-1-.3-1.8-.9-2.5-1.5-.1-.1-.1-.2 0-.3.1-.1.2-.1.3 0 .6.6 1.4 1.1 2.2 1.4.1 0 .2.2.1.3.1 0 0 .1-.1.1zM7.5 62.6h-.1c-.6-.3-1.1-.7-1.5-1.2-.1-.1-.1-.2 0-.3 0-.1.1-.1.2 0 .4.4.9.8 1.5 1.1.1.1.1.2.1.3-.1 0-.2.1-.2.1zM42.4 71.2h-.1c-.1-.1-.1-.2 0-.3 1.6-1.8 2.3-4.4 1.7-6.6-.1-.5-.3-.9-.5-1.2-.3-.4-.6-.8-1.1-1.1-.1-.1-.1-.2 0-.3.1-.1.2-.1.3 0 .5.3.9.8 1.2 1.3.2.4.4.8.5 1.3.6 2.4 0 5-1.8 7 0-.1-.1-.1-.2-.1zM12.9 83.9s-.1 0 0 0c-.2 0-.3-.2-.2-.3.4-1.2.6-2.4.5-3.6 0-.1.1-.2.2-.2s.2.1.3.2c.1 1.3-.1 2.6-.5 3.8-.1 0-.2.1-.3.1zM14.4 84.2h-.1c-.1 0-.2-.2-.1-.3.3-.7.5-1.5.6-2.3 0-.1.1-.2.2-.2s.2.1.2.2c0 .7-.2 1.4-.4 2v.2l-.2.2c0 .2-.1.2-.2.2zM16 85c-.1 0-.1 0 0 0-.2 0-.3-.2-.2-.3.2-.7.2-1.4 0-2.1 0-.1 0-.2.2-.3.1 0 .3 0 .3.1.3.8.3 1.6 0 2.4-.1.1-.2.2-.3.2zM17.8 84.7c-.2 0-.3-.1-.2-.2.1-.5.1-1.1.1-1.6 0-.1.1-.2.2-.2s.2.1.3.2c.1.6 0 1.2-.1 1.7-.1.1-.2.1-.3.1zM19.9 85.5c-.2 0-.3-.2-.2-.3.3-.7.3-1.5.1-2.2 0-.1 0-.2.2-.3.1 0 .3 0 .3.1.2.8.2 1.7-.1 2.4-.1.2-.2.3-.3.3zM21.8 85.4c-.2 0-.2-.1-.2-.2.1-.5 0-1-.1-1.5 0-.1.1-.2.2-.2s.3 0 .3.2c.1.5.2 1.1.1 1.6 0 0-.1.1-.3.1zM24 85.3c-.2 0-.3-.1-.2-.2.2-.7.1-1.5-.3-2.1-.1-.1 0-.2.1-.3.1-.1.3 0 .3.1.4.7.5 1.6.3 2.4.1 0 0 .1-.2.1zM25.9 85.5c-.2 0-.3-.1-.2-.2.2-.6.1-1.3-.3-1.9-.1-.1 0-.2.1-.3.1 0 .3 0 .3.1.4.7.5 1.4.3 2.2 0 0-.1.1-.2.1zM28.2 85.4c-.1 0-.2-.1-.2-.2l-.3-1.6c0-.1.1-.2.2-.2s.2.1.3.2l.3 1.6c0 .1-.1.2-.3.2zM30.5 85.2c-.2 0-.2-.1-.2-.2.1-.4-.1-.9-.3-1.3-.1-.1 0-.2.1-.3.1-.1.3 0 .3.1.2.3.4.7.4 1.1.1.1.1.2.1.3l-.1.2c-.1.1-.2.1-.3.1zM32.6 84.9c-.1 0-.2 0-.2-.1l-.4-.9c-.1-.1 0-.2.1-.3.1 0 .3 0 .3.1l.4.9c0 .1 0 .2-.2.3 0-.1 0 0 0 0zM34.9 84.6c-.1 0-.2-.1-.2-.2 0-.3-.1-.6-.3-.9-.1-.1 0-.2.1-.3.1-.1.3 0 .3.1.2.3.3.7.4 1.1-.1.1-.2.2-.3.2zM37.1 84.4c-.1 0-.1 0-.2-.1 0 0-.1-.1-.1-.2 0-.4-.2-.8-.6-1-.1-.1-.1-.2-.1-.3.1-.1.2-.1.3-.1.4.2.7.6.8 1h.2c.1 0 .2.1.2.2 0 .4-.3.5-.5.5zM39.4 84.1c-.1 0-.1 0 0 0-.2 0-.2-.1-.2-.2 0-.4-.1-.8-.4-1.1-.1-.1-.1-.2 0-.3.1-.1.3 0 .3 0 .2.3.4.6.5.9.1 0 .2.2.1.3l-.1.3c-.1 0-.2.1-.2.1zM41.8 83.8c-.1 0-.2-.1-.2-.2-.1-.6-.4-1.2-.9-1.6-.1-.1-.1-.2 0-.3.1-.1.2-.1.3 0 .6.5 1 1.2 1.1 1.9-.1.1-.2.2-.3.2zM12.6 40.7c-.2 0-.3-.1-.2-.2.5-2.2 0-4.5-1.3-6.4-.1-.1 0-.2.1-.3.1-.1.3 0 .3.1 1.4 2 1.9 4.4 1.4 6.7 0 0-.1.1-.3.1zM43.1 56c-.1 0-.1 0-.2-.1-1.3-1.1-2.1-2.6-2.4-4.2 0-.1.1-.2.2-.2s.2.1.3.2c.3 1.5 1.1 2.9 2.2 4 .1.1.1.2 0 .3h-.1z"/>
    <path class="st17" d="M13.3 187.3c4.2 1 11 1.5 15.2 2.5.7.2 1.4.3 2 .2s1.3-.6 1.4-1.2c.1-.7-.5-1.2-1.1-1.6-2.7-2.1-6.1-3.3-8.7-5.6-.4-.4-.9-.8-1.4-1.1-.6-.3-1.3-.3-1.8.1-.3.2-.5.6-.7.8-.7.6-1.8.5-2.6.1-.5-.2-.9-.6-1.5-.6-.5 0-1.2.4-1 .9l.2 5.5z"/>
    <path class="st18" d="M31.7 188.9c-2.3-.5-4.7-.9-7-1.3s-4.7-.7-7.1-.9c-1.3-.1-2.7-.3-4-.4-.2 0-.2.3 0 .3 2.4.2 4.7.4 7.1.8 2.3.3 4.7.7 7 1.1 1.3.2 2.6.5 3.9.8.2-.1.3-.4.1-.4z"/>
    <path class="st18" d="M16.2 186.4c-.5-1.1-1.3-2-2.4-2.7-.2-.1-.3.1-.1.2 1 .6 1.8 1.5 2.2 2.5.1.2.4.2.3 0zM28.2 188c-.1-.5.2-1 .7-1.3.1 0 .1-.1.1-.2s-.1-.1-.2 0c-.6.3-1 1-.8 1.6-.1.1.2.1.2-.1zM23.4 185.4c.3-.4.6-.7.9-1.1.1-.1.1-.1 0-.2-.1 0-.2-.1-.2 0-.3.4-.6.7-.9 1.1-.1.1-.1.1 0 .2 0 .1.1.1.2 0zM22.6 184.7c0-.4.4-.8.8-.9.2-.1.1-.3-.1-.3-.6.2-1 .7-1 1.2 0 .1.1.1.2.1 0 .1.1 0 .1-.1zM21.5 183.9c.4-.4.7-.9.9-1.4.1-.2-.2-.2-.3-.1-.1.5-.4.9-.8 1.3-.1.1.1.3.2.2z"/>
    <path class="st17" d="M31.9 187.3c4.2 1 11 1.5 15.2 2.5.7.2 1.4.3 2 .2s1.3-.6 1.4-1.2c.1-.7-.5-1.2-1.1-1.6-2.7-2.1-6.1-3.3-8.7-5.6-.4-.4-.9-.8-1.4-1.1-.6-.3-1.3-.3-1.8.1-.3.2-.5.6-.7.8-.7.6-1.8.5-2.6.1-.5-.2-.9-.6-1.5-.6-.5 0-1.2.4-1 .9l.2 5.5z"/>
    <path class="st18" d="M50.3 188.9c-2.3-.5-4.7-.9-7-1.3s-4.7-.7-7.1-.9c-1.3-.1-2.7-.3-4-.4-.2 0-.2.3 0 .3 2.4.2 4.7.4 7.1.8 2.3.3 4.7.7 7 1.1 1.3.2 2.6.5 3.9.8.2-.1.3-.4.1-.4z"/>
    <path class="st18" d="M34.8 186.4c-.5-1.1-1.3-2-2.4-2.7-.2-.1-.3.1-.1.2 1 .6 1.8 1.5 2.2 2.5.1.2.4.2.3 0zM46.8 188c-.1-.5.2-1 .7-1.3.1 0 .1-.1.1-.2s-.1-.1-.2 0c-.6.3-1 1-.8 1.6 0 .1.2.1.2-.1zM42 185.4c.3-.4.6-.7.9-1.1.1-.1.1-.1 0-.2-.1 0-.2-.1-.2 0-.3.4-.6.7-.9 1.1-.1.1-.1.1 0 .2 0 .1.1.1.2 0zM41.2 184.7c0-.4.4-.8.8-.9.2-.1.1-.3-.1-.3-.6.2-1 .7-1 1.2 0 .1.1.1.2.1 0 .1.1 0 .1-.1zM40.1 183.9c.4-.4.7-.9.9-1.4.1-.2-.2-.2-.3-.1-.1.5-.4.9-.8 1.3-.1.1.1.3.2.2z"/>
    <path class="st19" d="M38.3 71.7c-.1 0-.1 0 0 0-1.9 0-3.9-.6-5.4-1.7-.1-.1-.1-.2 0-.3.1-.1.2-.1.3 0 1.5 1 3.3 1.6 5.2 1.6.1 0 .2.1.2.2-.1.1-.2.2-.3.2zM36.4 73c-1.5-.4-2.8-1-4.1-1.7-.1-.1-.1-.2-.1-.3.1-.1.2-.1.3-.1 1.2.7 2.6 1.2 3.9 1.6.1 0 .2.2.1.3.1.2 0 .2-.1.2z"/>
</svg>
