<svg xmlns="http://www.w3.org/2000/svg" xmlns:xlink="http://www.w3.org/1999/xlink" width="178.8" height="216.4" style="overflow:visible;enable-background:new 0 0 178.8 216.4" xml:space="preserve">
    <style>
        .st0{fill:#e15046}.st1{opacity:.43;clip-path:url(#SVGID_2_)}.st2{fill:#fff}.st3{fill:#fed5b7}.st4{fill:#7f4924}.st5{fill:#6da8c6}.st6{fill:#3c6a7c}.st7{fill:#a32b31}.st8{clip-path:url(#SVGID_4_)}.st10{clip-path:url(#SVGID_6_)}
    </style>
    <path class="st0" d="M79.8 53.1c-1.6 7.1-9.3 11.7-10.7 18.9-.7 3.6.3 7.3-.4 10.9-.9 4.7-4.6 8.4-7.8 12-7.5 8.5-13.2 18.4-16.8 29.2.4.1.8.1 1.1.2 5.2-11.3 12-21.9 20-31.5 2.2-2.6 4.5-5.2 5.6-8.4 1.6-4.7.3-9.9 1.7-14.6 1.8-6 7.9-10.4 8.6-16.7-.4-.1-.9-.2-1.3-.3v.3zM27.3 42.6c-2.6 1.6-1.8 5.6-2.6 8.5-.8 2.5-2.9 4.4-5.2 5.7s-4.9 2-7.3 3.1C7.9 62 4.1 65.3 1.9 69.6c-2.2 4.3-2.6 9.5-.9 14 .2.6.6 1.2 1.2 1.2-.6-6.2-.6-13 3.5-17.7C9.9 62.3 17 61.3 22 57.4c2.9-2.3 5.1-5.7 5.9-9.3.5-2.3.6-4.7 1.7-6.7-1.6-.2-3.2.9-3.6 2.4l1.3-1.2zm94 24.6c.2 4.6-4 8.2-8.2 9.8-4.3 1.6-9 2.1-13 4.2-3.2 1.7-5.8 4.4-7.4 7.6-2.1 4.3-2.4 9.4-4.3 13.8-1.4 3.3-3.7 6.2-5.2 9.5s-2 7.5.2 10.4c.7-.1 1.3-.3 2-.4-1.7-2.8-1.2-6.5.1-9.5s3.5-5.6 5.2-8.4c1.8-3.1 3.1-6.5 3.7-10 .5-2.8.6-5.9 2.3-8.2 2.2-3 6.2-3.8 9.7-4.8 3.3-.9 6.4-2.1 9.4-3.7 2.2-1.1 4.4-2.5 5.7-4.6 1.3-2.1 1.4-5.1-.4-6.8l.2 1.1z"/>
    <defs>
        <path id="SVGID_1_" d="M77.8 59.7c-6.7-13.5-22.3-22.1-37.3-20.5-8.1.9-15.7 4.4-23.1 7.9 28.5-19.9 62.8-29.4 94.2-44.2 1.9 14.7 10.9 27.7 12.6 42.5.4 3.8.3 7.7.1 11.5-.5 7.3-1.5 14.6-3.1 21.7 1.7-6.2-1.3-13-6.3-16.9-5-4-11.6-5.5-18-5.4-6.5.1-12.7 1.7-18.9 3.3l-.2.1z"/>
    </defs>
    <use xlink:href="#SVGID_1_" style="overflow:visible;fill:#6da8c6"/>
    <clipPath id="SVGID_2_">
        <use xlink:href="#SVGID_1_" style="overflow:visible"/>
    </clipPath>
    <g class="st1">
        <path class="st2" d="M37.3 32.4c16.8-2.3 34.6 6.8 42.5 21.9 17.7-4.7 37.2-2 52.9 7.5.4-2.2.8-4.5 1.2-6.7-16.5-8.3-36.2-9.9-53.8-4.2-1.2-5.4-4.7-10-8.9-13.6-4.2-3.5-9.3-6-14.3-8.2-5.1-2.2-10.6-4.2-16.1-3.4l-3.5 6.7z"/>
    </g>
    <g class="st1">
        <path class="st2" d="M56 20.5C68.3 22.2 79.5 30.6 84.6 42c15.3-5 32.8-2.9 46.6 5.4-.5-2.6-.5-5.2-.3-7.8-4.2-.7-8.2-2.2-12.2-3.3-10.7-2.9-22.2-2.9-32.9 0-4.6-10.3-14.6-18-25.8-20l-4 4.2z"/>
    </g>
    <g class="st1">
        <path class="st2" d="M74.1 14.2C81.6 17 87.7 23.4 90.2 31c12.1-3 25.4-1 36.1 5.4-.2-2.1-.5-4.2-.7-6.3-10.2-3.7-21.3-5.1-32.1-3.9-.4-4.9-4.8-8.3-8.8-11.2-3.5-2.4-6.9-4.8-10.4-7.3l-.2 6.5z"/>
    </g>
    <g class="st1">
        <path class="st2" d="M88.4 9.2c4 2.3 7.3 5.5 9.6 9.5.2.3.4.6.7.8.5.3 1.1.2 1.6.1 6.8-.9 13.9.6 19.8 4.2-.9-2.3-1.6-4.6-1.8-7.1-4.9-.1-9.9-.3-14.8-.6-.4 0-.8-.1-1.1-.2-.6-.3-1-1-1.3-1.6-3.2-5.6-8.7-9.8-14.9-11.4l2.2 6.3z"/>
    </g>
    <g class="st1">
        <path class="st2" d="M101.3 3.9c2.6 2.1 4.4 5.2 4.9 8.6 4 0 7.9.9 11.4 2.8-.7-2.2-1.3-4.4-2-6.6-.1-.2-.1-.4-.3-.5-.2-.1-.4 0-.5 0-1.5.4-3.1.8-4.6 1.2-.3.1-.7.2-1 0-.3-.2-.4-.6-.5-1-.7-2.7-2.7-4.8-5.1-6.2-2.4-1.4-5.1-2-7.9-2.3l5.6 4z"/>
    </g>
    <path class="st0" d="M148.3 104.1c-2.4-2-6-2.4-8.8-1-.7.3-1.4.8-1.9 1.3-.7.7-1.3 1.4-2 2-1.1.9-2.5 1.3-3.9 1.5-1.4.2-2.9.3-4.3.5-1.3.2-2.7.5-3.8 1.3-.6.4-1.1.9-1.4 1.5-.5.8-.7 1.6-1 2.5-.2.9-.4 1.8-.6 2.6-.2.8-.6 1.5-1 2.2-1.6 2.8-4.3 4.9-7.4 5.8l-1.2.3c-.3 0-.1.4.1.4 3.2-.5 6-2.4 7.9-4.9 1-1.3 1.7-2.8 2.1-4.3.4-1.7.6-3.5 1.8-4.9.9-1 2.1-1.5 3.4-1.8 1.4-.3 2.8-.4 4.2-.6 1.4-.2 2.8-.4 4.1-1 .7-.3 1.3-.8 1.9-1.3.7-.6 1.2-1.4 2-1.9 2.4-1.9 6-2 8.7-.5.3.2.6.4.9.7.1 0 .4-.2.2-.4z"/>
    <path class="st0" d="M148.3 102.5c-3.1-.9-6.7 0-9 2.4-.5.5-.9 1.1-1.5 1.5-.7.5-1.5.7-2.4 1-3 .8-6.2 2-7.7 4.7-1.1 1.9-1.2 4.2-2.5 6-.6.9-1.5 1.6-2.4 2.3-3 2.4-5.7 5.4-6.9 9.1-1.2 3.7-.4 8.2 2.6 10.6 1.8-.7 4.2.3 4.9 2.1.7 1.8-.3 4.2-2.2 4.8 1.9.4 3.9-.1 5.5-1.2 1.1-.8 2.3-2 3.6-1.5 1 .4 1.4 1.6 1.4 2.7s-.3 2.2 0 3.2c.4 1.8 2.5 3 4.3 2.4-1.4-1.4-.1-4 1.7-4.8 1.8-.8 3.9-.6 5.9-1.1 3.5-.8 6.4-3.7 7.1-7.2.6-2.8 0-6.1 2-8.1 1.4-1.5 3.7-1.8 5.3-3.1 2.2-1.7 2.6-5.3.9-7.5-.5-.6-1.1-1.1-1.4-1.7-1.6-2.7.9-6.3-.2-9.2-.8-2-2.8-3.1-3.8-5-1.2-1.9-4.1-2.1-5.2-2.4z"/>
    <path class="st3" d="M148.5 136.3c10.2-5.6 17.6-13.9 21.7-24.8-.6-1.9-.7-4-.2-5.9.1-.6 1.1-.6 1.1.1l.3 2.3c.8-2.1 1.7-4.1 2.7-6 .3-.5 1-.2.9.3-.3 1.5-.8 2.9-1.4 4.3.6-1.9 1.5-3.7 2.7-5.3.3-.4.9-.2.9.3-.2 1.6-.7 3.2-1.6 4.6.2-1.1.7-2.2 1.3-3.2.3-.4 1-.2.9.3-.2 1.4-.7 2.8-1.4 4.1.3-1 .8-2 1.5-2.9.3-.3.8-.2.8.2.1.6-.1 1.3-.3 1.9-1.5 4-3.2 6.5-4.6 10.5-1.9 5.3-8.3 16.3-9 17-.9.8-9.7 10.6-16.4 12.8.1-3.4-.1-2.4.4-5.7l-.3-4.9z"/>
    <path class="st4" d="M171.1 107.5c-.1.7.4 1.2.8 1.7.2.3.4.6.4 1s-.1.8-.3 1.2c-.1.2.3.5.4.2.3-.7.5-1.6.1-2.3-.2-.3-.4-.6-.6-.8-.2-.2-.4-.5-.3-.9 0-.1 0-.2-.1-.3-.3 0-.4.1-.4.2zm3.3-3.8c-.2 1-.4 2-.8 2.9 0 .1 0 .2.1.3.1 0 .2 0 .3-.1.4-.9.6-1.9.8-2.9.1-.4-.3-.5-.4-.2zm2.1-.6c-.3 1.4-.9 2.8-1.6 4.1-.1.2.2.4.4.2.8-1.3 1.3-2.7 1.7-4.2-.1-.2-.5-.4-.5-.1zm.8 2c-.4.8-.6 1.7-.8 2.5 0 .3.3.4.4.1.2-.8.4-1.7.8-2.4 0-.1 0-.2-.1-.3-.1 0-.2 0-.3.1z"/>
    <path class="st4" d="M172.6 106.4c1.4.7 2.8 1.4 4.1 2.3.2.1.4-.2.2-.4-1.3-.9-2.7-1.6-4.1-2.3-.2 0-.4.3-.2.4zm2.8 2c-.3.4-.6.9-.8 1.3.1 0 .1-.1.2-.1-.9.1-1.6 1-1.3 1.8.1.3.5.1.4-.1-.2-.6.3-1.3.9-1.3.1 0 .1 0 .2-.1.2-.5.5-.9.8-1.3.1-.1 0-.2-.1-.3-.1-.1-.3 0-.3.1zm-4.3 5.4c.4.1.7.3 1.1.4.1 0 .2 0 .3-.1 0-.1 0-.2-.1-.3-.4-.1-.7-.3-1.1-.4-.1 0-.2 0-.3.1 0 .2 0 .3.1.3zm-6.3 12.9c-.4.8-.9 1.7-1.3 2.5-.1.2.2.4.4.2.4-.8.9-1.7 1.3-2.5.1-.3-.3-.5-.4-.2z"/>
    <path class="st3" d="M154.9 108.1c.7 2 2.2 6.1 2.2 6.1h3.3l-2 2.5s.3 2.3.6 3.4.4 2.4-.3 3.4c-1 1.5-3.1 1.6-5 1.5 0 .1 1.3 5.9 1.7 8.4-2.9 1.2-9.7-4-9.8-4.5-.2-2.6-1-5.6-1.1-8.2-1.4 1.4-4.2.7-4.8-1.2-.6-1.9 1.4-4.1 3.4-3.6-.3-1.8-.4-3.6-.2-5.4l12-2.4z"/>
    <path class="st5" d="M154.9 141.8c1.1.4 2.4.3 3.5-.2s2.1-1.2 3-1.9c1.2-.9 2.4-1.8 3.2-3.1 1-1.5 1.6-3.6 3.2-4.5-2-2.4-3.9-4.8-5.9-7.2-.6.9-1.6 1.3-2.5 1.8-2.2 1.3-3 3.6-5.6 5.1l-.3 4.4 1.4 5.6z"/>
    <path class="st3" d="M150.1 174.1c2.5 3.9 5.2 7.7 8.1 11.3-2.8 7.9-.6 16.7 2.3 24.6.1.3.2.6.5.8.3.2.6.2 1 .2 1.9 0 3.9-.5 5.6-1.3 0-5.5.1-10.9.1-16.4 0-3 0-6.1-.5-9.1-1.2-6.7-4.9-12.7-8.6-18.4-2.7 1.7-5.3 3.6-7.8 5.6l-.7 2.7zm-26 1.7-2.4 8.1c-1.8-3.8-5.4-6.4-8.9-8.8-.1-.1-.3-.2-.4-.1-.2 0-.3.2-.3.3-.6 1-1.2 1.9-1.9 2.9-.2.3-.4.6-.4 1 0 .3.1.6.3.9 2.1 4.5 4.2 9 7.4 12.7 1.4 1.6 3.1 3 5.2 3 2.6 0 4.6-2.1 6.1-4.2 2.5-3.5 4.6-7.4 6.2-11.4-2.7-2-5.8-3.5-9.1-4.3l-1.8-.1z"/>
    <path class="st5" d="M161.5 216.4c3.3 0 6.7-.3 10-.7 2-.3 4.3-.9 5.1-2.7-2.5-.8-5.1-1.5-7.6-2.3-.3-1.4-.5-2.8-.8-4.2 0-.2-.1-.5-.3-.6-.2-.2-.5-.1-.8-.1-2.5.5-4.9 1-7.4 1.4l1.3 8.4.5.8zm-16-89.3c2.2 2.9 5.8 4.7 9.5 4.8.3 0 .7 0 1 .2.3.1.4.4.6.6 1.9 2.7 2.5 6.2 2.4 9.5-.1 3.3-.9 6.6-1.8 9.8-.7 2.6-1.5 5.4-3.5 7.2-1.9 1.7-4.5 2.3-7 2.6-2.9.4-5.9.4-8.4-.9-.7-.4-1.4-.8-1.7-1.5-.4-.8-.4-1.7-.4-2.5v-16.4c0-1.8 0-3.6.5-5.4.8-2.7 2.7-5 5.3-6.1l3.5-1.9z"/>
    <path class="st6" d="M78.8 58.3c2.9-2.7 5.6-5.5 8.2-8.4 2.6-2.9 5-6 7.3-9.2 2.3-3.2 4.4-6.5 6.4-9.8 2-3.4 3.8-6.9 5.4-10.5 1.7-3.8 3.4-7.7 3.7-11.9 0-.5.1-1.1.1-1.6 0-.3-.4-.3-.4 0 0 4.3-1.5 8.3-3.2 12.2-1.6 3.5-3.3 7-5.2 10.4-1.9 3.4-4 6.7-6.2 9.8-2.3 3.2-4.7 6.3-7.2 9.2-2.5 2.9-5.2 5.7-8 8.4-.3.3-.7.7-1.1 1-.3.3 0 .5.2.4z"/>
    <path class="st3" d="M135.6 102.5c-4.7 10.8-4.3 23.5.8 34.1 1.6 3.3 6.1 2.1 7-1.4 1.2-4.5-.3-6.6-1.6-8.4-1-1.3-1.8-3.5-2.4-5-.9-2.3.5-5.6.5-8.1 0-3.4-.1-7.1-.1-10.5 0-1.1-.2-4.3 0-5.5.3-2.4-.8-4.7-1.9-6.8-.8.8-.5 2.1-.4 3.2.2 2.6-1.2 5.3-3.5 6.6l1.6 1.8z"/>
    <path class="st7" d="M137.6 93c-.6-2.4-3.1-3.6-5.4-4.6-1.1.1-2 1.1-1.9 2.2.1 2 0 4-.2 5.9-.2 1.1-.3 2.2.2 3.1.3.5.8.8 1.3 1.1.9.6 1.7 1.1 2.6 1.7.6.4 1.4.8 2.1.1.2-.2.4-.5.5-.9.6-2.3.9-4.6.9-7 0-.3 0-1-.1-1.6zm-1.3 1.7c.1 1.6.1 3.3-.4 4.8-.2.5-.5 1.1-1 1.1-.3 0-.5-.1-.8-.2-1.1-.5-2.4-1.2-2.6-2.4-.1-.5.1-1 .2-1.5.5-2 .8-6.3.8-6.2 1-.6 2.4-.1 3 .8.7 1.1.8 2.4.8 3.6zm6.7 33.4c3.9 6.8 4.5 15.3 1.6 22.5-.4 1-.9 2.1-1.9 2.5-.8.3-1.7.2-2.5-.2-2.7-1.4-4-4.6-4.1-7.7-.6 3.5-13.3 24.4-15.5 32.4 3.7 2.2 7.5 4.3 11.4 6.2 2.3 1.1 4.7 2.3 7.2 2 1.3-.1 2.6-.7 3.9-.9 3.5-.7 7 .4 10.6.4 5.3-.1 10.4-3.1 13.1-7.7-4.2-9.4-5.3-29.1-5.9-33.8-.6-4.7-1.6-10.3-5.2-13.4-.3.4-.7.8-.7.8 1.8 2 1.6 5.8 1.4 8.5-2.1-.3-4.1-.6-6.2-.8-.3 0-.7-.1-.9-.3-.3-.2-.5-.6-.6-1-1.2-3.6-.8-6.1-4-10.1l-1.7.6z"/>
    <defs>
        <path id="SVGID_3_" d="M161.5 216.4c3.3 0 6.7-.3 10-.7 2-.3 4.3-.9 5.1-2.7-2.5-.8-5.1-1.5-7.6-2.3-.3-1.4-.5-2.8-.8-4.2 0-.2-.1-.5-.3-.6-.2-.2-.5-.1-.8-.1-2.5.5-4.9 1-7.4 1.4l1.3 8.4.5.8z"/>
    </defs>
    <clipPath id="SVGID_4_">
        <use xlink:href="#SVGID_3_" style="overflow:visible"/>
    </clipPath>
    <g class="st8">
        <path class="st2" d="M160.7 215c2.3-.1 4.6-.2 6.8-.4 2.3-.2 4.6-.4 6.8-.9 1.3-.3 2.5-.6 3.7-.9.3-.1.1-.5-.1-.4-2.2.7-4.4 1.1-6.6 1.4-2.3.3-4.5.5-6.8.6-1.3.1-2.6.1-3.8.2-.2 0-.2.4 0 .4z"/>
    </g>
    <g class="st8">
        <path class="st2" d="M173.7 210.9c-1.1.6-1.9 1.7-2.1 3 0 .3.4.4.4.1.2-1.1.9-2.1 1.9-2.7.3-.2.1-.5-.2-.4z"/>
    </g>
    <g class="st8">
        <path class="st2" d="M159.5 213.1c1.3-.1 2.6.5 3.4 1.5.2.2.5-.1.3-.3-.9-1.1-2.3-1.7-3.7-1.6-.3 0-.3.4 0 .4z"/>
    </g>
    <path d="M162.4 208.4c-.2.3-.3.8-.3 1.2.2.7 1.1 1.2 1.8.8.7-.4.8-1.4.3-1.9s-1.6-.4-1.9.3l.1-.4z" style="clip-path:url(#SVGID_4_);fill:#fff"/>
    <g class="st8">
        <path class="st2" d="M167.3 212.1c.9-1.5 2.1-2.6 3.6-3.4.2-.1 0-.5-.2-.4-1.6.8-2.9 2-3.8 3.5-.1.3.2.5.4.3z"/>
    </g>
    <g class="st8">
        <path class="st2" d="M168 212.7c1.1-1 2.3-1.9 3.6-2.8.2-.1 0-.5-.2-.4-1.3.9-2.5 1.8-3.6 2.9-.3.2 0 .5.2.3z"/>
    </g>
    <defs>
        <path id="SVGID_5_" d="M110.4 171c-2.7 1.9-5.4 4-7.8 6.2-1.5 1.4-3 3.1-2.7 5.1l7.5-2.4 3 3c.2.2.4.4.6.4.3 0 .5-.2.7-.4 1.8-1.8 3.6-3.6 5.3-5.4l-5.8-6.2-.8-.3z"/>
    </defs>
    <use xlink:href="#SVGID_5_" style="overflow:visible;fill:#6da8c6"/>
    <clipPath id="SVGID_6_">
        <use xlink:href="#SVGID_5_" style="overflow:visible"/>
    </clipPath>
    <g class="st10">
        <path class="st2" d="M111.8 171.7c-1.8 1.4-3.7 2.7-5.5 4.1-1.8 1.4-3.5 2.9-5.1 4.6-.9.9-1.8 1.9-2.6 2.9-.2.2.1.5.3.3 1.4-1.8 3-3.4 4.7-4.9 1.7-1.5 3.5-2.9 5.3-4.3 1-.8 2.1-1.5 3.1-2.3.3-.2.1-.6-.2-.4z"/>
    </g>
    <g class="st10">
        <path class="st2" d="M103.4 182.4c.6-1.2.6-2.5 0-3.7-.1-.2-.5 0-.4.2.5 1 .5 2.2 0 3.2-.1.4.3.6.4.3z"/>
    </g>
    <g class="st10">
        <path class="st2" d="M113.9 172.6c-1 .8-2.4 1-3.6.7-.3-.1-.4.3-.1.4 1.4.4 2.9.1 4-.8.2-.2-.1-.5-.3-.3z"/>
    </g>
    <path d="M114.2 178.1c0-.4-.2-.8-.4-1.1-.5-.5-1.6-.4-1.9.3-.3.7.1 1.6.9 1.7.7.1 1.5-.6 1.4-1.3v.4z" style="clip-path:url(#SVGID_6_);fill:#fff"/>
    <g class="st10">
        <path class="st2" d="M108.1 177.8c.1 1.7-.3 3.4-1.1 4.8-.1.2.2.4.4.2.9-1.5 1.3-3.3 1.2-5-.1-.3-.6-.3-.5 0z"/>
    </g>
    <g class="st10">
        <path class="st2" d="M107.1 177.7c-.4 1.5-.8 2.9-1.4 4.4-.1.2.3.4.4.1.6-1.4 1-2.9 1.4-4.4.1-.3-.3-.4-.4-.1z"/>
    </g>
    <path class="st4" d="M164.6 182.6c.4.5.5 1.2.2 1.8-.1.2.2.4.4.2.4-.8.3-1.7-.3-2.3-.1-.1-.2-.1-.3 0-.1.1-.1.2 0 .3zm-43.4 10.6c.6.8 1.6 1.2 2.6 1 .3-.1.1-.5-.1-.4-.8.2-1.6-.1-2.1-.8-.2-.2-.6 0-.4.2zm.5-8.9c.2 1 .4 1.9.6 2.9.1.3.5.1.4-.1-.2-1-.4-1.9-.6-2.9-.1-.3-.5-.2-.4.1zm37.3 2.3c.5-.4 1-.7 1.5-.9.1 0 .2-.1.1-.3 0-.1-.1-.2-.3-.1-.6.3-1.2.6-1.7 1-.1.1-.1.2 0 .3h.4zm-22.9-65.1c.5.1.9.3 1.4.4.1 0 .2 0 .3-.1 0-.1 0-.2-.1-.3-.5-.1-.9-.3-1.4-.4-.1 0-.2 0-.3.1-.1.2 0 .3.1.3zm5.5-3.9c.8.4 1.4 1.1 1.8 1.9 0 .1.1.2.3.1.1 0 .2-.1.1-.3-.4-.9-1-1.7-1.9-2.2-.3.1-.5.4-.3.5z"/>
    <path class="st4" d="M141.9 118.8c.3 0 .6.1.9.1h.2l.1-.1c0-.1 0-.2-.1-.3-.3 0-.6-.1-.9-.1h-.2l-.1.1c0 .2 0 .3.1.3z"/>
    <path class="st3" d="M133.1 99.3c.7.6 1.4 1.1 2.2 1.5.4.2 1 .4 1.3 0 .3-.4 0-.9-.3-1.2-.5-.5-1.1-.9-1.8-1.2.4.6 1.3.9 2 .8.3-.1.7-.3.6-.6 0-.2-.1-.3-.2-.4-.4-.6-1-1-1.6-1.4.4.3.8.6 1.3.8.1.1.3.1.4.1.3-.1.4-.5.3-.8-.1-.7-.5-1.3-1.2-1.7.5.4 1.2.7 1.9.6.1-1.1-.8-1.9-1.7-2.5-.4-.3-.7-.5-1.2-.5-.4 0-.9.5-.7.9-.6-.2-1.2.1-1.5.7-.3.5-.1 1.2.4 1.6-.3 0-.6.1-.9.1-.1.6.1 1.3.5 1.7-.4.1-.7.5-.7.8.2.3.5.7.9.7z"/>
    <path class="st5" d="M145.2 134.3c.7-5.6-2.5-8.8-3.8-10.6-.7-1-1.6-2-1.4-3.2-3.3.1-6.6.6-9.8 1.4.9 1.8.6 3.9.5 5.9-.2 3.2.1 6.5 1.5 9.3 1.4 2.9 4 5.3 7.1 5.8.4.1.7.1 1-.1.3-.2.4-.5.5-.7.8-1.6 1.5-3.2 2.3-4.8l2.1-3z"/>
    <path class="st6" d="M161.3 127c.5.2.9.7 1.2 1.1.4.5.7 1.1 1.1 1.6.8 1.1 1.6 2.3 2.3 3.4.1.2.5 0 .4-.2-.8-1.2-1.6-2.4-2.4-3.5-.4-.5-.7-1.1-1.1-1.6-.3-.5-.8-.9-1.3-1.1-.2-.1-.4.2-.2.3zm-30.1-3.5c2.7-.3 5.4-.7 8.1-1 .3 0 .3-.4 0-.4-2.7.3-5.4.7-8.1 1-.2 0-.3.4 0 .4zm13.3 10.8c-.6 2.3-1.7 4.5-3.2 6.4-.2.2.1.5.3.3 1.6-1.9 2.7-4.2 3.3-6.5 0-.4-.4-.5-.4-.2z"/>
    <path class="st6" d="M143.8 137.7c-.4 1.2-.9 2.4-1.3 3.6-.1.2.3.4.4.1.4-1.2.9-2.4 1.3-3.6.1-.2-.3-.3-.4-.1z"/>
    <path style="opacity:.45;fill:#7f4924" d="m153.7 124.9-6.2.1 6.6 1.6z"/>
    <path class="st2" d="M154.8 118.3c.8.9 2.5 1.5 3.3 1.1l-.2-1.8-3.1.7z"/>
    <path class="st4" d="M154.7 118.5c.5.5 1.1.9 1.7 1.1.6.2 1.2.3 1.8.1.1 0 .2-.1.2-.2-.1-.6-.1-1.2-.2-1.8 0-.1-.1-.2-.3-.2-.9.2-1.8.4-2.8.6-.1 0-.3.1-.4.1-.3.1-.1.4.1.4.9-.2 1.8-.4 2.8-.6.1 0 .3-.1.4-.1-.1-.1-.2-.1-.3-.2.1.6.1 1.2.2 1.8l.2-.2c-.5.2-1.1.1-1.6-.1-.6-.2-1.2-.5-1.6-1-.1-.2-.4.1-.2.3z"/>
    <path d="M153.5 114.9c.1.5-.1 1-.5 1-.3 0-.7-.3-.8-.8s.1-1 .5-1c.3-.1.7.3.8.8z"/>
    <path class="st4" d="M153.8 111.1c.1.8-.6 1.5-1.4 1.6-.8.1-1.5.4-2.1.9.3-1.5 1.9-2.6 3.5-2.5z"/>
    <path class="st0" d="M142.3 115.5c1.1-.1 2.1-1 2.6-1.9.6-1 .8-2.1 1.1-3.2 1.3.9 3.2.8 4.4-.2.2-.2.4-.4.6-.4.3 0 .5.1.8.2 1.2.5 2.8-.1 3.3-1.3s-.5-2.8-1.8-2.9c-.9 0-1.7.5-2.6.7-1 .2-1.9-.2-2.9-.4-1.2-.3-2.5-.4-3.7-.1-1.2.3-2.4 1.1-2.9 2.2-.5.9-.6 2.1-1 3-.3.8-.8 1.4-1.1 2.2-.4 1.3-.2 2.7.7 3.7.2.2.3.4.6.4.4.1.8-.1 1.1-.3.9-.6 1.6-1.3 2.2-2.2l-1.4.5z"/>
    <path class="st0" d="M145 113c-.7.8-.8 2-.2 2.9.7 1 2 1.3 2.8 2.2.9.9 1.2 2.3.7 3.5.2-1.1-.8-2-1.9-2.4-1-.4-2.2-.5-3.1-1.1-1-.6-1.6-1.7-1.8-2.8-.2-1.1-.1-2.3.2-3.4l3.3 1.1z"/>
    <path class="st7" d="M127.7 116.7c0 .7 0 1.4-.3 2-.2.7-.7 1.2-1.2 1.6-.6.4-1.2.7-1.9 1-.6.3-1.2.7-1.7 1.1-1.1.8-2 1.8-2.7 3-.6 1.1-1 2.4-.9 3.7.1 1.4.6 2.8 1.6 3.8.2.2.5-.1.3-.3-1.8-1.7-1.8-4.7-.7-6.8.6-1.2 1.6-2.2 2.7-3 .5-.4 1.1-.8 1.7-1.1.6-.4 1.3-.6 1.9-1 .6-.4 1.1-1 1.4-1.7.3-.7.3-1.5.3-2.3-.1-.2-.5-.2-.5 0z"/>
    <path class="st7" d="M124 127.3c-.9.4-1.4 1.4-1.3 2.4.1 1 .8 1.8 1.7 2 .3.1.4-.3.1-.4-.8-.2-1.4-.9-1.5-1.7-.1-.8.4-1.6 1.1-2 .3 0 .1-.4-.1-.3zm20.5-21c-.2 1 .5 2.1 1.5 2.4 1 .3 2.1-.3 2.5-1.3.2-.5.2-1.2-.2-1.5-.4-.3-1-.2-1.1.3-.1.6.4 1 .9 1.3.4.2.9.4 1.4.4 1.1.1 2.2-.4 2.8-1.3.2-.2-.2-.4-.4-.2-.9 1.2-2.8 1.4-4 .5-.2-.1-.4-.3-.4-.5s.2-.2.3-.2c.4.1.4.7.3 1-.2.8-1.1 1.3-1.9 1.2-.9-.1-1.6-1.1-1.4-2 .2-.2-.2-.3-.3-.1zm-2.2 2.7c-.8.5-1.6 1.1-2.2 1.9-.4.7-.6 1.6-.3 2.4.1.4.4.8.8 1 .2.1.4-.2.2-.4-.8-.5-.9-1.6-.6-2.4.4-1 1.4-1.7 2.3-2.2.3-.1 0-.4-.2-.3z"/>
    <path class="st7" d="M141.9 111.8c-.3.2-.4.6-.3.9.1.3.3.6.6.8.1 0 .2 0 .3-.1 0-.1 0-.2-.1-.3l-.1-.1v-.6l.1-.1c.1-.1.1-.2 0-.3-.3-.3-.4-.2-.5-.2zm-.3-6.6c-1.2.4-1.9 1.9-1.3 3.1.1.2.5 0 .4-.2-.4-.9.1-2.2 1.1-2.5.2 0 .1-.4-.2-.4zM127.2 132c0 1-.2 2-.4 3-.3 1-.6 1.9-1 2.8-.3.8-.7 1.7-.5 2.6.1.8.6 1.4 1.3 1.9.7.5 1.6.6 2.4.7.3 0 .3-.4 0-.4-1.4-.1-3.1-.7-3.3-2.3-.1-.9.2-1.7.6-2.5.4-.8.7-1.7 1-2.6.3-1 .4-2.1.5-3.2-.2-.2-.6-.2-.6 0z"/>
    <path class="st7" d="M128.6 138c0 1 .6 2 1.5 2.6.2.1.4-.2.2-.4-.7-.5-1.2-1.3-1.3-2.2 0-.3-.4-.3-.4 0zm5.7 3.5c.6.8.9 1.7.9 2.7 0 .3.4.3.4 0 0-1.1-.3-2.2-1-3-.2-.2-.4.1-.3.3z"/>
    <path d="M149.8 141c2.6.1 5.1.4 7.6.9l-.1-.1c.2 1.4-.9 2.8-2.2 3.1-1.5.4-3.1-.4-3.9-1.7-.5-.7-.7-1.6-.8-2.4 0-.3-.4-.3-.4 0 .1 1.7 1 3.4 2.6 4.2 1.5.7 3.4.5 4.5-.8.6-.7.8-1.6.7-2.5 0-.1-.1-.1-.1-.1-2.6-.4-5.1-.7-7.7-.9-.4-.1-.4.3-.2.3zm-3.3 20.6c.1 2.7-.2 5.4-.7 8.1-.4 2.7-1 5.4-1.4 8.1-.1.7-.2 1.5-.3 2.3-.1.6-.1 1.2.4 1.6.1.1.3.1.3-.1 1.1-3.8 2.1-7.6 2.7-11.5.2-1.1.4-2.2.5-3.3h-.4c.6 4.1 0 8.2.4 12.3.1 1.1.3 2.3.6 3.4.1.3.5.1.4-.1-1.1-4-.6-8.1-.7-12.2 0-1.1-.1-2.3-.3-3.4 0-.2-.4-.2-.4 0-.5 3.9-1.3 7.8-2.3 11.6-.3 1.1-.6 2.1-.9 3.2.1 0 .2-.1.3-.1-.4-.3-.3-.9-.3-1.4.1-.7.2-1.3.3-2 .2-1.3.4-2.7.7-4 .5-2.6 1-5.3 1.3-8 .2-1.5.2-3 .2-4.5 0-.3-.4-.3-.4 0zm-13.5-2.8c-1.6 3.2-3.2 6.4-4.7 9.6-.4.9-.9 1.8-1.3 2.7-.1.2.2.4.4.2 1.6-3.2 3.2-6.4 4.7-9.6.4-.9.9-1.8 1.3-2.7.1-.2-.2-.4-.4-.2zm1.1 2.7c-1.4 3.2-2.9 6.4-4.6 9.5-.5.9-.9 1.7-1.4 2.6-.1.2.2.4.4.2 1.8-3 3.4-6.2 4.8-9.3l1.2-2.7c.1-.3-.3-.5-.4-.3zm21.8-.1c.5 3.3.9 6.6 1 9.9 0 .9.1 1.9.1 2.8 0 .3.4.3.4 0-.1-3.4-.3-6.7-.7-10-.1-.9-.3-1.9-.4-2.8-.1-.3-.5-.2-.4.1zm3.3 4.1c.1 2.4.3 4.8.5 7.2.1.7.1 1.4.2 2.1 0 .3.4.3.4 0-.3-2.4-.5-4.8-.6-7.2 0-.7-.1-1.4-.1-2.1 0-.3-.4-.3-.4 0zm-25.7-13.8c.8.2 1.4.7 1.9 1.2.6.5 1.2 1 1.9 1.4 1.5.8 3.2 1 4.9 1.2 3.8.5 7.7.6 11.5.2 2.1-.2 4.3-.5 6.4-.9.3-.1.1-.4-.1-.4-3.7.8-7.6 1.1-11.4 1.1-1.9 0-3.8-.1-5.7-.4-1.7-.2-3.4-.4-5-1.1-.8-.4-1.6-.9-2.2-1.5-.7-.6-1.3-1.1-2.2-1.4-.1.1-.2.5 0 .6z" style="fill:#6d1b23"/>
    <path class="st6" d="M136.6 142.1c.9.3 1.9.5 2.9.5.3 0 .3-.4 0-.4-1 0-1.9-.2-2.8-.5-.2-.1-.3.3-.1.4zm-2.4-18.3.3.6c.1.2.1.4.1.7 0 .1.1.2.2.2s.2-.1.2-.2c.1-.6-.1-1.1-.5-1.6-.1-.1-.2-.1-.3 0-.1.1 0 .2 0 .3zm1.2-.1c.1.3.3.7.4 1 0 .1.1.2.3.1.1 0 .2-.1.1-.3-.1-.3-.3-.7-.4-1 0-.1-.1-.2-.3-.1 0 .1-.1.2-.1.3zm2.5-.8.6 1.2c0 .1.2.1.3.1.1-.1.1-.2.1-.3l-.6-1.2c0-.1-.2-.1-.3-.1-.1.1-.1.2-.1.3zm24.6 5.5c-.3.3-.7.5-1 .8-.1.1-.1.2 0 .3.1.1.2.1.3 0 .3-.3.7-.5 1-.8.1-.1.1-.2 0-.3h-.3zm.1 1.3c-.1.2-.3.4-.4.6v.2s0 .1.1.1c.1.1.2 0 .3-.1.1-.2.3-.4.4-.6v-.2c0-.1 0-.1-.1-.1s-.2 0-.3.1zm1.7 2.9c-.2.3-.4.5-.6.8v.2s0 .1.1.1h.2c.1 0 .1 0 .1-.1.2-.3.4-.5.6-.8v-.2l-.1-.1h-.2l-.1.1zM111.7 8.7c-.2 3.5.6 7 1.7 10.2 1.2 3.4 2.7 6.7 4 10 1.4 3.5 2.5 7 3.1 10.7.6 3.9.7 7.9.4 11.9-.2 4-.7 8-1.3 11.9-.1.5-.1 1-.2 1.5 0 .3.4.4.4.1.5-3.9 1.1-7.9 1.4-11.9.3-3.9.3-7.9-.1-11.9-.2-2-.6-3.9-1.1-5.8-.5-1.8-1.1-3.5-1.7-5.2-1.3-3.4-2.8-6.6-4.1-10-1.2-3.3-2.2-6.7-2.2-10.3V8.6c.1-.2-.3-.2-.3.1zm-8.2-.7c-3.9 2.6-8 4.8-12.3 6.7-4.3 1.9-8.7 3.5-13.2 5.1-4.4 1.6-8.9 3-13.3 4.7-4.4 1.6-8.7 3.3-12.8 5.4-4.1 2.1-8.1 4.5-11.7 7.3-.4.4-.9.7-1.3 1.1-.2.2.1.5.3.3 3.5-3 7.5-5.5 11.6-7.6 4.1-2.2 8.4-3.9 12.8-5.6 4.4-1.6 8.8-3.1 13.3-4.7 4.4-1.5 8.8-3.1 13.1-5 4.3-1.8 8.4-3.9 12.4-6.4.5-.3.9-.6 1.4-.9.2-.2 0-.5-.3-.4zM131 96.2c-.9-.4-1.6-1-2.3-1.7 0 .1-.1.2-.1.3 1.1-.4 2.4-.3 3.4.3.1-.1.1-.3.2-.4-1.1-.2-2.1-.7-2.8-1.6v.3c1-.6 2.3-.5 3.1.3.1-.1.1-.2.2-.3-.9-.3-1.7-.9-2.3-1.8 0 .1 0 .2-.1.3.6-.4 1.3-.4 1.9 0 .1-.1.1-.2.2-.4-.4-.2-.9-.4-1-.8-.1-.2 0-.4.1-.5.1-.1.2-.2.4-.2.2.1.4-.2.2-.4-.6-.3-1.1.3-1.1.9 0 .7.7 1.1 1.3 1.3.2.1.4-.2.2-.4-.7-.5-1.6-.5-2.3 0-.1.1-.1.2-.1.3.6.9 1.5 1.6 2.5 1.9.2.1.3-.2.2-.3-.9-.9-2.5-1.1-3.6-.4-.1.1-.1.2 0 .3.7.9 1.8 1.5 2.9 1.7.2 0 .4-.2.2-.4-1.1-.7-2.5-.8-3.7-.4-.1.1-.2.2-.1.3.7.8 1.5 1.4 2.4 1.8.1.5.3.1.1 0z"/>
    <path class="st6" d="M131.9 92.9c-2.4-.1-4.5-1.5-6.5-2.7-2.3-1.4-4.5-2.8-6.8-4.1-2.1-1.3-4.2-2.5-6.1-4-.9-.7-1.7-1.4-2.5-2.2-.7-.7-1.4-1.5-2.1-2.2-.7-.7-1.5-1.3-2.4-1.8-.9-.4-1.7-.8-2.6-1.2-1.9-.8-3.8-1.7-5.6-2.7-1.9-1-3.7-2.1-5.4-3.3-1.6-1.2-3-2.6-4.2-4.1-1.2-1.4-2.3-2.9-3.7-4.1-.6-.5-1.3-1-2.1-1.4-.4-.2-.8-.3-1.2-.4-.4-.1-.9-.1-1.3-.2-.1 0-.2 0-.3-.1l-.1-.1c-.1-.1 0 0 0 0h.1v-.1c-.2.2.1.5.3.3.2-.2.1-.5-.2-.6-.3-.1-.6.1-.6.4 0 .4.5.6.8.7.5.1.9.1 1.4.2 1.8.5 3.2 1.8 4.5 3.2 1.3 1.4 2.4 3 3.8 4.4 1.5 1.6 3.3 2.9 5.1 4 1.9 1.2 3.9 2.2 5.9 3.2 1 .4 1.9.9 2.9 1.3.9.4 1.9.8 2.8 1.3 1.8 1.1 3.1 2.9 4.6 4.4 1.8 1.7 3.9 3.1 6 4.4 2.3 1.4 4.7 2.9 7 4.3 1.1.7 2.2 1.4 3.4 2 1.1.6 2.2 1.2 3.3 1.5.6.2 1.2.2 1.7.3.4-.1.4-.6.1-.6z"/>
    <path class="st6" d="M119.4 64.7c-2.6.9-5.1 1.9-7.6 3.1-2.5 1.1-4.9 2.4-7.3 3.6-1.4.7-2.7 1.5-4 2.2-.2.1 0 .5.2.4 2.4-1.3 4.7-2.6 7.2-3.9 2.4-1.2 4.9-2.4 7.4-3.4 1.4-.6 2.8-1.1 4.3-1.6.2-.1.1-.5-.2-.4z"/>
    <path class="st6" d="M100.5 73.7c-2.5-4.1-6.1-7.2-9.7-10.3-4.1-3.5-8.1-7.1-12.2-10.6-2-1.8-4.1-3.5-6.1-5.3-1.9-1.6-3.7-3.3-5.7-4.9-1.8-1.4-3.8-2.7-6-3.6-2.2-.9-4.5-1.3-6.8-1.4-2.3-.1-4.7.1-7 .4l-3.6.6c-.6.1-1.2.2-1.7.4-.6.1-1.3.3-1.8 0-.4-.2-.7-.7-.4-1.1.2-.2-.2-.4-.4-.2-.6.8.2 1.7 1 1.9.6.1 1.1 0 1.7-.1.6-.1 1.2-.3 1.8-.4 2.4-.5 4.8-.9 7.2-1 2.4-.1 4.8 0 7.2.5 2.4.5 4.5 1.5 6.5 2.8 2 1.3 3.9 3 5.7 4.6 2.1 1.8 4.1 3.6 6.2 5.4 4.1 3.6 8.2 7.2 12.3 10.7 3.7 3.2 7.6 6.4 10.5 10.4.3.5.7 1 1 1.5.1.1.4-.1.3-.3z"/>
</svg>
