<svg xmlns="http://www.w3.org/2000/svg" xmlns:xlink="http://www.w3.org/1999/xlink" width="92.2" height="199.7" style="overflow:visible;enable-background:new 0 0 92.2 199.7" xml:space="preserve">
    <style>
        .st0{fill:#f5a372}.st1{fill:#663c17}.st2{fill:#331e0f}.st3{fill:#db4345}.st5{fill:#7f4a23}.st6{fill:#8c2a30}.st7{clip-path:url(#SVGID_2_)}.st8{fill:#fff}.st10{clip-path:url(#SVGID_4_)}.st12{fill:#99b8db}
    </style>
    <path d="M54.6 28.6c3.4.3 6.3 3 6.6 5.9.1 1.3-.2 2.6-.6 3.9-.4 1.6-.9 3.3-1.3 4.9-.4 1.6-.9 3.4-2.3 4.6-2.1 1.9-5.5 1.9-8.2 3-1.7.7-3.2 1.7-4.9 2.2-1.8.5-4.1.1-4.8-1.4.7.6 2-.2 2.1-1.1 0-.9-.7-1.6-1.2-2.4-2.1-2.9-2.2-6.5-2.1-9.9.1-3.2.6-6.6 3.2-8.8 1.8-1.5 4.2-2.1 6.6-2.2 2.4-.1 4.8.4 7.2.8 1.1.2 2.4.5 2.9 1.4l-3.2-.9z"/>
    <path class="st0" d="M34.2 131.5c-.5 7.3-2.8 14.3-3.4 21.6-.9 12.4 3.4 24.6 4.8 37 2.2-.6 4.5-.7 6.8-.4 2.6-19.6 4.4-39.3 5.2-59.1l-13.4.9zm35-3c.1.2.2.3.3.6 1.7 3.6 4.5 15.3 3.9 18.4-.6 3.2-1.9 6.3-3 9.4-3.8 10-4.5 20.4-7 30.8-1.9-.2-5.7-.4-7.6-.7-.3-7.1-.4-14.3-.2-21.4.1-3.9.3-7.9 1.7-11.5.5-1.2 1.1-2.4 1.3-3.7.1-.8 0-1.5-.1-2.3-.5-4-2.6-14.5-3.2-18.5l13.9-1.1z"/>
    <path class="st1" d="M63.9 90c-.6 2.3 2.1 5.5 3.3 7.6 3.9 7.4 6.7 35.9 6.7 41.2-5.2.4-13.7 1.2-18.8.6-.4-4.6-.4-10.9-1.5-15.3-1 5.2-2.1 10.3-3.5 15.4-6.6.4-13.2-.1-19.7-1.5-.6-8.2-.3-16.5 1-24.6.4-2.6.9-5.2 2.1-7.6.8-1.6 1.8-3 2.6-4.5 2.2-4 3.3-8.6 3.1-13.2L63.9 90z"/>
    <path class="st2" d="M51.5 135c-7.7-2.2-14.6-2-22.6-3-.1 2.4-.4 4.8-.7 7.2l22.3 1.6 1-5.8zm23.6-.5c-7-.4-14-.7-21-1.1-.1 0-.2 0-.3.1-.1.1-.1.2-.1.4-.1 2.3 0 4.6.2 6.9L75 140l.1-5.5z"/>
    <path class="st0" d="M90.6 69.5c-1.6 1-3.5 1.7-5.4 1.9-.2-2.3-.1-4.7.3-6.9 0-.2.1-.4.2-.6.2-.2.4-.3.6-.4 1-.4 2.1-.6 3.2-.8l1.1 6.8z"/>
    <path class="st0" d="m70.3 78.8 10.1-7.3c.8-.6 1.6-1.2 1.9-2.1.2-.6.1-1.2.2-1.8.3-3.4 3.4-5.6 6.2-7.4.2-.1.4-.3.7-.2.3.1.4.5.4.8-.1.6-.7.9-1.1 1.3-2 2-.2 5.6-1 8.3-.3 1-.9 1.8-1.5 2.6-.8 1-1.5 2-2.3 3-3.4 4.6-6.9 9.2-11.9 11.8-.6.3-1.3.6-2 .4-1-.3-1.4-1.4-1.6-2.4-.3-1.8-.1-3.6.6-5.2l1.3-1.8z"/>
    <path class="st3" d="M53.5 56.1c3.3-.7 7.2-1.3 9.8.9 1.1.9 1.8 2.2 2.4 3.5 2.6 5 5 10.1 7.3 15.3.1.3.2.5.2.8 0 .5-.3.9-.5 1.2-1.9 2.8-3.4 6.6-3.4 9.9-2.1-1.1-3.5-3.2-5-5.1.2 1.5.4 3 .6 4.4.4 2.1-1.1 4-3.2 4.2-7.7.7-15.5.1-23-1.7-.4-.1-.8-.2-1-.5-.2-.3-.3-.6-.3-1-.4-2.9-.9-5.7-1.3-8.6-1 2.4-2.7 4.4-4.9 5.6-2.2 1.2-5 1.4-7.4.4-1.6-.7-2.9-2-3.6-3.5-.1-.2-.2-.4-.2-.7 0-.2.1-.4.3-.5 3.4-5 6.8-9.9 10.2-14.9 1.7-2.4 3.3-4.8 5.6-6.7 2.3-1.8 5.3-2.9 8.2-2.4l9.2-.6z"/>
    <path class="st1" d="M89.1 78.6c.4-.1.7-.5.6-.9L88.1.9c-.7-.8-1.6-.3-1.8.4l1.6 76.5c.2.5.7.9 1.2.8z"/>
    <path class="st0" d="M88.4 62.4c.4-.5 1.3-.5 1.8 0 .4.5.3 1.4-.3 1.7.3-.6 1.3-.3 1.5.4.2.6-.1 1.3-.5 1.8.3-.5 1.2-.2 1.3.4.1.6-.3 1.1-.7 1.5.6.2.4 1.1 0 1.5-.5.5-1.4.8-2 .4-.6-.4-.6-1.5.1-1.7-.3.6-1.3.3-1.4-.4-.1-.6.3-1.2.8-1.6-.4.2-.8.5-1.2.5-.3 0-.5-.2-.6-.4-.1-.3.1-.5.2-.7.3-.3.5-.7.8-1l-.8.2c-.3.1-.6-.2-.6-.5.1-1.1.9-2.1 2-2.3l-.4.2zM58.6 32c-.1 4.5.9 17.4 0 18.8-.9 1.4-5.1 1.6-5.1 1.6l.1 3.7 1 16.1C50.9 67.6 43.2 58 44.1 57.1c0 0 .5-5.9.1-9.7-.3.5-3.6.1-3.8-.5C39 41 44 40.5 44.2 42c-.4 0-.9-5.4-.7-8.3L58.6 32z"/>
    <path style="fill:#b5683f" d="m53.5 52.4-5.7.2 5.7 2.2z"/>
    <path class="st5" d="M90.5 63.9c-.7.7-1.6 1.2-2.6 1.4-.3.1-.4-.3-.1-.4.9-.2 1.7-.7 2.4-1.3.2-.2.5.1.3.3zm1.1 2.1c-.8.9-2 1.4-3.2 1.3-.3 0-.3-.4 0-.4 1.1 0 2.2-.4 2.9-1.2.2-.2.5.1.3.3zm0 2.4c-.2.4-.7.7-1.2.9-.6.2-1.2.1-1.8 0-.1 0-.2-.1-.2-.2s.1-.2.2-.2c.9.1 2.1.2 2.6-.7.2-.3.6-.1.4.2zM88 63.1c-.4.5-.8 1-1 1.6-.2.6-.1 1.3-.1 1.9-.1 1.2-.7 2.3-1.5 3.1-.2.2-.5-.1-.3-.3.8-.8 1.3-2 1.4-3.2v-1c0-.3.1-.6.2-.9.2-.6.6-1 1-1.5.2-.2.5.1.3.3zm-3.9 8.7c-.3-.4-.7-.8-1-1.2-.1-.1-.1-.2 0-.3.1-.1.2-.1.3 0 .3.4.7.8 1 1.2.1.1.1.2 0 .3-.1 0-.2.1-.3 0z"/>
    <path class="st5" d="M88.3 67.3c-.5.1-.9-.3-1.1-.7-.1-.5.2-1.1.4-1.5 0 .1.1.2.1.3-.5-.1-.8-.5-.8-1-.1-.6.2-1.1.5-1.5.1-.2.5 0 .4.2-.2.3-.5.7-.5 1.1 0 .3.2.6.5.7.1 0 .2.2.1.3-.2.3-.4.7-.4 1.1 0 .3.2.7.6.6.4 0 .5.4.2.4zM43.6 45.5c-.7-.6-1.4-1.2-2.1-1.9-.2-.2.1-.5.3-.3.7.6 1.4 1.2 2.1 1.9.2.2-.1.5-.3.3z"/>
    <path class="st5" d="M42.7 44.5c-.3.4-.5.9-.5 1.4 0 .1-.1.2-.2.2s-.2-.1-.2-.2c0-.6.3-1.2.6-1.7.1-.1.2-.1.3 0 .1.1.1.2 0 .3z"/>
    <path class="st0" d="M26.8 75c-4.2-4.8-8.4-9.5-12.6-14.3-.3-.3-.5-.6-.7-.9-.2-.5-.3-1-.3-1.5-.3-2.2-1.9-4.7-3-6.9-.2-.5-.9-.2-.8.3.3 1.4.8 2.9.6 4.2C8.4 54 6.6 52.4 4.6 51c-.5-.3-1 .3-.7.7l3.2 3.7c-1.4-1.9-3.1-3.5-5-4.9-.4-.3-1 .2-.7.7C2.6 53 4 54.7 5.5 56.3 4.2 54.6 2.7 53.1 1 52c-.4-.3-1 .2-.7.7 1.2 1.9 2.7 3.6 4.3 5.1-1.1-1.3-2.4-2.5-3.9-3.3-.5-.3-.9.3-.6.7 1.4 2.1 3.1 4.1 5.1 5.8.7.6 1.5 1.2 2.4 1.6.5.2 1.1.3 1.6.5.8.4 1.3 1.3 1.7 2.1 3.1 5.8 6.2 11.6 9.4 17.5 3.6-.4 6.7-3.7 6.8-7.3l-.3-.4z"/>
    <path class="st5" d="M10 55.9c.3.3.3.7.2 1-.1.4-.3.7-.5 1.1-.2.4-.2.8 0 1.1.2.4.5.7.8 1 .2.2-.1.5-.3.3-.5-.6-1.2-1.2-1-2.1.1-.4.3-.8.5-1.2.1-.3.2-.7 0-1-.2-.1.1-.4.3-.2zm-5.8-4.3c1.1 1.3 2.3 2.5 3.5 3.6.2.2-.1.5-.3.3-1.2-1.2-2.4-2.4-3.5-3.6-.2-.2.1-.5.3-.3zm-1.8.7c1.2 1.4 2.5 2.7 3.8 4 .2.2-.1.5-.3.3-1.3-1.3-2.6-2.6-3.8-4-.2-.2.1-.5.3-.3zm-.3 2.5c.8.7 1.7 1.5 2.5 2.2.2.2-.1.5-.3.3-.8-.7-1.7-1.5-2.5-2.2-.2-.2.1-.5.3-.3z"/>
    <path class="st5" d="M8.2 55.2c-1.3 1.1-2.7 2.1-4.2 2.9-.2.1-.4-.2-.2-.4 1.5-.8 2.8-1.8 4.1-2.8.2-.1.5.2.3.3zm-2.1 2.3c.4.5.7.9 1.1 1.4-.1 0-.1 0-.2-.1.5-.2 1 0 1.5.2.4.3.7.8 1 1.2.1.2-.2.4-.4.2-.4-.7-1.1-1.7-2-1.3-.1 0-.2 0-.2-.1-.4-.5-.7-.9-1.1-1.4-.2 0 .1-.3.3-.1z"/>
    <path class="st2" d="M62.8 92.9c-.1.7 0 1.4.3 2 0 .1 0 .2-.1.3-.1.1-.2 0-.3-.1-.3-.7-.4-1.5-.3-2.3 0-.1.2-.2.3-.1 0 0 .1.1.1.2zm-1.4-.4c.3.7.4 1.5.4 2.3 0 .1-.1.2-.2.2s-.2-.1-.2-.2c.1-.7 0-1.4-.3-2.1 0-.1 0-.2.1-.3 0 0 .1 0 .2.1zm-14.5-.2c-.3.6-.3 1.4.1 2 .1.2-.2.4-.4.2-.5-.7-.5-1.7-.1-2.4.2-.2.6 0 .4.2zm-1.6.2c.1.7.3 1.4.4 2.1 0 .1 0 .2-.1.3-.1 0-.2 0-.3-.1-.1-.7-.3-1.4-.4-2.1 0-.1 0-.2.1-.3.1-.1.3 0 .3.1zm7.5 2.9c0 .7.6 1.2 1.2 1.2.7 0 1.2-.6 1.2-1.2 0-.7-.6-1.2-1.2-1.2-.7 0-1.2.6-1.2 1.2zm3.3 4.3c-.3-.2-.4-.5-.4-.9 0-.3.4-.3.4 0 .2 2.9.2 5.8.1 8.6-.1 2.9-.4 5.8-.7 8.6-.1.4-.1.8-.2 1.2 0 .2 0 .4-.1.5-.1.1-.3.2-.5.2-.7.3-1.4.4-2.1.3-.1 0-.2-.1-.2-.2-.1-2.5-.2-4.9-.2-7.4-.1-2.5-.2-4.9-.2-7.4 0-1.4-.1-2.8-.1-4.2 0-.3.4-.3.4 0 .1 2.5.2 4.9.2 7.4.1 2.5.2 4.9.2 7.4 0 1.4.1 2.8.1 4.2l-.2-.2c.8.1 1.7 0 2.4-.4l-.1.1c.4-2.4.6-4.9.8-7.3.2-2.4.2-4.9.2-7.3 0-1.4-.1-2.8-.1-4.1h.4c0 .2.1.4.2.6.2.2-.1.5-.3.3z"/>
    <path class="st2" d="M53.9 118.1c-.2 1.7-.5 3.5-.7 5.2 0 .3-.4.2-.4-.1.2-1.7.5-3.5.7-5.2 0-.2.4-.1.4.1z"/>
    <path class="st2" d="M57.2 120.2c-2.2-.8-4.5-1.3-6.8-1.7-.7-.1-1.3-.2-2-.3-.3 0-.3-.4 0-.4 2.3.2 4.7.7 6.9 1.3.7.2 1.3.4 1.9.6.3.2.2.6 0 .5zm-11.1-23c.3 2.1-.6 4.1-2 5.6-1.5 1.7-3.6 2.7-5.7 3.4-.6.2-1.2.4-1.9.6l-.9.3h-.5c-.1 0-.1 0 0-.1v-.1H35l-.1.1v.2c-.1-.1 0-.2.1-.3.1-.1.2 0 .3.1.1.2 0 .4-.3.4-.2 0-.3-.2-.3-.4.1-.3.4-.3.6-.3.3 0 .6-.1.9-.2 1.2-.3 2.4-.7 3.5-1.2 2.2-.9 4.2-2.4 5.3-4.5.6-1.1.8-2.4.7-3.6-.1-.3.3-.3.4 0z"/>
    <path class="st2" d="M40.9 98.2c-1.7 1.4-3.1 3.1-4.2 4.9-1.1 1.9-2 3.9-2.6 6-.7 2.5-1.2 5-1.5 7.5-.3 2.6-.5 5.2-.7 7.8-.2 2.7-.4 5.4-.6 8 0 .3-.1.7-.1 1 0 .3-.4.3-.4 0l.6-8.1c.2-2.6.4-5.3.7-7.9.3-2.6.7-5.2 1.3-7.7.6-2.2 1.4-4.3 2.5-6.3 1.1-1.9 2.4-3.7 4-5.1.2-.2.4-.4.6-.5.4-.1.7.2.4.4zm22.4-.3c.6 2 1.7 3.7 3.2 5.1.4.4.9.7 1.4 1.1.2.1 0 .5-.2.4-1.8-1.2-3.2-2.8-4.1-4.8-.3-.5-.5-1.1-.6-1.7-.1-.2.3-.3.3-.1z"/>
    <path class="st2" d="M66.1 97.5c.8 2.3 1.5 4.7 2.1 7 .6 2.4 1.2 4.7 1.7 7.1.5 2.4.9 4.8 1.3 7.2.3 2.4.6 4.8.8 7.3.2 2.4.3 4.9.4 7.3v.9c0 .3-.4.3-.4 0 0-2.4-.2-4.9-.3-7.3-.2-2.4-.4-4.9-.8-7.3-.3-2.4-.7-4.8-1.2-7.2-.5-2.4-1-4.8-1.6-7.1-.6-2.4-1.3-4.7-2-7l-.3-.9c-.1-.2.3-.3.3 0z"/>
    <path class="st6" d="M54.8 72.2c0 2.4.1 4.8.1 7.2 0 2.4.1 4.8.1 7.2v4.1c0 .3-.4.3-.4 0 0-2.4-.1-4.8-.1-7.2 0-2.4-.1-4.8-.1-7.2v-4.1c0-.3.4-.3.4 0z"/>
    <path class="st6" d="M54.3 72.4c-1.3-1.3-2.9-2.4-4.6-3.2-1.7-.8-3.6-1.3-5.5-1.5-1.1-.1-2.1-.1-3.2 0-.1 0-.2 0-.2-.1-.7-1.5-1.1-3.1-1.2-4.7 0-.8 0-1.7.1-2.5.1-.7.2-1.4.5-2 .3-.6.8-1.2 1.5-1.4.3-.1.4.3.1.4-1.2.3-1.5 1.9-1.7 3-.2 1.5-.1 3 .2 4.5.2.8.5 1.7.8 2.5-.1 0-.1-.1-.2-.1 1.9-.2 3.9-.1 5.8.4s3.7 1.2 5.3 2.3c.9.6 1.8 1.3 2.5 2.1.3.2 0 .5-.2.3z"/>
    <path class="st6" d="M54.6 72.2c1-2.4 2.6-4.5 4.6-6.1 1-.8 2.1-1.5 3.3-2 .3-.1.6-.2.7-.6.1-.3-.1-.7-.1-1-.1-.7-.3-1.4-.6-2-.6-1.5-1.4-2.8-2.4-4-.2-.2.1-.5.3-.3 1 1.1 1.7 2.3 2.3 3.6.3.7.5 1.3.7 2 .1.3.2.7.2 1.1.1.3.1.7-.1 1-.2.3-.5.4-.8.6-.3.1-.6.3-.9.4-.6.3-1.2.7-1.7 1.1-1.1.8-2 1.7-2.9 2.7-1 1.1-1.7 2.4-2.3 3.8-.1.2-.4 0-.3-.3zm-17.4-6.5c-.1 3.9-.3 7.8-.6 11.7l-.3 3.3c0 .3-.4.3-.4 0 .4-3.9.7-7.8.9-11.7 0-1.1.1-2.2.1-3.3-.1-.3.3-.3.3 0z"/>
    <path class="st6" d="m38.6 69-1.5 3c-.1.2-.5 0-.4-.2l1.5-3c.2-.3.5 0 .4.2zm25.8-2.1c.7 2 1.1 4.1 1.2 6.3.1 2.1 0 4.3-.4 6.4-.2 1.2-.5 2.4-.9 3.5-.1.3-.5.1-.4-.1 1.4-4 1.7-8.3 1-12.5-.2-1.2-.5-2.3-.9-3.4-.1-.3.3-.4.4-.2z"/>
    <path class="st6" d="M65.8 68.1c-.2.7-.3 1.5-.5 2.2-.1.3-.5.2-.4-.1.2-.7.3-1.5.5-2.2.1-.3.5-.2.4.1zm-37.5 6.2c.8 2.1.2 4.7-1.4 6.3-.4.5-1 .8-1.6 1.1-.2.1-.5-.2-.2-.4 1.9-.9 3.2-3 3.1-5.2 0-.6-.1-1.2-.3-1.8-.1-.2.3-.3.4 0zm1.4 3c-.1 1.7-.7 3.3-1.8 4.6-.2.2-.5-.1-.3-.3 1-1.2 1.6-2.7 1.7-4.3 0-.3.4-.3.4 0zm42 .2c-1.2 1.4-1.8 3.2-1.8 5 0 .3-.4.3-.4 0 0-1.9.7-3.8 1.9-5.3.2-.2.5.1.3.3zm-1.3.3c-.8 1.1-1.4 2.4-1.5 3.7 0 .3-.5.3-.4 0 .2-1.4.7-2.8 1.6-3.9.1-.2.5 0 .3.2zm-14 3.3c-2.3-.3-4.7-.3-7 .1-.3 0-.4-.4-.1-.4 2.4-.3 4.7-.4 7.1-.1.3 0 .3.4 0 .4zm.3 2c-1.5-.2-3.1-.2-4.6 0-.3 0-.3-.4 0-.4 1.6-.2 3.1-.2 4.7.1.3-.1.2.4-.1.3z"/>
    <defs>
        <path id="SVGID_1_" d="M43.6 185.7c-3 0-6.1.1-9.1.2-.2 4.6-.4 9.1-.7 13.7 6-.2 12-.1 17.9.1.7 0 .9-.9.3-1.2-3.4-1.8-7.4-4.8-8.4-12.8z"/>
    </defs>
    <use xlink:href="#SVGID_1_" style="overflow:visible;fill:#db4345"/>
    <clipPath id="SVGID_2_">
        <use xlink:href="#SVGID_1_" style="overflow:visible"/>
    </clipPath>
    <g class="st7">
        <path class="st8" d="M52.2 198.2c-3.3.1-6.5.2-9.8.3-3.2.1-6.5.2-9.7.3-1.8.1-3.7.1-5.5.2-.3 0-.3-.4 0-.4 3.3-.1 6.5-.2 9.8-.3 3.2-.1 6.5-.2 9.7-.3 1.8-.1 3.7-.1 5.5-.2.3-.1.3.4 0 .4z"/>
    </g>
    <g class="st7">
        <path class="st8" d="M33.2 194.5c2.2.4 4.1 1.8 5.1 3.8.1.2-.2.5-.4.2-1-1.9-2.8-3.3-4.9-3.6-.2-.1-.1-.5.2-.4z"/>
    </g>
    <g class="st7">
        <path class="st8" d="M48.3 195.7c-1.1.1-2.1.9-2.4 2-.1.3-.5.1-.4-.1.4-1.3 1.5-2.2 2.8-2.3.3 0 .3.4 0 .4z"/>
    </g>
    <g class="st7">
        <path class="st8" d="M47.1 192.3c-1.7.1-3.3 1.4-3.7 3-.1.3-.5.2-.4-.1.5-1.8 2.2-3.3 4.1-3.3.3 0 .3.4 0 .4z"/>
    </g>
    <g class="st7">
        <path class="st8" d="M45.8 191.3c-1.4.3-2.7 1.1-3.6 2.3-.2.2-.5-.1-.3-.3 1-1.2 2.3-2 3.8-2.4.3-.1.4.3.1.4z"/>
    </g>
    <path d="M36.7 190.5c0 .7.6 1.2 1.2 1.2.7 0 1.2-.6 1.2-1.2 0-.7-.6-1.2-1.2-1.2-.7 0-1.2.6-1.2 1.2z" style="clip-path:url(#SVGID_2_);fill:#fff"/>
    <defs>
        <path id="SVGID_3_" d="M64.6 184c-3-.3-6.1-.6-9.1-.8-.7 4.5-1.4 9-2.2 13.5 6 .5 11.9 1.2 17.8 2.1.7.1 1-.8.4-1.2-3.1-2.1-6.7-5.5-6.9-13.6z"/>
    </defs>
    <use xlink:href="#SVGID_3_" style="overflow:visible;fill:#db4345"/>
    <clipPath id="SVGID_4_">
        <use xlink:href="#SVGID_3_" style="overflow:visible"/>
    </clipPath>
    <g class="st10">
        <path class="st8" d="M71.9 197.3c-3.2-.3-6.5-.5-9.7-.8-3.2-.3-6.5-.5-9.7-.8-1.8-.1-3.6-.3-5.5-.4-.3 0-.3-.4 0-.4 3.2.3 6.5.5 9.7.8 3.2.3 6.5.5 9.7.8 1.8.1 3.6.3 5.5.4.2 0 .2.4 0 .4z"/>
    </g>
    <g class="st10">
        <path class="st8" d="M53.3 191.6c1.7.5 3.1 1.6 4.1 3.1.3.4.5.9.7 1.3.1.3-.3.4-.4.1-.7-2-2.4-3.5-4.4-4.1-.4-.1-.3-.5 0-.4z"/>
    </g>
    <g class="st10">
        <path class="st8" d="M68.3 194.5c-1.1 0-2.2.6-2.6 1.7 0 .1-.1.2-.3.1-.1 0-.2-.2-.1-.3.5-1.2 1.7-2 3-2 .3 0 .3.5 0 .5z"/>
    </g>
    <g class="st10">
        <path class="st8" d="M67.5 190.9c-1.7-.1-3.4 1-4 2.6-.1.3-.5.1-.4-.1.7-1.8 2.5-3 4.4-2.9.2 0 .2.4 0 .4z"/>
    </g>
    <g class="st10">
        <path class="st8" d="M66.2 189.8c-1.4.2-2.8.8-3.8 1.9-.2.2-.5-.1-.3-.3 1.1-1.1 2.5-1.8 4.1-2 .3-.1.3.3 0 .4z"/>
    </g>
    <path d="M57.3 188c-.1.7.4 1.2 1.1 1.3.7.1 1.2-.4 1.3-1.1.1-.7-.4-1.2-1.1-1.3-.7 0-1.3.5-1.3 1.1z" style="clip-path:url(#SVGID_4_);fill:#fff"/>
    <path class="st5" d="M43.4 145c.7 1 .3 2.5-.8 3.1-.2.1-.5-.2-.2-.4.9-.4 1.2-1.7.6-2.5-.1-.1 0-.2.1-.3.1-.1.3 0 .3.1zm28.3.7c.6 1.1.2 2.6-.9 3.2-.2.1-.4-.2-.2-.4.9-.5 1.2-1.8.7-2.7 0-.2.3-.4.4-.1z"/>
    <path class="st6" d="M47.9 87.9c-.1.6-.3 1.1-.4 1.7-.1.3-.5.2-.4-.1.1-.6.3-1.1.4-1.7 0-.3.4-.1.4.1zm-2.5-.3c.2.6.4 1.3.6 1.9.1.3-.3.4-.4.1-.2-.6-.4-1.3-.6-1.9 0-.2.4-.3.4-.1zm14.5 2.2c-.2.4-.3.7-.5 1.1 0 .1-.2.1-.3.1-.1-.1-.1-.2-.1-.3.2-.4.3-.7.5-1.1 0-.1.2-.1.3-.1.1 0 .1.2.1.3zm-1.3-.4v.5c0 .1-.1.2-.2.2s-.2-.1-.2-.2v-.5c0-.1.1-.2.2-.2s.2.1.2.2z"/>
    <path d="M59.1 31.9c.2 1.2-.8 1.1-1.3 2.2s-1.4 2-2.6 2.2c-.9.1-1.8-.3-2.7-.5-.9-.2-1.9-.3-2.6.4-1 .9-.6 2.6-1.4 3.7-1 1.4-3.2 1-4.9 1.3-1.4.2-2.8 1.1-3.5 2.4.9-1.8 1.3-3.8 1.2-5.8-.1-2.2-.7-4.8.6-6.6 1.1-1.5 3.1-1.9 4.9-2.3 2-.4 4-.7 6-.6 2 .1 4.1.7 5.5 2.1l.8 1.5z"/>
    <path d="M41.9 29.8c1.2-1.6.6-4.1-1.1-5.1-1.7-1-4.2-.2-5 1.6-.2.3-.3.7-.5 1-.5.5-1.3.6-1.9.9-1 .5-1.7 1.6-1.8 2.7-.3 2.1.9 4.3 2.8 5.2 1.9.9 4.4.5 5.8-1.1l1.7-5.2z"/>
    <path class="st3" d="M39.6 33.1c.5-.7.9-1.4 1.2-2.2.1-.4.2-.8.2-1.3 0-.3.1-.7-.1-1-.1-.3-.4-.3-.7-.2-.3.2-.4.5-.5.7-.3.7-.2 1.4 0 2 .2.8.5 1.6.5 2.5 0 .2-.3.3-.4.1-.4-.5-1-.9-1.7-1.1-.7-.3-1.4-.4-2.1-.4-.7 0-1.4.3-1.7.9-.1.2-.1.4 0 .5.1.2.4.2.6.3.5.1 1 .2 1.5.2 1.1 0 2.2-.2 3.2-.7.1-.1.3 0 .3.1.3 1.5.6 3.1.9 4.6.1.3-.4.4-.4.1-.3-1.5-.6-3.1-.9-4.6.1 0 .2.1.3.1-1 .5-2.1.8-3.2.8-.6 0-1.1-.1-1.7-.2-.5-.1-1-.3-1-.9 0-.5.3-.9.7-1.2.3-.2.6-.4 1-.4.8-.2 1.7-.1 2.4.2.9.3 1.7.7 2.2 1.4-.1 0-.3.1-.4.1 0-1.6-1.1-3.2-.4-4.8.3-.6 1-1.3 1.7-.8.3.2.4.6.4 1 0 .5-.1.9-.2 1.4-.2 1-.7 2-1.4 2.9-.2.4-.5.1-.3-.1z"/>
    <path class="st3" d="M39.6 33.4c1.6.7 3.1 1.5 4.5 2.5.2.1 0 .5-.2.4-1.4-.9-2.9-1.7-4.5-2.5-.3-.2-.1-.5.2-.4z"/>
    <path d="M44 40.4c.4 0 .8.1 1 .4s.3.7.1 1.1c-.1.3-.4.5-.5.8-.2.3-.2.8.1 1.1.3.3.8.3 1 0-.5.4-1.4.3-1.8-.2-.3-.5-.3-1.1-.4-1.7-.1-.6-.6-1.2-1.2-1.1l1.7-.4zm-1.7-12.2c.2-1.3-.4-2.6-1.4-3.4-1-.8-2.4-.9-3.6-.4-.6.3-1.1.6-1.4 1.2l-.6.9c-.2.3-.5.4-.8.6-.7.3-1.4.3-1.9.8-.5.4-.9 1-1 1.7-.2 1.6 1 3.1 2.3 4.1.2.2 0 .5-.2.4-1.2-.9-2.4-2.3-2.5-3.8-.1-.8.2-1.5.7-2.1.5-.6 1.1-.9 1.8-1.1.4-.1.8-.2 1.1-.4.3-.2.5-.6.7-.9.4-.6.9-1.1 1.5-1.4 1.2-.7 2.8-.7 4 0 1.4.8 2.1 2.5 1.9 4.1-.2.1-.6 0-.6-.3z"/>
    <path d="M42.9 28.2c2.7-.7 5.4-1.1 8.2-1.1 2.4 0 4.9.5 6.7 2.2.9.9 1.5 2 1.6 3.2 0 .3-.4.3-.4 0-.2-2.2-2.1-3.7-4-4.4-1.2-.4-2.4-.5-3.6-.5-1.3 0-2.6 0-3.9.2-1.5.2-3 .5-4.4.9-.3 0-.4-.4-.2-.5z"/>
    <path d="M58.3 30.5c2.1.5 3.7 2.3 4 4.4.1 1.1-.2 2.3-.8 3.3-.6 1-1.4 1.8-1.6 3-.2 1.4.3 2.8.8 4.1.1.3-.3.4-.4.1-.4-1.1-.9-2.3-.9-3.5 0-.6.1-1.2.3-1.7.2-.5.5-1 .8-1.4.3-.4.6-.9.9-1.4.2-.5.4-1.1.4-1.6.1-1.1-.2-2.2-.9-3.1-.7-.9-1.7-1.5-2.8-1.8-.1-.1 0-.5.2-.4z"/>
    <path class="st5" d="M54.8 40.7c0 1.6.1 3.5 1.5 4.6.1.1.1.2.1.3-.4.6-.9 1-1.6 1.3-.3.1-.4-.3-.1-.4.5-.2 1-.6 1.3-1.1 0 .1.1.2.1.3-1.6-1.1-1.7-3.1-1.8-4.9.1-.4.5-.4.5-.1z"/>
    <path d="M56.2 42.9c0 .6.4 1.1.8 1s.7-.5.7-1.1c0-.6-.4-1.1-.8-1-.4 0-.7.5-.7 1.1zm-6.3.2c0 .6.4 1.1.8 1 .4 0 .7-.5.7-1.1 0-.6-.4-1.1-.8-1-.4 0-.7.5-.7 1.1zm1.9-5.2c.2.5-.1 1.1-.6 1.2-.2 0-.5-.1-.7-.1-.8-.1-1.6.2-2.1.8.2-1.3 1.6-2.4 2.9-2.2.3-.1.6.1.5.3zm2.8-.4c-.2.5.2 1.1.7 1.1.2 0 .5-.1.7-.1.7-.2 1.6.1 2.1.6-.3-1.3-1.7-2.3-3-2-.2 0-.5.2-.5.4z"/>
    <path class="st3" d="M86.8 22.3c-3.4-1.6-8.5-3.7-11.7-.7-3 2.8-7.3 5.7-12.1 5.6-2 0-5-1.2-6.7-2.6-5.6-4.3-10-5.2-17.1-3.6 3.1-5.4 5.8-6.9 9.8-7.4-1.1-2.6-5.5-5.5-8.7-6.1 3.7-2.3 9.1-2.2 13-.3 3.2 1.5 5.4 2.9 8.8 2.7 4.4-.3 8.5-2.3 12-5.7C77.6.7 83-1.7 86.5 1.7l.3 20.6z"/>
    <path class="st2" d="M56 120.5c-2.1-1.1-4.2-2.1-6.3-3.1-.6-.3-1.2-.5-1.8-.8-.1 0-.1-.2-.1-.3.1-.1.2-.1.3-.1 2.2.9 4.3 1.9 6.4 3l1.8.9c.2.2 0 .5-.3.4z"/>
    <path class="st5" d="M54.2 48c-.3.2-.7.2-1 .1-.4-.1-.7-.4-.8-.7 0-.1 0-.2.1-.3.1 0 .2 0 .3.1 0 0 0 .1.1.1l.1.1s.1 0 .1.1h.3s.1 0 0 0h.3s.1 0 0 0h.1s.1 0 .1-.1c.1-.1.2 0 .3.1.1.3.1.5 0 .5z"/>
    <path class="st12" d="M56.4 55.4c.3 1.4.3 2.7.1 4.1-.2 1.2-.6 2.4-1.1 3.5-1 2.2-2.6 4.2-4 6.2-.8 1.1-1.5 2.1-2.1 3.3-.1.1-.3.1-.4 0-1.7-3.9-3.2-7.9-4.5-12-.4-1.1-.7-2.3-1.1-3.4-.1-.3.3-.4.4-.1 1.2 4 2.6 8 4.1 12 .4 1.1.9 2.2 1.4 3.3h-.4c1.1-2.1 2.6-3.9 3.9-5.8 1.4-2 2.6-4.1 3.1-6.5.3-1.5.3-3 0-4.4.1-.4.5-.5.6-.2z"/>
    <path class="st8" d="M53.7 72.8s-5-.2-6.8-.2c-.7 0-1.3.6-1.3 1.3v2.9c0 .7.6 1.3 1.3 1.3h5.4c.8 0 1.4-.6 1.4-1.4v-3.9z"/>
    <path class="st12" d="M52.491 76.76h-1.3v-2.5h1.3zM50.2 74.9h-3.7c-.3 0-.3-.4 0-.4h3.7c.3 0 .3.4 0 .4zm-.1 1.2h-1.3c-.1 0-.2-.1-.2-.2s.1-.2.2-.2h1.3c.1 0 .2.1.2.2s-.1.2-.2.2zm-2.5 0h-1c-.1 0-.2-.1-.2-.2s.1-.2.2-.2h1c.1 0 .2.1.2.2s-.1.2-.2.2zm2.5 1.1h-3.3c-.3 0-.3-.4 0-.4h3.3c.2 0 .2.4 0 .4z"/>
    <path class="st8" d="m54.4 15.2.3 3.1c0 .2 0 .3.1.3 0 .1.1.1.2.1l.9-.1.1 1.1-1 .1c-.5 0-.8-.1-1-.3-.2-.2-.3-.6-.4-1.2l-.3-3.1-.9.1-.1-1.1.9-.1-.1-1.4 1-.1.1 1.4 1.2-.1.1 1.1-1.1.2zm4.7 2.3-.5 2.8-1-.2 1.1-5.6 1 .2-.1.7c.3-.2.5-.3.9-.4.2 0 .6 0 1 .1l-.2 1.1c-1.3-.2-2 .2-2.2 1.3zm5.3 4.2c0-.3-.1-.5 0-.7-.6.4-1.2.6-1.8.5-.5-.1-.8-.3-1.1-.6-.3-.3-.4-.7-.3-1.2.1-.7.5-1.2 1.1-1.5.6-.2 1.4-.3 2.6-.1.1-.7-.2-1.1-.8-1.2-.5-.1-.9.1-1.2.6l-.9-.7c.6-.8 1.4-1.1 2.3-1 .7.1 1.2.4 1.5.9.3.5.3 1.1.2 1.8l-.6 2.5v.9l-1-.2zm-2.2-1.9c-.1.3.1.5.5.6.4.1.8 0 1.2-.2.4-.2.6-.6.8-1-1.5-.3-2.3 0-2.5.6zm9.7 1.3-1 .3-3.9-4.7 1-.4 2.8 3.4.1-4.4 1-.4v6.2zm5.7-3.6c-.6.4-1.2.6-1.9.4-.6-.2-1.2-.6-1.8-1.3-.5-.7-.8-1.4-.8-2.1 0-.6.3-1.2.8-1.6.5-.4 1-.5 1.7-.4.6.1 1.2.5 1.7 1.1l.3.4-2.6 2.2c.7.8 1.3.9 1.9.5.4-.3.5-.9.4-1.7l1.1-.1c.2 1.2-.1 2.1-.8 2.6zm-2.9-3.7c-.4.3-.5.9-.3 1.5l1.8-1.4c-.6-.4-1.1-.5-1.5-.1zm5.9 1.3-4.7-7 .9-.6 4.7 7-.9.6z"/>
</svg>
