<svg xmlns="http://www.w3.org/2000/svg" width="84.5" height="149.4" style="overflow:visible;enable-background:new 0 0 84.5 149.4" xml:space="preserve">
    <style>
        .st1{fill:#c6545a}.st2{fill:#cb6b6d}.st3{fill:#a9b871}.st4{fill:#7eb0dc}.st5{fill:#fbc19e}.st6{fill:#f5b393}.st7{fill:#e9a085}.st8{fill:#f3ece1}.st9{fill:#e0d9cf}.st11{fill:#de9a80}.st12{fill:#533739}.st13{fill:#fff}.st14{fill:#f7a592}.st15{fill:#fbcbaa}.st17{fill:#d6d6d8}.st18{fill:#d1818a}
    </style>
    <path d="M38.1 149.2c-.6-.3-.9-.9-.7-1.5 1-3.9 2-7.8 2.9-11.7 1.9-7.8 3.3-15.6 4.2-23.6.9-7.9 1.4-16 1.2-24-.2-7.9-1.1-15.9-4.2-23.2-.7-1.6 1.9-2.3 2.6-.7 3.4 8.3 4.3 17.4 4.3 26.3 0 16-2.1 31.9-5.9 47.5-.8 3.4-1.7 6.7-2.5 10.1-.2.8-1.1 1.2-1.9.8z" style="fill:#6b933e"/>
    <path class="st1" d="M9.8 47.3C7.3 46.4 1.7 34.6.9 32c-.7-2.3-.7-6.5 1.5-7.9 2.2-1.4 5.2 0 7.2 1.3.6.4 1 .9 1.6 1.5 1.1 1.1 2.3 2.1 3.5 3.1 1 .9 2.3 1.7 3 3 0-3.7.2-7.6.9-11.3.6-2.8 3.3-7.3 6.3-6.6 2.3.5 3.8 3.2 5.2 5.1 1.3 1.8 2.5 3.4 3.7 5.3.7 1.1 1.3 2.3 2.1 3.3.4-1.7 1.1-3.5 1.9-5 .9-1.7-.4-7.5 8.4-7.7 2 0 3.4 1.9 4.3 3.7.8 1.7 1.4 3.7 1.6 5.7.1.8-.3 2.1.1 2.7.2-2.7 3.2-5.5 5.2-6.8 1.7-1.2 4-2.4 6.1-2.2 1.9.2 4.1 1.4 5.3 3.1 1.2 1.8 1.1 5 .3 7-.7 1.7-2 3.2-3.1 4.7-1.8 2.2-3.4 4.9-6 6.1-2 .9-4.5 1.1-6.6 1.5-2 .3-4.1 1.2-6.1 1.1M69.5 33c3.2-3.7 8.3-3.5 11.2.1 1.8 2.2 3.3 5.1 2.6 8.2-1.2 5.3-5.5 9.1-9.4 11.9-2.8 2-5.5 3.2-8.6 4.1-.8.2-1-.1-1.5.5-.5-3.5-.7-7.1-.7-10.7"/>
    <path class="st2" d="M25.3 57.8c-8.1-.3-11.6-6.9-13.5-14.6-1.2-5-3.2-13.3 1.8-16.8 7.9-5.6 11.3 5.5 16 9.8 0-5.7 1.5-14.6 8.3-14 3.9.4 5.7 5.3 6.2 9.1 2-4.8 4.6-9.8 10.1-9 3.6.5 4.2 4.6 3.9 8.5C60.2 26 66 24 69.5 27.5c5.5 5.5 1.9 15.4-1.6 20.9-3.7 5.8-11.2 8.6-17.3 9.6-5.7 1-12.1 1.2-17.8 1.2-2.7 0-6.5.5-7.5-1.4z"/>
    <path class="st2" d="M18.5 63.5c-5.3-3-9.4-5-13.2-10.3C2 48.7-.5 43.7.1 37.5c.3-2.9 1.5-4.4 4.3-4.1 3.2.3 3.7 2.8 5.2 5.7 1.3 2.5 3 4.6 5.1 6.7 1.3 1.2 4.3 2.9 4.8 4.6"/>
    <path class="st3" d="M44 116.4c0-.4.1-.5.1-.9C37.3 101 22.6 90.1 6.7 87.7c5.6 6.8 11.1 13.6 17.6 19.6 5.5 5.1 12.1 9.7 19.5 10.2 0-.4.2-.8.2-1.1z"/>
    <path class="st4" d="M54.3 48.9c.1.3.2.7.3 1l-.3-1zM58.2 48.2c.3-.1.5-.1.8-.2.2 0 .3-.1.5-.2 0 0 .1 0 .1-.1 0 0 .1 0 .1-.1h.1c0-.1.1-.1.1-.2-.5-.1-1-.2-1.6-.3-.2.5-.4.9-.4 1 0 .2.2.1.3.1z"/>
    <path class="st5" d="M52.1 41.7c0 .5 0 1.1-.1 1.5-.2 1.9-.8 3.3-1.7 4.3.8-.1 1.5-.4 2.6-1.2.4-.3 1.7-1.8 1.7-1.8-.2.8.4 2 .3 2.8 0 .6 0 1.2.2 1.8.7-.6 1.9-.7 2.6-.8h.1c.1-.1.2-.5.4-1 .4-1.1.9-2.8.4-4.4-.6-2-2.2-3.2-4.5-3.1-.4 0-1 .3-1.7.6 0 .2-.1.4-.2.5.1.3 0 .6-.1.8zM52.6 48.8c-.1.1-.3.1-.4.2.1-.1.2-.1.4-.2zM50.5 49.5c-.2 0-.3.1-.5.1.1-.1.3-.1.5-.1zM47.8 49.5zM47.9 49.5s.1 0 .1.1c.3.1.6.1 1 .1-.3 0-.7 0-1-.1l-.1-.1zM51.2 49.3c-.2 0-.3.1-.5.1.2 0 .3-.1.5-.1zM60.3 49.5v-.1.3-.2zM54.6 49.9v.2-.2zM60.3 49.8v.1-.1c0 .1 0 0 0 0zM60.2 51.9c-.1.1-.1.1-.2.1.1 0 .1 0 .2-.1z"/>
    <path class="st5" d="M60.4 51.7c-.1-.1-.2-.3-.1-.5 0-.2.1-.3.3-.3h-.2.1c-.1-.1-.1-.3-.1-.5 0-.1.1-.1.1-.2-.1-.1-.2-.2-.2-.3v.6c0 .2 0 .5-.2.7H60c0-.2 0-.5.1-.7v-1.7c-.2-.2-.3-.6-.2-1v-.1h-.1c-.2.2-.4.3-.6.4-.2.1-.5.2-.7.2-.5.1-1 .2-1.5.5.2-.2.6-.4.9-.5-.7 0-1.9.2-2.6.8 0 .2.1.5.2.7l.3.6c.7 1 2 1.3 3.1 1.5.5.1 1 .1 1.5.1-.1-.1 0-.1 0-.3zm-1.2-1.6c-.2.1-.4.1-.6.1-.2 0-.4.1-.6.1l-1.2.3s-.1-.1 0-.1c.4-.2.8-.3 1.2-.5.2-.1.4-.1.6-.1.2 0 .4-.1.6 0v.2zM54.8 51.2c.1.4.4.6.8.7-.4-.1-.7-.3-.8-.7z"/>
    <path class="st5" d="M59.9 52h-.5c.2.1.4.1.5 0zM59.4 52.1h-.5.5zM54.6 50.5v-.3.3zM58.8 52h-.2.2zM58.4 52zM59.4 47.8s.1 0 .1-.1c0 .1 0 .1-.1.1z"/>
    <path class="st6" d="M54.3 45c0-.1 0 0 0 0-.2.8-.2 1.7-.1 2.5 0 .4.1.8.2 1.2v.2l.3 1c.1-.3.3-.6.5-.8-.2-.6-.2-1.1-.2-1.8 0-.8-.5-2-.3-2.8 0 0-1.4 1.5-1.7 1.8-1 .8-1.7 1-2.6 1.2l-.3.3c-.1.2-.2.2-.3.3-.1.1-.2.2-.3.2-.1.1-.2.2-.3.2-.1.1-.2.1-.3.2-.3.2-.6.4-1 .5l.1.1s.1 0 .1.1c.3.1.6.1 1 .1.3 0 .7 0 1-.1.2 0 .3-.1.5-.1.1 0 .2 0 .3-.1.2 0 .3-.1.5-.1l.9-.3c.1-.1.3-.1.4-.2.6-.3 1.1-.5 1.4-.6 0-.2-.1-.4-.1-.7-.2-.6 0-1.5.3-2.3zM55.3 49.8zM55.6 52c-.3-.2-.6-.4-.8-.7.1.3.4.5.8.7z"/>
    <path class="st6" d="m55.7 50.4-.3-.6c-.1-.2-.1-.4-.2-.7-.2.2-.4.4-.5.8v.5c0-.3.2-.6.4-.9-.3.4-.3 1.1 0 1.5.3.5.9.7 1.4.7.6 0 1.2-.1 1.8-.1.4 0 .4.1.1.1h1.4c.1 0 .2 0 .2-.1-.5 0-1 0-1.5-.1-.9.2-2.2-.1-2.8-1.1z"/>
    <path class="st5" d="M59.7 47.8c-.1.4 0 .7.2 1v-.4h.1c.1.1.1.3.2.5v-.1l.1-.1c.1-.2.2-.3.4-.3.1 0 .2-.1.4 0 .1 0 .2.1.3.2 0-.1.1-.2.1-.3V48c0-.4-.2-.6-.6-.7-.4-.1-.8 0-1 .3-.1 0-.1 0-.2.2zM60.3 49.5c.1-.2.3-.3.5-.3h-.2c-.1 0-.3 0-.4.1 0-.1 0 0 .1.2z"/>
    <path class="st5" d="M60.2 49c.3-.2.7 0 .9.2h.1c.1-.1.1-.3.1-.5s-.1-.3-.3-.3c-.1-.1-.3-.1-.5 0-.1 0-.1.1-.2.1s-.1.1-.2.1v.1c.1.2.1.3.1.3z"/>
    <path class="st5" d="M60.5 48.4c-.1 0-.2.1-.3.3l.1-.1.2-.2zM60.5 50.2c.1-.1.3-.2.4-.1-.1-.1-.2-.1-.3-.1h-.3c0 .1.1.1.2.2zM61.2 49.3zM60.3 49.5v.4c.1 0 .2-.1.3-.1.2 0 .3.1.5.2V49.4c0-.1-.1-.1-.2-.2s-.2-.1-.3-.1c0 0-.2.1-.3.4zM61.3 50.2zM60.6 50.9h-.1z"/>
    <path class="st5" d="M60.5 50.2s-.1.1-.1.2c0 .2 0 .3.1.5h.4l.1-.1.1-.1c0-.1.1-.1.1-.2 0-.2-.1-.3-.2-.4l-.1-.1c-.1 0-.3.1-.4.2zM61.1 51zM61.1 51H61z"/>
    <path class="st5" d="M60.3 51.2c-.1.2 0 .4.1.5.1 0 .1.1.2.1h.2c.2-.1.4-.4.2-.6 0-.2-.1-.2-.2-.2s-.1 0-.2-.1c-.2.1-.3.1-.3.3zM61 50.9h-.1zM60.9 50.9z"/>
    <path class="st7" d="M60.6 48.3c-.2.1-.2.1-.3.2l-.1.1-.1.1c.1-.1.1-.1.2-.1s.1-.1.2-.1h.5c.1.1.3.2.3.3 0 .2 0 .3-.1.5v.1c.2-.2.3-.6 0-.8l-.1-.1c-.1-.1-.2-.1-.3-.2h-.2z"/>
    <path class="st7" d="M61.2 49.3c-.4-.3-.8-.4-1-.2v.1c.1-.1.3-.1.4-.1h.2c.1 0 .2.1.3.1.1 0 .1.1.2.2v.6l.1.1s.1-.1.1-.2 0-.2.1-.3v-.3h-.4zM61.1 50c-.1-.1-.3-.2-.5-.2-.1 0-.2 0-.3.1h.3c.1 0 .2.1.3.1 0 0 .1 0 .1.1.1.1.2.3.2.4 0 .1 0 .1-.1.2l-.1.1v.1s.1 0 .1-.1c.1 0 .1-.1.1-.2.1-.1 0-.3 0-.5 0 .1 0 0-.1-.1z"/>
    <path class="st7" d="M61 50.9h-.1c-.1 0-.2-.1-.4 0h-.1H60.7c.1 0 .1 0 .2.1.1 0 .2.1.3.2.1.2 0 .5-.2.6h-.2c-.1 0-.1 0-.2-.1l.1.1c.1.1.2.1.3.1.2 0 .3-.1.4-.2.1-.1.1-.3.1-.5 0 0 0-.1-.1-.1l-.4-.2zM56.9 48.9c.4-.3 1-.4 1.5-.5.2 0 .5-.1.7-.2.2-.1.4-.3.6-.4 0 0-.1 0-.1.1 0 0-.1 0-.1.1-.2.1-.3.1-.5.2-.3.1-.5.1-.8.2-.1 0-.2.1-.3.1h-.1c-.4-.1-.7.1-.9.4zM58.2 51.8c-.6 0-1.2.1-1.8.1-.6 0-1.1-.2-1.4-.7-.3-.5-.3-1.1 0-1.5-.3.2-.4.5-.4.9 0 .2 0 .3.1.5 0 .1.1.2.1.2.2.3.5.6.8.7 0 0 .1 0 .1.1.7.2 1.4.1 2 0 .2 0 .4 0 .5-.1.4-.1.4-.1 0-.2zM58.6 50c-.2 0-.4.1-.6.1-.4.1-.8.3-1.2.5v.1l1.2-.3c.2 0 .4-.1.6-.1.2 0 .4 0 .6-.1v-.1c-.2-.2-.4-.1-.6-.1zM54.6 49.9c-.1-.4-.2-.7-.3-1v-.2c-.1-.4-.1-.8-.2-1.2-.1-.8 0-1.7.2-2.5h-.1c-.3.8-.4 1.7-.4 2.6 0 .2 0 .5.1.7 0 .2.1.4.2.6.1.3.3.7.5 1zM60 49.8v.7c0 .2-.1.5-.1.7 0 .1.1.1.1 0 .1-.2.2-.5.2-.7V48.9c0-.2-.1-.4-.2-.5h-.1v.7c.1.2.1.5.1.7z"/>
    <path class="st5" d="M51.3 36.8c0-.3-.1-.5-.1-.8 0 .2.1.5.1.8zM33.5 28.9c0 .3-.1.5-.2.8 0 0 0 1.9 1.2 3.7 1.3 1.9 2.5 1.5 3.9 1.8.8.1 1.8.5 2.9.5 2.2 0 4.3.4 5.8-1.9 1-1.5 1-4 1-4 0-.1 0-.2-.1-.3-.3-1.6-.1-3.4.2-3.7v-.1c-.7.3-1.4.6-2.3.8-1 1-3 1.7-5.3 1.7-2.4 0-4.5-.8-5.4-1.9-.2-.1-.5-.2-.7-.3-.5-.2-1-.4-1.4-.7.6.2.7 2 .4 3.6zm12.2 2.7c.2 0 .3.1.3.3 0 .2-.1.3-.3.3-.2 0-.3-.1-.3-.3 0-.2.1-.3.3-.3zm-6.8.7c.4-.2.8-.4 1.2-.5 1.1-.2 2.3 0 3.2.5.6.3 1 .8 0 .9-.3 0-.7-.2-1-.2-.6-.1-1.2-.1-1.7 0-.4.1-.8.3-1.3.3-.5.1-1-.1-1.1-.4 0-.3.4-.5.7-.6zm-3.3-.7c.2 0 .3.1.3.3 0 .2-.1.3-.3.3-.2 0-.3-.1-.3-.3 0-.2.1-.3.3-.3zM29.9 37.3c.1-.5.1-.9.2-1.4-.1.4-.1.9-.2 1.4zM51.4 37.8v-.1.1zM51.3 36.8c0 .3.1.6.1.8 0-.2 0-.5-.1-.8zM29.9 37.3v.4-.4zM30.2 35.2c0 .2-.1.4-.1.6 0-.2.1-.4.1-.6z"/>
    <path class="st6" d="M42.6 37.8c.9-.5 1.7-.9 1.7-.9s-.6-.1-.8-.2c-.4-.1-.5-.6 0-.8.6-.2 3.2-.3 3.2-.3.7-.7 1.5-1.6 1.8-2.9.3-1.1-.1-1.7-.4-3 0 0-.1 2.5-1 4-1.5 2.3-3.6 1.9-5.8 1.9-1.1 0-2.1-.3-2.9-.5-1.4-.3-2.6.1-3.9-1.8-1.3-1.8-1.2-3.7-1.2-3.7-.3 1-.6 1.6-.3 2.5.4 1.3 1.2 2.2 1.8 2.9 0 0 2.7.1 3.2.3.5.2.4.7 0 .8-.2.1-.8.2-.8.2s.7.5 1.7.9c.3.1.1.6-.4.6-.3 0-1.3-.4-1.3-.4s.6.5 1 .8h1.7c.9 0 1.7 0 2.5-.1 0 .1 0-.2.2-.3zM43.5 38.3h.4c.2-.1.3-.2.3-.2s-.3.1-.7.2zM33.7 38.3c-.2-.3-.5-.7-.6-1.2-1.1-.3-2.1-1-2.9-1.9 0 .2-.1.4-.1.6v.1c-.1.5-.1.9-.2 1.4v.5c.4.1 1.6.3 3.8.5zM48.6 37.5c-.1.2-.1.4-.2.5 1.6-.1 2.7-.2 3.1-.3v-.1c0-.3-.1-.6-.1-.8 0-.3-.1-.5-.1-.8-.8.7-1.7 1.3-2.7 1.5z"/>
    <path class="st8" d="M35.6 45.2c1 .5 1.7 1.3 2.3 2 .3.1.5.3.8.4.6-.1 1.1-.5 1.6-.6.2-.5.7-.6 1.1-.5.5.1.7.4.6 1 0 .1-.1.2-.1.3l.1.1v.2c3.6-.5 7-2.7 10-4.9.1-.5.1-1 .1-1.5.2-.2.3-.5.3-.8 0 .1-.1.1-.1.1-.5.2-3 .6-3.4.4-.4-.2-.7-1.6-.4-1.9.3-.3 2.9-.7 3.7-.8-.2-.6-.4-1.1-.6-1h-.2c-.4 0-1.4.2-3.1.3-.5 1.1-1.3 1.6-1.6 1.8-.3.2-.9.9-1 1-.4.3-.8.2-.7-.1.1-.3.6-1.1.6-1.1s-.9.9-1.3 1c-.6.3-1-.1-.7-.4.3-.4 1.3-1.3 1.3-1.3s-1.1.6-1.6.8c-.5.1-.6-.4-.3-.6.2-.2.7-.5 1-.8h-.4c-.2.1-.5.1-.6.1-.1 0-.2 0-.3-.1-.8 0-1.6.1-2.5.1h-1.7c.1.1.2.1.2.2.3.2.2.8-.3.6-.5-.1-1.6-.8-1.6-.8s1 .9 1.3 1.3c.2.3-.1.7-.7.4-.4-.2-1.3-1-1.3-1s.4.8.6 1.1c.1.3-.3.5-.7.1-.1-.1-.7-.8-1-1-.3-.2-.7-.5-1.2-1.1-2.2-.2-3.5-.4-3.9-.5h-.2c-.2 0-.4.4-.6 1 .3 0 3.6.5 3.9.8.3.3 0 1.7-.4 1.9-.4.2-2.9-.2-3.4-.4.1.2.2.4.4.5 0 1 .1 1.9.3 2.7 1.6-.6 4.1 0 5.7 1zm5.1-3c3.1 0 9.3-.5 9.3-.5s-5.7 1.3-9.3 1.4c-4 0-8.8-1.4-8.8-1.4s5.7.5 8.8.5zM46.4 49.9c-.1 0-.2.1-.4.1.1-.1.3-.1.4-.1zM43.9 50.3h-.3.3zM42.2 50.4H42h.2zM43.3 50.3H43c.1.1.2 0 .3 0zM42.8 50.4h-.3.3zM44.9 50.2h-.3.3zM45.4 50.1c-.1 0-.2 0-.3.1.1-.1.2-.1.3-.1zM44.4 50.2h-.3c.1.1.2 0 .3 0zM45.9 50c-.1 0-.2 0-.3.1.1-.1.2-.1.3-.1zM50.3 47.6c.9-1 1.5-2.5 1.7-4.3-.2 1.8-.8 3.2-1.7 4.3zM49.4 48.4c-.1.1-.2.2-.3.2.1 0 .2-.1.3-.2zM50.1 47.8l.3-.3-.3.3zM48.8 48.9c-.7.4-1.5.7-2.3 1 .5-.1.9-.3 1.3-.5.3-.2.7-.3 1-.5zM49.7 48.2c-.1.1-.2.2-.3.2.2-.1.3-.2.3-.2zM50 47.9c0 .1-.1.1-.2.2.1-.1.2-.1.2-.2zM49.1 48.7c-.1.1-.2.1-.3.2.1-.1.2-.2.3-.2z"/>
    <path class="st9" d="M48.8 48.9c.1-.1.2-.1.3-.2.1-.1.2-.1.3-.2.1-.1.2-.2.3-.2.2-.3.3-.3.3-.4l.3-.3c.9-1 1.5-2.5 1.7-4.3-2.9 2.2-6.4 4.4-10 4.9 0 .2-.1.4-.2.5v.3c0 .1 0 .2-.1.3 0 .1-.1.1-.1.2l.1.1c.1.1.1.3 0 .5 0 .1-.1.1-.1.2l-.1.1s0 .1.1.1H45c.1 0 .2 0 .3-.1h.2c.1 0 .2 0 .3-.1h.1c.1 0 .2-.1.4-.1 1-.6 1.8-.9 2.5-1.3zM35.6 45.2c.9.5 1.6 1.2 1.8 1.7.1.1.3.1.4.2-.4-.6-1.1-1.4-2.2-1.9z"/>
    <path class="st7" d="M43 26.8h-3.3c-.5 0-.9-.1-1.4-.1-.7-.1-1.3-.2-1.9-.3l-.9-.3c.9 1.1 3 1.9 5.4 1.9 2.3 0 4.3-.7 5.3-1.7-1.1.2-2.1.4-3.2.5z"/>
    <path class="st6" d="M29 17.8c0-.5-.1-1.1-.1-1.8V14.8c-.4-.5-.8-.9-1.2-1-.9-.2-1.6.7-1.7 2.1-.1 1.2 1 2.8 2.1 3.4.5.3.9.3 1.3.2 0-.2-.1-.3-.1-.5-.2-.4-.3-.8-.3-1.2zm-.6 0-.1.2-.1-.3c-.1-.3-.2-.6-.4-.9-.2-.3-.4-.5-.8-.6.4 0 .7.3.9.5.1.1.2.3.3.5-.1-.5-.1-1-.3-1.4-.1-.3-.2-.6-.5-.7-.2-.2-.5-.1-.8.1.1-.1.2-.3.4-.4.2-.1.4-.1.6 0 .2.1.3.2.5.4.1.1.2.3.3.5.1.3.2.7.2 1-.1.4-.1.7-.2 1.1z"/>
    <path d="M28 15.2c-.1-.2-.3-.3-.5-.4-.2-.1-.4-.1-.6 0-.2.1-.3.2-.4.4.3-.2.6-.2.8-.1.2.2.4.4.5.7.2.4.2.9.3 1.4-.1-.2-.2-.3-.3-.5-.2-.3-.5-.5-.9-.5.4 0 .6.3.8.6.2.3.3.6.4.9l.1.3.1-.3c.1-.3.1-.7.1-1 0-.3-.1-.7-.2-1 0-.2-.1-.3-.2-.5z" style="fill:#d3927b"/>
    <path class="st11" d="M51.9 18.1c1.3 0 1.6-4.3.1-4.8-.4-.1-.8-.1-1.1.1 0 .5 0 1 .2 1.5.3 1.1.6 2.1.8 3.2z"/>
    <path class="st5" d="M29.1 10.4c.1-.3.1-.5.2-.8-.1.3-.1.5-.2.8zM28.8 13.6c0-.6.1-1.3.1-1.9-.1.6-.1 1.3-.1 1.9zM30.5 7c.1-.2.2-.4.4-.6-.2.2-.3.4-.4.6zM29.7 8.6c.1-.3.2-.5.3-.7-.1.2-.2.4-.3.7zM33.3 25.2l-1.2-.9 1.2.9zM40.4 2.6c-.1.1-.1.2-.2.4h.4c-.1-.1-.1-.2-.2-.4zM29.9 21.5c-.3-.5-.5-1.1-.6-1.6.2.5.4 1 .6 1.6zM31.8 24c-.8-.8-1.4-1.6-1.8-2.5.4.9 1 1.7 1.8 2.5zM30.1 7.7l.3-.6-.3.6z"/>
    <path class="st5" d="M40.8 3c1.3 0 2.7.3 3.9.8.8.3 1.6.7 2.3 1.2 1.5 1 2.8 2.5 3.3 4.2.3.9.2 2-.5 2.6-.5.4-1.2.4-1.8.4-1.6-.1-3.2-.6-4.6-1.5-.9-.6-1.8-1.3-2.7-1.9-.9-.6-1.8-1-2.7-1.4-.7-.2-1.4-.5-1.6-1.2-.2-.6.2-1.2.6-1.6.6-.6 1.3-1.1 2.1-1.3l-.1-.1c-.1-.2-.2-.4-.1-.6-2.9.7-5.1 2.3-6.5 5.7-1.3 3.1-.9 7.3-.7 9.2.4 4.4 3.3 9.1 11.3 9.1 1 0 1.8 0 2.7-.1-.7.1-1.5.2-2.4.3 1.1-.1 2.1-.2 3-.5.9-.2 1.6-.4 2.3-.8 2.5-1.1 3.7-2.9 3.8-5.2 0-.8-.1-1.6-.2-2.3-.2-1.1-.6-2-.9-3.2-.1-.5-.2-1-.2-1.5 0-1.6.4-3.1-.3-4.8-1.9-4.2-5.9-6-10.1-6.1 0 .2.1.4.1.6zm5.3 10.2c.6-.5 2-.4 3.1.3.1.1.1.2.1.3 0 .1-.1.1-.2.1H49c-.9-.6-2.1-.6-2.6-.3-.1.1-.2.1-.3 0-.2-.1-.1-.3 0-.4zm1.9 3.2c0 .8-.4 1.1-.8 1.1-.5 0-.8-.3-.8-1.1 0-.7.4-1.1.8-1.1.4.1.8.4.8 1.1zm-8.5-.4c.3-.3.7-.6 1.1-.7 1-.3 2 0 2.8.8.5.5.9 1.2.1 1.3-.3 0-.7-.3-.9-.4-.5-.1-1-.2-1.5 0-.4.1-.7.4-1.1.5-.4.1-.9-.1-.9-.6-.3-.4.1-.7.4-.9zm2.5 3.4-.1.1c-.1 0-.1 0-.2-.1s-.1-.2 0-.3c.4-.3.5-.7.4-1-.1-.2-.2-.3-.5-.3-.1 0-.2-.1-.2-.2s.1-.2.2-.2c.4 0 .8.2.9.6.2.4-.1 1-.5 1.4zm-7.8-5.9c1.1-.7 2.5-.7 3.1-.3.1.1.1.2 0 .3-.1.1-.2.1-.3 0-.4-.3-1.6-.3-2.6.3h-.1c-.1 0-.1 0-.2-.1 0 .1 0-.1.1-.2zm2.6 2.9c0 .8-.4 1.1-.8 1.1-.5 0-.8-.3-.8-1.1 0-.7.4-1.1.8-1.1.4.1.8.4.8 1.1zm-3.7 3.2c0-.8.9-1.5 2-1.5s2 .7 2 1.5-.8.2-1.9.2c-1 0-2.1.6-2.1-.2zm8.1 3.1c-1.7 0-2.1-.6-2.1-.7-.1-.1 0-.2.1-.3.1-.1.2 0 .3.1 0 0 .3.5 1.7.5 1 0 1.6-.4 1.6-.4.1-.1.2-.1.3 0 .1.1.1.2 0 .3-.1-.1-.8.5-1.9.5zm6.2-2.9c-1.1 0-2.1.6-2.1-.2s.9-1.5 2-1.5 2 .7 2 1.5-.7.2-1.9.2zM30.9 6.3c.1-.1.3-.3.4-.5-.1.2-.3.4-.4.5z"/>
    <path class="st5" d="M39 3c.1.1.2.1.3.2.2 0 .4-.1.6-.1.2-.1.4-.3.4-.6H39c-.2.2-.2.4 0 .5zM35.2 3.1c.2-.1.4-.1.6-.2-.2.1-.4.2-.6.2zM38.7 2.5c-.7 0-1.4.1-2.1.3.6-.2 1.3-.2 2.1-.3zM35.9 2.9c.2-.1.4-.1.7-.2-.3.1-.5.2-.7.2zM32.3 4.8c.2-.1.3-.3.5-.4-.2.1-.3.2-.5.4zM31.8 5.3c.2-.2.3-.3.5-.4-.2.1-.4.2-.5.4zM34 3.7c.4-.2.8-.4 1.2-.5-.4.1-.9.3-1.2.5zM33.4 4c.2-.1.4-.2.5-.3-.1.1-.3.2-.5.3zM32.8 4.3c.2-.1.4-.2.5-.3-.1.1-.3.2-.5.3zM31.3 5.8c.1-.2.3-.3.4-.5-.1.1-.2.3-.4.5zM41 26.9h.4-.4zM38.1 26.8c.4.1.9.1 1.4.1-.5 0-.9-.1-1.4-.1zM36.3 26.4c.6.1 1.2.3 1.9.3-.7 0-1.3-.1-1.9-.3zM41.7 26.9h.5-.5zM34.7 25.9c.2.1.4.2.7.3l.9.3c-.6-.2-1.1-.4-1.6-.6zM42.3 26.8h.6-.6zM28.8 14.8v1.1-1.1zM29.1 19c-.1-.4-.1-.8-.2-1.2 0-.5-.1-1.1-.1-1.8 0 .7.1 1.4.1 1.8.1.4.2.8.2 1.2zM29.1 19c0 .2.1.3.1.5 0 .1.1.2.1.4 0-.3-.1-.6-.2-.9zM28.8 13.6V14.8v-1.2z"/>
    <path class="st6" d="M36.3 26.4c.6.1 1.2.3 1.9.3.4.1.9.1 1.4.1h3.3c.9-.1 1.6-.2 2.4-.3-.8.1-1.7.1-2.7.1-7.9 0-10.9-4.7-11.3-9.1-.2-2-.6-6.2.7-9.2 1.5-3.4 3.7-5 6.5-5.7-.7 0-1.4.1-2.1.3-.2 0-.4.1-.7.2-.2.1-.4.1-.6.2-.4.1-.8.3-1.2.5-.2.1-.4.2-.5.3h-.1c-.2.1-.3.2-.5.3h-.1c-.2.1-.3.2-.5.4-.2.1-.3.3-.5.4-.2.2-.3.3-.4.5-.1.3-.3.5-.4.6l-.1.1c-.1.2-.2.4-.4.6 0 0 0 .1-.1.1l-.3.6v.1c-.1.2-.2.5-.3.7-.1.3-.3.7-.4 1.1-.1.3-.1.5-.2.8-.1.4-.2.9-.2 1.3-.1.6-.1 1.3-.1 1.9v2.3c0 .7.1 1.4.1 1.8 0 .4.1.8.2 1.2.1.3.1.5.2.8.2.5.4 1.1.6 1.6.4.9 1 1.8 1.8 2.5l.3.3c.4.3.7.6 1.2.9.4.3.9.5 1.4.7.6.4 1.1.6 1.7.7z"/>
    <path class="st11" d="M43.1 21.8c-.1-.1-.2-.1-.3 0 0 0-.6.4-1.6.4-1.4 0-1.7-.4-1.7-.5-.1-.1-.2-.1-.3-.1-.1.1-.2.2-.1.3 0 .1.4.7 2.1.7 1.1 0 1.8-.5 1.9-.5.1-.1.1-.2 0-.3z"/>
    <path class="st12" d="M46.3 16.4c0 .8.4 1.1.8 1.1.5 0 .8-.3.8-1.1 0-.7-.4-1.1-.8-1.1-.4.1-.8.4-.8 1.1zm.4.4c-.1 0-.2-.1-.2-.2s.1-.2.2-.2.2.1.2.2-.1.2-.2.2zm1-.7c0 .2-.2.4-.4.4s-.4-.2-.4-.4.2-.4.4-.4.4.2.4.4z"/>
    <path class="st13" d="M46.9 16.1c0 .2.2.4.4.4s.4-.2.4-.4-.2-.4-.4-.4-.4.2-.4.4zM46.7 16.5c-.1 0-.2.1-.2.2s.1.2.2.2.2-.1.2-.2-.1-.2-.2-.2z"/>
    <path class="st12" d="M35.2 16.4c0 .8.4 1.1.8 1.1.5 0 .8-.3.8-1.1 0-.7-.4-1.1-.8-1.1-.5.1-.8.4-.8 1.1zm.4.4c-.1 0-.2-.1-.2-.2s.1-.2.2-.2.2.1.2.2-.1.2-.2.2zm1-.7c0 .2-.2.4-.4.4s-.4-.2-.4-.4.2-.4.4-.4.4.2.4.4z"/>
    <path class="st13" d="M35.8 16.1c0 .2.2.4.4.4s.4-.2.4-.4-.2-.4-.4-.4c-.3 0-.4.2-.4.4zM35.6 16.5c-.1 0-.2.1-.2.2s.1.2.2.2.2-.1.2-.2-.1-.2-.2-.2z"/>
    <path class="st14" d="M37.2 19.6c0-.8-.9-1.5-2-1.5s-2 .7-2 1.5 1 .2 2.1.2 1.9.6 1.9-.2zM47.3 18.1c-1.1 0-2 .7-2 1.5s1 .2 2.1.2 1.9.6 1.9-.2c0-.9-.9-1.5-2-1.5z"/>
    <path class="st11" d="M46.3 13.6c.4-.3 1.6-.3 2.6.3h.1c.1 0 .1 0 .2-.1s0-.2-.1-.3c-1.1-.7-2.5-.7-3.1-.3-.1.1-.1.2 0 .3.1.2.2.2.3.1zM34.3 14h.1c.9-.6 2.1-.6 2.6-.3.1.1.2.1.3 0 .1-.1.1-.2 0-.3-.6-.5-2-.4-3.1.3-.1.1-.1.2-.1.3.1-.1.2 0 .2 0z"/>
    <path class="st7" d="M42.5 17.9c-.1-.4-.5-.6-.9-.6-.1 0-.2.1-.2.2s.1.2.2.2c.3 0 .4.1.5.3.1.3 0 .7-.4 1-.1.1-.1.2 0 .3 0 .1.1.1.2.1 0 0 .1 0 .1-.1.4-.3.7-.9.5-1.4z"/>
    <path class="st6" d="M28.5 47.7v-.2.2zM31.4 45c1.9 0 4 1 6 2-.2-.6-.9-1.2-1.8-1.7-1.7-1-4.1-1.6-5.6-1.1-.6.3-1.4 1.7-1.5 3.3.1-1.4 1.1-2.5 2.9-2.5zM28.5 47.8v.3-.3z"/>
    <path class="st5" d="M28.5 48.1c.2 1.6 1.3 2.5 2.9 3 2.1.7 6.8-.2 6.8-.2-.5 0-1.2-3.4.3-3.4h.2c-.3-.1-.5-.2-.8-.4-.1-.1-.3-.1-.4-.2-2-1-4.1-1.9-6-2-1.8 0-2.8 1.1-2.9 2.5V47.7c-.1.2-.1.3-.1.4zm2 .6s-.1.1 0 0l-.1.1-.1-.1-.1-.1v-.1c-.1-.1 0-.1.1-.1 0 0 .1 0 .1.1l.1.1.1.1c-.2-.1-.2-.1-.1 0zm-.1-.5-.1-.1-.1-.1-.1-.1-.1-.1v-.1h.1s.1 0 .1.1l.1.1v.2c.2.1.2.1.1.1z"/>
    <path class="st5" d="M41 51.2c0-.1-.1-.1-.1-.2-.1-.1-.2-.3-.1-.5 0-.2.1-.3.3-.3h-.2.1c-.1-.1-.1-.3-.1-.5 0-.1.1-.1.1-.2-.1-.1-.2-.2-.2-.3h-.1s.1 0 .1-.1v-.4c-.1-.1-.1-.2-.1-.3V48.1c-.4-.2-.5-.7-.4-1.1v-.1c-.4.1-.9.5-1.6.6h-.2c-1.5 0-.9 3.4-.3 3.4.5 0 2.1.8 2.7.4.1 0 .1 0 .1-.1z"/>
    <path class="st5" d="M40.7 48.2V48l.1-.1c.1-.2.2-.3.4-.3.1 0 .2-.1.4 0 .1 0 .2.1.3.2 0-.1.1-.2.1-.3.1-.6-.1-.9-.6-1-.4-.1-.9 0-1.1.5v.1c-.2.4 0 .9.4 1.1zM41.3 48.4h-.2c-.1 0-.3 0-.4.1 0 .1.1.2.1.3.1-.3.3-.4.5-.4z"/>
    <path class="st5" d="M41.1 47.6c-.1 0-.2.1-.3.3l.1-.1c0-.1.1-.2.2-.2z"/>
    <path class="st5" d="M41.7 48.4c.2 0 .2-.2.2-.4s-.1-.3-.3-.3c-.1-.1-.3-.1-.5 0-.1 0-.1.1-.2.1s-.1.1-.2.1v.4c.3-.2.7-.1 1 .1zM41.5 49.3c-.1-.1-.2-.1-.3-.1h-.3c0 .1.1.2.2.3.1-.2.2-.2.4-.2z"/>
    <path class="st5" d="M41.2 49.1c.2 0 .3.1.5.2V48.7c0-.1-.1-.1-.2-.2s-.2-.1-.3-.1c-.2 0-.4.1-.5.3v.4h.5zM41.7 48.5zM41.5 50.2l.2-.1c0-.1.1-.1.1-.2 0-.2-.1-.3-.2-.4l-.1-.1c-.2 0-.3 0-.4.1 0 0-.1.1-.1.2 0 .2 0 .3.1.5h.4zM41.8 49.5zM41.1 50.1zM41.6 50.2zM41.6 50.3z"/>
    <path class="st5" d="M40.8 50.4c-.1.2 0 .4.1.5.1 0 .1.1.2.1h.2c.2-.1.4-.4.2-.6-.1-.1-.2-.1-.3-.2-.1 0-.1 0-.2-.1 0 .1-.2.2-.2.3zM41.5 50.2zM41.4 50.1z"/>
    <path class="st7" d="m30.5 48-.1-.1-.1-.1h-.1v.1l.1.1.1.1.1.1h.1c.1 0 .1 0 .1-.1l-.2-.1zM30.5 48.7c0-.1 0-.1-.1-.1l-.1-.1-.1-.1s-.1 0-.1-.1c-.1 0-.1 0-.1.1v.1l.1.1.1.1c.2.1.3 0 .3 0zM41.2 47.6c-.2.1-.2.1-.3.2l-.1.1-.1.1c.1-.1.1-.1.2-.1s.1-.1.2-.1h.5c.1.1.3.2.3.3 0 .2 0 .3-.1.5v.1c.1-.1.2-.3.2-.5 0-.1 0-.2-.1-.4l-.1-.1c-.1-.1-.2-.1-.3-.2-.1 0-.2 0-.3.1z"/>
    <path class="st7" d="M41.8 48.5c-.4-.3-.8-.4-1.1-.2v.1c.1-.1.3-.1.4-.1h.2c.1 0 .2.1.3.1.1 0 .1.1.2.2v.6l.1.1s.1-.1.1-.2 0-.2.1-.3v-.3h-.3zM41.6 49.3c-.1-.1-.3-.2-.5-.2-.1 0-.2 0-.3.1 0 0-.1 0-.1.1h.4c.1 0 .2.1.3.1 0 0 .1 0 .1.1.1.1.2.3.2.4 0 .1 0 .1-.1.2l-.1.1-.1.1s.1 0 .1-.1c.1 0 .1-.1.1-.2.1-.1 0-.3 0-.5.2-.1.1-.1 0-.2z"/>
    <path class="st7" d="m41.7 50.3-.1-.1c-.1 0-.2-.1-.4 0h-.1H41.4c.1 0 .1 0 .2.1-.2-.1-.1 0 .1 0 0 .3-.1.6-.3.7h-.2c-.1 0-.1 0-.2-.1l.1.1h.2c.2 0 .3-.1.4-.2.1-.1.1-.3.1-.5-.1.1-.1 0-.1 0zM41.1 51l-.1.2-.1.1c.1 0 .1-.1.1-.1l.1-.2zM45.7 32.2c.2 0 .3-.1.3-.3 0-.2-.1-.3-.3-.3-.2 0-.3.1-.3.3 0 .2.1.3.3.3zM35.6 32.2c.2 0 .3-.1.3-.3 0-.2-.1-.3-.3-.3-.2 0-.3.1-.3.3 0 .2.1.3.3.3z"/>
    <path class="st15" d="M39.8 17.5c.4-.1.7-.3 1.1-.5.5-.2 1-.2 1.5 0 .3.1.7.4.9.4.8-.1.5-.8-.1-1.3-.8-.8-1.8-1.1-2.8-.8-.4.1-.7.5-1.1.7-.3.2-.6.6-.6 1 .2.4.7.6 1.1.5zM39.3 33.3c.5-.1.8-.2 1.3-.3.6-.1 1.2-.1 1.7 0 .3 0 .7.2 1 .2 1-.1.5-.6 0-.9-.9-.5-2-.7-3.2-.5-.5.1-.8.3-1.2.5-.3.2-.7.4-.7.6.1.3.7.4 1.1.4zM39.7 3.1c-.1 0-.3 0-.5.1.2 0 .4 0 .5-.1z"/>
    <path class="st15" d="M36.2 6.2c.2.7 1 1 1.6 1.2 1 .4 1.9.8 2.7 1.4.9.6 1.8 1.3 2.7 1.9 1.4.9 3 1.4 4.6 1.5.6 0 1.3 0 1.8-.4.7-.6.8-1.7.5-2.6C49.8 7.4 48.5 6 47 5c-.7-.5-1.5-.9-2.3-1.2-1.2-.5-2.6-.8-3.9-.8.1.4.1.8 0 1.2l-.1.1c-.1 0-.1-.1-.1-.1.2-.4.2-.8 0-1.1V3h-.4c-.1.1-.2.2-.4.3-.3.1-.6.1-.9 0-.8.2-1.5.7-2.1 1.3-.4.4-.7 1-.6 1.6z"/>
    <path class="st12" d="M38.7 2.5c-.1.2 0 .4.1.6l.1.1c.3.2.6.2.9 0 .2 0 .3-.1.4-.2.1-.1.2-.2.2-.4.1.1.1.2.2.3V3c.1.3.1.7 0 1.1 0 .1 0 .1.1.1 0 0 .1 0 .1-.1.2-.4.2-.9 0-1.2-.1-.2-.2-.3-.3-.5.1-.3.1-.7 0-1-.3-.5-.7-1-1.5-1.4h-.1v.1c.5.2 1.1.7 1.3 1.3.1.2.1.5.1.7l-.6-.3c-.3-.1-.7 0-.9.3 0 .2-.1.3-.1.4zm.3-.1c.1-.1.3-.2.5-.2h.2c.2 0 .4.1.6.3-.1.2-.2.4-.4.6l-.1.1c-.1.1-.3.1-.5.1-.2-.2-.3-.2-.3-.3-.1-.1-.1-.3 0-.5-.1-.1 0-.1 0-.1z"/>
    <path d="M50.1 41.8s-6.2.5-9.3.5c-3.1 0-8.8-.5-8.8-.5s4.8 1.4 8.8 1.4c3.6-.1 9.3-1.4 9.3-1.4z" style="fill:#d8cab8"/>
    <path class="st17" d="M32.7 41.4c.4-.2.7-1.6.4-1.9-.3-.3-3.6-.8-3.9-.8-.3 0-.3 2 .2 2.2.4.3 2.9.7 3.3.5zM48.5 39.5c-.3.3 0 1.7.4 1.9.4.2 2.9-.2 3.4-.4.1 0 .1-.1.1-.1.1-.1.1-.3.2-.5.1-.7 0-1.6-.1-1.6h-.2c-.9.1-3.5.5-3.8.7z"/>
    <path class="st5" d="m33.1 37.1 1.8-2c-.7-.7-1.5-1.6-1.8-2.9-.3-.9 0-1.5.3-2.5.1-.2.1-.5.2-.8.3-1.6.1-3.5-.2-3.7-1.2-.8-4.5 3-4.4 6.2.1 1.6.5 2.9 1.3 3.8.7.9 1.7 1.6 2.8 1.9zm-3.3-6.4c-.2 0-.3-.1-.3-.3 0-.2 0-.3.1-.5.3-1 .7-1.9 1.3-2.8.3-.4.6-.9 1-1.2.4-.3.8-.2.6.4-.1.3-.2.5-.4.7-.4.6-.8 1.2-1.1 1.9-.3.5-.5 1.1-.9 1.6-.1.1-.2.2-.3.2zM38.7 38c.5-.1.7-.5.4-.6-.9-.5-1.7-.9-1.7-.9s.6-.1.8-.2c.4-.1.5-.6 0-.8-.6-.2-3.2-.3-3.2-.3l-1.8 2c.2.5.4.9.6 1.2.5.6.9.9 1.2 1.1.3.2.9.9 1 1 .4.3.8.2.7-.1-.1-.3-.6-1.1-.6-1.1s.9.9 1.3 1c.6.3 1-.1.7-.4-.3-.4-1.3-1.3-1.3-1.3s1.1.6 1.6.8c.5.1.6-.4.3-.6-.1 0-.1-.1-.2-.2-.4-.3-1-.8-1-.8s1 .2 1.2.2zM48.1 29.4c0 .1 0 .2.1.3.3 1.3.7 1.9.4 3-.4 1.3-1.2 2.2-1.8 2.9l1.8 2c1-.3 1.9-.8 2.6-1.6.9-1 1.5-2.4 1.6-4.2.1-3.2-3.2-7-4.4-6.2-.4.3-.5 2.1-.3 3.8zm1.9-3.1c.4.3.7.8 1 1.2.6.8 1.1 1.8 1.3 2.8 0 .2.1.3.1.5s-.2.3-.3.3c-.1 0-.2-.1-.3-.2-.4-.4-.6-1-.9-1.6-.3-.7-.7-1.3-1.1-1.9-.2-.2-.3-.4-.4-.7-.2-.5.2-.7.6-.4z"/>
    <path class="st5" d="M46.7 35.6s-2.7.1-3.2.3c-.5.2-.4.7 0 .8.2.1.8.2.8.2s-.7.5-1.7.9c-.2.1-.2.4.1.5.1 0 .2.1.3.1.1 0 .3 0 .6-.1s.7-.3.7-.3-.1.1-.3.2c-.3.2-.7.6-1 .8-.3.2-.2.8.3.6.5-.1 1.6-.8 1.6-.8s-1 .9-1.3 1.3c-.2.3.1.7.7.4.4-.2 1.3-1 1.3-1s-.4.8-.6 1.1c-.1.3.3.5.7.1.1-.1.7-.8 1-1 .3-.2 1.1-.7 1.6-1.8.1-.2.2-.3.2-.5l-1.8-1.8z"/>
    <path class="st15" d="M49.7 27.5c.4.6.8 1.2 1.1 1.9.3.5.5 1.1.9 1.6.1.1.2.2.3.2.2 0 .3-.1.3-.3 0-.2 0-.3-.1-.5-.3-1-.7-1.9-1.3-2.8-.3-.4-.6-.9-1-1.2-.4-.3-.8-.2-.6.4.1.2.3.5.4.7zM32.1 27.1c.2-.2.3-.4.4-.7.1-.6-.2-.8-.6-.4-.4.3-.7.8-1 1.2-.6.8-1.1 1.8-1.3 2.8 0 .2-.1.3-.1.5s.2.3.3.3c.1 0 .2-.1.3-.2.4-.4.6-1 .9-1.6.2-.7.6-1.3 1.1-1.9z"/>
    <path class="st18" d="M45.8 60.3c-.4-3.1-3.8-7.2-6.2-9-4.2-3.2-10.5-5.6-15.4-7.1-4.6-1.5-13.7-3-16 2.9-2.2 5.4.8 13.4 4.9 16.8 5.6 4.7 11.3 4.7 18.3 4.7 3.3 0 7.4-.7 10.4-2.6 2.3-1.6 1.5-5.1 4-5.7z"/>
    <path class="st18" d="M39.7 58.8c.5-3.1 3.9-7.2 6.3-9 4.2-3.2 10.5-5.5 15.4-7 4.6-1.4 13.7-2.9 16 3 2.1 5.5-1 13.4-5 16.8-5.7 4.7-11.4 4.7-18.4 4.6-3.3 0-7.4-.8-10.3-2.7-2.5-1.5-1.5-5.1-4-5.7z"/>
    <path class="st3" d="M48.4 87.7v1.8c2 .6 4.3.4 6.3-.1 2.6-.7 4.9-2.1 7.1-3.6 8.5-5.6 16.2-12.5 22.6-20.3-7.4 1.3-14.9 2.6-21.6 5.9-6.7 3.4-12.6 9.1-14.3 16.4 0-.1 0-.1-.1-.1z"/>
</svg>
