<svg xmlns="http://www.w3.org/2000/svg" width="146.6" height="259.1" style="overflow:visible;enable-background:new 0 0 146.6 259.1" xml:space="preserve">
    <style>
        .st1{fill:#c6545a}.st2{fill:#cb6b6d}.st3{fill:#a9b871}.st4{fill:#7eb0dc}.st5{fill:#fbc19e}.st6{fill:#f5b393}.st7{fill:#e9a085}.st8{fill:#f3ece1}.st9{fill:#e0d9cf}.st11{fill:#de9a80}.st12{fill:#533739}.st13{fill:#fff}.st14{fill:#f7a592}.st15{fill:#fbcbaa}.st17{fill:#d6d6d8}.st18{fill:#d1818a}
    </style>
    <path d="M66.1 258.9c-1-.5-1.5-1.6-1.3-2.6l5.1-20.4c3.2-13.5 5.7-27.1 7.3-40.9 1.6-13.8 2.3-27.7 2.1-41.6-.3-13.7-1.9-27.5-7.2-40.3-1.1-2.8 3.4-4 4.5-1.3 6 14.4 7.4 30.2 7.4 45.7 0 27.8-3.6 55.4-10.2 82.3-1.4 5.8-2.9 11.7-4.4 17.6-.4 1.4-2 2.1-3.3 1.5z" style="fill:#6b933e"/>
    <path class="st1" d="M16.9 82C12.7 80.4 3 60 1.5 55.4.2 51.4.3 44.2 4.1 41.8c3.9-2.4 9 0 12.4 2.2 1.1.7 1.8 1.6 2.7 2.6 1.9 1.9 4 3.6 6 5.3 1.7 1.5 3.9 3 5.2 5.1-.1-6.4.4-13.3 1.6-19.5 1-4.9 5.6-12.6 11-11.4 4 .9 6.7 5.6 9 8.8 2.2 3 4.4 5.9 6.3 9.2 1.1 1.9 2.3 4 3.6 5.7.7-3 1.8-6 3.3-8.7 1.6-3-.6-13 14.6-13.4 3.5-.1 5.9 3.3 7.4 6.4 1.5 3 2.5 6.5 2.8 9.8.1 1.4-.4 3.7.2 4.7.4-4.7 5.6-9.5 9.1-11.8 3-2 6.9-4.2 10.5-3.8 3.3.3 7.2 2.3 9.2 5.3 2.1 3.2 1.9 8.7.5 12.2-1.2 3-3.4 5.6-5.4 8.1-3.1 3.9-5.9 8.5-10.4 10.5-3.6 1.6-7.7 1.9-11.5 2.6-3.5.6-7.1 2-10.6 1.9M120.6 57.3c5.6-6.4 14.4-6 19.5.2 3.1 3.8 5.7 8.9 4.5 14.3-2 9.2-9.6 15.8-16.3 20.6-4.9 3.5-9.5 5.5-15 7.1-1.4.4-1.8-.1-2.7.9-.8-6.1-1.1-12.4-1.1-18.6"/>
    <path class="st2" d="M43.8 100.2c-14-.5-20.2-12-23.5-25.4-2.1-8.7-5.5-23.2 3.1-29.2 13.8-9.8 19.6 9.6 27.8 17 0-9.8 2.5-25.4 14.4-24.2 6.7.7 9.8 9.1 10.8 15.7 3.4-8.3 8-17 17.5-15.6 6.2.9 7.4 8.1 6.8 14.8 3.6-8.2 13.7-11.6 19.8-5.6 9.5 9.5 3.3 26.7-2.8 36.3-6.4 10.1-19.4 14.9-30.1 16.7-9.9 1.7-21 2-30.9 2-4.4-.1-11.1.8-12.9-2.5z"/>
    <path class="st2" d="M32.1 110.2c-9.3-5.1-16.3-8.7-22.9-17.9C3.5 84.4-.9 75.8.2 65c.5-5 2.6-7.6 7.5-7.2 5.6.5 6.5 4.8 9.1 9.8 2.2 4.3 5.1 8.1 8.8 11.6 2.2 2.1 7.4 5 8.3 8"/>
    <path class="st3" d="M76.3 201.9c0-.7.2-.8.2-1.5-11.8-25.1-37.3-44.1-64.9-48.2 9.6 11.8 19.3 23.6 30.5 34C51.6 195 63 203.1 76 203.8c0-.6.3-1.4.3-1.9z"/>
    <path class="st4" d="M94.2 84.8c.2.6.4 1.2.5 1.8v-.1l-.5-1.7zM100.9 83.6c.4-.1.9-.2 1.3-.3.3-.1.6-.1.9-.3.1 0 .1-.1.2-.1s.1-.1.2-.1h.1c0-.1.1-.2.2-.3-.9-.2-1.8-.3-2.7-.5-.4.9-.7 1.6-.8 1.8.2-.1.4-.1.6-.2z"/>
    <path class="st5" d="M90.3 72.3c0 1-.1 1.8-.1 2.7-.3 3.3-1.3 5.7-2.9 7.5 1.4-.2 2.7-.7 4.4-2 .6-.5 2.9-3.2 3-3.2-.3 1.3.7 3.4.6 4.8-.1 1.1 0 2.1.3 3.1 1.2-1.1 3.3-1.3 4.5-1.3.1 0 .1 0 .2-.1.1-.2.4-.8.8-1.8.7-1.9 1.5-4.9.8-7.7-1-3.5-3.8-5.5-7.8-5.4-.6 0-1.7.4-2.9 1-.1.4-.2.7-.3.9-.1.7-.3 1.2-.6 1.5zM91.2 84.7c-.2.1-.5.2-.7.3.2-.1.5-.2.7-.3zM87.5 85.8c-.3.1-.6.1-.9.2.3-.1.6-.1.9-.2zM83 85.8l-.1-.1.1.1zM83 85.9c.1 0 .1.1.2.1.5.1 1.1.2 1.7.2-.6 0-1.1-.1-1.7-.2-.1-.1-.1-.1-.2-.1zM88.8 85.5c-.3.1-.6.2-.9.2.4 0 .7-.1.9-.2zM104.6 85.9l-.1-.2v.5c0-.1 0-.2.1-.3zM94.8 86.6c0 .1 0 .3-.1.4 0-.1 0-.2.1-.4zM104.5 86.4v.2c.1-.1 0-.2 0-.2zM104.5 90.1c-.1.1-.3.1-.4.1.1 0 .2 0 .4-.1z"/>
    <path class="st5" d="M104.8 89.8c-.2-.2-.3-.6-.2-.9.1-.3.2-.4.5-.5h-.3.3c-.1-.2-.2-.5-.1-.8 0-.1.1-.2.2-.3-.2-.1-.3-.3-.4-.5h-.1c0 .4 0 .7-.1 1.1 0 .4-.1.9-.3 1.3-.1.1-.2.1-.2 0-.1-.4 0-.8.1-1.3 0-.4.1-.9.1-1.3v-1.8c-.4-.4-.5-1-.4-1.7l.1-.1h-.1c-.3.3-.7.5-1.1.7-.4.2-.8.3-1.2.3-.9.2-1.8.3-2.6.8l-.1-.1c.4-.4 1-.7 1.5-.8-1.2 0-3.3.3-4.5 1.3l.3 1.2v.1c.1.4.3.7.5 1.1 1.1 1.8 3.4 2.3 5.3 2.5.9.1 1.7.2 2.5.1.2-.1.3-.2.4-.3l-.1-.1zm-2.1-2.8c-.3.2-.7.2-1 .2-.4 0-.7.1-1.1.2-.7.1-1.4.3-2.1.6-.1 0-.1-.1-.1-.1.7-.3 1.4-.6 2.1-.8.4-.1.7-.2 1.1-.2.3 0 .7-.1 1 0 .2-.1.2 0 .1.1zM95 88.9c.3.7.8 1.1 1.4 1.3-.6-.3-1.1-.6-1.4-1.3zM104 90.3c-.3.1-.6.1-.9.1.3-.1.6-.1.9-.1zM103 90.3c-.3 0-.6 0-.9-.1.2.1.5.1.9.1zM94.7 87.6v-.4.4zM102 90.3c-.2 0-.3 0-.4-.1.1 0 .2.1.4.1zM101.2 90.2zM103.1 83c.1 0 .1-.1.2-.1-.1 0-.1.1-.2.1z"/>
    <path class="st6" d="M94.1 78s.1 0 0 0c-.3 1.4-.4 2.9-.3 4.4l.3 2.1c0 .1 0 .2.1.3l.6 1.7c.1-.5.4-1 .8-1.3-.3-1-.4-2-.3-3.1.1-1.4-.9-3.5-.6-4.8 0 0-2.3 2.7-3 3.2-1.8 1.4-3 1.8-4.4 2-.1.2-.3.3-.4.5l-.5.5c-.2.1-.3.3-.5.4-.2.1-.3.3-.5.4-.2.1-.4.3-.6.4-.5.3-1.1.6-1.7.9l.1.1v.1c.1 0 .1.1.2.1.5.1 1.1.2 1.7.2.6 0 1.2-.1 1.8-.1.3 0 .6-.1.9-.2.1 0 .3-.1.4-.1.3-.1.6-.1.9-.2.6-.2 1.1-.3 1.6-.5.3-.1.5-.2.7-.3 1.1-.4 2-.9 2.3-1.1-.1-.4-.1-.8-.2-1.2-.2-1.5.1-2.9.6-4.4zM96 86.3zM96.4 90.1c-.6-.3-1.1-.7-1.4-1.3.3.8.8 1.1 1.4 1.3z"/>
    <path class="st6" d="M96.6 87.5c-.2-.3-.4-.7-.5-1.1v-.1c-.1-.4-.3-.8-.3-1.2-.4.3-.7.8-.8 1.3 0 .1 0 .3-.1.4v.5c0-.6.3-1.1.7-1.5l.1.1c-.6.8-.6 1.9 0 2.7C96 89.7 97 90 98 90c1 0 2.1-.2 3.1-.1.7 0 .6.2.1.2h.4c.1 0 .3 0 .4.1h.1c.3 0 .6.1.9.1h.1c.3 0 .6 0 .9-.1h.1c.1 0 .3-.1.4-.1-.8 0-1.7 0-2.5-.1-2-.3-4.3-.8-5.4-2.5z"/>
    <path class="st5" d="M103.6 82.9c-.2.6 0 1.3.4 1.7v-.1c0-.2-.1-.4 0-.6h.1c.2.2.2.6.3.9v-.1c0-.1 0-.1.1-.2l.1-.1c.2-.3.4-.4.7-.5.2-.1.4-.1.6 0 .2 0 .4.1.5.3.1-.2.2-.3.2-.5.1-.2.1-.4.1-.6 0-.6-.4-1-1-1.2-.6-.2-1.4 0-1.7.6-.1.1-.1.2-.2.3l-.2.1zM104.6 85.8c.1-.4.5-.6.8-.6-.1 0-.2-.1-.3-.1-.2 0-.5 0-.7.1 0 .1 0 .3.1.4l.1.2z"/>
    <path class="st5" d="M104.4 85.1c.5-.3 1.2-.1 1.6.3l.1.1.1.1c.1-.2.2-.5.2-.8 0-.3-.2-.5-.5-.6-.2-.1-.5-.1-.8 0-.1 0-.3.1-.4.2-.1.1-.2.1-.3.2 0 .1 0 .1-.1.2v.1c.1-.1.1.1.1.2zM105 83.9l.1-.1c-.3.1-.5.2-.7.5l.2-.2c.2 0 .3-.1.4-.2zM105 87.1c.2-.2.5-.3.8-.2-.2-.1-.3-.2-.5-.2h-.6c0 .1.1.3.3.4zM106.2 85.5z"/>
    <path class="st5" d="M104.6 85.8c-.1.2-.1.3-.1.4V86.5c.2-.1.4-.1.6-.1.3 0 .6.2.8.3l.1-.1c0-.1.1-.1.1-.2s.1-.2.1-.4v-.4l-.3-.3c-.1-.1-.3-.2-.5-.3-.3.2-.7.4-.8.8zM106.3 87.2zM105.1 88.3h-.1zM105 87.1c-.1.1-.1.2-.2.3-.1.3 0 .6.1.8.2 0 .4 0 .6.1h.2l.1-.1.1-.1c.1-.1.1-.2.1-.3.1-.3-.1-.6-.3-.8-.1-.1-.1-.1-.2-.1 0-.1-.3 0-.5.2zM106 88.5zM105.9 88.5v-.1zM104.6 88.8c-.1.4 0 .7.2.9v-.1h.1c.1.1.2.2.3.2.1 0 .2 0 .3-.1.4-.1.7-.7.4-1-.1-.2-.3-.3-.5-.3-.1 0-.2-.1-.3-.1h-.1c-.2.1-.4.3-.4.5zM105.8 88.4l-.1-.1zM105.6 88.3z"/>
    <path class="st7" d="m105.2 83.9-.1.1c-.1.1-.3.1-.4.2l-.2.2-.1.1c.1-.1.2-.2.3-.2.1-.1.2-.1.4-.2.3-.1.5-.1.8 0 .3.1.4.3.5.6 0 .3-.1.6-.2.8l.1.1c.3-.4.4-1 .1-1.5l-.1-.1c-.1-.1-.3-.2-.5-.3-.2.1-.4.1-.6.2z"/>
    <path class="st7" d="m106.2 85.5-.2-.2c-.4-.3-1.1-.6-1.6-.2v.1c.2-.1.5-.2.7-.1.1 0 .2 0 .3.1.2.1.3.2.5.3l.3.3c.1.1.1.3 0 .4 0 .1 0 .2-.1.4 0 .1 0 .1-.1.2l-.1.1.1.1c.1-.1.1-.2.2-.3.1-.1.1-.3.1-.4 0-.2 0-.3-.1-.5V85.5z"/>
    <path class="st7" d="M106 86.8c-.2-.2-.5-.3-.8-.3-.2 0-.4 0-.6.1v.1h.7c.2 0 .4.1.5.2.1 0 .1.1.2.1.2.2.3.5.3.8 0 .1-.1.2-.1.3l-.1.1-.1.1.1.1c.1 0 .2-.1.2-.1.1-.1.2-.2.2-.3.1-.2.1-.6 0-.8v-.1c0-.1-.1-.2-.1-.2l-.4-.1zM105.8 88.4l-.2-.1c-.2-.1-.4-.1-.6-.1h-.3.4c.1 0 .2.1.3.1.2.1.4.1.5.3.2.4 0 .9-.4 1-.1 0-.2.1-.3.1-.1 0-.2-.1-.3-.2h-.1v.1l.1.1c.1.1.3.1.4.1.3 0 .5-.2.7-.4.2-.2.2-.5.1-.8 0-.1-.1-.1-.1-.2l-.1-.1-.1.1zM98.7 84.7c.8-.5 1.7-.7 2.6-.8.4-.1.9-.1 1.2-.3.4-.2.7-.4 1.1-.7-.1 0-.1.1-.2.1s-.1.1-.2.1l-.9.3c-.4.1-.9.2-1.3.3-.2.1-.4.1-.6.2-.1 0-.1 0-.2.1-.6 0-1.1.3-1.5.7zM101 89.9c-1-.1-2.1.2-3.1.1-1 0-1.9-.4-2.5-1.2-.5-.8-.5-1.9 0-2.7l-.1-.1c-.5.4-.7.9-.7 1.5 0 .3 0 .6.1.9 0 .1.1.3.2.4.3.6.8 1 1.4 1.3.1 0 .2.1.3.1 1.1.4 2.4.1 3.5 0 .4 0 .7-.1.9-.1.7 0 .7-.1 0-.2zM101.7 86.8c-.4 0-.7.1-1.1.2-.7.2-1.4.5-2.1.8-.1 0 0 .2.1.1l2.1-.6c.4-.1.7-.1 1.1-.2.3 0 .7 0 1-.2.1 0 .1-.1 0-.2-.4-.1-.8 0-1.1.1z"/>
    <path class="st7" d="m94.8 86.6-.6-1.8c0-.1-.1-.2-.1-.3l-.3-2.1c-.1-1.4-.1-2.9.3-4.3 0-.1-.1-.1-.1 0-.5 1.4-.8 2.9-.7 4.4 0 .4.1.8.2 1.2.1.3.2.7.3 1 .3.6.5 1.4 1 1.9zM104.1 86.4c0 .4 0 .9-.1 1.3 0 .4-.2.8-.1 1.3 0 .1.2.1.2 0 .2-.4.3-.9.3-1.3s.1-.7.1-1.1v-.9c0-.1 0-.3-.1-.4v-.2c0-.1 0-.2-.1-.4-.1-.3-.1-.6-.3-.9h-.1c-.1.2 0 .4 0 .6v.6c.1.6.2 1 .2 1.4z"/>
    <path class="st5" d="M89 63.8c-.1-.4-.1-.9-.2-1.4.1.5.1.9.2 1.4zM58.2 50.2c-.1.5-.2.9-.3 1.3 0 0-.1 3.3 2.1 6.4 2.3 3.2 4.3 2.6 6.8 3 1.3.2 3.1.8 5 .8 3.7 0 7.4.7 10-3.3 1.7-2.6 1.8-6.9 1.8-6.9 0-.2-.1-.4-.1-.6-.4-2.8-.2-5.9.4-6.4l-.1-.1c-1.2.5-2.5 1-4 1.3-1.7 1.7-5.1 2.9-9.1 2.9-4.2 0-7.8-1.3-9.4-3.2-.4-.1-.8-.3-1.2-.4-.9-.4-1.6-.8-2.4-1.2.7.4.9 3.5.5 6.4zm21.1 4.6c.3 0 .5.2.5.5s-.2.5-.5.5-.5-.2-.5-.5.2-.5.5-.5zM67.6 56c.7-.3 1.3-.7 2.1-.9 2-.4 4 0 5.5.8 1 .5 1.7 1.4.1 1.5-.5 0-1.3-.3-1.8-.4-1-.1-2-.2-3 .1-.8.2-1.4.5-2.2.6-.8.1-1.7-.1-1.8-.6-.2-.5.5-.9 1.1-1.1zm-5.9-1.2c.3 0 .5.2.5.5s-.2.5-.5.5-.5-.2-.5-.5.2-.5.5-.5zM51.9 64.6l.3-2.4-.3 2.4zM89.2 65.5v-.1.1zM89 63.9c.1.5.1 1 .2 1.5 0-.5-.1-1-.2-1.5zM51.9 64.8c0 .3-.1.5-.1.8 0-.3 0-.6.1-.8zM52.4 61c-.1.4-.1.7-.2 1.1.1-.4.1-.7.2-1.1z"/>
    <path class="st6" d="M73.9 65.6c1.6-.8 2.9-1.6 2.9-1.6s-1-.1-1.4-.3c-.7-.2-.9-1.1 0-1.4 1-.4 5.6-.6 5.6-.6 1.2-1.3 2.5-2.8 3.2-5.1.6-1.8-.2-3-.7-5.2 0 0-.2 4.3-1.8 6.9-2.6 4-6.3 3.3-10 3.3-1.9 0-3.7-.5-5-.8-2.4-.4-4.5.2-6.8-3-2.2-3.1-2.1-6.4-2.1-6.4-.4 1.7-1 2.8-.5 4.4.7 2.2 2 3.8 3.2 5.1 0 0 4.6.2 5.6.6.9.3.7 1.2 0 1.4-.4.1-1.4.3-1.4.3s1.2.8 2.9 1.6c.5.3.2 1-.6 1.1-.3.1-2-.6-2-.6s1.1.9 1.8 1.4h2.9c1.5 0 2.9-.1 4.3-.1-.4-.3-.5-.8-.1-1zM75.5 66.5h.7c.3-.2.5-.4.5-.4l-1.2.4zM58.5 66.4c-.4-.5-.8-1.2-1.1-2.1-2-.6-3.7-1.7-5-3.3-.1.4-.1.7-.2 1.1v.1l-.3 2.4v.1c0 .3-.1.5-.1.8.7.2 2.9.6 6.7.9zM84.3 65.1c-.1.3-.2.6-.4.9 2.8-.2 4.6-.4 5.3-.5v-.2c-.1-.5-.1-1-.2-1.5v-.1c-.1-.4-.1-.9-.2-1.4-1.3 1.4-2.8 2.3-4.5 2.8z"/>
    <path class="st8" d="M61.8 78.4c1.8.9 3 2.3 3.9 3.4.5.2.9.4 1.4.7 1.1-.1 2-.8 2.7-1 .3-.8 1.1-1.1 1.9-.9.8.2 1.2.8 1 1.7 0 .2-.1.3-.2.5l.1.1c.1.2.2.4.2.6C79 82.6 85 78.8 90.1 75c.1-.8.1-1.7.1-2.7.3-.4.5-.9.5-1.4l-.2.2c-.9.4-5.2 1-5.8.7-.6-.3-1.2-2.7-.6-3.3.5-.5 5.1-1.2 6.4-1.3-.3-1.1-.7-1.9-1-1.8h-.3c-.7.1-2.5.3-5.3.5-.9 1.9-2.2 2.7-2.8 3.1-.4.3-1.5 1.6-1.7 1.7-.7.6-1.5.3-1.2-.2.2-.5 1-2 1-2s-1.6 1.5-2.3 1.8c-1.1.5-1.6-.2-1.3-.7.5-.7 2.2-2.2 2.2-2.2s-1.9 1.1-2.7 1.4c-.8.2-1.1-.7-.5-1.1.4-.3 1.2-.9 1.7-1.3h-.7c-.4.1-.8.2-1 .2-.2 0-.4-.1-.5-.2-1.3 0-2.8.1-4.3.1h-2.9c.2.1.3.2.4.3.6.4.3 1.3-.5 1.1-.9-.3-2.7-1.4-2.7-1.4s1.7 1.6 2.2 2.2c.4.5-.2 1.2-1.3.7-.7-.3-2.3-1.8-2.3-1.8s.8 1.5 1 2c.2.6-.5.8-1.2.2-.2-.2-1.3-1.4-1.7-1.7-.5-.3-1.3-.9-2.1-1.9-3.9-.3-6-.7-6.7-.9-.2 0-.3-.1-.3-.1-.4 0-.8.8-1 1.8.5 0 6.2.8 6.8 1.4.6.5 0 3-.6 3.3-.6.3-5-.4-5.8-.7l.6.9c0 1.7.2 3.2.6 4.6 2.4-.9 6.6.2 9.5 1.9zm8.9-5.1c5.4 0 16.2-.8 16.2-.8s-9.9 2.3-16.1 2.4c-6.9.1-15.3-2.4-15.3-2.4s9.8.8 15.2.8zM80.5 86.5c-.2.1-.4.1-.6.2.2-.1.4-.2.6-.2zM76.1 87.2h-.5c.2.1.3.1.5 0zM73.2 87.4h-.4c.1.1.2 0 .4 0zM75.2 87.3h-.5c.1.1.3 0 .5 0zM74.2 87.4h-.5.5zM77.9 87c-.2 0-.4.1-.5.1.2 0 .4-.1.5-.1zM78.8 86.9c-.2 0-.4.1-.5.1.1-.1.3-.1.5-.1zM77 87.1c-.2 0-.3 0-.5.1.2 0 .4 0 .5-.1zM79.6 86.7c-.2 0-.4.1-.6.1.3 0 .5-.1.6-.1zM87.3 82.5c1.5-1.8 2.5-4.3 2.9-7.5-.4 3.2-1.4 5.7-2.9 7.5zM85.8 84c-.2.1-.3.3-.5.4.1-.1.3-.3.5-.4zM86.8 83c.2-.2.3-.3.4-.5 0 .2-.2.3-.4.5zM84.6 84.8c-1.2.7-2.6 1.3-4.1 1.7.8-.2 1.6-.5 2.3-.8.7-.3 1.3-.6 1.8-.9zM86.3 83.5c-.2.1-.3.3-.5.4.2-.1.3-.2.5-.4zM86.8 83l-.5.5c.2-.1.4-.3.5-.5zM85.2 84.4c-.2.1-.4.3-.6.4.2-.1.4-.3.6-.4z"/>
    <path class="st9" d="M84.6 84.8c.2-.1.4-.2.6-.4.2-.1.4-.3.5-.4.2-.1.3-.3.5-.4.2-.1.3-.3.5-.5l.5-.5c1.5-1.8 2.5-4.3 2.9-7.5-5.1 3.8-11.1 7.6-17.3 8.5 0 .3-.1.6-.3.8v.1c.1.2.1.3.1.5 0 .1 0 .3-.1.4 0 .1-.1.2-.2.3.1.1.1.2.1.2v.1c.1.2.1.6 0 .8-.1.1-.1.2-.2.3-.1 0-.1.1-.2.1l.1.1c0 .1.1.1.1.2h4.1c.2 0 .3 0 .5-.1h.4c.2 0 .4 0 .5-.1.1 0 .2 0 .3-.1.2 0 .4-.1.5-.1.1 0 .2 0 .3-.1.2 0 .4-.1.6-.1h.2c.2 0 .4-.1.6-.2h.1c1.7-.6 3.1-1.2 4.3-1.9zM61.8 78.4c1.6.9 2.8 2 3.2 3 .3.1.5.2.8.4-1-1.1-2.2-2.4-4-3.4z"/>
    <path class="st7" d="M74.5 46.5c-.4 0-.7.1-1.1.1h-5c-.8 0-1.6-.1-2.4-.2-1-.1-2-.3-3-.5-.6-.1-1.1-.3-1.6-.5 1.6 1.9 5.2 3.2 9.4 3.2 4 0 7.4-1.2 9.1-2.9-1.6.4-3.4.6-5.4.8z"/>
    <path class="st6" d="M50.2 30.9c-.1-.9-.2-2-.2-3.2 0-.6-.1-1.3-.1-2v-.2c-.6-.9-1.3-1.6-2-1.7-1.6-.3-2.8 1.3-3 3.7-.2 2.2 1.7 4.9 3.6 6 .8.5 1.6.6 2.2.3-.1-.3-.1-.5-.2-.8l-.3-2.1zm-1-.1-.1.5-.1-.4c-.2-.5-.4-1.1-.8-1.6-.3-.5-.8-.9-1.4-1 .6 0 1.1.5 1.5.9.2.3.4.5.5.8-.1-.9-.3-1.7-.5-2.5-.2-.5-.4-1-.8-1.2-.3-.3-.9-.2-1.4.1.2-.3.4-.5.7-.6.3-.2.7-.2 1 0 .3.1.6.4.8.6.2.3.3.5.5.8.2.6.3 1.2.4 1.8-.1.6-.1 1.2-.3 1.8z"/>
    <path d="M48.6 26.4c-.2-.3-.5-.5-.8-.6-.3-.2-.7-.1-1 0-.3.1-.5.4-.7.6.5-.3 1.1-.4 1.4-.1.4.3.6.7.8 1.2.3.8.4 1.6.5 2.5-.2-.3-.3-.6-.5-.8-.4-.5-.9-.9-1.5-.9.6.1 1.1.5 1.4 1 .3.5.6 1 .8 1.6l.1.4.1-.5c.1-.6.2-1.2.2-1.8 0-.6-.1-1.2-.4-1.8-.1-.2-.2-.5-.4-.8z" style="fill:#d3927b"/>
    <path class="st11" d="M90.1 31.4c2.2 0 2.8-7.5.1-8.4-.7-.2-1.3-.1-1.9.2 0 .9.1 1.7.3 2.6.5 2 1.1 3.7 1.5 5.6z"/>
    <path class="st5" d="M50.5 18c.1-.5.2-.9.3-1.3-.1.4-.2.9-.3 1.3zM49.9 23.6c0-1.1.1-2.2.2-3.3-.1 1-.2 2.2-.2 3.3zM52.9 12.2c.2-.3.4-.7.6-1-.2.3-.4.6-.6 1zM51.5 14.8c.2-.4.4-.9.6-1.3-.2.5-.4.9-.6 1.3zM57.7 43.7c-.7-.5-1.4-1-2-1.5.6.5 1.3 1 2 1.5zM70.1 4.6c-.1.2-.2.4-.4.6.2 0 .5 0 .7-.1-.1-.1-.2-.3-.3-.5zM51.9 37.2c-.4-.9-.8-1.8-1.1-2.8.4 1 .7 1.9 1.1 2.8zM55.1 41.6c-1.4-1.3-2.4-2.8-3.2-4.4.8 1.6 1.8 3.1 3.2 4.4zM52.2 13.4c.2-.4.4-.7.6-1.1-.2.4-.4.7-.6 1.1z"/>
    <path class="st5" d="M70.8 5.2c2.3 0 4.7.6 6.7 1.4 1.4.5 2.7 1.2 3.9 2.1 2.6 1.8 4.8 4.3 5.7 7.3.4 1.6.4 3.5-.9 4.5-.9.7-2 .7-3.1.7-2.8-.2-5.6-1.1-8-2.5-1.6-1-3.1-2.3-4.7-3.3-1.5-1-3.1-1.8-4.7-2.4-1.2-.4-2.5-.9-2.9-2.1-.3-1 .3-2 1-2.8 1.1-1.1 2.3-1.8 3.6-2.3-.1-.1-.2-.1-.2-.2-.2-.3-.3-.7-.2-1.1-5 1.1-8.8 3.9-11.4 9.9-2.3 5.3-1.5 12.6-1.3 16 .6 7.6 5.8 15.8 19.6 15.8 1.7 0 3.2-.1 4.6-.2-1.3.2-2.6.4-4.1.5 1.9-.2 3.7-.4 5.3-.8 1.5-.3 2.8-.8 4-1.3 4.3-1.9 6.5-5 6.6-9 .1-1.5-.1-2.7-.4-4-.4-1.8-1-3.5-1.5-5.6-.2-.9-.3-1.8-.3-2.6 0-2.8.8-5.4-.5-8.3-3-7.4-10-10.5-17.3-10.6.2.2.4.5.5.9zM79.9 23c1.1-.8 3.5-.8 5.4.5.2.1.2.4.1.6-.1.1-.2.2-.3.2-.1 0-.2 0-.2-.1-1.6-1.1-3.7-1.1-4.4-.5-.2.1-.4.1-.6-.1-.2-.2-.2-.5 0-.6zm3.3 5.5c0 1.4-.6 1.9-1.4 1.9-.8 0-1.4-.5-1.4-1.9 0-1.3.6-1.9 1.4-1.9.8 0 1.4.6 1.4 1.9zm-14.8-.8c.6-.5 1.1-1 1.8-1.3 1.7-.5 3.5.1 4.9 1.4.9.9 1.6 2.2.1 2.3-.5.1-1.2-.5-1.6-.6-.9-.3-1.8-.3-2.7 0-.7.2-1.3.7-1.9.8-.7.1-1.5-.2-1.6-1-.1-.6.5-1.2 1-1.6zm4.4 6c-.1.1-.2.1-.2.1-.1 0-.2-.1-.3-.1-.1-.2-.1-.4.1-.6.7-.5.8-1.3.7-1.7-.1-.3-.4-.5-.9-.5-.2 0-.4-.2-.4-.4s.2-.4.4-.4c.8 0 1.4.4 1.6 1.1.2.7-.2 1.8-1 2.5zM59.4 23.5c1.8-1.3 4.3-1.3 5.4-.5.2.1.2.4.1.6-.1.2-.4.2-.6.1-.7-.5-2.8-.6-4.4.5-.1 0-.1.1-.2.1s-.2-.1-.3-.2c-.3-.2-.2-.5 0-.6zm4.5 5c0 1.4-.6 1.9-1.4 1.9-.8 0-1.4-.5-1.4-1.9 0-1.3.6-1.9 1.4-1.9.7 0 1.4.6 1.4 1.9zm-6.4 5.4c0-1.4 1.6-2.6 3.5-2.6s3.5 1.2 3.5 2.6c0 1.4-1.4.4-3.3.4s-3.7 1.1-3.7-.4zm14 5.4c-2.9 0-3.6-1.1-3.7-1.2-.1-.2 0-.4.2-.5.2-.1.4 0 .5.1 0 0 .6.8 3 .8 1.7 0 2.7-.8 2.7-.8.2-.1.4-.1.6.1.1.2.1.4-.1.6-.1 0-1.3.9-3.2.9zm10.8-5c-1.9 0-3.7 1-3.7-.4s1.6-2.6 3.5-2.6 3.5 1.2 3.5 2.6c0 1.5-1.4.4-3.3.4zM53.6 11c.2-.3.5-.6.7-.9-.2.3-.5.6-.7.9z"/>
    <path class="st5" d="M67.6 5.2c.1.2.3.2.5.3.3-.1.6-.1 1-.2.4-.2.6-.6.8-1-.8 0-1.6 0-2.3.1-.2.2-.2.6 0 .8zM61.1 5.4c.4-.1.7-.2 1.1-.3-.4.1-.8.2-1.1.3zM67.1 4.4c-1.3.1-2.5.2-3.7.5 1.2-.3 2.4-.5 3.7-.5zM62.3 5.1c.3-.1.7-.2 1.1-.3-.4.1-.8.2-1.1.3zM56 8.3c.3-.2.5-.5.8-.7-.2.2-.5.4-.8.7zM55.1 9.1l.8-.8c-.2.3-.5.6-.8.8zM58.9 6.3c.7-.3 1.4-.6 2.1-.8-.7.2-1.4.5-2.1.8zM57.9 6.9c.3-.2.6-.4 1-.5-.3.1-.6.3-1 .5zM57 7.5l.9-.6-.9.6zM54.4 10c.3-.3.5-.6.8-.9-.3.3-.6.6-.8.9zM71.1 46.7h.7c-.2-.1-.5 0-.7 0zM66.2 46.5c.8.1 1.6.2 2.4.2-.9-.1-1.7-.1-2.4-.2zM63 45.9c1 .3 2.1.5 3.2.6-1.2-.2-2.2-.4-3.2-.6zM72.3 46.6h1-1zM60.2 44.9c.4.2.8.3 1.2.4.5.2 1.1.3 1.6.5-1-.2-2-.5-2.8-.9zM73.5 46.6c.4 0 .7 0 1.1-.1-.4 0-.8 0-1.1.1zM49.9 25.7c0 .7 0 1.4.1 2 0-.7-.1-1.3-.1-2zM50.5 33l-.3-2.1c-.1-.9-.2-2-.2-3.2.1 1.2.2 2.3.2 3.2l.3 2.1zM50.5 33c.1.3.1.5.2.8.1.2.1.4.2.6-.1-.4-.3-.9-.4-1.4zM49.9 23.6v2.2-2.2z"/>
    <path class="st6" d="M63 45.9c1 .3 2.1.5 3.2.6.8.1 1.6.2 2.4.2h5c.4 0 .7 0 1.1-.1h.1c1.5-.1 2.8-.3 4.1-.5-1.4.1-3 .2-4.6.2-13.8 0-19-8.2-19.6-15.8-.3-3.4-1-10.7 1.3-16 2.5-5.9 6.3-8.7 11.4-9.9-1.3.1-2.5.2-3.7.5-.7-.2-1.1-.1-1.4 0h-.1c-.4.1-.7.2-1.1.3H61c-.7.2-1.4.5-2.1.9-.3.2-.6.3-1 .5l-.1.1-.9.6-.1.1c-.2.2-.5.4-.8.7-.3.2-.6.5-.8.8-.3.3-.5.6-.8.9l-.1.1c-.2.3-.5.6-.7.9l-.1.2c-.2.3-.4.6-.6 1 0 .1-.1.1-.1.2-.2.4-.4.7-.6 1.1l-.1.2c-.2.4-.4.8-.6 1.3-.3.6-.5 1.2-.6 1.8-.1.4-.2.9-.3 1.3-.2.7-.3 1.5-.4 2.2-.1 1.1-.2 2.2-.2 3.3v2.1c0 .7 0 1.4.1 2 .1 1.2.2 2.3.2 3.2l.3 2.1c.1.5.2 1 .3 1.4.3.9.6 1.9 1.1 2.8.8 1.6 1.8 3.1 3.2 4.4.2.2.4.4.6.5.6.5 1.3 1 2 1.5s1.5.9 2.4 1.2c.8.5 1.8.8 2.8 1.1z"/>
    <path class="st11" d="M74.8 37.8c-.1-.2-.4-.2-.6-.1 0 0-1.1.8-2.7.8-2.4 0-3-.8-3-.8-.1-.2-.3-.2-.5-.1s-.3.3-.2.5c.1.1.7 1.2 3.7 1.2 2 0 3.2-.9 3.2-.9.2-.2.2-.4.1-.6z"/>
    <path class="st12" d="M80.4 28.5c0 1.4.6 1.9 1.4 1.9.8 0 1.4-.5 1.4-1.9 0-1.3-.6-1.9-1.4-1.9-.8 0-1.4.6-1.4 1.9zm.7.7c-.2 0-.3-.1-.3-.3s.1-.3.3-.3c.2 0 .3.1.3.3s-.2.3-.3.3zm1.7-1.3c0 .4-.3.7-.7.7-.4 0-.7-.3-.7-.7 0-.4.3-.7.7-.7.4 0 .7.3.7.7z"/>
    <path class="st13" d="M81.4 27.9c0 .4.3.7.7.7.4 0 .7-.3.7-.7 0-.4-.3-.7-.7-.7-.4 0-.7.3-.7.7zM81.1 28.6c-.2 0-.3.1-.3.3s.1.3.3.3c.2 0 .3-.1.3-.3s-.2-.3-.3-.3z"/>
    <path class="st12" d="M61 28.5c0 1.4.6 1.9 1.4 1.9.8 0 1.4-.5 1.4-1.9 0-1.3-.6-1.9-1.4-1.9-.8 0-1.4.6-1.4 1.9zm.7.7c-.2 0-.3-.1-.3-.3s.1-.3.3-.3c.2 0 .3.1.3.3s-.1.3-.3.3zm1.7-1.3c0 .4-.3.7-.7.7-.4 0-.7-.3-.7-.7 0-.4.3-.7.7-.7.4 0 .7.3.7.7z"/>
    <path class="st13" d="M62 27.9c0 .4.3.7.7.7.4 0 .7-.3.7-.7 0-.4-.3-.7-.7-.7-.4 0-.7.3-.7.7zM61.7 28.6c-.2 0-.3.1-.3.3s.1.3.3.3c.2 0 .3-.1.3-.3s-.1-.3-.3-.3z"/>
    <path class="st14" d="M64.5 33.9c0-1.4-1.6-2.6-3.5-2.6s-3.5 1.2-3.5 2.6c0 1.4 1.8.4 3.7.4 1.9 0 3.3 1.1 3.3-.4zM82.1 31.4c-1.9 0-3.5 1.2-3.5 2.6 0 1.4 1.8.4 3.7.4 1.9 0 3.3 1 3.3-.4 0-1.5-1.6-2.6-3.5-2.6z"/>
    <path class="st11" d="M80.4 23.6c.7-.5 2.8-.6 4.4.5.1 0 .1.1.2.1s.2-.1.3-.2c.1-.2.1-.4-.1-.6-1.8-1.3-4.3-1.3-5.4-.5-.2.1-.2.4-.1.6.3.2.5.2.7.1zM59.6 24.2c.1 0 .2 0 .2-.1 1.6-1.1 3.7-1.1 4.4-.5.2.1.4.1.6-.1.1-.2.1-.4-.1-.6-1.1-.8-3.5-.8-5.4.5-.2.1-.2.4-.1.6.1.1.3.2.4.2z"/>
    <path class="st7" d="M73.7 31.1c-.2-.7-.8-1.1-1.6-1.1-.2 0-.4.2-.4.4s.2.4.4.4c.4 0 .7.2.9.5.2.5 0 1.2-.7 1.7-.2.1-.2.4-.1.6.1.1.2.1.3.1.1 0 .2 0 .2-.1.9-.6 1.3-1.7 1-2.5z"/>
    <path class="st6" d="M49.5 82.8v-.4.4zM54.5 78.1c3.3 0 6.9 1.7 10.4 3.4-.4-1-1.6-2.1-3.2-3-2.9-1.7-7.1-2.8-9.7-1.9-1.1.4-2.4 3-2.6 5.7.3-2.4 2-4.3 5.1-4.2zM49.5 82.9v.5-.5z"/>
    <path class="st5" d="M49.5 83.4c.3 2.7 2.3 4.4 5 5.2 3.7 1.2 11.8-.3 11.8-.3-.9 0-2-5.9.6-5.9h.3c-.5-.2-.9-.4-1.4-.7-.3-.1-.5-.2-.8-.4-3.5-1.7-7.1-3.4-10.4-3.4-3.2 0-4.9 1.8-5 4.3v.6c-.1.3-.1.5-.1.6zm3.3 1.1c0 .1-.1.2-.2.1h-.1l-.1-.1c0-.1-.1-.1-.2-.2l-.2-.2V84c-.1-.1 0-.3.2-.2.1 0 .2.1.2.1l.2.2.2.2c0 .1.1.1.1.2h-.1zm0-.9-.1-.1v-.1c0-.1-.1-.1-.1-.2-.1-.1-.1-.1-.1-.2l-.1-.2.1-.1c.1 0 .2 0 .2.1.1 0 .2.1.2.1l.2.2.1.1.1.1v.1c-.3.1-.4.2-.5.2z"/>
    <path class="st5" d="M71.2 88.8v-.1c-.1 0-.2-.1-.2-.2-.2-.2-.3-.6-.2-.9.1-.3.2-.4.5-.5H71h.3c-.3-.4-.3-.7-.3-1 0-.1.1-.2.2-.3-.2-.1-.3-.3-.4-.5-.1 0-.2 0-.2.1.1 0 .1-.1.2-.1-.1-.2-.1-.4 0-.6v-.1c-.1-.1-.2-.3-.2-.5v-.4c-.6-.3-.9-1.1-.7-2l.1-.1c-.7.2-1.6.9-2.7 1H67c-2.6 0-1.5 5.9-.6 5.9.8 0 3.6 1.5 4.7.7 0-.2 0-.3.1-.4z"/>
    <path class="st5" d="M70.6 83.6v-.2c0-.1 0-.1.1-.2l.1-.1c.2-.3.4-.4.7-.5.2-.1.4-.1.6 0 .2 0 .4.1.5.3.1-.2.2-.3.2-.5.2-1-.2-1.5-1-1.7-.8-.2-1.6.1-1.9.9l-.1.1c-.2.7.2 1.5.8 1.9zM71.6 83.9c-.1 0-.2-.1-.3-.1-.2 0-.5 0-.7.2 0 .2.1.4.2.5.1-.4.5-.6.8-.6z"/>
    <path class="st5" d="m71.3 82.6.1-.1c-.3.1-.5.2-.7.5l.2-.2c.1-.1.2-.1.4-.2zM72.3 84l.2.1c.1-.2.2-.5.2-.8 0-.3-.2-.5-.5-.6-.2-.1-.5-.1-.8 0-.1 0-.3.1-.4.2-.1.1-.2.1-.3.2 0 .1 0 .1-.1.2v.5c.5-.4 1.2-.1 1.7.2zM72 85.5c-.2-.1-.3-.2-.5-.2h-.6c.1.2.2.4.4.5.1-.2.4-.3.7-.3z"/>
    <path class="st5" d="M71.4 85.1c.3 0 .6.2.8.3l.1-.1c0-.1.1-.1.1-.2s.1-.2.1-.4v-.4l-.3-.3c-.1-.1-.3-.2-.5-.3-.4 0-.7.2-.8.6v.1c-.1.2 0 .4 0 .6.1.1.3.1.5.1zM72.4 84.1zM72 87l.1-.1.1-.1c.1-.1.1-.2.1-.3.1-.3-.1-.6-.3-.8-.1-.1-.1-.1-.2-.1-.3 0-.6 0-.8.2-.1.1-.1.2-.2.3-.1.3 0 .6.1.8.2 0 .4 0 .6.1h.5zM72.5 85.8zM71.3 87h-.1.1zM72.2 87.2l-.1-.1zM72.2 87.2zM70.8 87.5c-.1.4 0 .7.2.9v-.1h.1c.1.1.2.2.3.2.1 0 .2 0 .3-.1.4-.1.7-.7.4-1-.1-.2-.3-.3-.5-.3-.1 0-.2-.1-.3-.1h-.1c-.2.1-.3.2-.4.5z"/>
    <path class="st5" d="m71.9 87 .1.1V87zM71.8 87z"/>
    <path class="st7" d="m52.9 83.3-.3-.3c-.1-.1-.1-.1-.2-.1s-.1-.1-.2-.1l-.1.1.1.2c0 .1.1.1.1.2.1.1.1.1.1.2v.1l.1.1c.1 0 .2 0 .2-.1l.2-.3zM52.8 84.4c0-.1-.1-.2-.1-.2l-.2-.2-.2-.2c-.1 0-.1-.1-.2-.1-.1-.1-.3.1-.2.2l.1.1.2.2.2.2.1.1h.1c.2.1.2.1.2-.1zM71.4 82.5l-.1.1c-.1.1-.3.1-.4.2l-.2.2-.1.1c.1-.1.2-.2.3-.2.1-.1.2-.1.4-.2.3-.1.5-.1.8 0 .3.1.4.3.5.6 0 .3-.1.6-.2.8l.1.1c.2-.2.3-.5.3-.8 0-.2-.1-.4-.2-.6l-.1-.1c-.1-.1-.3-.2-.5-.3-.2.1-.4.1-.6.1z"/>
    <path class="st7" d="m72.5 84.2-.2-.2c-.5-.4-1.2-.6-1.7-.1v.1c.2-.1.5-.2.7-.2.1 0 .2 0 .3.1.2.1.3.2.5.3l.3.3c.1.1.1.3 0 .4 0 .1 0 .2-.1.4 0 .1 0 .1-.1.2l-.1.1.1.1c.1-.1.1-.2.2-.3.1-.1.1-.3.1-.4 0-.2 0-.3-.1-.5v-.1l.1-.2z"/>
    <path class="st7" d="M72.2 85.5c-.2-.2-.5-.3-.8-.3-.2 0-.4 0-.6.1-.1 0-.1.1-.2.1.1 0 .2 0 .2-.1h.6c.2 0 .4.1.5.2.1 0 .1.1.2.1.2.2.3.5.3.8 0 .1-.1.2-.1.3l-.1.1-.2.2.1.1c.1 0 .2-.1.2-.1.1-.1.2-.2.2-.3.1-.2.1-.6 0-.8v-.1c0-.1-.1-.2-.1-.2l-.2-.1zM72.3 87.3l-.1-.1-.1-.1H71.8c-.2-.1-.4-.1-.6-.1h-.3.4c.1 0 .2.1.3.1.2.1.4.1.5.3.2.4 0 .9-.4 1-.1 0-.2.1-.3.1-.1 0-.2-.1-.3-.2H71v.1c0 .1.1.1.2.2v-.1l.2.1h.1c.3 0 .5-.2.7-.4.2-.2.2-.5.1-.8v-.1zM71.3 88.6l-.1.1v.2c0 .1-.1.1-.2.2l-.1.1c.1 0 .2-.1.3-.2l.1-.1h.1l.1-.1v-.1l-.2-.1zM79.3 55.9c.3 0 .5-.2.5-.5s-.2-.5-.5-.5-.5.2-.5.5c0 .2.2.5.5.5zM61.7 55.9c.3 0 .5-.2.5-.5s-.2-.5-.5-.5-.5.2-.5.5c0 .2.2.5.5.5z"/>
    <path class="st15" d="M69.1 30.4c.7-.1 1.3-.6 1.9-.8.9-.3 1.8-.3 2.7 0 .5.1 1.1.7 1.6.6 1.5-.2.8-1.5-.1-2.3-1.4-1.3-3.2-1.9-4.9-1.4-.7.2-1.3.8-1.8 1.3-.5.4-1.1 1-1 1.7 0 .7.9 1 1.6.9zM68.2 57.7c.8-.1 1.5-.4 2.2-.6 1-.2 2-.2 3-.1.5.1 1.3.4 1.8.4 1.7-.2.9-1-.1-1.5-1.6-.8-3.6-1.2-5.5-.8-.8.1-1.4.5-2.1.9-.6.3-1.3.7-1.2 1.1.2.5 1.1.7 1.9.6zM68.9 5.4l.1-.1c-.3.1-.6.1-1 .2.4 0 .7 0 .9-.1z"/>
    <path class="st15" d="M62.9 10.7c.3 1.2 1.7 1.7 2.9 2.1 1.7.6 3.3 1.4 4.7 2.4 1.6 1.1 3 2.3 4.7 3.3 2.4 1.5 5.2 2.4 8 2.5 1.1.1 2.3 0 3.1-.7 1.3-1 1.3-2.9.9-4.5-.8-3-3.1-5.5-5.7-7.3-1.2-.8-2.5-1.5-3.9-2.1-2.1-.8-4.4-1.4-6.7-1.4.2.7.2 1.5-.1 2.2 0 .1-.1.1-.2.1h-.1c-.1 0-.1-.1-.1-.2.3-.6.3-1.3.1-1.9v-.1c-.2 0-.5 0-.7.1-.2.2-.4.4-.6.5-.6.3-1.2.3-1.7 0-1.3.4-2.6 1.1-3.6 2.3-.7.7-1.3 1.7-1 2.7z"/>
    <path class="st12" d="M67.1 4.4c-.1.4 0 .8.2 1.1.1.1.1.2.2.2.5.3 1.1.3 1.6 0 .3-.1.5-.3.6-.5.2-.2.3-.4.4-.6l.3.6v.1c.2.6.2 1.3-.1 1.9 0 .1 0 .2.1.2h.1c.1 0 .1 0 .2-.1.3-.7.3-1.5.1-2.2-.1-.3-.3-.6-.5-.8v-.2c.1-.6.1-1.2-.1-1.7-.4-1-1.2-1.8-2.4-2.5-.1 0-.2 0-.3.1 0 .1 0 .2.1.3.8.4 1.9 1.2 2.3 2.3 0 .4.1.9 0 1.3-.3-.3-.6-.4-1-.5-.6-.1-1.2.1-1.6.5-.1.1-.2.3-.2.5zm.6-.3c.2-.2.6-.4.9-.4h.3c.3.1.7.3 1 .5-.1.4-.4.8-.8 1l-.1.1c-.2.1-.5.2-.8.1-.2 0-.4-.1-.5-.3-.2-.2-.2-.6-.1-.9-.1 0 0 0 .1-.1z"/>
    <path d="M86.9 72.5s-10.8.8-16.2.8c-5.4 0-15.2-.8-15.2-.8s8.4 2.4 15.3 2.4c6.2-.1 16.1-2.4 16.1-2.4z" style="fill:#d8cab8"/>
    <path class="st17" d="M56.7 71.9c.6-.3 1.2-2.7.6-3.3-.6-.5-6.3-1.4-6.8-1.4s-.5 3.5.3 3.9c.9.4 5.3 1 5.9.8zM84.1 68.6c-.6.5 0 3 .6 3.3.6.3 5-.4 5.8-.7.1 0 .2-.1.2-.2.1-.2.3-.6.3-.9.2-1.2.1-2.7-.2-2.7h-.4c-1.2 0-5.7.7-6.3 1.2z"/>
    <path class="st5" d="m57.4 64.3 3.2-3.4c-1.2-1.3-2.5-2.8-3.2-5.1-.5-1.6.1-2.7.5-4.4.1-.4.2-.8.3-1.3.4-2.8.2-6-.4-6.5-2-1.5-7.9 5.2-7.6 10.7.1 2.7 1 4.9 2.3 6.6 1.2 1.8 3 2.9 4.9 3.4zm-5.8-11c-.3 0-.5-.2-.6-.5-.1-.3 0-.6.1-.9.5-1.7 1.3-3.4 2.3-4.8.5-.7 1.1-1.5 1.8-2 .7-.6 1.4-.3 1.1.8-.1.5-.4.8-.7 1.2-.8 1-1.4 2.1-2 3.3-.4 1-.8 2-1.5 2.7-.1.1-.3.2-.5.2zM67.2 65.9c.9-.1 1.1-.8.6-1.1-1.6-.8-2.9-1.6-2.9-1.6s1-.1 1.4-.3c.7-.2.9-1.1 0-1.4-1-.4-5.6-.6-5.6-.6l-3.2 3.4c.3.9.7 1.5 1.1 2.1.8 1.1 1.6 1.6 2.1 1.9.4.3 1.5 1.6 1.7 1.7.7.6 1.5.3 1.2-.2-.2-.5-1-2-1-2s1.6 1.5 2.3 1.8c1.1.5 1.6-.2 1.3-.7-.5-.7-2.2-2.2-2.2-2.2s1.9 1.1 2.7 1.4c.8.2 1.1-.7.5-1.1-.1-.1-.2-.2-.4-.3-.7-.6-1.8-1.4-1.8-1.4s1.7.7 2.2.6zM83.5 51c0 .2.1.4.1.6.4 2.2 1.2 3.3.7 5.2-.7 2.2-2 3.8-3.2 5.1l3.2 3.4c1.7-.5 3.3-1.4 4.5-2.7 1.6-1.7 2.7-4.2 2.8-7.2.2-5.5-5.6-12.2-7.6-10.7-.7.3-.9 3.4-.5 6.3zm3.2-5.3c.7.6 1.3 1.3 1.8 2 1 1.4 1.8 3.1 2.3 4.8.1.3.2.6.1.9-.1.3-.3.5-.6.5-.2 0-.4-.2-.5-.3-.7-.8-1.1-1.8-1.5-2.7-.5-1.2-1.2-2.3-2-3.3-.3-.4-.6-.7-.7-1.2-.3-1 .4-1.3 1.1-.7z"/>
    <path class="st5" d="M81.1 61.7s-4.6.2-5.6.6c-.9.3-.7 1.2 0 1.4.4.1 1.4.3 1.4.3s-1.2.8-2.9 1.6c-.4.2-.3.7.1.9.1.1.3.1.5.2.2 0 .6-.1 1-.2l1.2-.4s-.2.2-.5.4c-.5.4-1.3 1-1.7 1.3-.6.4-.3 1.3.5 1.1.9-.3 2.7-1.4 2.7-1.4s-1.7 1.6-2.2 2.2c-.4.5.2 1.2 1.3.7.7-.3 2.3-1.8 2.3-1.8s-.8 1.5-1 2c-.2.6.5.8 1.2.2.2-.2 1.3-1.4 1.7-1.7.6-.4 1.8-1.2 2.8-3.1.1-.3.3-.6.4-.9l-3.2-3.4z"/>
    <path class="st15" d="M86.3 47.6c.8 1 1.4 2.1 2 3.3.4 1 .8 2 1.5 2.7.1.1.3.3.5.3.3 0 .5-.2.6-.5.1-.3 0-.6-.1-.9-.5-1.7-1.3-3.4-2.3-4.8-.5-.7-1.1-1.5-1.8-2-.7-.6-1.4-.3-1.1.8.1.4.4.8.7 1.1zM55.6 47c.3-.4.6-.7.7-1.2.3-1-.4-1.3-1.1-.8-.7.6-1.3 1.3-1.8 2-1 1.4-1.8 3.1-2.3 4.8-.1.4-.1.7-.1 1 .1.3.3.5.6.5.2 0 .4-.2.5-.3.7-.8 1.1-1.8 1.5-2.7.6-1.2 1.3-2.3 2-3.3z"/>
    <path class="st18" d="M79.4 104.7c-.8-5.3-6.7-12.5-10.7-15.6-7.2-5.6-18.2-9.6-26.7-12.4-8-2.6-23.8-5.2-27.8 5-3.7 9.5 1.5 23.3 8.5 29.2 9.7 8.2 19.7 8.2 31.7 8.1 5.8 0 12.9-1.3 18-4.5 4.2-2.7 2.6-8.9 7-9.8z"/>
    <path class="st18" d="M68.8 102.1c.8-5.3 6.8-12.5 10.9-15.5 7.3-5.5 18.3-9.5 26.7-12.2 8-2.5 23.8-5.1 27.8 5.2 3.7 9.5-1.7 23.3-8.7 29.1-9.8 8.2-19.7 8.1-31.8 7.9-5.8-.1-12.9-1.4-17.9-4.6-4.2-2.8-2.7-9-7-9.9z"/>
    <path class="st3" d="M84 152.2c0 1-.1 2-.1 3 3.5 1 7.4.8 11-.3 4.5-1.3 8.5-3.7 12.4-6.3 14.7-9.7 28-21.6 39.3-35.2-12.8 2.2-25.9 4.5-37.5 10.3-11.6 5.8-21.9 15.8-24.9 28.4 0 .1-.1.1-.2.1z"/>
</svg>
