<svg xmlns="http://www.w3.org/2000/svg" width="750.5" height="58.5" style="overflow:visible;enable-background:new 0 0 750.5 58.5" xml:space="preserve">
    <path d="M7.7 9.3v-9h6.1v9h11.5c0 20.6-.4 33.5-1.2 38.8-.5 3.8-1.4 6.3-2.7 7.6-1.4 1.3-3.2 1.9-5.5 1.9-1.4 0-2.8-.3-4.2-.8l-1.3-8c1.8.9 3.7 1.3 5.5 1.3 1 0 1.6-.4 2-1.3.3-.8.5-2.8.7-5.9.3-5.8.5-14.6.5-26.3h-5.3C13.7 27.8 12.8 37 11 44c-1.5 5.8-3.6 10.5-6.5 14.3L0 53.1c2.4-3.5 4.2-7.9 5.5-13.4 1.2-5.4 1.9-13.1 2.1-23.1H1.3V9.3h6.4zm40.6 47.2h-6.4v-3.7H34v4h-6.4V5.5h20.6v51zm-6.4-11V12.8H34v32.7h7.9zM83.4 2.8c1.2 11.4 3.4 21.3 6.8 29.6 2.9 7.3 7.1 13.4 12.6 18.4L97.9 58c-5.5-5.1-9.9-12-13.2-20.9-1.6-4.2-3-8.6-4.1-13.1-2.5 6.8-5.1 12.5-7.9 17.2C68.3 48.1 63 53.7 57.1 58l-3.6-7.7c6.2-4.7 11.2-10.1 15-16.1 3.8-6.2 7-13.8 9.8-22.7-.1-.5-.2-1-.2-1.5H63V2.8h20.4zM122.7.3v4.5h8.7v6.5H129c-.6 2.8-1.3 5.4-2 8h5.2v6.5h-9.8v4h9.1v6.5h-8.3c2.9 2.3 5.5 4.5 7.8 6.7l-3.6 6c-1.7-2.2-3.4-4.1-5.1-5.9V58h-5.7V44.3c-.2.4-.4.6-.5.9-2.7 3.7-5 6.3-6.9 7.8l-3-6c1.8-1.3 3.9-3.4 5.9-6.1 1.1-1.5 2.1-3.1 2.9-4.7h-7v-6.5h8.7v-4h-9.6v-6.5h5.2c-.3-2.8-.7-5.4-1-8h-3.1V4.8h8.3V.3h6.2zm-1.4 19c.8-2.6 1.4-5.3 2-8h-6.7c.4 2.6.9 5.2 1.4 8h3.3zm33.5-12.5c-4.3 1.7-9.2 2.9-14.7 3.8v9h15.6V26h-4.2v32h-6V26H140c-.2 9.6-.8 16.6-1.8 20.9-1.1 4.5-2.7 8.1-4.7 11.1l-4.8-4.8c1.6-2.4 2.8-5.5 3.8-9.3 1.1-4.3 1.7-12.7 1.7-25.1V4.5c7.1-.9 12.9-2.4 17.4-4.3l3.2 6.6zM187.2.3v22h20.6v7.2h-15.3v17c0 1.5.4 2.3 1.1 2.6.9.5 2.1.7 3.5.7s2.4-.1 2.9-.3c.6-.1 1.1-.4 1.4-1 .4-.6.7-3 .9-7l6.2 3.3c-.3 2.9-.8 5.6-1.4 8.3-.5 1.6-1.4 2.6-2.8 3.1-1.5.4-4 .6-7.2.6-3.6 0-5.8-.3-6.4-.8-3.1-.3-4.6-2.6-4.6-7V29.5h-7.3c-.9 7.9-2.4 14-4.8 18.2-2.8 4.9-6.7 8.4-11.7 10.3l-2.8-7.3c4-1.6 7.1-4.4 9.3-8.4 1.5-2.8 2.6-7.1 3.3-12.9h-11.7v-7.2h20.4V.2h6.4zM177 16.8l-6.2 4.3c-1.6-4.3-3.7-8.4-6.4-12.3l5.8-4.2c2.8 3.8 5.1 7.9 6.8 12.2zm27.2-7.5c-2.6 5.1-5.2 9.1-7.9 12l-5.1-5.2c2.9-3.3 5.4-6.9 7.2-10.8l5.8 4zm24.6-9v4.5h8.7v6.5h-2.3c-.6 2.8-1.3 5.4-2 8h5.2v6.5h-9.8v4h9.1v6.5h-8.3c2.9 2.3 5.5 4.5 7.8 6.7l-3.6 6c-1.7-2.2-3.4-4.1-5.1-5.9V58h-5.7V44.3c-.2.4-.4.6-.5.9-2.7 3.7-5 6.3-6.9 7.8l-3-6c1.8-1.3 3.9-3.4 5.9-6.1 1.1-1.5 2.1-3.1 2.9-4.7h-7.1v-6.5h8.7v-4h-9.6v-6.5h5.2c-.3-2.8-.7-5.4-1-8h-3.1V4.8h8.3V.3h6.2zm-1.4 19c.8-2.6 1.4-5.3 2-8h-6.7c.4 2.6.9 5.2 1.4 8h3.3zm33.4-12.5c-4.3 1.7-9.2 2.9-14.7 3.8v9h15.6V26h-4.2v32h-6V26h-5.4c-.2 9.6-.8 16.6-1.8 20.9-1.1 4.5-2.7 8.1-4.7 11.1l-4.8-4.8c1.6-2.4 2.8-5.5 3.8-9.3 1.1-4.3 1.7-12.7 1.7-25.1V4.5c7.1-.9 12.9-2.4 17.4-4.3l3.1 6.6zm26.8-5.5v46.3c0 6.1-2.4 9.2-7.2 9.2-1.1 0-2.4-.3-3.8-.8l-1.3-7.7c1.4.9 2.8 1.3 4 1.3s1.9-1.7 1.9-5v-7.3h-6.4c-.1 4.1-.4 7.7-.8 11.1-.5 3.5-1.3 6.5-2.3 9.2l-6.2-2.8c1-2.7 1.7-5.9 2.3-9.7.6-3.6.9-8.3.9-14V1.3h18.9zm-6.5 14.4V8.5h-6.4v7.2h6.4zm0 14.6v-7.5h-6.4v7.5h6.4zm15.4 18.2c-.7 3.5-1.7 6.5-3 9.3l-6.1-2.8c1.3-2.7 2.3-5.9 3-9.7.8-3.6 1.3-8.3 1.3-14v-30h20.2v46.5c0 6.1-2.4 9.3-7.2 9.3-1.3 0-2.7-.3-4.2-.8l-1.3-7.7c1.5.9 3 1.3 4.5 1.3 1.3 0 1.9-1.7 1.9-5v-7.6h-7.7c-.3 4.1-.7 7.9-1.4 11.2zm1.2-40v7.2h7.7V8.5h-7.7zm0 21.8h7.7v-7.5h-7.7v7.5zm34.5-22.6c.3-2.4.5-4.9.7-7.5l6.8.5c-.3 2.4-.5 4.8-.8 7h28V15h-29c-.4 2.6-.9 5-1.3 7.2h26.1v7.2c-2.3 5.6-5.3 10.4-9.1 14.2 4 2.8 8.5 5.2 13.3 7l-3.2 7.3c-5.5-2.3-10.8-5.4-15.9-9.2-5 3.7-10.9 6.9-17.8 9.7l-2.6-6.5c5.9-2.3 10.8-4.9 15-7.7-3-2.8-5.9-6.2-8.8-10.1-2.7 8.6-6.1 16.3-10.4 22.8l-4.9-4.5c4.2-7.2 7.5-14.9 9.8-23.1 1.3-4.2 2.3-9 3.2-14.4h-11.7V7.7h12.6zm15.5 31.4c.2.2.3.3.5.4 3.2-3.1 5.7-6.5 7.4-10.2h-17.2c2.6 3.4 5.8 6.7 9.3 9.8zM451.5 2.8c-1.8 3.7-3.5 6.8-5 9.4.5.7 1.1 1.3 1.6 1.9 1-2.1 1.9-4.2 2.8-6.3l4.7 2.4V5.1h4c.4-1.6.8-3.2 1.1-4.8l5.7 1.5c-.3 1.2-.6 2.2-.9 3.3h5.6v5.6l1.3-1.9c.3.3.6.6.9.8 1.6-3.1 3-6.2 4.2-9.3l5.1 2.5c-1.8 4.1-3.6 7.6-5.2 10.4.4.5.9.9 1.4 1.3 1.4-2.5 2.7-5 3.8-7.4l5.3 2.8c-2.1 4-4.2 7.6-6.1 10.8l3.2-1.8c1.5 3.8 2.7 8 3.8 12.5l-4.5 2.2c-.2-1.2-.5-2.2-.7-3.3-3.9.9-8 1.6-12.5 2.2v.5h-15.5v-2l-3.6 1.8-.3-1.8c-3.7 1.3-7.7 2.4-12 3.3l-1.1-6.8c.9-.1 1.7-.3 2.6-.4 1.4-2.3 2.7-4.6 3.9-6.9-2.1-2.4-4.1-4.9-6.3-7.4l3.6-5.2c.1.2.3.3.4.4 1.4-2.6 2.6-5.2 3.6-7.7l5.1 2.5zm8.1 34V34h6.4v2.8h20.4v6h-15c1.5 1 3.2 2 5 2.8 3.2 1.6 7 2.9 11.5 4l-3.4 7.5c-4.5-1.7-8.6-3.9-12.5-6.7-2.2-1.5-4.1-3.3-6-5.2V58h-6.4V46.3c-1.5 1.4-3.1 2.7-4.7 3.8-5.1 3.1-9.5 5.3-13.1 6.6l-3-6c3.5-1 7.3-2.6 11.2-4.7 2-1 3.6-2.1 5.1-3.3h-14.8v-6h19.3zm-9.8-14.4c-.7 1.3-1.4 2.5-2 3.5 1-.2 1.8-.4 2.7-.6-.2-1-.5-2-.7-2.9zm5.7-10.6c-1.7 3.3-3.3 6.4-4.8 9.2l2.7-1.4c.8 2.8 1.5 5.8 2.1 8.9V11.8zm10 4.5v-5H461v5h4.5zm0 10.5v-4.5H461v4.5h4.5zm6.3-1.2c1.3-1.8 2.4-3.5 3.5-5.3-1.4-1.3-2.8-2.7-4.2-4v9.4c.2 0 .5 0 .7-.1zm9.3-4c-.7 1.2-1.4 2.3-2.1 3.3 1.1-.1 2.1-.2 3-.3l-.9-3zm31.5-19.1V0h5.9v2.5H540v6.3h-21.5v2h18.3v13.5h-18.3V26h18.7v8.3h3.6v6.5h-3.6v10h-5.9V49h-12.8c0 3.4-.4 5.7-1.2 6.9-1 1.4-2.8 2.1-5.4 2.1-2.8 0-5.4-.3-7.8-.8l-1.1-7c2.7.6 5.4 1 8.1 1 .5 0 1-.3 1.2-.8.1-.4.2-.9.2-1.5h-18.4v-6.3h18.5v-2h-20.8v-6.5h20.8v-2h-18.5V26h18.5v-1.8h-17.8V10.8h17.8v-2h-20.2V2.5h20.2zm0 16v-2h-11.9v2h11.9zm5.9 0h12.3v-2h-12.3v2zm0 15.8h12.8v-2h-12.8v2zm0 8.4h12.8v-2h-12.8v2zm50.6-8.9h-16.4v13.1c3.4-.6 6.5-1.2 9.6-2-.7-2-1.4-4-2.1-5.8l5.7-3c2 4.7 3.7 9.9 5.1 15.5l-6.2 3c-.3-1.2-.5-2.3-.8-3.3-5.3 1.7-11.1 3.2-17.3 4.5l-2.1-7.5c.7-.1 1.3-.2 2-.3V1.3h22.5v32.5zm-6.2-19.5v-6h-10.2v6h10.2zm0 12.5v-5.7h-10.2v5.7h10.2zm14.9-18.5V58h-6.2V1.3H592v40.5c0 5.5-2 8.3-5.9 8.3-1.3 0-2.7-.1-4.2-.3l-1.5-7.5c1.6.5 3 .7 4.2.7 1 0 1.5-.7 1.5-2.2V8.3h-8.3zm37.5-8v6h11.3v7.2h-12.9c-2 3.6-3.8 6.8-5.5 9.5.9.8 1.7 1.5 2.6 2.2 2.3-3.2 4.3-6.3 5.8-9.4l5.5 3.8c-2.2 4.5-5.1 9-8.6 13.6-4.8 5.6-8.8 9.6-12 11.9l-3.9-6c2.8-2.2 5.6-5 8.5-8.3-2.8-2.4-5.8-4.9-8.8-7.4l4.1-5.8c.6.5 1.2 1 1.8 1.4 1.1-1.8 2.1-3.6 3-5.4h-8.5V6.3h10.9v-6h6.7zM626.1 31c-1.6 3.1-3.7 6.2-6.1 9.3 2.6 3.1 5.1 6.6 7.6 10.4l-5.1 6c-2.1-3.7-4.4-7.4-7-10.9-5.5 5.8-10.2 9.8-13.8 12.2l-3.9-6c4.2-3 8.5-7 13.1-11.8 4-4.4 7.2-8.6 9.6-12.9l5.6 3.7zm8.1-24v38h-5.9V7h5.9zm11-6.7V48c0 3.7-.4 6.1-1.2 7.6-1 1.5-2.7 2.2-5.2 2.2s-4.8-.3-7-.8l-1-7.5c2.4.6 4.8 1 7.2 1 .4 0 .7-.3.8-.8.1-.7.2-1.9.2-3.4V.3h6.2zm54.2 32V39h-5.1l2.6 4.7c-2 1.5-4 2.6-5.9 3.5 2.5 1.5 5.5 2.6 9.1 3.5l-3.2 7.3c-5.2-1.8-9.7-4.5-13.4-8.1-3.1-2.9-5.6-6.6-7.5-10.9h-3.8v9.7c2.3-.4 4.4-.8 6.4-1.2l1.7 6.2c-5 1.4-10.8 2.6-17.2 3.8l-2.6-7c2-.3 3.8-.5 5.5-.8V39h-5.8c-.2 1.8-.4 3.5-.7 5.2-.7 4.3-1.9 8.6-3.5 13.1l-5.3-3.8c1.7-5.5 2.9-10.2 3.5-14.2.7-4.9 1-9.9 1-14.8V.8H697V17h-8.3v4h8.3v6.7h-8.3v4.5h10.7zm-38.5-4.6c0 1.6-.1 3.1-.1 4.5h8.2v-4.5h-7V21h7v-4h-8.1v10.7zm0-20.1v2.8h30.2V7.6h-30.2zm21.9 9.4H675v4h7.8v-4zm0 15.3v-4.5H675v4.5h7.8zm8.1 6.7h-8.7c.9 1.4 1.8 2.6 3 3.8 2-1 3.9-2.3 5.7-3.8zm35.3-14.7H711v33.5h-5.5V.8h20.8v23.5zm-5.5-14.8V7.3H711v2.2h9.7zm0 8.3v-2.2H711v2.2h9.7zm20.4 8.5v6.5H736v4.3h6.1v6.5H736v12.2h-5.9V43.5h-5.4c-.4 2.3-1 4.4-1.8 6-1.5 2.9-3.5 5.2-6.1 6.7l-3.6-5.5c2.1-1.3 3.7-3.2 4.8-5.5.2-.5.4-1.1.6-1.7h-5.2V37h6c0-.4.1-.8.1-1.2 0-.1.1-1.2.1-3.1h-4.8v-6.5h26.3zm-11 6.5h-4.9c0 2.1-.1 3.5-.1 4.3h5v-4.3zm20.4-32v47.7c0 6-2.2 9-6.6 9-1.4 0-2.9-.2-4.7-.5l-1.3-7.5c1.7.6 3.4 1 4.9 1 1.3 0 1.9-1.5 1.9-4.7V24.3h-15.1V.8h20.9zm-5.8 8.7V7.3h-9.5v2.2h9.5zm0 6.1h-9.5v2.2h9.5v-2.2z" style="fill:#ed1c24"/>
</svg>
