<svg xmlns="http://www.w3.org/2000/svg" width="80.6" height="28.5" style="overflow:visible;enable-background:new 0 0 80.6 28.5" xml:space="preserve">
    <path d="M7.1.5c1 1.4 1.9 2.8 2.7 4.3h5.4c.7-.7 1.2-1.3 1.6-1.8.6-.7 1-1.5 1.3-2.3.1-.2.2-.4.3-.4l1.7.7c.3.1.4.3.4.5 0 .1-.1.2-.4.3-.3 0-.5.1-.6.3-.5 1.1-1 2-1.5 2.6h6.7c.2 0 .3.2.3.5v1c0 .3-.1.5-.3.5h-11c-.4 1.2-1 2.3-1.5 3.4h9c.3 0 .4.1.4.4v17.7c0 .2-.2.4-.4.4h-1.1c-.3 0-.4-.1-.4-.4v-1.3h-14v1.3c0 .2-.1.4-.4.4H4.2c-.3 0-.4-.1-.4-.4V10.6c0-.3.1-.5.4-.5H10c.4-.7.8-1.3 1-1.8.2-.4.4-.9.7-1.6H.3c-.2 0-.3-.2-.3-.5v-1c0-.3.1-.5.3-.5h7C6.7 3.5 6 2.4 5.5 1.5c0-.2.4-.6 1.4-1.1.1-.1.1 0 .2.1zm12.6 14.4V12h-14v2.9h14zm0 5v-3h-14v3h14zm0 5v-3h-14v3h14zM36.1 1.5c.3 0 .4.1.4.3v19.4c0 .2-.2.4-.4.4h-.7c.6 1.6 1.3 3.4 2.3 5.1.1.1.1.3.1.5 0 .1-.1.2-.2.4-.6.6-1 .9-1.1.9-.1 0-.1-.1-.1-.2-1.1-2.1-1.9-4.1-2.5-6.1.3-.3.6-.5.8-.7h-3.6l1.1.5c.3.1.4.3.4.4 0 .2-.1.3-.3.4-.3 0-.4.2-.5.4-.8 2.1-1.5 3.6-2.3 4.8-.2.2-.3.4-.4.4s-.3-.1-.4-.2c-.4-.2-.7-.4-1.1-.5-.2-.1-.2-.1-.2-.2s0-.2.1-.3c.7-1 1.2-1.9 1.6-2.6.5-1 .9-2 1.2-3 0-.1 0-.1.1-.2h-.9c-.3 0-.4-.1-.4-.4V1.8c0-.2.1-.3.4-.3h6.6zm-1.4 6.1V3.4h-3.9v4.3h3.9zm0 6v-4h-3.9v4h3.9zm0 1.9h-3.9v4.1h3.9v-4.1zm6.7-12.7V.7c0-.2.1-.4.4-.4 1.4 0 2.1.1 2.1.4 0 .3-.1.4-.3.5-.2 0-.3.2-.3.6v1h3.5V.7c0-.2.1-.4.4-.4 1.4 0 2.1.1 2.1.4 0 .3-.1.4-.3.5-.2 0-.3.2-.3.6v1h3.8c.1 0 .2.1.2.3v1c0 .3-.1.5-.2.5h-3.8v2.2h3.4c.1 0 .2.1.2.4v1c0 .3-.1.5-.2.5h-3.4v2.1h4.1c.1 0 .2.1.2.4v1c0 .3-.1.5-.2.5h-6.7v1.7h5c.4 0 .6.2.6.5v7.6h1c.2 0 .3.2.3.5v1c0 .3-.1.5-.3.5h-1v2.6c0 .5-.4.9-1.1 1.2-.7.2-1.6.4-2.8.5-.2 0-.3-.1-.3-.3-.1-.4-.3-1.1-.6-1.9 0-.1.1-.1.2-.1 1.3 0 2.2-.1 2.4-.1.3-.1.4-.3.4-.6v-1.3h-9.2v3.9c0 .2-.1.4-.4.4h-1.1c-.2 0-.3-.1-.3-.4v-3.9h-1.3c-.2 0-.3-.2-.3-.5v-1c0-.3.1-.5.3-.5h1.3v-7.8c0-.2.1-.3.3-.3h5v-1.7h-6.7c-.2 0-.2-.2-.2-.5v-1c0-.2.1-.4.2-.4h3.8V8.6h-2.9c-.2 0-.2-.2-.2-.5v-1c0-.2.1-.4.2-.4h2.9V4.6H38c-.2 0-.2-.2-.2-.5v-1c0-.2.1-.3.2-.3h3.4zm2.8 15.4V16h-3.5v2.2h3.5zm0 4.1V20h-3.5v2.3h3.5zm2.7-17.7h-3.5v2.2h3.5V4.6zm0 6.1V8.6h-3.5v2.1h3.5zm-.7 7.5h3.7V16h-3.7v2.2zm3.7 4.1V20h-3.7v2.3h3.7zm10-15.4V2.2c0-.6-.1-1.1-.1-1.4-.1-.2-.1-.4-.1-.6 0-.1.2-.2.6-.2l2.2.3c.2.1.3.2.3.3 0 .2-.1.3-.3.3-.4.2-.6.7-.6 1.4v4.6H65c.2 0 .3.2.3.5v1c0 .3-.1.5-.3.5h-3.1v6.3c1-.7 1.9-1.4 2.8-2.1.1-.1.1-.1.2-.1s.2.1.2.3c0 1.1-.1 1.7-.1 1.8-1.1.9-2.1 1.7-3.1 2.4v8.7c0 1.5-1 2.2-2.9 2.2h-2c-.2 0-.2-.2-.2-.5-.1-.4-.3-.9-.5-1.4 0-.2.1-.2.2-.2.8.2 1.6.2 2.3.2.8 0 1.2-.4 1.2-1.1V19c-.8.6-1.5 1.1-2.3 1.6-.3.6-.6.8-.8.8-.2 0-.6-.9-1.1-2.7 1.1-.5 2.5-1.2 4.2-2.2V8.9h-3.5c-.2 0-.3-.2-.3-.5v-1c0-.3.1-.5.3-.5h3.4zm12.6 0V.3c0-.2.2-.3.5-.3 1.4 0 2.1.1 2.1.3 0 .3-.1.5-.3.5-.2 0-.3.2-.3.7v5.4h5.7c.3 0 .4.1.4.4v20.6c0 .2-.2.4-.4.4h-1.1c-.3 0-.4-.1-.4-.4v-2.1H68.5v2.1c0 .2-.2.4-.4.4H67c-.3 0-.4-.1-.4-.4V7.4c0-.3.1-.5.4-.5h5.5zm0 8.4V8.9h-4v6.4h4zm0 8.6v-6.7h-4v6.7h4zm2-8.6h4.2V8.9h-4.2v6.4zm4.2 8.6v-6.7h-4.2v6.7h4.2z" style="fill:#fff"/>
</svg>
