<svg xmlns="http://www.w3.org/2000/svg" width="164.6" height="28.6" style="overflow:visible;enable-background:new 0 0 164.6 28.6" xml:space="preserve">
    <path d="M11.6 2.3V.5c0-.2.1-.4.4-.4 1.4 0 2.1.1 2.1.4 0 .3-.1.4-.3.5-.2 0-.3.2-.3.6v.7h10.3c.1 0 .2.1.2.4v1c0 .3-.1.5-.2.5H13.5v2.1h8.9c.1 0 .2.1.2.4v1c0 .3-.1.5-.2.5h-8.9v2.1h10.9c.1 0 .2.1.2.4v1c0 .3-.1.5-.2.5H.2c-.2 0-.2-.2-.2-.5v-1c0-.2.1-.4.2-.4h11.4V8H2.4c-.2 0-.2-.2-.2-.5v-1c0-.2.1-.4.2-.4h9.2v-2H.9c-.1 0-.2-.2-.2-.5v-1c0-.2.1-.4.2-.4h10.7zm8.9 11.3c.4 0 .6.1.6.4v12.8c0 .5-.5 1-1.4 1.3-.9.2-2.1.4-3.5.5-.2 0-.3-.1-.3-.4-.1-.4-.3-1.1-.6-2 0-.1.1-.1.3-.1 1.7 0 2.7-.1 3.1-.2.4-.1.6-.3.6-.6v-2H6v4.5c0 .2-.2.4-.4.4H4.5c-.3 0-.4-.1-.4-.4V14c0-.2.1-.4.4-.4h16zm-1.4 4v-2.2H6v2.2h13.1zm0 4v-2.2H6v2.2h13.1zM39.4 2.5c.2-.7.3-1.5.3-2.3 0-.1.1-.2.3-.2 1.7.4 2.6.7 2.6.7 0 .3-.2.5-.4.5-.6.1-1 .3-1 .7-.1.2-.1.4-.2.6h9.8c.2 0 .3.2.3.5v1c0 .3-.1.5-.3.5H40.6c-.3.9-.6 1.7-.9 2.5h10.1c.2 0 .3.2.3.5v1c0 .3-.1.5-.3.5h-5.9c.6 1.1 1.1 1.9 1.6 2.7h6.9c.2 0 .3.2.3.5v1c0 .3-.1.5-.3.5h-5.6c.9 1.2 1.9 2.3 3.2 3.2 1.1.9 2.2 1.6 3.3 2 0 .2-.1.3-.3.3-.4.4-.7.9-1 1.2-.1.2-.2.2-.3.2-1.7-1-3-2.1-4.1-3.2-.2-.2-.4-.4-.6-.7V28c0 .2-.2.4-.4.4h-1.1c-.3 0-.4-.1-.4-.4v-.8h-9.7v.8c0 .2-.2.4-.4.4h-1.1c-.3 0-.4-.1-.4-.4V17c-1.1 1.2-2.3 2.2-3.6 3.1-.5.3-.8.5-1 .5-.3 0-.4-.1-.6-.3-.4-.2-.7-.5-1.1-.7-.2-.1-.2-.3-.2-.4 0-.1.1-.2.3-.3 1.7-.8 3.1-1.7 4.2-2.7.9-.8 1.7-1.7 2.5-2.6h-5.7c-.2 0-.3-.2-.3-.5v-1c0-.3.1-.5.3-.5h7.2c.2-.3.4-.7.7-1 .3-.5.6-1.1 1-1.6h-6.3c-.2 0-.3-.2-.3-.5v-1c0-.3.1-.5.3-.5h7.2c.3-.8.6-1.7.9-2.5h-9c-.2 0-.3-.2-.3-.5V3c0-.3.1-.5.3-.5h9.4zm7.2 13.8c-.7-.8-1.4-1.7-1.9-2.6-.1 0-.1-.1-.1-.1h-8.5l-.9 1.2c-.4.6-.8 1.1-1.2 1.5h12.6zm-1.5 4.3v-2.4h-9.7v2.4h9.7zm0 4.6v-2.7h-9.7v2.7h9.7zM42.2 9h-3.3c-.4.9-.9 1.8-1.5 2.7h6L42.2 9zm19 5.4c.3 0 .4.1.4.4v8c0 .6.1 1.1.3 1.4.1.3.4.6.7.7.4.2.9.4 1.5.5.7.1 1.6.2 2.5.2h5.9c2.3 0 5-.3 8.2-.9.1-.1.3-.1.4-.1.1 0 .2 0 .2.1-.2.8-.4 1.6-.5 2.5-.1.3-.2.5-.5.5H66.5c-.7 0-1.3-.1-1.9-.1-.6-.1-1.3-.2-1.8-.4s-1-.5-1.5-.8c-.3-.3-.6-.7-1-1.4h-.1c-.1 0-.2 0-.2.1-1.8 1.5-2.9 2.5-3 3-.1.1-.1.2-.3.2s-.5-.5-1.1-1.6c-.1-.2-.1-.4-.1-.6 1.1-.5 2.4-1.4 4-2.7.1-.1.1-.2.1-.6v-6.4h-3.5c-.2 0-.3-.2-.3-.5v-1c0-.3.1-.5.3-.5h5.1zm-1.5-5.6c.7.6 1.4 1.2 1.9 1.7 0 0-.1.1-.1.2-.5.9-.8 1.3-.8 1.3-.8-.8-1.7-1.5-2.6-2.1-.8-.5-1.4-.9-1.9-1.1 0-.1.3-.6.9-1.4l.2-.2c1 .5 1.8 1.1 2.4 1.6zm.7-6.7c.7.6 1.3 1.1 1.8 1.5 0 0-.1.1-.1.2-.6.9-.8 1.3-.8 1.3-.8-.7-1.6-1.3-2.5-1.9-.7-.5-1.3-.8-1.8-1 0-.1.3-.6.9-1.4l.2-.2c.9.6 1.6 1.1 2.3 1.5zm19.5-1c.2 0 .3.2.3.5v1c0 .3-.1.5-.3.5h-7.3c-.6.9-1 1.7-1.5 2.3.8 1.3 1.5 2.4 2 3.4.1.3.3.6.4.8.8-.6 1.6-1.3 2.3-2.1.7-.7 1.4-1.7 2-2.8.1-.1.1-.1.2-.1s.6.5 1.5 1.5c0 .2-.1.3-.3.4-.2.1-.3.1-.4.2-.7 1.1-1.5 2-2.2 2.7-.5.6-1.2 1.2-2 1.9.4 1 .8 1.9 1.3 2.7.6 1.1 1.3 2 1.9 2.6.9 1.1 1.9 1.9 3.2 2.5.1.1.2.1.2.2 0 .2-.1.3-.2.4-.4.4-.8.7-1.1 1.1-.1.2-.2.2-.3.2-1-.5-1.7-1.2-2.3-1.8-.8-.7-1.5-1.6-2.1-2.6v.7c0 .9-.1 1.8-.3 2.8-.2.9-.5 1.7-.8 2.2-.4.6-.8 1-1.4 1.3-.8.4-1.7.6-2.5.6-.3 0-.4-.2-.4-.5-.2-.8-.5-1.4-.8-1.8 0-.2.1-.4.2-.4l.6.1c1.1 0 1.9-.2 2.3-.7.4-.4.6-.9.7-1.5.2-.7.3-1.4.3-2.2 0-.5 0-1-.1-1.5-.4.5-.8 1.1-1.3 1.6-1 1.2-2.1 2.2-3.2 3.1-.7.6-1.6 1.2-2.8 1.8-.3 0-.4-.1-.5-.2-.3-.3-.5-.6-.7-.9-.2-.1-.2-.2-.2-.2s0-.2.1-.2c1.4-.7 2.5-1.3 3.4-2.1 1.1-.8 2-1.7 2.8-2.7.7-.9 1.3-1.8 1.9-2.8-.2-.7-.4-1.4-.7-2.1-.4.6-1 1.2-1.6 2-.9 1.1-1.9 2-2.9 2.7-.6.5-1.5 1-2.5 1.6-.2 0-.4-.1-.5-.3-.3-.3-.5-.6-.7-.9-.2-.1-.2-.2-.2-.3 0-.1 0-.1.1-.2 1.3-.6 2.3-1.2 3.1-1.9 1-.7 1.8-1.5 2.5-2.4.7-.8 1.3-1.7 1.8-2.6-.3-.6-.6-1.2-1-1.8-.6.8-1.3 1.5-2 2.2-1 .9-2 1.7-2.9 2.3-.2 0-.3-.1-.4-.2-.3-.4-.7-.7-1-1.1-.1-.1-.1-.2-.1-.3.9-.5 1.6-1 2.2-1.5.8-.6 1.7-1.5 2.6-2.6.5-.6 1.1-1.4 1.9-2.7h-6.4c-.2 0-.3-.2-.3-.5v-1c0-.3.1-.5.3-.5h16.1zm11.3.8V.3c0-.2.1-.3.4-.3 1.4 0 2.1.1 2.1.3 0 .3-.1.4-.3.5-.2 0-.3.2-.3.6v.5h6.3V.3c0-.2.1-.3.4-.3 1.4 0 2.1.1 2.1.3 0 .3-.1.4-.3.5-.2 0-.3.2-.3.6v.5h7c.1 0 .2.1.2.4v1c0 .3-.1.5-.2.5h-7v1.3c0 .2-.2.3-.4.3h-.9c-.3 0-.4-.1-.4-.3V3.8h-6.3v1.3c0 .2-.1.3-.4.3h-1.1c-.3 0-.4-.1-.4-.3V3.8H84c-.2 0-.2-.2-.2-.5v-1c0-.2.1-.4.2-.4h7.2zm16.5 12.4c.3 0 .4.1.4.3v5.1c0 .2-.1.4-.4.4h-1.1c-.3 0-.4-.1-.4-.4v-3.6h-9c-.5.7-1 1.3-1.5 1.8l-.1.1h7.5c.2 0 .3.1.5.2.4.4.6.7.6.8-.8 1.4-1.5 2.4-2.2 3.1-.8.9-1.6 1.7-2.5 2.3-.8.6-1.9 1.2-3.2 1.8-1.4.6-3 1.1-4.7 1.6-1.2.3-2.7.6-4.5.9-.3 0-.4-.1-.6-.3-.2-.4-.5-.7-.7-1.1-.1-.1-.1-.2-.1-.3 0-.1.1-.2.2-.2 1.2-.2 2.3-.3 3.4-.5 2.1-.4 3.9-.9 5.2-1.5-.2-.3-.4-.6-.6-1-.5-.7-1.1-1.5-2-2.3 0-.1.5-.4 1.4-1 .8.8 1.5 1.6 2 2.3.3.4.6.8.8 1.2.7-.3 1.3-.7 1.9-1.1.9-.6 1.6-1.3 2.2-2.1.3-.3.5-.7.8-1.1h-7.6l-.2.2c-.9.6-1.8 1.2-2.9 1.7-1.3.6-2 .9-2.2.9-.1 0-.2-.1-.3-.4-.3-.3-.5-.7-.9-1.1.1-.1.1-.2.1-.2 1.4-.4 2.6-.9 3.6-1.3 1-.5 2-1.1 3-1.8.4-.3.9-.8 1.5-1.5h-8.9v3.6c0 .2-.1.4-.4.4h-1.1c-.3 0-.4-.1-.4-.4v-5.1c0-.2.1-.3.4-.3h23zM106 6.4c.3 0 .4.1.4.3V12c0 .2-.2.4-.4.4H86.4c-.3 0-.4-.1-.4-.4V6.8c0-.2.1-.3.4-.3H106zM92.1 8.2H88v2.4h4.1V8.2zm6.3 0H94v2.4h4.4V8.2zm6 0h-4v2.4h4V8.2zm18.8-3c.2 0 .3.2.3.5v1c0 .3-.1.5-.3.5h-11.6c-.2 0-.3-.2-.3-.5v-1c0-.3.1-.5.3-.5h11.6zm-1.5 13.1c.3 0 .4.1.4.4v9.2c0 .2-.1.4-.4.4h-1.1c-.3 0-.4-.1-.4-.4v-1.5h-5.7v1.5c0 .2-.2.4-.4.4H113c-.3 0-.4-.1-.4-.4v-9.1c0-.3.1-.5.4-.5h8.7zm-.1-4.6c.2 0 .3.2.3.5v1c0 .3-.1.5-.3.5h-8.4c-.2 0-.3-.2-.3-.5v-1c0-.3.1-.5.3-.5h8.4zm0-4.3c.2 0 .3.2.3.5v1c0 .3-.1.5-.3.5h-8.3c-.2 0-.3-.2-.3-.5v-1c0-.3.1-.5.3-.5h8.3zm-.2-8.4c.2 0 .3.2.3.5v1c0 .3-.1.5-.3.5h-8c-.2 0-.3-.2-.3-.5v-1c0-.3.1-.5.3-.5h8zm-1.2 23.5v-4.3h-5.7v4.3h5.7zm8.9-15.3V.7c0-.2.1-.4.4-.4 1.4 0 2.1.1 2.1.4 0 .3-.1.4-.3.5-.2 0-.3.2-.3.6v7.4h5.5c.2 0 .3.2.3.5v1c0 .3-.1.5-.3.5H131V28c0 .2-.2.4-.4.4h-1.1c-.3 0-.4-.1-.4-.4V11.2h-5.2c-.2 0-.3-.2-.3-.5v-1c0-.3.1-.5.3-.5h5.2zm22.4-7.3V.3c0-.2.1-.3.4-.3 1.4 0 2.1.1 2.1.3 0 .3-.1.4-.3.5-.2 0-.3.2-.3.6v.5h7.7c.3 0 .4.1.4.4v2.5h2.6c.1 0 .2.1.2.4v.7c0 .3-.1.5-.2.5h-2.6V9c0 .3-.1.5-.4.5h-7.7v1.3h8.6c.1 0 .2.1.2.4v.7c0 .3-.1.5-.2.5h-8.6v1.5h10.9c.1 0 .2.1.2.4v.7c0 .3-.1.5-.2.5H140c-.2 0-.2-.2-.2-.5v-.7c0-.2.1-.4.2-.4h11.6v-1.5h-9.1c-.2 0-.2-.2-.2-.5v-.7c0-.2.1-.4.2-.4h9.1V9.4h-8.2c-.2 0-.2-.2-.2-.5v-.7c0-.2.1-.4.2-.4h8.2V6.4h-11.2c-.2 0-.2-.2-.2-.5v-.7c0-.2.1-.4.2-.4h11.2V3.5h-8.2c-.2 0-.2-.2-.2-.5v-.7c0-.2.1-.4.2-.4h8.1zm12.2 24c.1 0 .2.1.2.3v.7c0 .3-.1.5-.2.5H141c-.2 0-.2-.2-.2-.5v-.7c0-.2.1-.3.2-.3h22.7zm-2.7-9.3c.3 0 .4.1.4.3v7.4c0 .2-.2.3-.4.3h-16.9c-.3 0-.4-.1-.4-.3V17c0-.2.1-.3.4-.3H161zm-9.5 3.4v-1.8h-5.9V20h5.9zm0 1.4h-5.9v1.8h5.9v-1.8zm2-16.6h6.1V3.5h-6.1v1.3zm0 3.1h6.1V6.4h-6.1v1.5zm0 12.1h6v-1.8h-6V20zm6 1.4h-6v1.8h6v-1.8z" style="fill:#fff"/>
</svg>
