<svg xmlns="http://www.w3.org/2000/svg" width="42.5" height="42.5" style="overflow:visible;enable-background:new 0 0 42.5 42.5" xml:space="preserve">
    <path d="M42.5 4.1v34.4c0 2.2-1.8 4.1-4.1 4.1h-9.8V27.8h7.2v-5.2h-7.2v-4.7c0-.1.1-.3.1-.4.1-.3.3-.5.5-.6.2-.2.5-.2.8-.3h6.9V11c-1.6-.2-3.2-.4-4.8-.4h-1.2c-.4 0-.7-.1-1.5 0-1.3.1-2.6.6-3.7 1.3-1.1.8-2 1.8-2.5 3-.3.6-.5 1.2-.6 1.9-.1.6-.1 1.4-.1 1.7v4h-5.2v5.2h5.2v5.2l.1 9.6H4.1c-2.2 0-4.1-1.8-4.1-4.1V4.1C0 1.8 1.8 0 4.1 0h34.4c2.2 0 4 1.8 4 4.1z" style="fill:#0071bb"/>
</svg>
