<svg xmlns="http://www.w3.org/2000/svg" width="42.5" height="42.5" style="overflow:visible;enable-background:new 0 0 42.5 42.5" xml:space="preserve">
    <path d="M38.4 0H4.1C1.8 0 0 1.8 0 4.1v34.4c0 2.3 1.8 4.1 4.1 4.1h34.4c2.2 0 4.1-1.8 4.1-4.1V4.1C42.5 1.8 40.7 0 38.4 0z" style="fill:#ee4036"/>
    <path d="M31 15.8V9.1c0-.3-.3-.6-.6-.6h-3.9c-.3 0-.6.3-.6.6v2.6l-4.9-4L4.8 21.3h4.9v12.3c0 .7.6 1.2 1.3 1.2h7v-9.3c0-.5.4-.9.9-.9h4.9c.5 0 .9.4.9.9v9.3h6.9c.7 0 1.3-.5 1.3-1.2V21.3h5L31 15.8z" style="fill:#fff"/>
</svg>
