<svg xmlns="http://www.w3.org/2000/svg" width="42.5" height="42.5" style="overflow:visible;enable-background:new 0 0 42.5 42.5" xml:space="preserve">
    <style>
        .st0{fill:#37b34a}
    </style>
    <path class="st0" d="M14.9 23.4c0 .4-.3.7-.7.7h-4.1v-6.4c0-.5.4-.9.9-.9.3 0 .5.1.7.3.2.2.3.4.3.6v5h2.3c.3 0 .6.3.6.7zm2.9-5.7v5.5c0 .5-.4.9-.9.9s-.9-.4-.9-.9v-5.5c0-.5.4-.9.9-.9.5-.1.9.4.9.9zm8.4-.3V24h-1c-.1 0-.3 0-.4-.1-.1 0-.2-.1-.3-.2l-3.8-4.4v3.9c0 .4-.3.7-.7.7h-.3c-.4 0-.7-.3-.7-.7v-6.6h1.3s.1 0 .1.1l.1.1 3.8 4.4v-4c0-.4.3-.7.7-.7h.3c.6.2.9.5.9.9zm6.5 0c0 .4-.3.7-.6.7h-2.6v1.7h1.9c.4 0 .6.3.6.6 0 .4-.3.6-.6.6h-1.9v1.7H32c.3 0 .6.3.6.6v.1c0 .3-.3.6-.6.6h-4.5v-7.3H32c.4 0 .7.3.7.7z"/>
    <path class="st0" d="M38.4 0H4.1C1.8 0 0 1.8 0 4.1v34.4c0 2.3 1.8 4.1 4.1 4.1h34.4c2.2 0 4.1-1.8 4.1-4.1V4.1C42.5 1.8 40.7 0 38.4 0zm-6.3 29.7c-1.7 1.6-13.5 10.7-12.5 7.1.6-2.1.4-3.1-.1-3.6-7.8-.7-13.8-6.1-13.8-12.7 0-7 7-12.8 15.6-12.8s15.6 5.7 15.6 12.8c-.1 3.6-1.9 6.9-4.8 9.2z"/>
</svg>
