<svg xmlns="http://www.w3.org/2000/svg" width="352.4" height="80" style="overflow:visible;enable-background:new 0 0 352.4 80" xml:space="preserve">
    <style>
        .st0{fill:#e1251b}.st2{fill:#323e48}
    </style>
    <path class="st0" d="M110.5 12C103.2 6.3 86.4 2 67.6.8 64.3.5 60.8.4 57.4.4c-3.2 0-6.3.2-9.4.3C28.9 1.9 11.6 6.2 4.3 12c-3 2.3-4.3 5.4-4.3 8.8 0 2.8.5 5.4 3 7.6 6.8 6.2 26.5 12.1 45 14.1 3.2.3 6.4.5 9.4.5 3.3 0 6.8-.3 10.2-.6 18.2-1.8 37.5-7.9 44.1-14 2.5-2.3 3.1-4.9 3.1-7.6 0-3.4-1.3-6.5-4.3-8.8zM93.9 28.5c-4.3 4.9-13.9 9.2-26.3 10.8-3.2.4-6.6.7-10.2.7-3.3 0-6.4-.2-9.4-.6-12.8-1.5-22.8-5.8-27.2-10.9-1.7-2-2.4-4.9-2.4-7 0-2.3.9-5.9 4.4-8.5C27.5 9.3 36.7 5.7 48 4.1c2.9-.4 6.1-.6 9.4-.7 3.5.1 6.9.4 10.2.8 11 1.6 19.7 5.2 24.4 8.7 3.5 2.7 4.4 6.3 4.4 8.5 0 2.1-.8 5.1-2.5 7.1z"/>
    <path d="M66 15.6c.6-.1 1.1-.2 1.6-.4.7-.2 1.5-.7 2.3-1.2.6-.5 1.1-1 1.6-1.7.2-1.2.2-2 0-3-.6-.5-1-.9-1.8-1.3-.8-.2-1.4-.2-2.2 0-.4.2-.8.5-1.3 1-1.8 2.1-2.8 3.8-2.8 6.7.9.2 1.9.1 2.6-.1zm-18-1.1c.7.3 1.4.6 1.9.8.5.2 1.6.4 1.8 0 .4-.8.2-1.9 0-2.8-.3-1.3-.9-2.3-1.7-3.4-.5-.7-1.3-1.4-2.1-1.8-.1 0-.2-.1-.2-.1-.7-.3-1.7-.3-2.3.2-.9.8-1.8 2.3-1.3 3.7.5 1.6 2.3 2.7 3.9 3.4zm19.6 16h-.2c-.5-.2-.8-.6-.8-1.3v-5.6h5.2v-6h-4.2l-6.6-.1.1-10.6h-6.8v10.6l-6.3.1h-4.9v6h5.2c-.1 1.2-.2 2.5-.2 3.6-.1.3-.1.7-.2 1-.3 1-.6 2-1.1 3-.9 1.4-1.8 2.7-2.8 4.1-.1.8.7.8 1 .7 1.2-.6 2-1.1 2.8-1.7.8-.6 1.7-1.2 2.7-1.9 1.3-1 2.7-2.8 3.4-4 .8-1.2 1.3-1.9 1.9-3.6l.3-1.1 2.7-.1.7.4-.1 9.3c.2 1.3 1.3 2.3 1.9 2.4l4.1.2 2-.1 1.2-.1c2.2-1.3 2.8-2.6 3.2-5.3l-4.2.1z" style="fill-rule:evenodd;clip-rule:evenodd;fill:#e1251b"/>
    <path class="st2" d="M98.6 54.6c0-.2.3-.6.5-.6h8.9c.2 0 .5.3.5.6v2.9h2.7v-3.4c0-1.1-.6-2.3-2.4-2.3h-3.7c-.3-.7-.7-1.6-.9-2.3h-3.3c.2.7.6 1.6.9 2.3h-3.6c-1.7 0-2.4 1.3-2.4 2.3v3.4h2.8v-2.9zm-2.3 7.6h3.7c1.6-1.2 2.8-3.8 2.9-6.6H100c-.3 4.1-3 6.1-3.7 6.6zm7.9-6.6v4c0 1.8 1.2 2.6 2.7 2.6h3.6l.7-2.2h-3.4c-.4 0-.6-.2-.6-.6v-3.8h-3zm-8.8 3.9c-.6.3-1.3.6-2 .9v-4.1H95V54h-1.6v-4.5h-3.1V54h-2.5v2.3h2.5v5.4c-.8.3-1.9.7-2.7.9v2.5c.8-.3 1.8-.6 2.7-1V70c0 .4-.3.6-.7.6h-1.8l.7 2.2H91c1.6 0 2.4-1.3 2.4-2.3v-7.7c.6-.2 1.3-.5 2-.8v-2.5zm9.5 11.1v-5h5.7v-2.2H96.3v2.2h5.3v5h-6.3v2.2h16.1v-2.2h-6.5zm-26.8-1c.7-1.7 1.3-3.3 1.8-5.1h-3.1c-.5 1.8-1.1 3.5-2.1 5.1h3.4zm-11.8-5.1H63c.6 1.8 1.2 3.4 1.9 5.1h3.5c-.9-1.7-1.6-3.3-2.1-5.1zm7-1.1h9v-2.3h-9V58h4v-2c1.1 1.3 1.6 1.9 2 2.3h4.3c-2.2-2.1-4.3-4.5-5.9-6.9-.3-.4-1-1.6-2.5-1.6h-7.4c-1.5 0-2.3 1.2-2.5 1.6-1.6 2.4-3.8 4.8-5.9 6.9h4.3c.4-.4 1-1 2-2.3v2h4v3.1h-9v2.3h9v7.1h-9.8v2.3H83v-2.3h-9.8v-7.1zm-7.4-7.7c.6-.8 1.4-1.8 2.5-3.1.2-.3.4-.4.9-.4h4.3c.5 0 .7.2.9.4 1.1 1.3 1.9 2.3 2.5 3.1H65.9zM3.5 72h2.9c.8-2.5 1.3-5.1 1.6-7.7H5.3c-.3 2-1.2 6-1.8 7.7zm12.6-10.9h-4.3v-1.8h4.3V57H14c.3-1 .6-2.2.8-3.2h1.1v-2.2h-4.1c-.3-.7-.6-1.6-.8-2.2H7.8c.2.7.5 1.5.7 2.2h-4v2.2h1.1c.2 1 .5 2.2.8 3.2H4.3v2.2h4.4V61H4.3v2.2h4.4v9.5h3.1v-9.5h4.3v-2.1zM11.4 57H9c-.3-1-.5-2.3-.7-3.2h3.9c-.3.9-.6 2.2-.8 3.2zm9 .1v-3.4c0-.3.2-.5.5-.6 2.2-.3 4-.7 6.1-1.2v-2.2c-2.5.5-5.5 1.1-8.1 1.5-.4.1-.8.3-1.1.6-.3.4-.5.9-.5 1.4v10.9c0 3.1-.6 6.6-2 8.9h3.4c1.5-2.8 1.8-6.9 1.8-10.5v-3h2.3V73h3.1V59.3h1.5v-2.2h-7zm-5.3 7.2h-2.6c.1 1.7.4 4.2.8 5.9H16c-.5-1.6-.8-4.1-.9-5.9zm38.6-13.6h-3.3c-.8 2.5-1.6 4.9-3.2 7h3.6c1.3-2.2 2.2-4.6 2.9-7zm-13.8 7c-1.4-2.2-2.4-4.6-3.3-7h-3.3c.8 2.4 1.7 4.8 3 7h3.6zm10 12.7c-.5 0-.9-.4-.9-.9v-8.1h6.1V59h-9.8v-9.7h-3.6V59h-9.9v2.4h6.1c.4 7.2-4.2 10-6.6 11.4h5.2c1.8-1.2 5.1-3.8 4.9-11.4h4.2v8.5c0 2.1 1.2 2.9 2.5 2.9h6.8l1-2.4h-6z"/>
    <path class="st0" d="M136.1.4h6.4v72.4h-6.4z"/>
    <path class="st2" d="M182.8 26.7h-4.5c.2 3 .7 7.4 1.4 10.4h4.7c-.8-2.9-1.3-7.3-1.6-10.4zM192.2 8c0-.5.3-.9.9-1 3.9-.5 7-1.2 10.7-2.2V.9c-4.4 1-9.7 1.9-14.3 2.6-.8.1-1.4.5-1.9 1-.5.7-.9 1.5-.9 2.4V26c0 5.6-1 11.7-3.6 15.6h5.9c2.6-4.9 3.2-12.2 3.2-18.5v-5.2h4.1v23.7h5.4V17.9h2.6V14h-12.2V8zm-7.7 12.9H177v-3.1h7.5v-3.9h-3.7c.5-1.8 1.1-3.9 1.4-5.7h1.9v-4h-7.3c-.5-1.1-1-2.8-1.3-3.9H170c.3 1.2.8 2.7 1.3 3.9h-7.1v3.9h2c.4 1.8.9 3.9 1.4 5.7h-3.7v3.9h7.8v3.1h-7.8v3.9h7.8v16.7h5.4V24.8h7.5v-3.9zm-8.3-7.1H172c-.5-1.8-1-4.1-1.3-5.7h6.8c-.3 1.7-.8 4-1.3 5.7zm74.5-11.2h-5.8c-1.3 4.3-2.8 8.6-5.6 12.3h6.4c2.4-3.8 3.9-8 5-12.3zM226.6 15c-2.5-3.9-4.3-8.1-5.7-12.3H215c1.5 4.1 3 8.4 5.3 12.3h6.3zm-64.3 25.2h5.1c1.3-4.4 2.2-9 2.9-13.5h-4.7c-.7 3.5-2.2 10.6-3.3 13.5zm80.3-4.4V21.5h10.7v-4.2H236V.3h-6.3v17.1h-17.5v4.2h10.7c.7 12.7-7.4 17.6-11.7 20h9.2c3.1-2.2 9-6.8 8.7-20h7.3v15c0 3.7 2.1 5 4.4 5h12.1l1.8-4.2h-10.5c-1 0-1.6-.7-1.6-1.6zm44.6-17.9h-4.6c1.2-5 1.8-10.8 1.6-17.8H278c.6 23.5-9 32.9-18.3 41.4h8.1c5.5-4.7 10.8-10.7 13.8-20.1 2 4.5 6.4 12.7 13.8 20.1h8.9c-7.9-7-13.7-14.9-17.1-23.6zm52.3 16.6h-7.6l1.5 3.1h7.6l-1.5-3.1zm12.9-5.7v-3.4h-41.8v3.4h33.2v1.4h-12.2v3.3h12.2v4c0 .6-.5 1.2-1.1 1.2h-5.6l1.4 2.9h6.7c2.3 0 3.7-1.7 3.7-3.4v-4.7h3.4v-3.3h-3.4v-1.4h3.5zM328.3 7.5H313v3.3h36.9V7.5h-15.5V5.9h16.7V2.6h-16.7V0h-6.2v2.6h-16.7v3.3h16.7v1.6zm19.2 9.2v1.9h4.7V16c0-1.3-.4-2.3-1.1-3-.8-.7-1.9-1.1-3.3-1.1h-37.4v3.5h35.8c.9-.1 1.3.7 1.3 1.3zm-34.4 4.2v3.4h36.8v-3.4h-15.4v-1.3h11.4v-3.2h-31v3.2h13.4v1.3h-15.2zm13.5 9.2h-11.4c-.9 0-1.7.3-2.3.8-.7.6-1.1 1.4-1.1 2.3v4.4c0 .8.3 1.6.8 2.1.5.7 1.4 1.2 2.3 1.2h11.8c1 0 1.8-.3 2.3-.8.7-.6.9-1.5.9-2.4v-4.2c0-1-.4-1.8-1-2.4-.6-.7-1.4-1-2.3-1zm-1.2 6.3c0 .7-.5 1.1-1.1 1.1h-6.8c-.6 0-1.2-.5-1.2-1.2v-1.6c0-.7.5-1.1 1-1.1h7c.6 0 1 .5 1 1v1.8zm-5 18.6c-.4.9-.4 2-.4 4.4l2.6-.1v1.5l-2.6-.1v2.5c0 1.8 0 3.5.1 5 0 1.5.1 3 .2 4.5h-4.2c.1-1.5.1-3 .2-4.5 0-1.5.1-3.2.1-5v-2.5h-1.9v-1.5l1.9.1c0-5.5.8-7.4 4-7.4 1.3 0 2.2.3 3.1.7v1.9l-.1.1c-1-1-2.6-1-3 .4zm-25.6 2.4c0-1.2-.1-2.4-.2-3.6.3 0 .7.1 1 .1h2.5c.4 0 .7-.1 1-.1-.1 1.2-.1 2.4-.2 3.6 0 1.2-.1 2.5-.1 4.1v9.3c1.1 0 2.1 0 3.2-.1s2.1-.1 3.2-.3c0 .2-.1.4-.1.6v1.4c0 .2 0 .3.1.4h-10.6c.1-1.1.1-2.3.2-3.5 0-1.2.1-2.5.1-4.1v-3.8c0-1.5-.1-2.8-.1-4zm13.7-4.7c.4-.4.9-.6 1.5-.6s1.1.2 1.6.6c.4.4.6.9.6 1.5s-.2 1.1-.6 1.6c-.4.4-.9.6-1.6.6-.6 0-1.1-.2-1.5-.6-.4-.4-.6-.9-.6-1.6 0-.5.2-1 .6-1.5zm-.5 20.1c.1-.9.2-1.9.2-2.9v-7.5c0-1-.1-2-.2-3h4.2c-.1 1-.2 2-.2 3v7.5c0 1 .1 1.9.2 2.9H308zm23.3-1.4c1.3 0 2.6-.4 3.7-1.2l.1.1-.7 1.7c-.5.4-1 .6-1.7.9-.6.2-1.5.3-2.5.3-.9 0-1.8-.1-2.6-.4-.8-.2-1.5-.7-2.1-1.2-.6-.6-1.1-1.3-1.5-2.2-.4-.9-.5-1.9-.5-3.1 0-1.2.2-2.2.5-3.1.3-.9.8-1.6 1.3-2.2.6-.6 1.2-1 2-1.3.8-.3 1.6-.4 2.6-.4 1.8 0 3.2.5 4.2 1.6s1.5 2.6 1.5 4.5v.9h-7.9c0 .7.1 1.4.2 2.1.1.6.4 1.2.7 1.7.3.5.7.8 1.2 1.1.3.1.8.2 1.5.2m0-9.8c-.3-.8-.8-1.2-1.5-1.2-.4 0-.7.1-1 .4-.3.3-.5.6-.7 1-.2.4-.3.9-.4 1.5-.1.5-.1 1.1-.1 1.6h4.2c0-1.3-.2-2.4-.5-3.3zm-93.7 6.3c-.8-1-1.6-2.1-2.4-3.2-.7-1-1.5-2.1-2.2-3 .7-.9 1.5-1.8 1.9-2.2.6-.7 1.3-1.5 2-2.2.7-.8 1.3-1.5 2-2.1.6-.7 1.1-1.1 1.4-1.4h-3.8c-.2.3-.4.6-1 1.2-.5.6-1.1 1.3-1.8 2.1-.7.7-1.3 1.5-2.1 2.3-.6.6-1.1 1.2-1.7 1.9v-5c0-1.1.1-1.9.2-2.5h-4.2c.1 1.2.1 2.4.1 3.6v12c0 1.2-.1 2.4-.1 3.5h4.2c-.1-.9-.2-2-.2-3.4v-5.6.1c.9 1.2 1.9 2.6 3.3 4.6 1 1.5 2 2.9 3.1 4.3h5c-.4-.5-.9-1.1-1.6-2-.6-1-1.3-1.9-2.1-3zm-45.9 1c0-.7 0-1.4.1-2.2 0-.7.1-1.5.1-2.5 0-1.8-.4-3.1-1-3.9-.7-.8-1.7-1.2-3.1-1.2-.9 0-1.7.2-2.4.6-.7.4-1.3 1-1.8 1.8h-.1c0-1.8 0-3.5.1-5 0-1.5.1-3 .2-4.6h-4.2c.1 1.6.1 3.1.2 4.6 0 1.5.1 3.2.1 5v1.8c0 1.8 0 3.5-.1 5 0 1.5-.1 3-.2 4.5h4.2c0-.4-.1-1-.1-1.6 0-.6-.1-1.2-.1-1.8v-3.8c0-1.3.2-2.3.6-3 .4-.7 1-1.1 1.9-1.1.7 0 1.3.3 1.7.8.4.5.6 1.4.6 2.6 0 1.7 0 3.2-.1 4.5 0 1.3-.1 2.4-.3 3.4h4c0-.7-.1-1.3-.1-2-.2-.7-.2-1.4-.2-1.9zm23 0c0-.7 0-1.4.1-2.2 0-.7.1-1.5.1-2.5 0-1.8-.4-3.1-1.1-3.9-.7-.8-1.7-1.2-3.1-1.2-.9 0-1.7.2-2.4.6-.7.4-1.3 1-1.8 1.8h-.1l.1-2.1h-4c.1 1 .1 2 .2 3v7.5c0 1-.1 1.9-.2 2.9h4.1c-.1-.9-.1-1.9-.2-2.9v-4.3c0-1.3.2-2.3.6-3 .4-.7 1-1.1 1.9-1.1.7 0 1.3.3 1.7.8.4.5.6 1.4.6 2.6 0 1.7 0 3.2-.1 4.5 0 1.3-.1 2.4-.2 3.4h4c0-.7-.1-1.3-.1-2-.1-.7-.1-1.4-.1-1.9zm-17.5-16.8c-.6 0-1.2.2-1.6.6-.4.4-.6.9-.6 1.5s.2 1.1.6 1.6c.4.4 1 .6 1.6.6.6 0 1.2-.2 1.6-.6.4-.4.6-.9.6-1.6 0-.6-.2-1.1-.6-1.5-.5-.4-1-.6-1.6-.6zm1.9 10.3c0-1 .1-2 .2-3h-4.2c.1 1 .2 2 .2 3v7.5c0 1-.1 1.9-.2 2.9h4.2c-.1-.9-.2-1.9-.2-2.9v-7.5zm78.8 8.3c-.8 0-1.3-.2-1.7-.4-.4-.3-.5-.6-.5-1.1 0-.3.1-.5.2-.7.2-.2.3-.3.6-.3h1.3c.8 0 1.6-.1 2.2-.3.7-.2 1.2-.5 1.7-.9s.8-.9 1.1-1.4c.2-.6.4-1.2.4-1.9s-.1-1.3-.4-1.8c-.3-.5-.6-.9-1.1-1.3l.1-.1 2.3.1v-1.3h-4.4c-.3 0-.7 0-1-.1h-1c-.9 0-1.7.1-2.4.3-.7.2-1.4.5-1.9.9s-.9.8-1.2 1.4c-.3.5-.4 1.2-.4 1.9 0 1.2.3 2.1.9 2.9.6.7 1.4 1.2 2.6 1.5V68c-.8.2-1.4.6-1.9 1.2s-.7 1.2-.7 1.8c0 .5.1.8.3 1.1.2.3.5.5.9.7v.1c-.7.3-1.3.7-1.7 1.2-.4.5-.6 1.3-.6 2.2 0 1.1.5 2.1 1.4 2.7 1 .7 2.3 1 4.1 1 3 0 7.2-1.1 7.2-4.8 0-3.6-2.2-4.5-6.4-4.5zm-.3-10.4c.5 0 .9.3 1.3.7.3.5.5 1.4.5 2.6 0 1.3-.2 2.2-.4 2.7-.3.5-.8.8-1.4.8-.2 0-.4-.1-.7-.2-.2-.1-.4-.3-.6-.6-.2-.3-.3-.6-.4-1-.1-.4-.2-.9-.2-1.5 0-2.3.6-3.5 1.9-3.5zm3.4 16.4c-.1.4-.4.7-.6 1-.3.3-.6.5-1 .7-.4.2-.9.2-1.4.2-.5 0-.9-.1-1.3-.2s-.8-.3-1.1-.5c-.3-.2-.6-.5-.7-.9-.2-.4-.3-.8-.3-1.3 0-.7.1-1.3.3-1.7.2-.5.6-.7.8-.8.4-.2.8-.4 1.8-.4.6 0 1.1 0 1.6.1s.9.2 1.2.4c.3.2.6.5.7.8.2.4.2.9.2 1.4 0 .4 0 .9-.2 1.2zm-33.1-17.6c-2.1 0-3.7.6-4.9 1.8-1.2 1.2-1.8 2.9-1.8 5 0 1.1.2 2.1.5 3 .3.9.8 1.7 1.4 2.3.6.6 1.3 1.1 2.2 1.4.8.3 1.7.5 2.6.5 1 0 1.8-.2 2.6-.5s1.6-.8 2.2-1.4c.6-.6 1.1-1.4 1.4-2.3.3-.9.5-1.9.5-3 0-2.1-.6-3.7-1.8-5-1.2-1.2-2.8-1.8-4.9-1.8zm0 12.9c-1.7 0-2.6-2.2-2.6-6.5 0-1.6.2-2.9.6-3.8.4-.9 1.1-1.3 2-1.3.9 0 1.6.4 2 1.3.4.9.6 2.2.6 3.8 0 4.3-.9 6.5-2.6 6.5zm21.4-3.1c0-.7 0-1.4.1-2.2 0-.7.1-1.5.1-2.5 0-1.8-.4-3.1-1.1-3.9-.8-.8-1.8-1.2-3.2-1.2-.9 0-1.7.2-2.4.6-.7.4-1.3 1-1.8 1.8h-.1l.1-2.1h-4c.1 1 .2 2 .2 3v7.5c0 1-.1 1.9-.2 2.9h4.1c-.1-.9-.1-1.9-.2-2.9v-4.3c0-1.3.2-2.3.6-3 .4-.7 1-1.1 1.8-1.1.7 0 1.3.3 1.7.8.4.5.6 1.4.6 2.6v4.5c0 1.3-.1 2.4-.3 3.4h4.2c0-.7-.1-1.3-.1-2-.1-.7-.1-1.4-.1-1.9zm-93-4.6c-.5-.7-1.1-1.2-1.9-1.7-.7-.5-1.5-.8-2.3-1.2-.8-.3-1.6-.7-2.3-1-.7-.3-1.3-.7-1.8-1.2s-.8-1-.8-1.7.2-1.3.8-1.7c.6-.5 1.3-.7 2.3-.7 2.2 0 3.7.8 4.7 2.4h.3l.9-2.8c-.7-.4-1.5-.7-2.5-1-.9-.2-2.1-.4-3.3-.4-.9 0-1.8.1-2.6.4-.8.3-1.5.6-2.1 1.1-.6.5-1.1 1.1-1.4 1.8-.3.8-.5 1.6-.4 2.6.1 1 .4 1.9.9 2.6.5.7 1.1 1.3 1.8 1.7.7.5 1.5.8 2.3 1.2.8.4 1.6.7 2.3 1 .7.3 1.3.7 1.8 1.2.5.4.8 1 .8 1.7.1.8-.2 1.5-.7 2-.5.6-1.4 1-2.7.9-.7-.1-1.4-.2-1.9-.3-.6-.2-1.1-.5-1.5-.8-.4-.3-.8-.8-1.1-1.1-.3-.4-.5-.9-.6-1.3h-.3l-1 3c.5.3 1.7 1.1 2.6 1.5 1 .4 2 .8 3.2.8 1.3.1 2.3-.1 3.3-.4 1-.3 1.8-.8 2.5-1.3s1.2-1.2 1.5-2c.3-.8.5-1.6.4-2.5-.4-1.2-.7-2.1-1.2-2.8z"/>
</svg>
