<svg xmlns="http://www.w3.org/2000/svg" xmlns:xlink="http://www.w3.org/1999/xlink" width="121.6" height="274" style="overflow:visible;enable-background:new 0 0 121.6 274" xml:space="preserve">
    <style>
        .st0{fill:#fed5b7}.st1{clip-path:url(#SVGID_2_)}.st2{fill:#fff}.st3{fill:#d15259}.st4{fill:#821e23}.st5{fill:#93674a}.st6{fill:#fbc9a4}.st7{fill:#a39793}.st8{fill:#424e7f}.st10{fill:#060807}.st11{fill:#706563}.st13{fill:#5e3e2b}.st14{clip-path:url(#SVGID_4_)}
    </style>
    <path class="st0" d="M43.8 256.6c1.1-6.2 2.3-12.4 3.4-18.6-3.7-.7-7.5-1.4-11.2-2.1-2.5 8.3-4.8 16.6-6.8 25l14.6-4.3z"/>
    <defs>
        <path id="SVGID_1_" d="M47.4 254c-6-.4-12-.7-18-1.1-3.3 3.4-4.4 11.8-4.8 16.5 0 .4 24.1 1 35.3 1 .3 0 .6 0 .7-.2.1-.2.1-.4.1-.6-.5-3-2.5-5.7-5.2-7.1-2.7-1.4-6.4-1.8-7.8-4.5l-.3-4z"/>
    </defs>
    <use xlink:href="#SVGID_1_" style="overflow:visible;fill:#821e23"/>
    <clipPath id="SVGID_2_">
        <use xlink:href="#SVGID_1_" style="overflow:visible"/>
    </clipPath>
    <g class="st1">
        <path class="st2" d="M19 267c6.1.3 12.3.6 18.4.7 6.1.2 12.3.3 18.4.3 3.4 0 6.9 0 10.3-.1.5 0 .6-.8.1-.8-6.1.1-12.3.1-18.4 0-6.1-.1-12.3-.2-18.4-.5-3.4-.1-6.9-.3-10.3-.5-.6.1-.6.9-.1.9z"/>
    </g>
    <g class="st1">
        <path class="st2" d="M55 260.4c-2.3 1.6-3.6 4.5-3.5 7.3 0 .5.8.4.8-.1-.2-2.6 1.1-5.1 3.2-6.6.4-.3-.1-.9-.5-.6z"/>
    </g>
    <g class="st1">
        <path class="st2" d="M23.6 260.8c3.5.5 6.5 2.8 8 6 .2.5.9.1.7-.3-1.6-3.4-4.9-5.9-8.6-6.4-.5-.1-.6.6-.1.7z"/>
    </g>
    <g class="st1">
        <path class="st2" d="M47.2 264c.5-2.8 2.4-5.3 5-6.6.5-.2.1-1-.3-.7-2.9 1.4-4.9 4.1-5.5 7.2-.1.5.7.6.8.1z"/>
    </g>
    <g class="st1">
        <path class="st2" d="M45.5 263.2c.9-2.8 2.7-5.3 5.2-7 .4-.3-.1-.9-.5-.6-2.5 1.8-4.5 4.4-5.4 7.3-.2.5.6.8.7.3z"/>
    </g>
    <g class="st1">
        <path class="st2" d="M28.1 252.2c.1 1.8 1.1 3.5 2.7 4.4 1.6.9 3.6.9 5.2 0 .9-.5 1.7-1.3 2.2-2.2-.3-.1-.5-.1-.8-.2-.1 1 .3 2 1 2.6.8.7 1.9 1.1 2.9 1 2.2 0 4.3-1.3 5.7-3 .8-1 1.3-2.1 1.6-3.3.1-.5-.7-.6-.8-.1-.4 1.8-1.6 3.5-3.1 4.5-1.4 1-3.7 1.7-5.3.6-.8-.5-1.3-1.4-1.2-2.3.1-.5-.6-.6-.8-.2-.9 1.7-3.1 2.7-5 2.3-2-.5-3.4-2.4-3.4-4.3-.2-.4-1-.3-.9.2z"/>
    </g>
    <path class="st3" d="M60.5 267.9c.8 1.3 1 4.6.9 5.9-7.6-.1-24 .3-24.3-.2-.1-.3-2.8-3.4-3.3-3.1-.5.3-1.8 3.3-2.3 3.2-2.3-.4-4.5.5-6.7.1l-.3-6.4 36 .5z"/>
    <path class="st4" d="M22.2 145.4c.5 1.2.7 2.9-.4 3.4-1 .4-2-.6-2.8-1.5-1.7-1.8-4.1-2.9-6.5-2.8-2.4.1-4.8 1.5-5.9 3.6-.7 1.4-.9 3-1 4.5-2.1 23.2-1.9 103.9-.6 119.1.1 1.3-1 2.4-2.3 2.3-1.1-.1-2-1-2-2.1-.7-31-1.2-84.1.3-114.8.3-5.8.9-12.4 5.4-16.1 2.7-2.2 6.6-3 10-1.9 3.4 1 5.8 6.3 5.8 6.3z"/>
    <path class="st5" d="M33 114.8c-2.8 9.6-3.7 19.7-2.7 29.6.4 4.1 1.1 8.1 1.3 12.2.2 4-.1 7.9-.4 11.9-2.2 27.3-6.7 54.7-4.4 82 8.1.1 16.2-.6 24.1-2.3-3.7-29.2 1.7-58.6 5.9-87.7.3-2 .6-3.9 1.3-5.8.6-1.5 1.4-2.9 2.2-4.4 5-9 8.2-19.1 9.1-29.3.1-.6.1-1.2-.2-1.7-.5-.9-1.6-1.1-2.6-1.3-6.3-.8-12.7-1.3-19-1.6L33 114.8z"/>
    <path class="st5" d="M67.9 120.4c12.8 18.5 22.3 39.3 28 61 .3 1.3.7 2.6.6 3.9-.1 1.7-1 3.2-1.9 4.7-3.2 4.8-7.6 8.6-12.1 12.3-11.5 9.5-23.5 18.2-36 26.3-1.9-7-3.7-14-5.6-21-.2-.8-.5-1.7-.3-2.6.2-1 .8-1.8 1.5-2.5 7.6-9.1 15.5-18 23.6-26.7-5.2-9.2-9.8-18.8-13.8-28.5l16-26.9z"/>
    <path class="st6" d="M19.7 97.9c-1.9 12-4 24-6.3 36-2.6-1-5.4-1.4-8.1-1-1.2.2-2.5 1.1-3.2 2.1-.7 1-1.7 4.8-.5 4.9 1.2.2 3.6-3.8 4.8-3.6-2.2.8-4 2.7-4.7 4.9-.3.9-.8 2.9.1 3.1.6.1 1.8-.9 2.2-1.2 1.3-1 2.7-2 4-3-1 .4-2.2.9-2.7 1.9-.5 1-1.1 2.5-.4 3.4.7.9 2.6-1.4 2.9-1.7.7-.7 1.4-1.3 2.2-2-.7.6-1.4 1.3-1.7 2.1-.3.9-1.1 2.7-.2 2.9 1.2.3 3.3-1.8 4.3-2.6 3-2.4 8.5 1.1 10.9-2 .9-1.1.9-2.6 1-4 .2-2.2 1-4.3 1.6-6.4 4.5-13.9 7.4-28.3 8.6-42.9l-14.8 9.1z"/>
    <path class="st7" d="M54.9 36.3c-.4 1.6-9.3 6.3-11 5.7-1.7-.7-2.4-2.8-1.4-4.2-.8 1-2.6.9-3.6.2-1-.8-1.4-2-1.5-3.3-1.5.6-3.5-.3-4.2-1.6-.7-1.4-.5-3 0-4.4-1.6-.6-2.7-1.9-2.9-3.4-.2-1.5.5-3 1.9-3.9-1.1-.3-1.7-1.5-1.5-2.5.2-1 1-1.9 2-2.5-.3.5-1.2.3-1.5-.1-.3-.5-.2-1.1-.1-1.6.4-1.2 1.2-2.2 2.2-3.1-1-.9-.5-2.4.6-3.2 1.1-.7 2.5-.9 3.9-1 .7-.8 2.2-1.1 3.2-.5 1 .6 1.3 1.9.8 2.8l13.1 26.6z"/>
    <path class="st6" d="M63.2 11.6c.4 4.3 5.3 6.8 8.3 10.8 1.7 2.3 3 8.4 3 8.4-.1.1-4.3.6-4.3.6-.1 1.9 1.2 9.6.3 11.3-1 2-10.3-.1-12.4-.6-.7 3.4-1.5 6.8-2.2 10.2-4.8-1.3-9.4-3.3-13.5-6.1 3-4.3 5.4-9.1 7-14.2-2.4.6-5-1.9-4.6-4.4.5-2.5 3.8-3.9 5.8-2.5-.3-4.7-.7-9.5-1.3-14.2 4.6-.9 9.3-.9 13.9.1v.6zm12.3 47.9c3.7 1.2 6.3 2.1 10.2 2.8 2-8.1 3.2-16.4 4.4-24.6.2-1.6.6-3.4 1.8-4.5.9-.9 2.1-1.3 3.4-1.6 3.5-.9 9.8-.9 13.4-.4.6.1 1.6.3 2.6.6s.8 1.7-.2 1.9c-2.3.4-5.3.5-7.1.6 1-.1 2 .6 2.1 1.6.1 1-.8 2-1.8 1.9 1-.4 2.2.6 2.1 1.6 0 1.1-1 1.9-2.1 2 1-.1 1.5 1.3.9 2.1-.5.8-1.6 1-2.6 1.1-1 0-5.7-.5-6.6-.1 1.4 5.5 2.6 32.8-.6 33.9-4.4 1.5-24.8-3.1-30.8-5.3-.2-.1-.5-.2-.6-.4v-1c0-1.8-.1-3.6-.1-5.3l11.6-6.9z"/>
    <path class="st8" d="M102.2 29.1c.3 1 1.2 1.7 2.2 2-.4.7-.9 1.3-1.6 1.8.6-.1 1.3-.4 1.6-.9-.1.6-.4 1.2-.8 1.7.6-.4 1-1 1.3-1.7 0 .6-.1 1.3-.4 1.9.8-.6.4-1.9 1.1-2.6.1-.1.2-.2.3-.4.1-.1.1-.3 0-.4-.1-.1-.4 0-.5-.1-.1 0-.2-.2-.2-.2-.6-.9-1-1.9-1.2-3l-1.8 1.9zm-8-.1c.1.5.2 1.1-.1 1.6-.2.4-.7.6-1.1.8-.5.2-.9.3-1.4.4.5.1 1 0 1.4-.1-.6.1-1.1.4-1.6.8.6-.1 1.2-.3 1.8-.5-.5.2-.9.5-1.2 1 .8-.2 1.6-.5 2.3-.9.7-.4 1.4-1 1.7-1.8.2-.5.2-1.1.2-1.6l-2 .3z"/>
    <path d="M97.5 24.2c-1.3-.2-2.3-1-3.5-1.6-1.1-.6-2.5-1-3.7-.6-.7.2-1.4.7-2 .5-.2-.1-.4-.2-.6-.2-.4 0-.6.5-.6.9-.1 1.6 1.2 2.9 2.5 3.8 2.2 1.6 4.8 2.6 7.5 2.9.7.1 1.4.1 1.9.6.5.4.7 1.3.2 1.7-.6.4-1.7 0-2 .7.5-.1.9-.2 1.4-.3-.6.1-1.2.5-1.5 1 .7-.1 1.3-.4 1.9-.8-.5.3-.9.7-1.1 1.1 1-.4 2-.8 2.8-1.6.8-.7 1.3-1.8 1.1-2.9h3c.2 0 .4 0 .5.1.2.1.4.2.6.4 1.1.7 2.5.5 3.7.3-.7.6-1.4 1.3-1.9 2.1.6-.3 1.2-.7 1.8-1.2-.5.4-.7 1.1-.6 1.7.4-.6.7-1.1 1.1-1.7-.4.5-.5 1.2-.4 1.8.5-.8 1-1.7 1.6-2.5.3-.4.5-1 .2-1.4-.4-.4-1.2-.1-1.5-.5-.2-.3-.1-.7.1-.9.2-.2.5-.4.8-.5 1.5-.6 3-1.2 4.6-1.5 1.2-.2 2.5-.2 3.3.7.7.7.7 1.9.2 2.8-.4.9-1.2 1.5-2.1 2-2.6 1.5-5.8 1.9-8.8 2.2 1.3.4 2.7.4 4 .3 1.7 0 3.4-.1 5.1-.7 1.6-.5 3.2-1.5 4.1-2.9.9-1.5 1-3.4.1-4.9-.6-.9-1.5-1.5-2.4-1.9-2.9-1.3-7.3-.9-10.2.6-4 2-11.2.4-11.2.4z" style="fill:#7f8ccc"/>
    <path class="st8" d="M105.3 26.2c-.5 1.1-.6 2.4-.1 3.5.1.2.4.1.4-.1-.4-1-.4-2.2.1-3.2 0-.3-.3-.5-.4-.2zm-5.9 1.5c.7.7 1.4 1.4 2 2.2.1.1.2.1.3 0 .1-.1.1-.2 0-.3-.6-.8-1.3-1.5-2-2.2-.2-.1-.5.1-.3.3zm-2 1.2c.5.4.9.8 1.3 1.3.1.1.2.1.3.1.1 0 .1-.2.1-.3-.4-.5-.8-1-1.3-1.4-.1-.1-.2-.1-.3 0-.2.1-.2.3-.1.3z"/>
    <path d="M89.9 23.6c0 .3.2.5.5.5s.5-.2.5-.5-.2-.5-.5-.5-.5.3-.5.5z"/>
    <path class="st8" d="M94.4 27.2c.1.1.2.2.4.3h.1s.1 0 .1-.1v-.1s0-.1-.1-.1c-.1-.1-.2-.2-.4-.3h-.1s-.1 0-.1.1v.1l.1.1c-.1 0-.1 0 0 0zm-.8.4.3.3.1.1s.1 0 .1-.1l.1-.1s0-.1-.1-.1l-.3-.3-.1-.1s-.1 0-.1.1l-.1.1.1.1zm-.2.6.2.2h.4v-.2l-.2-.2h-.4v.2c0-.1 0-.1 0 0zm2.3.6c.2.1.3.2.5.3.1 0 .2 0 .3-.1 0-.1 0-.2-.1-.3-.2-.1-.3-.2-.5-.3-.1 0-.2 0-.3.1 0 .2 0 .3.1.3zm7.6-1.9c-.2.1-.5.1-.7.2-.1 0-.2.1-.1.2 0 .1.1.2.2.1.2-.1.5-.1.7-.2.1 0 .2-.1.1-.2 0-.1-.1-.2-.2-.1zm-.4.8c-.2 0-.3.1-.5.1 0 0-.1 0-.1.1v.1s0 .1.1.1h.1c.2 0 .3-.1.5-.1 0 0 .1 0 .1-.1v-.1s0-.1-.1-.1h-.1zm-1-2h-.3s-.1 0-.1.1l-.1.1s0 .1.1.1l.1.1h.3s.1 0 .1-.1l.1-.1s0-.1-.1-.1l-.1-.1zm-1.5.9c-.2-.1-.5-.1-.7-.2-.1 0-.2 0-.2.1s0 .2.1.2c.2.1.5.1.7.2.1 0 .2 0 .2-.1s0-.2-.1-.2zm-1.5-1.1c-.3 0-.6-.1-.9-.1-.1 0-.2.1-.2.2s.1.2.2.2c.3 0 .6.1.9.1.1 0 .2-.1.2-.2s-.1-.2-.2-.2zm-2.5.7H96v.3l.1.1h.4v-.3c0-.1-.1-.1-.1-.1zm12.8-.6c-.4 1-.7 2.3.2 3.2.2.2.4-.1.3-.3-.8-.7-.4-1.9-.1-2.8.1-.2-.3-.3-.4-.1zm2.7-.9c-.1.1-.2.1-.4.2l-.1.1v.1l.1.1h.1c.1-.1.2-.1.4-.2l.1-.1v-.1l-.1-.1c0-.1 0 0-.1 0zm-.9-.6-.1.1.1-.1c-.1.1-.2.2-.3.2 0 0-.1 0-.1.1v.1s0 .1.1.1h.1c.1 0 .2-.1.2-.1l.1-.1.1-.1v-.1s0-.1-.1-.1h-.1c.1-.1 0 0 0 0zm2.4-.6h-.4s-.1 0-.1.1l-.1.1s0 .1.1.1l.1.1h.4s.1 0 .1-.1l.1-.1s0-.1-.1-.1l-.1-.1zm3.9.1h-.5s-.1 0-.1.1l-.1.1c0 .1.1.2.2.2h.5s.1 0 .1-.1l.1-.1c0-.1-.1-.2-.2-.2zm-1.1.8h-.3s-.1 0-.1.1l-.1.1s0 .1.1.1l.1.1h.3s.1 0 .1-.1l.1-.1s0-.1-.1-.1c0-.1 0-.1-.1-.1zm4.3 1.2-.2-.2h-.4l-.1.1v.1l.2.2h.4l.1-.1v-.1c0 .1 0 0 0 0zm-1.6 4.8c-.1.3-.2.5-.4.8v.1s0 .1.1.1.2 0 .3-.1c.1-.3.2-.5.4-.8v-.1s0-.1-.1-.1-.3 0-.3.1zm-1.8 1.6c-.1.1-.1.2-.2.3v.2s0 .1.1.1h.1s.1 0 .1-.1c.1-.1.1-.2.2-.3V32s0-.1-.1-.1h-.1l-.1.1c.1-.1.1-.1 0 0zm2.8-3.8c-.2.2-.3.4-.5.5l-.1.1s0 .1.1.1l.1.1s.1 0 .1-.1c.2-.2.3-.4.5-.5l.1-.1s0-.1-.1-.1l-.1-.1s-.1 0-.1.1zm-32.6-5.6c.2.5.4 1 .7 1.5.3.4.6.7 1 .9.8.4 1.8.6 2.6.3.2-.1.1-.4-.1-.4-.8.2-1.6.1-2.3-.3-.4-.2-.7-.5-.9-.8-.3-.4-.5-.9-.6-1.4-.1-.2-.5-.1-.4.2zm4.5.2c-.1-.2-.3-.3-.4-.4-.2-.1-.4-.1-.6-.1-.1 0-.2.1-.1.2 0 .1.1.1.2.1h.4s.1 0 .1.1l.1.1c.1.1.2.1.3.1 0 .1.1-.1 0-.1z"/>
    <path class="st5" d="M104.9 41.1h-2.7c-.4 0-.4.6 0 .6h2.7c.4 0 .4-.6 0-.6zm.8-3.8c-.9 0-1.8-.1-2.6-.2-.2 0-.3.1-.4.2 0 .2.1.4.2.4.9.2 1.8.3 2.8.3.4-.1.4-.7 0-.7zm-.8-3.1c-.9.1-1.8 0-2.6-.2-.4-.1-.6.5-.2.6.9.2 1.9.3 2.8.2.2 0 .3-.1.3-.3 0-.2-.1-.3-.3-.3z"/>
    <path class="st5" d="M101.7 33.7c.7 2.4.7 4.9.1 7.2-.2.7-.4 1.3-.7 2-.1.2.1.3.2.4.2.1.3-.1.4-.2 1-2.3 1.3-4.9 1-7.4-.1-.7-.2-1.4-.4-2.1-.1-.4-.7-.3-.6.1zM70.6 36c-1.7-.2-3.4-1-4.6-2.2-.3-.3-.6-.7-.9-1.1-.1-.1-.3-.2-.4-.1-.1.1-.2.3-.1.4 1 1.6 2.6 2.8 4.4 3.3.5.2 1 .3 1.6.3.2 0 .3-.2.3-.3 0-.1-.1-.3-.3-.3z"/>
    <path class="st10" d="M62.1 24.4c.2 1 .9 1.6 1.5 1.5.7-.1 1.1-1 .9-2-.2-1-.9-1.6-1.5-1.5-.7.2-1.1 1.1-.9 2z"/>
    <path class="st7" d="M50.8 26c-.1.6-.2 1.3 0 1.8.2.6.9 1 1.5.8.4-.1.6-.5.8-.9.6-1.6.2-3.5-.9-4.7 1.4.6 3-.9 2.9-2.4 0-1.5-1.2-2.8-2.4-3.7 1.5-1.8.8-4.9-1.3-6 1.3.2 2.3 1.1 3.4 1.7 1.1.6 2.8.6 3.4-.5.9 1.8 4.1 1.8 5-.1-1 .6-.4 2.3.8 2.4 1.1 0 2-1.3 1.7-2.4-.3-1.1-1.4-1.8-2.5-2 1.2-.5 1.9-1.9 1.6-3.1-.2-1.2-1.4-2.2-2.7-2.3-.2-1.5-1.9-2.7-3.4-2.4-1.5.3-2.6 1.9-2.3 3.4.3-1.3-.7-2.7-2-3.2-1.2-.5-2.7-.4-4-.2-.6.1-1.3.2-1.8.6-.6.5-.9 1.2-.7 1.8.7-1.5-.2-3.3-1.6-4.1-1.4-.8-3.2-.6-4.7.2-.7.4-1.5.9-1.8 1.7-.3.8-.1 1.8.6 2.2-1.6-.5-3.1 1.2-3 2.9.1 1.6 1.3 3 2.6 3.9-1.2.7-1.9 2.2-1.7 3.6.2 1.4 1 2.7 2.1 3.6-1.1.5-1.7 1.7-1.6 2.9.1 1.2 1 2.2 2.2 2.6-1 .2-1.7 1.2-1.5 2.2.2 1 1.4 1.6 2.3 1.4-.9.4-.4 1.9.5 2 .9.1 1.7-.6 2.3-1.3.5-.8 1-1.6 1.7-2.2 1.3-.9 2.9-.5 4.5-.2z"/>
    <path class="st11" d="M62.9 17.9c.6.8.1 2-.9 2.2h-.2c-1.5.2-2.9.3-4.4.3 1.3-1.5 3.4-2.4 5.5-2.5z"/>
    <path style="opacity:.5;fill:#93674a" d="m58.1 42.1-7.6-2.9 7 5.4z"/>
    <path class="st7" d="M43.5 37.8c.2 1.2-.1 2.4-.8 3.3-.3.4-.8.8-1.3.7-.2 0-.5-.2-.6-.4-.1-.3-.1-.6 0-.9.2-.6.6-1.1 1.1-1.4-.1 0-.1 0-.2-.1.3.6.1 1.3-.3 1.8-.4.6-1.2.8-1.9.9-.4 0-.9 0-1.3-.1-.2.1-.2.4 0 .4.8.2 1.7.2 2.5-.1.7-.3 1.2-.9 1.4-1.7.1-.4 0-.8-.1-1.2 0-.1-.1-.1-.2-.1-.6.3-1 .8-1.2 1.4-.2.6-.2 1.4.4 1.7.6.3 1.2 0 1.7-.4.5-.5.8-1.1 1-1.7.2-.7.3-1.5.2-2.3-.2-.1-.5 0-.4.2zM33 8c-1.1-.4-2.2.3-2.7 1.3-.6 1.2-.2 2.6.6 3.6.2.3.5.6.7.8.2.2.5.5.7.6.3.1.6.2.8-.1.2-.2.1-.6-.1-.8-.4-.4-1.1-.4-1.6-.2-.6.2-1 .6-1.4 1.1-.8.9-1.2 2.1-1.2 3.3 0 .6.1 1.2.3 1.8.2.5.4 1.3 1.1 1.4.3 0 .5 0 .7-.2.2-.2.2-.5 0-.7-.3-.4-1-.4-1.4-.2-1 .4-1.5 1.4-1.7 2.4-.2 1.1.2 2.2 1 3 .9.8 2.1 1.3 3.3 1.4h.9c.2 0 .2-.3 0-.3-1.9.2-4.4-.8-4.8-2.9-.2-.9 0-1.8.6-2.5.3-.3.6-.6 1-.7.2-.1.4-.1.6 0 .1.1.3.2.3.3 0 .2-.3.3-.5.2-.3 0-.4-.3-.5-.5-.2-.5-.4-1-.5-1.5-.1-1 0-2.1.5-3.1.4-.9 1.2-1.9 2.2-2 .2 0 .5 0 .7.1.2.1.4.3.3.5-.1.2-.5 0-.6-.2l-.6-.6c-.8-.8-1.5-2-1.2-3.2.2-.9.9-1.7 1.9-1.8.2 0 .4 0 .6.1.1 0 .2-.3 0-.4zm31.4 3c.6-.7.8-1.7.8-2.7 0-.9-.1-1.8-.5-2.7-.3-.8-.9-1.6-1.6-2.1-.4-.3-.9-.5-1.4-.5-.5 0-.9.2-1.3.4-.9.7-1.3 1.8-1.4 2.9 0 .2.2.2.3.1.8-.6.9-1.7 1-2.6 0-.5 0-1.1-.2-1.6-.1-.2-.3-.5-.6-.7-1.4-1.1-3.5-.7-4.8.3-.9.7-1.3 2-.9 3 .1.2.4.2.3 0-.3-.9 0-1.9.6-2.5.6-.6 1.4-1 2.2-1.1.7-.1 1.5 0 2.1.4.3.2.5.4.7.7.3.4.4.8.3 1.3 0 .5-.1 1-.2 1.5s-.3.9-.7 1.2c.1 0 .2.1.3.1.1-.9.4-1.8 1-2.5.3-.3.7-.5 1.1-.6.5-.1.9.1 1.3.3 1.4.9 2 2.7 2.1 4.3 0 1-.1 2-.8 2.8-.1.3.2.5.3.3z"/>
    <path class="st5" d="M95 43.4c-.4-.1-.8-.1-1.2-.2h-.2c-.1 0-.1.1-.1.2 0 .2 0 .4.2.4.4.1.8.1 1.2.2h.2c.1 0 .1-.1.1-.2 0-.2-.1-.4-.2-.4z"/>
    <path class="st6" d="M51.3 26c-1.3-1.6-3.8-2.1-5.7-1.3s-3.2 3-3.1 5.1c0 2.1 1.3 4.1 3.1 5.2.7.4 1.5.7 2.4.7 2 0 3.5-1.8 4.8-3.4L51.3 26z"/>
    <path class="st3" d="M64.5 28.7c2.2 0 3.9-1.8 3.9-3.9 0-2.2-1.8-3.9-3.9-3.9-2.2 0-3.9 1.8-3.9 3.9 0 2.1 1.7 3.9 3.9 3.9zm0-7.3c1.8 0 3.3 1.5 3.3 3.3 0 1.8-1.5 3.3-3.3 3.3-1.8 0-3.3-1.5-3.3-3.3 0-1.8 1.5-3.3 3.3-3.3z"/>
    <path class="st3" d="M67.4 23c.2-1.4 1.7-2.4 3.1-2.4.4 0 .8.1 1.2.3.1.1.2.3.1.4-.1.1-.3.2-.4.1-.2-.1-.5-.2-.8-.2H70c-.1 0-.1 0-.2.1-.2 0-.3.1-.4.1-.1.1-.3.1-.4.2-.1.1-.2.1-.3.3l-.2.2s0 .1-.1.1c-.2.3-.3.5-.4.9 0 .2-.2.2-.4.2s-.2-.2-.2-.3zm-6.5 1.8H50.6c-.4 0-.4-.6 0-.6h10.3c.4.1.4.6 0 .6z"/>
    <path class="st5" d="M44.9 27.1c1.9.1 3.6 1.4 4.3 3.2.2.5.3 1 .3 1.5 0 .2-.2.5-.4.4-.2 0-.4-.2-.4-.4v-.4s0 .1 0 0v-.3c0-.2-.1-.4-.2-.6v-.1c0-.1 0 .1 0 0v-.1c0-.1-.1-.2-.1-.3-.1-.2-.2-.4-.3-.5 0 0-.1-.1 0 0l-.1-.1c-.1-.1-.1-.2-.2-.2l-.4-.4-.1-.1s.1.1 0 0l-.1-.1c-.1-.1-.2-.1-.3-.2l-.6-.3c-.1 0 .1 0 0 0h-.1c-.1 0-.1 0-.2-.1-.1 0-.2-.1-.3-.1-.1 0-.2-.1-.3-.1 0 0-.1 0 0 0h-.3c-.2 0-.5-.2-.4-.4-.2-.1 0-.4.2-.3z"/>
    <path class="st5" d="M44.8 30.5c.9-1 2.5-1.4 3.8-.9.2.1.4.3.3.5-.1.2-.3.4-.5.3-.1-.1-.3-.1-.4-.1h-.2c.1 0 0 0 0 0h-.6c-.1 0 .1 0 0 0H47c-.1 0-.3.1-.4.1h-.2c-.1 0-.1.1-.2.1s-.1.1-.2.1c0 0-.1 0-.1.1l-.3.3c-.2.2-.5.2-.6 0-.3 0-.3-.3-.2-.5zm18.3-.5c-.9 1.4-1.5 3-2 4.6-.1.5-.2.9-.3 1.4 0 .2-.3.1-.3-.1.3-1.7.9-3.3 1.6-4.8.2-.4.4-.9.7-1.3.1-.1.4.1.3.2zM60 17.2l3-.6c.2 0 .3.2.1.3l-3 .6c-.3 0-.3-.3-.1-.3zm.2-1 2.1-.6c.2 0 .3.2.1.3l-2.1.6c-.2.1-.2-.2-.1-.3zm-5.5 29.5v.6c0 .1-.1.2-.1.1-.1 0-.1-.1-.1-.1v-.6c0-.1.1-.2.1-.1 0-.1.1 0 .1.1zm-.9-1.5v.6c0 .1-.1.2-.1.1-.1 0-.1-.1-.1-.1v-.6c0-.1.1-.2.1-.1 0-.1.1 0 .1.1z"/>
    <path class="st7" d="M52.5 26.3c.6 1.2.4 2.7.8 4 .8 2.8 3.7 4.3 6.3 5.5 2.3 1 4.7 2.1 7.2 2.1 1.5 0 3-.3 4.4 0 .7.2 1.3.5 1.9.8 1 .5 1.9 1 2.6 1.9.7.8 1.1 2 .7 3-.7 2-3.4 2.1-5.5 1.8-3.4-.4-6.7-.8-10.1-1.2-3.6-.4-7.7-1.2-9.5-4.3-.7-1.2-.9-2.7-1.1-4.1-.5-4.2-.8-8.5-.8-12.8l3.1 3.3zm18 5.2c-2.2-.9-4.7-.8-6.8.1 2 1.1 4.6 1 6.5-.2l.3.1z"/>
    <path class="st4" d="M59.5 50.8c-.9-2.2-3-3.7-5-4.9-3.6-2.1-7.4-4-11.4-5.4-.8 1.9-1.6 3.9-2.3 5.8 6.4-.3 12.8.9 18.6 3.6l.1.9z"/>
    <path class="st3" d="M25.9 66.8c-.5 3.8 6.2 45 5.5 48.9-.1.6-.2 1.1 0 1.7.2.6.6 1 1.1 1.5 8.9 8.7 24 6.7 36.1 4.1.4-.1.8-.2 1-.5.3-.3.2-.7.3-1.1 8.5-18.3-2.5-34.6-3.3-39.5l20.2 1.4c.2-8.2-2.4-22-2.7-22.5-.3-.5-24.5-11.5-34.6-14.2-1.7-.5-19.8-6.9-23.6 20.2z"/>
    <path class="st3" d="M34.9 49c-6 6.6-9 15.4-11.6 24-2.3 7.6-4.4 15.3-6.4 23.1-.1.5-.2 1 0 1.4.2.4.7.7 1.1.9 6 2.9 12.4 4.8 18.9 5.7-.1-11.5 6.5-22.5 5-33.9l-7-21.2z"/>
    <path class="st5" d="M1.4 140c.6-1.7 1.7-3.1 3.1-4.1.4-.3.8-.5 1.3-.7.2-.1.5-.1.6.2.1.2.1.5-.2.6-.4.2-.7.4-1.1.6-.2.1-.3.2-.5.3-.1.1 0 0 0 0h-.1l-.1.1c-.1.1-.2.1-.2.2-.3.3-.6.6-.8.9l-.1.1c.1-.1 0 0 0 .1-.1.1-.1.2-.2.3-.1.2-.2.3-.3.5l-.3.6v.1s-.1.1 0 0c0 .1 0 .1-.1.2 0 .1-.1.2-.1.3-.1.2-.3.4-.5.3-.3-.1-.5-.3-.4-.6zm3 2.5c.6-1.6 1.5-3.1 2.6-4.4.3-.4.7-.7 1-1 .2-.2.5-.2.6 0 .2.2.2.5 0 .6l-.9.9c-.1.1-.3.3-.4.5l-.2.2-.1.1c0-.1 0 0 0 0-.5.6-.9 1.3-1.3 2.1l-.3.6s0 .1 0 0v.1c0 .1 0 .1-.1.2 0 .1-.1.2-.1.3-.1.2-.3.4-.5.3-.2-.1-.4-.3-.3-.5zm3 2c.6-1.5 1.6-2.8 3-3.8.4-.3.7-.5 1.1-.7.2-.1.5-.1.6.2.1.2.1.5-.2.6-.3.2-.7.4-1 .6l-.2.2c.1 0 0 0 0 0l-.1.1c-.1.1-.3.2-.4.4l-.8.8-.1.1c-.1.1 0 0 0 0-.1.1-.1.2-.2.2-.1.2-.2.3-.3.5l-.3.6c0 .1-.1.2-.1.3 0 .1 0 .1-.1.2v.1c0-.1 0 0 0 0-.1.2-.3.4-.5.3-.3-.2-.5-.4-.4-.7z"/>
    <path class="st4" d="M28.3 64.1c.1 2.7.3 5.4.5 8.1l.6 9.3c.2 3.2.5 6.5.7 9.7.2 3.1.5 6.3.8 9.4.2 2.8.5 5.5.8 8.3 0 .3.1.6.1.9 0 .2-.2.4-.4.4-.3 0-.4-.2-.4-.4-.3-2.7-.5-5.4-.8-8.1-.3-3.1-.5-6.2-.8-9.3-.3-3.2-.5-6.5-.7-9.7-.2-3.1-.4-6.3-.6-9.4-.2-2.8-.3-5.5-.5-8.3 0-.3 0-.6-.1-.9-.1-.6.8-.6.8 0zm13.6-4.8c1.2 1.9 2.5 3.9 3.8 5.8.7.9 1.3 1.8 2 2.7 0 0 0 .1.1.1.1.1-.1-.1 0 0 0 .1.1.1.1.2.1.1.2.2.3.4.2.2.4.5.5.7.4.4.7.9 1.1 1.3 1.4 1.7 2.9 3.2 4.6 4.6.4.4.8.7 1.2 1 .1.1.2.2.3.2l.1.1s.1.1.1 0h.1s.1 0 .1.1c.2.2.4.3.6.5.9.6 1.7 1.2 2.6 1.7.9.5 1.8 1 2.8 1.4.1.1.2.1.3.2.1 0 .1 0 .2.1h.1s.1.1.1 0h.2c.1 0 .1.1.2.1.1.1.3.1.4.2.5.2 1 .4 1.5.5.2.1.5.2.7.2.2.1.4.3.3.5-.1.2-.3.4-.5.3-2.1-.6-4-1.4-5.9-2.5-1.9-1-3.6-2.3-5.2-3.6-1.7-1.4-3.2-2.9-4.7-4.6-1.5-1.7-3-3.6-4.3-5.5-1.3-1.9-2.6-3.8-3.9-5.8-.2-.2-.3-.5-.5-.7-.1-.2 0-.5.2-.6 0 .2.3.2.4.4z"/>
    <path class="st4" d="M43.7 65.6c.1.1.2.1.2.2l.1.1.1.1c.2.1.3.2.5.4.3.2.7.4 1 .6.3.2.7.4 1.1.5.1 0 .2.1.3.1 0 0 .1 0 .1.1 0 0 .1 0 0 0h.1c.2.1.4.1.6.2.2.1.4.3.3.5-.1.2-.3.4-.5.3-1.6-.6-3.1-1.4-4.4-2.5-.2-.1-.2-.5 0-.6.1-.2.3-.2.5 0zM64.6 75l1.2 2.1c.1.2.1.5-.2.6-.2.1-.5.1-.6-.2l-1.2-2.1c-.1-.2-.1-.5.2-.6.2-.1.5 0 .6.2zm3 .6.3.6c0 .1 0 .1.1.2v.2c0 .1 0 .1-.1.2l-.1.1c-.1.1-.2.1-.3 0-.1 0-.2-.1-.3-.2l-.3-.6c0-.1 0-.1-.1-.2v-.2c0-.1 0-.1.1-.2l.1-.1c.1-.1.2-.1.3 0 .2 0 .3.1.3.2zm4.3-.2.3.9v.3c-.1.1-.2.2-.3.2h-.3c-.1-.1-.2-.2-.2-.3l-.3-.9v-.3c.1-.1.2-.2.3-.2h.3c.1.1.2.2.2.3zm-5-7.1 1.2 1.5c.1.1.1.2.1.3 0 .1 0 .2-.1.3-.2.1-.5.2-.6 0l-1.2-1.5c-.1-.1-.1-.2-.1-.3 0-.1 0-.2.1-.3.2-.1.5-.2.6 0zm-6.1 2.1c.8.4 1.5 1.1 1.8 2 .1.2-.1.5-.3.5-.2.1-.5-.1-.5-.3 0-.1-.1-.2-.1-.3 0 .1 0 0 0 0v-.1s0-.1-.1-.1c0-.1-.1-.2-.2-.2v-.1c-.1-.1.1.1 0 0l-.1-.1-.2-.2-.1-.1s-.1-.1 0 0h-.1c-.2-.1-.3-.2-.5-.3-.1 0-.2-.2-.2-.3v-.3c.1-.1.2-.2.3-.2.1 0 .2 0 .3.1zM22.4 87.9v.9c0 .1 0 .2-.1.3-.1.1-.2.1-.3.1-.2 0-.4-.2-.4-.4v-.9c0-.1 0-.2.1-.3.1-.1.2-.1.3-.1.2 0 .4.2.4.4zm1.1-4.5.6.6c.1.1.1.2.1.3v.2c0 .1 0 .1-.1.1-.1.1-.2.1-.3.1-.1 0-.2 0-.3-.1l-.6-.6c-.1-.1-.1-.2-.1-.3v-.2c0-.1 0-.1.1-.1.1-.1.2-.1.3-.1.1 0 .2 0 .3.1zm2.5-4.5v.9c0 .1 0 .2-.1.3-.1.1-.2.1-.3.1-.2 0-.4-.2-.4-.4v-.9c0-.1 0-.2.1-.3.1-.1.2-.1.3-.1.2-.1.4.1.4.4zm7.5 37.3c1.6 1.4 3.4 2.6 5.3 3.5 1.9.9 4 1.6 6.1 2 2.2.5 4.4.7 6.6.7 2.5 0 5-.2 7.5-.5 2.5-.4 5-.9 7.5-1.4.3-.1.6-.1.9-.2.2-.1.5.1.5.3.1.2-.1.5-.3.5-2.5.6-5 1.1-7.6 1.5-2.6.4-5.1.7-7.7.7-2.3 0-4.7-.2-7-.6-2.2-.4-4.3-1-6.3-1.9-2-.9-3.9-2-5.6-3.4-.2-.2-.4-.4-.6-.5-.2-.2-.2-.5 0-.6.2-.3.5-.3.7-.1z"/>
    <path class="st13" d="M31.7 139c.1.2.3.5.4.7.1.1.1.2.2.3l.1.1.1.1c0-.1 0 0 0 0 .3.4.7.8 1 1.2l1.1 1.1c.4.4.7.6 1.2.9.9.6 1.8 1.2 2.7 1.6 1 .5 2 .9 3.2 1.3 2.3.8 4.7 1.3 7.2 1.8.6.1 1.2.2 1.7.3.6.2 1.1.4 1.5.9.4.5.7 1 .9 1.5.3.6.6 1.2 1 1.7 1.3 2.3 2.6 4.6 3.8 6.9.2.3.3.6.5.8.1.2.1.5-.2.6-.2.1-.5.1-.6-.2-1.3-2.3-2.6-4.6-3.8-6.9-.6-1.1-1.2-2.3-1.9-3.4-.1-.1-.1-.2-.2-.3 0 0 0-.1-.1-.1 0 0-.1-.1 0 0 0-.1-.1-.1-.1-.2l-.1-.1s-.1 0-.1-.1c0 0-.1-.1 0 0-.1-.1-.2-.1-.4-.2-.1 0 .1 0 0 0h-.1c-.1 0-.1 0-.2-.1-.1 0-.3-.1-.4-.1-.3-.1-.6-.1-.9-.2-2.4-.5-4.8-1-7.2-1.7-2.2-.7-4.3-1.6-6.2-2.9-1.8-1.2-3.4-2.7-4.6-4.4-.1-.2-.3-.4-.4-.6-.1-.2 0-.5.2-.6.3 0 .6.1.7.3zm33.7 37.2c3.2-.1 6.4-.1 9.6 0 .9 0 1.8.1 2.7.2.2 0 .5.2.4.4 0 .2-.2.5-.4.4-3.2-.2-6.4-.3-9.6-.3-.9 0-1.8 0-2.7.1-.2 0-.5-.2-.4-.4 0-.2.2-.4.4-.4zm.4.9c2.3.8 4.8 1.4 7.2 1.8.7.1 1.3.2 2 .3.2 0 .5.2.4.4 0 .2-.2.5-.4.4-2.5-.3-5-.8-7.5-1.5-.7-.2-1.3-.4-2-.6-.2-.1-.4-.3-.3-.5.2-.2.4-.4.6-.3zm2.5-53.6c-1 1.8-2.5 3.4-4.2 4.4-.5.3-1 .6-1.6.8-.2.1-.5-.1-.5-.3-.1-.3.1-.5.3-.5.1 0 .1 0 .2-.1 0 0-.1 0 0 0h.1c.1 0 .2-.1.3-.2.2-.1.4-.2.7-.3.4-.2.8-.5 1.2-.8.1 0-.1.1 0 0h.1c.1 0 .1-.1.1-.1.1-.1.2-.2.3-.2.2-.2.4-.3.5-.5.2-.2.3-.4.5-.5.1-.1.1-.2.2-.3l.1-.1s0-.1.1-.1c0 .1 0 0 0 0 .3-.4.6-.9.9-1.4.1-.2.4-.3.6-.2.2-.1.2.2.1.4z"/>
    <path class="st13" d="M60.6 126.4c4.1 6 7.8 12.2 11.2 18.7 1.7 3.2 3.2 6.5 4.7 9.8 1.5 3.3 2.9 6.7 4.1 10.2 1.1 3.4 1.9 6.9 1.5 10.5-.3 3.1-1.3 6-2.7 8.8-3 5.8-7.7 10.5-12.3 15C61.6 204.7 56 210 50.2 215c-.7.6-1.4 1.3-2.2 1.9-.4.4-1.1-.3-.6-.6 5.7-5 11.2-10.1 16.7-15.3 4.8-4.6 9.7-9.2 13.2-14.8 1.6-2.6 2.9-5.4 3.6-8.4.7-3.4.4-6.8-.5-10.1-1-3.5-2.4-6.9-3.8-10.2-1.4-3.3-2.9-6.6-4.5-9.8-3.2-6.4-6.8-12.6-10.8-18.5-.5-.7-1-1.5-1.5-2.2-.3-.6.5-1.1.8-.6z"/>
    <path class="st13" d="M39.8 206.4c1.6 2.2 3.1 4.4 4.7 6.6 1.6 2.2 3.1 4.3 4.7 6.5.9 1.2 1.8 2.5 2.6 3.7.1.2 0 .5-.2.6-.2.1-.5 0-.6-.2-1.6-2.2-3.1-4.4-4.7-6.6-1.6-2.2-3.1-4.3-4.7-6.5-.9-1.2-1.8-2.5-2.6-3.7-.1-.2 0-.5.2-.6.2-.1.4 0 .6.2zm-2.3-56.6c.3 7.1.5 14.2.7 21.4.1 7.1.2 14.2.1 21.3 0 4-.1 8-.2 12 0 .6-.9.6-.9 0 .2-7.1.3-14.3.2-21.4 0-7.1-.1-14.2-.3-21.3-.1-4-.3-8-.5-12-.1-.6.8-.6.9 0zm0 71.8c.2 2.6.4 5.2.5 7.9.1 2.6.3 5.3.4 7.9.1 1.5.1 3 .1 4.5 0 .2-.2.5-.4.4-.2 0-.4-.2-.4-.4-.1-2.6-.2-5.3-.3-7.9-.1-2.6-.3-5.3-.4-7.9l-.3-4.5c0-.2.2-.5.4-.4.2 0 .4.2.4.4z"/>
    <path class="st13" d="M28.9 243c2.6-.2 5.3-.4 7.9-.6 2.6-.2 5.2-.4 7.9-.6 1.5-.1 3-.2 4.4-.4.2 0 .5.2.4.4 0 .3-.2.4-.4.4-2.6.2-5.3.4-7.9.6-2.6.2-5.2.4-7.9.6-1.5.1-3 .2-4.4.4-.2 0-.5-.2-.4-.4 0-.2.2-.4.4-.4z"/>
    <path class="st4" d="m81.2 58.6 3.6 25.5c0 .3.1.6.3.8.2.2.4.2.6.3 1.7.5 3.5.7 5.3.6-1-8.8-2.3-17.5-3.9-26.1-.1-.4-.1-.7-.4-1-.4-.4-1-.5-1.5-.5-1.5-.1-2.9-.1-4.4-.1l.4.5zM15.3 92.3c4.4 1.5 9.9 2.8 14.4 4 .4 2.6 0 5.1.8 7.6-5.2-1.5-9.3-3.2-14.4-4.9l-.6-.3c-.1-.2-.1-.4-.1-.6 0-1.9-.1-3.9-.1-5.8z"/>
    <path class="st11" d="M44.4 9.6c-.1 0-.2-.1-.2-.1-.1 0-.2-.1-.3-.1-.2 0-.4 0-.6.1-.4.2-.8.5-1.2.9-.4.4-.7 1-.9 1.5-.3.5-.4 1.1-.6 1.7-.2 1-.1 2.1.4 3 .5.9 1.3 1.5 2.2 1.7.9.2 1.8 0 2.5-.6.3-.3.6-.7.7-1.2 0-.2 0-.5-.1-.7-.1-.2-.2-.3-.4-.4-.3-.2-.8-.2-1.2-.1-.1 0-.2.1-.3.1-.1.1-.2.1-.3.2-.2.2-.4.4-.5.6-.3.5-.5 1-.6 1.5-.1.5-.2 1-.2 1.5s.1.9.4 1.3c.2.4.6.7 1 .8.5.2 1 .1 1.4.1.5-.1 1-.3 1.5-.5.2-.1.5-.2.7-.3.1-.1.3 0 .4.1.1.1 0 .3-.1.4-1 .5-2.2 1.1-3.4 1-.6 0-1.2-.3-1.6-.7-.4-.4-.7-.9-.8-1.4-.1-.6-.1-1.2 0-1.8.1-.6.2-1.2.5-1.7.2-.6.6-1.1 1.1-1.4.4-.3 1-.4 1.5-.4.5.1 1.1.3 1.3.8.3.6.2 1.3-.1 1.8-.5 1-1.6 1.5-2.7 1.6-1.1.1-2.2-.5-3-1.3-.8-.9-1.2-2.1-1.1-3.3 0-1.3.5-2.6 1.3-3.7.3-.5.7-1 1.3-1.3.5-.3 1-.5 1.6-.5.3 0 .5.2.7.4.1.1.1.3 0 .4 0 .2-.2.1-.3 0zm-7.8 9.9c-.8 1.1-1.2 2.6-1.1 4 .1.7.3 1.3.6 1.9.1.3.3.6.6.7.2.1.4 0 .6-.1.2-.1.3-.1.5-.2.3-.2.6-.3.9-.6.1-.1.2-.2.3-.4.1-.1.1-.1.1-.2 0 0 0-.1.1-.1v-.1c0-.1 0-.1.1-.2v-.6c0-.1 0-.1-.1-.2 0-.1 0-.1-.1-.1 0 0 0-.1-.1-.1 0 0-.1-.1 0 0 0-.1-.1-.1-.2-.2h-.1c-.1 0-.1 0-.2-.1h-.4c-.3.1-.5.3-.7.5-.5.6-.5 1.5-.4 2.2 0 .7.2 1.5.7 2.1.4.5 1 .8 1.6.8.1 0 .3 0 .4-.1.1-.1.3.1.4.2 0 .2-.1.3-.2.4-.8.3-1.6 0-2.3-.5-.7-.6-1-1.4-1.1-2.3-.1-.4-.1-.9-.1-1.3s.1-.9.3-1.3c.3-.8 1.1-1.4 2-1.3.8.1 1.2.9 1.2 1.6 0 .8-.5 1.5-1.1 1.9-.3.2-.7.4-1.1.6-.4.2-1 .4-1.4 0-.3-.2-.5-.6-.7-1-.2-.4-.3-.7-.4-1.1-.4-1.6-.2-3.3.6-4.7.1-.2.2-.3.3-.5.1-.1.3-.2.4-.1.1.1.2.3.1.5zM47 7.3c1.6 0 2.7 1.4 3.2 2.8s.5 2.9 0 4.3c-.3.8-.7 1.5-1.3 2.2-.1.1-.4.1-.5-.1-.5-.9 0-1.9.8-2.4.4-.3.9-.4 1.3-.4.5 0 1 .2 1.5.5.4.3.8.7 1.1 1.1.1.1.1.2.2.3.1.1.1.2.2.4v.7c-.1 1-.5 1.9-1.1 2.7-.3.4-.7.8-1.2 1.1-.1.1-.2.1-.4.2-.1 0-.1.1-.2.1h-.3c-.3-.1-.5-.4-.6-.7 0-.2 0-.3.2-.4.1 0 .3 0 .4.2 0 .2.1.3.3.3h-.2c1.3-.6 2.2-1.8 2.5-3.2.1-.4.1-.8 0-1.2v.1c-.4-.8-1.1-1.5-2-1.7-.2-.1-.4-.1-.6-.1-.1 0-.4.1-.5.1-.4.2-.6.4-.8.7-.1.1-.1.2-.1.3v.2c0 .1 0 0 0 0 0 .2 0 .4.1.6-.2 0-.3 0-.5-.1.9-1 1.4-2.3 1.5-3.6.1-1.3-.3-2.7-1.1-3.7-.5-.5-1.1-.9-1.8-.9-.5.2-.5-.4-.1-.4zm6.3-2.5c.7-.4 1.6-.3 2.3.1.7.5 1 1.3.8 2.1-.1.4-.3.8-.7 1.1-.1.1-.3.1-.4 0-.1-.1-.2-.3-.1-.4.7-1.1 2-1.8 3.4-1.9.7 0 1.4.2 1.8.8.3.6.3 1.3 0 1.9-.4.7-1.1 1.2-1.7 1.6-.1.1-.3 0-.4-.1-.1-.1 0-.3.1-.4.5-.3 1-.6 1.4-1.1.3-.4.4-.9.2-1.4V7h-.2c-.1-.1-.2-.2-.3-.2-.2-.1-.5-.1-.8-.1-.5 0-1.1.1-1.6.4-.6.3-1 .7-1.4 1.2-.2-.1-.3-.2-.5-.4.5-.4.6-1 .5-1.6-.1-.6-.6-1-1.2-1.1h-.4s-.1 0 0 0c-.2 0-.3.1-.5.2-.4.1-.7-.4-.3-.6zm-.2 31.4c-.2.4-.2.8-.1 1.2.1.4.3.8.7 1.1.6.5 1.7.4 2.3-.1.2-.1.3-.3.4-.5.1-.1.1-.3.1-.5v-.1s0-.1 0 0v-.2c0-.1 0 0 0 0s-.1-.1 0-.1l-.1-.1h-.3c-.2 0-.3.2-.4.4-.1.2 0 .5.1.7.2.5.6.9 1.1 1.2.2.1.5.2.8.2.3 0 .5 0 .7-.1.2-.1.4-.3.5-.5.1-.2.2-.4.1-.7.1.1.2.2.4.3 0 0-.1 0 0 0h-.1s-.1 0-.1.1c0 0-.1.1 0 0h-.1l-.1.1c-.1.1 0 0 0 0s0 .1-.1.1c0-.1 0 0 0 0v.2c0 .1 0 0 0 0v.5c0 .1 0-.1 0 0v.2c0 .1.1.2.1.3 0-.1 0 0 0 0v.1s0 .1.1.1v.1s0 .1 0 0c0 0 0 .1.1.1l.1.1s.1.1 0 0h.1c.1.1.2.1.3.1.5.2 1 .1 1.4 0 .5-.2 1-.6 1.3-1 .1-.1.3-.2.4-.1.1.1.2.3.1.4-.7 1-2 1.8-3.3 1.4-.5-.2-.9-.5-1.1-1-.2-.4-.3-1-.2-1.4.1-.5.5-1 1-1.2.2-.1.4.1.4.3.1.6-.3 1.2-.8 1.6-.5.4-1.2.4-1.8.2-.6-.2-1.2-.7-1.5-1.3-.4-.6-.5-1.4 0-2 .3-.2.6-.4.9-.3.3.1.5.2.6.5.2.5.2 1.1-.1 1.5-.6 1-2 1.4-3.1.9-1.2-.5-1.7-2.2-1.1-3.3.1-.1.3-.2.4-.1 0 .3 0 .5-.1.6zm13.2 3.1c.7-.5 1.6-.4 2.2.1.3.3.5.7.5 1.1 0 .5-.2.9-.6 1.2-.4.4-.9.6-1.5.5-.2 0-.2-.3-.2-.4.4-.9 1.3-1.7 2.3-1.7.9 0 1.5.7 1.6 1.6 0 .5-.2.9-.5 1.2-.1.1-.3 0-.4-.1-.1-.1 0-.3.1-.4l.1-.1s0-.1.1-.1c0 .1 0 0 0 0v-.1c0-.1 0 0 0 0v-.3c0-.1 0-.1-.1-.2 0-.1 0 0 0 0s0-.1-.1-.1c0 0 0-.1-.1-.1 0-.1-.1-.1-.2-.2 0 0-.1 0-.1-.1h-.1s-.1 0 0 0H69c-.4 0-.7.1-1.1.3-.4.3-.6.6-.8 1.1-.1-.1-.1-.3-.2-.4.3 0 .6-.1.8-.2.1-.1.2-.2.3-.4 0-.1.1-.1.1-.2v-.2c0-.2 0-.3-.1-.4 0 0 0-.1-.1-.1 0 0-.1-.1 0-.1 0 0 0-.1-.1-.1-.1-.1-.2-.2-.3-.2h-.1c-.1 0-.2 0-.2-.1.1 0 0 0 0 0H67s-.1 0 0 0h-.2s-.1 0-.1.1c0 0-.1.1 0 0-.1.1-.3.1-.4 0-.1-.6-.1-.8 0-.9zm-3.7 2.2c.4-.1.9-.2 1.3 0 .3.2.5.6.4 1 0 .2-.2.4-.3.5-.1.1-.3 0-.4-.1-.1-.1 0-.3.1-.4 0 0-.1.1 0 0 0 0 0-.1 0 0 0 0 0 .1 0 0s0 .1 0 0v-.2c0 .1 0 0 0 0v-.1c0 .1 0 0 0 0s-.1-.1 0 0c0 0 .1 0 0 0H63s.1 0 0 0-.2 0-.3.1c-.2 0-.3 0-.4-.2.1-.4.2-.5.3-.6zm-11-11c0 .1 0 .2.1.2v.1s0 .1.1.1c0 0 0 .1.1.1 0 0 0 .1 0 0l.2.2s.1 0 .1.1c0 0 .1 0 .1.1h.1c.1 0-.1 0 0 0s.2.1.2.1h.1c.1 0 0 0 0 0h.1c.2 0 .3.1.3.3 0 .2-.1.3-.3.3-.8 0-1.6-.6-1.8-1.5 0-.2 0-.3.2-.4.1.1.3.1.4.3zm-13.5 1.4c-.5.7-.3 1.7.2 2.4.3.3.7.5 1.1.5.2 0 .4 0 .6-.1.2-.1.4-.1.6-.3.3-.2.6-.6.7-1 0 .1 0 0 0 0v-.1s0-.1 0 0V33c-.1 0 .1 0 0 0l-.3.3c-.3.4-.5.9-.6 1.4v.8c0 .1.1.2.1.3 0 0 0 .1.1.1v.1s.1.1 0 0c.2.2.3.3.6.5.1.1.2.1.3.1.1 0 .1 0 .2.1h.6s.1 0 0 0h.4c-.1 0 0 0 0 0 .1 0 .1-.1.2-.1 0 0 .1-.1 0 0l.1-.1.1-.1c.1-.1.3-.1.4 0 .1.1.1.3 0 .4-.7.9-2.2.7-3 0-1-.9-.8-2.5-.1-3.5.2-.3.4-.6.8-.8.3-.1.6.1.7.4.3.6 0 1.2-.4 1.7-.8.9-2.2 1.2-3.2.5-1-.6-1.4-2-1-3 .1-.1.1-.3.2-.4.1-.1.3-.2.4-.1.2 0 .3.2.2.3zm-3.8-18.3c-.6-1.1 0-2.7 1.3-3.1.1 0 .2-.1.3 0 .1 0 .1.1.2.1.1.1.3.2.4.3.2.2.4.4.6.7.4.5.5 1.1.6 1.7.1.7-.1 1.4-.5 2l-.4-.4c.7-.5 1.6-.2 2.1.4.3.3.4.7.4 1.2s-.3.9-.6 1.2c-.4.4-.8.6-1.4.7-.2 0-.3 0-.4-.2 0-.1 0-.3.2-.4.7-.1 1.3-.6 1.5-1.3v-.4c0-.1 0-.1-.1-.2v-.1s0-.1-.1-.1c0-.1-.1-.1-.1-.1l-.1-.1s-.1-.1-.1 0c-.1 0-.1-.1-.2-.1h-.4s-.1 0 0 0h-.6l-.1.1c-.2.2-.6-.2-.4-.4.2-.3.3-.5.3-.8v-1.1c0-.1 0-.2-.1-.2 0-.1 0-.1-.1-.2v-.2c-.1-.3-.3-.6-.5-.8-.2-.3-.5-.5-.8-.6h.2c-.5.1-.8.5-1 .9v.7c0 .2 0 .5.2.7.1.1 0 .3-.1.4.1-.1-.1-.2-.2-.3zM45 2.3c.2-.1.4-.2.5-.4.2-.1.4-.4.6-.3.3.1.6.3.9.4.5.4 1 .9 1.3 1.4.2.3.3.7.4 1.1 0 .2 0 .3-.2.4-.1 0-.3 0-.4-.2-.1-1.2-1-2.1-2.1-2.5h.2l-.9.6c-.1.1-.3 0-.4-.1 0-.2 0-.3.1-.4zm-3.6 3.3c.8-.6 2.2-.3 2.6.7.1.1-.1.3-.2.4-.2 0-.3-.1-.4-.2 0-.1 0 0 0 0v-.1s0-.1-.1-.1l-.1-.1c-.1-.1 0 0 0 0h-.1C43 6 43 6 42.9 6h-.1c-.1 0 0 0 0 0h-.6c-.1 0 0 0 0 0-.1 0-.2 0-.3.1.1 0 0 0 0 0h-.2s-.1.1 0 0c-.1.1-.3.1-.4 0 0-.1 0-.4.1-.5z"/>
    <path class="st0" d="M36.1 226.5c-4.7 3.2-8.3 7.7 6.9-2.5-2.1-3.2-5.5-7.9-7.6-11-7.7 4-5.2 1.7-12.6 6.1l13.3 7.4z"/>
    <defs>
        <path id="SVGID_3_" d="M40.5 227.3c-3.9-4.5-7.9-9.1-11.8-13.6-4.7 0-11.6 5.1-15.2 8.1-.3.3 16.1 18 24 26 .2.2.4.4.7.4.2 0 .4-.2.5-.4 1.8-2.4 2.3-5.7 1.4-8.6-.9-2.9-3.2-5.8-2.2-8.7l2.6-3.2z"/>
    </defs>
    <use xlink:href="#SVGID_3_" style="overflow:visible;fill:#821e23"/>
    <clipPath id="SVGID_4_">
        <use xlink:href="#SVGID_3_" style="overflow:visible"/>
    </clipPath>
    <g class="st14">
        <path class="st2" d="M11.3 216.1c4.1 4.6 8.2 9.2 12.3 13.7 4.2 4.5 8.4 9 12.7 13.4 2.4 2.5 4.8 4.9 7.3 7.4.4.4 1-.1.6-.5-4.3-4.3-8.6-8.7-12.9-13.2-4.2-4.4-8.4-9-12.5-13.5-2.3-2.6-4.6-5.1-6.9-7.7-.3-.5-.9 0-.6.4z"/>
    </g>
    <g class="st14">
        <path class="st2" d="M41.3 237.2c-2.8-.5-5.8.5-7.7 2.6-.3.4.3.9.6.5 1.7-1.9 4.4-2.8 6.9-2.3.6.1.7-.7.2-.8z"/>
    </g>
    <g class="st14">
        <path class="st2" d="M19 215.1c2.1 2.8 2.6 6.6 1.3 9.9-.2.5.6.8.7.3 1.4-3.5.8-7.6-1.4-10.7-.3-.4-.9.1-.6.5z"/>
    </g>
    <g class="st14">
        <path class="st2" d="M33.2 234.2c2.4-1.6 5.5-2 8.2-1 .5.2.8-.6.3-.7-3-1.1-6.4-.7-9 1.1-.4.2.1.9.5.6z"/>
    </g>
    <g class="st14">
        <path class="st2" d="M32.6 232.4c2.7-1.3 5.7-1.7 8.6-1.2.5.1.6-.7.1-.8-3-.6-6.2-.2-9 1.2-.5.3-.1 1 .3.8z"/>
    </g>
    <g class="st14">
        <path class="st2" d="M28.3 212.2c-1.3 1.3-1.7 3.3-1.3 5 .5 1.8 1.9 3.2 3.6 3.7 1 .3 2.1.3 3.1 0-.1-.2-.3-.5-.4-.7-.8.6-1.2 1.6-1.2 2.6 0 1.1.6 2.1 1.3 2.8 1.6 1.6 3.9 2.2 6.1 2 1.2-.1 2.4-.6 3.5-1.2.4-.3-.1-.9-.5-.6-1.6 1-3.6 1.3-5.4.9-1.7-.4-3.8-1.5-4.1-3.3-.2-.9.1-1.9.8-2.5.4-.3 0-.8-.4-.7-1.9.6-4.1-.3-5.2-2-1-1.7-.7-4.1.7-5.5.4-.4-.3-.8-.6-.5z"/>
    </g>
    <path class="st3" d="M39.7 246.4c-.4 1.5-2.6 3.9-3.6 4.8-5.2-5.5-17-16.9-16.8-17.5.1-.3.5-4.4-.1-4.5-.5-.1-3.6 1-3.9.5-1.3-1.9-3.5-2.9-4.8-4.8l4.4-4.6 24.8 26.1z"/>
    <path class="st13" d="M52.2 191.2a127.465 127.465 0 0 1-14.4 15c-1.5 1.3-3 2.6-4.5 3.8 0-.2 0-.4.1-.5 1.6 2.6 3.3 5.2 5 7.8 1.7 2.6 3.5 5.1 5.4 7.5 1 1.4 2.1 2.8 3.2 4.1.1.2.2.4 0 .6-.2.2-.5.2-.6 0-1.9-2.4-3.8-4.9-5.7-7.5-1.8-2.5-3.6-5.1-5.3-7.7-1-1.5-1.9-3-2.8-4.5-.1-.2-.1-.4.1-.5 2.7-2.2 5.3-4.5 7.8-6.9 2.5-2.4 4.9-4.9 7.2-7.4 1.3-1.5 2.6-2.9 3.8-4.5.2-.2.5-.2.6 0 .3.2.2.5.1.7z"/>
    <path d="M12.8 132.5c1.8 1.5 8.4 4.2 12.9 3.5.2 0 .2-3.3.5-4-4.8 1-8.3.5-12.3-2.4l-1.1 2.9z" style="fill:#935b18"/>
    <path class="st3" d="M21 134.3c-.8 1.9-3 2.9-4.9 2.1-1.9-.8-2.9-3-2.1-4.9.8-1.9 3-2.9 4.9-2.1s2.8 3 2.1 4.9z"/>
    <circle class="st2" cx="17.5" cy="132.8" r="2.5"/>
    <path class="st10" d="M18 131.9c-.2.5-.4 1-.6 1.4 0-.2-.1-.3-.1-.5.4.2.9.4 1.3.6.2.1.2.3.1.5s-.3.2-.5.1c-.4-.2-.9-.4-1.3-.6-.2-.1-.2-.3-.1-.5.2-.5.4-1 .6-1.4.1-.2.3-.2.5-.1.1.1.2.3.1.5z"/>
    <path class="st5" d="M22.5 103.6c0 .1.1 0 0 0 0 .1-.1.1-.1.1 0 .1-.1.1-.1.2v.1s0 .1 0 0c0 .1 0 .1-.1.2 0 .1 0 .1-.1.2v.8s0 .1 0 0v.1c0 .1.1.3.1.4v.1c0-.1 0 0 0 0 0 .1.1.1.1.2s.1.1.1.2v.1l.1.1c.2.2.2.5 0 .6-.2.2-.5.2-.6 0-.5-.6-.8-1.3-.8-2s.2-1.5.7-2c.1-.2.5-.2.6 0 .3.2.3.4.1.6z"/>
</svg>
