<svg xmlns="http://www.w3.org/2000/svg" width="185.3" height="275.2" style="overflow:visible;enable-background:new 0 0 185.3 275.2" xml:space="preserve">
    <style>
        .st0{fill:#6da8c6}.st1{fill:#1a495e}.st2{fill:#a34545}.st3{fill:#fff}.st5{fill:#7f4a0b}.st6{fill:#f6a472}.st7{fill:#8e571f}.st8{fill:#56300d}.st9{fill:#79451f}
    </style>
    <path d="M81.4 10.1c-5.2 2-7 1.6-10.9 5.6-18.9 19.7-3.2 31.1-2.9 35.2.2 4.1 1.2 8.5 4.4 10.9 5.7 4.3 14.9-.1 20.4 4.5 2.9 2.4 3.7 6.5 5.5 9.8 3 5.5 9.1 8.9 15.2 8.7-2.1-1.6-4.4-3.3-5-6.1-.4-1.5 0-3.2 1.2-4.2 2.1-1.9 5.2-.6 7.7.5 6.8 3.2 14.5 5 21.8 3.7 7.4-1.3 14.4-6.3 16.9-13.5-1.6 1.1-3.8 1.3-5.7.8-2.2-.7-1.9-3.9.3-4.3 4.1-.6 8.2-2.1 12.1-.9 4.6 1.5 7.5 7.3 5.9 12 3.9-2.5 6.6-7 6.9-11.7.4-4.7-1.6-9.5-5-12.7-3.8-3.4-10.1-3.4-13.5-7.4-4.9-5.8 11.8-.8 12.1-11.8-8.5 5.8-16.4-10.9-22.3-14.9-5.8-4-11.3-9.4-18.3-9.8-9.3-.6-17.8 8-27 6.1-2.9-.6-5.6-2.2-8.5-2.9-2.5-.6-5.2-.4-7.6.6l-3.7 1.8z"/>
    <path d="M89 8c1.8 2.3 4.7 3.4 7.6 3.5 3.3.1 6.4-1 9.3-2.5 3.2-1.7 6.2-3.8 9.5-5.3 3.2-1.5 6.7-2.5 10.2-2.9 3.4-.4 6.9-.1 10.1 1.1 2.8 1 5.2 2.8 7.4 4.8 4.2 3.9 7.4 8.7 11.9 12.2 2.2 1.7 4.7 3.1 7.5 3.7 3.3.7 6.8.3 9.9-1 .8-.3 1.5-.7 2.2-1.2.4-.3 0-.9-.4-.6-2.8 1.9-6.3 2.7-9.7 2.4-2.9-.3-5.7-1.5-8.1-3.2-4.6-3.3-7.8-8-11.8-11.9-2-1.9-4.1-3.7-6.6-5-3-1.5-6.3-2.2-9.7-2.2-3.4 0-6.8.7-10.1 1.8-3.3 1.2-6.3 2.9-9.3 4.7-3 1.8-6.1 3.6-9.5 4.1-2.8.5-6 .1-8.3-1.6-.6-.4-1.1-.9-1.5-1.5-.4-.3-.9.2-.6.6zm34.9 69.1c2.6.9 5.1 2.1 7.8 2.8 2.1.5 4.2.7 6.4.6 4.2-.3 8.4-1.8 11.8-4.4 1.9-1.4 3.6-3.2 4.9-5.2.3-.4-.4-.8-.6-.4-2.3 3.5-5.7 6.2-9.5 7.7s-8.1 2-12.2 1.1c-2.9-.7-5.5-2-8.3-3-.5 0-.7.7-.3.8z"/>
    <path class="st0" d="M89.9 240.4c2 4.9 4.1 9.7 6.1 14.6.2.4.3.8.7 1.1.3.2.7.3 1.1.3 3.1.2 6.3.3 9.1-1 .2-.1.5-.3.6-.5.1-.3 0-.6 0-.8-1.8-6.3-3.6-12.5-5.4-18.8-.1-.2-.1-.4-.3-.5-.2-.2-.6 0-.9.1-2.8 1.3-5.8 2.1-8.8 2.4l-2.2 3.1z"/>
    <path class="st1" d="M91.5 238.7c2 4.9 4.1 9.8 6.1 14.7.6 1.4 1.1 2.8 1.7 4.2.2.4.9.2.7-.2-2-4.9-4.1-9.8-6.1-14.7-.6-1.4-1.1-2.8-1.7-4.2-.1-.5-.8-.3-.7.2zm2.5-.4c1.4 4.5 3.1 9 5 13.4.5 1.2 1.1 2.5 1.7 3.7.2.4.8.1.6-.4-2-4.2-3.8-8.6-5.3-13-.4-1.3-.9-2.5-1.3-3.8-.1-.5-.8-.3-.7.1zm4.4-.6c.9 4.7 2.2 9.3 3.9 13.8.5 1.3 1 2.5 1.5 3.8.2.4.8.1.6-.4-1.9-4.3-3.4-8.8-4.5-13.4l-.9-3.9c0-.5-.7-.4-.6.1zm2.5-1.4c1.1 4.4 2.4 8.8 3.8 13.1.4 1.2.8 2.5 1.2 3.7.2.4.9.3.7-.2-1.5-4.3-2.8-8.6-4-13-.3-1.2-.7-2.5-1-3.7-.2-.5-.9-.3-.7.1z"/>
    <path class="st0" d="M113.6 173.7c5.8-4.2 12.1-8.6 16.8-14 3.2 3 5.4 5.5 8.7 8.3-6.6 5.1-12.6 10.9-17.9 17.4-2.2-3.3-5-6.3-8.2-8.6l.6-3.1z"/>
    <path class="st1" d="M115.3 176.4c3.5-2.6 6.9-5.1 10.4-7.7 1-.7 2-1.5 2.9-2.2.4-.3 0-.9-.4-.6-3.5 2.6-6.9 5.1-10.4 7.7-1 .7-2 1.5-2.9 2.2-.4.2 0 .9.4.6zm.8 3.7c4-3.3 8.1-6.5 12.3-9.6 1.2-.9 2.4-1.7 3.5-2.6.4-.3 0-.9-.4-.6-4.2 3.1-8.4 6.2-12.5 9.5-1.2.9-2.3 1.9-3.5 2.8-.2.2.3.8.6.5zm2.9 2.3c3.5-3 7-6.1 10.4-9.2 1-.9 1.9-1.8 2.9-2.7.3-.3-.2-.8-.5-.5-3.3 3.2-6.7 6.4-10.2 9.4-1 .9-2 1.7-3 2.6-.4.1.1.7.4.4z"/>
    <path class="st2" d="M136.2 152.2c3.7 1.9 7.4 4.1 10.4 7 3 2.9 8.4 10.1 9 14.3-3.3-1.2-10.7-4.9-18.4-2.1-2.4.9-4.2 3-6.2 4.5-2.6-4.2-4.4-7.7-9.6-9.4 0-.1 11.1-10.7 14.8-14.3z"/>
    <path class="st3" d="M135.3 154.7c2.9 2 5.9 3.9 8.6 6.3 2.4 2.1 4.8 4.4 6.6 7 .8 1.2 1.7 2.5 2 3.9.1.5.8.3.7-.2-.3-1.3-1-2.5-1.7-3.6-.9-1.3-1.9-2.6-3-3.7-2.1-2.3-4.5-4.4-7-6.2-1.9-1.4-3.9-2.7-5.8-4-.4-.3-.8.3-.4.5z"/>
    <path class="st3" d="M149.9 171.1c-.8-1.3-.7-3.1.3-4.2.3-.4-.2-.9-.5-.5-1.2 1.4-1.4 3.5-.4 5.1.2.4.8 0 .6-.4zM132 156.3c1.4 1.9 4.4 2.1 6 .4.3-.3-.2-.9-.5-.5-1.3 1.3-3.8 1.2-4.9-.3-.2-.4-.9 0-.6.4zm-.3 12.1c.1-1.3.7-2.5 1.6-3.4.5-.5 1-.8 1.6-1.1.6-.3 1.3-.5 1.9-.5.8 0 1.1 1 1.2 1.6.2.7.2 1.6-.2 2.3-.1.3-.3.5-.7.6-.4 0-.5-.4-.5-.7 0-.6.3-1.3.7-1.7 1-1.1 2.9-1 3.8.2.3.4.9 0 .6-.4-1-1.4-3.1-1.8-4.5-.8-.7.5-1.2 1.3-1.3 2.1-.1.8.1 2 1.2 1.9 1 0 1.4-1 1.6-1.9.2-1 0-2-.4-3-.2-.4-.5-.8-.9-1-.4-.2-.9-.2-1.4-.1-.8.1-1.6.5-2.3 1-1.6 1.1-2.6 2.8-2.8 4.8.1.5.8.5.8.1z"/>
    <path d="M78.6 122.6c-5 22.2-7.9 44.9-8.7 67.6-.1 3.2-.2 6.4.3 9.6.6 4.5 2.4 8.9 4.2 13.1 4.2 9.5 9.4 18.6 14.5 27.7.3.5.6 1.1 1.1 1.4.6.4 1.5.3 2.2.2 4.4-.6 9.3-1.4 12.2-4.8-1.7-7.8-4.6-15.4-8.6-22.4 3.9-1.7 7.1-4.7 10-7.8 7-7.2 19.4-24.4 19.2-24.6-2.2-1.5-10.9-10-10.9-10s-4.3 2.4-7.2 4.9c2.8-6.4 5.9-12.7 9.3-18.8 3.8-6.9 8.1-14.4 6.7-22.2-.5-2.5-1.5-4.8-2.3-7.1-2.3-6.1-3.6-12.5-4-19-11.7 4.3-23.8 7.2-36.1 8.8l-1.9 3.4z" style="fill:#f59f18"/>
    <path class="st5" d="M84.4 127.1c-.3 2.8-.5 5.7-.5 8.5 0 1.4 0 2.8.1 4.2 0 .7.1 1.4.2 2.1 0 .3.1.7.1 1v.5c0 .2 0 .4.1.5.2.2.6.4.9.6.3.2.6.4.9.5.7.3 1.3.6 2 .9.2.1.4-.1.5-.3.3-4.7.6-9.5.9-14.2.1-1.3.2-2.7.3-4 0-.5-.7-.5-.7 0-.3 4.7-.6 9.5-.9 14.2-.1 1.3-.2 2.7-.3 4 .2-.1.3-.2.5-.3-1.3-.5-2.4-1.1-3.5-1.8.1.1.1.2.2.3-.5-4.3-.6-8.6-.3-13 .1-1.2.2-2.5.3-3.7 0-.4-.7-.4-.8 0z"/>
    <path class="st5" d="M88.4 145c-1.1 6.8-2.9 13.4-4.8 20s-3.9 13.2-5.3 19.9c-.7 3.3-1.3 6.6-1.6 10-.4 3.4-.6 6.9-.2 10.3.4 3 1.4 6 3.4 8.4.9 1.1 1.9 2 3.2 2.7.8.5 1.6.7 2.5.8 2.2.2 4.4-.1 6.6-.6 2-.5 4.2-1.1 5.9-2.2.3-.2.6-.4.9-.7.3-.3-.2-.8-.5-.5-.6.5-1.3.9-2 1.2-1 .4-2 .8-3 1-2.1.6-4.4 1-6.6 1-.8 0-1.7-.1-2.5-.3-1.1-.4-2.1-1.2-2.9-2-2.1-2.1-3.3-4.9-3.9-7.7-.7-3.3-.5-6.8-.2-10.2.3-3.3.8-6.5 1.5-9.8 1.3-6.6 3.2-13 5.1-19.4 1.8-6.4 3.7-12.8 4.9-19.4.1-.8.3-1.6.4-2.4-.2-.4-.9-.6-.9-.1z"/>
    <path class="st5" d="M107.2 176.1c-1.6 3.3-3.4 6.4-5.2 9.6-1.9 3.4-4 6.7-6 10-1.1 1.7-2.1 3.3-3.2 5-.3.4.4.8.6.4 2-3 4-6.1 5.9-9.2 2-3.3 4-6.7 5.9-10.1.9-1.7 1.9-3.5 2.8-5.2.1-.6-.5-1-.8-.5z"/>
    <path class="st5" d="M97.4 194.5c-.5 1.9-.9 3.7-1.4 5.6-.1.5.6.6.7.2.5-1.9.9-3.7 1.4-5.6.1-.5-.6-.7-.7-.2z"/>
    <path class="st6" d="M72.7 57c-8 2.9-27.1 12-28.4 11.9-1-.1-16.1-9.5-19.5-12.3-.4-.3-.6-.5-.7-.6-.4-.8-.2-1.8-.2-2.7.2-4.4-2-8.9-5.6-11.4-.6-.4-1.4.1-1.3.8.2 2.1.8 4.1 1.8 5.9.3.6-9.1-8.2-13.2-10.1-.6-.3-1.3.4-1 1 1.5 3.1 6 8.3 6 8.3S5.4 42 2.5 39.4c-.5-.5-1.4 0-1.2.7.9 3.4 6.9 9.1 6.9 9.1l.1-.1s-4.7-5.4-7-7.3c-.5-.5-1.4 0-1.2.7.9 3.6 6.5 8.6 6.5 8.6L1.3 46c-.5-.5-1.3-.2-1.3.5.3 4.2 4.7 7.5 8.5 9.9 2.6 1.7 8.9 5.7 8.9 5.7 4.3 3.3 7 6.7 10.8 10.5 3.2 3.2 8.2 7.7 12.3 9.4 4.9 2.1 26.8-7.6 33.4-9.8.7-5.6 1.5-7.2 1.3-12.8L72.7 57zm38.1 19.9c4.5 2.2 9.1 4.4 13.6 6.6 1.4.7 2.7 1.3 3.9 2.3 1 .9 1.7 1.9 2.5 3 6.9 9.4 15.7 17.4 25.8 23.3 1 .6 1.9 1.1 2.7 2 .9 1.1 1.3 2.5 1.6 3.8l3 11.5c.1.3.3.5.5.6.6.2.9-.6 1-1.2.3-2.4.5-4.8.5-7.2 4.5 2.8 9.1 5.7 14.2 6.8.5.1.8-.5.4-.8-2.2-1.8-4.8-3.1-7.5-3.9 3.4.1 7.5 3.4 10.8 3.2.5 0 .7-.7.3-1-2.4-2-5.8-3.9-8.5-4.9 2.4 1.4 6 3.1 8.9 3.8.4.1.8-.4.6-.8-.5-.9-1.8-1.9-2.5-2.3-1.9-1.2-3.9-2.4-5.8-3.6 2.2.8 4.7.8 7-.1.4-.1.4-.7.1-.9-1.9-1-4.3-.8-6.4-1.4-3.4-.9-5.9-3.8-9.1-5.3-1.5-.7-3.3-1.2-4.6-2.2-1-.7-1.7-1.6-2.5-2.6-5.4-6.7-10.8-13.4-16.1-20.1-1.5-1.9-3-3.8-4.8-5.4-2.6-2.3-5.7-3.9-8.4-5.9-4.6-3.5-8.3-8.2-13.3-11.2-.2-.1-.5-.3-.8-.3-.3 0-.6.2-.9.5-3.4 2.9-6.2 6.4-8.5 10.3l2.3 3.4z"/>
    <path class="st7" d="M82.9 50.9c-4 3.6-22 9.9-22 10.2.2 6.1.5 14.7.7 20.8 0 .4 5.8-2.4 7.1-2.4.9 4.2-1 8.7.3 12.7.6 1.8 1.8 3.3 2.8 5 1.7 2.9 2.8 6.2 3.2 9.5.4 4.3-.5 19.1-.5 19.1s7.5-.3 11.2-.7c3.7-.4 9.3-4.5 13-4.7 3.3-.2 6.6.4 9.8.7 9.6.8 11.9-2.2 11.9-2.2s-6.2-22.5-7-32c-.7-8.4.4-17.5-4-24.7-2.6-4.2-6.9-7.3-11.5-9.2-4.6-2-3.9-.3-8.8-1.3l-6.2-.8z"/>
    <path class="st7" d="M94.8 52.2c18.2.7 22.9 11.2 33.2 16.9-6.7 10.7-4.7 13.6-7 20.4-5.4-1.5-10.9-3.1-16.3-4.6-.8-.2-1.7-.5-2.4-1.1-.6-.6-.9-1.3-1.2-2.1-2.1-5.7-2.3-12-.7-17.9l-5.6-11.6z"/>
    <path class="st6" d="M75.8 20.4c-1.4 3.3-4.1 9.8-4.1 9.8l-4.8-1.9 3.9 6s-2.1 5.6-3.1 8.4c-.3.8-.6 1.7-.4 2.6.3 1.2 1.4 1.9 2.4 2.4 2.5 1.2 6.6 1 9.3.7 1 4 2.8 10.7 3.3 10.7 4.5.2 9.2-.6 12.3-3.8-1.8-6-2.6-9.2-3.6-15.4.8 1.2 2.7 1.4 3.9.7 1.3-.7 1.9-2.2 2.1-3.7.2-1.7-.5-3.6-1.9-4.6-1.5-1-3.7-.7-4.6.8l2.4-9.6-7.5-5.1-9.6 2z"/>
    <path class="st5" d="M111.7 175.8c2.6 2.6 5.1 5.4 7.8 7.9.8.8 1.7 1.5 2.5 2.2.4.3.9-.2.5-.5-2.9-2.4-5.4-5-8-7.7-.8-.8-1.5-1.6-2.3-2.4-.3-.3-.8.2-.5.5zm-23.9 62.3c3.9-.2 7.7-.9 11.4-2.1 1.1-.3 2.1-.7 3.1-1.1.4-.2.2-.9-.2-.7-3.5 1.4-7.3 2.4-11.1 2.9-1.1.1-2.2.2-3.2.3-.5 0-.5.7 0 .7zM98.4 122c.9 4.3 4.5 7.4 8.3 9.3.8.4 1.6.8 2.5 1 .4.2.6-.5.2-.7-1.6-.5-3.1-1.3-4.5-2.2-1.7-1.1-3.3-2.5-4.4-4.2-.7-1-1.2-2.2-1.4-3.4-.1-.5-.8-.3-.7.2z"/>
    <path class="st5" d="M109.1 123.2c.8 7.6-.6 15.2-2.9 22.4-2.3 7.4-5.5 14.6-8.5 21.8-2.9 7.1-5.5 14.5-6.7 22.1-.3 1.8-.5 3.7-.5 5.6-.1 1.9-.1 3.9.2 5.8.4 1.8 1.4 3.4 3.2 4 1.8.6 3.8.2 5.4-.6 1.9-1 3.5-2.6 5.1-4 1.6-1.5 3-3 4.4-4.6 2.8-3.2 5.4-6.8 7.5-10.5.5-.9 1.1-1.9 1.6-2.8.2-.4-.4-.8-.6-.4-3.9 7.5-9.3 14.4-15.7 19.8-1.6 1.3-3.4 2.6-5.5 2.7-1.9.1-3.6-.8-4.4-2.6-.7-1.8-.6-3.9-.6-5.7 0-1.8.2-3.7.4-5.5.9-7.5 3.5-14.7 6.2-21.7 2.8-7.1 6-14.1 8.4-21.3 2.4-7 4-14.3 3.7-21.8 0-.9-.1-1.8-.2-2.7.2-.5-.5-.5-.5 0zM86.9 219c1.4 4.7 3.2 9.2 5.2 13.7.6 1.3 1.2 2.5 1.8 3.8.2.4.8.1.6-.4-2.1-4.3-4-8.8-5.6-13.4-.4-1.3-.9-2.6-1.3-3.9-.1-.5-.8-.3-.7.2z"/>
    <path class="st2" d="M113.4 264.8c-3.2 2.7-6.5 5.4-10.4 7.1-3.8 1.7-12.5 4.1-16.6 3 2.4-2.6 8.5-8.1 8.8-16.3.1-2.6-1.2-5-1.9-7.5 4.9-.8 8.8-1.2 12.3-5.4.1 0 5.8 14.3 7.8 19.1z"/>
    <path class="st3" d="M111.4 263c-3 2-5.9 4-9.1 5.7-2.8 1.5-5.8 2.8-9 3.6-1.4.4-2.9.6-4.4.4-.2 0-.4.2-.4.4s.2.3.4.4c1.3.2 2.7 0 4-.3 1.6-.3 3.1-.8 4.6-1.4 2.9-1.1 5.7-2.5 8.3-4.1 2-1.3 4-2.6 5.9-3.9.5-.5.1-1.1-.3-.8z"/>
    <path class="st3" d="M90.7 270.4c1.5-.2 3.1.6 3.8 1.9.2.4.8 0 .6-.4-.9-1.6-2.8-2.6-4.6-2.3-.2 0-.3.3-.3.4.2.4.4.5.5.4zm20.4-11c-2.3.6-3.5 3.4-2.6 5.5.1.2.3.2.5.1s.2-.3.1-.5c-.8-1.7.3-3.9 2.1-4.4.6-.1.4-.8-.1-.7zm-11.1-4.8c1.2.6 2.1 1.6 2.6 2.8.3.6.4 1.2.5 1.9 0 .6 0 1.3-.2 1.9-.3.7-1.4.7-2 .6-.7-.1-1.5-.4-2-1-.2-.2-.4-.5-.3-.8.1-.4.4-.4.7-.3.6.2 1.1.7 1.4 1.3.7 1.4-.1 3.1-1.7 3.5-.5.1-.3.8.2.7 1.7-.4 2.8-2.3 2.3-4-.2-.8-.8-1.5-1.5-2-.4-.2-.9-.4-1.3-.3-.4.1-.7.4-.8.8-.3 1 .5 1.7 1.3 2.2.8.5 1.9.7 2.8.7.5 0 .9-.2 1.3-.5.3-.3.5-.8.6-1.2.2-.8.2-1.7 0-2.5-.4-1.8-1.6-3.5-3.3-4.4-.6-.2-1 .4-.6.6z"/>
    <path class="st8" d="M106.8 64.1c1.1 6.3 2.7 12.5 4.9 18.6.6 1.7 1.3 3.4 1.9 5.1.2.4.9.2.7-.2-2.4-5.9-4.4-12.1-5.8-18.3-.4-1.8-.7-3.5-1.1-5.3 0-.5-.7-.3-.6.1zm17.1 3.9c-1.8 5.2-3.5 10.4-5 15.6l-1.2 4.5c-.1.5.6.6.7.2 1.4-5.3 3-10.5 4.7-15.7.5-1.5 1-2.9 1.5-4.4.2-.4-.5-.6-.7-.2zm-59.6-8c-.4 5-.4 10-.1 15 .1 1.4.2 2.9.3 4.3 0 .5.8.5.7 0-.4-5-.7-10-.5-15 .1-1.4.1-2.9.3-4.3.1-.5-.7-.5-.7 0zm4.8 21.4c1.7-5.6 3.1-11.2 4.3-16.9.3-1.6.7-3.2 1-4.8 0-.2 0-.3-.2-.4-.5-.4-1.1.4-.7.8.3.4.8-.2.5-.5.1.2 0 .3-.2.3-.1-.1-.1-.3-.2-.4-1.1 5.7-2.4 11.4-3.9 17-.4 1.6-.9 3.2-1.4 4.8 0 .3.7.5.8.1z"/>
    <path class="st8" d="M72 60.9c.6.7.9 1.6 1 2.4 0 .2.2.4.4.4s.4-.2.4-.4c-.1-1.1-.5-2.1-1.2-2.9-.1-.1-.4-.1-.5 0-.3.2-.3.4-.1.5zM77 97c7.1-1.2 14.2.3 21.3.9 2 .2 4 .3 6 .2.5 0 .5-.7 0-.7-7.3.2-14.3-1.5-21.5-1.6-2 0-4 .1-6 .5-.5.1-.3.8.2.7zm6.3 1.8c2.6.1 5.2.3 7.8.7.5.1.7-.6.2-.7-2.6-.4-5.3-.7-8-.7-.5-.1-.5.6 0 .7zm-6.2 25c5 .5 9.9-.9 14.5-2.6 1.2-.4 2.3-.9 3.5-1.3 1.1-.4 2.3-.9 3.5-1 2.5-.3 5 .6 7.5 1 2.8.5 5.7.7 8.5.5.5 0 .5-.8 0-.7-2.5.2-5.1.1-7.6-.3s-4.9-1.3-7.5-1.2c-2.5 0-4.8 1.1-7.1 2-2.3.9-4.7 1.7-7.2 2.3-2.7.6-5.5.9-8.3.6-.3-.1-.3.6.2.7zM109.2 65c-.4 1.1-.8 2.2-1.2 3.4-.1.2.1.4.3.4.2.1.4-.1.4-.3.4-1.1.8-2.2 1.2-3.4.1-.2-.1-.4-.3-.4-.1-.1-.3.1-.4.3zM80 114.9c-.2.6-.3 1.2-.5 1.9 0 .2.1.4.3.4.2 0 .4-.1.4-.3.2-.6.3-1.2.5-1.9 0-.2-.1-.4-.3-.4-.1 0-.3.1-.4.3zm2.6 0v2.9c0 .5.7.5.7 0v-2.9c0-.5-.7-.5-.7 0zm27.8-9c.1.8.3 1.6.4 2.3 0 .2.3.3.4.3.2-.1.3-.2.3-.4-.1-.8-.3-1.6-.4-2.3 0-.2-.3-.3-.4-.3-.3 0-.4.2-.3.4zm2.6-.3c.1.9.1 1.8.2 2.7 0 .2.2.4.4.4s.4-.2.4-.4c-.1-.9-.1-1.8-.2-2.7 0-.2-.2-.4-.4-.4-.2.1-.4.2-.4.4zm-3.6-12.3c.2.7.4 1.3.7 2 .1.2.3.3.4.3.2-.1.3-.3.3-.4-.2-.7-.4-1.3-.7-2-.1-.2-.3-.3-.4-.3-.2 0-.4.2-.3.4zm5.9-14.8c.1.2.2.4.3.7 0 .1.1.1.2.2h.3c.1 0 .1-.1.2-.2v-.3c-.1-.2-.2-.4-.3-.7 0-.1-.1-.1-.2-.2h-.3c-.1 0-.1.1-.2.2s0 .2 0 .3zm2 .5c.1.2.1.3.1.5v.5c0 .2.1.4.3.4.2 0 .4-.1.4-.3.1-.5 0-1-.2-1.5-.1-.2-.3-.2-.5-.1-.1.1-.1.3-.1.5z"/>
    <path class="st9" d="M17.3 41.5c-.7.5-.8 1.4-.7 2.2.1 1 .4 2 .8 3 .4.9 1 1.8 1 2.8 0 .5-.2 1-.3 1.5-.1.4-.2.9-.2 1.4 0 1.1.4 2 1.1 2.9.3.4.8-.2.5-.5-.5-.6-.8-1.4-.9-2.2-.1-.9.3-1.7.4-2.6.1-.9-.3-1.7-.7-2.5-.4-.9-.7-1.7-.9-2.7-.2-.7-.5-2 .2-2.5.4-.4.1-1-.3-.8zm-16.1.2c2.3 2.5 4.7 4.9 7.4 7 .4.3.9-.2.5-.5-2.7-2.1-5.1-4.5-7.4-7-.3-.4-.9.1-.5.5zm.1 4.8c1.7 1.9 3.5 3.6 5.5 5.1.4.3.9-.2.5-.5-2-1.5-3.8-3.2-5.5-5.1-.3-.4-.9.1-.5.5zm4.1-4.3c1.7 1.8 3.5 3.6 5.2 5.4.3.3.8-.2.5-.5-1.7-1.8-3.5-3.6-5.2-5.4-.3-.4-.9.1-.5.5z"/>
    <path class="st9" d="M6.5 53.5c1.7-2.6 3.6-5 5.7-7.3.3-.3-.2-.9-.5-.5-2.1 2.3-4 4.8-5.8 7.4-.3.5.3.8.6.4zm1.3-.6c.3.4.6.7.9 1.1.2.3.5.6.9.5.4-.1.5-.4.9-.4s.8.1 1.1.2c1.7.5 3.4 1.2 5.1 2 .4.2.8-.4.4-.6-1.6-.8-3.2-1.5-4.9-2-.7-.2-1.5-.5-2.2-.2-.2.1-.3.2-.4.3-.1 0-.1 0-.1-.1-.1-.1-.1-.2-.2-.2-.3-.4-.6-.7-.9-1.1-.4-.4-.9.1-.6.5zm11.8 6.9c1-.9 1.9-1.9 2.9-2.8.3-.3-.2-.8-.5-.5-1 .9-1.9 1.9-2.9 2.8-.3.3.2.8.5.5zm25 10c-.4 1.3-.7 2.7-1.1 4.1-.1.5.6.6.7.2.4-1.4.7-2.7 1.1-4.1.2-.4-.5-.6-.7-.2zM175 120.6c2.8 1.5 5.6 3.1 8.3 4.9.4.3.8-.4.4-.6-2.7-1.8-5.4-3.4-8.3-4.9-.4-.2-.8.4-.4.6zm-2.5 3.2c2.6.9 5.1 2.1 7.5 3.5.4.2.8-.4.4-.6-2.4-1.4-5-2.6-7.6-3.5-.5-.3-.7.4-.3.6z"/>
    <path class="st9" d="M172.1 124c2-1.9 4-3.9 5.8-5.9.3-.3-.2-.9-.5-.5-1.8 2.1-3.8 4-5.8 5.9-.4.3.1.8.5.5zm-11-12.8c.6-.7 1.2-1.3 1.9-2 .1-.1.1-.4 0-.5-.1-.1-.4-.1-.5 0-.6.7-1.2 1.3-1.9 2-.1.1-.1.4 0 .5.1.1.4.2.5 0zm-23.6-31.1c.1 0 .2 0 .3.1h.1c.3.1.5.2.7.4.1.1.2.1.2.2.1.1.1.2.2.2.1.1.1.2.2.2.1.1.1.2.2.3.1.2.3.2.5.1s.2-.3.1-.5c-.4-.9-1.3-1.6-2.3-1.8-.2 0-.4 0-.4.3-.1.2 0 .4.2.5zM91.8 36.9c1.1-.7 2.2-1.5 3.3-2.4.2-.1.1-.4 0-.5-.2-.2-.4-.1-.5 0-1 .8-2.1 1.6-3.1 2.3-.4.2-.1.8.3.6z"/>
    <path class="st9" d="m92.6 36.3.1.1c.1.1.2.2.3.2l.2.2.1.1c.2.2.3.4.3.5 0 0 0 .1.1.1.1.2.1.3.1.3.1.2.3.3.4.3.2-.1.3-.3.3-.4-.3-.8-.8-1.6-1.5-2.1-.2-.1-.4 0-.5.1-.1.3 0 .5.1.6zm-21.9 1.9c1.1.9 2.8 1 4 .1.2-.1.2-.3.1-.5s-.3-.2-.5-.1c-.9.7-2.2.7-3.1 0-.2-.1-.4-.2-.5 0-.1.1-.2.4 0 .5z"/>
    <path class="st7" d="m79.1 48.5 10.3-1.6-9.3 4.6z" style="opacity:.4"/>
    <path d="M77.3 17.3c-2 1-2.4 4.2-.7 5.7 1.5 1.3 3.7 1.1 5.6 1.4 1.7.3 3.5 1.2 4 2.9.4 1.4-.2 3 .4 4.3.8 1.7 3 2 4.8 2.1.5-1.3 2.4-1.6 3.6-.9 1.2.8 1.8 2.1 2.4 3.5 1-1.1 2-2.3 2.6-3.7.6-1.4.7-3.1-.1-4.4-1-1.6-3.2-2.3-4.1-4-.6-1.2-.5-2.6-.7-4-.6-4.3-5.3-7.5-9.6-6.6-1 .2-1.9.6-2.8.8-1.1.2-2.3.1-3.4.4-1.1.3-2.1 1.3-1.9 2.4l-.1.1zm-1.7 15.1c.4-.6 1.3-.8 1.9-.5.7.3 1 1.2.8 1.9-.1.4.6.6.7.2.3-1-.2-2.2-1.2-2.7s-2.2-.1-2.9.8c-.1.2 0 .4.1.5.2 0 .4 0 .6-.2zm1.8-6.2c-.5.1-.6.7-.4 1.2.3.4.7.6 1.2.8 1 .4 2.1.7 3.1 1.1.2.1.4.1.5-.1.1-.1.1-.3 0-.5-.9-1.4-2.4-2.3-4-2.4l-.4-.1z"/>
    <path class="st8" d="M80.5 56.2c-.7 1.5-.7 3.5.7 4.7 1.4 1.2 3.5 1.1 5.2 1 2-.1 4-.6 5.8-1.3 1.6-.7 3.5-1.6 4.3-3.2.9-1.7 0-3.8-1.8-4.4-.4-.2-.6.5-.2.7 1.3.5 2 2.1 1.3 3.4-.7 1.4-2.3 2.2-3.7 2.8-1.6.7-3.3 1.2-5.1 1.3-.9.1-1.8.1-2.7.1-.7 0-1.5-.1-2.2-.4-.8-.3-1.3-1-1.5-1.8-.2-.8 0-1.7.3-2.4.4-.6-.3-1-.4-.5z"/>
    <path d="M69.2 50.4c-.3 3.1-.6 6.7 1 9 .6.8 1.3 1.3 2 1.9 1.2.9 2.3 2 3.2 3.4.9 1.4 1.4 3.2 1.2 5-.1 1.1-.5 2.2-.6 3.3-.5 3.6 2 7.3 4.7 7.2-1.6-.6-2.3-3.2-2-5.4.3-2.2 1.3-4 2-6 .8-1.9 1.4-4.2.8-6.3-.5-1.9-1.8-3.2-2.2-5.1-.4-2.2.5-4.6-.3-6.6-.1-.2-.2-.4-.4-.5-.2-.1-.3 0-.5 0-2.1.5-4.3 1-6.4 1.5l-2.5-1.4zm25 .5c3.4.4 5.6 3.9 6.4 7.2.8 3.3.9 6.9 2.5 9.9 1.2 2.1 3.1 3.8 5.3 4.7 1.5.6 3.1.8 4.5 1.7 3 1.7 4.1 6.2 2.2 9.1 4.2-1.9 5.5-8.1 2.5-11.6-1.2-1.4-2.9-2.3-4.4-3.5-1.5-1.2-2.8-2.8-2.8-4.6 0-1.2.6-2.3.9-3.4 1.4-4.4-.9-9.7-5.1-11.8l-12 2.3z"/>
</svg>
