<svg xmlns="http://www.w3.org/2000/svg" xmlns:xlink="http://www.w3.org/1999/xlink" width="169.5" height="254.6" style="overflow:visible;enable-background:new 0 0 169.5 254.6" xml:space="preserve">
    <style>
        .st0{fill:#a02b31}.st1{fill:#fed5b7}.st2{fill:#ae6d40}.st3{fill:#b7772f}.st4{fill:#3b4a56}.st5{clip-path:url(#SVGID_2_)}.st6{fill:#fff}.st7{clip-path:url(#SVGID_4_)}.st8{fill:#c2b38c}.st10{fill:#ec8117}.st11{fill:#998058}.st13{fill:#a8580f}
    </style>
    <path class="st0" d="M131.4 74.3c.9-3.3-1.5-6.5-3.9-9-4.3-4.5-9.3-8.9-15.3-10.5 1.5 2.7 3 5.3 4.5 8 1.8 3.2 3.7 6.5 6.3 9.1 1.6 1.6 3.5 2.9 4.9 4.7l3.5-2.3z"/>
    <path class="st1" d="M98.2 81.1c7.9-10.2 13.8-23.7 20.1-35 4.9-8.6 10.6-14.9 14.5-24 1.6-3.7 3.1-7.6 2.4-11.6-.4-2.3-1.5-5.1.2-6.8.8-.8 2-1 3-1.6 1.1-.6 1.9-1.6 3.1-2 1.2-.4 2.8.6 2.4 1.7 1.9-1 4.6.9 4.3 3 1.7-.6 3.3 2.2 1.9 3.4 1-.8 2.4.7 2.1 1.9-.3 1.2-1.5 2-2.5 2.7-3.8 2.9-5.8 7.6-7.7 12-3.5 8.4-5.3 15-8.8 23.4-.8 2-3.3 5.7-4.2 7.7-5 12-10 24-15.1 36-.2.4-.4.9-.8 1.1-.6.3-1.2.1-1.8-.2-3.1-1.4-6.3-2.7-9.4-4.1l-3.7-7.6z"/>
    <path class="st2" d="M135.2 7.6c.3-1.3-.1-2.8.8-3.9.4-.5 1-.6 1.7-.5.6.1 1.2.3 1.8.6 1.2.5 2.2 1.3 3 2.2.4.4.9 1.1.9 1.7 0 .5-.5.8-.9.8-.6 0-1.2-.2-1.7-.4-.8-.3-1.6-.7-2.5-1-.2-.1-.4.1-.4.2-.1.2.1.3.2.4 2.2.9 3.4 3.7 2.7 6-.1.4.5.6.6.2.9-2.6-.6-5.7-3.1-6.8-.1.2-.1.4-.2.6.9.4 1.7.7 2.6 1.1.6.2 1.2.4 1.8.4.6 0 1.1-.2 1.4-.7.4-.7.1-1.5-.3-2.1-.8-1.2-2-2.2-3.3-2.9-.6-.3-1.3-.6-2-.8-.7-.2-1.6-.3-2.2.1-1.6 1-1.1 3.1-1.4 4.6-.2.4.4.6.5.2z"/>
    <path class="st2" d="M143.4 1.6c-.6.9-1.3 1.8-1.9 2.7-.1.1 0 .4.1.4.2.1.3 0 .4-.1.6-.9 1.3-1.8 1.9-2.7.1-.1 0-.4-.1-.4-.1-.1-.3 0-.4.1zm4.2 2.4c-.7 1-1.5 1.9-2.3 2.8-.4.4-.7.9-1.2 1.2-.3.2-.9.6-1.2.3-.3-.3-.8.2-.5.5 1.1.9 2.3-.4 3-1.1 1-1.1 1.9-2.2 2.8-3.3.2-.4-.3-.7-.6-.4zm2.4 3.5c-1 .9-1.6 2.4-3 2.9-.5.2-1.1.2-1.5-.3-.3-.3-.5-.8-.2-1.2.3-.3-.2-.8-.5-.5-.4.5-.4 1.2-.1 1.7.4.6 1 1 1.7.9 1.9-.2 2.7-2.1 3.9-3.2.4-.2 0-.6-.3-.3z"/>
    <path class="st2" d="M150.4 11.4c-.6.6-1.5 1.4-2.5 1.3-.6-.1-1.4-.9-1-1.5.2-.3-.3-.7-.6-.3-.6 1 .2 2.1 1.2 2.4 1.2.4 2.4-.6 3.3-1.4.4-.3 0-.8-.4-.5zm-4.7-.8c-2.1 1.2-3.6 3.3-4.1 5.6-.1.4.5.6.6.2.5-2.2 1.9-4.1 3.8-5.2.4-.3 0-.8-.3-.6zm-22.2 38.3c.1 1-.4 2-1.2 2.5-.1.1-.2.3-.1.4.1.1.3.2.4.1 1-.7 1.6-1.9 1.5-3.1 0-.2-.1-.3-.3-.3-.1.1-.3.2-.3.4z"/>
    <path class="st1" d="M114.1 215.6c-4.3 2.3-8.7 4.5-13 6.8-.3.2-.7.4-1.1.4-.5 0-1-.3-1.5-.7-2.9-2.2-5.7-4.3-8.6-6.5 6.5-4.1 12.9-8.5 19.1-13.1l5.1 13.1z"/>
    <path class="st3" d="M99.9 226.3c-.1 1.8.6 3.5 1.3 5.1 1.2 3 2.5 5.9 3.7 8.9.7 1.7 1.4 3.5 1.1 5.3l-28.5-25.3s2.1-2.1 6.3-3.1c1.2-.3 2.5-.5 3.7-.8.5-.1 1-.3 1.4-.5.4-.2.6-.5.8-.9.2-.5 1.3-1.2 1.5-1.7.4-.7 1.4-1 2.1-.9 1.5.1.5-2 1.9-1.7.4.1.7.3.9.5 3.4 2.7 6.8 5.5 9.1 9.2.2.3.4.7.3 1.1-.1.4-.7.6-.9.3.2.4-.2.9-.6.9-.5 0-.8-.4-1.3-.3-.5.1-1 .5-1.4.8-.9.8-1.4 2-1.4 3.1z"/>
    <path class="st4" d="M106 245.7c-.7.8-2.7 3.3-3.5 3.9L74 224.3l3.5-3.9 28.5 25.3z"/>
    <defs>
        <path id="SVGID_1_" d="M99.9 226.3c-.1 1.8.6 3.5 1.3 5.1 1.2 3 2.5 5.9 3.7 8.9.7 1.7 1.4 3.5 1.1 5.3l-28.5-25.3s2.1-2.1 6.3-3.1c1.2-.3 2.5-.5 3.7-.8.5-.1 1-.3 1.4-.5.4-.2.6-.5.8-.9.2-.5 1.3-1.2 1.5-1.7.4-.7 1.4-1 2.1-.9 1.5.1.5-2 1.9-1.7.4.1.7.3.9.5 3.4 2.7 6.8 5.5 9.1 9.2.2.3.4.7.3 1.1-.1.4-.7.6-.9.3.2.4-.2.9-.6.9-.5 0-.8-.4-1.3-.3-.5.1-1 .5-1.4.8-.9.8-1.4 2-1.4 3.1z"/>
    </defs>
    <clipPath id="SVGID_2_">
        <use xlink:href="#SVGID_1_" style="overflow:visible"/>
    </clipPath>
    <g class="st5">
        <path class="st6" d="m93.8 234.5-.3-.3c2-1.6 3.1-4.5 2.7-7-.1-.4-.2-.8-.2-1.1-.3-1.2-.6-2.4-.1-3.5.2-.6.7-1 1-1.4 1.6-1.6 3.5-2.7 5.7-3.4l.1.4c-2.1.6-3.9 1.8-5.5 3.3-.3.3-.7.8-.9 1.2-.4 1-.2 2.1.1 3.2l.3 1.2c.4 2.7-.7 5.6-2.9 7.4z"/>
    </g>
    <g class="st5">
        <path class="st6" d="m82.1 224.4-.3-.3c1.8-1.8 2.8-4.2 2.9-6.7h.4c0 2.6-1.2 5.2-3 7z"/>
    </g>
    <g class="st5">
        <path class="st6" d="M92.3 226.6c-.6 0-1.1-.2-1.6-.5-1-.7-1.4-1.7-1.5-2.8-1.3-.1-2.5-1.1-2.8-2.4l.4-.1c.3 1.1 1.2 1.9 2.3 2.1 0-.4 0-.8.1-1.2.2-.9.6-1.6 1.1-1.9.4-.2.9-.3 1.4-.1.4.1.6.4.7.7.1.3 0 .7-.2 1.1-.5 1-1.6 1.8-2.7 1.8.1 1 .5 1.9 1.3 2.4.9.6 2.1.5 2.9-.1l.3.3c-.4.5-1.1.7-1.7.7zm-1.1-6.6c-.2 0-.4.1-.6.2-.5.3-.8.8-.9 1.6-.1.4-.1.7-.1 1.1 1-.1 1.9-.7 2.4-1.6.1-.3.2-.6.1-.8-.1-.3-.3-.4-.5-.5h-.4z"/>
    </g>
    <g class="st5">
        <path class="st6" d="m97.6 232-.2-.4c1.6-.9 3.6-1 5.3-.4l-.1.4c-1.6-.5-3.5-.4-5 .4z"/>
    </g>
    <g class="st5">
        <path class="st6" d="m99.5 236.5-.2-.4c1.6-1 3.7-1.2 5.4-.4l-.2.4c-1.6-.7-3.5-.5-5 .4z"/>
    </g>
    <g class="st5">
        <path class="st6" d="m93.555 212.722.312-.25 5.52 6.853-.311.25z"/>
    </g>
    <g class="st5">
        <path class="st6" d="m91.243 213.772.32-.241 5.615 7.413-.319.241z"/>
    </g>
    <path class="st6" d="M104.7 246.6c-3.6-3.2-7.2-6.3-10.7-9.5-3.6-3.2-7.2-6.3-10.7-9.5-2-1.8-4-3.6-6-5.3-.3-.3-.8.2-.5.5 3.6 3.2 7.2 6.3 10.7 9.5 3.6 3.2 7.2 6.3 10.7 9.5 2 1.8 4 3.6 6 5.3.3.2.8-.2.5-.5zm-.5 1.3c-3.7-3.3-7.5-6.6-11.2-9.9-3.7-3.3-7.4-6.6-11.2-9.9-2.1-1.9-4.2-3.7-6.3-5.6-.3-.3-.8.2-.5.5 3.7 3.3 7.5 6.6 11.2 9.9 3.7 3.3 7.4 6.6 11.2 9.9 2.1 1.9 4.2 3.7 6.3 5.6.4.3.8-.2.5-.5z"/>
    <path class="st1" d="M34.8 215.1c-2.5 4.2-5.1 8.3-7.6 12.5-.2.3-.4.7-.4 1 0 .5.3 1 .6 1.5 2 3 3.9 6 5.9 9 4.5-6.2 9.3-12.3 14.3-18.2l-12.8-5.8z"/>
    <path class="st3" d="M23.1 228.6c-1.8 0-3.4-.8-5-1.6-2.9-1.4-5.8-2.8-8.6-4.3-1.6-.8-3.4-1.7-5.2-1.5l23.4 30.1s2.2-2 3.5-6c.4-1.2.7-2.4 1-3.6.2-.5.3-1 .6-1.4.3-.4.6-.6 1-.7.5-.1 1.3-1.2 1.8-1.4.7-.3 1.1-1.4 1.1-2 0-1.5 2-.3 1.8-1.8 0-.4-.3-.7-.5-1-2.5-3.5-5.1-7.1-8.6-9.6-.3-.2-.7-.5-1.1-.4-.4.1-.7.7-.3.9-.3-.3-.9.1-.9.5-.1.5.4.9.2 1.3-.2.5-.5 1-.9 1.3-.9.8-2.1 1.2-3.3 1.2z"/>
    <path class="st4" d="M4.2 221.3c-.8.7-3.5 2.5-4.2 3.2l23.4 30.1 4.2-3.2-23.4-30.1z"/>
    <defs>
        <path id="SVGID_3_" d="M23.1 228.6c-1.8 0-3.4-.8-5-1.6-2.9-1.4-5.8-2.8-8.6-4.3-1.6-.8-3.4-1.7-5.2-1.5l23.4 30.1s2.2-2 3.5-6c.4-1.2.7-2.4 1-3.6.2-.5.3-1 .6-1.4.3-.4.6-.6 1-.7.5-.1 1.3-1.2 1.8-1.4.7-.3 1.1-1.4 1.1-2 0-1.5 2-.3 1.8-1.8 0-.4-.3-.7-.5-1-2.5-3.5-5.1-7.1-8.6-9.6-.3-.2-.7-.5-1.1-.4-.4.1-.7.7-.3.9-.3-.3-.9.1-.9.5-.1.5.4.9.2 1.3-.2.5-.5 1-.9 1.3-.9.8-2.1 1.2-3.3 1.2z"/>
    </defs>
    <clipPath id="SVGID_4_">
        <use xlink:href="#SVGID_3_" style="overflow:visible"/>
    </clipPath>
    <g class="st7">
        <path class="st6" d="m14.9 234.4-.3-.3c1.9-2.1 4.9-3 7.6-2.3.4.1.8.2 1.1.3 1.1.4 2.2.7 3.2.3.5-.2.9-.5 1.3-.9 1.6-1.4 2.9-3.3 3.6-5.3l.4.2c-.8 2.1-2.1 3.9-3.8 5.4-.4.4-.9.7-1.4.9-1.2.4-2.3.1-3.5-.3-.4-.1-.8-.2-1.1-.3-2.4-.5-5.3.4-7.1 2.3z"/>
    </g>
    <g class="st7">
        <path class="st6" d="m24.2 246.8-.3-.3c1.9-1.7 4.6-2.7 7.2-2.6v.4c-2.6-.1-5.1.8-6.9 2.5z"/>
    </g>
    <g class="st7">
        <path class="st6" d="M27.7 242.4c-1.2-.4-2.2-1.6-2.2-2.9-1.1-.2-2.1-.6-2.7-1.6-.6-1.1-.5-2.5.3-3.4l.3.3c-.7.8-.8 2-.3 2.9.5.8 1.4 1.3 2.3 1.4.1-1.1.9-2.2 2-2.6.4-.2.8-.2 1.1-.1.3.1.6.4.7.8.1.5.1 1-.2 1.4-.4.5-1 .9-2 1-.4.1-.8.1-1.2 0 .1 1.1.9 2.1 1.9 2.5v.3zm-1.8-3.3H27c.8-.1 1.4-.4 1.7-.8.2-.3.2-.7.1-1 0-.1-.2-.4-.4-.5-.2-.1-.5-.1-.8.1-.9.3-1.6 1.2-1.7 2.2z"/>
    </g>
    <g class="st7">
        <path class="st6" d="m17.7 230.7-.4-.2c.9-1.4 1.1-3.3.7-4.9l.4-.1c.5 1.7.2 3.6-.7 5.2z"/>
    </g>
    <g class="st7">
        <path class="st6" d="m13.3 228.5-.3-.3c1-1.4 1.3-3.3.7-5l.4-.1c.6 1.8.3 3.9-.8 5.4z"/>
    </g>
    <g class="st7">
        <path class="st6" d="m29.725 229.827.27-.295 6.482 5.952-.27.295z"/>
    </g>
    <g class="st7">
        <path class="st6" d="m28.071 231.977.262-.303 7.034 6.084-.262.303z"/>
    </g>
    <path class="st6" d="M2.8 222.9c2.9 3.8 5.9 7.5 8.8 11.3s5.9 7.5 8.8 11.3c1.6 2.1 3.3 4.2 4.9 6.4.3.3.7-.1.5-.5-2.9-3.8-5.9-7.5-8.8-11.3-2.9-3.8-5.9-7.5-8.8-11.3-1.6-2.1-3.3-4.2-4.9-6.4-.3-.3-.8.2-.5.5zm-1.4.4c3.1 3.9 6.1 7.9 9.2 11.8 3.1 3.9 6.1 7.9 9.2 11.8 1.7 2.2 3.5 4.4 5.2 6.7.3.3.7-.1.5-.5-3.1-3.9-6.1-7.9-9.2-11.8-3.1-3.9-6.1-7.9-9.2-11.8-1.7-2.2-3.5-4.4-5.2-6.7-.3-.3-.8.2-.5.5z"/>
    <path class="st4" d="M84.4 79c-4.9.8-10.2 1.9-13.2 5.8-2.9 3.7-2.8 8.9-2.5 13.6.6 12.7 1.3 25.4 1.9 38.1.2 3 .3 6.1 1.9 8.6 1.8 2.9 5.1 4.5 8.3 5.5 7.7 2.5 16.2 2.7 24.1.6 7-1.9 14-6.3 16.3-13.3 1.7-5.1.5-10.7-.9-15.9-3.5-13.1-8.4-25.8-14.6-37.8L84.4 79z"/>
    <path class="st8" d="M88.1 146.1c-22 21.1-43.6 49.7-59 74.3 4.8 3.4 9.5 6.8 14.3 10.3.3.2.6.4 1 .5.7.1 1.3-.5 1.7-1C59 216.3 79.1 197.9 92 184c7.8-8.4 25.9-24.5 26.6-24.6.7-.1 13.6 10.8 19.3 17.5 0 0-32.8 24-32.9 24 1.4 4.7 3.1 16.2 4.5 20.9.3.9 32.1-18.1 43.4-25.3 29.8-19.1 12-36.3 4.1-43.5-7.5-6.8-15-13.6-22.2-20.8l-7.2-11-32.9 9.6-.5 3.6c-.7 4.4-2.8 8.5-6.1 11.7z"/>
    <path d="M131.4 74.3c-2.1 2.9-7.9 9.3-10.1 12.1-.4.6-.8 1.2-.9 1.9-.1.6.1 1.2.3 1.8 4.3 12.5 2.7 18.5 7 31-13 8.5-8.3 9.8-35.9 19.7-.5-6.7-5.8-15.6-8-22 0 1.9-.4 2-.4 3.9-.6.3-25.8 2.1-25.8 2.1-.3-7.9.4-15.2 2.1-22.9 1.1-5 2.8-10.2 6.7-13.5 5.1-4.3 12.7-4.1 18.4-7.5 3.8-2.2 6.6-5.9 9.4-9.2 5.1-6 10.8-11.3 16.6-16.7.3-.3.7-.7 1.2-.7.4 0 .8.2 1.1.5 6.2 4.4 11.4 10 15.5 16.5l2.8 3z" style="fill:#dc4345"/>
    <path class="st4" d="M93.6 71.5c-.4.4-.7.9-.9 1.4-.1.3-.3.5-.4.6 0 0 .7.5.8.5 0 .2 20.5 8 27.6 15.7 1.4-1.5.4-3.8-.8-5.4-5.4-7.4-14.8-13.8-23.8-15.6l-2.5 2.8zm-18 12.4c8.2 10.6 11.4 24.9 8.5 38-.8-4.2-1.7-8.5-3.1-12.5-2.9-8.1-8.1-15.2-13.3-22.2 2.4-1.4 5-2.5 7.7-3.3h.2z"/>
    <path class="st6" d="M109.8 75.2c-.8 1.8-1.3 3.6-2.2 5.4-.2.4.4.7.6.3.8-1.8 1.3-3.6 2.2-5.4.1-.3-.5-.6-.6-.3zm-2-1.4c-.9 2-1.8 3.9-2.7 5.9-.2.4.4.7.6.3.9-2 1.8-3.9 2.7-5.9.2-.4-.4-.7-.6-.3zM81.8 95c-2 .8-3.9 1.7-5.8 2.7-.4.2 0 .8.3.6 1.8-1 3.7-1.9 5.7-2.6.3-.3.2-.9-.2-.7zm.5 1.8c-2.1 1-4.2 2-6.4 2.8-.4.1-.2.8.2.6 2.2-.8 4.4-1.8 6.5-2.8.4-.2 0-.8-.3-.6z"/>
    <path class="st0" d="M83.2 120.2c-6.3-.4-12.6-.6-18.9-.5-1.8 0-3.6.1-5.4.1-.4 0-.4.7 0 .6 6.3-.3 12.6-.2 18.9.1 1.8.1 3.6.2 5.3.3.5.1.5-.6.1-.6zm46.3-44.5c-2.7-2.2-4.8-5-7-7.7-2.1-2.7-4.1-5.5-6.6-7.9-1.4-1.3-2.9-2.5-4.6-3.5-.4-.2-.7.4-.3.6 3 1.7 5.4 4.1 7.5 6.7 2.2 2.7 4.2 5.5 6.4 8.2 1.3 1.5 2.6 2.9 4.1 4.1.4.2.8-.2.5-.5zM96.6 79c.1 2.1-.4 4.3-1.6 6.1-1.2 1.8-2.9 3.2-4.9 3.9-1.1.4-2.3.6-3.5.6-.4 0-.4.6 0 .6 2.3 0 4.5-.7 6.3-2.1 1.8-1.3 3.2-3.2 3.8-5.4.4-1.2.6-2.5.5-3.8 0-.3-.6-.3-.6.1zm11.1 12.7c-1.7 2.9-3.2 5.9-4.5 8.9-1.3 3-2.5 6.2-3.5 9.3-.6 1.8-1.1 3.6-1.6 5.4-.1.4.5.6.6.2.8-3.2 1.8-6.4 2.9-9.5 1.2-3.1 2.5-6.2 4-9.1.8-1.7 1.7-3.3 2.7-4.9.1-.4-.4-.7-.6-.3zm2.1 2.3c-3.1 5-5.7 10.4-7.6 16-.5 1.6-1 3.2-1.4 4.8-.1.4.5.6.6.2 1.5-5.7 3.7-11.2 6.5-16.4.8-1.5 1.6-2.9 2.5-4.3.1-.4-.4-.7-.6-.3zm-31.4 17.1c.7 1.4 1.5 2.9 2.2 4.3.2.4.7 0 .6-.3-.7-1.4-1.5-2.9-2.2-4.3-.2-.3-.8 0-.6.3zm-.8 1.2c.6 1.4 1.3 2.6 2.2 3.9.1.1.3.2.4.1.1-.1.2-.3.1-.4-.9-1.2-1.6-2.5-2.2-3.9-.1-.2-.3-.2-.4-.1-.2.1-.2.2-.1.4zM92.2 97c.3.8.5 1.6.8 2.4.1.2.2.3.4.2.2 0 .3-.2.2-.4-.3-.8-.5-1.6-.8-2.4-.1-.2-.2-.3-.4-.2-.1.1-.2.2-.2.4zm-.3 2.9c.1 0 .1.1 0 0 .1 0 .1 0 0 0 .1.1.1.1.2.1 0 0 0-.1 0 0v.1l.1.1v-.1c0 .1.1.2.1.3v-.1.3-.1.2c0 .1.1.1.2.1h.2c.1 0 .1-.1.1-.2v-.5c0-.1-.1-.3-.1-.4-.1-.2-.3-.4-.5-.6-.1-.1-.4 0-.4.1-.1.4-.1.6.1.7zm-.6 2.1c.1.2.2.3.3.5.1.2.1.3.2.5s.1.4.2.5c0 .2.1.3.1.5s.1.3.3.3c.2 0 .3-.1.3-.3-.1-.8-.3-1.6-.8-2.3-.1-.1-.3-.2-.4-.1-.3 0-.3.2-.2.4zm.2 10.5c.4.6.7 1.3.7 2 0 .2.1.3.3.3.2 0 .3-.1.3-.3 0-.8-.3-1.7-.8-2.4-.1-.1-.3-.2-.4-.1-.1.2-.2.4-.1.5zm11-25.2.1.1s.1 0 .1.1c0 0 0-.1 0 0 .1.1.1.2.2.3v-.1c.1.1.1.3.1.4V88v.1c0 .1 0 .2.1.2.1.1.1.1.2.1.2 0 .3-.1.3-.3 0-.5-.2-1-.6-1.3-.1-.1-.3-.1-.5 0-.1.1-.1.4 0 .5zm-.5 2.8.1.1v.1s0 .1.1.2v.2c0 .1 0-.1 0 0v.5s0-.1 0 0c0 .2 0 .4.2.4s.4 0 .4-.2c.1-.5 0-1.1-.3-1.6-.1-.1-.3-.2-.4-.1-.1 0-.2.2-.1.4zm11.9 2.8c.5.7.7 1.6.7 2.5 0 .2.1.3.3.3.2 0 .3-.1.3-.3 0-1-.3-1.9-.8-2.8-.2-.4-.7-.1-.5.3zm-.3 2.7c.3.6.5 1.2.5 1.8 0 .2.1.3.3.3.2 0 .3-.1.3-.3 0-.7-.2-1.5-.6-2.1-.1-.1-.3-.2-.4-.1-.1 0-.2.2-.1.4zm-5.1-8.3c.2.3.3.6.5.9.1.1.3.2.4.1.1-.1.2-.3.1-.4-.2-.3-.3-.6-.5-.9-.1-.1-.3-.2-.4-.1-.2 0-.2.2-.1.4zm12.6-17c.2.7.4 1.5.5 2.2 0 .2.2.3.4.2.2 0 .3-.2.2-.4-.2-.7-.4-1.5-.5-2.2 0-.2-.2-.3-.4-.2-.2.1-.2.3-.2.4zm-2 1.6c.1 0 .1 0 0 0 .1 0 .1 0 0 0 0 0 .1 0 .1.1 0-.1 0-.1-.1-.1.1 0 .1.1.2.1l-.1-.1c0 .1.1.1.1.2V72v.2-.1.2-.1.1-.1s0 .1-.1.1l.1-.1c-.1.1-.1.3 0 .5.1.1.3.1.5 0 .5-.5.2-1.4-.4-1.6-.2 0-.4.1-.4.2-.1.3 0 .5.1.6zm-1 1.2c0 .4 0 .7.1 1.1 0 .2.1.3.3.3.2 0 .3-.1.3-.3 0-.4 0-.7-.1-1.1 0-.2-.1-.3-.3-.3-.1 0-.3.1-.3.3zm-7.5-7.8c.2.5.5 1 .7 1.5.1.2.3.2.4.1.2-.1.2-.3.1-.4-.2-.5-.5-1-.7-1.5-.1-.2-.3-.2-.4-.1-.1.1-.1.3-.1.4zm-2.5 2 .1.1s.1 0 .1.1c0 0 0-.1 0 0 .1.1.1.2.2.3v-.1c.1.1.1.3.1.4V68v.1c0 .1 0 .2.1.2.1.1.1.1.2.1.2 0 .3-.1.3-.3 0-.5-.2-1-.6-1.3-.1-.1-.3-.1-.5 0-.1.2-.1.4 0 .5zm-42.7 37.1.3.9c0 .1.1.2.1.2.1 0 .2.1.2 0 .2-.1.3-.2.2-.4l-.3-.9c0-.1-.1-.2-.1-.2-.1 0-.2-.1-.2 0-.2 0-.3.2-.2.4zm-.1 4.7c.1.1.2.3.2.4 0 .1.1.1.2.1h.2c.1 0 .1-.1.1-.2v-.2c-.1-.1-.2-.3-.2-.4 0-.1-.1-.1-.2-.1h-.2c-.1 0-.1.1-.1.2-.1 0-.1.1 0 .2zm-.5 4.3.3.9c0 .1.1.2.1.2.1 0 .2.1.2 0 .2-.1.3-.2.2-.4l-.3-.9c0-.1-.1-.2-.1-.2-.1 0-.2-.1-.2 0-.1.1-.2.3-.2.4zm.2-16.2c.5.8.6 1.7.4 2.6 0 .2 0 .3.2.4.2 0 .4-.1.4-.2.2-1.1 0-2.2-.5-3.1-.1-.4-.7-.1-.5.3zM90.9 121c.2.2.3.4.5.6 0 0 0 .1.1.1 0 0 .1 0 .1.1h.2c.1 0 .1-.1.1-.2v-.2c-.2-.2-.3-.4-.5-.6 0 0 0-.1-.1-.1 0 0-.1 0-.1-.1H91c-.1 0-.1.1-.1.2-.1 0-.1.1 0 .2zm-1.7 1.2c.2.3.3.6.5.9.1.1.3.2.4.1.1-.1.2-.3.1-.4-.2-.3-.3-.6-.5-.9-.1-.1-.3-.2-.4-.1-.1 0-.2.2-.1.4zm30.3 1.9c.1.1.2.3.2.4 0 .1.1.1.2.1h.2c.1 0 .1-.1.1-.2v-.2c-.1-.1-.2-.3-.2-.4 0-.1-.1-.1-.2-.1h-.2c-.1 0-.1.1-.1.2-.1 0-.1.1 0 .2z"/>
    <path class="st10" d="M129.4 124c-12.2 15.8-30.7 17.9-39.8 20.5-.2-1.1 1.8-2.1 1.7-3.2 7.8-2 17.2-5.1 23.8-9.7 2.1-1.5 10.2-8 12.8-10.1l1.5 2.5z"/>
    <path class="st6" d="M106.9 135c-.6.4-1.1 1-1.2 1.7-.1.7.1 1.4.4 2.1.3.6.7 1.3 1.3 1.7.7.5 1.4.3 2.1 0 1.2-.5 2.4-.9 3.5-1.4.6-.2 1.2-.5 1.9-.7.6-.3 1.1-.6 1.5-1.1.4-.5.5-1.1.6-1.7 0-.7-.2-1.2-.5-1.8-.3-.6-.5-1.2-1-1.7-.4-.4-1-.7-1.7-.7s-1.2.2-1.8.6c-.6.3-1.2.7-1.7 1-1.1.7-2.3 1.4-3.4 2-.7.4-.1 1.5.7 1.1 1.8-1.1 3.6-2.2 5.4-3.2.2-.1.3-.2.6-.2h.6c.2 0 .4.2.5.3.2.1.2.3.3.5.1.3.3.5.4.8.3.5.4.8.4 1.3 0 .3-.2.8-.4 1-.3.4-.7.5-1.1.7-1.1.5-2.3.9-3.4 1.4-.5.2-1.1.4-1.6.6-.2.1-.6.3-.8.2-.2 0-.4-.3-.6-.5-.4-.5-.7-1.2-.8-1.7-.1-.5.2-1 .6-1.2.5-.4-.1-1.5-.8-1.1z"/>
    <path class="st8" d="M97.7 139.1c.3 1.8.7 3.6 1 5.5.1.3.5.5.8.5.4-.1.5-.5.5-.8-.3-1.8-.7-3.6-1-5.5-.1-.3-.5-.5-.8-.5-.4.1-.6.4-.5.8zm22.7-11.9c1.3 1.5 2.5 3.1 3.7 4.7.2.3.6.4.9.2.3-.2.4-.6.2-.9-1.2-1.7-2.5-3.4-3.9-5-.2-.3-.7-.2-.9 0-.3.3-.3.7 0 1z"/>
    <path class="st11" d="M116.8 137.8c1 3 1.9 6 2.7 9.1.4 1.5.8 3 1.2 4.6.2.7.4 1.5.5 2.2.1.7.1 1.3-.1 1.9-.5 1.3-1.7 2.2-2.8 2.9.2.1.3.1.5.2-1-4.9-2.1-9.8-3.7-14.5-.5-1.4-1-2.8-1.5-4.1-.2-.4-.8-.2-.6.2 1.9 4.6 3.2 9.4 4.3 14.3.3 1.4.6 2.9.9 4.3 0 .2.3.3.5.2 1-.7 2.1-1.5 2.7-2.6.3-.5.5-1.1.6-1.7.1-.8-.2-1.6-.4-2.4-.7-3.2-1.6-6.3-2.5-9.4-.5-1.8-1.1-3.6-1.7-5.3-.1-.5-.8-.3-.6.1z"/>
    <path class="st11" d="M118.6 158.1c-2.3-.7-4.6-1.3-6.9-1.8-.4-.1-.6.5-.2.6 2.3.5 4.7 1.1 6.9 1.8.5.1.6-.5.2-.6zm-.8 1c-1.8-.3-3.6-.7-5.4-1-.4-.1-.6.5-.2.6 1.8.3 3.6.7 5.4 1 .4.1.6-.6.2-.6zm-7.4 38.8c1.3 5.3 2.7 10.5 4.2 15.8.4 1.5.8 3 1.2 4.4.1.4.7.2.6-.2-1.5-5.2-2.9-10.5-4.3-15.8-.4-1.5-.8-3-1.1-4.4-.1-.3-.7-.2-.6.2z"/>
    <path class="st11" d="M121.2 155.9c3.8 3.7 7.7 7.3 11.5 11 1.8 1.7 3.6 3.3 5.2 5.1 1.4 1.5 2.7 3.3 3.1 5.4.4 2.2-.4 4.2-1.6 6-1.3 1.8-2.9 3.3-4.5 4.8-3.3 2.9-7 5.4-10.5 8-3.6 2.5-7.1 5.2-10.2 8.3-.4.4-.7.8-1.1 1.2-.3.3.2.8.5.5 3-3.3 6.6-6.1 10.2-8.7 3.6-2.6 7.3-5.1 10.7-8 1.7-1.4 3.4-3 4.8-4.7 1.4-1.7 2.6-3.7 2.6-6 0-2.1-.9-4.1-2.2-5.8-1.4-1.8-3.1-3.4-4.8-5-3.9-3.7-7.8-7.5-11.7-11.2-.5-.5-1-.9-1.4-1.4-.5-.3-.9.2-.6.5z"/>
    <path class="st11" d="M138.3 176.9c4.2.7 8.4 1.5 12.5 2.5.4.1.6-.5.2-.6-4.1-1-8.3-1.8-12.5-2.5-.4-.1-.6.5-.2.6z"/>
    <path class="st11" d="M138.3 176.9c3 1.1 5.9 2.6 8.6 4.5.8.5 1.5 1.1 2.2 1.7.3.3.8-.2.5-.5-2.5-2.2-5.4-3.9-8.4-5.3-.9-.4-1.7-.7-2.6-1-.5-.2-.7.4-.3.6zM116 158.3l-13.5 12.3c-4.5 4.1-9 8.2-13.5 12.4-4.5 4.1-9 8.2-13.5 12.4-4.5 4.1-8.9 8.2-13.3 12.3-4.4 4.1-8.8 8.2-13.2 12.4-.5.5-1.1 1-1.6 1.5-.3.3.2.7.5.5 4.4-4.2 8.8-8.3 13.2-12.4 4.4-4.1 8.8-8.2 13.3-12.3l13.5-12.3c4.5-4.1 9-8.3 13.5-12.4s8.9-8.2 13.4-12.3c.6-.5 1.1-1 1.7-1.5.3-.5-.2-.9-.5-.6z"/>
    <path class="st11" d="M50.7 223.9c-4.3-2.3-8.5-4.7-12.6-7.3-1.2-.7-2.3-1.4-3.5-2.2-.4-.2-.7.3-.3.6 4.1 2.6 8.3 5.1 12.5 7.4 1.2.7 2.4 1.3 3.6 2 .3.2.7-.3.3-.5zM99 143.5c-1.8 4.1-6.3 5.9-10.4 6.7-1.4.3-2.7.5-4.1.7-.4.1-.2.7.2.6 4.6-.7 9.5-1.4 12.9-4.9.8-.8 1.5-1.8 2-2.9.1-.2-.5-.5-.6-.2zm35.6-11c-3.3.3-6.7 0-9.9-1.1-.4-.1-.6.5-.2.6 3.2 1.1 6.7 1.5 10.1 1.2.4-.1.4-.8 0-.7zM71 177.7c-.8.8-1.5 1.6-2.3 2.4-.1.1-.1.3 0 .5.1.1.3.1.5 0 .8-.8 1.5-1.6 2.3-2.4.1-.1.1-.3 0-.5-.2-.1-.4-.1-.5 0zm-4.2 2.1c-.2.2-.4.5-.6.7-.1.1-.1.1-.1.2s0 .2.1.2c.1.1.1.1.2.1s.2 0 .2-.1c.2-.2.4-.5.6-.7.1-.1.1-.1.1-.2s0-.2-.1-.2c-.1-.1-.1-.1-.2-.1s-.2.1-.2.1zm-3.2 3.3c-.2.2-.4.5-.6.7-.1.1-.1.1-.1.2s0 .2.1.2c.1.1.1.1.2.1s.2 0 .2-.1c.2-.2.4-.5.6-.7.1-.1.1-.1.1-.2s0-.2-.1-.2c-.1-.1-.1-.1-.2-.1 0 0-.1 0-.2.1zm.9 7.4c-.7.6-1.4 1.2-1.9 2-.1.1 0 .4.1.4.2.1.3 0 .4-.1l.1-.1.1-.1c.1-.1.1-.2.2-.2.1-.2.3-.3.4-.5.3-.3.6-.6 1-.9.1-.1.1-.3 0-.5-.1-.1-.2-.1-.4 0zm8.6-6.9c-.5.5-1.1 1-1.6 1.5-.1.1-.1.3 0 .5.1.1.3.1.5 0 .5-.5 1.1-1 1.6-1.5.1-.1.1-.3 0-.5-.1-.1-.3-.1-.5 0zm76.9 6.1-1.8 2.1c-.1.1-.1.3 0 .5.1.1.3.1.5 0l1.8-2.1c.1-.1.1-.3 0-.5-.2-.1-.4-.1-.5 0zm-3.5.8s0 .1-.1.1v.1s0 .1 0 0l-.2.2-.2.2s-.1.1 0 0h-.1c-.1.1-.3.2-.4.2-.1 0 0 0 0 0h-.2c-.1 0-.2 0-.3.1-.2 0-.3.2-.2.4.1.2.2.3.4.2.8-.2 1.5-.7 1.9-1.3.1-.1 0-.4-.1-.4-.2 0-.4 0-.5.2zm16.1-20.3c0 .4.1.9.1 1.3 0 .2.1.3.3.3.2 0 .3-.1.3-.3 0-.4-.1-.9-.1-1.3 0-.2-.1-.3-.3-.3-.1 0-.3.2-.3.3zm-1.2 5.9c-.1.2-.3.5-.4.7 0 .1-.1.2 0 .2 0 .1.1.2.1.2.2.1.3 0 .4-.1.1-.2.3-.5.4-.7 0-.1.1-.2 0-.2 0-.1-.1-.2-.1-.2-.1-.1-.3-.1-.4.1zm-3.4 2.8v.9c0 .1-.1.3-.1.4v.2c0 .1-.1.1-.1.2-.1.1 0 .4.1.4.2.1.3 0 .4-.1.4-.6.5-1.3.5-2 0-.2-.1-.3-.3-.3-.4 0-.5.1-.5.3zm-4.9-19.7c.3.9.4 1.9.2 2.9-.1.4.5.6.6.2.3-1.1.2-2.2-.2-3.3-.1-.2-.2-.3-.4-.2-.1.1-.2.2-.2.4zm-3.4 4.7c.1.1.1.3.1.4v.4c0 .3 0 .6-.2.9-.1.2.1.4.2.4.2 0 .3-.1.4-.2.3-.7.2-1.5-.1-2.2-.1-.2-.3-.2-.4-.1 0 0-.1.2 0 .4zm-59 2.5c-.3 1.1-.9 2-1.7 2.8-.3.3.2.8.5.5.9-.9 1.5-1.9 1.9-3.1.1-.5-.5-.6-.7-.2zm-4.8.3c-.1.3-.1.6-.2.9v.2c0 .1.1.1.2.1.2 0 .4 0 .4-.2.1-.3.1-.6.2-.9v-.2c0-.1-.1-.1-.2-.1-.1-.1-.3 0-.4.2zm-4.3 1c-.6.6-1.2 1.3-1.8 1.9-.1.1-.1.3 0 .5.1.1.3.1.5 0 .6-.6 1.2-1.3 1.8-1.9.1-.1.1-.3 0-.5s-.3-.2-.5 0zM97 149.4c-2.3 1-4.7 1.7-7.1 2.2-.4.1-.2.7.2.6 2.5-.5 4.9-1.2 7.3-2.3.3-.1 0-.7-.4-.5zm36.9-14.9c-1.8.1-3.7 0-5.4-.4-.4-.1-.6.5-.2.6 1.8.4 3.7.5 5.6.4.4 0 .4-.6 0-.6zM111 208.7c.4 1.5.7 3.1.9 4.7 0 .4.7.4.6 0-.2-1.7-.5-3.3-.9-4.9-.1-.4-.7-.2-.6.2zm-.5 3.8c.1.9.3 1.7.4 2.6 0 .2.2.3.4.2.2-.1.3-.2.2-.4-.1-.9-.3-1.7-.4-2.6 0-.2-.2-.3-.4-.2-.2.1-.2.2-.2.4zm-65.2 11.1c-1.1-.7-2.3-1.3-3.4-2-.4-.2-.7.3-.3.6 1.1.7 2.3 1.3 3.4 2 .4.2.7-.4.3-.6zm-.9 1.8-2.1-1.2c-.1-.1-.4 0-.4.1-.1.2 0 .4.1.4l2.1 1.2c.1.1.4 0 .4-.1s0-.3-.1-.4zm-1.2 1.9c-.5-.3-.9-.7-1.4-1-.1-.1-.4 0-.4.1-.1.2 0 .3.1.4.5.3.9.7 1.4 1 .1.1.4 0 .4-.1.1-.2 0-.3-.1-.4zm61.1-72.6c-.2.7-.2 1.5-.1 2.2 0 .2.2.3.4.2.2-.1.3-.2.2-.4 0-.2-.1-.3-.1-.4v-.5c0-.3.1-.6.2-.9 0-.2-.1-.4-.2-.4s-.3.1-.4.2zm-2.7 2.3c-.2.4-.4.8-.6 1.1-.1.1 0 .4.1.4.1.1.4 0 .4-.1.2-.4.4-.8.6-1.1.1-.2 0-.4-.1-.4-.1-.1-.3-.1-.4.1zm26.9-5.6c-2.2 2.2-4.3 4.5-6.2 6.9-.3.3.2.8.5.5 1.9-2.4 4-4.7 6.2-6.9.3-.3-.2-.8-.5-.5zm-2.9.2c-1 1.6-2.1 3.2-3.4 4.6-.3.3.2.8.5.5 1.3-1.4 2.5-3 3.5-4.7.1-.5-.4-.8-.6-.4z"/>
    <path class="st2" d="M120.5 115c-.7.1-1.3.4-1.9.9-.1.1-.1.3 0 .5.1.1.3.1.5 0l.1-.1c.1 0 .1-.1.2-.1.1-.1.3-.2.4-.2h.2c.1 0 .1 0 .2-.1.2 0 .3-.1.5-.1s.3-.2.2-.4c-.1-.4-.2-.5-.4-.4z"/>
    <path class="st10" d="m75.8 76.4-.6 2.1c0 .2.1.4.2.4.2 0 .3-.1.4-.2l.6-2.1c0-.2-.1-.4-.2-.4-.2 0-.4.1-.4.2zm-1.5-.9c-.1.8-.4 1.6-.9 2.3-.1.1 0 .4.1.4.2.1.4 0 .4-.1.5-.8.8-1.6.9-2.5 0-.2 0-.3-.2-.4-.1 0-.3.1-.3.3zm15-21.7c-.8-.8-.6-2.1-1-3.1-.5-1.3-1.8-2.1-2.6-3.2l-1.2-1.8c-1.5-2.2-4.1-3.5-6.8-3.5-.1.8.4 1.4 1 2 2.9 3.1 5.8 6.1 8.6 9.2l2 .4z"/>
    <path class="st10" d="M78.4 74.2c.8.8 1.4 1.8 1.8 2.8.2.5.4 1 .3 1.5-.1.5-.5 1-1.1 1-1 0-1.5-1.5-2.5-1.5-.3 0-.5.2-.7.2-.3 0-.6-.2-.8-.4-.8-.6-1.6-1.3-2.3-2-.6-.6-1.2-1.1-1.7-1.8-.9-1.5-1-3.3-1-5l8 5.2z"/>
    <path class="st1" d="m79.4 43.1 10.5 10.8c2.8 2.8 5.7 6.5 4.7 10.3-.7 2.4-3.8 5-5.8 6.5-.1.4 2.7 4.4 5 7.5 1.6 2.2 1.2 5.2-1 6.9-1.1.8-2.3 1.7-3.3 2.4-1.6.9-3.5.5-4.5-1-2.6-3.9-5.2-7.7-8-11.6-1.7 1.4-2.9 1.5-5.1 1.3-2.2-.2-4.3-1.8-4.6-3.9-.3-2.1 1.5-4.5 3.7-4.3-3.6-4.1-6.6-8.7-8.9-13.6-.2-.4-.4-.8-.3-1.2.1-.5.6-.9 1.1-1.1 4.7-2.6 11-7 15.7-9.7l.8.7z"/>
    <path style="opacity:.54;fill:#ae6d40" d="M88.7 70.7 82 74.8l8.5-1z"/>
    <path d="M82.6 55.4c.4.6 1.2.7 1.6.4.5-.4.5-1.1.1-1.7-.4-.6-1.2-.7-1.6-.4-.5.4-.5 1.1-.1 1.7zm-9 6.7c.4.6 1.1.7 1.6.4.5-.4.5-1.1.1-1.7-.4-.6-1.2-.7-1.6-.4-.5.4-.5 1.1-.1 1.7z"/>
    <path class="st2" d="M77.9 55.5c1.6.6 3 1.4 4.4 2.5.6.4 1.2.9 1.6 1.6.3.5.2 1.3-.4 1.7-.4.2 0 .8.3.6.7-.4.9-1.2.8-1.9-.2-.9-.8-1.5-1.5-2-1.5-1.2-3.2-2.2-5-2.9-.4-.4-.6.3-.2.4zm-3.1 16.1c-1.5-.4-3-.6-4.5-.5-.4 0-.4.7 0 .6 1.5-.1 2.9 0 4.3.5.4.2.5-.4.2-.6z"/>
    <path class="st2" d="M72.8 71.8c-.2.5-.3 1.1-.1 1.7 0 .2.2.3.4.2.2-.1.3-.2.2-.4v-.7s0-.1 0 0v-.5s0-.1 0 0c0-.1.1-.2 0-.2 0-.1-.1-.2-.1-.2-.1 0-.4 0-.4.1zm8.5-7.9c1.2.3 2.5.2 3.6-.4.4-.2 0-.8-.3-.6-1 .5-2.1.6-3.1.4-.4-.1-.6.5-.2.6z"/>
    <path class="st10" d="M69.8 54.5c-.4 1.3-.8 2.6-1.1 3.9 0 .2 0 .4.1.5.4.5 1.1 0 1.4-.5.9-1.5 1.5-3.1 1.9-4.7-.8-.5-2-.1-2.3.8zm8.5-7.2c1.4-.1 2.7 0 4.1.1.2 0 .4.1.5.2.4.5-.3 1-.9 1.2-1.7.4-3.4.6-5.1.5-.4-1 .3-2 1.4-2z"/>
    <path class="st10" d="M71.8 67.8c-2-3.6-4.2-7-6.7-10.3 1-.1 1.7-1.2 1.8-2.2.1-1-.3-2-.7-3 1.6 0 3.1-1.5 3.1-3.1 1.4.6 3.1.1 3.9-1.2.3-.5.5-1.1 1-1.5.9-1 2.9-1.5 2.5-2.8.5.2 1.1.2 1.6.1.9 1.1 2.2 1.8 3.7 1.9-.5-2.9-2.7-5.4-5.5-6.3-.4-2-1.9-3.9-3.9-4.2-2-.3-4.1 2-3.2 3.8-1.3-1.4-4.2-.7-4.7 1.2-.6-.7-1.9-.5-2.6.2-.7.7-.9 1.7-1.1 2.7-1.8-.2-3.1 2.2-2.1 3.6-.9.7-1.8 1.5-2.3 2.5-.5 1-.4 2.5.6 3.1.4-.2-.4-.7-.8-.4-1.5 1.1-1.1 3.9.7 4.5-1.1 2 1 4.9 3.3 4.5.2 1.7 1.9 3.1 3.6 3.1 1.3 2 2.8 3.8 4.5 5.4.9-.9 2.2-1.2 3.3-1.6z"/>
    <path class="st13" d="M72.4 39.5c.9.3 1.7 1 2 2 .3.9.1 1.9-.6 2.6-.6.7-1.6.9-2.5.6-.4-.1-.8-.4-1-.7-.2-.3-.6-.9-.2-1.2.2-.2.7-.2 1-.1.4.2.6.8.6 1.2.1.9 0 2-.6 2.7-.5.7-1.4.9-2.2.6-.3-.1-.6-.4-.7-.7 0-.2-.1-.4.1-.4s.4.1.5.2c.7.7.5 1.9 0 2.6-.7 1-1.9 1.5-3.1 1.5-.4 0-.4.6 0 .6 1.4.1 2.8-.6 3.6-1.7.7-.9.9-2.3.2-3.3-.3-.4-1-.7-1.5-.5-.6.3-.5 1-.2 1.5.5.9 1.9 1.2 2.8.8 1.2-.5 1.7-1.8 1.8-3 .1-1.1-.2-2.8-1.6-2.9-.5 0-1.1.2-1.3.7-.2.6.1 1.3.5 1.8.7.9 2.1 1.3 3.2.9 1.3-.5 2.2-1.9 2.1-3.3-.1-1.5-1.2-2.7-2.6-3.2-.6 0-.7.6-.3.7zm-9.3 9c.5 0 .7-.6.4-.9-.3-.3-.9-.3-1.3-.3-.9.2-1.7.9-2 1.7-.4 1-.2 2.1.2 3.1.4.9 1.1 2 2.1 2.2.9.1 1.7-.6 1.4-1.6-.3-.9-1.3-1.3-2.2-.9-1.9.7-2.6 3.3-2.1 5.1.3 1 1 2 2.1 2.3.9.2 2.1-.3 2.3-1.3.1-.4-.6-.6-.6-.2-.1.6-.7.9-1.3.9-.7-.1-1.2-.6-1.5-1.2-.7-1.2-.6-2.8.2-4 .4-.6 1-1.2 1.7-1.1.5 0 1 .6.8 1.1-.1.3-.5.3-.8.2-.3-.1-.6-.4-.8-.7-.5-.6-.9-1.4-1-2.2-.1-.8 0-1.6.6-2.2.2-.3.5-.5.9-.6.2-.1.3-.1.5-.1h.3c.1 0 0-.1.1-.1-.5.1-.5.8 0 .8zm3.6-7.1c-.7-.2-1.5.1-1.9.7-.4.6-.3 1.5.2 2l.5-.5c-1-.8-2.6-.8-3.3.3-.6.9-.2 2.3.8 2.7.4.1.6-.5.2-.6-.7-.2-.8-1.2-.4-1.7.5-.7 1.7-.6 2.3-.1.3.3.7-.1.5-.5-.3-.3-.3-.8-.1-1.2.2-.4.7-.5 1.2-.4.2 0 .4-.6 0-.7zm-.3 21.8.4.4.2.2.1.1c.2.3.4.6.5.9.1.2.3.2.4.1.2-.1.2-.3.1-.4-.3-.7-.8-1.3-1.3-1.8-.1-.1-.3-.1-.5 0 0 .2 0 .4.1.5zm-.2 1.3c.3.4.6.8.8 1.2.1.1.1.1.2.1h.2c.1-.1.2-.3.1-.4-.3-.4-.6-.8-.8-1.2-.1-.1-.1-.1-.2-.1h-.2c-.1.1-.2.3-.1.4zM64 60.4c.1.2.2.4.2.6 0 0 0 .1.1.1l.1.1c.1 0 .2.1.2 0 .1 0 .2-.1.2-.1v-.3c-.1-.2-.2-.4-.2-.6 0 0 0-.1-.1-.1l-.1-.1c-.1 0-.2-.1-.2 0-.1 0-.2.1-.2.1v.3z"/>
    <path class="st10" d="M57.7 56.1c-.5.8-1.7.9-2.4.4-.1-.1-.3-.1-.5 0-.1.1-.1.3 0 .5 1 .9 2.7.6 3.4-.5.3-.4-.3-.8-.5-.4zm-.2 1.9c-.5.7-.9 1.4-1.4 2.1-.1.1 0 .4.1.4.2.1.3 0 .4-.1.5-.7.9-1.4 1.4-2.1.1-.1 0-.4-.1-.4-.2-.1-.3 0-.4.1zm21.1 5.5h.3s.1 0 .1-.1l.1-.1v-.2c0-.1 0-.1-.1-.1l-.1-.1h-.5s-.1 0-.1.1l-.1.1v.2c0 .1 0 .1.1.1l.1.1h.2zm-2.6 1v.3s0 .1.1.1l.1.1h.2c.1 0 .1 0 .1-.1l.1-.1v-.5s0-.1-.1-.1l-.1-.1h-.2c-.1 0-.1 0-.1.1l-.1.1v.2zm2.3 1-.2.2-.1.1v.2s0 .1.1.1l.1.1h.3c.1 0 .1 0 .1-.1l.2-.2.1-.1v-.2s0-.1-.1-.1l-.1-.1h-.3c0 .1 0 .1-.1.1zm11-9.4H89s-.1 0-.1.1l-.1.1v.2c0 .1 0 .1.1.1l.1.1h.5s.1 0 .1-.1l.1-.1v-.2c0-.1 0-.1-.1-.1l-.1-.1h-.2zm-.5 3.9h.3s.1 0 .1-.1l.1-.1v-.2c0-.1 0-.1-.1-.1l-.1-.1h-.5s-.1 0-.1.1l-.1.1v.2c0 .1 0 .1.1.1l.1.1c.1-.1.2 0 .2 0z"/>
    <path class="st8" d="m122.132 122.848-21.555 10.323-15.548-32.469 21.555-10.322z"/>
    <path style="fill:#f4f7da" d="m106.6 90.5 1.9-3.5-23.7 10.6.2 3.2z"/>
    <path class="st13" d="m122.1 122.9 1.9-3.5L108.5 87l-1.9 3.5z"/>
    <path class="st8" d="M106.7 89.2c-5.5 2.6-11.1 5.3-16.6 7.9-1.6.7-3.1 1.5-4.7 2.2-.2.1 0 .4.2.3 5.5-2.6 11.1-5.3 16.6-7.9 1.6-.7 3.1-1.5 4.7-2.2.1-.1 0-.4-.2-.3zM101 91c-4.2 2-8.4 4-12.5 6-1.2.6-2.4 1.1-3.5 1.7-.2.1 0 .4.2.3 4.2-2 8.4-4 12.5-6 1.2-.6 2.4-1.1 3.5-1.7.1-.2-.1-.4-.2-.3z"/>
    <path class="st13" d="M89.2 99.3c.1 1.8-.9 3.5-2.5 4.2-.4.2 0 .7.3.6 1.8-.8 3-2.8 2.8-4.8 0-.4-.6-.4-.6 0zm15.4 31.7c-1.3-1.5-3.5-2.2-5.4-1.7-.4.1-.2.7.2.6 1.7-.4 3.6.2 4.7 1.5.3.4.7-.1.5-.4zm2.1-31.9c.6 1.6 1.5 2.7 2.1 4.3.1.1-15.1 7.3-15.1 7.2l-2.1-4.3 15.1-7.2z"/>
    <path class="st1" d="M67.2 124.2c1 12.1.3 17.1 6.3 22.2 3.1 2.7 21.9-9.7 27-13.4 4.8-3.5 9.5-7 14.3-10.5 2.1-1.6 4.3-3.1 6.1-5 .8-.8.2-2.1-.9-2 1.4-.8.3-3.3-1.2-2.7.9-.4 1.4-1.6 1.1-2.5-.4-.9-1.6-1.3-2.5-.8 1.3 0 1.4-2.3.2-2.7-1.2-.5-2.6.2-3.8.9-2.4 1.4-2.2 1.6-4.7 3 0 0 2.9-5.6 2.3-6.2-1.8-1.7-5.3 7.7-6.8 11.8-.8 2.2-18.3 11.5-22.2 14.3-.1 0 .3-7.3.3-7.3l-15.5.9z"/>
    <path class="st2" d="M82.1 130.1c-1.4 2.4-2.6 4.9-3.7 7.5-.1.2.1.4.2.4.2.1.3-.1.4-.2 1.1-2.5 2.3-5 3.6-7.3.2-.5-.3-.8-.5-.4zm35.7-21.3c-.8.7-1.6 1.5-2.4 2.3-.1.1-.1.3 0 .5.1.1.3.1.5 0 .8-.8 1.5-1.5 2.4-2.3.1-.1.1-.3 0-.5-.2-.1-.4-.1-.5 0zm2 3.7c-.8.4-1.5 1-2.1 1.6-.1.1-.1.3 0 .5.1.1.3.1.5 0 .1-.2.3-.3.5-.4.2-.1.3-.3.5-.4.3-.3.7-.5 1.1-.7.2-.1.2-.3.1-.4-.3-.2-.5-.3-.6-.2z"/>
    <path class="st2" d="M115.2 112.1c1.5 1.7 2.6 3.8 3.2 6 .1.4.7.2.6-.2-.6-2.3-1.8-4.4-3.3-6.2-.3-.3-.8.1-.5.4z"/>
</svg>
