<svg xmlns="http://www.w3.org/2000/svg" xmlns:xlink="http://www.w3.org/1999/xlink" width="118" height="209" style="overflow:visible;enable-background:new 0 0 118 209" xml:space="preserve">
    <style>
        .st0{fill:#593514}.st1{fill:#fed5b7}.st4{fill:#f59f18}.st6{fill:#bc7415}.st7{fill:#aa6139}.st9{fill:#fff}.st10{fill:#32637a}.st11{fill:#635437}
    </style>
    <path class="st0" d="M53.8 86.7c.3 2.8 2.8 4.8 5.4 5.8 2.6 1 5.4 1.3 7.9 2.6 2.4 1.2 4.3 3.2 6.8 4.1 3.5 1.3 7.7.2 10.6-2.3 2.8-2.6 4.6-6.3 5-10.1-3.2 1.5-7.4 1.6-10.6.2-2.5-1.1-4.5-2.9-6.8-4.2-4.2-2.4-9.4-3.1-14.2-1.9-.8.1-1.6.4-1.9 1.1l-2.2 4.7z"/>
    <path class="st1" d="M57.2 83.3c.2 1.7.5 3.4.7 5.1 0 .3.1.7.3.9.2.3.6.5 1 .7 6.7 2.9 14.3 3.5 21.3 1.8-.6-3.9-1.1-7.8-1.7-11.7 0-.2-.1-.4-.2-.6-.2-.2-.4-.2-.7-.2-4.8-.2-9.7-.4-14.5-.6l-6.2 4.6zm23 96c1.2 1.7 2.5 3.4 3.7 5.1.3.5.7 1 1.3 1 .4 0 .7-.2 1-.4 1.7-1.1 3.2-2.4 4.5-3.8.2-.3.5-.6.5-.9 0-.4-.1-.7-.3-1-1.3-2.7-2.7-5.4-4-8l-6.7 8z"/>
    <path d="M83.8 106.8c-6.7 7.6-12 16.5-15.3 26.1-.4 1.1-.7 2.2-.7 3.3 0 2.6 1.7 4.9 3.4 6.9 7.4 9.4 12.5 16.7 17.4 27.6-3.1 2.9-5.4 8.3-9.1 10.3-7.3-12.6-15.8-24.4-25.4-35.3-1.3-1.5-2.6-3-3.3-4.8-.7-2.1-.5-4.4-.2-6.6 1.4-11.4 4.1-22.6 8-33.4 7.8.5 15.6 1.8 23.1 3.9l2.1 2z" style="fill:#9b8a65"/>
    <path class="st1" d="M51.1 147.2c1.2 1.7 2.4 3.4 3.6 5.2.2.3.5.7.8.9.4.2.8.3 1.2.3 2.9.1 6.2-1 7.2-3.7-2.2-2.8-4-5.9-5.4-9.2-.1-.3-.3-.6-.6-.7-.2 0-.4.1-.5.2-2.4 1.7-4.6 3.6-6.5 5.7l.2 1.3z"/>
    <path d="M58 88.5c-6 1.5-26.7 8.9-29 12.3-2.2 3.2-1.9 7.6-.9 11.3 2.1 7.8 6.9 14.6 11.6 21.1 3.3 4.5 6.8 9 10.3 13.5.4.5.8 1 1.4 1.2.5.1 1 0 1.5-.1 3.1-.8 6.1-2.1 8.9-3.8-5.1-9.6-9.3-19.7-12.6-30.1 5.7-.8 11.5-1.1 17.3-.9 4.6.2 9.3.6 13.6-1 4.2-1.6 7.6-5.4 8.8-9.7 1.2-4.4-2.6-10.7-5.4-14.3l-25.5.5z" style="fill:#c2b38c"/>
    <path class="st4" d="M55.4 5.3C58 .3 65-1.5 69.6 1.4c1.6 1 2.9 2.5 4.5 3.4 3.8 2.1 9.2 1.3 11.8 4.8 3.9 5.2-2.9 13.7.8 19.1.9 1.4 2.4 2.3 3.2 3.8 1.8 3.6-1.7 8.4.3 12 1.2 2.1 3.8 2.8 5.5 4.5 2.1 2 2.6 5.4 1.9 8.2-.6 2.9-2.2 5.4-3.7 8 .9-4.6-2.8-9.6-7.4-10-6.3-.6-12.4 6-18.1 3.3-3.2-1.5-5-5.6-8.4-6.5-3.3-.8-6.7 1.6-10 .6-1.9-.6-3.3-2.2-5.2-2.6-2.4-.4-4.6 1.3-6.1 3.3-1.5 1.9-2.7 4.2-4.7 5.6-2 1.4-5.2 1.4-6.4-.8 5-2.6 7.7-9.2 5.9-14.6-.5-1.5-1.3-3.1-1.2-4.7.5-5.2 9.8-5.6 10.3-10.9.2-2.9-2.7-5.8-1.7-8.5 1.2-3 6.1-2.6 7.7-5.4.7-1.3.6-2.8 1-4.3.6-2.6 3.1-4.6 5.7-4.7l.1.3z"/>
    <path class="st1" d="M41.1 48.7c-3.9 3.4-14 15.1-14 15.1S14.8 52.9 12.7 50.3c2-3.3 1.4-7.9-1.4-10.6-.7.4-.4 1.5 0 2.3.3.8 0 2.1-.8 1.8-.1 0-.2-.1-.3-.2-1.8-1.9-3.6-3.7-5.4-5.6-.2-.2-.5-.1-.5.2-.1 1.7.7 3.5 2 4.7-1.1-1.5-2.4-2.8-3.8-4-.2-.2-.6 0-.5.3.4 1.8 1.2 3.6 2.5 5-.9-1.5-2.1-2.7-3.5-3.7-.2-.1-.5 0-.5.2 0 2.1.9 4.2 2.5 5.5L.9 44.5c-.4-.3-1 0-.8.5 1.1 3.6 3.6 6.7 6.9 8.5.6.3 1.3.6 1.8 1.1.5.5.8 1.1 1.1 1.7 1.6 3 8.4 12.1 10.4 15 .9 1.3 1.9 2.7 3.4 3.3 2.7 1.1 5.6-.7 8-2.4 4.7-3.3 9.3-6.6 14-9.9l-4.6-13.6zm45.6 17.5c2.7 4.9 7 8.9 12.1 11.2.4 1.3 4.4 18 8 24.6.3.6.7 1.2.6 1.9 0 .6-.3 1.2-.5 1.8-.8 2.7 1.1 5.3 2.1 8.9.8.3 1-4.1.5-4.9l2 3.7c.2 1 1.6 1 1.8 0-.1.5.3 1.1.8 1.1s1-.5.9-1.1l.1.1c.5.4 1.2.3 1.5-.3l.1-.3c-.2.2.2.6.5.5.3-.1.4-.4.5-.7.6-2.7-.4-5.6-2.4-7.4-.9-.8-2.1-1.4-2.7-2.5-.5-.9-.6-2-.6-3.1-.2-5.5-2-13.9-2.2-19.4-.1-1.9-.1-3.8-.8-5.6-.5-1.5-1.5-2.8-2.4-4-4.2-5.7-9-11-14.2-15.8l-5.7 11.3z"/>
    <path d="M59.6 38.9c-3.3-1-6.9-.4-9.9 1.1-3.1 1.5-5.7 3.7-8.3 5.9-2.8 2.4-5.6 4.7-8.4 7.1 2.5 5.8 5.1 11.6 7.6 17.4 1.8-1.8 7.2-3.3 7.2-3.3s5 15.1 6.1 19.7c5.1-2 25.6 19.4 35.7.3-4.9-6.5-3.8-8.5-3.5-16.6 1.2 1 2.5 2 3.7 3 .2.1.4.3.6.3.4 0 .7-.3 1-.6 3.4-4.2 6.7-8.5 10.1-12.7-6.3-1.9-8.2-10.1-13.5-13.9-2.5-1.8-5.6-2.6-8.4-4-2.8-1.4-5.4-3.5-8.5-3.7-2.6-.2-5.6 1-7.7-.5l-3.8.5z" style="fill:#8e571f"/>
    <path class="st1" d="m54.4 12-1.5 12.3c-.3 2.6-1 6.3 0 8.7 1 2.4 6.5 2.6 6.5 2.6s-.1 4.6-.1 6.9c0 .4 0 .9.2 1.2.2.4.7.6 1.1.8 3.2 1.3 7.2.5 9.7-2-.7-4-.7-8-.2-12 1.5 1.4 4.4.6 5-1.4s-1.5-4.2-3.5-3.8c.2-4.2.5-8.4.7-12.6L54.4 12z"/>
    <path class="st6" d="M55.5 6.1c-1.4 1-1.8 3.1-.9 4.5.2.3.6 0 .4-.3-.8-1.2-.5-3 .7-3.8.3-.1.1-.6-.2-.4zm25.3 8.2c-1.5 1.5-2.3 3.6-2.2 5.8.1 1.1.3 2.1.8 3 .5.9 1.2 1.7 2 2.4s1.6 1.4 2.3 2.2c.6.7 1.2 1.6 1.3 2.5.1 1.1-.3 2.2-.8 3.2-.6 1-1.3 2-1.7 3.1-.5 1.2-.6 2.6-.1 3.8.4 1 1.3 1.9 2.4 2.2.3.1.5.1.8.1.3 0 .3-.5 0-.5-1.1 0-2.1-.7-2.6-1.6-.6-1.1-.5-2.5-.1-3.7.8-2.1 2.7-3.8 2.7-6.1 0-2.1-1.6-3.6-3-4.8-.7-.7-1.5-1.4-2.1-2.2-.6-.8-1-1.8-1.2-2.8-.3-2 .1-4.2 1.4-5.7.2-.2.3-.4.5-.6.2-.2-.2-.6-.4-.3zM79 29.9c1.3.9.8 2.8.3 4-.4.9-.8 1.7-1 2.6-.2.8 0 1.7.3 2.4.4.8 1.1 1.5 2 1.9.3.1.5-.3.3-.4-.7-.4-1.4-.9-1.8-1.6-.4-.8-.5-1.6-.2-2.4.2-.9.7-1.8 1.1-2.6.3-.7.4-1.4.4-2.1 0-.8-.4-1.6-1-2-.4-.5-.7 0-.4.2z"/>
    <path class="st6" d="M81 30c.8.7 1.1 2 .7 3-.1.3.3.5.4.3.6-1.2.3-2.7-.7-3.6-.3-.3-.7.1-.4.3zm-7.3 2.8c-.4 1.6.4 3.5 1.9 4.2.3.2.5-.3.3-.4-1.3-.7-2-2.2-1.7-3.7 0-.3-.5-.4-.5-.1zM69.5 7c1.5.3 2.9 1.1 3.8 2.3 1 1.3 1.4 2.9 1.1 4.5-.1.9-.5 1.8-1 2.5-.2.3.3.5.4.3 1-1.5 1.4-3.3 1-5a6.2 6.2 0 0 0-2.7-4c-.8-.5-1.6-.9-2.5-1-.3-.2-.4.3-.1.4zm7 1.8c1.1-.1 1.9.9 2.1 1.9.3 1.3-.4 2.6-1 3.7-.2.3.3.5.4.3.7-1.3 1.4-2.8 1-4.2-.3-1.1-1.3-2.2-2.6-2.1-.2-.1-.2.4.1.4zm4.9 2.6c1.1.2 2 1.3 1.9 2.4 0 .1.1.3.3.3.1 0 .2-.1.3-.3.1-1.3-.9-2.7-2.2-2.9-.1 0-.3 0-.3.2-.2.1-.1.3 0 .3zM51 13.7c0 1.2-.5 2.3-1.2 3.3-.4.5-.8.9-1.3 1.2-.5.3-1.1.6-1.7.9-1 .7-1.4 1.9-1.2 3 .1 1.3.7 2.4 1.3 3.5.6 1.2 1 2.4.6 3.7-.3 1.2-1.2 2.2-2.1 2.9-1.9 1.6-4.5 2.5-6.1 4.6-1.2 1.5-1.7 4.1-.3 5.7.2.2.4.3.6.5.3.2.5-.3.3-.4-1.7-1.2-1.3-3.8-.3-5.3 1.5-2 4-2.9 5.9-4.5.9-.8 1.8-1.7 2.2-2.8.5-1.2.4-2.5-.1-3.7-.5-1.2-1.2-2.3-1.5-3.5-.3-1.1-.3-2.3.6-3.1.5-.4 1.1-.6 1.6-1 .5-.3 1-.7 1.4-1.1.8-.9 1.4-1.9 1.6-3.1.1-.3.1-.6.1-.9.2-.3-.3-.3-.4.1zm-5.2 22.6c-.8.2-1.3 1-1.3 1.9 0 1 .6 1.9 1.2 2.6.2.2.6-.1.4-.4-.5-.6-1-1.3-1-2.1 0-.6.3-1.3 1-1.5.2-.1 0-.6-.3-.5zm2.4 0c-.2.8.4 1.6 1.2 1.8.2.1.5 0 .7 0 .1 0 .2-.2.2-.3 0-.1-.2-.2-.3-.2h-.1s-.1 0 0 0h-.2c-.1 0 0 0 0 0h-.2s-.1 0 0 0c0 0-.1 0-.1-.1l-.1-.1h-.1l-.1-.1v-.1l-.1-.1v-.5c0 .1 0 0 0 0 0-.1 0-.3-.2-.3-.4-.2-.6-.1-.6 0z"/>
    <path class="st7" d="M71.2 29.3c.7-.7 1.4-1.2 2.2-1.7.3-.2 0-.6-.3-.4-.9.5-1.6 1.1-2.3 1.8-.1.1.2.5.4.3z"/>
    <path class="st7" d="M72.3 28.4c.2.4.4.8.5 1.1.1.1.2.2.3.1.1-.1.1-.2.1-.3-.2-.4-.4-.8-.5-1.1 0-.2-.2-.2-.3-.2-.1.1-.1.3-.1.4z"/>
    <path style="opacity:.57;fill:#b56a41" d="m59.4 35.6 6.9.4-7 1.8z"/>
    <path class="st7" d="M60.3 22.6c-.8 2.2-1.3 4.4-1.6 6.7 0 .2.2.3.4.2.7-.4 1.3-.9 2-1.3.3-.2 0-.6-.3-.4-.7.4-1.3.9-2 1.3.1.1.3.1.4.2.3-2.3.8-4.5 1.6-6.6.1-.3-.4-.4-.5-.1z"/>
    <path d="M57 24.4c0 .7-.4 1.2-.8 1.2s-.7-.6-.7-1.3c0-.7.4-1.2.8-1.2s.7.6.7 1.3z"/>
    <ellipse transform="rotate(-81.923 65.412 25.118)" cx="65.4" cy="25.1" rx="1.2" ry=".8"/>
    <path class="st6" d="M62.7 19.7c-.4.3-.2 1 .2 1.2.4.3.9.3 1.4.4.9.1 1.8.6 2.6 1.2-.2-1.8-2-3.2-3.8-3l-.4.2zm-3.6-1.5c.4.3.2 1-.2 1.2-.4.3-.9.3-1.4.4-.9.2-1.8.6-2.5 1.2.2-1.8 2-3.2 3.8-3l.3.2z"/>
    <path class="st9" d="M59.8 30.2c1-.1 1.9-.5 2.7-1.1-.2.9-.7 1.7-1.3 2.5-.2.2-.5.4-.7.3-.2-.1-.7-1.7-.7-1.7z"/>
    <path class="st7" d="M59.8 30.4c1-.1 2-.5 2.9-1.1-.1-.1-.2-.2-.4-.3-.1.5-.3.9-.6 1.4-.1.2-.3.4-.4.6-.1.2-.3.4-.5.5l-.1.1h-.1s.1 0 0 0c-.1-.1-.1-.2-.2-.3-.1-.3-.2-.5-.3-.8-.1-.2-.1-.4-.2-.5-.1-.3-.6-.2-.5.1.2.5.3 1 .6 1.5.1.1.1.2.2.3.1.2.4.2.6.1.3-.1.5-.3.7-.5.2-.2.3-.5.5-.7.3-.6.6-1.2.8-1.8.1-.2-.2-.4-.4-.3-.8.5-1.7.9-2.6 1-.1 0-.3.1-.3.3 0 .3.2.5.3.4z"/>
    <path class="st10" d="M62.4 141.7c-1.9 1-2.5 3.7-1.2 5.4.6.9 1.7 1.6 1.4 2.7-.1.3-.3.6-.6.8-1.9 1.6-5.2.8-6.4 2.9-.7 1.2-.2 2.7.4 4 1.5 3.5 3.2 7 3.2 10.8 0 1.7-.3 3.3-.2 4.9.2 1.6 1 3.4 2.6 3.9 2 .6 4-.9 5.1-2.6 2-2.9 2.6-6.6 3.1-10.1.8-6.2 1.4-12.5 1.7-18.7.1-1.7-1.1-3.1-2.8-3.3l-6.3-.7z"/>
    <path class="st9" d="M69.2 143.7c-.4 4.9-.8 9.7-1.3 14.6-.2 2.3-.6 4.7-1 7-.4 2.2-.9 4.4-1.7 6.5-.7 1.8-1.7 3.8-3.6 4.5-.3.1-.2.6.1.5 1.7-.7 2.9-2.2 3.6-3.9.4-.9.7-1.9 1-2.8.3-1.2.6-2.3.9-3.5 1-4.7 1.4-9.5 1.8-14.3.3-2.8.5-5.7.8-8.5 0-.4-.5-.4-.6-.1z"/>
    <path class="st9" d="M60.2 172.8c1.4-.7 3-.9 4.5-.7.3 0 .5-.4.1-.5-1.7-.3-3.4 0-4.9.7-.2.2.1.6.3.5zm5.5-30.3c.3 1.8 1.6 3.3 3.3 4 .1.1.3-.1.3-.2s-.1-.3-.2-.3c-1.5-.6-2.6-2.1-2.9-3.7-.1-.2-.6-.1-.5.2zm-6.1 18.6c.7-.8 1.7-1.3 2.8-1.2.3 0 .3-.5 0-.5-1.2-.1-2.4.4-3.2 1.3-.2.3.2.6.4.4zm.4 1.6c.7-.4 1.5-.7 2.2-1.1.1-.1.2-.2.1-.3-.1-.1-.2-.2-.3-.1-.7.4-1.5.7-2.2 1.1-.1.1-.2.2-.1.3.1.1.2.1.3.1z"/>
    <path class="st9" d="M58.1 152.9c1.2 2.1 2.2 4.5 2.7 6.9.6 2.4.9 4.9.8 7.4 0 1.4-.2 2.8-.4 4.2-.1.3.4.5.5.1.5-2.5.6-5 .4-7.6-.2-2.5-.8-5-1.7-7.3-.5-1.3-1.1-2.6-1.8-3.9-.3-.4-.7-.1-.5.2zm4.2-6.2c1.6.4 2.4 2.7 1.3 4-.2.2.2.6.4.4 1.3-1.6.4-4.3-1.6-4.8-.3-.1-.4.3-.1.4z"/>
    <path class="st10" d="M90.3 173.6c-2 .7-3 3.3-2 5.2.5.9 1.5 1.9 1 2.9-.1.3-.4.6-.7.7-2.1 1.3-5.3 0-6.8 1.9-.9 1.1-.6 2.7-.2 4 .9 3.7 2.1 7.4 1.6 11.2-.3 1.6-.8 3.2-.9 4.9-.1 1.6.5 3.5 2 4.2 1.8.9 4.1-.2 5.5-1.8 2.4-2.6 3.6-6.1 4.6-9.5 1.8-6 3.3-12.1 4.5-18.3.3-1.7-.7-3.3-2.3-3.7l-6.3-1.7z"/>
    <path class="st9" d="M96.8 176.6c-1.2 4.7-2.3 9.5-3.5 14.2-.6 2.2-1.2 4.5-2 6.6-.7 2.1-1.6 4.2-2.7 6.2-1 1.8-2.3 3.6-4.4 4.1-.3.1-.2.6.1.5 1.9-.4 3.2-1.9 4.2-3.4.6-.9 1-1.8 1.5-2.8.5-1.1.9-2.1 1.3-3.2 1.7-4.5 2.8-9.1 3.9-13.7.7-2.8 1.4-5.5 2-8.3.2-.4-.3-.5-.4-.2z"/>
    <path class="st9" d="M83.5 204c1.5-.5 3.1-.5 4.6 0 .3.1.4-.4.1-.5-1.6-.5-3.3-.5-4.9 0-.3.1-.1.6.2.5zm9.9-29.1c0 1.8 1 3.5 2.6 4.5.3.2.5-.3.3-.4-1.4-.9-2.3-2.4-2.4-4.1 0-.3-.5-.3-.5 0zm-8.8 17.4c.8-.7 1.9-.9 2.9-.7.3.1.5-.4.1-.5-1.2-.2-2.4.1-3.4.9-.2.2.2.5.4.3zm.2 1.7c.8-.3 1.6-.5 2.3-.8.3-.1.2-.6-.1-.5-.8.3-1.6.5-2.3.8-.3.1-.2.6.1.5z"/>
    <path class="st9" d="M84.4 184c1.8 4.6 2.3 9.8 1.4 14.7-.3 1.4-.6 2.7-1.1 4-.1.3.4.4.5.1.8-2.4 1.3-4.9 1.5-7.4.2-2.5 0-5-.6-7.5-.3-1.4-.7-2.8-1.2-4.1-.2-.3-.7-.1-.5.2zm5-5.5c1.6.7 2 3 .7 4.2-.2.2.1.6.4.4 1.5-1.3 1-4.2-.8-5-.3-.1-.6.3-.3.4z"/>
    <path class="st11" d="M49.2 145c2.5-1.3 5.1-2.4 7.7-3.4.7-.3 1.5-.6 2.3-.9.3-.1.2-.6-.1-.5-2.7 1-5.3 2.1-7.9 3.3-.7.3-1.5.7-2.2 1.1-.3.2 0 .6.2.4zm22.1-47.5c-4.8.4-9.7 1.2-14.4 2.2-2.3.5-4.6 1-6.9 1.7-1.8.5-3.6 1.1-5.1 2.3-.7.6-1.4 1.2-1.8 2-.5.9-.8 1.9-.9 2.9-.2 2.1.3 4.3.9 6.3 1.2 4.4 2.7 8.7 4.4 12.9 1.8 4.2 3.8 8.3 6.1 12.2.3.5.6.9.9 1.4.2.3.6 0 .4-.3-2.3-3.8-4.4-7.8-6.2-11.9-1.8-4.1-3.4-8.3-4.6-12.6-.6-2-1.2-4.1-1.4-6.3-.2-2 .2-4 1.6-5.5 1.2-1.3 3-2.1 4.7-2.6 2.1-.7 4.3-1.2 6.5-1.7 4.7-1.1 9.4-1.8 14.1-2.3.6-.1 1.2-.1 1.8-.2.2 0 .2-.5-.1-.5z"/>
    <path class="st11" d="M43.8 109.9c1.7 1.1 3.4 2.3 5 3.4.3.2.5-.3.3-.4-1.7-1.1-3.4-2.3-5-3.4-.3-.2-.5.2-.3.4z"/>
    <path class="st11" d="M45.8 109.3c1.2 1.3 2.3 2.6 3.5 4 .2.2.6-.1.4-.4-1.2-1.3-2.3-2.6-3.5-4-.3-.2-.6.2-.4.4zm42.2-10c-1.3-.5-2.8-.7-4.2-.6-.1 0-.2.1-.2.2-.4 1.7-.8 3.4-1.3 5.1-.2.7-.4 1.5-.5 2.3-.1.6-.2 1.2-.1 1.7.1.6.4 1.2 1 1.5.3.2.5-.3.3-.4-.9-.5-.8-1.9-.6-2.8.1-.7.3-1.4.5-2.1l.6-2.4c.2-.9.4-1.8.7-2.7-.1.1-.2.1-.2.2 1.4-.1 2.7.1 4 .5.2.1.3-.4 0-.5z"/>
    <path class="st11" d="M83.4 101c1.7.3 3.3.6 5 .9.3.1.5-.4.1-.5-1.7-.3-3.3-.6-5-.9-.3 0-.4.5-.1.5zm-17.1 14.3c-.7 3.1-1.4 6.3-2.1 9.5-.7 3.2-1.3 6.3-1.9 9.5-.3 1.8-.7 3.6-1 5.4-.1.3.4.5.5.1.6-3.2 1.1-6.4 1.8-9.5.6-3.2 1.3-6.3 2-9.5.4-1.8.8-3.6 1.2-5.3.1-.4-.4-.5-.5-.2zm4.1 39.8c2.5 4.5 5.7 8.5 8.9 12.5.9 1.1 1.8 2.2 2.8 3.3.2.2.6-.1.4-.4-3.2-3.9-6.5-7.8-9.3-12-.8-1.2-1.6-2.4-2.3-3.7-.2-.2-.7 0-.5.3z"/>
    <path class="st11" d="m77.7 175.7 6.3-6.3c.6-.6 1.2-1.2 1.7-1.8.2-.2-.1-.6-.4-.4-2 2.2-4.1 4.3-6.2 6.4l-1.8 1.8c-.2.2.1.5.4.3zm-14.5-38c1.2-.2 2.4-.5 3.5-.9.3-.1.2-.6-.1-.5-1.1.4-2.3.7-3.5.9-.1 0-.2.2-.2.3 0 .2.1.2.3.2zm1.5 1.3c1-.3 1.9-.8 2.8-1.3.3-.2 0-.6-.3-.4-.8.5-1.7.9-2.7 1.2-.3.1-.1.6.2.5z"/>
    <defs>
        <path id="SVGID_1_" d="M59.6 38.9c-3.3-1-6.9-.4-9.9 1.1-3.1 1.5-5.7 3.7-8.3 5.9-2.8 2.4-5.6 4.7-8.4 7.1 2.5 5.8 5.1 11.6 7.6 17.4 1.8-1.8 7.2-3.3 7.2-3.3s5 15.1 6.1 19.7c5.1-2 25.6 19.4 35.7.3-4.9-6.5-3.8-8.5-3.5-16.6 1.2 1 2.5 2 3.7 3 .2.1.4.3.6.3.4 0 .7-.3 1-.6 3.4-4.2 6.7-8.5 10.1-12.7-6.3-1.9-8.2-10.1-13.5-13.9-2.5-1.8-5.6-2.6-8.4-4-2.8-1.4-5.4-3.5-8.5-3.7-2.6-.2-5.6 1-7.7-.5l-3.8.5z"/>
    </defs>
    <clipPath id="SVGID_2_">
        <use xlink:href="#SVGID_1_" style="overflow:visible"/>
    </clipPath>
    <path d="m65.7 55.8 2.4-.7-.7 2.3.7 2.4-2.4-.7-2.3.7.7-2.4-.7-2.3zm7.2-16.9 2.3-.7-.7 2.4.7 2.3-2.3-.7-2.4.7.7-2.3-.7-2.4zm7.6 33.8 2.3-.7-.6 2.3.6 2.4-2.3-.7-2.3.7.6-2.4-.6-2.3zm5-21.9 2.4-.7-.7 2.3.7 2.4-2.4-.7-2.3.7.7-2.4-.7-2.3zm9.8 15.1 2.3-.7-.7 2.3.7 2.4-2.3-.7-2.4.7.7-2.4-.7-2.3zm-24.7 22 2.3-.7-.6 2.4.6 2.3-2.3-.7-2.3.7.6-2.3-.6-2.4zM57.8 76.2l2.3-.6-.7 2.3.7 2.3-2.3-.6-2.4.6.7-2.3-.7-2.3zM47.2 60l2.4-.7-.7 2.4.7 2.3-2.4-.7-2.3.7.7-2.3-.7-2.4zm2.1-16.1 2.4-.6-.7 2.3.7 2.3-2.4-.6-2.3.6.7-2.3-.7-2.3zM33 53.1l2.4-.7-.7 2.3.7 2.4-2.4-.7-2.3.7.7-2.4-.7-2.3zm32.2-19.8 2.3-.7-.7 2.4.7 2.3-2.3-.7-2.4.7.7-2.3-.7-2.4z" style="clip-path:url(#SVGID_2_);fill:#fff"/>
    <path class="st0" d="M55 84.1c2.2.1 4.3.8 6.3 1.8s3.9 2.4 5.7 3.7c.9.7 1.9 1.4 2.8 2 1 .7 2 1.4 3 1.9 1.1.6 2.3 1 3.5 1.1 1.2.1 2.3-.1 3.4-.5 2.3-.8 4.3-2.2 6.2-3.7.2-.2.5-.4.7-.6.3-.2-.1-.6-.4-.4-1.9 1.5-3.8 3-6.1 3.9-1.1.4-2.2.7-3.4.7-1.2 0-2.4-.3-3.5-.9-1.1-.5-2.1-1.2-3-1.9-.9-.6-1.9-1.3-2.8-2-1.8-1.3-3.6-2.7-5.6-3.7-1.9-1-4-1.8-6.2-2.1-.3 0-.5 0-.8-.1-.1.2-.1.7.2.8zm34.1-10.8c3.4-4.5 6.6-9.2 9.5-14 .1-.2.3-.5.5-.5.2-.1.5.1.7.2.8.5 1.6.9 2.4 1.4C99.5 66 96 71.2 91.8 75.7l-2.7-2.4zM32.4 52.1c2.2 5.6 5.2 10.7 8.2 18.3 1.2-.7 2.3-1.2 3.6-1.7L35 50.4l-2.6 1.7zm15.4 14.3c.2-1.1.3-2.2.3-3.3 0-1.1-.1-2.2-.2-3.4-.2-2.2-.3-4.5-.3-6.8 0-1.3 0-2.6.1-3.8 0-.3-.5-.3-.5 0-.1 2.3-.1 4.5 0 6.8 0 1.1.1 2.2.2 3.3l.3 3.3c0 1.3 0 2.5-.3 3.8-.1.3.4.5.4.1z"/>
    <path class="st0" d="M46 49.4c.5 1 1 2 1.2 3.1.1.3.6.2.5-.1-.3-1.1-.7-2.2-1.3-3.2-.1-.3-.5-.1-.4.2zM86.2 71c-.1-2.7-.7-5.3-1.4-8-.7-2.6-1.4-5.2-1.9-7.9-.3-1.5-.4-3-.4-4.6 0-.3-.5-.3-.5 0 0 2.7.5 5.4 1.1 8 .6 2.6 1.4 5.2 1.9 7.9.3 1.5.5 3 .6 4.6.1.4.6.4.6 0z"/>
    <path class="st0" d="M82.9 52c.1.7-.1 1.5-.5 2.1-.1.1 0 .3.1.3.1.1.3 0 .3-.1.5-.7.7-1.6.5-2.5 0-.1-.2-.2-.3-.2 0 .2-.1.3-.1.4zm8.3 4.4c-.1 2.1-.2 4.2-.4 6.3 0 .3.5.3.5 0 .1-2.1.2-4.2.4-6.3 0-.3-.5-.3-.5 0zm1.7 1c-.4 1.5-.5 3.1-.3 4.7 0 .3.5.3.5 0-.2-1.5-.1-3.1.3-4.6.1-.3-.4-.4-.5-.1zM38 50.5c.8 1.6 1.4 3.3 1.7 5 .1.3.5.2.5-.1-.4-1.8-1-3.5-1.8-5.2-.1-.3-.6 0-.4.3zm2.4-.8c.5 1.4 1.1 2.8 1.6 4.2.1.3.6.2.5-.1-.5-1.4-1.1-2.8-1.6-4.2-.2-.3-.6-.2-.5.1zm14.3 18.4c1.3-.3 2.7-.3 4-.2 1.4.1 2.8.3 4.1.5 2.8.3 5.6.8 8.3 1.3 1.5.3 3.1.6 4.6.9.3.1.4-.4.1-.5-2.8-.6-5.5-1.1-8.3-1.6-2.8-.4-5.6-.8-8.4-1.1-1.5-.2-3.1-.2-4.6.1-.2.2-.1.7.2.6zm3.1 2.2c3.4.2 6.9.4 10.3.6 1 .1 1.9.1 2.9.2.3 0 .3-.5 0-.5-3.4-.2-6.9-.4-10.3-.6-1-.1-1.9-.1-2.9-.2-.3 0-.3.5 0 .5zm.2-28.5c-.3.9-.4 1.8-.3 2.7.1.8.4 1.5 1.1 1.9.8.4 1.7.6 2.5.7.9.1 1.8.2 2.7.2.9 0 1.8 0 2.7-.1.9-.1 1.8-.1 2.7-.3 1.5-.4 2.9-1.3 3.6-2.8.4-.8.5-1.7.3-2.6-.2-.8-.7-1.5-1.4-1.7-.3-.1-.4.4-.1.5.6.2 1 .8 1.1 1.4.2.7.1 1.4-.2 2.1-.5 1.3-1.8 2.2-3.1 2.6-.8.2-1.6.3-2.4.3-.8.1-1.6.1-2.4.1-1.6 0-3.2-.1-4.7-.6-.4-.1-.8-.3-1.1-.6-.3-.3-.4-.7-.4-1-.1-.9 0-1.9.2-2.7-.2-.3-.7-.4-.8-.1z"/>
    <path class="st7" d="M111.7 110.5c.5 1.1.9 2.2 1.4 3.3.1.1.2.2.3.2.1 0 .2-.2.2-.3-.5-1.1-.9-2.2-1.4-3.3-.1-.1-.2-.2-.3-.2-.1 0-.2.2-.2.3zm2.4-.3c.5 1.3.8 2.6 1.1 4 .1.3.5.2.5-.1-.3-1.4-.6-2.7-1.1-4-.2-.4-.7-.2-.5.1zm1.8.2c.5 1 .8 2.1.9 3.2 0 .3.5.3.5 0-.1-1.2-.4-2.4-1-3.5-.1-.3-.5 0-.4.3z"/>
    <path class="st7" d="M111.8 110.6c1.7-.1 3.4-.1 5.1-.2.3 0 .3-.5 0-.5-1.7.1-3.4.1-5.1.2-.3 0-.3.5 0 .5zm-11.4-33.4c1.4-.8 2.9-1.7 4.3-2.5.3-.2 0-.6-.3-.4-1.4.8-2.9 1.7-4.3 2.5-.3.1 0 .6.3.4zm9.2 26.5c.6-.2 1.1-.3 1.7-.5.1 0 .2-.2.2-.3 0-.1-.2-.2-.3-.2-.6.2-1.1.3-1.7.5-.1 0-.2.2-.2.3 0 .2.1.3.3.2zM26.8 64.1c-.5 1.1-.8 2.3-1.1 3.5-.1.3.4.4.5.1.3-1.2.6-2.4 1.1-3.5.1-.1-.1-.3-.2-.3s-.2.1-.3.2zM11 44c-2 1-3 3.6-2.2 5.7.1.3.6.2.5-.1-.8-1.9.1-4.2 1.9-5.1.3-.2.1-.6-.2-.5zm-9.5 1.9c.7.9 1.3 1.8 2.2 2.5.4.3.9.6 1.5.7.6.1 1.2.1 1.7.5.3.2.5-.2.3-.4-.5-.3-1-.4-1.6-.5-.5-.1-1-.3-1.5-.6-.9-.6-1.5-1.5-2.2-2.4-.1-.3-.6-.1-.4.2zm-.6-5c1.4 1.1 2.7 2.5 3.8 3.9.2.3.6 0 .4-.3-1.1-1.5-2.4-2.8-3.9-4-.1-.2-.5.2-.3.4zm1.9-1.1c1.2 1 2.3 2.2 3.3 3.4.2.2.6-.1.4-.4-1-1.2-2.1-2.3-3.3-3.4-.3-.1-.6.2-.4.4z"/>
    <path class="st7" d="M3.6 46.3c1.7-1.3 3.3-2.6 5-4 .3-.2-.1-.6-.4-.4-1.7 1.3-3.3 2.6-5 4-.2.3.1.6.4.4z"/>
    <path class="st4" d="M86.1 12v10.7c.1 1.5.2 3 .9 4.3.6 1.3 1.7 2.2 2.8 3 1.1.8 2.2 1.6 2.8 2.9.6 1.1.6 2.4.6 3.7-.1 2.5-.8 5.3.5 7.6.6 1.1 1.6 1.9 2.6 2.6 1 .7 2.1 1.3 2.9 2.3.2.2.3.5.5.8.1.3.6 0 .4-.3-1.1-2.3-3.9-2.9-5.4-4.8-1.7-2-1.1-4.9-1-7.3.1-1.3.1-2.6-.2-3.8-.4-1.3-1.2-2.3-2.2-3.1-1.1-.9-2.3-1.6-3.1-2.7-.9-1.2-1.3-2.7-1.4-4.1-.1-1.6-.1-3.3-.1-4.9v-6.8c-.1-.5-.6-.5-.6-.1zm-36.7-1.6c-.8 3.2-4.3 4.5-6.9 5.9-.7.4-1.5.8-2.2 1.3-.6.5-1.3 1.1-1.7 1.8-.9 1.6-.1 3.4 0 5 .1 1.5-.2 3-.8 4.3-.3.7-.7 1.3-1.3 1.8-.6.6-1.2 1-1.9 1.4-1.4.8-3 1.3-4.3 2.1-1.2.7-2.3 1.7-3.1 2.9-1.7 2.3-2.4 5.3-2 8.1 0 .3.1.7.2 1 .1.3.6.2.5-.1-.7-2.8-.1-5.7 1.4-8.1.7-1.2 1.7-2.3 2.9-3 1.3-.9 2.8-1.4 4.3-2.1 1.4-.7 2.7-1.6 3.5-2.9.8-1.3 1.2-2.8 1.3-4.2 0-.7 0-1.5-.1-2.2-.1-.9-.4-1.8-.3-2.7.1-.8.7-1.5 1.3-2 .6-.6 1.3-1 2-1.4 2.6-1.5 6-2.6 7.5-5.6.2-.3.3-.7.4-1-.1-.5-.6-.6-.7-.3zm5 1c-.3-.2-.6.2-.6.5-.2 1-.1 2.1.7 2.7.8.6 2.3 0 2.1-1-.5.5-.3 1.4.3 1.8.6.4 1.4.3 2 0 .6-.3 1.1-.9 1.5-1.4-.8 1.1.4 2.7 1.7 2.9 1.3.2 2.6-.6 3.7-1.4-.7.8-.2 2.3.8 2.7 1 .4 2.2 0 3.1-.7-.7.5-1.1 1.4-.9 2.2.2.8 1.1 1.4 1.9 1.5.2 1.1.4 2.2.2 3.3-.2 1.1-.9 2.1-2 2.4 1.5-.1 3.1-.6 3.7-1.9.3-.6.3-1.3.3-1.9l.3-9c0-1 0-2.1-.6-2.8-.5-.6-1.2-.8-1.9-1-2.2-.6-4.5-.5-6.7-.4-2.7.1-5.4.3-8.1.4l-1.5 1.1z"/>
    <path class="st6" d="M58.3 9.9c-.7.2-1.1.8-1.2 1.5 0 .6.3 1.1.7 1.5.5.3 1.1.5 1.6.5.7 0 1.3-.4 1.8-.8.6-.5 1.1-1.2 1.6-1.9.1-.1 0-.2 0-.3-.3-.3-.7-.2-1 .1-.3.3-.6.7-.8 1-.5.7-.8 1.6-.4 2.4.3.8 1.2 1 2 1s1.5-.3 2.2-.7c.7-.5 1.3-1.2 1.6-2 .1-.2-.2-.4-.4-.3-.9.5-1.3 1.6-1.1 2.6.3 1 1.3 1.6 2.4 1.5.6-.1 1.1-.4 1.4-.9.2-.3-.2-.5-.4-.3-.6.8-2 .8-2.6.1-.6-.8-.3-2.1.6-2.5-.1-.1-.2-.2-.4-.3-.4 1.2-1.5 2-2.7 2.3-.6.1-1.3.2-1.8-.2s-.6-1.1-.4-1.7c.1-.4.4-.8.7-1.1.1-.1.6-.8.7-.6v-.3c-.6.9-1.4 2-2.5 2.4-.8.2-2-.1-2.2-1-.2-.6.2-1.2.8-1.4.2-.2.1-.7-.2-.6zm14.2 10.4c-.4.9-.5 2.1.5 2.8.4.2.8.3 1.2.1.2-.1.4-.2.5-.4.1-.1.3-.3.5-.2-.1-.1-.1-.2-.2-.2-.1.9.7 1.8 1.6 1.9.3 0 .3-.5 0-.5-.7-.1-1.1-.7-1.1-1.4 0-.1-.1-.2-.2-.2-.4-.1-.7.1-1 .4-.3.2-.6.4-.9.2-.9-.4-.7-1.6-.4-2.3.1-.3-.4-.5-.5-.2zM61 4c-.4.6-.5 1.5 0 2.2.4.6 1.2.9 2 .8.1 0 .2-.2.2-.3 0-.1-.2-.2-.3-.2-.5.1-1.1-.1-1.4-.6-.3-.5-.3-1.2 0-1.6.1-.1 0-.3-.1-.3-.1-.2-.3-.1-.4 0zm4-1.1c1.3-.5 2.8.4 3.1 1.7.1.3.5.2.5-.1-.3-1.6-2.2-2.6-3.7-2.1-.3.1-.2.6.1.5z"/>
</svg>
