<svg xmlns="http://www.w3.org/2000/svg" xmlns:xlink="http://www.w3.org/1999/xlink" width="163.9" height="239.5" style="overflow:visible;enable-background:new 0 0 163.9 239.5" xml:space="preserve">
    <style>
        .st0{fill:#dc4345}.st1{fill:#84734f}.st2{fill:#845323}.st3{fill:#fed5b7}.st6{fill:#af7758}.st8{fill:#8e2126}
    </style>
    <path class="st0" d="M61 38.6c-.5.7-.8 1.4-1.1 2.2-.9 2.8-.7 5.8-.3 8.8.4 2.9 1 5.8.8 8.8-.2 2.9-1.4 6-3.8 7.6-2.4 1.7-6.2 1.4-7.9-1 1.8 4.5 6.1 8 10.9 8.8 4.8.8 10-1 13.2-4.7 2.5-2.8 3.7-6.5 4.9-10.1L61 38.6z"/>
    <path class="st0" d="M70.5 1.9c1.6-.2 3-.2 3.7.3C80.3-1.6 89-.4 93.7 5c4.4 5 5.6 12.7 11.3 16.1 2.9 1.7 6.4 1.9 9.7 2.6 7.9 1.7 15.4 7.6 16.9 15.5.8 4.4-.1 9.4 2.4 13.1 1.4 2.1 4.6 3.4 6.4 1.6.2 1.3-1 2.5-2.3 3-1.3.5-2.7.6-3.9 1.3-2.5 1.4-3.1 4.7-4.7 7.1-1.6 2.4-4.3 4-7.1 4.1-4.8.3-9.1-2.9-13.9-2.9-4.3 0-8.2 2.7-12.5 3.4-3.2.5-6.5-.1-9.7-1.1-6.2-2-12.3-5.8-15.1-11.7-1.3-2.7-1.9-5.8-3.8-8.1-3.3-4.1-10.2-5-12.3-10-.7-1.7-.8-3.8-1.9-5.2-.5-.7-1.3-1.1-2-1.7-2.4-1.9-4.2-4.7-4.8-7.7 1.3 2 4.7 1.3 6.1-.8.8-1.1 2.9-6.5 4.6-11 2.1-5.7 7.3-9.9 13.4-10.7z"/>
    <path class="st1" d="m114.8 77.7 8.8-8.8-.3-10.6-9.9 5.5zM51.1 55.3l.5-16.1 7.5-6.3 5.1 20.7z"/>
    <path class="st2" d="M26.5 158.2c5.2-1.1 10.8-.1 15.9 1.4 8.2 2.4 16.1 5.8 24.4 8.1 8.2 2.3 17.1 3.5 25.4 1.4 4.4-1.1 8.5-3.2 13-3.6 5-.5 10 1.1 15.1 1.1s11.9-2.7 12.8-7.7c-4.5.7-10.1-.8-14.1-3-3.9-2.2-7.5-5-11.4-7.4-6.3-3.8-13.4-6.1-20.4-8.1-7.5-2.2-15.2-4.1-23-4.6-7.8-.5-15.9.5-22.9 4l-14.8 18.4z"/>
    <path class="st3" d="M110.7 65.9c9.9 3.5 13.7 15.5 21.8 22.2 3.4 2.8 7.7 4.8 9.8 8.7 1.9 3.4 2 8.1 4.3 10.9.5.6 1.6.2 1.5-.7l-.9-5.8 10.6 7.3c.7.5 1.5-.4 1-1.1-1.8-2.2-3.9-4.2-6.2-5.8 2.6 2.6 5.7 4.7 9.1 6.3.8.3 1.4-.6.8-1.2-2.2-2.1-4.7-4.1-7.2-5.8 2.2 1.8 4.8 3.2 7.5 4.1.8.3 1.3-.7.7-1.3-2.2-2-4.6-3.7-7.2-5.2 2 1.4 4.3 2.4 6.7 2.8.8.2 1.2-.9.6-1.3-2.8-2.1-5.9-3.8-9.2-5.1-2-.8-4.2-1.5-5.9-2.9-1.5-1.3-2.6-3-3.6-4.7-8-12.7-18.1-24-29.7-33.3l-1.3 1c-3.5 2.6-4.7 7-3.2 10.9zM56 48.5c-6.6-8.5-18.9-8.1-27.8-13.7-3.7-2.4-7.1-5.9-11.4-6.6-3.8-.7-8.1.8-11.4-.6-.8-.3-.7-1.5.1-1.6l5.7-1L.9 17.2c-.7-.5-.1-1.6.7-1.3 2.6 1 5.2 2.4 7.5 4.1-3.3-1.7-6.3-4-8.9-6.7-.6-.7.1-1.7.8-1.3 2.7 1.4 5.3 3.1 7.8 5.1-2.4-1.6-4.6-3.6-6.3-5.9-.5-.6.2-1.5.9-1.1 2.6 1.5 5 3.2 7.2 5.2-2-1.5-3.6-3.4-4.9-5.5-.4-.7.4-1.5 1-1 2.9 2 5.5 4.5 7.8 7.2 1.4 1.7 2.8 3.6 4.7 4.8 1.7 1.1 3.6 1.5 5.5 2 14.3 3.5 28.1 9.5 40.6 17.7l-.4 1.5c-1.1 4.1-4.8 6.8-8.9 6.5z"/>
    <defs>
        <path id="SVGID_1_" d="M95.3 40.5c5.5-1.4 9.5 1.1 14.4 4.1 4.9 3 14.1 12.8 14.2 13.8.1.8-5.9 13.7-8.5 19.4-2.6-3.1-5.6-5.8-9-8-2.3 10.2-8.6 18.2-4.2 42-10.2 1.2-30.4 2.1-40.5.6C77 77.8 74.4 96.2 67.3 62.5c0 0-7.6-.8-15.5-7.1 3.2-5 6.2-16.6 8-22.3 11 5.5 17.3 9.9 29.6 9.3l5.9-1.9z"/>
    </defs>
    <use xlink:href="#SVGID_1_" style="overflow:visible;fill:#c2b38c"/>
    <clipPath id="SVGID_2_">
        <use xlink:href="#SVGID_1_" style="overflow:visible"/>
    </clipPath>
    <path d="m83.988 75.768 1.697 1.697-5.444 5.445-1.697-1.697zM99.497 66.2l1.697 1.696-5.445 5.445-1.697-1.697zm17.083-2.012 1.697 1.697-5.445 5.445-1.697-1.697zm-44.59.589 1.696 1.697-5.444 5.445-1.697-1.697zm20.52-17.142 1.698 1.697-5.445 5.445-1.697-1.697zM65.66 34.074l1.698 1.697-5.445 5.445-1.697-1.697zm6.098 10.993 1.697 1.697-5.445 5.444-1.697-1.697zM95.42 84.283l1.698 1.697-5.445 5.445-1.697-1.697zm10.552-9.107 1.697 1.698-5.445 5.444-1.697-1.697zM88.945 98.471l1.697-1.697 5.444 5.445-1.697 1.697zm-5.5 11.597 1.697-1.698 5.445 5.445-1.698 1.697zm-3.339-47.444 1.697-1.697 5.445 5.445-1.697 1.697zm-4.223-22.852 1.697-1.697 5.445 5.445-1.698 1.697zM55.552 52.48l1.697-1.697 5.445 5.445-1.697 1.697zm46.37 2.621 1.697-1.697 5.445 5.445-1.697 1.697zm.231-13.809 1.697-1.697 5.444 5.444-1.697 1.697zm14.861 13.582 1.697-1.697 5.445 5.445-1.698 1.697zM74.404 97.22l1.697-1.698 5.445 5.445-1.697 1.697zM63.4 103.53l1.696-1.697 5.445 5.445-1.697 1.697z" style="clip-path:url(#SVGID_2_);fill:#fff"/>
    <path class="st3" d="M77.5 109.2c6.1 17.1 9.5 34.7 10.2 52.3.1 1.9.1 3.8-.6 5.5-.6 1.7-1.9 3.1-3.1 4.4-10.3 11.5-20.7 23-31 34.4-5.3 5.8-10.8 12.6-9.5 20.3.3 1.7 1.6 6.1 1.3 7.8-.3 1.6-2.9.4-4.7-.2-.7-.2-1.2-.7-1.7-1.3-3.1-4-.1-9.3-1.8-13.8-.7-2-2.4-4-1.7-6 .4-1.3 1.8-2.2 2.9-3.1 6.2-4.9 7.6-12.9 10.1-19.9 4.2-11.3 12.3-21.3 23-28.2-7.3-14.4-11.2-30-11.4-45.5-.1-4.7.4-9.9 4-13.2 3-2.8 7.8-3.8 12.2-2.8 4.4 1 8.2 3.8 10.6 7.3l-8.8 2z"/>
    <path class="st3" d="M85.4 109.3c11.4 14 20.6 29.5 27.1 45.9.7 1.7 1.4 3.5 1.3 5.4 0 1.8-.8 3.5-1.5 5.2-5.9 14.3-11.8 28.6-17.7 42.8-3 7.3-6 15.5-2.2 22.3.8 1.5 2 2.9 2.2 4.6.2 1.7-1 3.7-2.9 3.7-.7 0-1.4-.3-2-.6-4.3-2.7-3.2-8.7-6.3-12.4-1.4-1.6-3.6-3-3.6-5 0-1.4.9-2.6 1.7-3.8 4.2-6.7 2.8-14.7 2.9-22.2.1-12.1 4.4-24.2 12.2-34.3-11.7-11.1-20.6-24.5-26-39-1.7-4.4-2.9-9.4-.7-13.8 1.9-3.6 6.1-6.2 10.6-6.7s9 .8 12.4 3.3l-7.5 4.6zM64.6 13.5l19-1.4c2.4 5 .4 3.1 2.9 8.1 2-2.6 6.8-1.8 8 1.2 1.2 3.1-2 6.8-5.2 6.2.7 4.3 1.4 8.7 2.1 13 2.2-.2 3.2-.8 5.3-.6-3.2 7.6-6.8 15.1-12.6 21-1.9-5.4-4.6-13.5-5.5-19.1.7-.3 3.3.1 3.3 0-.3-2.1-.4-2.5-.6-3.8-2.4 2.3-5.7 3.5-8.7 2.1-1.6-.7-2.7-2.4-3.6-4-2.9-5.5-4.5-22.7-4.4-22.7z"/>
    <path d="M70.9 91.7c-1.1 4.6-12.3 8.1-16 11-16 13-26 45.3-28.1 54.2-.1.5.4.9.9.7 10.4-5.5 17.4-.4 23.4 1.3 6.2 1.7 13 2.7 19.1.6 3.6-1.2 6.8-3.4 10.4-4.4 5.9-1.6 12.2 0 17.9 2.2 5.7 2.2 11.3 5 17.4 5.7 5.6.6 12.2-1.1 17.1-4 .3-.2-.1.4 0 0 1.8-6.7-2.3-45-31.7-63.6-.7-.4-1-1.4-1.8-1.7-.6-.2-1.3-.2-1.9-.2-12.7.2-14.4.8-26.9-1.5l.2-.3z" style="fill:#b7772f"/>
    <path class="st2" d="M74.3 93.1c-1.4 3.9-3.8 7.3-6.5 10.5s-5.8 6.1-8.6 9.2c-3 3.2-5.8 6.5-8.2 10.2-2.5 3.7-4.6 7.6-6.4 11.6-1.8 4-3.2 8.2-4.2 12.5-.1.5-.2 1.1-.4 1.6-.1.4.5.5.6.2.9-4.3 2.2-8.6 3.9-12.6 1.7-4.1 3.7-8 6.1-11.7 2.4-3.7 5.1-7.2 8.1-10.4 2.9-3.1 5.9-6 8.7-9.1 2.7-3.1 5.2-6.4 6.9-10.2.2-.5.4-.9.6-1.4.1-.6-.5-.8-.6-.4zm4.7.4c-1.3 3.5-2.8 6.9-4.4 10.3-1.6 3.4-3.3 6.7-4.9 10.1-1.6 3.3-3 6.7-4.3 10.2-1.2 3.5-2.2 7.1-2.7 10.7-.5 3.6-.6 7.2 0 10.8.1.5.1.9.2 1.3s.7.2.6-.2c-.7-3.6-.7-7.2-.3-10.8.4-3.6 1.3-7.2 2.4-10.7 1.2-3.5 2.6-6.9 4.1-10.2 1.5-3.3 3.2-6.6 4.8-10 1.6-3.3 3.1-6.7 4.5-10.1.2-.4.3-.9.5-1.3.2-.3-.4-.5-.5-.1zm5.7.2c-.3 4-1 8-1.8 12-.8 3.9-1.8 7.9-2.6 11.8-.8 3.7-1.5 7.5-1.9 11.3-.3 3.6-.4 7.3 0 10.9.4 3.6 1.3 7.1 2.8 10.3l.6 1.2c.2.3.7 0 .5-.3-1.7-3.2-2.7-6.7-3.2-10.2-.5-3.6-.5-7.3-.3-10.9.3-3.8.9-7.5 1.7-11.2.8-3.9 1.8-7.8 2.6-11.8.8-3.9 1.6-7.8 2-11.8 0-.5.1-1 .1-1.5.1-.2-.5-.2-.5.2zm4.5 1.9c0 3.6.6 7.3 1.5 10.8.9 3.5 2.2 7 3.6 10.3 1.4 3.4 3 6.8 4.6 10.2 1.6 3.4 3.1 6.8 4.4 10.2 1.3 3.4 2.4 7 3.1 10.6.1.4.2.9.2 1.3.1.4.6.2.6-.2-.6-3.6-1.6-7.2-2.8-10.6-1.3-3.5-2.8-6.9-4.3-10.3-1.5-3.4-3.1-6.7-4.6-10.1-1.5-3.4-2.8-6.8-3.8-10.3-1-3.5-1.7-7-1.8-10.7v-1.3c-.1-.3-.7-.3-.7.1zm3.3.4c1.7 3.3 3.5 6.6 5.2 10 1.7 3.3 3.4 6.6 5.2 9.9 1.6 3 3.1 6.1 4.6 9.2 1.4 3.1 2.7 6.3 3.8 9.6 1 3.2 1.8 6.5 2.2 9.9 0 .4.1.9.1 1.3s.6.4.6 0c-.3-3.4-.9-6.8-1.9-10.1-1-3.3-2.2-6.5-3.6-9.6-1.4-3.2-3-6.3-4.5-9.3-1.7-3.3-3.4-6.5-5.1-9.8-1.8-3.4-3.5-6.7-5.3-10.1-.2-.4-.4-.8-.7-1.3-.2-.4-.8 0-.6.3zm.9-1.6c2.1 2.8 4.2 5.7 6.1 8.6 1.9 2.9 3.8 5.9 5.5 9 1 1.7 1.9 3.5 2.8 5.2.2.3.7 0 .5-.3-1.6-3.1-3.3-6.2-5.1-9.2-1.8-3-3.7-6-5.8-8.8-1.1-1.6-2.3-3.2-3.5-4.8-.2-.4-.8-.1-.5.3zm13.8 12.2c2.7 4.9 5.1 10 7.2 15.3 2.1 5.2 3.8 10.6 5.2 16.1.8 3.1 1.4 6.1 2 9.3.1.4.7.2.6-.2-1-5.6-2.4-11.1-4-16.5-1.7-5.4-3.7-10.6-6.1-15.7-1.3-2.9-2.8-5.7-4.3-8.5-.3-.5-.8-.2-.6.2zm10.9 15c1.9 4.8 3.3 9.8 4.1 14.9.2 1.5.4 2.9.6 4.4 0 .4.7.4.6 0-.5-5.2-1.6-10.3-3.2-15.2-.5-1.4-1-2.8-1.5-4.1-.2-.5-.8-.3-.6 0zM71.7 93.1c-.5 2.4-2 4.4-3.7 6.1-.9.9-1.8 1.7-2.7 2.6l-3.3 3c-1.2 1.1-2.5 2.3-3.7 3.4-.3.3.1.7.4.4 2.2-2.1 4.4-4.1 6.7-6.2 1.8-1.7 3.8-3.4 5.2-5.5.8-1.1 1.4-2.4 1.7-3.7 0-.3-.6-.5-.6-.1z"/>
    <path class="st2" d="M42.6 150.9c4.4 3.1 9.6 5 14.9 5.6 2.7.3 5.4.3 8.1 0 2.8-.4 5.5-1.2 8.2-2.1 2.8-1 5.6-2.1 8.6-2.7 3-.6 6.2-.5 9.2 0 3.1.5 6 1.4 8.9 2.5 2.9 1.1 5.6 2.4 8.5 3.4 5.1 1.9 11 3.1 16 .5.6-.3 1.1-.6 1.6-1 .3-.2 0-.8-.3-.5-4.6 3.4-10.6 2.7-15.7 1-2.9-1-5.6-2.2-8.4-3.4-2.8-1.1-5.7-2.1-8.7-2.8-2.9-.6-6-1-9-.7-2.9.3-5.7 1.1-8.5 2.1s-5.5 2-8.4 2.6c-2.6.5-5.3.7-8 .6-5.4-.3-10.7-1.8-15.3-4.6-.6-.3-1.1-.7-1.7-1.1 0-.1-.3.4 0 .6z"/>
    <path class="st6" d="M87.7 24.2c1-.8 2-1.5 3-2.3.1-.1.2-.3.1-.4-.1-.1-.3-.2-.4-.1-1 .8-2 1.5-3 2.3-.1.1-.2.3-.1.4.1.1.3.2.4.1z"/>
    <path class="st6" d="M88.7 23.3c.1 0 .2 0 .3.1.1 0 .1 0 .2.1.1 0 0 0 0 0h.1c.1 0 .2.1.3.1l.1.1s.1 0 0 0c.1.1.2.1.2.2l.1.1.1.1c.1.1.1.2.2.3 0 0 0 .1.1.1 0 0 0 .1 0 0v.1c.1.1.2.3.4.2.1 0 .3-.2.2-.4-.3-.9-1.1-1.6-2.1-1.8-.2 0-.3 0-.4.2 0 .3 0 .5.2.5z"/>
    <path style="opacity:.57;fill:#af7758" d="m81.3 38 5.7-3.3-5.2 5.8z"/>
    <path class="st6" d="M72.7 25.2c.2 2.4.4 4.8.5 7.2 0 .2.2.4.5.3.6-.3 1.2-.8 1.7-1.3.3-.3-.2-.7-.4-.4-.5.5-1 .9-1.6 1.2.2.1.3.2.5.3-.2-2.4-.4-4.8-.5-7.2-.1-.5-.7-.5-.7-.1z"/>
    <path d="M78.1 26.5c.2-.6.7-1.1 1.3-1.1.6-.1 1.2.3 1.5.9.1.1.3.2.4.1.2-.1.2-.3.1-.4-.4-.8-1.2-1.3-2.1-1.2-.9.1-1.6.7-1.8 1.6-.1.3.5.5.6.1zm-9.6 1.2c.2-.6.7-1.1 1.3-1.1.6-.1 1.2.3 1.5.9.1.1.3.2.4.1.2-.1.2-.3.1-.4-.4-.8-1.2-1.3-2.1-1.2-.9.1-1.6.7-1.8 1.6-.1.4.5.5.6.1z"/>
    <path class="st6" d="M75 33.6c1.4-.3 2.6-1.2 3.3-2.4.2-.3-.3-.6-.5-.3-.7 1.1-1.8 1.9-3 2.1-.4.1-.2.7.2.6z"/>
    <path class="st0" d="M67.1 22.1c.7-.5 1.5-.9 2.2-1.4.5-.3 1-.6 1.5-.7.5-.1 1.2.2 1.4.7l-5.1 1.4zm15.1.2c-.8-.4-1.5-.8-2.3-1.2-.5-.3-1-.5-1.5-.6-.6 0-1.2.3-1.3.8l5.1 1z"/>
    <path class="st1" d="M105.7 52.9c.4 4.4.4 8.8-.1 13.2-.1 1.2-.3 2.5-.5 3.7-.1.4.5.6.6.2.7-4.4 1-8.9.8-13.3 0-1.3-.1-2.5-.2-3.8 0-.4-.6-.4-.6 0zm14.7 4.5c-.9 4.7-2.5 9.3-4.7 13.5-.6 1.2-1.3 2.4-2 3.5-.2.3.3.6.5.3 2.5-4.1 4.5-8.6 5.8-13.2.4-1.3.7-2.6 1-4 .1-.4-.5-.5-.6-.1zm-67.1-1.8c3.4-4.7 5-10.3 6.2-15.9l.9-4.8c.1-.4-.5-.5-.6-.2-1 5.6-2.1 11.3-4.6 16.4-.7 1.4-1.5 2.8-2.5 4.1-.1.4.4.7.6.4zM70.5 45c-1.2 3.9-2.7 7.8-3.4 11.8-.2 1.3-.3 2.5-.4 3.8 0 .4.6.4.6 0 .1-2.1.4-4.2.9-6.3.5-1.9 1.1-3.7 1.7-5.6l1.2-3.6c.1-.3-.5-.5-.6-.1zm6.1-3c1.4 5.9 3 11.7 5 17.4.5 1.6 1.1 3.2 1.7 4.8.1.2.3.3.5.1 2.7-2.3 5.2-5 7.3-7.8 2.1-2.9 3.9-6 5.4-9.3.8-1.8 1.5-3.7 2.1-5.7.1-.4-.5-.5-.6-.2-1 3.4-2.4 6.7-4.1 9.8-1.7 3.1-3.8 6-6.2 8.6-1.3 1.5-2.8 2.9-4.3 4.1.2 0 .3.1.5.1-2.1-5.7-3.9-11.4-5.4-17.2-.4-1.6-.8-3.3-1.2-5-.2-.3-.8-.1-.7.3zm1.5 27.7c1.1.3 2 .9 2.8 1.6.9.7 1.7 1.6 2.5 2.4 1.6 1.7 3 3.5 4.3 5.5.7 1.1 1.3 2.2 1.9 3.4.2.3.7 0 .5-.3-1.1-2.1-2.4-4.2-3.8-6-1.4-1.8-3-3.6-4.7-5.1-1-.8-2.1-1.6-3.3-1.9-.4-.3-.6.2-.2.4z"/>
    <path class="st1" d="M80.3 73.5c2.2 1.9 4 4.2 5.3 6.9.2.4.7 0 .5-.3-1.3-2.7-3.1-5.1-5.4-7-.2-.2-.7.2-.4.4z"/>
    <path class="st0" d="M64.5 20.2c1.7 0 3.3-1 4.4-2.3 1.1-1.3 1.8-2.9 2.3-4.5 1.3 2.2 4.4 3.1 6.7 1.9.1 2.3 3 4.1 5.1 3.1.2-.1.4-.2.6-.2.5 0 .6.6.8 1.1.5 1.1 1.9 1.7 3 1.2-.7-3.2-1.4-6.4-2-9.6-.1-.2-.1-.5-.3-.7-.2-.2-.6-.2-.9-.2-6.7.1-13.4.5-20.1 1.1-.3 3-.2 6 .3 8.9l.1.2zm19.3-19c4.7.3 8.7 3.4 11.6 6.9 1.6 1.9 2.8 3.9 4 6 1.3 2 2.7 4.1 4.7 5.4 2.1 1.4 4.7 1.8 7.1 2 2.4.2 4.9.2 7.3.7 4.3.9 8.3 3.1 11.5 6 3.2 3 5.6 6.8 6.8 11 .1.5.3 1 .4 1.6.1.4.7.2.6-.2-.9-4.4-3.1-8.4-6.1-11.6-3-3.2-6.9-5.7-11.1-7-2.3-.7-4.6-.9-7-1-2.5-.1-5.1-.3-7.5-1.2-2.3-.9-4-2.8-5.4-4.9-1.3-2-2.5-4.2-4-6.1-2.8-3.7-6.6-7.1-11.2-8-.6-.1-1.1-.2-1.7-.2-.4 0-.4.6 0 .6zM72.1 2.6c-3.9-1-8.2.1-11.4 2.5-1.6 1.2-2.9 2.8-3.8 4.7-1 2-1.3 4.4-2.7 6.2-1.6 2.1-4.4 2.7-6.8 3.2-.4.1-.2.7.2.6 2.2-.5 4.5-1 6.2-2.5 1.8-1.5 2.4-3.8 3.1-5.9.7-1.9 1.8-3.7 3.3-5.1C61.6 5 63.4 4 65.3 3.4c2.1-.7 4.4-.8 6.6-.2.4.1.6-.5.2-.6z"/>
    <path class="st8" d="M73.3 3.6c-2.3 1.5-3.6 4.3-3.3 7 .1.8.3 1.5.6 2.2.2.4.7 0 .5-.3-1-2.3-.6-5 .9-7 .4-.6 1-1 1.6-1.4.4-.1.1-.7-.3-.5zm-.9 5.7c-.4 1.6.6 3 1.9 3.8 1.2.8 3.3 1.3 4.1-.2.4-.6.4-1.5-.2-2-.2-.2-.5-.1-.5.2 0 1.3.6 2.5 1.5 3.4.4.5 1 .8 1.5 1.1.6.3 1.4.5 1.9.1.4-.4.4-1.2-.2-1.4-.2-.1-.4.1-.4.3-.1.9.5 1.7 1.3 2 .9.4 2 .2 2.9-.2.4-.2 0-.7-.3-.5-.7.3-1.6.5-2.3.2-.6-.2-1.1-.8-1-1.5-.1.1-.3.2-.4.3.1 0 .1.3 0 .4-.2.2-.6.1-.9 0-.6-.2-1.1-.5-1.5-.9-.9-.8-1.5-2-1.5-3.2-.2.1-.3.1-.5.2.5.4.2 1.2-.2 1.6-.6.4-1.6.2-2.3 0-1.3-.6-2.7-2-2.4-3.6.1-.4-.4-.5-.5-.1zm22.5 4.9c2.9 2 5.2 4.7 6.8 7.7.8 1.4 1.4 2.9 2.4 4.2 1 1.3 2.3 2.3 3.9 2.8 1.7.6 3.4.7 5.1 1 1.5.3 2.9.8 4.2 1.4 2.7 1.3 5 3.3 6.8 5.7 1.8 2.4 3 5.2 3.5 8.1.1.4.1.7.1 1.1 0 .4.6.4.6 0-.3-3-1.3-5.9-3-8.5-1.7-2.5-3.9-4.7-6.5-6.2-1.3-.8-2.7-1.4-4.2-1.8-1.6-.5-3.3-.6-5-1-1.7-.3-3.3-.9-4.5-2.2-1.1-1.2-1.8-2.7-2.6-4.1-.8-1.5-1.6-3-2.7-4.4-1.1-1.4-2.3-2.6-3.7-3.7-.3-.3-.7-.5-1-.8-.3 0-.6.5-.2.7z"/>
    <path class="st8" d="M115.7 36.2c3.2 2.5 5.7 6 6.9 9.9.3 1.1.6 2.2.8 3.3 0 .2.2.3.4.2.2 0 .2-.2.2-.4-.6-4.2-2.5-8.1-5.3-11.2-.8-.9-1.7-1.7-2.6-2.4-.4-.2-.7.3-.4.6zm2.2 8.6c1 1.4 1.8 2.9 2.6 4.4.2.4.7 0 .5-.3-.8-1.5-1.6-3-2.6-4.4-.2-.3-.7 0-.5.3zM94.6 29.4c.7 2.8 2.2 5.4 4.3 7.4.6.6 1.2 1.1 1.9 1.5.3.2.6-.3.3-.5-2.3-1.5-4.1-3.8-5.2-6.3-.3-.7-.6-1.5-.7-2.2-.1-.4-.6-.2-.6.1zm4.8 1.5c.9 2.1 2.9 3.6 5.2 3.8.4 0 .4-.6 0-.6-2-.1-3.9-1.4-4.6-3.3-.2-.5-.8-.3-.6.1zM82.7 5c1.7-.2 3.4.1 4.9 1 1.4.8 2.6 2 3.3 3.5.4.8.6 1.7.7 2.6 0 .4.7.4.6 0-.4-3.6-2.9-6.6-6.4-7.5-1-.3-2-.3-3.1-.2-.4 0-.4.6 0 .6z"/>
    <path class="st8" d="M84.5 7.8c1.8.5 3.2 2 3.7 3.8.1.4.7.2.6-.2-.6-2-2.2-3.6-4.1-4.2-.4-.1-.5.5-.2.6zm-16.8 4.3c-.1 2.1-1.3 4-3 5.2-.3.2 0 .8.3.5 1.9-1.3 3.1-3.4 3.3-5.7.1-.4-.5-.4-.6 0zm-2.4.4c-.1 1.2-1 2.2-2.1 2.6-.4.1-.2.7.2.6 1.4-.4 2.4-1.7 2.6-3.2 0-.2-.2-.3-.3-.3-.3 0-.4.1-.4.3z"/>
    <path class="st8" d="M67.9 5.3c-1.9.1-3.5 1.5-4.6 3-1.3 1.6-2.3 3.3-3 5.2-.7 2-1 4-1.3 6.1-.3 1.9-.7 4-2 5.6-1.2 1.5-3.1 2.6-5 2-.4-.1-.5.5-.2.6 1.7.5 3.5-.1 4.7-1.3 1.5-1.3 2.2-3.1 2.7-4.9.5-2.1.6-4.2 1.1-6.3.5-2 1.4-3.8 2.5-5.5 1.1-1.7 2.8-3.7 5-3.9.5 0 .5-.6.1-.6zM60 23.7c-.1 1.4-1.2 2.7-2.5 3-.4.1-.2.7.2.6 1.6-.4 2.8-1.9 3-3.6 0-.2-.1-.3-.3-.3-.2 0-.4.2-.4.3zm2.4 3.7c-.4.6-1.2 1-1.9 1-.2 0-.3.1-.3.3 0 .2.1.3.3.3 1 0 1.9-.5 2.5-1.3.1-.1 0-.3-.1-.4-.2-.1-.4 0-.5.1zm.3 35.1c-.2 1.6-1.5 2.9-3.1 3.1-.2 0-.3.2-.2.4 0 .2.2.2.4.2 1.7-.3 3.2-1.8 3.5-3.6 0-.2 0-.3-.2-.4-.2.1-.4.1-.4.3zm1.9 3.3c-.4 1-1.2 1.7-2.2 2.2-.1.1-.2.3-.1.4.1.2.3.2.4.1 1-.5 1.9-1.4 2.4-2.4.1-.2 0-.3-.1-.4-.1-.1-.3-.1-.4.1z"/>
    <path class="st6" d="M2.7 16.5c1.7 1.2 3.4 2.5 5.1 3.7.3.2.6-.3.3-.5C6.4 18.4 4.7 17.2 3 16c-.3-.3-.6.3-.3.5zm.7-2.3c2 1.3 3.9 2.6 5.9 3.9.3.2.6-.3.3-.5-2-1.3-3.9-2.6-5.9-3.9-.3-.3-.6.3-.3.5zm3-1.4c1.4 1 2.8 2 4.1 3.1.3.2.7-.2.4-.4-1.4-1.1-2.8-2.2-4.3-3.2-.2-.3-.5.2-.2.5z"/>
    <path class="st6" d="M11.5 14.8c-1.6 2.1-3 4.4-4.2 6.8-.2.3.3.7.5.3 1.2-2.4 2.7-4.6 4.2-6.8.3-.3-.3-.6-.5-.3zm33.2 17.1c.1 0 .1 0 0 0 .1 0 0 0 0 0h.7s-.1 0 0 0 .1.1.2.1c0 0 .1 0 .1.1.1 0 .1.1.2.2 0 0 0 .1 0 0 0 0 0 .1.1.1.1.1.3.2.4.1.1-.1.2-.3.1-.4-.4-.7-1.2-1-2-.9-.2 0-.3.2-.2.4.1.3.3.4.4.3zm107.4 69.9c1.9 1.5 3.9 3 5.9 4.3.3.2.6-.3.3-.5-2-1.3-4-2.7-5.8-4.2-.2-.2-.7.2-.4.4zm1.6-2.1c2.1 1.8 4.3 3.5 6.6 5.1.3.2.6-.3.3-.5-2.3-1.5-4.4-3.2-6.5-5-.3-.3-.7.1-.4.4zm1.4-1.6c1.8 1.1 3.6 2.2 5.5 3.4.3.2.6-.3.3-.5-1.8-1.1-3.6-2.2-5.5-3.4-.3-.2-.6.3-.3.5z"/>
    <path class="st6" d="M155.6 96.4c-1.5 1.9-3 3.9-4.4 5.8-.2.3.3.6.5.3 1.4-1.9 2.9-3.8 4.3-5.7.3-.3-.2-.7-.4-.4zM128 68.2h.1-.1c.1 0 .1 0 0 0h.3s.1 0 0 0l.1.1c0 .1.1.1.1.2 0-.1 0 0 0 0v.1-.1.1s0 .1 0 0v.1c0 .2.1.3.2.4.2 0 .3 0 .4-.2.2-.7-.4-1.6-1.2-1.6-.2 0-.3.1-.3.3.1.4.2.6.4.6z"/>
    <path class="st0" d="M37.8 210.1c2.1 1.9 2.9 4.9 3.3 7.7.3 2.8-1.5 6.4-.5 9.1 1.2 3.3 5.8 5.5 5.7 9 0 .2-.1.5-.3.7-.1.1-.3.1-.5.1-3.9-.4-7.9-2.5-9.3-6.2-1.3-3.4-.1-7.3-1.3-10.7-.6-1.6-1.7-3.1-1.8-4.9-.1-2.4 2.2-5.6 4.6-5.2l.1.4z"/>
    <path class="st0" d="M39.8 228c1.2-.9 3-1.3 4.5-.9-.2-.7-.3-1.4-.2-2-1.7-.1-3.4-.1-5.2 0l.9 2.9zm42.7-12.4c2.5 1.3 4 4 5.1 6.7 1 2.7.1 6.6 1.7 8.9 2 2.9 6.9 3.9 7.7 7.4.1.2.1.5-.1.7-.1.1-.3.2-.5.2-3.9.5-8.3-.5-10.5-3.7-2.1-3-1.9-7-3.9-10-1-1.4-2.4-2.6-2.9-4.3-.7-2.3.8-6 3.2-6.1l.2.2z"/>
    <path class="st0" d="M88.8 232.5c1-1.2 2.6-1.9 4.1-1.9-.4-.6-.6-1.2-.7-1.9-1.7.3-3.4.8-5 1.3l1.6 2.5z"/>
    <path class="st2" d="M29.9 153.6c2.1-1.8 5.1-2.7 7.8-2.3.2 0 .3 0 .4-.2 0-.1-.1-.4-.2-.4-3-.4-6.1.5-8.4 2.4-.3.4.1.8.4.5z"/>
    <path class="st6" d="m86.7 213.7.1.1c0 .1 0 .1.1.2v.1c0-.1 0 0 0 0v.7s0 .1 0 0c0 .1-.1.1-.1.2-.1.1 0 .3.1.4.1.1.3 0 .4-.1.4-.6.4-1.4.1-2-.1-.1-.3-.2-.4-.1-.4.1-.4.3-.3.5zm9.6-52.1c.2-.3.5-.5.8-.8l.2-.2s.1 0 0 0l.1-.1c.2-.1.3-.2.5-.3.1-.1.2-.3.1-.4-.1-.1-.3-.2-.4-.1-.7.4-1.3.9-1.7 1.5-.1.1-.1.3 0 .4 0 .1.2.1.4 0zm-25.3.2c.1-.1.3-.1.4-.1h1c.1 0-.1 0 0 0h.1c.2 0 .3 0 .4-.2 0-.2 0-.3-.2-.4-.6-.1-1.3-.1-1.8.2-.1.1-.3.2-.2.4-.1 0 .1.2.3.1zm12.8 1.7c-.5 1.2-.3 2.7.6 3.7.3.3.7-.1.4-.4-.7-.8-1-2-.5-3 .1-.2 0-.3-.1-.4-.2-.1-.4-.1-.4.1zM44.1 210v.2s0 .1 0 0c0 .1 0 .2-.1.3v.1c0 .1 0-.1 0 0 0 0 0 .1-.1.1 0 .1-.1.2-.2.3l-.1.1-.1.1-.1.1s-.1.1 0 0h-.1c-.1.1-.2.1-.2.1H43c-.1 0 .1 0 0 0h-.1c-.2 0-.3.2-.2.4.1.2.2.3.4.2.9-.3 1.6-1.2 1.6-2.1 0-.2-.1-.3-.3-.3-.1.1-.3.2-.3.4z"/>
    <path class="st1" d="m77.6 86.6.6 4.2c0 .2.2.3.4.2.2 0 .2-.2.2-.4l-.6-4.2c0-.2-.2-.3-.4-.2-.2 0-.3.2-.2.4zm2.5.3c-.1 1.2-.2 2.4-.3 3.5 0 .4.6.4.6 0 .1-1.2.2-2.4.3-3.5 0-.4-.6-.4-.6 0zm9.2.6v3.9c0 .4.6.4.6 0v-3.9c0-.3-.6-.3-.6 0zm1.9.7c-.1.9-.3 1.7-.5 2.6-.1.4.5.5.6.2.2-.9.4-1.8.5-2.8 0-.2-.2-.3-.3-.3-.2 0-.3.1-.3.3zm2.5.5c-.4 1.2-.7 2.3-1.1 3.5-.1.4.5.5.6.2.4-1.2.7-2.3 1.1-3.5.1-.4-.5-.6-.6-.2z"/>
    <path class="st2" d="M69.7 93.7c.6 0 1.2.1 1.7.1 9.9.7 19.8 1.2 29.8 1.5.1-2 .2-4 .3-6.1-9.7 2.4-19.9-1-29.9-1.2l-1.9 5.7z"/>
    <path class="st1" d="M91 26.2c0 .3-.3.6-.6.6s-.6-.3-.6-.6.3-.6.6-.6.6.3.6.6z"/>
    <path class="st8" d="M36.4 211.6c2.1 2.1 2.4 5.3 2.4 8.1-.1 3.1-.6 6.3.4 9.3.3.8.7 1.6 1.2 2.3.6.8 1.3 1.5 2 2.1.3.3.7-.2.4-.4-.6-.6-1.3-1.2-1.8-1.9-.5-.6-.9-1.3-1.1-2.1-.5-1.5-.7-3.1-.7-4.7 0-3 .5-6.1-.2-9.1-.3-1.6-1-3.1-2.2-4.2-.2-.1-.6.3-.4.6zm45.3 7c2.9 1 4 4.2 4.5 7 .6 3.2.7 6.7 3 9.3 1 1.2 2.5 2 4.1 2 .4 0 .4-.6 0-.6-1.4 0-2.6-.8-3.6-1.8-1-1.1-1.6-2.5-2-4-.8-3.2-.7-6.6-2.4-9.5-.8-1.4-1.9-2.5-3.4-3-.4-.1-.6.5-.2.6z"/>
    <path class="st8" d="M94.3 235.5c-1.4.6-2.4 1.9-2.6 3.4 0 .2.2.3.3.3.2 0 .3-.1.3-.3.1-1.2 1-2.3 2.1-2.8.2-.1.3-.2.2-.4 0-.1-.2-.2-.3-.2zm-49.8-3.2c-1.4-.1-2.8.9-3.2 2.3-.1.4.5.5.6.2.3-1.1 1.4-2 2.6-1.9.2 0 .3-.1.3-.3 0-.2-.1-.3-.3-.3z"/>
</svg>
