<svg xmlns="http://www.w3.org/2000/svg" xmlns:xlink="http://www.w3.org/1999/xlink" width="101.4" height="252.4" style="overflow:visible;enable-background:new 0 0 101.4 252.4" xml:space="preserve">
    <style>
        .st0{fill:#6b74b5}.st1{fill:#a39793}.st2{fill:#ba702d}.st3{fill:#fdf5f2}.st4{fill:#fac7b2}.st5{fill:#bf8271}.st6{fill:#706563}.st7{fill:#d15259}.st9{fill:#9ea8db}.st12,.st13,.st14{clip-path:url(#SVGID_4_)}.st13{fill:#6b74b5}.st14{fill:#fff}.st15{fill:#492405}.st18{fill:#152151}
    </style>
    <path class="st0" d="M74.9 61c3.5 1.5 7.1 3 10.1 5.2 3.1 2.2 5.7 5.2 6.7 8.8 1 3.6.1 7.7-2.8 10.1-2.6 2.2-6.8 2.7-9.8 1L74.9 61z"/>
    <path class="st1" d="M57.8 3C54.2-.6 48.2-.4 43.1.7c-2.8.6-5.9 1.5-7.4 3.8-1.2 1.7-1.3 3.9-2.3 5.7-2.2 4.1-8.4 5.9-8.7 10.5-.1 1.7.7 3.4.6 5.1-.1 2.1-1.4 4-2.8 5.5-1.4 1.6-3.1 3-4.1 4.9-1 1.9-1.2 4.3.2 5.9 5.9-1.7 11.3 4.8 17.5 4.8 3.1 0 6.1-1.6 9.2-1.8 3.2-.2 6.2 1.1 9.3 1.8 5.7 1.3 11.9.5 17.1-2.2-2.4-1-2.8-4.2-2.1-6.7.6-2.5 1.9-5 1.3-7.4-.3-1.4-1.3-2.7-1.5-4.1-.4-3 2.2-5.6 2.5-8.6.3-3.6-2.7-6.5-4.1-9.8-.8-1.9-1.2-4.1-2.9-5.3-2.1-1.5-4.7-.4-7.1.2z"/>
    <path class="st2" d="M59.4 43.6c-.7-5.4-1.4-10.8-.9-16.2.1-1.4.4-2.9 1-4.2 1.5-3.2 5.5-5 8.9-4 .7.2 1.4.5 1.9 1.1.5.7.6 1.7.6 2.6-.2 5-2 9.7-3.9 14.3-1.1 2.6-2.2 5.4-4.5 7.1l-3.1-.7z"/>
    <path class="st3" d="M63.4 42.5c-.7.3-1.6 0-2.1-.6s-.8-1.4-1-2.1c-1.1-4.2-1.1-8.8.1-13 .4-1.5 1-3 2.2-4 1.2-1 3.1-1.3 4.3-.4 1.3 1 1.3 2.9 1 4.5-.5 2.6-1.6 5-2.5 7.5-.7 2.1-1.3 4.4-1.1 6.6.1.7-.3 1.3-.9 1.5z"/>
    <path class="st4" d="M66.5 17.4c-1.4 7.5-3.3 14.8-5.8 22-.3.8-.6 1.7-1.4 2.1-.5.3-1.1.3-1.7.3-1.7-.1-7.9-.8-7.9-.8.2.2-2.9 5.5-4.7 10.2-3.4-.4-12.7-2-12.8-2.2-.1-.2 5.1-13.1 6.3-16.8-1.1.5-5.5.2-6.1-4.1-.2-1.5-.2-3.1.5-4.4.8-1.3 4.2-2.1 5.6-1.4 1.2-3.3 2.5-6.5 3.7-9.8.1-.4.3-.8.6-1 .3-.3.8-.3 1.3-.3 1.7-.1 3.6 1.1 5.1.3 6.7-3.4 11.2 1.3 15.8 1.9l2.1.6-.6 3.4z"/>
    <path class="st5" d="M38.8 29c-.5-1.2-1.3-2.2-2.3-3l-.9-.6c-.3-.1-.5.2-.2.4 1.1.6 2 1.5 2.6 2.5.2.3.3.6.5.9 0 .1.2.1.3.1.1 0 .1-.2 0-.3z"/>
    <path class="st5" d="M37 26.8c-.8.6-1.2 1.7-1.1 2.7 0 .3.1.6.2.9 0 .1.2.2.3.2.1 0 .2-.2.2-.3-.3-.9-.2-1.8.3-2.6.1-.2.3-.4.5-.6.1-.1.1-.2 0-.3-.2-.1-.3-.1-.4 0z"/>
    <path d="M61.4 27.6c-.2-.7-.7-1.3-1.4-1.5-.7-.2-1.4-.1-1.9.4-.3.3-.5.6-.7 1-.1.2.1.4.2.4.2 0 .4-.1.4-.2v-.1c0 .1 0 0 0 0 0-.1.1-.1.1-.2 0 0 0-.1.1-.1 0-.1 0 0 0 0 0-.1.1-.1.1-.2 0 0 .1 0 .1-.1.1 0 .1-.1.2-.1h.1s.1 0 0 0c.1 0 .1 0 .2-.1h.6s-.1 0 0 0h.3s-.1 0 0 0 .1.1.2.1h.1s.1.1 0 0c.1 0 .1.1.2.1l.2.2v.1s0 .1.1.1c0 0 0 .1.1.1 0 0 .1.1 0 .1 0 .1.1.2.1.2 0 .2.2.3.4.2.1-.1.3-.3.2-.4z"/>
    <path class="st5" d="M54.8 24.7v8.1c.1-.1.2-.1.3-.2-.6-.3-1.1-.8-1.6-1.3-.1-.1-.2-.1-.3 0-.1.1-.1.2 0 .3.5.5 1 1 1.7 1.4.1.1.3 0 .3-.2v-8.1c.1-.3-.4-.3-.4 0z"/>
    <path class="st1" d="M50.4 21.5c.2-1-1.3-1.3-2.7-1.2-.8.1-1.7.3-2.6.6-.5.7-.1 1.4.7 1.6.8.2 1.8 0 2.7-.2l1.9-.8zm6.8 1.4c-.2-1 1.3-1.3 2.6-1.2.9.1 1.7.3 2.6.5.5.7.1 1.4-.7 1.6-.8.2-1.8.1-2.7-.1l-1.8-.8z"/>
    <path d="M47 26.9c0 .8.5 1.4 1.2 1.4s1.2-.6 1.2-1.4c0-.8-.5-1.4-1.2-1.4s-1.2.6-1.2 1.4z"/>
    <path class="st1" d="M64 9.3c-2-1-4.4-.5-6.6-.9-1.9-.4-3.6-1.3-5.4-1.8-5.4-1.5-11.2 1.2-15.5 4.8-.6.5-1.3 1.1-1.7 1.9-.5.9-.5 2-.4 3.1V21c0 .3 0 .6.2.8.2.2.5.2.8.3.7.1 1.5.1 2.2.2 0 .3-.1.5-.1.8 0 2.3 2.3 4.2 4.5 3.8-.7.1-1.4-.7-1.4-1.4-.1-.8.3-1.6.6-2.3.3-.7.7-1.3 1.4-1.7.3-.2.7-.5.9-.8 1.4-1.7 1.9-4.4 4.1-5 .8-.2 1.6 0 2.5 0 3 .1 6-1.7 7.2-4.4-.1 1.6.9 3.1 2.3 3.8.7.3 1.5.5 2.3.8 2.5 1.2 3.1 5 3.3 7.8 1-2.3 2-5.3 2.1-7.8s-1-5.5-3.3-6.6z"/>
    <path class="st1" d="M42.2 27h.2c-.1-.1-.1-.1-.2 0z"/>
    <path class="st5" d="M50.4 18.6c2.4.2 4.8.3 7.1.3.7 0 1.4 0 2-.1.2 0 .2-.3 0-.3-2.4.1-4.8.1-7.2-.1-.7 0-1.3-.1-2-.2-.1.1-.1.4.1.4zm.4-1c2.3-.2 4.6-.3 6.8-.4h1.9c.2 0 .2-.3 0-.3-2.3 0-4.6.1-6.8.3-.6 0-1.3.1-1.9.1-.2 0-.2.3 0 .3zm6.7 11.8c.4.5 1 .8 1.7.9.1 0 .1-.1.1-.1 0-.1-.1-.1-.1-.1-.6-.1-1.1-.3-1.5-.8-.1-.3-.3-.1-.2.1zm-8.9-.4c-.2.1-.4.1-.6.2-.1 0-.1.1-.1.2s.1.1.2.1c.2-.1.4-.1.6-.2.1 0 .1-.1.1-.2s-.1-.1-.2-.1zm7 6.3.6 1.8c.1.2.3.1.3-.1l-.6-1.8c0-.1-.3-.1-.3.1zm-5.5-2.2c.6 1.3 2.1 2.1 3.5 1.9.2 0 .1-.3-.1-.3-1.3.2-2.6-.6-3.2-1.7 0-.2-.3 0-.2.1zm.4-1.7c-1 .9-2.1 1.8-3.1 2.6-.1.1.1.3.2.2 1-.9 2.1-1.8 3.1-2.6.2-.1 0-.3-.2-.2z"/>
    <path class="st6" d="M57.5 10.8c1-1.9 1.3-4 .8-6.1-.1-.6-.3-1.1-.5-1.7-.1-.2-.3 0-.3.1.8 1.8.9 4 .3 5.9-.2.5-.4 1.1-.6 1.6 0 .2.2.4.3.2zm-2.2-.1c-.5 1.5-2.2 2.2-3.6 2.4-1 .1-2 .1-3.1.1-.9.1-1.8.2-2.6.6-.8.3-1.5.8-2.1 1.3-.6.6-1.1 1.2-1.5 1.9-.4.7-.9 1.4-1.5 2-.5.5-1.2.7-1.9.9-.7.2-1.4.3-2 .6-.6.2-1.2.5-1.6 1-.1.1-.2.3-.3.4-.1.2.2.3.3.1.7-1.2 2.2-1.4 3.5-1.7.7-.2 1.3-.4 1.9-.8.7-.5 1.2-1.1 1.6-1.8.4-.7.9-1.4 1.4-2 .6-.6 1.3-1.1 2-1.5.8-.4 1.7-.6 2.5-.7 1-.1 2 0 3.1-.1 1.5-.1 3.2-.7 4-2.1.1-.2.2-.3.2-.5s-.3-.3-.3-.1z"/>
    <path class="st6" d="M50.1 7.8c-1 1-2.3 1.5-3.7 1.7-1.4.2-2.9.3-4.3.5-2.7.5-5.4 1.6-7.1 3.8-.5.6-.8 1.3-1.1 1.9-.3.8-.6 1.6-.9 2.3-.6 1.2-1.6 2.2-2.6 3.1-1 .9-2 1.8-2.6 2.9-.8 1.5-.6 3.1-.6 4.7 0 .8 0 1.7-.2 2.5-.2.7-.5 1.3-.9 1.9-.8 1.2-2 2.1-3.2 3l-.9.6c-.2.1 0 .4.1.3 2.3-1.6 4.9-3.6 5.3-6.6.2-1.7-.2-3.4.2-5.1.4-1.3 1.3-2.3 2.2-3.3 1-.9 2-1.8 2.8-2.8 1-1.3 1.2-2.9 2-4.3 1.3-2.5 4-3.8 6.7-4.4 1.4-.3 2.8-.4 4.2-.6 1.4-.2 2.8-.4 3.9-1.3.4-.1.6-.4.9-.6.1-.1-.1-.4-.2-.2z"/>
    <path class="st1" d="M43.7.9C43 .5 42.2.5 41.4.6c-.8 0-1.5.1-2.3.2-1.4.2-2.8.6-3.9 1.6-.9.8-1.5 1.8-2 2.8-.5 1.1-1 2.2-1.6 3.3-.5 1-1.2 2-2.1 2.7-1.1.9-2.5 1.2-3.7 1.8-.6.3-1.2.7-1.7 1.1-.5.5-.9 1.1-1.1 1.7-.6 1.4-.7 2.9-.7 4.3-.1 1.6-.1 3.3-.8 4.8-.6 1.2-1.6 2.3-3 2.5-.3.1-.6.1-1 0-.2 0-.3.3-.1.3 1.3.2 2.6-.5 3.5-1.4 1-1.2 1.4-2.7 1.5-4.2.1-1.6.1-3.1.4-4.7.3-1.4.9-2.7 2-3.6 1.1-.8 2.5-1.2 3.8-1.8.6-.3 1.1-.6 1.6-1.1.4-.4.8-.9 1.1-1.3.7-1 1.1-2.1 1.6-3.2s1-2.2 1.7-3.1c.4-.3.8-.7 1.3-1 .6-.4 1.3-.7 2-.9.7-.3 1.5-.4 2.2-.4.8-.1 1.6-.1 2.3-.1.4 0 .8.1 1.1.3.2 0 .4-.2.2-.3zM57.4 11c0 1.3-.6 2.5-1.6 3.4-.5.5-1.1.8-1.8 1-.8.2-1.6.2-2.4.2-.5 0-.9-.1-1.4-.1-.5-.1-.9-.1-1.4-.3-.2-.1-.3.2-.1.3.8.3 1.7.3 2.6.4.8.1 1.7.1 2.5-.1 1.4-.3 2.6-1.2 3.2-2.5.4-.7.6-1.4.6-2.2.1-.2-.2-.2-.2-.1z"/>
    <path class="st7" d="M36.9 31.7c-.7 1.3-1 2.8-.9 4.2 0 .4.2.8.5.9.3 0 .5-.4.6-.7.4-1.5.4-3.1 0-4.6l-.2.2z"/>
    <circle class="st7" cx="36.9" cy="31.2" r=".6"/>
    <path class="st4" d="M72.8 154.2c-17.3 26.1-45 53.3-60.9 73.3l4 18.3c-4.5-3.4-18.4-14.6-14.5-18.7 4.2-4.3 4.8-5.8 7.4-10.8 5.5-10.7 11.9-31.1 18.9-40.9 4.2-5.9 10.1-10.3 14.7-15.8 9.8-11.7 13.6-27.6 23.7-39l6.7 33.6z"/>
    <path class="st7" d="M3.7 223.7c.8-.9 2.2-.2 1.9.9-.2.8-.8 1.6-1.1 2.4-.7 1.5-.4 3.2.2 4.6.6 1.4 1.7 2.6 2.7 3.7 1.1 1.3 2.5 2.6 4.2 2.4.6-.1 1.1-.3 1.7-.2 1 .2 1.5 1.3 1.8 2.2.8 2.5 1.6 4.9 2 7.5.1.4.1 1-.3 1.2-.2.1-.4.1-.6.1-2-.2-3.6-1.6-5-3.1-4.3-4.5-8-9.7-10.8-15.4-.2-.4-.4-.9-.4-1.4 0-.7.5-1.3.9-1.8.8-.8 2-2.2 2.8-3.1z"/>
    <path class="st4" d="M77.8 141.9c1.5 31.3-4.8 69.6-5.7 95.2l14 12.4c-5.7-.1-23.5-.8-22.8-6.4.8-6 .4-7.5-.5-13.1-1.9-11.9-8.9-32.1-9-44.1-.1-7.2 2-14.2 2.5-21.4 1-15.2-5.4-30.3-4-45.4l25.5 22.8z"/>
    <path class="st2" d="M71.7 53.5c1 3.7 4.2 6.2 6.7 9 3.9 4.3 6.4 9.9 6.4 15.7 0 5.8-2.9 11.6-7.9 14.6S65 95.4 60.8 91.4c-1.6-1.5-2.7-3.5-3.7-5.5-3.4-7.2-4.6-15.4-3.3-23.3l17.9-9.1z"/>
    <path class="st0" d="M83.4 180.5c-.5-10.2-4.3-43.1-5.3-53.3-.5-5.5-1.1-10.9-2.4-16.3-1.2-4.8-3-9.5-4.5-14.2-.2-.6-.3-1.1-.5-1.7 3.5-4.2 5.1-8.7 5.8-14.8.7-6.5-9.8-11.7-14-9.1l-4.7-3.2c-3.2-5.2-6-9.5-9.6-15.6-2.1-5.4-8.4-11.9-14.1-11.2-5.2.6-9.5 7.2-10.8 12.7C21 59 20.8 65.4 22 71.2c1.6 8.4 5.7 16.1 8.5 24.2.5 1.5 1 2.9 1.1 4.5.2 2.6-3.7 8.7-4.3 11.2-4.8 18.4-10.1 45.4-8.6 68.8 0 .8 50.7 10.4 63.4 3.2.5-.3 1-.6 1.2-1.1.2-.4.2-1 .1-1.5z"/>
    <defs>
        <path id="SVGID_1_" d="M75.6 81.1c1-11.3-.9-22.8-5.3-33.2-3.4 2.5-6.9 4.7-10.7 6.5-.5.3-1.1.5-1.3 1.1-.2.4-.1.9 0 1.4 1.3 7.6 1.7 15.7-.8 23 3.9 1.6 8 2.8 12.2 3.5l5.9-2.3z"/>
    </defs>
    <use xlink:href="#SVGID_1_" style="overflow:visible;fill:#6b74b5"/>
    <clipPath id="SVGID_2_">
        <use xlink:href="#SVGID_1_" style="overflow:visible"/>
    </clipPath>
    <path class="st9" d="M72.9 55.2c-.3.5 1.1 5.5 1.1 6.1-.1-.2-4.1-8.1-5.8-7.8-2.1.4-2.8 3.3-1.8 5.2 1 1.9 3.1 2.9 5 3.8-2.4-.6-4.8-.9-7.3-1-.9 0-1.9 0-2.5.6-.6.7-.6 1.7-.1 2.5s1.2 1.3 2.1 1.7c2.4 1.2 5.2 1.6 7.9 1.1-2.2 1-4.3 2.4-6.1 4.1-.4.4-.8.7-.9 1.2-.3.9.4 2 1.3 2.3.9.4 1.9.2 2.9 0 1.6-.4 4.8-5.4 6.1-6.3-.3 1-2.4 6.2-2.3 7.2.1 1.3 1 2.7 2.3 3 1.7.3 3.2-1.3 3.4-3 .1-.8-1.7-5.4-1.9-6.1.6.5 2.8 4.9 3.4 5.3 1.3 1 3.3 1.8 4.4.5.6-.8.5-1.9.2-2.8-.7-1.7-4.5-5.1-6.2-5.8 1.4.4 5.4 2.6 6.9 2.4.9-.1 1.9-.3 2.6-.9.7-.6 1.1-1.6.8-2.5-.2-.5-.7-.9-1.1-1.2-2.4-1.7-5.8-1.8-8.4-.3 1.7-1.4 3.1-3.1 4.2-4.9.6-.9 1-2 .6-3-.6-1.4-2.7-1.4-4.1-.9-.7.2-1.9 5.3-2.6 5.6.2-.7.6-6.4.1-7-1-1.5-3.5-.7-4.2.9z" style="clip-path:url(#SVGID_2_)"/>
    <path d="M71.7 66.1c.5 1.3 1.6 2.6 3 2.6 1.5 0 2.7-1.4 2.7-2.8 0-1.5-1.2-2.8-2.7-3-.5-.1-1-.1-1.5.1-.9.3-1.6 1.3-1.7 2.3s.6 2 1.5 2.4l-1.3-1.6z" style="clip-path:url(#SVGID_2_);fill:#6b74b5"/>
    <defs>
        <path id="SVGID_3_" d="M83.4 180.5c-.5-10.2-4.3-43.1-5.3-53.3-.5-5.5-1.1-10.9-2.4-16.3-1.2-4.8-3-9.5-4.5-14.2-.2-.6-.3-1.1-.5-1.7 3.5-4.2 5.1-8.7 5.8-14.8.7-6.5-9.8-11.7-14-9.1l-4.7-3.2c-3.2-5.2-6-9.5-9.6-15.6-2.1-5.4-8.4-11.9-14.1-11.2-5.2.6-9.5 7.2-10.8 12.7C21 59 20.8 65.4 22 71.2c1.6 8.4 5.7 16.1 8.5 24.2.5 1.5 1 2.9 1.1 4.5.2 2.6-3.7 8.7-4.3 11.2-4.8 18.4-10.1 45.4-8.6 68.8 0 .8 50.7 10.4 63.4 3.2.5-.3 1-.6 1.2-1.1.2-.4.2-1 .1-1.5z"/>
    </defs>
    <clipPath id="SVGID_4_">
        <use xlink:href="#SVGID_3_" style="overflow:visible"/>
    </clipPath>
    <path d="M17.9 140.2c1.4-3.6 3.6-6.8 6.4-9.4 1-.9 2.4-1.7 3.4-.9.9.7.6 2.2.2 3.3-1.1 3.1-2.6 6.1-4.5 8.8 2-3.2 6.1-4.8 9.7-3.9 1.4.4 2.8 1.2 3.2 2.6.7 2.3-1.7 4.3-3.9 5.2a22.7 22.7 0 0 1-8.1 1.8c3.3 1.1 6.1 3.8 7.4 7.1.6 1.5.7 3.4-.5 4.4-1 .8-2.4.6-3.6.2-2.9-1-5.5-3.2-6.9-6 2.3 2.3 3.1 6.2 1.8 9.2-.6 1.4-1.8 2.7-3.3 2.5-.6-.1-1.1-.4-1.6-.7-2-1.5-2.8-4.3-2.6-6.8.2-2.5 1.3-4.9 2.5-7.1l.4-10.3z" style="clip-path:url(#SVGID_4_);fill:#9ea8db"/>
    <g class="st12">
        <path class="st9" d="M74.5 133.6c-.7-.3-7.1 1.5-7.9 1.4.3-.1 10.6-5.3 10.2-7.6-.5-2.8-4.3-3.7-6.8-2.4-2.5 1.3-3.8 4-5 6.6.7-3.1 1.2-6.3 1.3-9.5.1-1.2 0-2.5-.8-3.3-.9-.8-2.3-.8-3.3-.2-1 .6-1.7 1.6-2.2 2.7-1.6 3.2-2.1 6.8-1.4 10.3-1.3-2.9-3.1-5.6-5.3-8-.5-.5-1-1-1.6-1.2-1.2-.4-2.6.6-3 1.8-.5 1.2-.3 2.5 0 3.8.5 2.1 7 6.3 8.3 8-1.3-.4-8.1-3.1-9.4-3-1.8.2-3.6 1.3-3.9 3-.4 2.2 1.8 4.1 4 4.4 1 .1 7-2.2 8-2.4-.7.7-6.4 3.7-7 4.4-1.3 1.7-2.3 4.4-.7 5.7 1 .8 2.5.7 3.7.2 2.2-.9 6.7-5.8 7.6-8-.5 1.9-3.4 7.1-3.1 9 .1 1.2.5 2.4 1.2 3.4.8.9 2.1 1.5 3.3 1 .7-.3 1.2-.9 1.6-1.5 2.2-3.2 2.3-7.6.4-10.9 1.8 2.2 4 4 6.4 5.5 1.2.7 2.6 1.4 3.9.8 1.8-.8 1.8-3.5 1.2-5.4-.3-1-6.9-2.5-7.3-3.4 1 .3 8.3.8 9.1.2 1.6-1.1.5-4.3-1.5-5.4z"/>
    </g>
    <path class="st13" d="M60.2 132.1c-1.8.6-3.4 2.1-3.4 4s1.8 3.6 3.7 3.6c1.9 0 3.6-1.6 3.9-3.5.1-.7.1-1.4-.2-2-.5-1.2-1.7-2.1-3-2.2-1.3 0-2.6.8-3.1 1.9l2.1-1.8z"/>
    <g class="st12">
        <path class="st9" d="M38.9 181.8c.6-.2 3.1-4.7 3.5-5.1-.1.2-2.9 8.7-1.4 9.7 1.8 1.2 4.4-.3 5-2.4.6-2.1-.1-4.3-.8-6.3 1.3 2.1 2.8 4.1 4.5 5.9.6.7 1.4 1.4 2.3 1.4.9 0 1.7-.8 1.9-1.7.2-.9 0-1.8-.3-2.7-.9-2.6-2.6-4.9-4.9-6.4 2.3.9 4.8 1.4 7.2 1.4.5 0 1.1 0 1.5-.2.9-.5 1.1-1.7.7-2.6-.4-.9-1.2-1.5-2.1-2-1.4-.8-7.3.4-8.9.1.9-.5 6.1-2.7 6.7-3.5.9-1 1.2-2.7.5-3.8-1-1.4-3.2-1.3-4.5-.2-.6.5-2.6 5-3 5.7 0-.8 1.5-5.5 1.4-6.2-.2-1.6-1.1-3.6-2.8-3.5-1 .1-1.7 1-2.1 1.9-.7 1.7-.5 6.8.3 8.5-.7-1.3-2-5.7-3.2-6.6-.7-.6-1.6-1.1-2.5-1.2-.9-.1-2 .4-2.3 1.2-.2.5-.2 1.1-.1 1.7.5 2.9 2.9 5.4 5.7 6.1-2.2-.2-4.4 0-6.5.5-1 .2-2.2.7-2.5 1.7-.5 1.5.9 2.8 2.3 3.6.7.4 5.1-2.4 5.8-2.1-.7.4-5 4.1-5.1 4.9-.3 1.6 2.1 2.8 3.7 2.2z"/>
    </g>
    <path class="st13" d="M47.5 174.8c.6-1.3.7-3-.3-4-1-1.1-2.9-1-3.9.1s-1.1 2.8-.2 4.1c.3.4.7.8 1.2 1 .9.4 2.1.2 2.8-.5.7-.7 1-1.8.6-2.8l-.2 2.1z"/>
    <g class="st12">
        <path class="st9" d="M71.6 186.7c.9-.3 4.7-7.2 5.4-7.8-.2.3-4.4 13.3-2.2 14.8 2.7 1.9 6.7-.5 7.7-3.7.9-3.2-.2-6.6-1.3-9.7 2 3.2 4.3 6.3 6.9 9.1.9 1 2.1 2.1 3.5 2.1s2.6-1.3 2.9-2.6c.4-1.4.1-2.8-.4-4.1-1.3-4-4-7.5-7.5-9.8 3.5 1.3 7.3 2.1 11.1 2.2.8 0 1.6 0 2.3-.4 1.3-.7 1.7-2.6 1.1-4-.6-1.4-1.9-2.4-3.2-3.1-2.2-1.3-11.2.6-13.6.2 1.4-.7 9.4-4.2 10.4-5.4 1.3-1.6 1.9-4.1.7-5.8-1.5-2.1-4.9-2-7-.4-.9.7-4.1 7.7-4.6 8.7 0-1.2 2.3-8.4 2.1-9.6-.3-2.5-1.7-5.6-4.3-5.3-1.5.1-2.6 1.5-3.2 2.9-1.1 2.6-.7 10.5.4 13.1-1.1-2-3.1-8.7-4.9-10.2-1.1-.9-2.4-1.7-3.9-1.8-1.4-.1-3 .6-3.6 1.9-.3.8-.3 1.7-.1 2.6.8 4.5 4.4 8.3 8.8 9.4-3.3-.3-6.7 0-10 .7-1.6.4-3.3 1-3.9 2.6-.8 2.2 1.4 4.4 3.5 5.6 1 .6 7.8-3.7 8.9-3.3-1.1.6-7.6 6.3-7.8 7.5-.3 2.7 3.2 4.5 5.8 3.6z"/>
    </g>
    <path class="st13" d="M84.8 176c1-2 1.1-4.6-.4-6.2-1.6-1.6-4.5-1.5-6.1.1-1.6 1.6-1.7 4.4-.4 6.2.5.7 1.1 1.2 1.8 1.5 1.4.6 3.2.4 4.3-.7s1.5-2.8 1-4.3l-.2 3.4z"/>
    <g class="st12">
        <path class="st9" d="M23.5 117.2c.9-.3 4.7-7.2 5.4-7.8-.2.3-4.4 13.3-2.2 14.8 2.7 1.9 6.7-.5 7.7-3.7.9-3.2-.2-6.6-1.3-9.7 2 3.2 4.3 6.3 6.9 9.1.9 1 2.1 2.1 3.5 2.1s2.6-1.3 2.9-2.6c.4-1.4.1-2.8-.4-4.1-1.3-4-4-7.5-7.5-9.8 3.5 1.3 7.3 2.1 11.1 2.2.8 0 1.6 0 2.3-.4 1.3-.7 1.7-2.6 1.1-4-.6-1.4-1.9-2.4-3.2-3.1-2.2-1.3-11.2.6-13.6.2 1.4-.7 9.4-4.2 10.4-5.4 1.3-1.6 1.9-4.1.7-5.8-1.5-2.1-4.9-2-7-.4-.9.7-4.1 7.7-4.6 8.7 0-1.2 2.3-8.4 2.1-9.6-.3-2.5-1.7-5.6-4.3-5.3-1.5.1-2.6 1.5-3.2 2.9-1.1 2.6-.7 10.5.4 13.1-1.1-2-3.1-8.7-4.9-10.2-1.1-.9-2.4-1.7-3.9-1.8-1.4-.1-3 .6-3.6 1.9-.3.8-.3 1.7-.1 2.6.8 4.5 4.4 8.3 8.8 9.4-3.3-.3-6.7 0-10 .7-1.6.4-3.3 1-3.9 2.6-.8 2.2 1.4 4.4 3.5 5.6 1 .6 7.8-3.7 8.9-3.3-1.1.6-7.6 6.3-7.8 7.5-.3 2.6 3.3 4.5 5.8 3.6z"/>
    </g>
    <path class="st13" d="M36.8 106.5c1-2 1.1-4.6-.4-6.2-1.6-1.6-4.5-1.5-6.1.1-1.6 1.6-1.7 4.4-.4 6.2.5.7 1.1 1.2 1.8 1.5 1.4.6 3.2.4 4.3-.7 1.1-1.1 1.5-2.8 1-4.3l-.2 3.4z"/>
    <g class="st12">
        <path class="st9" d="M66.2 110c.9-.3 4.7-7.2 5.4-7.8-.2.3-4.4 13.3-2.2 14.8 2.7 1.9 6.7-.5 7.7-3.7.9-3.2-.2-6.6-1.3-9.7 2 3.2 4.3 6.3 6.9 9.1.9 1 2.1 2.1 3.5 2.1s2.6-1.3 2.9-2.6c.4-1.4.1-2.8-.4-4.1-1.3-4-4-7.5-7.5-9.8 3.5 1.3 7.3 2.1 11.1 2.2.8 0 1.6 0 2.3-.4 1.3-.7 1.7-2.6 1.1-4-.6-1.4-1.9-2.4-3.2-3.1-2.2-1.3-11.2.6-13.6.2 1.4-.7 9.4-4.2 10.4-5.4 1.3-1.6 1.9-4.1.7-5.8-1.5-2.1-4.9-2-7-.4-.9.7-4.1 7.7-4.6 8.7 0-1.2 2.3-8.4 2.1-9.6-.3-2.5-1.7-5.6-4.3-5.3-1.5.1-2.6 1.5-3.2 2.9-1.1 2.6-.7 10.5.4 13.1-1.1-2-3.1-8.7-4.9-10.2-1.1-.9-2.4-1.7-3.9-1.8-1.4-.1-3 .6-3.6 1.9-.3.8-.3 1.7-.1 2.6.8 4.5 4.4 8.3 8.8 9.4-3.3-.3-6.7 0-10 .7-1.6.4-3.3 1-3.9 2.6-.8 2.2 1.4 4.4 3.5 5.6 1 .6 7.8-3.7 8.9-3.3-1.1.6-7.6 6.3-7.8 7.5-.3 2.6 3.2 4.5 5.8 3.6z"/>
    </g>
    <path class="st13" d="M79.5 99.3c1-2 1.1-4.6-.4-6.2-1.6-1.6-4.5-1.5-6.1.1-1.6 1.6-1.7 4.4-.4 6.2.5.7 1.1 1.2 1.8 1.5 1.4.6 3.2.4 4.3-.7 1.1-1.1 1.5-2.8 1-4.3l-.2 3.4z"/>
    <g class="st12">
        <path class="st9" d="M29.5 71.7c.9-.3 4.7-7.2 5.4-7.8-.2.3-4.4 13.3-2.2 14.8 2.7 1.9 6.7-.5 7.7-3.7.9-3.2-.2-6.6-1.3-9.7 2 3.2 4.3 6.3 6.9 9.1.9 1 2.1 2.1 3.5 2.1s2.6-1.3 2.9-2.6c.4-1.4.1-2.8-.4-4.1-1.3-4-4-7.5-7.5-9.8 3.5 1.3 7.3 2.1 11.1 2.2.8 0 1.6 0 2.3-.4 1.3-.7 1.7-2.6 1.1-4-.6-1.4-1.9-2.4-3.2-3.1-2.2-1.3-11.2.6-13.6.2 1.4-.7 9.4-4.2 10.4-5.4 1.3-1.6 1.9-4.1.7-5.8-1.5-2.1-4.9-2-7-.4-.9.7-4.1 7.7-4.6 8.7 0-1.2 2.3-8.4 2.1-9.6-.3-2.5-1.7-5.6-4.3-5.3-1.5.1-2.6 1.5-3.2 2.9-1.1 2.6-.7 10.5.4 13.1-1.1-2-3.1-8.7-4.9-10.2-1.1-.9-2.4-1.7-3.9-1.8-1.4-.1-3 .6-3.6 1.9-.3.8-.3 1.7-.1 2.6.8 4.4 4.4 8.2 8.8 9.4-3.3-.3-6.7 0-10 .7-1.6.4-3.3 1-3.9 2.6-.8 2.2 1.4 4.4 3.5 5.6 1 .6 7.8-3.7 8.9-3.3-1.1.6-7.6 6.3-7.8 7.5-.3 2.6 3.2 4.5 5.8 3.6z"/>
    </g>
    <path class="st13" d="M42.7 61c1-2 1.1-4.6-.4-6.2-1.6-1.6-4.5-1.5-6.1.1-1.6 1.6-1.7 4.4-.4 6.2.5.7 1.1 1.2 1.8 1.5 1.4.6 3.2.4 4.3-.7 1.1-1.1 1.5-2.8 1-4.3l-.2 3.4zm-23.3 81.9c-1.8.6-3.4 2.1-3.4 4s1.8 3.6 3.7 3.6c1.9 0 3.6-1.6 3.9-3.5.1-.7.1-1.4-.2-2-.5-1.2-1.7-2.1-3-2.2-1.3 0-2.6.8-3.1 1.9l2.1-1.8z"/>
    <path class="st14" d="M38.7 130c0 .6-.5 1-1 1-.6 0-1-.5-1-1 0-.6.5-1 1-1 .6 0 1 .4 1 1zm18.5-16.1c0 .6-.5 1-1 1-.6 0-1-.5-1-1 0-.6.5-1 1-1s1 .4 1 1zm-2-31.1c0 .6-.5 1-1 1s-1-.5-1-1 .5-1 1-1 1 .4 1 1z"/>
    <circle class="st14" cx="40.8" cy="150.2" r="1"/>
    <path class="st14" d="M59.6 162.6c0 .6-.5 1-1 1-.6 0-1-.5-1-1 0-.6.5-1 1-1 .6-.1 1 .4 1 1zm-31.5 11.1c0 .6-.5 1-1 1-.6 0-1-.5-1-1 0-.6.5-1 1-1s1 .4 1 1z"/>
    <path class="st4" d="M88.2 78.8c-.9-3.2-2.8-10.4-4.7-10-1.6.4 1 6.1 1 7.7-3.1-2.1-9.9-9.8-10.7-8.8-.6.7 5.2 7.7 7.2 9.3-2.6-3-5.3-6-8.8-7.8-.7-.4-1.4.5-.9 1.1 2.1 2.9 4.6 5.6 7.3 7.9-2.4-2.5-3.6-4.6-6.6-6.4-.5-.3-1.2.3-.8.8 1.8 3.1 3.2 5.3 5.9 7.7-1.3-1.7-3-3.1-5-4-.6-.3-1.3.5-.8 1 1.7 2.1 3.3 4.1 5.4 5.7 2.1 1.6 4.7 2.7 7.3 2.5 2.6-.2 5.2-1.9 6-4.4.6-2-.1-5.9-4.1-8.5l2.3 6.2z"/>
    <path class="st5" d="M73.5 68.1c.1.6.4 1.1.8 1.5.4.5.7 1 1.1 1.5.7 1 1.5 1.9 2.3 2.8l1.5 1.5c.1.1.3-.1.2-.2-1.8-1.6-3.2-3.5-4.7-5.5-.4-.5-.8-1-.9-1.7 0-.2-.3-.1-.3.1zM71 69.9c1.6 2.2 3.4 4.1 5.4 5.9.6.5 1.1 1 1.7 1.4.1.1.4-.1.2-.2-2.1-1.6-4-3.5-5.7-5.5-.5-.6-.9-1.2-1.4-1.8 0-.1-.3.1-.2.2zm-.2 2.4c1.1 2.1 2.3 4.3 3.9 6.2.4.5.9 1 1.4 1.5.1.1.4-.1.2-.2-1.8-1.6-3.2-3.6-4.3-5.8-.3-.6-.6-1.2-1-1.8 0-.2-.3-.1-.2.1z"/>
    <path class="st5" d="M75.7 81c1.3-1.6 2.6-3.3 3.8-5.1.3-.5.7-1 1-1.5.1-.2-.2-.3-.3-.1-1.1 1.8-2.3 3.5-3.6 5.1-.4.5-.7.9-1.1 1.4-.2.2 0 .4.2.2zm9.5-10.4c1 2.6 1.7 5.3 2.2 8.1.1.8.2 1.6.3 2.3 0 .2.3.2.3 0-.3-2.8-.9-5.6-1.8-8.2-.2-.8-.5-1.5-.8-2.3 0-.1-.2 0-.2.1z"/>
    <path class="st2" d="M58 41.4c-1.5.1-3 .7-4.2 1.6-1 .7-1.9 1.5-2.7 2.3-1.4 1.4-2.6 3.2-3.1 5.1-.6 2.4 0 5 1.5 7 1 1.3 2.3 2.2 3.6 3.1.8.5 1.7 1 2.6 1.4 2.5.8 5.2.1 7.7-.8 1.6-.6 3.2-1.3 4.8-2 1.2-.5 2.5-1.1 3.3-2.1.7-.8.9-1.9 1.1-3 .6-3.8-.6-8.1-3.9-10.1-1.1-.7-2.3-1-3.6-1.3-2.4-.5-4.7-.9-7.1-1.2z"/>
    <path class="st2" d="M64.1 42.8c3.5-6.4 7.1-13 12.6-17.8 1.4-1.2 3.2-2.4 4.9-1.7 1.5.6 2.1 2.3 2.3 3.8.2 2.4-.4 4.8-1.6 6.9-1.1 2.1-2.6 4-4.2 5.8-1.5 1.7-3.2 3.4-5.1 4.7-2 1.2-4.3 2-6.6 1.8l-2.3-3.5z"/>
    <path class="st3" d="M67.3 59.1c1.5-1.3 2.7-2.9 3.3-4.8.6-1.9.4-4-.7-5.7-1.1-1.7-3.1-2.7-5.1-2.4-2.7.4-4.4 5.1-5.4 7.6-.2.5-1.8 0-2.3-.2.3-1.9.3-3.9-.1-5.8-.1-.8-.4-1.6-1.1-2-.6-.3-1.3-.2-1.9 0-2 .8-3.3 2.9-3.8 5-.4 2.1-.2 4.3.2 6.5.1.5.2 1.1.5 1.5.5.7 1.5 1.6 2.3 2.1 1 .6 1.8 1 2.9 1.2.6.1 1.2 0 1.8-.1 3.4-.6 6.6-1.6 9.7-2.9h-.3z"/>
    <path class="st2" d="M70.1 59c-.2-.6-.8-1.1-1.4-1.2-1.3-.3-2.7 0-4 .5-1.6.7-2.7 1.3-4.4 1.9-3 1.1-6.7 1.2-9.9 1.8-2.7.6-5.3 1.9-7.3 3.7-1.6 1.5-3 4-1.7 5.8 1.1 1.5 3.5 1.4 5.3.9 4-.9 7.8-2.5 11.8-3 2.6-.3 5.4-.2 7.6-1.6 2.5-1.6 3.4-4.8 4-7.8.2-.3.1-.7 0-1z"/>
    <path class="st3" d="M68.2 43.2c-.1-.2-.2-.3-.2-.5-.4-1.9.4-3.8 1.2-5.6 2-4.1 4.9-7.9 8.4-10.9.5-.4 1-.9 1.7-1.1.6-.2 1.4-.1 1.9.3.4.4.5 1.1.6 1.7.1 2.9-.8 5.7-2.5 8-.6.9-1.4 1.6-2.2 2.4l-3.3 3.3c-1.2 1.2-2.6 2.5-4.2 2.8-.6.3-1.1 0-1.4-.4zm-9.1 7.9c.3-.3.4-.8.3-1.2 0-.1-.1-.1-.1-.1-.1 0-.1.1-.1.1.1.3 0 .7-.3 1v.2h.2zm2.1-4.9c-.1.2-.2.5-.2.7 0 .1 0 .1.1.1s.1 0 .1-.1c.1-.2.2-.5.2-.7 0-.1 0-.1-.1-.1s-.1 0-.1.1z"/>
    <path class="st2" d="M73.4 55.6c-.4-.5-.8-1.1-1.2-1.6-.1-.1-.3 0-.2.1.4.5.8 1.1 1.2 1.6.1.2.3.1.2-.1zm-.5 1.2c-.4-.5-.8-.9-1.2-1.4-.1-.1-.3 0-.2.2.4.5.8.9 1.2 1.4.2 0 .3-.1.2-.2zm.4-8.6c-.6.1-1.2.3-1.9.4-.1 0-.1.3.1.2.6-.1 1.2-.3 1.9-.4.1 0 0-.2-.1-.2zm-.7-1c-.5.1-.9.2-1.4.3-.1 0-.1.2.1.2.5-.1.9-.2 1.4-.3.1 0 0-.2-.1-.2zm11.3-22.8c-.6.4-1.2.9-1.6 1.5-.1.1.1.2.2.1.4-.6.9-1.1 1.5-1.4.1-.1 0-.3-.1-.2zm-.7-.9c-.5.3-.9.7-1.2 1.2-.1.1.1.2.2.1.3-.4.7-.8 1.1-1.1.1-.1 0-.3-.1-.2zm-3.3.8c.1-.6 0-1.3-.2-1.9 0-.1-.3-.1-.2.1.2.6.3 1.2.2 1.8-.1.1.2.1.2 0zm-8.6 1.2c-.5.2-.9.5-1.4.7-.1.1 0 .3.1.2.5-.2.9-.5 1.4-.7.1-.1 0-.3-.1-.2zm.2-3c-.5.3-.9.6-1.4.9-.1.1 0 .3.1.2.5-.3.9-.6 1.4-.9.1-.1 0-.3-.1-.2z"/>
    <path d="M62.9 52.4c0 .8.7 1.5 1.5 1.5s1.5-.7 1.5-1.5-.7-1.5-1.5-1.5-1.5.6-1.5 1.5zM52 51.2c0 .8.7 1.5 1.5 1.5S55 52 55 51.2s-.7-1.5-1.5-1.5-1.5.6-1.5 1.5zm8 6c-.3.4-.8 1-1.4.7-.2-.1-.4-.4-.4-.6-.1-.3-.1-.6-.1-.9v-1.3c0-.1-.2-.2-.2 0-.1.6-.4 1.2-.9 1.6-.4.4-1 .5-1.5.2-.3-.2-.5-.4-.5-.7 0-.1-.3-.1-.2.1.2.6.7 1 1.4 1s1.2-.5 1.5-1.1c.2-.4.4-.7.5-1.2H58c0 .4-.1.9 0 1.3 0 .4.1.7.2 1 .1.3.3.6.5.7.3.2.6.1.9 0 .3-.2.6-.5.8-.8-.1 0-.3-.1-.4 0z"/>
    <path d="M59.8 54.3c-.2.4-.8.1-1.1.4-.2.1-.3.4-.4.6-.1.2-.3.5-.6.4-.2-.1-.3-.3-.4-.6s0-.5-.1-.7c-.1-.2-.3-.3-.4-.5v-.2c.1-.1.2-.2.3-.2.8-.1 1.7.1 2.5.4.2.1.3.3.2.4zm-.8 1.6h.1-.2c0-.1 0-.1.1 0-.1 0-.1 0 0 0-.1 0 0 0 0 0zm0 1.3c0-.1 0-.1 0 0l.1-.1H59l-.1.1h.1c-.1 0-.1 0 0 0zm-4.2-1.5c.1 0 .1 0 0 0h.1-.2.1zm1.1.9s.1 0 0 0h.1-.2.1c-.1 0-.1 0 0 0z"/>
    <path class="st2" d="M72.7 52.5c0 3.2 0 6.4-1.3 9.3-1.3 2.9-4.2 5.2-7.4 5 3.4-3.6 5.9-8.1 7.2-12.9l1.5-1.4z"/>
    <path class="st15" d="M64.5 48.3c1 .5 2.1 1 2.9 1.9-.4-1.2-1.3-2.2-2.5-2.7l-.4.8zm-9.3-1.4c-1 .5-2.1 1-2.9 1.9.3-1.2 1.3-2.2 2.4-2.6l.5.7z"/>
    <path d="M65.1 52.6c-.1.1-.1.1 0 0-.1.1-.1.1 0 0l-.1.1-.1.1c-.1 0-.1.1-.2.1h-.1c-.1 0-.1.1-.1.1 0 .1.1.1.1.1.3-.1.5-.3.7-.5v-.2c-.1.2-.2.2-.2.2zm-10.8-1.3s0 .1 0 0c-.1.1-.1.2-.1.2l-.1.1-.1.1s-.1 0-.1.1h-.3c-.1 0-.1.1-.1.1 0 .1.1.1.1.1.4 0 .8-.3.9-.7 0-.1 0-.1-.1-.1 0 0-.1 0-.1.1zm4.3 2.8c-.4-.1-.7-.2-1.1-.3-.1 0-.2.2-.1.2.4.1.7.2 1.1.3.2 0 .2-.2.1-.2z" style="fill:#fff"/>
    <path class="st3" d="M58.6 48.8c-.1.3-.1.5-.2.8 0 .1 0 .1.1.1s.1 0 .1-.1c.1-.3.1-.5.2-.8 0-.1 0-.1-.1-.1l-.1.1zm.1-2-.3.6v.2h.2l.3-.6v-.2c-.1-.1-.1-.1-.2 0zm1.4 1.7c0 .2-.1.3-.1.5 0 .1 0 .1.1.1s.1 0 .1-.1c.1-.2.1-.3.2-.5 0-.1 0-.1-.1-.1s-.2 0-.2.1zm-.6-3.4c-.1.2-.1.3-.2.5 0 .1 0 .1.1.1s.1 0 .1-.1c.1-.2.1-.3.2-.5 0-.1 0-.1-.1-.1 0 0-.1 0-.1.1zm6-.6v.8c0 .1.1.1.1.1.1 0 .1-.1.1-.1v-.8c0-.1-.1-.1-.1-.1-.1 0-.1.1-.1.1zm-.9 0v.3c0 .1.1.1.1.1.1 0 .1 0 .1-.1v-.3c0-.1-.1-.1-.1-.1-.1 0-.1.1-.1.1zm-8.2-.8c-.2.2-.2.5-.2.7 0 .1.1.1.1.1.1 0 .1-.1.1-.1v-.6c.2-.2.1-.2 0-.1zm-1.5.5c-.1.2-.1.3-.2.5 0 .1 0 .1.1.1s.1 0 .1-.1c.1-.2.1-.3.2-.5 0-.1 0-.1-.1-.1s-.1 0-.1.1z"/>
    <path class="st15" d="M46 68.4c-1.2.8-2.3 1.8-3.4 2.9-.1.1.1.3.2.2 1-1 2.1-2 3.3-2.8.1-.2 0-.4-.1-.3zm-1.4-.7c-1 .6-1.9 1.4-2.7 2.2l-.7.7c-.1.1.1.3.2.2.8-.9 1.6-1.7 2.6-2.4.3-.2.5-.4.8-.6 0 0-.1-.2-.2-.1zm26-9.4c-1.5-1-3.4-1-5.1-.5-1.9.5-3.6 1.6-5.4 2.4-1 .4-2.1.8-3.2.9-.1 0-.1.2 0 .2 2-.2 3.7-1.1 5.5-2 1.7-.8 3.4-1.7 5.4-1.6 1 0 2 .3 2.8.8.1.1.2-.1 0-.2zm-8.8 8.9c-.5.4-1.1.7-1.8.8-.1 0-.1.2 0 .2.7-.1 1.4-.4 1.9-.8.2-.1 0-.3-.1-.2zm-2.2.3-.6.3c-.1 0-.1.1 0 .2 0 .1.1.1.2 0l.6-.3c.1 0 .1-.1 0-.2h-.2zm-2.2-.4c-.3.2-.6.3-1 .3-.1 0-.1 0-.1.1s0 .1.1.1c.4.1.9 0 1.2-.3v-.2c-.1-.1-.2-.1-.2 0zm-2.2-1.6c-.1.1-.2.1-.3.2l-.1.1v.1c0 .1.1.1.2 0s.2-.1.3-.2l.1-.1v-.1h-.2zm8.8-.1c-.4.2-.8.3-1.2.5-.1 0-.1.1-.1.1 0 .1.1.1.1.1.4-.2.8-.3 1.2-.5.1 0 .1-.1.1-.1.1-.1 0-.2-.1-.1zm8.6-24.8c-.3.4-.6.7-.9 1.1v.2h.2c.3-.4.6-.7.9-1.1v-.2c-.1 0-.1-.1-.2 0zm-1.5.6c-.2.2-.3.4-.5.6v.2h.2c.2-.2.3-.4.5-.6v-.2h-.2zm-1.3.3s0 .1 0 0c0 .1 0 .1 0 0 0 .1 0 .1 0 0l-.1.1-.1.1s-.1.1-.2.1h-.1c-.1 0-.1.1-.1.1 0 .1.1.1.1.1.3-.1.5-.3.7-.5v-.2c-.1.2-.1.2-.2.2zm-1.1-1c-.1.2-.2.3-.3.5v.2h.2c.1-.2.2-.3.3-.5v-.2c-.1-.1-.1-.1-.2 0zm-4.9-2.7c-.2.4-.4.8-.3 1.3 0 .1.2.1.2 0 0-.4.1-.8.3-1.2.1-.1-.1-.2-.2-.1zm-1.1 2.5c-.1.2-.1.3-.2.5 0 .1 0 .1.1.1s.1 0 .1-.1c.1-.2.1-.3.2-.5 0-.1 0-.1-.1-.1l-.1.1zm-.6.7v.5c0 .1.1.1.1.1.1 0 .1 0 .1-.1V41c0-.1-.1-.1-.1-.1s-.1 0-.1.1zm1.4-5c-.2.3-.2.7-.1 1 0 .1.3.1.2-.1-.1-.3 0-.6.1-.8.1-.1-.1-.2-.2-.1zM80 30.9c-.2.6-.4 1.1-.6 1.7 0 .1.2.2.2.1.2-.6.4-1.1.6-1.7 0-.1-.2-.2-.2-.1zm-1.7 2.6c-.1.1-.1.2-.2.3v.1s0 .1.1.1h.2c.1-.1.1-.2.2-.3v-.1s0-.1-.1-.1h-.2zm-1.2 1.6c-.1.2-.3.4-.4.6v.2h.2c.1-.2.3-.4.4-.6v-.2c-.1-.1-.2-.1-.2 0zm-.8-1.2c-.1.4-.4.7-.8.8-.1 0-.1.1-.1.1 0 .1.1.1.1.1.5-.1.9-.5 1-1 0-.1 0-.1-.1-.1s-.1 0-.1.1zM67 26.8l-.3.9c0 .1 0 .1.1.1s.1 0 .1-.1l.3-.9c0-.1 0-.1-.1-.1l-.1.1zm-1.5 3.4v.3c0 .1.1.1.1.1.1 0 .1 0 .1-.1v-.3c0-.1-.1-.1-.1-.1-.1 0-.1 0-.1.1zm-.8 3.2c-.1.4-.3.8-.6 1.2v.2h.2c.3-.4.5-.8.6-1.3.1-.2-.1-.2-.2-.1z"/>
    <path class="st2" d="M79.6 62.4c-.5-.1-1-.2-1.5-.5-.1-.1-.2.1-.1.2.5.3 1 .4 1.6.5.2.1.2-.1 0-.2zm.2 1.3c-.5-.2-.9-.3-1.4-.5-.1 0-.2.2-.1.2.5.2.9.3 1.4.5.2 0 .2-.2.1-.2zm-2-3.1h-1.5c-.1 0-.1.2 0 .2h1.5c.1 0 .1-.2 0-.2zm-1-.6c-.3.1-.7.2-1 .1-.1 0-.1 0-.1.1s0 .1.1.1c.4.1.8 0 1.2-.2.1 0 .1-.1 0-.2-.1.1-.1.1-.2.1zm5.5 7-1.2-.6c-.1-.1-.2.1-.1.2l1.2.6c.1 0 .2-.2.1-.2zm.9 1.2c-.4-.2-.8-.4-1.2-.7-.1-.1-.2.1-.1.2.4.2.8.4 1.2.7.1 0 .2-.1.1-.2zm-31.9-6.4c-.4-.3-.8-.5-1.2-.8-.1 0-.2.2-.1.3.4.3.8.5 1.2.8.1 0 .3-.2.1-.3zm-1.1.2c-.4-.2-.8-.3-1.2-.5-.1 0-.1 0-.1.1s0 .1.1.1c.4.2.8.3 1.2.5.1 0 .1 0 .1-.1 0 0 0-.1-.1-.1z"/>
    <path class="st0" d="m73.6 95-3.3-2.4c-.1-.1-.2.1-.1.2l3.3 2.4c.2.1.3-.1.1-.2zm-.5 1.2c-1.1-.8-2.1-1.6-3.2-2.4-.1-.1-.2.1-.1.2 1.1.8 2.1 1.6 3.2 2.4.1.1.3-.1.1-.2z"/>
    <path style="opacity:.56;fill:#bf8271" d="m49.7 41-7.8-2.7 6.4 5.6z"/>
    <path class="st7" d="M77.4 51.7c-.3-1-.6-2.1-.4-3.2.2-1 1.2-2 2.3-1.9 1.5.1 2.1 1.9 2.3 3.4.5-1.8 1.3-3.9 3.2-4.5.3-.1.6-.1.9 0 .5.2.7.8.8 1.3.2 2.2-1.2 4.2-2 6.3-1 2.8-.6 6.1 1 8.6 0 0-6.9-6.5-8.1-10zm14-18.2c.2-.5.3-1 .2-1.5-.1-.5-.6-1-1.1-.9-.7.1-1 .9-1.1 1.6-.3-.9-.6-1.9-1.5-2.2-.1 0-.3-.1-.4 0-.2.1-.4.4-.4.6-.1 1.1.6 2 1 3 .5 1.4.3 2.9-.5 4.1 0 .1 3.3-3 3.8-4.7zm-3.6-8.6c-.1-.2-.2-.5-.1-.8.1-.3.3-.5.6-.5.4 0 .5.5.6.8.1-.4.3-1 .8-1.1h.2c.1 0 .2.2.2.3.1.5-.3 1-.5 1.5-.2.7-.1 1.5.2 2.1 0 .2-1.7-1.4-2-2.3z"/>
    <path class="st5" d="M40.9 41.1c0 .7-.3 1.3-.9 1.7-.2.1 0 .4.1.3.6-.4 1-1.2 1-2 .1-.2-.2-.2-.2 0zm1.8 1.9c-.1.2-.1.4-.2.6 0 .1 0 .2.1.2s.2 0 .2-.1c.1-.2.1-.4.2-.6 0-.1 0-.2-.1-.2s-.1.1-.2.1zm-4.8-2c-.1.2-.1.4-.2.6 0 .1 0 .2.1.2s.2 0 .2-.1c.1-.2.1-.4.2-.6 0-.1 0-.2-.1-.2s-.2.1-.2.1z"/>
    <path class="st6" d="M30.2 30.3c-.2 1.7-.9 3.4-2.1 4.7-.3.4-.7.7-1.1 1-.1.1.1.3.2.2 1.4-1.1 2.5-2.7 3-4.5l.3-1.5c0-.1-.3-.1-.3.1zm32.3-18.5c1.1 1.1 1.8 2.6 2.1 4.2.1.4.1.9.1 1.3 0 .2.3.2.3 0 0-1.6-.5-3.3-1.4-4.6-.3-.4-.6-.8-.9-1.1-.1-.1-.3.1-.2.2zm1.8-1.2c1.1 1.1 1.8 2.6 1.8 4.2 0 .2.3.2.3 0 0-1.6-.7-3.2-1.9-4.4-.1-.2-.3 0-.2.2z"/>
    <path class="st1" d="M64.7 18.9c.2 1.5.3 3.1-.2 4.6-.5 1.4-1.6 2.5-1.6 4-.1 1.1.5 2.1.3 3.2-.1.9-.6 1.6-1 2.3-.5.7-1 1.5-1.1 2.3-.1.9.2 1.8 1 2.2-.9-1.1-.2-2.9.7-4 1-1.1 2.2-2.1 2.6-3.5.3-1.1-.1-2.3.1-3.4.2-1.6 1.3-3 2.1-4.4.8-1.4 1.3-3.3.3-4.6-.5-.6-1.2-.9-1.9-.9l-1.3 2.2zM61 2.7c1.8.2 3.7.4 5.3 1.3 1.4.7 2.5 1.9 2.8 3.4.2.9.1 1.8.3 2.7.1.7.5 1.4 1 2 .4.5.9 1 1.4 1.5.5.5.9 1 1.1 1.6.7 1.7-.3 3.3-1.3 4.6-.1.2-.3.3-.4.5-.1.1.1.4.2.2 1.1-1.3 2.3-2.9 2-4.7-.3-1.4-1.4-2.4-2.4-3.4-.5-.5-.9-1.1-1.1-1.7-.3-.9-.3-1.9-.4-2.8-.1-.8-.3-1.6-.8-2.3C68.2 5 67.6 4.4 67 4c-1.6-1-3.4-1.3-5.3-1.5-.2 0-.5-.1-.7-.1-.2 0-.2.3 0 .3z"/>
    <path class="st15" d="M78.1 65.3c.1.3.3.7.4 1 0 .1.1.1.2.1s.1-.1.1-.2c-.1-.3-.3-.7-.4-1 0-.1-.1-.1-.2-.1-.1.1-.1.1-.1.2zm1.2.5c0 .1.1.1.1.2 0 0 0 .1.1.1v.1c.1.2.1.3.1.5 0 .1.1.1.2.1s.1-.1.1-.2c0-.3-.2-.7-.4-.9 0-.1-.1-.1-.2-.1v.2zm-2.6-2.9c.1.3.3.6.4.9 0 .1.1.1.2.1s.1-.1.1-.2c-.1-.3-.3-.6-.4-.9 0-.1-.1-.1-.2-.1-.1.1-.1.2-.1.2zm3.2 5.7c0 .4.1.9.3 1.3.1.2.3 0 .3-.1-.2-.3-.3-.7-.3-1.1 0-.3-.3-.3-.3-.1zm-3.2 17.9c-.1.3-.1.6-.2 1 0 .1 0 .2.1.2s.2 0 .2-.1c.1-.3.1-.6.2-1 0-.1 0-.2-.1-.2s-.2 0-.2.1zm1.4.7c-.2.2-.3.5-.2.7 0 .1.1.1.2.1s.1-.1.1-.2v-.4c.1-.1.1-.2 0-.2h-.1zm1-.1c-.1.2-.1.4-.1.6 0 0 0 .1.1.1h.1s.1 0 .1-.1v-.6c0-.1 0-.2-.1-.2 0 .1-.1.1-.1.2z"/>
    <path class="st2" d="M74.3 93.6c.3-1.4 1.4-2.6 2.6-3.4 1.3-.7 2.7-1.1 4.2-1.3 1.6-.2 3.4-.4 4.4-1.7-.7 1.9-1.4 3.8-2.7 5.4-1.3 1.6-3.1 2.8-5.1 2.9-.8 0-1.6-.1-2.2-.5-.7-.4-1.1-1.1-1.1-1.9l-.1.5z"/>
    <path class="st15" d="M74.5 93.4c.8-1.8 2.4-3.2 4.2-3.8.5-.2 1-.3 1.6-.4.1 0 .1-.1.1-.1 0-.1-.1-.2-.1-.1-2 .3-3.9 1.3-5.1 2.9-.4.4-.7.9-.9 1.4-.1.1.1.3.2.1z"/>
    <path class="st15" d="M75.1 93.7c.1-.6.5-1.1 1.1-1.4.2-.1 0-.3-.1-.3-.6.3-1.1.9-1.2 1.6-.1.2.2.2.2.1zm.9.3c.2-.3.5-.6.7-.8.1-.1.1-.2 0-.2-.1-.1-.2-.1-.2 0-.2.3-.5.6-.7.8-.1.1-.1.2 0 .2 0 .1.1.1.2 0zm.9.6.2-.2v-.2l-.1-.1h-.1l-.2.2v.2l.1.1h.1zm4.8-1.2c.4-.3.8-.6 1-1 0-.1 0-.2-.1-.2s-.2 0-.2.1c-.2.3-.6.7-.9.9-.1 0-.1.1-.1.2h.3zm-.6-.9c.3-.2.5-.5.8-.7.1-.1.1-.2 0-.2-.1-.1-.1-.1-.2 0-.3.2-.5.5-.8.7-.1.1-.1.2 0 .2.1.1.2.1.2 0z"/>
    <path class="st18" d="M60.1 70.4c.1 3.2.3 6.4.4 9.6 0 .9.1 1.8.1 2.7 0 .2.1.3.3.3.2 0 .3-.1.3-.3-.1-3.2-.3-6.4-.4-9.6 0-.9-.1-1.8-.1-2.7 0-.2-.1-.3-.3-.3-.1 0-.3.1-.3.3z"/>
    <path class="st18" d="M60.1 70.5c.4 1.6.9 3.2 1.2 4.8.4 1.6.7 3.2 1.1 4.8.2.9.3 1.8.5 2.7 0 .2.2.2.4.2s.2-.2.2-.4l-.9-4.8c-.3-1.6-.7-3.2-1.1-4.8-.2-.9-.5-1.8-.7-2.7-.2-.4-.8-.2-.7.2zM30 61.9c1.6 3.6 3.1 7.3 4.9 10.8 1.8 3.5 3.8 6.8 6.2 9.9 2.3 2.9 5 5.6 8.1 7.6 3 2 6.4 3.4 9.9 4.1 3.4.7 7.1.6 10.4-.5.4-.1.8-.3 1.2-.4.1-.1.2-.2.2-.4 0-.1-.2-.3-.4-.2-3.2 1.3-6.8 1.6-10.2 1.1-3.5-.5-6.8-1.8-9.9-3.6-3.1-1.9-5.9-4.3-8.2-7.2-2.5-3-4.5-6.3-6.4-9.7-1.8-3.4-3.4-7-4.9-10.6-.2-.4-.4-.9-.6-1.3-.1-.1-.3-.2-.4-.1 0 .2 0 .4.1.5zm2.1 38.6c2.7.6 5.4 1.2 8.1 1.7 2.7.5 5.4.9 8.2 1.2 2.6.2 5.2.3 7.7.2 2.5-.1 4.9-.5 7.4-1 2.4-.6 4.7-1.4 6.9-2.5.3-.1.5-.3.8-.4.3-.2 0-.7-.3-.5-2.1 1.2-4.4 2.1-6.7 2.7-2.4.6-4.8 1-7.2 1.2-2.5.2-5 .1-7.6-.1-2.7-.2-5.4-.6-8.1-1.1-2.7-.5-5.3-1.1-8-1.6-.3-.1-.7-.1-1-.2-.4-.2-.6.4-.2.4z"/>
    <path class="st18" d="M59.9 100.4c.1.8.3 1.6.4 2.4 0 .2.2.2.4.2s.2-.2.2-.4c-.1-.8-.3-1.6-.4-2.4 0-.2-.2-.2-.4-.2-.2.1-.3.2-.2.4zm2-.6c-.2.7-.1 1.6.4 2.2.1.1.3.2.4.1.1-.1.2-.3.1-.4-.2-.3-.3-.5-.4-.9 0-.3 0-.6.1-.9 0-.2-.1-.3-.2-.4-.2.1-.3.2-.4.3zm-12 3.5c-.5.6-.6 1.5-.4 2.2.1.4.7.2.6-.2 0-.2-.1-.3-.1-.5v-.4c.1-.3.2-.6.4-.9.1-.1 0-.3-.1-.4-.1.1-.3.1-.4.2zm1.7 1.2s.1.1 0 0c.1.1.1.1 0 0l.1.1c0 .1.1.1.1.2v.1c0 .1 0 .1.1.2v.7c0 .1.1.3.2.4.2 0 .3 0 .4-.2.2-.7 0-1.4-.4-1.9-.1-.1-.3-.1-.4 0-.2.1-.2.3-.1.4zm-13.1-2.8c-.6.4-1 1.1-.9 1.8 0 .2.1.3.3.3.1 0 .3-.1.3-.3v-.3c0-.1 0-.1.1-.2v-.2c0-.1.1-.1.1-.2 0 0 0-.1.1-.1 0 .1 0 0 0 0 0-.1.1-.1.2-.1 0 0-.1 0 0 0 0 0 .1 0 .1-.1.1-.1.2-.3.1-.4-.1-.3-.3-.3-.4-.2zm22.6 38.4-3 5.4-3 5.4c-.6 1-1.1 2-1.7 3-.2.3.3.6.5.3l3-5.4 3-5.4c.6-1 1.1-2 1.7-3 .2-.4-.3-.7-.5-.3zm2.5 2.4c-.8 1.8-1.7 3.6-2.5 5.4-.8 1.8-1.7 3.6-2.5 5.4-.5 1-.9 2-1.4 3.1-.1.1 0 .3.1.4.1.1.3 0 .4-.1.8-1.8 1.7-3.6 2.5-5.4.8-1.8 1.7-3.6 2.5-5.4.5-1 .9-2 1.4-3.1.1-.1 0-.3-.1-.4-.2-.1-.4-.1-.4.1z"/>
    <path class="st7" d="M63.2 238.9c.1-1.2 1.6-1.4 2.1-.4.3.8.3 1.7.5 2.6.4 1.6 1.5 2.8 2.9 3.6 1.4.8 2.9 1.1 4.4 1.4 1.6.4 3.6.7 4.8-.5.4-.4.7-.9 1.2-1.2.9-.5 1.9.1 2.8.7 2.1 1.5 4.2 3 6.1 4.8.3.3.7.8.5 1.2-.1.2-.3.3-.4.4-1.7 1-3.9.8-5.8.5-6.3-1-12.3-3-17.9-6-.4-.2-.9-.5-1.1-.9-.4-.6-.4-1.3-.3-2-.1-1.1.1-3 .2-4.2z"/>
    <path class="st18" d="M28.2 63c1 1.6 2.2 3.2 3.5 4.6.4.4.8.8 1.1 1.2.3.3.7-.2.4-.4-1.4-1.3-2.6-2.8-3.7-4.3-.3-.4-.6-.9-.9-1.4-.1-.4-.6-.1-.4.3zm14.7 17.5 1.2 1.8c.1.1.3.2.4.1.1-.1.2-.3.1-.4l-1.2-1.8c-.1-.1-.3-.2-.4-.1-.1.1-.2.3-.1.4zm3.4 2.1c.1.3.3.7.4 1 0 .1.1.1.1.2.1 0 .2.1.2 0 .1 0 .1-.1.2-.1 0-.1.1-.2 0-.2-.1-.3-.3-.7-.4-1 0-.1-.1-.1-.1-.2-.1 0-.2-.1-.2 0-.1 0-.1.1-.2.1v.2zm1.9 3.8c.3.4.7.8 1 1.2.1.1.3.1.4 0 .1-.1.1-.3 0-.4-.3-.4-.7-.8-1-1.2-.1-.1-.3-.1-.4 0-.1.1-.1.2 0 .4zm2.6-1.5c.3.5.8.9 1.4.9.2 0 .3-.1.3-.3 0-.2-.1-.3-.3-.3 0 0 .1 0 0 0h-.3s-.1 0 0 0c-.1 0-.1-.1-.2-.1h-.1c-.1 0 0 0 0 0l-.1-.1-.1-.1c.1.1 0 0 0 0s-.1-.1-.1-.2c-.1-.1-.3-.2-.4-.1-.2 0-.2.2-.1.3zm4.4 4.4c.4.4.9.7 1.5.9.1 0 .3 0 .4-.2 0-.2 0-.3-.2-.4-.1 0-.2-.1-.4-.1-.1 0 0 0 0 0h-.1c-.1 0-.1-.1-.2-.1s-.1-.1-.2-.1c0 0-.1 0-.1-.1 0 0-.1 0 0 0 0 0-.1 0-.1-.1-.1 0-.1-.1-.1-.1-.1-.1-.3-.1-.4 0-.2.1-.2.2-.1.3zm-34.3 89.1c4.1.7 8.3 1.4 12.4 2.1 4.1.7 8.2 1.4 12.4 2.1 2 .3 4.1.6 6.2.8 2.1.2 4.2.3 6.3.3 4.2 0 8.4-.2 12.5-.3 3.3-.1 6.9-.1 9.9-1.9.3-.2.7-.4 1-.7.3-.2-.1-.6-.4-.4-2.7 2.1-6.2 2.3-9.5 2.4-4.1.1-8.2.3-12.3.3-2.1 0-4.1 0-6.2-.2-2.1-.1-4.1-.4-6.1-.7-4.1-.6-8.1-1.4-12.2-2-4.1-.7-8.1-1.4-12.2-2.1l-1.5-.3c-.5 0-.7.5-.3.6zM27 163c.4.9.5 1.9.4 2.9 0 .2.1.3.3.3.2 0 .3-.1.3-.3.1-1 0-2.1-.4-3.1-.1-.1-.2-.2-.4-.2-.1.1-.3.3-.2.4zm2 1.7c-.1.5-.1 1 .2 1.4.1.1.3.2.4.1.1-.1.2-.3.1-.4l-.1-.1c0-.1 0 .1 0 0v-.3s0-.1 0 0v-.3c0-.1 0 .1 0 0v-.2c0-.1 0-.3-.2-.4-.2-.1-.4 0-.4.2zm1.2-7.9c.1.3.1.7.2 1 0 .2.2.3.4.2.2-.1.2-.2.2-.4-.1-.3-.1-.7-.2-1 0-.2-.2-.3-.4-.2-.1.1-.2.3-.2.4zm-5.4 8.4c-.4.9-.6 1.8-.6 2.8 0 .4.6.4.6 0 0-.8.2-1.7.5-2.5.1-.1 0-.3-.1-.4-.1-.1-.3-.1-.4.1zm1.1 6.6c.1.5.3 1.1.4 1.6 0 .1.2.3.4.2.2 0 .2-.2.2-.4-.1-.5-.3-1.1-.4-1.6 0-.1-.2-.3-.4-.2-.1.1-.2.3-.2.4zM76.5 154c.2.5.4.9.6 1.4.1.1.2.3.4.2.1 0 .3-.2.2-.4-.2-.5-.4-.9-.6-1.4-.1-.1-.2-.3-.4-.2-.2.1-.3.3-.2.4zm.4-4.4v.6c0 .1 0 .2.1.2.1.1.1.1.2.1.2 0 .3-.1.3-.3v-.6c0-.1 0-.2-.1-.2-.1-.1-.1-.1-.2-.1-.2 0-.3.1-.3.3zm-.1-6.6.1.1v.1s0-.1 0 0v.2s0-.1 0 0v.2s0-.1 0 0v.1s0-.1 0 0v.1c-.1.1 0 .3.1.4.1.1.3 0 .4-.1.2-.5.2-1.1-.1-1.5 0-.1-.1-.1-.2-.1h-.2c-.1.2-.2.4-.1.5zm-2.8 8.1c.2.8.3 1.6.5 2.4 0 .2.2.2.4.2s.2-.2.2-.4c-.2-.8-.3-1.6-.5-2.4 0-.2-.2-.2-.4-.2-.1.1-.2.2-.2.4zm-1.3-6.6c.1.4.3.8.4 1.2 0 .1.2.3.4.2.1 0 .3-.2.2-.4-.1-.4-.3-.8-.4-1.2 0-.1-.2-.3-.4-.2-.1.1-.3.2-.2.4z"/>
    <path class="st5" d="M69.2 187.8c.7 1.4 2.2 2.3 3.8 2.2.2 0 .3-.1.3-.3 0-.2-.1-.3-.3-.3-1.4.1-2.7-.7-3.3-1.9-.1-.1-.3-.2-.4-.1-.1.1-.1.3-.1.4zm-29.6-.9c.1 1.5 1.7 2.6 3.1 2.3.4-.1.2-.7-.2-.6-.2 0-.2.1-.4.1h-.4c-.3-.1-.5-.2-.8-.4-.4-.3-.8-.8-.8-1.4 0-.2-.1-.3-.3-.3 0 0-.2.1-.2.3zM8.2 224.6c0 .1.1.1.1.1 0 .1.1.1.1.2s0 .1.1.1c0 .1 0 .1.1.2v.2c0-.1 0 0 0 0v.4s0 .1 0 0c0 .3-.1.5-.2.7-.1.2-.3.4-.4.5-.1.1-.2.3-.1.4.1.1.3.2.4.1 1.1-.7 1.3-2.3.5-3.3-.1-.1-.3-.1-.4 0-.4.1-.3.3-.2.4zm60.2 13.2s.1 0 0 0l.1.1s0 .1.1.1c0 0 .1.1 0 .1 0 .1.1.2.1.2v.3s0 .1 0 0v.1c0 .1 0 .2-.1.2 0 0 0-.1 0 0v.1s0 .1-.1.1v.1l-.1.1c-.1.1-.1.3 0 .4.1.1.3.1.4 0 .7-.6.7-1.8 0-2.4-.1-.1-.3-.1-.4 0-.1.2-.1.4 0 .5z"/>
</svg>
