<svg xmlns="http://www.w3.org/2000/svg" xmlns:xlink="http://www.w3.org/1999/xlink" width="138.1" height="253.8" style="overflow:visible;enable-background:new 0 0 138.1 253.8" xml:space="preserve">
    <style>
        .st0{fill:#f6a472}.st1{clip-path:url(#SVGID_2_)}.st2{fill:#fff}.st3{fill:#dc4345}.st5{clip-path:url(#SVGID_4_)}.st6{fill:#b27559}.st7{fill:#6d0e16}.st8{clip-path:url(#SVGID_6_)}.st9{fill:#422208}.st10{opacity:.34}.st11{clip-path:url(#SVGID_8_)}.st13{fill:#632b29}.st15{fill:#f4af89}.st16{fill:#79451f}
    </style>
    <path class="st0" d="M102.9 182.8 88.2 187c-.9-3-1.7-5.9-2.6-8.9 6.5-2.7 13-5.2 19.6-7.5l-2.3 12.2z"/>
    <defs>
        <path id="SVGID_1_" d="m102.1 187.1-4.8-13.8c1.9-3.3 8.2-6.1 11.8-7.4.3-.1 6.1 18.5 8.6 27.3.1.2.1.5 0 .6-.1.1-.3.2-.5.2-2.4.3-5-.7-6.6-2.5-1.7-1.8-2.8-4.6-5.2-5.1l-3.3.7z"/>
    </defs>
    <use xlink:href="#SVGID_1_" style="overflow:visible;fill:#c2b38c"/>
    <clipPath id="SVGID_2_">
        <use xlink:href="#SVGID_1_" style="overflow:visible"/>
    </clipPath>
    <g class="st1">
        <path class="st2" d="M105.3 162.3c1.6 4.7 3.2 9.4 4.6 14.2 1.5 4.7 2.9 9.5 4.3 14.3.8 2.7 1.5 5.4 2.2 8 .1.4.7.2.6-.2-1.3-4.8-2.7-9.6-4.1-14.3-1.4-4.8-2.9-9.5-4.4-14.2-.9-2.6-1.7-5.3-2.6-7.9-.1-.4-.7-.3-.6.1z"/>
    </g>
    <g class="st1">
        <path class="st2" d="M109.3 191.8c.7-2 2.4-3.5 4.4-3.9.4-.1.2-.7-.2-.6-2.2.5-4.1 2.2-4.9 4.3 0 .4.6.6.7.2z"/>
    </g>
    <g class="st1">
        <path class="st2" d="M101.5 167.4c1.2 2.8 3.9 4.8 6.9 5.2.4.1.6-.6.2-.6-2.8-.4-5.3-2.3-6.5-4.9-.2-.4-.7-.1-.6.3z"/>
    </g>
    <g class="st1">
        <path class="st2" d="M109.5 184.2c-2.3 1.1-3.9 3.3-4.4 5.8-.1.4.6.6.6.2.4-2.3 1.9-4.4 4.1-5.4.4-.2.1-.8-.3-.6z"/>
    </g>
    <g class="st1">
        <path class="st2" d="M108.5 183.1c-2.1 1.4-3.7 3.5-4.5 5.9-.1.4.5.6.6.2.8-2.2 2.3-4.2 4.2-5.5.3-.3 0-.8-.3-.6z"/>
    </g>
    <g class="st1">
        <path class="st2" d="M96.5 173.1c1.6-.4 3.3.4 4.1 1.8.8 1.4.4 3.3-.7 4.4-.3.3.1.6.4.5.6-.3 1.4-.1 1.9.4.6.5.9 1.3 1 2 .2 1.5-.3 3-1.2 4.1-.5.7-1.2 1.2-1.9 1.6-.4.2 0 .8.3.6 1.5-.8 2.7-2.2 3.2-3.9.5-1.6.4-3.8-1-5-.8-.6-1.7-.8-2.6-.4.1.2.3.3.4.5 1.1-1 1.5-2.6 1.2-4-.3-1.5-1.4-2.6-2.8-3.1-.8-.3-1.7-.3-2.5-.1-.3.1-.2.7.2.6z"/>
    </g>
    <path class="st3" d="M116.6 194.2c.9-.6 2.3-1.3 3.3-1.7-1.7-5.9-4.4-17.7-4.8-17.8-.2-.1-3.3-1.4-3.1-1.9.1-.4 2.1-2.1 1.9-2.5-.8-1.7-.6-3.6-1.4-5.3l-5 1.2 9.1 28z"/>
    <path d="M66.7 234.4c-3.2-4-6.3-8-9.5-12 2.4-1.9 4.8-3.8 7.2-5.8 5 4.9 9.8 10 14.4 15.3l-12.1 2.5z" style="fill:#a85a4e"/>
    <defs>
        <path id="SVGID_3_" d="M62.4 235.3c3.6-3.2 7.3-6.5 10.9-9.7 3.8.5 8.7 5.3 11.3 8.1.2.2-14.8 12.7-22 18.3-.2.1-.4.3-.6.2-.2 0-.3-.2-.3-.4-1.2-2.1-1.3-4.8-.2-7.1 1-2.3 3.2-4.3 2.7-6.8l-1.8-2.6z"/>
    </defs>
    <use xlink:href="#SVGID_3_" style="overflow:visible;fill:#c2b38c"/>
    <clipPath id="SVGID_4_">
        <use xlink:href="#SVGID_3_" style="overflow:visible"/>
    </clipPath>
    <g class="st5">
        <path class="st2" d="M86.6 228.9c-3.7 3.3-7.5 6.5-11.3 9.6-3.8 3.2-7.7 6.3-11.5 9.4l-6.6 5.1c-.1.1-.2.3-.1.4.1.1.3.2.4.1 3.9-3 7.8-6.1 11.7-9.2 3.9-3.1 7.7-6.3 11.5-9.5 2.1-1.8 4.2-3.6 6.4-5.5.2-.3-.2-.7-.5-.4z"/>
    </g>
    <g class="st5">
        <path class="st2" d="M60.8 243.8c2.1-.1 4.1.9 5.3 2.6.2.3.8 0 .6-.3-1.3-1.9-3.6-3-5.9-2.9-.4-.1-.4.6 0 .6z"/>
    </g>
    <g class="st5">
        <path class="st2" d="M80.5 227.3c-2.1 2.2-3 5.5-2.3 8.4.1.4.7.2.6-.2-.7-2.7.1-5.8 2.1-7.8.3-.3-.1-.7-.4-.4z"/>
    </g>
    <g class="st5">
        <path class="st2" d="M68 241.1c-1.9-1.7-4.6-2.4-7.1-1.9-.4.1-.2.7.2.6 2.3-.5 4.7.1 6.5 1.7.3.3.7-.1.4-.4z"/>
    </g>
    <g class="st5">
        <path class="st2" d="M68.5 239.6c-2.1-1.4-4.6-2.1-7.1-1.9-.4 0-.4.7 0 .6 2.4-.1 4.8.5 6.8 1.8.4.3.7-.2.3-.5z"/>
    </g>
    <g class="st5">
        <path class="st2" d="M73.3 224.8c1 1.3 1 3.3-.1 4.5-1 1.2-2.9 1.7-4.3 1-.3-.1-.7.2-.4.5.5.5.6 1.2.4 1.9-.2.7-.7 1.3-1.4 1.7-1.3.8-2.9 1-4.4.6-.8-.2-1.6-.6-2.3-1.1-.3-.3-.8.2-.5.5 1.4 1.1 3.2 1.7 5 1.5 1.7-.2 3.6-1.1 4.1-2.8.3-.9.1-1.9-.6-2.6-.1.2-.3.3-.4.5 1.3.6 2.9.5 4.2-.3 1.3-.8 2-2.3 1.9-3.7 0-.9-.3-1.7-.8-2.4-.1-.5-.7-.2-.4.2z"/>
    </g>
    <path class="st3" d="M61.4 251.4c.9.6 2.1 1.6 2.8 2.4C69 250 78.9 243 78.8 242.6c0-.2.1-3.6.5-3.6s2.8 1.2 3.1.8c1.2-1.4 3.1-1.9 4.3-3.3l-3-4.2-22.3 19.1z"/>
    <path class="st6" d="M64.1 115.7c-1.7 1.5-4.3 1.1-6.5 1.4-1.9.3-3.7 1.1-5.6 1.7-7.1 2.3-15.2 1.5-21.3-2.7 4.4-1.5 8-5.1 11.8-7.9 3.8-2.8 8.5-5.1 13.1-4.1 3 .6 5.5 2.5 7.9 4.4l.6 7.2z"/>
    <path class="st7" d="M91.4 106.5c-3.8-2.4-7.8-4.9-10.1-8.8-1.5-2.5-2.1-5.3-3.1-8.1-2.3-6.4-6.7-12.1-12.3-16-1.3 1.4-2.9 2.6-4.6 3.4 4.1 3.1 8.3 6.6 10.4 11.3 1.1 2.4 1.5 5 2.5 7.4 2.4 6.3 8 11.4 14.5 13.1l2.7-2.3z"/>
    <path class="st0" d="M61.6 111.6c-1.1 4.4-2.3 8.8-3.4 13.2-8-.4-16.1-1.5-23.9-3.2L32.5 106l29.1 5.6zm52.7-48.8c1.1-2.1 3.6-3.3 4.1-5.6.2-1 0-2-.1-3-.5-2.8-.6-5.9.6-8.4.3-.7 1.4-.5 1.5.3l.3 5.9c2.2-1.4 3.5-3.7 4.9-5.8 1.2-1.7 2.6-3.4 4.4-4.3.4-.2.8.3.6.7-1.7 2.5-3.2 5.2-4.5 8 3.4-2 5.5-6 9-7.7.4-.2.8.2.6.6-1.5 2.7-3.4 5.2-5.5 7.4 1.6-2.4 3.3-4.9 5.8-6.4.3-.2.6 0 .7.3.1 1-.5 2.1-1.2 3-1.2 1.7-2.3 3.4-3.5 5.1 1.6-1.4 3.5-2.5 5.6-3.2 1.1.3.8 1.1.4 1.6-2.2 3.1-5.9 4.6-8.9 6.9-3.1 2.3-5.6 5.3-7.3 8.7-.2.4-.4.8-.7.9-.3.1-.6.1-.9.1-2.4-.2-4.7-1.1-6.5-2.7l.6-2.4zM17.5 28.5c.3-2.3-1.1-4.8-.2-6.9.4-1 1.1-1.7 1.8-2.4 2-2 3.8-4.6 4.3-7.3.1-.8-.9-1.3-1.4-.6L18.4 16c-1-2.4-.8-5-.8-7.6 0-2.1-.2-4.3-1.2-6-.2-.4-.8-.2-.8.2 0 3.1-.3 6.1-.8 9.1-1.7-3.6-1.1-8.1-3.1-11.4-.2-.4-.7-.3-.7.1-.3 3.1-.2 6.2.4 9.2 0-2.9.1-5.9-1.1-8.6-.2-.2-.6-.3-.8 0-.7.8-.7 2-.7 3.1v6.2c-.6-2.1-1.5-4-2.8-5.8-1-.4-1.2.5-1.2 1.1.1 3.8 2.2 7.2 3.5 10.8C9.6 20 9.9 30 9.3 33.7c-.1.4-.1.8.1 1.2.1.3.4-5.6.7-5.5 2.1 1.2 4.5 1.7 6.9 1.4l.5-2.3z"/>
    <defs>
        <path id="SVGID_5_" d="M19.4 27.7C17.4 25.9 8.8 30 8.8 30c-6.9 14.6 3.8 34.1 11.8 45.2 1.8 2.6 3.9 5 4.8 8.1.6 2.1.5 4.3.4 6.4-.3 8.4 5.3 18.1 4.9 26.4 15.7 6.8 17.4-4.6 33.9-.4l2.7-22.3c18.3 2.3 49.9-7.6 54.9-25.3l-7.9-7.6c-7.4 7-29.9 11.6-45.4 13-6.5.6-13-1.5-18-5.6C41 59.7 24.5 44 19.4 27.7z"/>
    </defs>
    <use xlink:href="#SVGID_5_" style="overflow:visible;fill:#f59f18"/>
    <clipPath id="SVGID_6_">
        <use xlink:href="#SVGID_5_" style="overflow:visible"/>
    </clipPath>
    <g class="st8">
        <path class="st6" d="M35.2 67.5c-.6 3.4-2.1 6.6-3.8 9.5-1.8 3-3.8 5.9-5.5 9-1 1.7-1.8 3.5-2.5 5.3-.1.4.5.6.6.2 1.2-3.3 3-6.3 4.9-9.3 1.9-2.9 3.8-5.9 5.2-9.1.8-1.8 1.4-3.6 1.7-5.5.1-.4-.6-.6-.6-.1z"/>
    </g>
    <g class="st8">
        <path class="st6" d="M36.1 100c5.1.6 10.1 2.2 14.7 4.6 1.3.7 2.5 1.5 3.7 2.3.3.2.7-.3.3-.6-4.3-3-9.2-5.2-14.4-6.3-1.4-.3-2.9-.6-4.4-.7-.3 0-.3.6.1.7z"/>
    </g>
    <g class="st8">
        <path class="st6" d="M38.1 102.7c3.2 1.6 6.4 3.3 9.7 4.9.4.2.7-.4.3-.6-3.2-1.6-6.4-3.3-9.7-4.9-.3-.1-.7.4-.3.6z"/>
    </g>
    <g class="st8">
        <path class="st6" d="M67.2 80.8c-.4 5.6-.4 11.2.1 16.8.1 1.6.3 3.2.5 4.7.1.4.7.4.6 0-.7-5.6-1-11.2-.8-16.8 0-1.6.1-3.2.2-4.8.1-.3-.6-.3-.6.1z"/>
    </g>
    <g class="st8">
        <path class="st6" d="M109.8 61.7c2.4 3.1 5.1 6 8.1 8.7.8.8 1.7 1.5 2.6 2.2.3.3.8-.2.5-.5-3.1-2.5-5.9-5.3-8.5-8.2-.7-.9-1.5-1.7-2.2-2.6-.3-.4-.7.1-.5.4z"/>
    </g>
    <g class="st8">
        <path class="st6" d="m5.4 34.2 12.3-3.3c1.2-.3 2.3-.6 3.5-.9.4-.1.2-.7-.2-.6L8.7 32.7c-1.2.3-2.3.6-3.5.9-.4.1-.2.7.2.6z"/>
    </g>
    <g class="st8">
        <path class="st6" d="M33.9 113.3c-.7 2.5-1.5 5-2.2 7.5-.1.4.5.6.6.2.7-2.5 1.5-5 2.2-7.5.2-.4-.5-.6-.6-.2z"/>
    </g>
    <g class="st8">
        <path class="st6" d="M36.2 115.1c-.3 1.5-.5 2.9-.8 4.4-.1.4.5.6.6.2.3-1.5.5-2.9.8-4.4.1-.4-.5-.6-.6-.2z"/>
    </g>
    <g class="st8">
        <path class="st6" d="M39.7 114.2c-.3 2.2-.6 4.4-1 6.6-.1.4.6.6.6.2.3-2.2.6-4.4 1-6.6.1-.4-.5-.6-.6-.2z"/>
    </g>
    <g class="st8">
        <path class="st6" d="M43.2 114.6c-.5 1.8-.6 3.6-.4 5.4 0 .4.7.4.6 0-.2-1.7-.1-3.5.4-5.2.2-.4-.5-.6-.6-.2z"/>
    </g>
    <g class="st8">
        <path class="st6" d="M45.9 113.9c-.2 2-.4 4.1-.5 6.1 0 .4.6.4.6 0 .2-2 .4-4.1.5-6.1.1-.5-.6-.5-.6 0z"/>
    </g>
    <g class="st8">
        <path class="st6" d="M49.8 112.1c-.2 2.2-.3 4.4-.5 6.6 0 .4.6.4.6 0 .2-2.2.3-4.4.5-6.6.1-.4-.5-.4-.6 0z"/>
    </g>
    <g class="st8">
        <path class="st6" d="M53.2 112.5c0 2-.2 4.1-.5 6.1-.1.4.6.6.6.2.3-2.1.5-4.2.5-6.3 0-.4-.6-.4-.6 0z"/>
    </g>
    <g class="st8">
        <path class="st6" d="M57.3 112.1c.2 1.9.1 3.8-.4 5.6-.1.4.5.6.6.2.5-1.9.6-3.9.4-5.8 0-.4-.7-.4-.6 0z"/>
    </g>
    <g class="st8">
        <path class="st6" d="M61.3 111.1c-.5 2-.6 4.2-.4 6.2 0 .4.7.4.6 0-.2-2-.1-4.1.4-6.1.1-.3-.5-.5-.6-.1z"/>
    </g>
    <g class="st8">
        <path class="st6" d="M54.2 92.8c.2.8.1 1.7-.3 2.4-.2.4.3.7.6.3.5-.9.7-1.9.4-2.9-.2-.3-.8-.2-.7.2z"/>
    </g>
    <g class="st8">
        <path class="st6" d="M57.3 92.7v2.6c0 .4.6.4.6 0v-2.6c.1-.4-.6-.4-.6 0z"/>
    </g>
    <g class="st8">
        <path class="st6" d="M77.4 88.6c1.2.2 2.3.3 3.5.5.2 0 .3-.2.3-.3 0-.2-.1-.3-.3-.3-1.2-.2-2.3-.3-3.5-.5-.2 0-.3.2-.3.3 0 .2.2.3.3.3z"/>
    </g>
    <g class="st8">
        <path class="st6" d="M84.2 85.2c.4-.1.9-.3 1.3-.4.2-.1.3-.2.2-.4-.1-.2-.2-.3-.4-.2-.4.1-.9.3-1.3.4-.2.1-.3.2-.2.4 0 .2.2.3.4.2z"/>
    </g>
    <g class="st8">
        <path class="st6" d="M89.8 84.7h.9c.2 0 .3-.1.3-.3 0-.2-.1-.3-.3-.3h-.9c-.2 0-.3.1-.3.3-.1.2.1.3.3.3z"/>
    </g>
    <g class="st8">
        <path class="st6" d="M90.1 87.5c1 .2 2.1 0 2.9-.6.1-.1.2-.3.1-.4-.1-.1-.3-.2-.4-.1-.7.5-1.6.7-2.4.5-.2 0-.3 0-.4.2-.1.1 0 .3.2.4z"/>
    </g>
    <g class="st8">
        <path class="st6" d="M100.8 79c.7-.3 1.5-.6 2.2-.9.2-.1.3-.2.2-.4 0-.2-.2-.3-.4-.2-.7.3-1.5.6-2.2.9-.2.1-.3.2-.2.4.1.1.3.2.4.2z"/>
    </g>
    <g class="st8">
        <path class="st6" d="M105.8 79.9c.9.5 2.1.5 2.9-.1.1-.1.2-.3.1-.4-.1-.1-.3-.2-.4-.1-.7.5-1.6.5-2.3.1-.3-.3-.6.3-.3.5z"/>
    </g>
    <g class="st8">
        <path class="st6" d="m14.8 57.9.1.1s.1 0 0 0h.1l.1.1v.1c.1.1.1.2.1.3 0 0 0 .1 0 0v.3c0 .1 0 0 0 0v.4s0 .1 0 0v.2s0 .1 0 0v.1l-.1.1c-.1.1 0 .4.1.4.2.1.3 0 .4-.1.5-.9.2-2.1-.7-2.6-.2-.1-.4 0-.4.1.1.2.1.4.3.5z"/>
    </g>
    <g class="st8">
        <path class="st6" d="M19.5 65.7c.1.3.3.6.4.9.1.2.3.2.4.1.2-.1.2-.3.1-.4-.1-.3-.3-.6-.4-.9-.1-.2-.3-.2-.4-.1-.2 0-.2.2-.1.4z"/>
    </g>
    <g class="st8">
        <path class="st6" d="M22.1 69.9v.9c0 .2.1.3.3.3.2 0 .3-.1.3-.3v-.9c0-.2-.1-.3-.3-.3-.1 0-.3.1-.3.3z"/>
    </g>
    <g class="st8">
        <path class="st6" d="M14.2 44.5c.3.4.6.9.9 1.3.1.1.3.2.4.1.1-.1.2-.3.1-.4-.3-.4-.6-.9-.9-1.3-.1-.1-.3-.2-.4-.1-.1.1-.2.3-.1.4z"/>
    </g>
    <g class="st8">
        <path class="st6" d="m21.3 60 .4.4c.1.1.1.1.2.1h.1s.1 0 .1-.1c.1-.1.1-.1.1-.2s0-.2-.1-.2l-.4-.4c-.1-.1-.1-.1-.2-.1h-.1s-.1 0-.1.1c-.1.1-.1.1-.1.2.1 0 .1.1.1.2z"/>
    </g>
    <g class="st8">
        <path class="st6" d="m24 67 .4.4c.1.1.1.1.2.1h.1s.1 0 .1-.1c.1-.1.1-.1.1-.2s0-.2-.1-.2l-.4-.4c-.1-.1-.1-.1-.2-.1h-.1s-.1 0-.1.1c-.1.1-.1.1-.1.2s0 .2.1.2z"/>
    </g>
    <g class="st8">
        <path class="st6" d="M11.5 49.3c.1.6.3 1.2.4 1.8 0 .2.2.3.4.2.2-.1.3-.2.2-.4-.1-.6-.3-1.2-.4-1.8 0-.2-.2-.3-.4-.2-.2.1-.3.2-.2.4z"/>
    </g>
    <path class="st3" d="M95.9 198.2c-2-11-4.2-22.1-6.6-33-11.7 6.9-19.4 7.9-32.5 11.5 3.6-10 6.3-14.3 6.9-24.9.5-7.5-2.7-14.7-5.8-21.5l1.1-5.7-25.8-4.2c.2 1-.3 7.4-.1 8.4C24.6 139 16 149.2 7.4 159.4c-2.8 3.4-5.8 6.9-6.9 11.2-2 7.7 2.3 15.5 6.6 22.2 10.6 16.3 22.5 31.7 35.5 46.1 10.1-5.7 19.9-12 29.2-19-3.4-5.6-7.2-11.1-11.2-16.3 11.1 1.1 22.5 2.1 33-1.4.8-.3 1.7-.6 2.2-1.4.4-.8.3-1.7.1-2.6zm-58.7-34.9c.2 3.7.2 7.5.2 11.2v4.2c-2-1.8-4.1-3.5-6.2-5.2 2.2-3.3 4.2-6.7 6-10.2z"/>
    <path class="st9" d="M63.2 74.5c-1.8 1-3 3-3 5-.1 2 1 4.1 2.7 5.2.8.5 2 1.2 1.7 2.2-.1.4-.4.7-.7 1-1.8 1.9-2.5 4.8-1.6 7.3.4 1.2 1.2 2.3 1.8 3.4.8 1.5 1.4 3.2 2.5 4.5 1.1 1.3 3.1 2.1 4.6 1.2 1.8-1 1.8-3.6 1.5-5.6 1.4.7 3-.9 3.2-2.4.2-1.6-.4-3.1-.2-4.7.3-2.3 2.1-4.3 1.6-6.6-.3-1.6-1.7-2.7-3-3.6-3.2-2.5-6.3-5.1-8.6-8.5l-2.5 1.6z"/>
    <g class="st10">
        <defs>
            <path id="SVGID_7_" class="st10" d="M95.9 198.2c-2-11-4.2-22.1-6.6-33-11.7 6.9-19.4 7.9-32.5 11.5 3.6-10 6.3-14.3 6.9-24.9.5-7.5-2.7-14.7-5.8-21.5l1.1-5.7-25.8-4.2c.2 1-.3 7.4-.1 8.4C24.6 139 16 149.2 7.4 159.4c-2.8 3.4-5.8 6.9-6.9 11.2-2 7.7 2.3 15.5 6.6 22.2 10.6 16.3 22.5 31.7 35.5 46.1 10.1-5.7 19.9-12 29.2-19-3.4-5.6-7.2-11.1-11.2-16.3 11.1 1.1 22.5 2.1 33-1.4.8-.3 1.7-.6 2.2-1.4.4-.8.3-1.7.1-2.6zm-58.7-34.9c.2 3.7.2 7.5.2 11.2v4.2c-2-1.8-4.1-3.5-6.2-5.2 2.2-3.3 4.2-6.7 6-10.2z"/>
        </defs>
        <clipPath id="SVGID_8_">
            <use xlink:href="#SVGID_7_" style="overflow:visible"/>
        </clipPath>
        <g class="st11">
            <path class="st2" d="M42.2 120.8c-.5 10.2-1 20.5-1.5 30.7s-1 20.5-1.5 30.7c-.1 2.3-.3 4.5-.3 6.8 0 1.8.1 3.5.5 5.3.4 1.6 1 3.1 2.2 4.3 1.3 1.4 3.2 2.1 5.1 2.3 1.1.1 2.3.1 3.4.1 1.3 0 2.6 0 3.8.1 2.6 0 5.1.1 7.7.1 4.5.1 9.1.2 13.6.1 8.1-.2 16.5-1.1 23.5-5.5.9-.5 1.7-1.1 2.5-1.7.3-.3-.1-.7-.5-.5-6.5 5-14.8 6.5-22.8 6.9-4.2.2-8.5.1-12.7.1-5-.1-10-.1-15-.2-2.2 0-4.7.1-6.7-1.1-1.4-.8-2.5-2.1-3.1-3.6-1.4-3.4-1-7.3-.8-10.9.5-10 1-20.1 1.4-30.1.5-10.1 1-20.2 1.4-30.3.1-1.2.1-2.5.2-3.7.3-.3-.4-.3-.4.1z"/>
        </g>
        <g class="st11">
            <path class="st2" d="M46.6 120.4c-.7 9.5-1.3 19-2 28.4-.7 9.4-1.3 18.9-2 28.3-.2 2.3-.3 4.6-.5 6.8-.1 1.7-.1 3.5.2 5.2.3 1.6.9 3.1 2.1 4.3 1.4 1.3 3.2 1.9 5 2.1 4.2.7 8.5.9 12.8 1 4.3.1 8.7-.1 13-.6 8.6-.9 17.1-2.9 25.2-5.9 1-.4 2-.7 2.9-1.1.4-.2.2-.8-.2-.6-7.9 3.2-16.3 5.4-24.8 6.6-8.5 1.2-17.1 1.4-25.6.5-2-.2-4-.4-5.9-1.1-1.7-.6-3-1.9-3.6-3.6-.6-1.6-.7-3.3-.7-4.9 0-2.1.2-4.1.4-6.2.6-9.3 1.3-18.7 1.9-28 .6-9.3 1.3-18.6 1.9-27.8.1-1.1.2-2.3.2-3.4.4-.4-.2-.4-.3 0z"/>
        </g>
        <g class="st11">
            <path class="st2" d="M50.6 120.4c-.2 8.9-.3 17.9-.5 26.8-.2 8.9-.3 17.8-.5 26.7 0 2.2-.1 4.4-.1 6.7 0 1-.1 2.1 0 3.1 0 .9.1 1.8.5 2.6.7 1.6 2.4 2.3 4 2.8 2 .6 4.1.9 6.2 1 3.9.3 7.8.3 11.7.3 3.5 0 7-.2 10.5-.6 6.7-.8 13.5-2.5 19-6.7.7-.5 1.3-1 2-1.6.3-.3-.1-.7-.5-.5-5 4.6-11.6 6.8-18.2 7.8-3.4.5-6.8.7-10.3.8-3.7.1-7.4.1-11 0-2.1-.1-4.2-.2-6.2-.5-1-.2-2-.4-3-.7-.8-.2-1.6-.5-2.2-1-1.6-1.1-1.7-3-1.6-4.8 0-2.2.1-4.4.1-6.6.2-8.7.3-17.4.5-26.2.2-8.7.3-17.5.5-26.2 0-1.1 0-2.1.1-3.2-.3-.5-1-.5-1 0z"/>
        </g>
        <g class="st11">
            <path class="st2" d="M55.9 120.4c-.6 4.2-1.2 8.5-1.4 12.8-.1 2.1-.1 4.3.1 6.4.2 2.1.6 4.2 1 6.2.4 2.1.9 4.2 1 6.3.1 2.1 0 4.2-.3 6.2-.5 4.2-1.5 8.2-2 12.4-.4 3.2-.7 7 1.4 9.6 2.2 2.8 6.1 2.8 9.3 2.8 3.6 0 7.3 0 10.9-.1 3.7-.1 7.3-.4 10.9-.9 3.6-.5 7.1-1.2 10.5-2.3 3.4-1.1 6.6-2.5 9.7-4.3.8-.5 1.5-.9 2.2-1.4.3-.2 0-.8-.3-.6-2.9 2-6 3.6-9.3 4.8-3.3 1.2-6.7 2.1-10.2 2.7-3.5.6-7.1 1-10.7 1.2-3.6.2-7.2.3-10.8.3-1.7 0-3.5 0-5.2-.1-1.6-.1-3.4-.3-4.8-1.1-3-1.7-3.4-5.3-3.2-8.5.3-4 1.3-8 1.9-12 .6-4 .9-8.1.2-12.2-.4-2.1-.9-4.1-1.2-6.2-.3-2.1-.5-4.2-.5-6.3-.1-4.2.4-8.4.9-12.6.1-1 .3-2.1.4-3.1.2-.3-.5-.4-.5 0z"/>
        </g>
        <g class="st11">
            <path class="st2" d="M95 171.2c-6.4-1.1-12.4 2.1-18.4 3.7-3.1.8-6.4 1.4-9.6 1.5-1.6.1-3.3.1-4.9 0-1.2-.1-2.9 0-3.8-1.1-.8-1.1-.6-2.7-.4-4 .2-1.5.6-2.9 1-4.3.9-2.8 2-5.6 2.6-8.5.3-1.4.5-2.9.5-4.4 0-1.6-.2-3.1-.5-4.7-.6-3.1-1.5-6.1-1.7-9.3-.2-3.4.4-6.7 1-10 .6-3.4 1.2-6.8 1.8-10.1.1-.8.3-1.6.4-2.4.1-.4-.5-.6-.6-.2-.6 3.4-1.2 6.8-1.9 10.3-.6 3.3-1.3 6.7-1.5 10.1-.1 3.3.5 6.4 1.2 9.6.7 3.1 1.3 6.2.8 9.4-.4 2.9-1.5 5.7-2.4 8.6-.5 1.4-.9 2.9-1.2 4.3-.3 1.4-.5 2.9-.4 4.3.1.6.3 1.3.7 1.8.4.5 1 .8 1.6 1 .7.2 1.4.2 2.1.2.8 0 1.6.1 2.5.1 3.3 0 6.6-.3 9.8-1 3.2-.6 6.3-1.7 9.4-2.7 3-1 6.1-1.9 9.3-1.9.8 0 1.6.1 2.4.2.4.2.6-.4.2-.5z"/>
        </g>
        <g class="st11">
            <path class="st2" d="M40.7 148.3c-1.2 3.6-3.2 6.9-5.5 9.9-1.1 1.5-2.4 3-3.6 4.4l-3.6 3.9c-2.3 2.5-4.4 5.4-4.2 8.9.2 3.8 2.6 7 4.9 9.8 2.4 2.9 5.2 5.6 8.3 7.9.4.3.8.6 1.1.8.3.2.7-.3.3-.6-3.1-2.2-5.9-4.7-8.4-7.5-1.2-1.4-2.4-2.8-3.4-4.4-1-1.5-1.8-3.2-2.1-5-.3-1.7 0-3.4.7-4.9.7-1.5 1.7-2.8 2.8-4.1 1.1-1.3 2.3-2.5 3.5-3.7 1.3-1.4 2.5-2.8 3.6-4.3 2.3-2.9 4.3-6.1 5.7-9.6.2-.4.3-.9.5-1.3s-.5-.6-.6-.2z"/>
        </g>
        <g class="st11">
            <path class="st2" d="M41 140.4c-5 6.1-9.4 12.7-13.8 19.3-2.1 3.2-4.4 6.3-6 9.8-1.6 3.4-2.3 7-1.4 10.7 1.8 7.6 8.1 12.6 13.5 17.7 5.9 5.5 11 11.8 16 18.1 4.6 5.6 9.2 11.5 15.5 15.4.8.5 1.5.9 2.3 1.3.4.2.7-.4.3-.6-6.5-3.2-11.3-8.7-15.8-14.3-5-6.1-9.8-12.3-15.3-17.9-5.3-5.3-12-9.9-15-17.1-1.4-3.5-1.7-7.1-.5-10.7 1.2-3.6 3.4-6.7 5.4-9.8 4.3-6.6 8.6-13.1 13.5-19.3.6-.7 1.1-1.4 1.7-2.1.3-.4-.1-.8-.4-.5z"/>
        </g>
        <g class="st11">
            <path class="st2" d="M46.4 201.4c2 4.6 4.9 8.6 8.2 12.4 3.3 3.8 6.8 7.4 10.1 11.2 1.8 2.1 3.6 4.3 5.2 6.7.2.3.8 0 .6-.3-2.8-4.2-6.2-7.9-9.6-11.6-3.4-3.7-6.9-7.3-9.8-11.4-1.6-2.3-3-4.7-4.1-7.2-.3-.5-.8-.2-.6.2z"/>
        </g>
        <g class="st11">
            <path class="st2" d="M54.4 201.8c2.5 3.4 5 6.8 7.5 10.1s5.1 6.6 7.7 9.9c1.3 1.6 2.6 3.2 4.4 4.1.4.2.7-.4.3-.6-1.6-.9-2.8-2.2-3.9-3.6-1.3-1.6-2.5-3.2-3.8-4.7-2.6-3.3-5.1-6.6-7.6-9.9l-4.2-5.7c-.1-.3-.7 0-.4.4z"/>
        </g>
        <g class="st11">
            <path class="st2" d="M41.4 131.4c-3.8 6.3-9.2 11.5-14.2 16.9-4.8 5.2-9.7 10.8-12 17.6-1.4 4.1-1.8 8.4-1.2 12.7.5 4.3 2.1 8.3 4.3 12 2.4 3.9 5.3 7.6 8.1 11.3 2.9 3.9 5.9 7.9 8.8 11.8 5.9 7.9 11.7 15.7 17.6 23.6.7 1 1.5 2 2.2 2.9.2.3.8 0 .6-.3-5.8-7.8-11.6-15.6-17.5-23.4-2.9-3.9-5.8-7.7-8.7-11.6-2.8-3.8-5.7-7.5-8.4-11.4-2.5-3.6-4.7-7.4-5.8-11.8-1-4.2-1.1-8.6-.2-12.8 1.6-7.3 6.3-13.3 11.2-18.7 4.9-5.3 10.2-10.3 14.3-16.3.5-.7.9-1.4 1.4-2.2.3-.3-.3-.7-.5-.3z"/>
        </g>
        <g class="st11">
            <path class="st2" d="M41.2 122c-7.6 8.5-15.1 16.9-22.7 25.4-6.2 6.9-13 14.3-13.8 24-.8 10 4.5 19.4 9.7 27.5 5.3 8.3 10.8 16.5 16.7 24.4 5.8 7.8 12.2 15.2 19.5 21.6.9.8 1.9 1.6 2.8 2.4.3.3.8-.2.5-.5-7.5-6.1-14-13.2-19.9-20.8-6-7.7-11.4-15.8-16.7-23.9C12 194 6 185.1 5.4 175.2c-.3-4.8.8-9.4 3.1-13.6 2.2-4.1 5.3-7.7 8.4-11.2 7.3-8.3 14.7-16.4 22.1-24.7.9-1 1.8-2 2.7-3.1.3-.4-.2-.9-.5-.6z"/>
        </g>
    </g>
    <path class="st7" d="M33 122c8.2 2.9 16.7 4.8 25.4 5.6-.2.8-.2 1.7-.2 2.5-8.7-1.4-17.3-3-25.9-4.7.2-1 .4-2 .6-2.9l.1-.5z"/>
    <path class="st3" d="M52.3 125.8c-.3 1.6-.5 3.1-.5 4.7 0 .4.6.4.6 0 0-1.5.2-3.1.5-4.6.1-.3-.5-.5-.6-.1zm-15.2-3.1c-.6 1.4-1 2.8-1.1 4.3 0 .2.2.3.3.3.2 0 .3-.1.3-.3.1-1.4.5-2.7 1-4 .1-.2 0-.3-.1-.4-.1-.1-.3-.1-.4.1z"/>
    <path class="st7" d="M41.1 126.3c-.8 2.8-1.5 5.6-2.3 8.3-.4 1.4-.8 2.8-1.2 4.1l-.6 2.1c-.1.3-.2.7-.3 1-.1.3-.2.7-.2 1 .1.7.8 1.1 1.2 1.5.6.5 1.3 1 1.9 1.6.2.2.5.1.6-.2.6-5.1 1.7-10.1 3.3-15 .4-1.4.9-2.7 1.4-4.1.1-.4-.5-.6-.6-.2-1.8 4.8-3.1 9.8-4 14.9-.3 1.4-.5 2.9-.7 4.3.2-.1.4-.2.6-.2-.5-.4-1.1-.9-1.6-1.3-.3-.2-.5-.4-.8-.6-.2-.2-.5-.3-.5-.6-.1-.3 0-.6.1-.9.1-.3.2-.7.3-1 .2-.7.4-1.3.5-2 .7-2.7 1.5-5.3 2.2-8 .4-1.5.8-3 1.3-4.6.1-.4-.5-.5-.6-.1z"/>
    <path class="st7" d="M39.7 145.3c-.4 4.9-1.1 9.7-1.9 14.6-.2 1.4-.5 2.7-.8 4-.1.4.5.6.6.2 1-4.8 1.7-9.7 2.3-14.6.2-1.4.3-2.8.4-4.2 0-.5-.6-.5-.6 0zm9.1-17c.7 2.9 1.7 5.8 3.3 8.4 1.5 2.4 3.6 4.4 6.2 5.5 1.4.6 2.9 1 4.5 1 .4 0 .4-.7 0-.6-2.7 0-5.2-1.1-7.2-2.8-2.1-1.8-3.6-4.3-4.6-6.9-.6-1.5-1.1-3.1-1.5-4.7-.2-.4-.8-.3-.7.1zm-10.7-1.5c-2 3-5 5.1-8.5 5.9-.4.1-.2.7.2.6 2.8-.7 5.4-2.2 7.4-4.3.6-.6 1.1-1.3 1.5-1.9.2-.3-.4-.7-.6-.3zm-1 51.2c-.1 2.5-.1 4.9-.1 7.4v3.7c0 1.1 0 2.3.1 3.4s.2 2.1.6 3.1c.3.8.8 1.6 1.4 2.2 1.2 1.3 2.8 2.2 4.4 2.8 1.7.7 3.6 1.2 5.4 1.6 2.1.5 4.2.9 6.3 1.2 4.3.7 8.7 1.1 13.1 1.3 4.3.2 8.7.2 13-.1.5 0 1-.1 1.6-.1.4 0 .4-.7 0-.6-4.2.3-8.5.4-12.7.3-4.3-.1-8.7-.5-13-1.1-2.1-.3-4.2-.7-6.3-1.1-1.9-.4-3.8-.9-5.7-1.5-1.6-.5-3.3-1.2-4.7-2.3-.6-.5-1.2-1.1-1.7-1.8-.5-.8-.9-1.8-1-2.8-.2-1.1-.2-2.1-.2-3.2v-3.6c0-2.4 0-4.8.1-7.3 0-.6 0-1.2.1-1.8 0-.1-.7-.1-.7.3zM86 168c1 4.4 2 8.8 3 13.3.9 4.4 1.8 8.9 2.7 13.3.5 2.5.9 5 1.4 7.5.1.4.7.2.6-.2-.8-4.5-1.6-8.9-2.5-13.4-.9-4.4-1.8-8.9-2.8-13.3-.6-2.5-1.1-5-1.7-7.5-.2-.3-.8-.1-.7.3zm-44.2 68.9c3.6-2.4 7.2-4.7 10.8-7.1 3.6-2.3 7.3-4.6 11-6.9 2.1-1.3 4.1-2.5 6.2-3.8.4-.2 0-.8-.3-.6-3.7 2.2-7.4 4.5-11 6.7-3.7 2.3-7.3 4.6-10.9 6.9-2 1.3-4 2.7-6.1 4-.4.4-.1 1 .3.8zm-21-62.2c3.6-.4 7.2-.7 10.8-1.1.4 0 .4-.7 0-.6-3.6.4-7.2.7-10.8 1.1-.4 0-.4.7 0 .6z"/>
    <path class="st7" d="M30.9 173.4c-2 1.3-4.2 2.3-6.6 3-.4.1-.2.7.2.6 2.4-.7 4.6-1.7 6.7-3.1.3-.1 0-.7-.3-.5zm26.2 3c-2.1 2.2-3.9 4.7-5.4 7.4-.2.4.4.7.6.3 1.4-2.6 3.2-5.1 5.3-7.3.2-.2-.2-.7-.5-.4z"/>
    <path class="st7" d="M57.5 176.6c-1.2 2.4-2.3 5-3.1 7.6-.1.4.5.6.6.2.8-2.5 1.8-5 3-7.4.3-.5-.3-.8-.5-.4zm-50.3 3.6c.2.3.3.5.4.9 0 .2 0 .2.1.4v.4c0 .2 0 .4.2.4s.4 0 .4-.2c.1-.8 0-1.6-.5-2.2-.1-.1-.3-.2-.4-.1-.3 0-.3.2-.2.4zm1.9 1.4c.1.7.2 1.3.3 2 0 .2.2.3.4.2.2-.1.3-.2.2-.4-.1-.7-.2-1.3-.3-2 0-.2-.2-.3-.4-.2-.2.1-.2.3-.2.4zm.6-14c.1.4.2.7.2 1.1 0 .2.2.3.4.2.2-.1.3-.2.2-.4-.1-.4-.2-.7-.2-1.1 0-.2-.2-.3-.4-.2-.1 0-.2.2-.2.4zm3.4 16.1c-.1.8 0 1.5.2 2.3 0 .2.2.3.4.2.2 0 .3-.2.2-.4-.2-.7-.3-1.4-.2-2.1 0-.2-.2-.3-.3-.3-.2 0-.3.2-.3.3zm2 8.7.6 1.8c.1.2.2.3.4.2.2-.1.3-.2.2-.4l-.6-1.8c-.1-.2-.2-.3-.4-.2-.1 0-.2.2-.2.4zm42.9 1c.5.5 1.1.7 1.8.7.2 0 .3-.1.3-.3 0-.2-.1-.3-.3-.3h-.2c-.1 0 0 0 0 0H59c-.1 0-.1-.1-.2-.1 0 0-.1 0-.1-.1 0 0-.1 0 0 0-.1 0-.1-.1-.2-.1-.1-.1-.3-.1-.5 0-.1-.1-.1.1 0 .2zm5-4.3s.1-.1 0 0c.1 0 .1-.1.2-.1s.1 0 .2-.1h.5s.1 0 0 0h.2c.1 0 .1 0 .2.1h.1s.1 0 .1.1c.1.1.4 0 .4-.1.1-.2 0-.4-.1-.4-.6-.4-1.4-.4-2.1 0-.2.1-.2.3-.1.4.1.1.3.1.4.1zm2.7-2.8h2c.2 0 .3-.1.3-.3 0-.2-.1-.3-.3-.3h-2c-.2 0-.3.1-.3.3 0 .1.1.3.3.3zm-19-34.8c.2.8.3 1.6.2 2.3 0 .2.2.3.3.3.2 0 .3-.1.3-.3.1-.8 0-1.7-.2-2.5 0-.2-.2-.3-.4-.2-.1 0-.2.2-.2.4zm3.3 1.7v1.1c0 .2.1.3.3.3.2 0 .3-.1.3-.3v-1.1c0-.2-.1-.3-.3-.3-.1 0-.3.1-.3.3zm2.6 1.3v1.5c0 .2.1.3.3.3.2 0 .3-.1.3-.3v-1.5c0-.2-.1-.3-.3-.3-.1 0-.3.1-.3.3zM41 57.5c-1.9 4.9-1.9 10.2-1.5 15.4.9 13.6 3.7 27.2 9.6 39.5 5.9 12.3 13.1 13.1 24.8 20-.7 1.4-1.4 2.7-2.1 4.1C33.2 122 30.5 68 35.7 53.2c1.7 1.4 3.3 2.9 5 4.3h.3z"/>
    <path class="st9" d="M45.9 61.8c-1.5-.5-3-1-4.6-.7-1.5.2-3.1 1.4-3.2 2.9-.1.9.3 2.1-.3 2.8-.4.5-1.2.5-1.8.5-2.5 0-5-.1-7.4.7-2.4.8-4.6 2.6-5.1 5s.9 4.9 3.1 6c2.1 1.1 4.9.8 6.9-.5 1.1-.8 2.2-1.9 3.6-1.9.6 0 1.2.3 1.8.4 2.7.6 5.2-1.3 6.9-3.4.5-.6 1-1.2 1.6-1.5.5-.2 1.2-.3 1.7-.5 1.1-.5 1.7-1.8 1.7-3s-.5-2.4-1-3.5L48 61.2c-.3-.6-1-1.3-1.5-.9l-.6 1.5z"/>
    <path class="st9" d="M59.8 74c1.6 2.1 5.1 2.4 7 .6 1.4-1.3 1.9-3.3 3.5-4.3.9-.5 2-.6 3-.9 5.1-1.3 8.2-7.8 5.9-12.6-.4-.7-.8-1.4-1-2.2-.3-1.1.1-2.3.3-3.4.6-2.8.8-6-1.1-8.2-1.7-2-4.7-2.5-7.1-3.5-2.6-1.1-6.8-.5-7.9-3.1-.5-1.3-4.4-1.2-7.3.5-2.4 1.4-3.3 2.8-5.3 5.3-2.4 3-2.7 7.1-4.3 10.6-.5 1.1-1.1 2.3-1.2 3.5-.1 1.3.5 2.6 1 3.8 1.4 3.1 2.9 6.2 5.1 8.8 2.2 2.6 5.3 4.6 8.7 4.7l.7.4z"/>
    <path class="st0" d="M53.8 41.1c-2.4 5.3-6.1 11-8 16.4-2.8 8.5 4.7 9.6 4.8 9.6.2.1-.7 2.6-1.6 5-.9 2.4.1 5.2 2.5 6.4 2.5 1.3 5.6.3 6.9-2.2 1.8-3.5 4-8 5.1-10.6 1.5 2.5 5.7 2.7 7.4.3 1.7-2.3.4-6.3-2.5-7l5.8-12.4c-6.7-2.9-11.9-4.5-18.6-7.4l-1.8 1.9z"/>
    <path class="st9" d="M70.8 60.1c-3-.2-5.4-3.4-4.9-6.3.3-1.4 1.1-3.1 0-4.2-.3-.3-.8-.5-1.2-.7-2.2-1.1-3.4-3.9-2.7-6.2-1.4 1.1-3.1 1.7-4.9 1.7-.7 0-1.5-.1-2.2.2-1.3.5-1.8 2.1-2.6 3.2-1.1 1.6-3.1 2.5-5 2.3 2.3-4 4.6-8 6.8-12 .2-.4.4-.8.8-1 1.3-1 3.1.4 4.5 1.4 2.8 2.1 6.4 2.8 9.7 4.1 3.3 1.3 6.5 4 6.6 7.5 0 1.5-.5 3-1.2 4.4-1.2 2.6-2.1 3.5-3.9 5.8l.2-.2z"/>
    <path style="fill:#7c3832" d="m50.7 67.2 8.1 2.2-9 1.1z"/>
    <path class="st13" d="M57.2 53.4c-.4.8-1.1 1.4-1.9 1.9-.7.5-1.5 1-2.1 1.8-.5.6-.7 1.4-.5 2.2.1.7.6 1.3 1.3 1.5.4.1.6-.5.2-.6-.6-.2-.9-.8-.9-1.4 0-.8.4-1.4 1-1.9 1.2-1.1 2.9-1.7 3.5-3.3.1-.4-.5-.6-.6-.2zm8.6 11.1c1.1-.6 2.2-1 3.4-1.2.4-.1.2-.7-.2-.6-1.2.3-2.4.7-3.5 1.3-.3.1 0 .7.3.5z"/>
    <path class="st13" d="M67.1 63.7c0 .6.1 1.2.1 1.8 0 .2.1.3.3.3.2 0 .3-.1.3-.3 0-.6-.1-1.2-.1-1.8 0-.2-.1-.3-.3-.3-.1 0-.3.1-.3.3zm-14.5-1.4c1.3 1.2 3.3 1.2 4.7.1.3-.3-.1-.7-.5-.5-1 .9-2.7.9-3.8-.1-.3-.2-.7.3-.4.5z"/>
    <path d="M50.4 54.2c-.2.7.2 1.4.7 1.5.6.2 1.2-.3 1.4-1 .2-.7-.2-1.4-.7-1.5-.6-.1-1.2.4-1.4 1zm9.2 4.1c.3-.6 1.1-.9 1.7-.6.7.2 1.1.9 1 1.6 0 .2.2.3.3.3.2 0 .3-.1.3-.3.1-1-.5-1.9-1.4-2.2-.9-.3-2 .1-2.5.9-.2.3.4.6.6.3zm1.8-5.2c.7-.4 1.6-.2 2.2.3.6.5 1 1.2 1.4 1.9-1.4-.4-2.6-1.2-3.6-2.1v-.1zm-5.7-3c-1.3-.6-3-.2-4 .9 1.3.4 2.7.2 3.7-.7l.3-.2z"/>
    <path class="st7" d="M71.7 136.2c4.8-8.8 9.5-17.7 14.3-26.5.7-1.2 1.6-2.7 3-2.7.8 0 1.5.4 2.1.8 6.9 4.2 13.8 8.5 20.8 12.7.3.2.7.4.8.7.3.6 0 1.3-.3 2-3.9 8-10 19.2-14.3 27.1-.2.4-.4.8-.8 1-.4.2-.9.1-1.4 0-9.6-2.1-16.7-9.4-24.6-15.1h.4z"/>
    <path d="M71.4 136.1c3.2.7 5.8 3.1 8.3 5.2 2.6 2.1 5.8 4 9 3.1 2.8-.7 4.7-3.3 6.3-5.8 3.8-5.9 7.4-12 10.6-18.3.6-1.2 1.2-2.7.6-3.9-.2-.4-.6-.8-1-1.1-3.6-3-7.2-6-10.9-8.8-.9-.7-1.7-1.3-2.8-1.6-2.8-.8-5.7 1.2-7.6 3.5-2.7 3.3-4.6 7.2-6.5 11.1-2.2 4.7-4.4 9.4-6.7 14-.4.9-.5 2.3.4 2.4l.3.2z" style="fill:#c2b38c"/>
    <path class="st2" d="M88.4 139.7c1.8 1.7 3.9 3.1 6.1 4.1.1 0 .2.1.3.1.1 0 .2-.1.2-.2 1-1.6.4-3.6-1.3-4.5l-2.8-1.4c-.2-.1-.4-.2-.6-.2-.2 0-.4.2-.5.3-.5.5-1 1.1-1.4 1.8zm11.6-18.5c1.9 1.2 3.7 2.4 5.6 3.5.1.1.3.2.4.1.2 0 .3-.2.3-.4l.2-.5c.7-1.6 0-3.6-1.7-4.2l-3.1-1.2c-.1 0-.2-.1-.3-.1-.2 0-.3.3-.4.5l-.9 2.1-.1.2z"/>
    <path class="st7" d="M100 126.1c-1.6 2.9-3.5 5.6-5.7 8.2-.3.3.2.8.5.5 2.2-2.6 4.1-5.4 5.8-8.3.2-.5-.4-.8-.6-.4zm-12.2-19.4c-.4 1.9-1.1 3.8-2 5.5-.5.9-1 1.7-1.6 2.5-.6.8-1.3 1.6-1.8 2.4-1.1 1.7-1.5 3.8-2.1 5.7-.6 1.9-1.4 3.7-2.3 5.5-1 2-2.3 3.9-3.7 5.6-.3.3.2.8.5.5 2.5-3.1 4.5-6.7 5.8-10.4.3-1 .6-1.9.9-2.9.3-1 .6-2 1.1-2.9.5-.9 1.1-1.7 1.7-2.5.6-.8 1.2-1.6 1.7-2.5 1.1-1.9 1.9-4.1 2.4-6.3.1-.4-.5-.6-.6-.2zm1.1 8.7c-2 3.2-3.9 6.4-5.6 9.8-.3.6-.8 1.4-.5 2.1.2.5.8.7 1.4.6.5-.1.9-.4 1.4-.4.7-.1.3 1 .2 1.4-.5 1.7-1.6 3.4-1.1 5.2.1.4.7.2.6-.2-.4-1.6.5-3.1 1-4.6.2-.6.6-1.6.1-2.2-.3-.4-.8-.4-1.3-.2-.4.1-.9.4-1.4.4-.7 0-.3-.9-.1-1.3.8-1.6 1.7-3.2 2.6-4.8 1-1.8 2.1-3.6 3.2-5.4.3-.5-.3-.8-.5-.4zm2.7 26.6c.8.2 1.7-.2 2.1-.9.4-.7.2-1.7-.5-2.2-.1-.1-.3-.1-.5 0-.1.1-.1.3 0 .5.2.2.4.4.4.7.1.2 0 .5-.1.7-.1.3-.3.4-.6.6h-.8c-.2-.1-.4.5 0 .6zm11.5-19.4c.6.5 1.5.5 2.2 0 .6-.5.7-1.4.3-2.1-.2-.4-.6-.7-1.1-.8-.2 0-.3 0-.4.2 0 .2.1.4.2.4s.1 0 .2.1c.1 0 0 0 0 0h.1s.1 0 .1.1c0 0 .1 0 0 0l.1.1.1.1s0 .1 0 0c0 0 0 .1.1.1v.2c0 .1 0 .1.1.2 0 0 0 .1 0 0v.2s0 .1 0 0c0 .1 0 .1-.1.2 0-.1 0 0 0 0s0 .1-.1.1l-.1.1-.1.1c-.1 0-.1.1-.2.1 0 0-.1 0 0 0h-.3s-.1 0 0 0h-.6s-.1 0-.1-.1c0 0-.1-.1 0 0-.1-.1-.3-.1-.5 0 0 .3 0 .6.1.7z"/>
    <path class="st15" d="M95.2 67.1c-.2 1.1-.5 2.2-.7 3.3-.1.4.5.6.6.2.2-1.1.5-2.2.7-3.3.1-.4-.5-.6-.6-.2zm1.8.4c-.2.8-.4 1.6-.5 2.4 0 .2.1.3.2.4.2 0 .4-.1.4-.2.2-.8.4-1.6.5-2.4 0-.2-.1-.3-.2-.4-.1-.1-.3 0-.4.2zm-85.7-3.6c.9-.5 1.8-.9 2.8-1.1.2 0 .3-.2.2-.4 0-.2-.2-.3-.4-.2-1 .2-2 .6-2.9 1.1-.3.3 0 .8.3.6zm1.7.9c.4-.1.9-.2 1.3-.4.2 0 .3-.2.2-.4-.1-.2-.2-.3-.4-.2-.4.1-.9.2-1.3.4-.2 0-.3.2-.2.4.1.1.2.2.4.2zm10.7-24.5c.7-.6 1.3-1.2 2-1.7.1-.1.1-.3 0-.5-.1-.1-.3-.1-.5 0-.7.6-1.3 1.2-2 1.7-.1.1-.1.3 0 .5.2.1.4.1.5 0zm1.1 1.7c.9-.4 1.7-1 2.5-1.6.1-.1.1-.3 0-.5-.1-.1-.3-.1-.5 0-.7.6-1.5 1.2-2.3 1.5-.2.1-.2.3-.1.4 0 .2.2.2.4.2zm1.6 1.9c.7-.2 1.5-.4 2.2-.6.2 0 .3-.2.2-.4 0-.2-.2-.3-.4-.2-.7.2-1.5.4-2.2.6-.2 0-.3.2-.2.4.1.2.3.3.4.2zm60.8 24.9c-.3 1.3-.3 2.6.1 3.9.1.4.7.2.6-.2-.3-1.2-.3-2.4-.1-3.6.1-.3-.5-.5-.6-.1zm2.2.8v2.6c0 .4.6.4.6 0v-2.6c0-.4-.6-.4-.6 0z"/>
    <path class="st16" d="M18.3 15.6c-2.4.4-4.5 2.1-5.4 4.4-.2.4.5.6.6.2.8-2.1 2.8-3.6 5-3.9.2 0 .3-.2.2-.4 0-.2-.2-.3-.4-.3zM8.4 10c0 1.6.7 3.3 1.9 4.4.6.6 1.4.9 1.8 1.7.4.7.4 1.7.4 2.5 0 .4.6.4.6 0 0-.8 0-1.7-.3-2.5s-1-1.3-1.7-1.8C9.8 13.2 9 11.6 9 10c0-.4-.6-.4-.6 0z"/>
    <path class="st16" d="M8.2 10.3c2.4.5 4.7 1.1 7 2 .4.2.6-.5.2-.6-2.3-.9-4.6-1.6-7-2-.4-.1-.6.5-.2.6z"/>
    <path class="st16" d="M10.4 2.5c.1 2.6.3 5.3.7 7.9 0 .2.1.3.3.3.2 0 .3-.2.3-.3-.4-2.6-.6-5.3-.7-7.9.1-.4-.6-.4-.6 0zm109.8 49.8c.8 2.3 1.8 5.1.2 7.2-.3.3.3.7.6.3 1.7-2.3.8-5.3-.1-7.7-.2-.3-.9-.2-.7.2zm13.9-7.4c-2.1 2.6-4.1 5.2-6.2 7.9-.3.3.2.8.5.5 2.1-2.6 4.1-5.2 6.2-7.9.2-.4-.3-.8-.5-.5z"/>
    <path class="st16" d="M124.9 51.6c1.5 1.2 3.2 2.3 4.9 3.1.4.2.7-.4.3-.6-1.7-.8-3.3-1.9-4.8-3-.3-.3-.7.2-.4.5z"/>
    <path class="st16" d="M131.9 52.3c-.2 1.5-1.6 2.4-3 2.9-1.6.5-3.3.6-4.8 1.4-.7.4-1.4 1-1.8 1.7-.2.4.4.7.6.3.8-1.4 2.4-1.9 3.9-2.3 1.6-.4 3.3-.7 4.5-1.8.6-.5 1.1-1.3 1.2-2.1 0-.2 0-.3-.2-.4-.2.1-.4.2-.4.3z"/>
    <path class="st15" d="M101.8 86.2c.6.9 1 1.9 1.2 3 0 .2.2.3.4.2.2 0 .3-.2.2-.4-.2-1.1-.7-2.2-1.3-3.2-.2-.2-.8.1-.5.4zm1.3.3c.3.2.6.5.8.8l.2.2s0 .1 0 0v.1l.1.1c.1.2.2.3.3.5.1.1.3.2.4.1.1-.1.2-.3.1-.4-.4-.7-.9-1.3-1.6-1.8-.1-.1-.3-.1-.5 0 .1.1.1.3.2.4zm-75.6 16.8c.3-.3.5-.4.8-.6.2-.1.3-.2.5-.3 0 0 .1 0 .1-.1h.1c.1 0 .2-.1.3-.1.2-.1.3-.2.2-.4-.1-.2-.2-.3-.4-.2-.8.3-1.5.7-2.1 1.2-.1.1-.1.3 0 .5.2.1.3.1.5 0zm.8 1.3c.3-.1.6-.3.9-.4.1 0 .1-.1.1-.2v-.2c-.1-.2-.3-.2-.4-.1-.3.1-.6.3-.9.4-.1 0-.1.1-.1.2v.2c0 .2.2.2.4.1zm36.4 4.8c.2.1.3.2.5.3 0 0 .1 0 0 0h.1l.2.2c.1.1.3.2.4.4l.2.2.1.1v.1c.1.1.3.2.4.1.1-.1.2-.3.1-.4-.5-.6-1.1-1.2-1.7-1.6-.1-.1-.4 0-.4.1-.1.2 0 .4.1.5zm.5-2.2c.2 0 .3.1.5.1h.2s.1 0 0 0c.1 0 .2.1.2.1.1 0 .1.1.2.1 0 0 .1 0 .1.1 0 0 .1.1 0 0 .1.1.3.2.4.4.1.1.3.1.5 0 .1-.1.1-.3 0-.5-.5-.6-1.2-1-1.9-1.1-.2 0-.4 0-.4.2 0 .3 0 .6.2.6z"/>
    <path class="st9" d="M75.9 43.6c.5 1.5 1.1 3 1.6 4.5.5 1.4.9 2.8 1.5 4.2.3.6.6 1.2 1 1.8.4.5.8.9 1.3 1.4.5.4.9.9 1.2 1.5.3.6.5 1.2.4 1.9 0 1.4-.6 2.7-1.1 4-.5 1.1-1 2.3-1.8 3.2-.8 1-1.9 1.6-3.2 2-1.3.3-2.6.4-3.9.5-2.4.3-5.2 1-6.3 3.5-.2.4.5.6.6.2.9-2.2 3.6-2.8 5.6-3 1.3-.1 2.7-.2 4-.5 1.3-.3 2.4-.9 3.3-1.8.9-.9 1.5-2 2-3.2.5-1.2 1.1-2.6 1.3-3.9.1-.7.1-1.3 0-2s-.4-1.2-.9-1.8c-.8-1-1.9-1.8-2.5-2.9-.8-1.4-1.3-3-1.8-4.5l-1.8-5.1c0-.5-.6-.3-.5 0zM60.4 41c-1 1.5-1 3.5-.3 5.2.4.8.9 1.5 1.6 2.1.7.5 1.5.9 2.3 1.4.8.5 1.6 1.1 2 2 .2.4.7.1.6-.3-.7-1.6-2.4-2.2-3.8-3.1-.7-.4-1.3-1-1.8-1.7-.4-.7-.7-1.5-.7-2.4 0-1 .2-1.9.7-2.7.2-.5-.4-.9-.6-.5z"/>
    <path class="st9" d="M63.7 39.5c0-2.5-2-4.5-4.2-5.3-2.7-1-5.6 0-8 1.4-2.3 1.4-4.7 3.4-5.5 6.1-.2.6-.3 1.3-.2 2 .1.8.3 1.5.5 2.2.2.8.2 1.5 0 2.2-.2.7-.6 1.4-1 2-.9 1.4-1.9 2.7-2.1 4.4-.1 1.3.4 2.7 1.6 3.3.4.2.7-.4.3-.6-1-.5-1.4-1.6-1.3-2.7.1-1.4 1-2.5 1.7-3.6.8-1.1 1.5-2.4 1.5-3.8s-.7-2.7-.7-4.1c.1-2.6 2.3-4.6 4.2-6.1 2.1-1.5 4.8-2.8 7.5-2.4 2.4.4 4.9 2.4 4.9 5 .2.5.8.5.8 0zm-16 30.2c.4 2.5-.7 5-2.6 6.6-1 .8-2.2 1.3-3.5 1.4-1.8.1-3.5-.3-5.2-.6-2-.4-4-.7-6-1.1-.4-.1-.6.5-.2.6 1.9.3 3.8.7 5.6 1 1.8.3 3.7.8 5.5.7 2.8-.1 5.3-1.9 6.5-4.4.6-1.4.9-2.9.6-4.4-.2-.4-.8-.2-.7.2z"/>
</svg>
