<svg xmlns="http://www.w3.org/2000/svg" width="185" height="183.3" style="overflow:visible;enable-background:new 0 0 185 183.3" xml:space="preserve">
    <style>
        .st2{fill:#4c290a}.st3{fill:#603913}.st5{fill:#f6a472}.st7{fill:#6da8c6}.st8{fill:#072935}.st9{fill:#fed5b7}.st10{fill:#ea7d7a}.st11{fill:#c2b59b}.st12{fill:#5e5038}.st13{fill:#79451f}.st15{fill:#af4e4e}
    </style>
    <path d="M24 121.5c1 14.9 2.6 29.8 4.8 44.6.1.7.2 1.4.7 1.9.4.5 1.1.7 1.7.9 2.1.6 5.3 0 7.5-.2 1.9-8.6 2.7-16.9-1-25-.4-1-1-1.9-1.2-2.9-.3-1.3-.1-2.7.1-4.1 1-6.3 4.7-12.9 5.7-19.2.1-.4.1-.8-.2-1.1-.2-.2-.5-.3-.9-.3-4.3-.8-11.5-.2-15.7.8l-1.5 4.6z" style="fill:#d6a98a"/>
    <path d="M28.9 16.4c-2.8-.9-5.9-.4-8.3 1.2s-3.9 4.4-4.1 7.3c-.1 2.2.5 4.6-.7 6.4-.5.8-1.4 1.4-2 2.1-1.6 1.9-1.4 4.7-.8 7.1.2.7.4 1.4.9 1.8.4.4 1 .6 1.5.7 6.6 2.1 13.6 2.6 20.4 1.8 1.3-.2 2.7-.4 3.8-1.1 1.1-.7 2-2.1 1.7-3.4.5 1 .9 1.9 1.4 2.9 2.3.8 5-.2 6.3-2.3 1.2-2.1.8-5-1-6.6-1.6-1.5-4.1-1.9-5.3-3.8-1.2-2-.3-4.6-.4-7-.2-3.2-2.1-7-5.3-7.4-1.3-.2-2.4-.6-3.5-1-1.2-.5-3.7 0-4.5 1l-.1.3z"/>
    <path d="M104.4 103.5c.9 2.7 2.5 5 4.8 6.7 1.4 1 3.1 1.8 4.7 2.5 2.6 1.2 5.3 2.3 7.9 3.5 2.3 1 4.7 2.1 7.2 2.4 4.3.6 8.7-.9 13-.5 3 .2 5.9 1.3 8.9 1.6 4.7.5 9.5-1.2 13-4.3-5 .3-10.1-.5-14.7-2.5-8.2-3.5-15.3-10.4-24.2-10.5-1.6 0-3.1.2-4.7.2-4.2.2-8.4-.6-12.2-2.2l-3.7 3.1z" style="fill:#726658"/>
    <path class="st2" d="M75.5 47.4c-2.1-2.5-2.2-6.1-2.2-9.3.1-3.1.3-6.4 1.7-9.2.2-.3.4-.7.7-.9.3-.2.8-.2 1.1 0 .1.1.2.3.2.4 2.3 6 2 13.2-.9 19h-.6z"/>
    <path class="st3" d="M149.3 3.6c5.1.2 9.9 2.4 12.9 5.4 3 3 4.4 6.7 4.3 10.4-.1 2.8-.9 5.9 1 8.4 2.3 3 7.8 4.2 9.9 7.3 1.3 1.8 1.2 4 .6 6s-1.6 3.9-2.1 6c-.4 2-.2 4.2 1.5 5.9 1.7 1.6 5.2 2.4 7.5 1.2-1.3 2.8-4.9 5.1-9 5.7-2.3.3-3.2 5.2-.7 8.8 2.1 2.9-5.4-2.6-4.6 0 1.1 3.5 1.6 5 1 7.5-.9 3.3-2.4 6.3-6 8.4 1-2.5 1.6-5.8-1.4-7.3-1.7-.9-3.9-.9-6-.9-5-.1-10-.7-14.3-2.5-4.3-1.7-7.9-4.7-9-8.1-1.5-4.8 1.7-9.6 2.7-14.4.2-.8.3-1.6 0-2.4-.7-1.9-3.6-2.8-6-3.6-3.4-1.1-6.7-2.4-9.6-4.1-2.9-1.7-5.6-4.1-5.2-6.7.2-1.6 1.4-3 1.7-4.6.4-1.8-.6-3.7-1-5.5s-.4-4 1.4-5.3c.8-.5 1.7-.8 2.6-1.3 5.2-2.8 3.9-9.2 9.1-12 1.3-.7 2.9-1.1 4.4-1.5 2.1-.5 4.2-1 6.4-1.5 1.1-.3 2.3-.6 3.5-.5 1.4.1 2.7.6 3.8 1.2 3 1.6 5.7 4.1 5.3 6.8l-4.7-6.8z"/>
    <path class="st3" d="M133.3 4.2c4.1-.3 7.5-3.9 11.6-3.6 3.1.2 5.6 2.7 8.5 3.9 2.2.9 4.7 1.1 6.4 2.7 2.7 2.5 1.8 6.9 2.3 10.5.5 3.5 2.4 7 1.1 10.3-.8 2.1-2.8 3.5-4.4 5.1-1.8 1.8-3.1 4-4.9 5.8-1.8 1.8-4.4 3.1-6.9 2.4-2.2-.6-3.8-2.7-6-3.3-2.2-.7-5.2-.2-6.2-2.2-1-1.9.9-4.2.5-6.4-.3-1.3-1.4-2.3-2-3.5-1.4-2.5-.7-5.7.1-8.5l-.1-13.2z"/>
    <path d="M145.3 143.1c.6 1.4 1.2 2.7 1.4 4.2.2 1.5-.2 3.1-1.3 4.1-.6.6-1.4 1-1.4 1.8 0 .6.4 1.1.9 1.5 2 1.9 4.2 3.6 5.8 5.8 1.6 2.2 2.4 5.2 1.3 7.7-.6 1.3-1.6 2.8-.8 4 .5.7 1.4.9 2.3.9 3-.1 5.5-2.7 6.4-5.6.9-2.9.7-6 .5-9-.5-5.5-.9-11-1.4-16.6-.1-.6-.1-1.2-.4-1.7-.8-1.3-2.7-1-4.2-.6-3 .8-5.9 1.6-8.9 2.4l-.2 1.1z" style="fill:#937f63"/>
    <path class="st5" d="M143.1 157.5c5.3 1.6 10.6 3.3 15.9 4.9 1 .3 2 .6 3 .6 3.4 0 6-3.1 7.1-6.2 0 .1-22.1-11.2-22.6-11.5-1.4 2.2-2.8 4.5-4.2 6.7l.8 5.5z"/>
    <path d="M155.2 164c0-1.8.5-3.1 2.1-3.9s3.7-.6 5.2.5c.3.2.6.5 1 .6 1.4.5 2.3-1.5 2.1-2.9-.2-1.4-.8-3 0-4.2.7-1 2.2-1.2 3.3-.7 1.1.4 2 1.4 2.8 2.3 1.6 1.7 3.1 3.4 4.7 5.1.6.7 1.2 1.4 1.3 2.3 0 .7-.4 1.4-.7 2-2.8 4.7-5.8 9.4-9.9 13-4.1 3.6-9.7 5.9-15.1 5.1-1.3-.2-2.7-.7-3.3-1.9-.6-1.3 0-2.9 1.1-3.9 1-1 2.4-1.7 3.4-2.6 2.5-2.2 3.5-6 2.3-9.2l-.3-1.6z" style="fill:#e3d5b8"/>
    <path class="st7" d="M120.5 111.3c-.1 3.6-.2 7.4-2 10.6-.9 1.6-2.1 3-3.4 4.4-4.8 5.3-9.5 10.8-13.9 16.5-3.9 5.2-7.7 10.8-9 17.1-.8 4-.4 8.9 3 11.2 2.7 1.9 6.3 1.6 9.5 1.1 3.3-.4 6.6-.9 9.6-2.1 5.1-1.9 9.6-5.5 14.9-6.5-.5-1.8-.6-3.7-.3-5.5 2.5 1.4 5.1 2.6 7.9 3.6.7.2 1.4.5 2.1.4.9-.1 1.7-.6 2.3-1.2 4.6-3.8 7.6-9.2 10.4-14.4.1-.2.3-.5.2-.7-.1-.2-.3-.4-.5-.5-1.4-.9-2.9-1.8-4.3-2.7 3.9-1.5 7.7-3.5 11.1-5.9 2.3-1.6 4.5-3.4 5.8-5.8 1.7-3.2 1.5-7.2.3-10.6-1.2-3.5-3.3-6.5-5.3-9.5-.3-.4-.6-.9-1.2-1.1-.5-.2-1 0-1.5.1-11 2.7-22.6 2.4-33.4-1l-2.3 2.5z"/>
    <path class="st8" d="M143.1 117.8c-4.7 1.8-9.3 3.8-13.8 6-4.4 2.1-8.9 4.4-13.1 6.9-2 1.2-3.9 2.5-5.3 4.3-1.4 1.7-2.3 3.8-2.4 6 0 2.2 1 4.3 2.3 6 1.3 1.7 2.9 3.3 4.6 4.7 3.4 2.8 7.3 4.9 11.2 6.9.5.2 1 .5 1.4.7.4.2.8-.4.4-.6-3.8-1.9-7.6-3.9-11.1-6.4-1.7-1.2-3.3-2.6-4.7-4.2-1.4-1.6-2.7-3.4-3.2-5.5s.2-4.3 1.3-6.1c1.2-1.9 3-3.3 4.8-4.5 2-1.3 4.1-2.4 6.1-3.5 2.2-1.2 4.3-2.3 6.5-3.3 4.4-2.1 8.8-4.1 13.4-5.9.6-.2 1.1-.4 1.7-.7.5-.3.3-1-.1-.8z"/>
    <path class="st8" d="M121.6 156.2c-3.5 2.2-7.1 4.5-10.6 6.7-.4.3 0 .9.4.6 3.5-2.2 7.1-4.5 10.6-6.7.4-.2 0-.9-.4-.6z"/>
    <path class="st8" d="M114.6 161.5c-1.2.8-2.1 2-2.8 3.2-.1.2 0 .4.1.5.2.1.4 0 .5-.1.6-1.2 1.5-2.2 2.5-3 .2-.1.2-.3.1-.5.1-.2-.2-.3-.4-.1z"/>
    <path class="st5" d="M131.9 116.5c-5.4 6.9-16.1 11.3-23.1 16.7-.6.5-1.2 1-1.7 1.7-.7 1.1-.7 2.5-1.2 3.7-1.1 2.3-3.9 3.3-5.3 5.5-1.9 3-.4 7.1-1.8 10.2-.1.3-.6.3-.7 0-1.2-2.4-.8-7.7-.8-7.7s.2 5.3.3 7.7c0 .5-.1 1.5-.5 1.7-.3.2-.6-1.2-.7-1.6-.4-2-1.1-7.9-1.1-7.9s1.4 7.7 1 10.2c-.1.5-.7.7-1 .3-1.5-1.6-2.3-10.7-2.3-10.7s.2 5.7-.1 8.1c0 .3-.5.5-.7.2-1.7-2.3-2.2-7.1-1.9-9.8.8-5.4 6.1-8.8 9.5-13 1.7-2.2 20.6-22.8 21.1-22.7 4.9.5 6 3.8 10.8 4.9l.2 2.5z"/>
    <path class="st9" d="M51.7 69.1c4.6 4.1 12.6 5.8 18.1 8.6.5.3 1 .5 1.4.9.6.7.8 1.7 1.3 2.4 1 1.5 3.2 1.8 4.4 3.1 1.7 1.8 1.2 4.9 2.6 6.8.1.2.4.1.5-.1.5-1.8-.4-5.4-.4-5.4s.5 3.7.8 5.4c.1.4.2 1 .6 1.1.2.1.3-.9.3-1.2 0-1.5-.3-5.6-.3-5.6s0 5.5.6 7.2c.1.3.6.4.8.1.8-1.3.2-7.7.2-7.7s.6 4 1.1 5.6c.1.2.4.3.5 0 .9-1.8.6-5.2 0-7-1.2-3.7-5.3-5.3-8.2-7.8-1.5-1.3-17.2-13.1-17.5-13-3.3 1-3.7 3.4-6.8 4.8v1.8z"/>
    <path class="st5" d="M78.9 30.8c-7.1-4.1-14.3-8.2-21.4-12.3-3.5-2-7.1-4.1-11.1-4.9-4-.8-8.3-.3-12 1.4 1.6 2.1 3.7 3.9 6.1 5.1-1.5 1.5-3.1 3-4.7 4.3-.4.3-.2 1 .3 1.1 3.3.5 6.6-2.4 10.1-2.9 4-.5 7.6 2.2 10.9 4.6 7.8 5.9 22.4 19.5 25.3 18.9.7-.2 1.5-12.1 1.5-12.1l-5-3.2z"/>
    <path class="st9" d="M19.3 101.6c-5.8 6.3-10.1 13.8-12.7 21.9-.6 1.9-1.1 4-1 6 .2 4 2.8 7.6 6.1 9.8 3.3 2.3 7.2 3.5 11.1 4.4 4.4 1.1 8.8 2 13.3 2.6.5.1 1.1.2 1.6-.1.5-.2.8-.7 1-1.1 1.2-1.9 2.2-3.9 3-5.9-7-3.9-14.4-7.9-22.4-8.6l13-13c.9-.9 1.8-1.8 2.4-3 1.6-3.2-.3-7.2-3.1-9.5s-6.3-3.3-9.6-4.8l-2.7 1.3z"/>
    <path class="st10" d="M5.5 31.2c-.3-1.5.5-3.1 2-3.6 2.1-.7 4.5-.5 6.5.5 2.9 1.4 5 4 6.8 6.6 1.2 1.7 2.2 3.6 3.9 4.8 3.6 2.6 8.7 1.3 13 2.4.6.2 1.3.4 1.7.8.5.4.8 1.1 1 1.7 4.3 10.5 4.2 16.5.8 27.3-.5 1.7-1.2 3.4-1.1 5.1 0 2.8 1.7 5.3 3.1 7.8 5 9 6.9 25.7 8 35.9.1.6.1 1.3-.1 1.8s-.7.9-1.1 1.3c-2.5 1.9-5.6 2.9-8.8 2.6-4.7-.4-9-3.3-13.7-2.9-3.2.2-6 2-9.1 2.6-6.4 1.4-12.8-2-18.6-5.2 2.4-4.4 4.8-8.9 5.3-13.8.3-2.6 0-5.2.2-7.7.7-9.2 6.9-16.8 11.6-24.7.4-.7.9-1.5.8-2.3-.1-.7-.6-1.3-1-1.9-1.6-2.1-3-4.5-3.2-7.2-.1-2.5.9-5 1-7.5.4-8.8-8.2-13.5-8.9-22.4l-.1-2z"/>
    <path class="st7" d="M33.2 146.6c1.6-3.3 3.2-6.6 4.9-9.9 4.4 1.9 9 3.2 13.7 3.8-2 6.7-4.3 13.4-6.8 19.9.3-5.4-2.8-11.1-8-12.4l-3.8-1.4zm-4.7 18.9c3.7.3 7.5.6 11.2.9-.3 4.8.2 9.6 1.4 14.2-7.1.6-14.3 1-21.5 1 5.2-1.7 9.5-6.7 8.9-12v-4.1z"/>
    <path class="st10" d="M28.3 61.6c8.8.1 17.6 3.5 24.3 9.2 2-2.3 3.9-4.7 5.8-7.1.3-.4.6-.8.7-1.3 0-.5-.2-1-.5-1.4-4-6.8-10.9-11.2-17.5-15.4-.3-.2-.6-.4-.9-.4-.4 0-.7.2-1.1.4-4.8 3-9.2 6.7-13 10.9l2.2 5.1z"/>
    <path class="st11" d="M137.6 44.3c-20.8-4-41.8-8-61.2-16.5.2 6.4-.2 13.3-1.3 19.6 8.7 5.7 33.1 17.3 35.8 16.2-3.6 14.8-4.2 22.5-6.5 37.5-.1.7-.2 1.4.1 2.1.2.5.7.9 1.2 1.2 6.4 4.7 14 7.6 21.9 8.3 3.3.3 6.6.2 9.8.6 4.6.5 9 1.9 13.6 2.6 4.6.8 9.4 1 13.6-.8-.7-5.7-2.3-11.2-4.8-16.3-1-2.1-2.2-4.2-2.8-6.5-2.1-8.3 4.3-16.3 4.7-24.8.3-5.9-2.4-11.6-6.5-15.9-4.1-4.2-8.7-4.8-14.3-6.5l-3.3-.8z"/>
    <path class="st5" d="M131.4 9.5c-.9 3-4.3 9.3-4.3 9.3s-4.2-.5-6.4-.7c1.1.9 3.8 6.1 3.8 6.1s-1.1 6-1.7 9.3c-.2 1.1-.3 2.2.1 3.2 1.1 2.3 5.9 2.4 8.4 1.9.4 4 .4 4.7.8 8.7 0 .3 3.2 3.6 6.9 3.7 3.7.2 7.9-2.7 7.9-2.9-.2-5.1-1.6-10.7-1.8-15.8-.1 1 .7 1.9 1.6 2.1s1.9 0 2.8-.6c1.7-1.1 2.7-3.4 2-5.4-.7-1.9-3.2-3.1-5-2-.8-.4 3.5-12.9 3.4-13l-18.5-3.9z"/>
    <path class="st11" d="M150.1 63.2c-4.7 8.7-9.7 17.2-14.9 25.6-5 8.1-10.4 16.1-17.8 22 1.2 2.7 3.6 4.6 6.2 5.9 2.6 1.3 5.5 1.9 8.4 2.6.5.1 1 .2 1.5 0 .4-.1.7-.5 1-.8 6.1-6.9 11.1-14.7 16-22.5 1.1-1.7 2.1-3.3 2.9-5.1 3.2-7.2 2-15.4.7-23.1l-4-4.6z"/>
    <path class="st12" d="M148.8 180.1c2.1 1.2 4.5 1.8 6.9 1.6 2.2-.1 4.3-.8 6.2-2 3.8-2.3 6.7-5.9 9.4-9.3 2-2.5 3.9-4.9 5.9-7.4.3-.4-.2-.9-.5-.5-1.7 2.1-3.4 4.3-5.1 6.4-1.4 1.8-2.8 3.6-4.4 5.3-2.8 3.1-6.2 6-10.5 6.6-2.6.4-5.4-.1-7.7-1.4-.2-.2-.6.4-.2.7z"/>
    <path class="st12" d="M174.6 158.9c-1 1.8-1.1 4.1-.2 6 .2.4.8.1.6-.4-.7-1.7-.6-3.6.2-5.2.3-.4-.3-.8-.6-.4zm-24.3 18.3c1.7.7 3.2 2 4 3.7.2.4.8.1.6-.4-.9-1.8-2.5-3.3-4.5-4-.2-.1-.4.1-.5.3.1.1.2.3.4.4zm6-5.6c1.2.5 2.3 1 3.3 1.8.2.1.4 0 .5-.1.1-.2 0-.4-.1-.5-1.1-.7-2.2-1.4-3.5-1.8-.2-.1-.4.1-.5.3 0 .1.1.2.3.3zm.4-1.7 3 .9c.5.1.6-.6.2-.7l-3-.9c-.5-.1-.7.6-.2.7zm.1-7.4c.7-.9 2-.9 3-.7 1.4.3 2.6 1.1 4 1.3 1.2.2 2.4-.2 3.3-.9.9-.7 1.5-1.8 1.6-2.9.1-.8-.1-1.5-.3-2.2-.2-.7-.3-1.5 0-2.2.2-.4-.4-.8-.6-.4-.6 1.3 0 2.6.1 4 .2 1.2-.3 2.3-1.1 3.1-.9.9-2.1 1.1-3.3.8-1.3-.3-2.5-1-3.8-1.2-1.3-.2-2.6 0-3.4 1.1-.4.2.2.6.5.2zm11.1 1.7c.2.6.7 1 1.3 1.1.6.1 1.3-.1 1.6-.6.3-.5.3-1.1.1-1.7-.1-.3-.3-.5-.6-.6-.3-.1-.6-.2-.9-.1-.3 0-.6.2-.8.4-.3.2-.4.5-.4.9 0 .2.2.4.4.4s.3-.2.4-.4c.1-.2.1-.2.1-.3.1-.1.2-.1.2-.2.1 0 .2-.1.2-.1.1 0 .2 0 .2-.1h.3c.1 0 .2.1.2.1.1.2.2.2.2.2 0 .1.1.2.1.2v.4c-.1.1-.1.2-.1.2l-.2.2c-.2.1-.3.1-.3.1h-.3c-.2 0-.2 0-.3-.1-.2-.1-.2-.1-.3-.1-.2-.2-.2-.3-.3-.3-.1-.3-.3-.4-.5-.4-.2.4-.3.6-.3.8zm-12.3-23.9c.7 3.4 1.4 6.8 2 10.2.1.5.8.3.7-.2-.7-3.4-1.4-6.8-2-10.2-.1-.5-.8-.3-.7.2zm-4.2 31.4c1 .1 2.1-.2 2.8-.9.1-.1.1-.4 0-.5-.1-.1-.4-.1-.5 0-.6.5-1.5.8-2.3.7-.2 0-.4.2-.4.4.1.1.2.2.4.3zm.2-1c.7-1.2 2.3-1.7 3.6-1.2.2.1.4.1.5-.1.1-.2.1-.4-.1-.5-1.6-.7-3.6-.1-4.6 1.4-.3.4.3.8.6.4zm.7-8.5c.4-.2.7-.4 1.1-.6.2-.1.2-.3.1-.5s-.3-.2-.5-.1c-.4.2-.7.4-1.1.6-.2.1-.2.3-.1.5s.3.2.5.1zm.2 1.8c.4-.3.9-.6 1.3-.9.2-.1.2-.3.1-.5s-.3-.2-.5-.1c-.4.3-.9.6-1.3.9-.2.1-.2.3-.1.5.1.1.3.2.5.1z"/>
    <path class="st8" d="M132.9 160.5c4.7-3.3 8.7-7.6 11.6-12.6.8-1.4 1.5-2.9 2.1-4.4.2-.4-.5-.6-.7-.2-2.1 5.2-5.5 9.9-9.6 13.6-1.2 1.1-2.4 2-3.7 3-.5.2-.1.9.3.6z"/>
    <path class="st8" d="M147.9 143.1c-4.2-2.9-9.3-4-14.2-5.2-1.4-.4-2.8-.7-4.2-1.2-.4-.1-.6.6-.2.7 4.8 1.6 9.8 2.3 14.5 4.3 1.3.6 2.6 1.2 3.7 2.1.4.2.8-.5.4-.7z"/>
    <path class="st8" d="M131.3 136.1c1.2.5 2.2 1.3 3 2.2.1.1.4.1.5 0 .1-.1.1-.4 0-.5-.9-1-2-1.8-3.2-2.3-.2-.1-.4-.1-.5.1 0 .2 0 .5.2.5zm31.9-17.5c-2.1-.1-4.2 0-6.2.3-.2 0-.5.2-.4.5.9 2.2 1.6 4.5 2.1 6.9.2 1.2.4 2.4.5 3.6.1.9.3 1.9 1.2 2.4.8.4 1.9.4 2.6-.2.4-.3-.2-.8-.5-.5-.5.4-1.3.4-1.8 0-.8-.5-.7-1.7-.8-2.5-.2-2.1-.7-4.2-1.3-6.3-.4-1.2-.8-2.3-1.2-3.5-.1.2-.2.3-.4.5 2.1-.3 4.2-.4 6.2-.3.4-.2.4-.9 0-.9z"/>
    <path class="st8" d="M158.6 122.4c1.5-.5 3-.8 4.5-1 .2 0 .3-.3.3-.5-.1-.2-.3-.3-.5-.3-1.5.2-3 .5-4.5 1-.5.2-.3 1 .2.8zm-36 34.2c.3 2.7 1 5.3 2 7.7.2.4.9.2.7-.2-1-2.4-1.6-5-1.9-7.5-.1-.4-.9-.5-.8 0z"/>
    <path class="st13" d="M146.2 31.9c.9-.9 1.8-1.7 2.9-2.3.4-.2 0-.9-.4-.6-1.1.7-2.1 1.5-3 2.4-.3.3.2.8.5.5z"/>
    <path class="st13" d="M147.3 30.7c.3.4.6.9.8 1.3.1.2.3.2.5.1s.2-.3.1-.5c-.3-.4-.6-.9-.8-1.3-.1-.2-.3-.2-.5-.1-.1.1-.2.3-.1.5zM96.6 146c.2 2.6.4 5.1.6 7.7 0 .5.8.5.7 0-.2-2.6-.4-5.1-.6-7.7 0-.5-.8-.5-.7 0zm-2.3 1c.3 2.9.8 5.8 1.4 8.6.1.5.8.3.7-.2-.6-2.8-1.1-5.6-1.4-8.4-.1-.4-.8-.4-.7 0zm-2.1-.4c.1 3 .6 6 1.6 8.8.2.4.9.3.7-.2-1-2.8-1.5-5.7-1.6-8.6.1-.5-.7-.5-.7 0z"/>
    <path class="st13" d="M91.9 146.5c2.1-.4 4.3-.7 6.4-1.1.5-.1.3-.8-.2-.7-2.1.4-4.3.7-6.4 1.1-.5 0-.3.7.2.7zm11.7-13.9c.4 1 1 1.9 1.9 2.6.2.1.4.2.5 0 .1-.1.2-.4 0-.5-.2-.2-.4-.3-.5-.5l-.3-.3c-.1-.1-.1-.2-.2-.3-.1-.2-.3-.4-.4-.6-.1-.1-.1-.2-.2-.3-.1-.1-.1-.2-.1-.3-.1-.2-.2-.3-.5-.3-.1.1-.2.3-.2.5z"/>
    <path class="st13" d="m131.3 38.6 8.5-1-8.2 4.4z" style="opacity:.56"/>
    <path class="st13" d="M126 27.3c.5.8 1.5 1.2 2.4 1.1 1.1-.1 2-.7 2.9-1.4.2-.1.1-.4 0-.5-.2-.2-.4-.1-.5 0-.7.5-1.4 1.1-2.3 1.2-.7.1-1.4-.1-1.8-.7-.3-.5-.9-.1-.7.3z"/>
    <path class="st3" d="M130.6 15.5c-.4.5-.1 1.3.6 1.3l3.2.3c.4 0 .8.1 1-.3.2-.3.1-.7-.1-.9-.8-1-2-1.4-3.2-1.2l-1.2.7c-.1 0-.2 0-.3.1z"/>
    <path class="st3" d="M130.9 8c-1 .7-.8 2.5.1 3.3 1 .8 2.3 1 3.6 1.1 1.3.1 2.6.1 3.7.7 1.3.7 2.1 2.3 1.9 3.8-.2 1.8-1.7 3.8-.5 5.1.7.8 1.9.8 3 .9 1.1.1 2.4.6 2.4 1.7 0 .4-.1.9 0 1.3.3.8 1.4.6 2.3.4 1.4-.2 2.9.2 3.8 1.3.9 1.1 1 2.8.2 3.9 2-2.9 4.1-6.2 3.3-9.6-.4-1.8-1.6-3.4-1.8-5.3-.2-2.1 1.1-4.2.8-6.3-.4-3.1-4-4.9-7.1-4.9-1.4 0-2.7.2-4.1 0-1.3-.2-2.5-.7-3.7-1.1-2.3-.8-4.8-1.2-7.2-.6-2.4.6-4.5 2.3-5.1 4.7-.6 2.3.7 5.2 3 5.8.3-1 .8-2 1.6-2.8l-.2-3.4z"/>
    <path d="M159.6 9.6c2.8 1.4 5.5 3 7.5 5 .9 1 1.6 2 1.9 3.1.3 1.2.1 2.4-.1 3.6-.5 2.3-1.4 4.9 1.1 6.9 1.1.9 2.6 1.5 4 2.1 1.4.6 2.6 1.4 3.5 2.3 1.7 1.8 2.3 4.1 1.5 6.2-.1.3-.2.5-.4.8-.2.3.5.4.7.1 1.2-2.1.9-4.4-.5-6.4-.7-1-1.7-1.9-2.9-2.6-1.3-.8-2.9-1.3-4.3-2.1-.7-.4-1.3-.8-1.7-1.3-.5-.5-.8-1.1-.9-1.6-.3-1.2 0-2.5.3-3.6.3-1.2.6-2.5.4-3.8-.2-1.1-.7-2.2-1.5-3.2-1.7-2.1-4.4-3.8-7.2-5.3-.3-.2-.7-.4-1-.5-.2-.1-.4-.1-.5 0 0 0 0 .2.1.3zm-26-5.1c1.7.2 2.9-1 4.1-2 .7-.5 1.3-1 2.1-1.3.8-.3 1.7-.4 2.5-.4 1 0 1.9.3 2.8.8.4.2.8-.4.4-.6-1.6-.9-3.4-1.1-5.2-.7-.9.2-1.7.6-2.4 1.1-.7.5-1.3 1.1-2 1.6s-1.5 1-2.5.9c-.3-.2-.3.5.2.6z"/>
    <path class="st2" d="M131 47.1c1.7 1.5 3.4 3 5.6 3.7 2.3.8 4.7.4 6.9-.5 1.3-.5 2.6-1.2 3.8-1.8.4-.2 0-.9-.4-.6-2 1.1-4.2 2.2-6.5 2.5-1.1.2-2.2.1-3.3-.2-1-.3-2-.8-2.8-1.4-1-.7-1.9-1.5-2.8-2.3-.3-.2-.8.3-.5.6z"/>
    <path class="st2" d="M146.4 49.1c.4.6.7 1.3 1.1 1.9.1.2.3.2.5.1s.2-.3.1-.5c-.4-.6-.7-1.3-1.1-1.9-.1-.2-.3-.2-.5-.1-.1.1-.2.3-.1.5zm-1.3.6c.3.6.6 1.3.9 1.9.1.2.3.2.5.1s.2-.3.1-.5c-.3-.6-.6-1.3-.9-1.9-.1-.2-.3-.2-.5-.1-.1.1-.2.3-.1.5zm-1.9.8c.3.6.6 1.3.9 1.9.1.2.3.2.5.1s.2-.3.1-.5c-.3-.6-.6-1.3-.9-1.9-.1-.2-.3-.2-.5-.1-.1.1-.1.3-.1.5zm-1.7.4c.2.8.4 1.6.7 2.3.1.2.3.3.5.3.2-.1.3-.3.3-.5-.2-.8-.4-1.6-.7-2.3-.1-.2-.3-.3-.5-.3-.2.1-.3.3-.3.5zm-2 .2c-.1.7-.1 1.4.2 2.1.1.2.3.3.5.3.2-.1.3-.3.3-.5 0-.1-.1-.3-.1-.4v-.2c0-.1 0 .1 0 0v-1c0-.2-.1-.4-.3-.5-.3-.1-.6 0-.6.2zm-2.1-.4c-.2.9-.3 1.9-.2 2.9 0 .2.2.4.4.4s.4-.2.4-.4c-.1-.9-.1-1.8.2-2.7 0-.2-.1-.4-.3-.5-.2 0-.4.1-.5.3zm-2.1-.7c-.5.7-.9 1.4-1.2 2.2-.1.2.1.4.3.5.2 0 .4-.1.5-.3.1-.2.1-.3.2-.5s.2-.3.3-.5c.1-.2.2-.3.3-.5.1-.1.1-.2.2-.2 0 0 .1-.1 0-.1l.1-.1c.1-.1.2-.4 0-.5-.3-.1-.5-.1-.7 0zm-2.1-1.7c-.6.8-1.2 1.7-1.6 2.6-.1.2 0 .4.1.5.2.1.4 0 .5-.1.5-.9 1-1.7 1.6-2.6.1-.2 0-.4-.1-.5-.2-.2-.4-.1-.5.1zm-1.6-1.2c-.7.6-1.3 1.3-1.7 2-.1.2 0 .4.1.5.2.1.4 0 .5-.1.1-.2.2-.4.4-.5l.1-.1s0-.1.1-.1c.1-.1.1-.2.2-.2l.9-.9c.1-.1.1-.4 0-.5-.3-.3-.5-.3-.6-.1zm-20.3 16.7c.3-6 1.9-11.9 4.7-17.2.8-1.5 1.7-3 2.6-4.4.3-.4-.4-.8-.6-.4-3.4 5-5.8 10.8-6.8 16.8-.3 1.7-.5 3.4-.6 5.2 0 .4.7.4.7 0zm9-20.9c3.2.8 6.4 1.8 9.5 3.1.2.1.4.1.5-.1.1-.2.1-.4-.1-.5-3.1-1.3-6.3-2.4-9.6-3.1-.6-.2-.8.5-.3.6zm27.7 6.7c2.1 1 3.9 2.5 5.4 4.2.3.4.8-.2.5-.5-1.6-1.8-3.5-3.2-5.6-4.3-.3-.2-.7.4-.3.6z"/>
    <path class="st2" d="M155.7 52.9c-3.6 1.1-6.4 3.9-8.5 7-2.4 3.6-3.7 7.8-5.3 11.8-.8 2.1-1.8 4.2-3 6.2s-2.5 4-3.8 6c-2.7 4.1-5.3 8.2-8 12.3-2.7 4.1-5.4 8.2-8.1 12.4-.3.5-.7 1-1 1.5-.3.4.4.8.6.4 2.7-4.1 5.3-8.2 8-12.3 2.7-4.1 5.3-8.1 8-12.2 2.5-3.9 5.2-7.7 7.1-12 1.7-4 3-8.3 5.1-12.2 1.8-3.2 4.3-6.2 7.7-7.7.4-.2.9-.4 1.3-.5.5-.1.3-.8-.1-.7zm-17.8 61.9c2.3-3.7 4.9-7.2 7.6-10.7 2.6-3.5 5.3-7 7.6-10.8 1.3-2.1 2.5-4.2 3.5-6.5.2-.4-.4-.8-.6-.4-1.8 4-4.1 7.7-6.6 11.2-2.5 3.6-5.2 7.1-7.8 10.6-1.4 2-2.8 4-4.1 6.1-.5.5.1.9.4.5z"/>
    <path class="st2" d="M116.9 110.9c.1.5.4 1 .7 1.4.3.4.7.8 1 1.2.9 1 2 1.8 3.1 2.6 2.2 1.5 4.7 2.5 7.3 2.9 1.5.2 3 .3 4.5.1.5-.1.5-.8 0-.7-5.1.6-10.2-1.4-13.9-4.9-.4-.4-.9-.9-1.2-1.3-.3-.4-.7-.9-.8-1.5-.1-.5-.8-.3-.7.2z"/>
    <path class="st2" d="M133.5 118.8c.3-1 .8-2 1.4-2.9.3-.4-.4-.8-.6-.4-.6 1-1.1 2-1.5 3.1-.1.2.1.4.3.5.2 0 .4-.1.4-.3zm-2.6.2c.2-1.2.6-2.3 1.4-3.3.1-.2.2-.4 0-.5-.1-.1-.4-.2-.5 0-.8 1-1.4 2.3-1.6 3.6 0 .2 0 .4.3.5.1 0 .4-.1.4-.3zm-2.8-.5c.1-1 .6-2 1.3-2.7.3-.3-.2-.9-.5-.5-.8.9-1.3 2-1.5 3.2 0 .2.2.4.4.4.1 0 .3-.2.3-.4zm-3.1-1.4c.7-1.5 1.6-3 2.7-4.3.1-.2.2-.4 0-.5-.1-.1-.4-.2-.5 0-1.1 1.4-2.1 2.8-2.8 4.4-.2.5.4.9.6.4zm-2.7-1.2c.9-1.1 1.6-2.2 2.5-3.3.1-.2.2-.4 0-.5-.1-.1-.4-.2-.5 0-.9 1.1-1.6 2.2-2.5 3.3-.1.2-.2.4 0 .5.1.1.4.1.5 0zm-2.9-2.3c1.1-1.2 2-2.6 3.1-3.8.3-.3-.2-.9-.5-.5-1.1 1.2-2 2.6-3.1 3.8-.3.3.2.8.5.5zM75.8 28.3c.7 4.9.7 10-.1 14.9-.2 1.4-.5 2.8-.8 4.1-.1.5.6.7.7.2 1.1-4.9 1.6-10 1.3-15.1-.1-1.4-.2-2.9-.4-4.3-.1-.5-.8-.3-.7.2z"/>
    <path class="st2" d="M76.1 46.6c.8.4 1.7.7 2.5 1.1.2.1.4.1.5-.1.1-.2.1-.4-.1-.5-.8-.4-1.7-.7-2.5-1.1-.2-.1-.4-.1-.5.1-.2.2-.1.4.1.5zm.5-2.1c1 .2 2 .3 3.1.3.2 0 .4-.2.4-.4s-.2-.4-.4-.4c-1 0-1.9 0-2.9-.2-.2 0-.4.1-.5.3 0 .1.1.3.3.4zm.1-3.2c1 .1 2 .2 3 .4.2 0 .4-.2.4-.4s-.2-.3-.4-.4c-1-.1-2-.2-3-.4-.2 0-.4.2-.4.4s.2.4.4.4zm.2-3.2h3.2c.5 0 .5-.7 0-.7h-3.2c-.5 0-.5.7 0 .7zm.1-3.6c1-.2 2.1-.3 3.1-.2.5 0 .5-.7 0-.7-1.1 0-2.2.1-3.3.3-.2 0-.3.3-.3.5.1.1.3.2.5.1zm.2-3.6c.9-.2 1.9-.2 2.8 0 .2 0 .4-.1.5-.3 0-.2-.1-.4-.3-.5-1.1-.2-2.1-.2-3.2 0-.2 0-.3.3-.3.5.1.3.3.3.5.3zm16.4 23c.8.3 1.6.6 2.3.9.2.1.4-.1.5-.3 0-.2-.1-.4-.3-.5-.8-.3-1.6-.6-2.3-.9-.2-.1-.4.1-.5.3 0 .2.1.4.3.5zm1.5-2.5c.4.1.7.2 1.1.3.2.1.3.1.5.2s.3.2.5.3c.2.1.4 0 .5-.1.1-.2 0-.4-.1-.5-.7-.4-1.4-.7-2.2-.8-.2 0-.4.1-.5.3-.1 0 0 .2.2.3zm1.9-2.9c.9.4 1.7.9 2.6 1.3.2.1.4 0 .5-.1.1-.2 0-.4-.1-.5-.9-.4-1.7-.9-2.6-1.3-.2-.1-.4 0-.5.1-.2.2-.1.4.1.5zm4.2 5.6c.4.2.9.4 1.3.6.1 0 .2.1.3 0 .1 0 .2-.1.2-.2.1-.2.1-.4-.1-.5-.4-.2-.9-.4-1.3-.6-.1 0-.2-.1-.3 0-.1 0-.2.1-.2.2-.1.1-.1.4.1.5zm42.2 40.3c-.4.7-.8 1.5-1.2 2.2-.1.2 0 .4.1.5.2.1.4 0 .5-.1.4-.7.8-1.5 1.2-2.2.1-.2 0-.4-.1-.5-.1-.1-.4 0-.5.1zm.9 1.2c-.1.5-.2 1-.2 1.5v.3c0 .1.1.1.2.2.2 0 .4-.1.5-.3.1-.5.2-1 .2-1.5v-.3c0-.1-.1-.1-.2-.2-.3 0-.5.1-.5.3zm3.8-5.3c-.2.6-.4 1.3-.6 1.9-.1.2.1.4.3.5.2 0 .4-.1.5-.3.2-.6.4-1.3.6-1.9.1-.2-.1-.4-.3-.5-.3 0-.4.1-.5.3zm-3.4 9-1.2 2.4c-.1.2 0 .4.1.5.2.1.4 0 .5-.1l1.2-2.4c.1-.2 0-.4-.1-.5-.2-.1-.4 0-.5.1zm5.9-15.2c-.2.6-.5 1.1-.7 1.7-.1.2-.1.4.1.5.2.1.4.1.5-.1.2-.6.5-1.1.7-1.7.1-.2.1-.4-.1-.5-.2-.2-.4-.1-.5.1zM110 86.6c-.4.7-.6 1.5-.6 2.3 0 .2.2.4.4.4s.4-.2.4-.4v-.8c0-.1 0-.2.1-.3.1-.4.2-.6.4-.9.1-.2 0-.4-.1-.5-.3-.1-.5 0-.6.2zm1.5 2c-.1.4-.2.7-.2 1.1v.3c0 .1.1.1.2.2.2 0 .4-.1.5-.3.1-.4.2-.7.2-1.1v-.3c0-.1-.1-.1-.2-.2-.3 0-.5.1-.5.3zm4.2-7.8v1.7c0 .2.2.4.4.4s.4-.2.4-.4v-1.7c0-.2-.2-.4-.4-.4s-.4.2-.4.4zm-11.4 22.5c1.4 1.4 2.9 2.6 4.6 3.6 1.6 1 3.3 1.8 5.1 2.5 1 .5 2 .9 3.1 1.4.4.2.8-.4.4-.6-3.4-1.6-7-3-10-5.2-.9-.7-1.8-1.4-2.5-2.2-.5-.3-1.1.2-.7.5z"/>
    <path class="st2" d="M106.6 104.2c.1-1.3.5-2.6 1.1-3.8.2-.4-.4-.8-.6-.4-.7 1.3-1.1 2.7-1.2 4.2 0 .2.2.4.4.4s.3-.2.3-.4zm2 1.4c.4-1.2.8-2.4 1.2-3.7.1-.4-.6-.6-.7-.2-.4 1.2-.8 2.4-1.2 3.7-.1.5.6.7.7.2zm3.5 1.7c.2-1.2.5-2.4 1-3.6.1-.2-.1-.4-.3-.5-.2-.1-.4.1-.5.3-.4 1.2-.8 2.4-1 3.6 0 .2.1.4.3.5.2 0 .5-.1.5-.3zm2.7 1.5c.4-1.1.8-2.3 1.3-3.4.1-.2-.1-.4-.3-.5-.2-.1-.4.1-.5.3-.4 1.1-.8 2.3-1.3 3.4-.1.2.1.4.3.5.2 0 .4-.1.5-.3zm2.2 1.5c.4-.8.7-1.7 1.1-2.5.1-.2.1-.4-.1-.5-.2-.1-.4-.1-.5.1-.4.8-.7 1.7-1.1 2.5-.1.2-.1.4.1.5.1.2.4.1.5-.1zm21.8 3.3c3.6.6 7.1 1.7 10.7 2.4 1.7.4 3.5.7 5.2.9 1.6.2 3.2.3 4.8.1 1.8-.2 3.6-.7 5.2-1.5.4-.2 0-.9-.4-.6-1.4.7-3 1.2-4.6 1.4-1.6.2-3.1.1-4.7-.1-3.5-.4-6.8-1.2-10.2-2.1-2-.5-3.9-1-5.9-1.3-.4 0-.6.7-.1.8z"/>
    <path class="st2" d="M161.8 112.4c.4 1 .7 2 1.1 3 .1.2.2.3.5.3.2 0 .3-.3.3-.5-.4-1-.7-2-1.1-3-.1-.2-.2-.3-.5-.3-.3.1-.4.3-.3.5zm-3 1.4c.1.9.3 1.8.6 2.7.1.2.2.3.5.3.2 0 .3-.3.3-.5-.3-.8-.5-1.6-.6-2.5 0-.2-.2-.4-.4-.4-.3 0-.4.2-.4.4zm-2.6-.5c.2.9.4 1.8.6 2.8 0 .2.3.3.5.3.2-.1.3-.3.3-.5-.2-.9-.4-1.8-.6-2.8 0-.2-.3-.3-.5-.3-.3.1-.4.3-.3.5zm-3.2-.2c.2 1.1.4 2.2.9 3.2.1.2.2.3.5.3.2 0 .3-.3.3-.5-.4-1-.7-2.1-.9-3.2 0-.2-.3-.3-.5-.3-.2.1-.3.3-.3.5zm-2.6-.8v2.8c0 .5.7.5.7 0v-2.8c.1-.5-.7-.5-.7 0zm-2.6-.6c-.1 1-.3 2-.4 3 0 .2.2.4.4.4s.3-.2.4-.4c.1-1 .3-2 .4-3 0-.2-.2-.4-.4-.4-.3 0-.4.2-.4.4zm-3.3-.7c.1.9 0 1.8-.2 2.7 0 .2.1.4.3.5.2.1.4-.1.5-.3.2-.9.3-1.9.2-2.9 0-.2-.2-.4-.4-.4-.3.1-.4.2-.4.4zm-2.1-.6c-.4.6-.6 1.4-.5 2.2 0 .2.3.3.5.3.2-.1.3-.2.3-.5v-.9c0-.1 0-.2.1-.2v-.1c.1-.2.2-.3.3-.5.1-.2 0-.4-.1-.5-.3 0-.5.1-.6.2zm14.9-16.7c-2 .5-3.8 1.6-5.2 3.1-.3.3.2.9.5.5 1.3-1.4 3-2.4 4.9-2.9.4-.1.2-.8-.2-.7zm.8 1.2c-1.1 1.4-2.5 2.6-4.1 3.5-.4.2 0 .9.4.6 1.6-.9 3-2.1 4.2-3.6.1-.2.1-.4 0-.5-.1-.2-.4-.2-.5 0zm-29.6-23.8c-.4 1.1-.6 2.4-.4 3.6 0 .2.3.3.5.3.2-.1.3-.3.3-.5-.1-1.1 0-2.2.4-3.2.1-.2-.1-.4-.3-.5-.2 0-.4.1-.5.3zm3 2.2c-.1.9-.2 1.8-.3 2.8 0 .2.2.4.4.4s.3-.2.4-.4c.1-.9.2-1.8.3-2.8 0-.2-.2-.4-.4-.4-.3.1-.4.2-.4.4zm4-4.4v3c0 .5.7.5.7 0v-3c.1-.5-.7-.5-.7 0zm-19.1 5.8c4 1.7 7.9 3.8 11.4 6.4 1 .7 2 1.5 2.9 2.3.4.3.9-.2.5-.5-3.4-2.9-7.2-5.4-11.2-7.3-1.1-.6-2.3-1.1-3.4-1.6-.4-.2-.6.5-.2.7zm1.1 5.5c4.2 1.3 8.3 3.1 12.2 5.2.4.2.8-.4.4-.6-4-2.1-8.1-3.9-12.4-5.2-.5-.2-.7.5-.2.6z"/>
    <path class="st9" d="M6.1 28.2c1.6-1.7 3.9-2.4 6.2-3 3.6-1.1 7.3-2.2 10.9-3.2 4.4-1.3 9.2-2.9 11.6-6.8.6-.9 1-1.9 2-2.4.9-.5 2.4.2 2.2 1.2 0-.7.6-1.3 1.3-1.4.7-.1 1.4.4 1.5 1.1.8-.9 2.4-.9 3.2 0-.2-.7 1.1-.9 1.4-.2.3.6-.1 1.4-.5 1.9-.9 1.3-1.8 2.6-2.9 3.8-3.5 3.8-24.8 16.1-26.9 17-.8.3-1.6.7-2.5.6-.7 0-1.3-.3-1.9-.7-3.2-1.8-4.7-4.2-5.9-7.7l.3-.2z"/>
    <path class="st8" d="M49.5 140.5c-1.2 4-2.5 8.1-3.7 12.1-.4 1.1-.7 2.3-1.1 3.4-.1.5.6.6.7.2 1.2-4 2.5-8.1 3.7-12.1.4-1.1.7-2.3 1.1-3.4.1-.4-.6-.6-.7-.2z"/>
    <path class="st8" d="M46.1 139.5c-.4 1.7.5 3.6 2.1 4.4.4.2.8-.4.4-.6-1.3-.7-2-2.2-1.7-3.6 0-.5-.7-.7-.8-.2zm-3 12.3c.8-.7 2-.8 3-.5.5.1.6-.6.2-.7-1.3-.4-2.7-.1-3.7.7-.2.1-.1.4 0 .5.1.1.3.1.5 0zm-4.5-6.7c0-.6.8-1 1.3-.9.8.1 1.2.8 1.3 1.5 0 .4 0 .8-.1 1.2-.1.2-.4.8-.7.4-.2-.3.1-.7.4-.8.4-.2.8-.2 1.2-.1 1 .2 1.6 1.3 1.4 2.3-.1.5.6.7.7.2.3-1.3-.4-2.7-1.8-3.1-.6-.2-1.3-.2-1.9.1-.6.3-1 .9-.8 1.5.1.6.8 1 1.4.7.6-.3.8-.9.9-1.5.2-1.1-.3-2.5-1.4-2.9-1.1-.4-2.6.3-2.7 1.5.1.4.8.4.8-.1zm-14.2 35.1c5-.8 10.1-1.3 15.2-1.5.5 0 .5-.8 0-.7-4 .2-8 .6-12 1.1-1.1.1-2.3.3-3.4.5-.5 0-.3.7.2.6z"/>
    <path class="st8" d="M39.2 174.4c-1.4.8-2.4 2.3-2.3 4 0 .5.7.5.7 0 0-1.4.7-2.7 2-3.3.4-.3 0-.9-.4-.7zM26.7 177c.5.2 1 .5 1.4.9.4.4.7.9 1 1.4.1.2.3.2.5.1s.2-.3.1-.5c-.5-1.2-1.6-2.2-2.8-2.7-.2-.1-.4.1-.5.3 0 .3.2.4.3.5zm2.3-2.4c.6 1 2.1 1 2.9.2 1-1 .7-2.8 0-3.9-.3-.5-.9-.9-1.5-.8-.6.1-1.1.7-.9 1.3.2.6.9.9 1.5.9s1.3-.3 1.7-.7c1.1-1.1.8-3-.6-3.7-.4-.2-.8.4-.4.6.7.4 1.1 1.3.7 2.1-.3.7-1.3 1.2-2.1.8-.3-.2-.4-.6 0-.7.4-.1.7.2.9.6.4.8.6 1.9.1 2.7-.4.6-1.5.9-1.9.1 0-.2-.6.1-.4.5z"/>
    <path class="st5" d="M45.4 17.1c-2.3 1.6-7.9 5-10.2 6.6-.4.3-.8.6-.8 1.1.1.5.8.7 1.3.7 2.5.1 5-.6 7.2-1.8.4-.2.7-.5.9-.8.1-.3.2-.6.2-.9.1-1.1-.2-2.3-.7-3.3l2.1-1.6z"/>
    <path class="st13" d="M78.9 84.5c.7 2 1.2 4 1.3 6.1 0 .5.8.5.7 0-.2-2.1-.7-4.3-1.4-6.3-.1-.5-.8-.3-.6.2zm1.8-.2c.5 2.1.7 4.3.8 6.5 0 .5.7.5.7 0 0-2.2-.3-4.5-.8-6.7-.1-.5-.8-.3-.7.2zm1.5-.3c.2 1.8.4 3.5.6 5.3 0 .2.2.4.4.4s.4-.2.4-.4c-.2-1.8-.4-3.5-.6-5.3 0-.2-.2-.4-.4-.4s-.4.2-.4.4z"/>
    <path class="st13" d="M78.9 84.7c1.2-.5 2.6-.7 3.9-.5.2 0 .4-.2.4-.4s-.2-.3-.4-.4c-1.4-.2-2.9.1-4.2.6-.2.1-.2.3-.1.5s.3.2.4.2zm-6-7.7s0-.1 0 0c0-.1.1-.1.1-.2s.1-.2.1-.2l.1-.1.2-.2.1-.1c.1-.1.2-.1.3-.2.1 0 .1-.1.2-.1s.2-.1.2-.1c.2-.1.3-.3.3-.5-.1-.2-.3-.3-.5-.3-.8.3-1.5.9-1.8 1.7-.1.2.1.4.3.5.2.1.3 0 .4-.2zM47.2 13.4c-.2-.5-.6-.9-1.2-.9-.3 0-.6.1-.9.3-.3.2-.6.2-.9.1-.6-.1-1.1-.4-1.7-.3-.5 0-1 .3-1.2.7.2 0 .4.1.7.1-.4-1.3-2.4-1.6-3.1-.4.2 0 .4 0 .6-.1-.8-1-2.6-.7-3.2.4-.2.4.4.8.6.4.4-.7 1.5-.9 2-.3.2.2.5.1.6-.1.4-.6 1.6-.5 1.8.2.1.3.5.4.7.1.4-.8 1.6-.2 2.2 0 .5.1.9 0 1.4-.2.2-.1.3-.2.5-.2s.4.2.4.3c.2.5.9.3.7-.1zM39 15c2 .2 4 .2 6 .1.5 0 .5-.8 0-.7-2 .1-4 .1-6-.1-.5-.1-.5.6 0 .7zm-7.1 7.1c.7.8 1.5 1.5 2.4 2 .2.1.4 0 .5-.1.1-.2 0-.4-.1-.5-.9-.5-1.6-1.1-2.3-1.9-.1-.1-.4-.1-.5 0-.1.1-.1.3 0 .5zM6.7 130.2c-.1.9.3 1.7 1 2.2.2.1.4 0 .5-.1.1-.2 0-.4-.1-.5l-.1-.1-.2-.2c-.1-.1-.1-.1-.1-.2s-.1-.2-.1-.2c0-.1-.1-.1-.1-.2s0-.2-.1-.2v-.5c0-.2-.2-.4-.4-.4-.2.1-.3.2-.3.4zm8.7 1c1.5-.4 3.1-.5 4.6-.3.2 0 .4-.2.4-.4s-.2-.3-.4-.4c-1.6-.2-3.2 0-4.8.4-.4.1-.2.8.2.7z"/>
    <path class="st15" d="M53 71.1c2.1-2.8 4.3-5.6 6.4-8.4.3-.4-.4-.7-.6-.4-2.1 2.8-4.3 5.6-6.4 8.4-.3.4.4.7.6.4zm-1.2-1.4c2.1-3 4.3-6 6.4-8.9.3-.4-.4-.8-.6-.4-2.1 3-4.3 6-6.4 8.9-.3.4.4.7.6.4zm-33.9 2.7c2.3 1.7 5.4 2.3 8.2 2.8 3.1.5 6.3.8 9.5.7 1.5 0 3.1-.1 4.5-1 .4-.2 0-.9-.4-.6-1.2.7-2.5.8-3.9.9-1.5 0-3 0-4.5-.1-3-.2-6-.6-8.9-1.4-1.5-.4-2.9-1-4.2-1.9-.3-.3-.7.4-.3.6z"/>
    <path class="st15" d="M35 73.6c.1.6.3 1.1.4 1.7 0 .2.3.3.5.3.2-.1.3-.3.3-.5-.1-.6-.3-1.1-.4-1.7 0-.2-.3-.3-.5-.3-.2.2-.3.3-.3.5zm1.7.4v.9c0 .1 0 .2.1.3.1.1.2.1.3.1.2 0 .4-.2.4-.4V74c0-.1 0-.2-.1-.3-.1-.1-.2-.1-.3-.1-.2 0-.4.2-.4.4zm-9.4 1.6c-.2.6-.4 1.1-.6 1.7-.1.2.1.4.3.5.2 0 .4-.1.5-.3.2-.6.4-1.1.6-1.7.1-.2-.1-.4-.3-.5-.2 0-.4.1-.5.3zm1.6-.1c-.4.5-.6 1.2-.5 1.9 0 .2.2.4.4.4s.4-.2.4-.4v-.5c0-.1 0-.2.1-.2 0-.1 0-.1.1-.2.1-.3.2-.4.3-.5.1-.2 0-.4-.1-.5-.4-.2-.6-.2-.7 0zm-14-26.9c2.1.2 3.8-1.8 5-3.3 1.4-1.7 2.5-3.5 3.3-5.5.2-.4-.5-.6-.7-.2-.8 1.8-1.8 3.6-3 5.1-.6.7-1.3 1.5-2 2.1-.7.6-1.6 1.1-2.6 1-.5 0-.5.7 0 .8zm20.5 32.3c2.2 4.3 3.5 9 4.3 13.7.8 4.8 1 9.7 1 14.6 0 2.8-.1 5.5-.2 8.3 0 .5.7.5.7 0 .2-5 .3-9.9 0-14.9-.3-4.9-.9-9.8-2.3-14.4-.8-2.6-1.8-5.2-3-7.6-.1-.5-.7-.1-.5.3zm-2 .2c2.2 6.9 2.9 14.3 2 21.5-.2 2-.6 4-1.1 6-.1.5.6.7.7.2 1.8-7.1 2-14.7.6-21.9-.4-2-.9-4-1.5-6-.1-.5-.8-.3-.7.2zm-5.1-2.2c-.2 6.7-.8 13.3-1.8 19.9-.3 1.9-.6 3.7-.9 5.6-.1.5.6.7.7.2 1.2-6.6 2-13.3 2.5-20 .1-1.9.2-3.8.3-5.6-.1-.6-.8-.6-.8-.1zm1.8.5c.7 5 .8 10.2.3 15.2 0 .5.7.5.7 0 .4-4 .4-8 0-12.1-.1-1.1-.2-2.3-.4-3.4.1-.4-.6-.2-.6.3zm-12.4 3.2c-1.1 5-2.1 10-3 15-.9 5-1.7 10.1-2.4 15.1-.4 2.8-.8 5.7-1.1 8.6-.1.5.7.5.7 0 .6-5.1 1.3-10.1 2.1-15.1s1.7-10 2.7-14.9l1.8-8.4c0-.6-.7-.8-.8-.3zm2.2 11.8c-.7 1.2-1 2.5-1.2 3.8-.2 1.5-.5 3-.7 4.5-.4 3-.7 6.1-1 9.1-.1 1.7-.3 3.4-.3 5.2 0 .5.7.5.7 0 .3-6 .9-11.9 1.9-17.8.2-1.5.4-3.1 1.2-4.4.3-.4-.4-.8-.6-.4zm15.5 21.8c.1 1.3.3 2.7.4 4 0 .2.2.4.4.4s.4-.2.4-.4c-.1-1.3-.3-2.7-.4-4 0-.2-.2-.4-.4-.4s-.4.2-.4.4zm3 2.3c-.1.8 0 1.7.2 2.4.1.2.3.3.5.3.2-.1.3-.3.3-.5-.2-.7-.3-1.5-.2-2.2 0-.2-.2-.4-.4-.4s-.4.2-.4.4zm6.9-22.1c1.3 4.5 2.1 9.2 2.1 14 0 1.4 0 2.7-.1 4.1 0 .5.7.5.7 0 .3-4.8-.1-9.6-1.1-14.3-.3-1.3-.6-2.6-1-3.9-.1-.5-.8-.3-.6.1zm.1 10c.1 2.1.2 4.3.3 6.4 0 .5.8.5.7 0-.1-2.1-.2-4.3-.3-6.4 0-.5-.7-.5-.7 0zm-19.6 6.3c.2 1.9.2 3.8-.2 5.6-.1.5.6.7.7.2.4-1.9.5-3.9.2-5.8 0-.2-.1-.4-.4-.4-.1.1-.3.2-.3.4zm3.1 2.8c-.1 1.3-.3 2.6-.4 3.8 0 .2.2.4.4.4s.3-.2.4-.4c.1-1.3.3-2.6.4-3.8 0-.2-.2-.4-.4-.4-.3 0-.4.2-.4.4zm11.2-68.9c1.7 4.4 2.8 9.2 3 13.9.1 1.4 0 2.7 0 4.1 0 .5.7.5.7 0 .2-4.8-.3-9.7-1.7-14.3-.4-1.3-.8-2.6-1.3-3.9-.1-.4-.8-.2-.7.2z"/>
    <path d="M41.5 24.9c-.8.8-1 2-.7 3 .3 1.2 1.2 2.1 2.2 2.7 1.1.7 2.3 1.1 3.5 1.6 1.2.6 2.3 1.3 2.9 2.6.7 1.5.9 3.2.7 4.8 0 .2.2.4.4.4s.3-.2.4-.4c.3-2.6-.4-5.7-2.7-7.3-1-.7-2.2-1.1-3.4-1.6-1.1-.5-2.3-1.1-2.9-2.1-.6-1-.8-2.3.1-3.2.3-.3-.2-.8-.5-.5zm-20 9.3c.6 1.4.8 3 .7 4.5-.1.8-.3 1.6-.3 2.4 0 .8.3 1.7.9 2.2.7.5 1.6.5 2.5.5h3c.4-.4.9-.7 1.3-1.1.1 1 1.3 1.6 2.3 1.4 1-.3 1.7-1.1 2.1-2.1.5.6.9 1.3 1.1 2.1 1.6.1 3.2 0 4.8-.3.3-.1.6-.1.8-.4.2-.2.2-.5.2-.8.1-2.1-.2-4.3-1.2-6.2-1-1.9-2.8-3.4-4.9-3.7l-13.3 1.5zm108.3-12.5c.2-.8 1.2-1.4 2-1.1.8.3 1.2 1.3.9 2.1-.1.2.1.4.3.5.2.1.4-.1.5-.3.4-.9.1-2-.6-2.6-.8-.7-1.9-.7-2.7-.1-.5.3-.8.8-.9 1.3-.3.5.4.7.5.2z"/>
</svg>
