<svg xmlns="http://www.w3.org/2000/svg" width="114.1" height="206.3" style="overflow:visible;enable-background:new 0 0 114.1 206.3" xml:space="preserve">
    <style>
        .st0{fill:#f6a472}.st1{fill:#a34545}.st2{fill:#fff}.st4{fill:#79451f}.st5{fill:#541a1a}
    </style>
    <path class="st0" d="M57.4 173.1c.8 4.5 1.8 8.9 3.2 13.2.1.2.2.5.3.6.2.1.4.2.7.2 1.8.1 3.6-.1 5.3-.6.9-5.3 1.4-10.7 1.5-16.1-2.3.4-4.7.6-7.1.6-.9 0-2.2-.2-2.3-1.1l-1.6 3.2zm-19.7-51.9c3 1.9 5.9 3.8 8.9 5.7 1.7-2.9 3.4-5.7 5-8.6.1-.1.1-.3.1-.4 0-.2-.2-.3-.4-.4-3.4-1.8-7-3.3-10.6-4.4-.3-.1-.5-.2-.8 0-.2.1-.3.3-.4.5-.9 1.6-1.8 3.2-2.7 4.7l.9 2.9zm1.1-61.9-3 14.1c-.1.6-.3 1.3-.7 1.8-.4.4-.9.7-1.5.9-5 2-10 4-14.9 6.1-.5.2-1.1.4-1.6.4-1 0-1.9-.6-2.8-1-2.7-1.4-5.9-1.5-8.7-.5-.2.1-.2.3-.1.5.8.9 4.8 1.8 4.8 1.9L2 85c-.8.2-.9 1.3-.1 1.6 1.8.7 3.9.8 5.7.1l-7 1.5c-.8.2-.8 1.4 0 1.6 1.5.4 4.9.2 6.4-.3l-5.9.5c-1 .2-.9 1.6.1 1.6.7 0 5.7-.4 6.3-.5l-4.4 2.4c-.6.6-.1 1.7.7 1.5 2.5-.6 7.5-2.1 9.9-3 1.5-.5 3.1-1.2 4-2.5.3-.4 13.6-2.2 19.1-3.2 1.9-.3 3.9-.8 5.4-2.1 1.7-1.5 2.5-3.8 3.1-6 1.4-4.8 2.7-9.6 4.1-14.4l-10.6-4.5zM85 64.9c6 5.2 5.2 11.8 8.9 18.7 1.4 2.6 3 7.9 4.7 10.3 1.7 2.4 3 5.3 2.7 8.3-.2 1.5-.1 3-.2 4.6-.1 2-1.2 6.7 1 7.6 1 .4 2-4.8 2.2-6 .4 2.6 1.9 6.7 3.6 9.6.4.6 1.3.3 1.2-.4-.2-2.4-1-5.4-1.6-7 .2 1.6 1.1 4.5 2.1 6.6.3.6 1.2.4 1.2-.3.1-2.3-.5-5.4-.9-7.1 0 1.1.6 3.4 1.2 5.1.2.7 1.3.5 1.3-.2 0-1.8-.4-4.1-.8-5.2.2.6.7 2.1 1.1 3.4.2.7 1.3.6 1.3-.2.1-2-.5-4.5-.9-5.7-.7-1.9-1.8-3.5-2.8-5.3-5.2-9.3-4.3-21.1-9.4-30.5-3-5.6-6.2-11.7-8.3-17.7L85 64.9z"/>
    <path class="st1" d="M48.4 91.3c-1.7 6.6-1.8 13.6-.1 20.3 1.6 6.5 4.7 12.7 5 19.4.1 2.9-.3 5.9-.5 8.8-1.1 12.1.2 24.3 3.9 35.9 3.2 1.9 7.4 1.9 10.7.1.7-.4 1.4-.9 1.8-1.6.5-.7.6-1.6.8-2.5 1.5-9.8 1.7-19.8.6-29.6 2.9 4.1 9.2 5.4 13.5 2.7 3.2-2 5-5.7 5.7-9.5.7-3.7.5-7.5.6-11.3.2-5.3.9-10.5.4-15.8-.9-8.5-5.2-16.3-5.9-24.8-6.4 1.6-13 3.2-19.6 2.3-2.3-.3-4.6-.9-6.9-1-1.9-.1-3.9.1-5.7.6l-4.3 6z"/>
    <path d="m42.8 115.9.6-2c-1.9-1.4-6.1-3.6-8-5-1.2-.8-2.6-1.7-3.9-1.1-.7.3-1.1.9-1.6 1.5-1.9 2.3-4.7 3.6-7.2 5.1s-5 3.7-5.6 6.6c-.2 1-.2 2.2.5 3 .7.8 1.8 1 2.9.9 1-.2 2-.7 2.9-1.1l4.5-2.4c1.3-.7 2.7-1.4 4.1-1.3.9.1 1.7.5 2.5.9 2 1 1.7.9 3.6 2.1 1.5-2.2 3-4.3 4.5-6.5.2-.2.3-.5.2-.7-.1-.2-.4.2-.2.2l.2-.2zm16 69.1c1.2 2.7-.1 5.7-1.3 8.4s-2.1 5.9-.5 8.3c.8 1.1 2 1.8 3.1 2.7.8.6 1.5 1.3 2.4 1.7 1.3.5 2.8.2 3.9-.6s1.9-2 2.5-3.2c1-2.3 1.2-5 .5-7.5-.4-1.4-1.1-2.8-1.3-4.2-.4-2.5.5-5.1.2-7.6-3.2-.6-6.5-.2-9.4 1.2l-.1.8z"/>
    <path class="st2" d="M33.1 108.7c-1.4 2.5-3.9 4.1-6.3 5.6-2.5 1.5-5.1 3.1-6.8 5.6-.9 1.3-1.4 2.8-1.4 4.3 0 .5.7.5.7 0 0-2.8 1.9-5.2 4.1-6.9 2.3-1.8 5-3 7.3-4.8 1.2-1 2.2-2.1 3-3.4.3-.4-.4-.8-.6-.4zm4 1.4c-1.3 1.3-3.2 1.9-5 1.6-.5-.1-.7.6-.2.7 2.1.4 4.2-.3 5.7-1.8.3-.4-.2-.9-.5-.5zm-1.3 8.3c-.5-1.3-1.4-2.7-2.9-2.9-.6-.1-1.3.2-1.8.7-.5.6-.6 1.3-.6 2s.2 1.5.9 1.8c.7.2 1.3-.1 1.4-.8.2-1.4-1.1-2.5-2.3-2.7-1.4-.2-3 .7-3.4 2.2-.1.5.6.6.7.2.4-1.9 3.4-2.3 4.2-.5.1.3.3 1.1-.3 1-.5-.1-.6-.7-.6-1.2s.1-1.1.4-1.5c.3-.4.7-.5 1.2-.5 1.2.1 1.9 1.3 2.3 2.3.3.6 1 .4.8-.1zm20.9 80.8c.8.9 1.6 1.7 2.6 2.4.9.7 1.8 1.4 2.8 1.8 1 .4 2 .6 3.1.3 1-.3 1.9-.9 2.6-1.7.9-.9 1.4-2.1 2-3.2.2-.4-.4-.8-.6-.4-.8 1.7-1.8 3.7-3.7 4.4-2 .8-3.9-.5-5.4-1.7-.9-.7-1.8-1.6-2.6-2.5-.6-.2-1.1.3-.8.6z"/>
    <path class="st2" d="M59.8 200.8c2.1-2.3 5.7-2.8 8.3-1.3.4.2.8-.4.4-.6-2.9-1.7-6.9-1.1-9.2 1.4-.3.3.2.8.5.5zm2.7-5.2c1.3.7 3.4.4 3.7-1.3.3-2-1.6-3.1-3.2-3.7-.4-.1-.9-.2-1.2 0-.3.2-.5.6-.4 1 .1.8.9 1.3 1.6 1.4 1.4.2 3-.6 3.4-2.1.5-1.8-1.1-3.6-2.8-3.6-.5 0-.5.7 0 .7 1.1 0 2.1 1 2.2 2.1.1 1.1-.8 1.9-1.8 2.2-.5.1-1 .1-1.4-.2-.2-.1-.4-.4-.4-.6 0-.3.4-.2.6-.2 1.2.3 2.7 1.1 2.9 2.5.2 1.5-1.6 1.8-2.6 1.2-.7-.2-1 .4-.6.6z"/>
    <path class="st1" d="M55.3 136.8c-4.4-2.5-8.3-6-11.3-10.1-.3-.3-.5-.7-.5-1.1 0-.4.2-.8.4-1.2 1.3-2.5 2.5-5.1 3.8-7.6.2-.4.4-.9.9-1.1.5-.3 1-.2 1.5-.1 8.5 1.5 16.8 3.8 24.8 6.8-2.6 6.3-5.9 12.3-9.6 18l-10-3.6z"/>
    <path d="M58.8 37.8c-6.3.6-12.3 3.6-16.6 8.3s-6.8 10.9-7 17.2c0 .4 8.9 5.5 12.6 7.2.1 7.2.3 14.3.4 21.5 3.6-.1 6.8 1.8 10 3.3 3.2 1.6 7 2.8 10.3 1.5 1.5-.6 2.7-1.7 4.2-2.3 2.7-1.3 5.8-1.1 8.7-1.4 2.9-.3 6.2-1.3 7.6-3.9-.8-7.1-1.5-14.2-2.3-21.3 3.6-3.2 11.7-11.7 11.7-12.2-.7-4.1-3.6-7.4-6.4-10.4-2.3-2.5-5.2-4.2-8-6.1-4.2-2.9-14.5-2.8-15.8-2.3-2.4 1-5 1.4-7.6 1.1l-1.8-.2z"/>
    <path class="st0" d="M53.7 33.5c.6 3.6 1.4 7.3 2.2 10.9 3.2.7 6.6 1.3 9.7 0 1.8-.7 3.2-2.1 4.6-3.4.1-.1.3-.2.3-.4.1-.2.1-.5 0-.8l-2.1-10.5c-.1-.3-.1-.6-.4-.7-.2-.1-.5-.1-.7-.1-4 .6-7.9 1.2-11.9 1.9l-1.7 3.1z"/>
    <path class="st4" d="M54.6 36.5c1.7.8 3.4 1.5 5.3 1.7 1.9.2 3.8-.2 5.3-1.4 1.3-1.1 2.1-2.8 3.6-3.7-.7 1.6-1.5 3.1-2.5 4.4-.6.8-1.2 1.6-2 2.2-1.5 1.1-3.5 1.5-5.3 1-1.8-.5-3.3-1.9-4-3.6l-.4-.6z" style="opacity:.62"/>
    <path class="st0" d="M46.1 15.5c.4 2.8 1.1 5.6 2 8.3-.8-.8-2.4-.7-3.3.1-.9.8-1.2 2-1 3 .2 1.3.9 2.5 2.1 3.2 1.2.6 3 .5 3.9-.5 1.1 2.4 2.5 4.8 4.7 6.5 2.2 1.7 5.4 2.6 8.2 1.8 2.2-.7 5-2.7 5.9-4.6 1-1.9 1.4-4 1.7-6.1 2.4.6 4.3-.8 4.5-3 .3-2.2-2.1-4.5-4.6-4.3 0-2.8-.3-5.6-.8-8.4-.2-.9-.4-1.7-1-2.4s-1.6-1.2-2.6-1.5c-6.7-2.3-14.9-.8-20.1 3.7l.4 4.2z"/>
    <path class="st4" d="M71 24.4c.6-.7 1.2-1.3 1.8-1.9.1-.1.1-.4 0-.5-.2-.1-.4-.1-.5 0-.6.6-1.3 1.2-1.8 1.9-.1.1-.2.4 0 .5.1.1.4.1.5 0z"/>
    <path class="st4" d="M71.8 23.7c.1 0 .2.1.2.1l.2.2c.1.1.1.1.1.2s0 .2.1.2v.2c-.1.2.1.4.2.5.2 0 .4-.1.4-.3.2-.7-.3-1.5-1-1.7-.2-.1-.4.1-.4.3-.1.1 0 .3.2.3zm-26 2.3c.5.2 1 .5 1.4.8.4.4.7.8 1 1.3.1.2.3.2.5.1s.2-.3.1-.5c-.5-1.2-1.5-2.1-2.7-2.5-.2-.1-.4.1-.4.3-.3.3-.1.4.1.5z"/>
    <path class="st4" d="M46.7 26.7c-.7.7-.5 2.1.4 2.6.2.1.4 0 .5-.1.1-.2 0-.4-.1-.5l-.1-.1-.1-.1c-.1-.1-.1-.1-.1-.2s-.1-.3-.1-.3v-.5c0-.1.1-.2.1-.2.2-.2.2-.4.1-.6-.2-.2-.5-.2-.6 0zm-41.2 55c.8.7 1.8 1.2 2.8 1.5.5.2 1.1.3 1.6.4.3 0 .3.1.4.4l.3.6c1.3 1.8 3.7 1.7 5.7 1.5.5 0 .5-.8 0-.7-1.7.2-4.3.4-5.3-1.6-.2-.4-.3-.8-.8-.9-.5-.1-.9-.2-1.4-.3-1-.3-1.9-.8-2.7-1.4-.4-.3-1 .2-.6.5zM.7 90.6c2.2-.6 4.4-1.2 6.6-1.6.5-.1.3-.8-.2-.7-2.2.5-4.4 1-6.6 1.6-.5.1-.3.8.2.7z"/>
    <path class="st4" d="M6.4 86.1c.2 1.8.6 3.6 1.1 5.3.1.4.8.3.7-.2-.5-1.7-.9-3.4-1.1-5.1 0-.2-.1-.4-.4-.4-.1 0-.3.2-.3.4zm3.1 4.1c1.1.4 2-.6 2.7-1.3.4-.4.7-.7 1.2-.9.5-.2 1.1-.3 1.6-.3.2 0 .3-.3.3-.4-.1-.3-.3-.3-.5-.3-1 .1-2 .3-2.8 1-.6.5-1.3 1.8-2.3 1.5-.4-.1-.6.6-.2.7zm26.9-13.9c.9.6 1.7 1.3 2.4 2 .1.1.4.1.5 0 .1-.1.1-.4 0-.5-.8-.8-1.6-1.5-2.5-2.1-.2-.1-.4 0-.5.1-.2.2-.1.4.1.5zm-18.3 9.2c.1.3.3.5.4.8 0 .1.1.1.2.2h.3c.1 0 .1-.1.2-.2V86c-.1-.3-.3-.5-.4-.8 0-.1-.1-.1-.2-.2h-.3c-.1 0-.1.1-.2.2-.1.2-.1.3 0 .3zm89 24.4c.5 2.5 1.2 4.9 2.1 7.2.2.4.9.2.7-.2-.9-2.4-1.6-4.8-2.1-7.2-.1-.5-.8-.3-.7.2zm2.4-.5c.5 1.9 1 3.8 1.6 5.7.1.4.8.3.7-.2-.5-1.9-1-3.8-1.6-5.7-.1-.5-.8-.3-.7.2zm1.5-.9c.5 1.4 1 2.9 1.4 4.4.1.5.8.3.7-.2-.4-1.5-.8-3-1.4-4.4-.1-.2-.2-.3-.4-.3-.3.1-.4.3-.3.5z"/>
    <path class="st4" d="M106.8 110.1c1.8-.9 3.6-1.6 5.5-2.1.5-.1.3-.8-.2-.7-2 .5-3.9 1.3-5.7 2.2-.3.2 0 .8.4.6zm-.9-9.9 1.5-.6c.1 0 .2-.1.2-.2s.1-.2 0-.3c-.1-.2-.3-.3-.4-.3l-1.5.6c-.1 0-.2.1-.2.2s-.1.2 0 .3c0 .2.2.4.4.3zm-7.1-28.3h.2c.2 0 .3.1.3.1.1 0 .1.1.1.1.1 0 .1.1.2.1l.1.1s.1 0 .1.1c.1 0 .1.1.1.1.1.1.1.2.1.1.1.1.1.1.1.2s.1.1.1.2c.1.2.1.3.1.3v.8c-.1.5.6.6.7.2.4-1.4-.8-3-2.3-3-.2 0-.4.2-.4.4.2 0 .3.2.5.2z"/>
    <path class="st5" d="M68.4 100.2c.4 2.5.8 5.1 1.1 7.6.2 1.2.5 2.4.3 3.6-.1.9-.6 1.8-1.6 2.1.1.1.3.2.4.3-1.2-4.1-2.1-8.3-2.8-12.5-.1-.5-.8-.3-.7.2.7 4.2 1.7 8.4 2.8 12.5.1.2.3.3.4.3 1.8-.5 2.2-2.5 2.1-4.2-.1-1-.3-2.1-.4-3.1-.2-1.1-.3-2.1-.5-3.2-.2-1.2-.4-2.5-.6-3.7.1-.5-.6-.3-.5.1zm-.6 14.7c.7 4.1 1.2 8.2 1.6 12.3.4 4.1.6 8.2.7 12.4v7c0 .5.7.5.7 0 .1-4.2.1-8.3-.2-12.5-.2-4.2-.6-8.3-1.1-12.4-.3-2.3-.6-4.6-1-7-.1-.4-.7-.2-.7.2z"/>
    <path class="st5" d="M65.1 115.4c2.5-1.2 5.2-1.9 7.9-2.2.5 0 .5-.8 0-.7-2.9.3-5.7 1-8.3 2.3-.4.2 0 .8.4.6zm-9.6-20.5c-1.2 2.6-3.3 4.6-5.9 5.7-.4.2-.1.8.4.6 2.7-1.2 4.9-3.3 6.1-6 .2-.4-.4-.8-.6-.3zm-6.6 20.6c1 3 2 6.1 3 9.1.5 1.5.8 3 1 4.5.2 1.6.1 3.1 0 4.7-.1 1.8-.4 3.6-.6 5.4 0 .2.2.4.4.4s.3-.2.4-.4c.4-3.2.9-6.4.6-9.6-.3-3.2-1.3-6.1-2.3-9.1-.6-1.7-1.1-3.5-1.7-5.2-.3-.4-1-.2-.8.2zm6.3 54c3.6 1.3 7.7 1.2 11.2-.3 1-.4 1.9-1 2.8-1.6.4-.3 0-.9-.4-.6-3 2.2-6.8 3.1-10.4 2.6-1-.1-2.1-.4-3.1-.8-.4-.1-.6.6-.1.7z"/>
    <path class="st5" d="M48.4 130.9c.4-1 .8-1.9 1.5-2.8.6-.9 1.4-1.6 2.2-2.3.3-.3-.2-.8-.5-.5-.8.8-1.6 1.6-2.3 2.5-.7.9-1.1 1.9-1.5 3-.1.2.1.4.3.4.1 0 .2-.1.3-.3zm31.8-35.7c2.3 1.8 5 3 7.9 3.4.5.1.5-.7 0-.7-2.7-.3-5.3-1.5-7.3-3.2-.5-.3-1 .2-.6.5zm4.2 36.6c-.3.7-.4 1.5-.2 2.2 0 .2.3.3.4.3.2-.1.3-.2.3-.4v-1.2c0-.1 0-.2.1-.2 0-.2.1-.3.2-.5s-.1-.4-.3-.4c-.3-.1-.5 0-.5.2zm2-4.1s0 .1.1.1c.1.1.1.2.1.3 0 .1 0 .2.1.3v.6c0 .1 0 .2-.1.2 0 .1-.1.1-.1.2-.1.2 0 .4.1.5.2.1.4.1.5-.1.4-.8.4-1.7-.1-2.4-.1-.2-.3-.2-.5-.1-.1.1-.2.3-.1.4zm.2-5v1.8c0 .2.2.4.4.4s.4-.2.4-.4v-1.8c0-.2-.2-.4-.4-.4-.2.1-.4.2-.4.4zm-20.5 34c-.1.8-.1 1.7.2 2.5.1.2.2.3.4.3.2-.1.3-.3.3-.4-.1-.2-.1-.4-.2-.6 0-.1 0-.2-.1-.2v-1.1c0-.3 0-.5-.2-.6-.1-.2-.4-.1-.4.1zm2.5 1c.1.2.1.2.1.3 0 .1.1.2.1.4v.7c0 .1 0 .2.1.3.1.1.2.1.3.1.1 0 .2 0 .3-.1.1-.1.1-.2.1-.3.1-.6 0-1.2-.3-1.7-.1-.2-.3-.2-.5-.1-.2 0-.2.2-.2.4z"/>
    <path class="st2" d="M45.3 52.8c.1 2.4.3 4.9.6 7.3.3 2.4.9 4.8 1.4 7.2.3 1.3.5 2.7.4 4.1 0 .5.7.5.7 0 .2-2.4-.6-4.8-1.1-7.2-.5-2.4-.9-4.8-1.1-7.2-.1-1.4-.2-2.8-.3-4.1.1-.5-.6-.5-.6-.1zm37.4-4.7c1.9 4.8 3 9.8 3.5 14.9.1 1.4.2 2.9.2 4.3 0 .5.7.5.7 0 0-5.2-.8-10.3-2.3-15.3-.4-1.4-.9-2.8-1.4-4.2-.2-.3-.9-.2-.7.3z"/>
    <path class="st2" d="M87.4 61.9c2.3-3.2 4.7-6.2 7.2-9.2.3-.4-.2-.9-.5-.5-2.5 3-5 6.1-7.3 9.3-.3.5.3.8.6.4zm-49.6-1.2c3 1.3 6.1 2.6 9.1 4 .4.2.8-.4.4-.6-3-1.3-6.1-2.6-9.1-4-.4-.2-.8.4-.4.6zm22 17.5c4-4.5 8.6-8.5 13.6-11.9 1.4-1 2.9-1.9 4.4-2.7.4-.2 0-.9-.4-.6a78.7 78.7 0 0 0-14.6 11c-1.2 1.2-2.4 2.4-3.6 3.7-.2.3.3.9.6.5zm4.8-.7c2.7-2.5 5.7-4.6 8.9-6.5.4-.2 0-.9-.4-.6-3.2 1.9-6.2 4.1-9 6.6-.3.3.2.8.5.5zM52.3 89.9c1.8 1.2 3.7 2.4 5.7 3.4 1.8 1 3.7 1.9 5.9 1.9 4.1 0 7.4-3.1 10.9-4.7 2-.9 4.3-1.5 6.5-.7.4.2.6-.5.2-.7-3.9-1.5-7.8 1.1-11 3-1.7 1-3.5 2-5.5 2.3-2.1.3-4-.4-5.9-1.4-2.2-1.1-4.3-2.4-6.3-3.7-.5-.3-.9.3-.5.6zm1.8-46.8c0 1.4 1 2.7 2.2 3.3 1.5.8 3.3.6 5 .4 1.7-.2 3.3-.5 4.9-1.1 1.5-.5 3.1-1.2 4.3-2.3 1.3-1.1 2.3-2.6 1.9-4.3-.1-.5-.8-.3-.7.2.3 1.3-.6 2.6-1.5 3.4-1.1 1-2.5 1.6-3.8 2.1-1.4.5-2.9.9-4.4 1.1-1.5.2-3.1.4-4.5 0s-2.7-1.5-2.7-3c0-.2-.7-.2-.7.2z"/>
    <path d="M46.5 23c.2.8 1.6.8 2.1 0 .5-.7.4-1.7.2-2.5-.5-3-.9-5.9-1.4-8.9.9.7 2 1.3 3.1 1.2 1.1-.1 2.1-1.5 1.4-2.4 1.1.4 2.2.8 3.4.7 1.2-.1 2.3-1 2.4-2.2 1.1.3 2.3.7 3.5.6 1.2-.1 2.4-.8 2.7-2 .3.8 1 1.5 1.8 1.9.4.2 1 .3 1.3.6.3.3.3.8.4 1.2.3 3.6 1.1 7.1 2.3 10.4.6-1.5 2.8-2 4-.9-1-3.9-2.1-7.9-3.1-11.8-.4-1.3-.7-2.7-1.5-3.8-1.2-1.7-3.3-2.7-5.4-3-2.1-.3-4.2 0-6.3.3-3.5.5-6.9 1.2-10 2.9C46 6 45 6.7 44.2 7.7c-1.5 2-1.5 4.7-1.2 7.2.4 3.2 1.1 6.3 1.9 9.4.6-.3 1.1-.7 1.7-1l-.1-.3z"/>
    <path d="M63.2 21.5c-.1-.6.3-1.4 1-1.5.6-.2 1.3.2 1.6.8.1.2.3.2.5.1s.2-.3.1-.5c-.4-.9-1.5-1.4-2.4-1.1-1 .3-1.6 1.4-1.4 2.4 0 .2.3.3.4.3.2-.1.3-.3.2-.5zm-11.9 2.2c-.1-.6.3-1.4 1-1.5.6-.2 1.3.2 1.6.8.1.2.3.2.5.1s.2-.3.1-.5c-.4-.9-1.5-1.4-2.5-1.1-1 .3-1.6 1.4-1.4 2.4 0 .2.3.3.4.3.2-.1.3-.3.3-.5zm9.6-9c-.2.8-.1 2 .7 2.1.4 0 .7-.2 1-.3.7-.2 1.4.1 2.2.2.7 0 1.6-.7 1.3-1.3-.1-.2-.3-.3-.4-.4-1.3-.8-3-.5-4.6-.2l-.2-.1zm-5.3 1.1c.2.8.1 2-.7 2.1-.4 0-.7-.2-1-.3-.7-.2-1.4.1-2.2.2-.7 0-1.6-.7-1.3-1.3.1-.2.3-.3.4-.4 1.3-.8 3-.5 4.6-.2l.2-.1zm11.1-11c1-1.4 1.3-3.3.6-4.8.9 1.2 1.3 2.7 1.3 4.2 1.2-.9 2.9-1.1 4.2-.4-1.8.6-3.6 1.4-5.2 2.4l-.9-1.4z"/>
    <path class="st4" d="M60.3 29.1c1.6.3 3.1-.9 3.3-2.5 0-.2-.2-.4-.4-.4s-.3.2-.4.4v.2c0 .1 0 .1-.1.2v.1s0 .1-.1.1c0 .1-.1.1-.1.2-.1.2-.4.5-.5.6-.1.1-.2.2-.4.2-.1.1-.2.1-.4.1s-.3.1-.4.1h-.2c-.4 0-.6 0-.6.2 0 .3.1.5.3.5zm-3.2-8.9c0 .9-.5 1.6-.9 2.4-.4.8-.8 1.6-.6 2.5.3 1.6 2.1 2.7 3.7 2.2.4-.1.3-.8-.2-.7-1.3.4-2.9-.7-2.8-2.1 0-.8.5-1.5.8-2.1.4-.7.7-1.4.7-2.2 0-.5-.7-.5-.7 0z"/>
</svg>
