<svg xmlns="http://www.w3.org/2000/svg" xmlns:xlink="http://www.w3.org/1999/xlink" width="101.4" height="137.7" style="overflow:visible;enable-background:new 0 0 101.4 137.7" xml:space="preserve">
    <style>
        .st0{fill:#f6a472}.st2{clip-path:url(#SVGID_2_)}.st3{fill:#fff}.st4{fill:#152151}.st6{clip-path:url(#SVGID_4_)}.st7{opacity:.36;clip-path:url(#SVGID_6_)}.st9{fill:#9b5c31}.st10{fill:#c98020}.st11{fill:#efa02a}.st12{fill:#ffb24d}.st15{fill:#fbc9a4}.st16{fill:#724120}.st17{fill:#8e571f}
    </style>
    <path class="st0" d="M51.9 116.6c-.6 1.6-.9 3.3-1.2 5.1 2 .8 3.2 1.4 5.1 2.3.5-3.3 1.7-6.3 1.8-9.6l-5.7 2.2z"/>
    <defs>
        <path id="SVGID_1_" d="M47.9 130.5c4.8 1.7 9.6 3.7 14.2 6 .5.2 1-.3.8-.8-1.1-2.2-2.5-4.3-4-6.3-.8-1-1.6-1.9-2.1-3.1-.5-1.1-.6-2.5 0-3.6-2.1-.8-4.3-1.5-6.6-1.9-.1 0-2 7.2-2.3 9.7z"/>
    </defs>
    <use xlink:href="#SVGID_1_" style="overflow:visible;fill:#d15259"/>
    <clipPath id="SVGID_2_">
        <use xlink:href="#SVGID_1_" style="overflow:visible"/>
    </clipPath>
    <path d="M48.5 125.8c1.5.8 2.5 2.6 2.3 4.3-1.6-.8-3.1-1.5-4.8-2.1l2.5-2.2zm11.4 8.2c.1-1 1-1.8 2-1.9 1.3 1.6 2.6 3.2 3.8 4.9-2.1-.9-4.2-1.8-6.2-2.8l.4-.2zm-5-6.5c.3 0 .6-.2.6-.5s-.2-.6-.5-.6-.6.2-.6.5.2.6.5.6zm1.8 2c.3 0 .6-.2.6-.5s-.2-.6-.5-.6-.6.2-.6.5c-.1.3.1.6.5.6zm1.2 1.8c.3 0 .6-.2.6-.5s-.2-.6-.5-.6-.6.2-.6.5c-.1.3.2.6.5.6z" style="clip-path:url(#SVGID_2_);fill:#efa02a"/>
    <g class="st2">
        <path class="st3" d="M54.7 126.8c.6-.8 1.6-1.4 2.6-1.4h.9c.1 0 .2.1.2.3 0 .1-.1.2-.3.2-1.1-.2-2.4.3-3.1 1.2-.1.2-.5-.1-.3-.3z"/>
    </g>
    <g class="st2">
        <path class="st3" d="M56.6 129c.3-1 1.6-1.6 2.5-1.2.1.1.2.2.1.3 0 .1-.2.2-.3.1-.1 0-.2-.1-.3-.1h-.3s-.1 0 0 0c-.2 0-.4.1-.6.2-.4.2-.7.5-.8.9 0 .1-.2.2-.3.1v-.3z"/>
    </g>
    <g class="st2">
        <path class="st3" d="M57.8 130.6c.6-.5 1.3-.9 2.1-1 .1 0 .3.1.3.2s-.1.3-.2.3c-.7.1-1.3.4-1.8.9-.1.1-.3.1-.3 0-.2-.2-.2-.3-.1-.4z"/>
    </g>
    <g class="st2">
        <path class="st3" d="M46.8 128.4c1.3.5 2.6 1.1 3.8 1.6 1.3.5 2.6 1.1 3.8 1.7 1.3.6 2.5 1.1 3.8 1.7 1.3.6 2.5 1.2 3.8 1.8 1.3.6 2.5 1.2 3.7 1.8.2.1.3.2.5.2.1.1.2.2.1.3 0 .1-.2.2-.3.1-1.2-.6-2.5-1.2-3.7-1.8-1.3-.6-2.5-1.2-3.8-1.8-1.3-.6-2.5-1.2-3.8-1.7-1.3-.6-2.5-1.1-3.8-1.7-1.3-.6-2.6-1.1-3.8-1.6-.2-.1-.3-.1-.5-.2s-.1-.6.2-.4z"/>
    </g>
    <path class="st4" d="M52.8 122.5c.3.9.5 1.8.8 2.7 0 .1 0 .2-.1.3-.1 0-.2 0-.3-.1-.3-.9-.5-1.8-.8-2.7 0-.1 0-.2.1-.3.1-.1.2 0 .3.1z"/>
    <path class="st4" d="M51.7 123.9c.9-.2 1.9-.4 2.8-.7.1 0 .2 0 .3.1 0 .1 0 .2-.1.3-.9.2-1.9.4-2.8.7-.1 0-.2 0-.3-.1-.1-.1 0-.2.1-.3z"/>
    <path class="st0" d="M25.3 74.2c-1.3-1.1-2.8-2.1-4.3-2.9-1.4 1.6-2.9 3.2-4.4 4.7 2.9 1.6 5.8 3.1 8.9 4.4l-.2-6.2z"/>
    <defs>
        <path id="SVGID_3_" d="M14.4 65.8c-3.7 3.6-7.5 7-11.5 10.2-.4.3-.2 1 .4 1 2.5 0 5-.3 7.4-.9 1.2-.3 2.4-.6 3.7-.6 1.3 0 2.6.5 3.2 1.6 1.7-1.6 3.2-3.3 4.5-5.1.1 0-5.6-4.9-7.7-6.2z"/>
    </defs>
    <use xlink:href="#SVGID_3_" style="overflow:visible;fill:#d15259"/>
    <clipPath id="SVGID_4_">
        <use xlink:href="#SVGID_3_" style="overflow:visible"/>
    </clipPath>
    <path d="M18.4 68.3c-1.4 1-3.4 1.1-4.9.2 1.4-1.1 2.7-2.2 4-3.4l.9 3.2zM6.1 75.1c.8.5 1.2 1.7.8 2.6-2 .5-4 .9-6.1 1.4 1.7-1.5 3.4-3 5.2-4.4l.1.4zm8-1.7c-.2.3-.1.6.2.8.3.2.6.1.8-.2.2-.3.1-.6-.2-.8-.3-.1-.7-.1-.8.2zm-2.6.7c-.2.3-.1.6.2.8.3.2.6.1.8-.2.2-.3.1-.6-.2-.8-.3-.2-.7-.1-.8.2zm-2.2.3c-.2.3-.1.6.2.8.3.2.6.1.8-.2.2-.3.1-.6-.2-.8-.3-.2-.6-.1-.8.2z" style="clip-path:url(#SVGID_4_);fill:#efa02a"/>
    <g class="st6">
        <path class="st3" d="M14.8 73.5c.5.9.5 2 .2 3-.1.3-.2.5-.4.8-.1.1-.2.2-.3.1-.1-.1-.2-.2-.1-.3.7-.9.8-2.2.2-3.3-.1-.4.3-.6.4-.3z"/>
    </g>
    <g class="st6">
        <path class="st3" d="M12 74.3c.8.7.8 2.1 0 2.8-.1.1-.2.1-.3 0-.1-.1-.1-.3 0-.3.1-.1.2-.1.2-.2l.1-.1v-.1s0-.1 0 0c.1-.2.1-.4.1-.6 0-.4-.2-.8-.5-1.1-.1-.1-.1-.3 0-.3.1-.2.3-.2.4-.1z"/>
    </g>
    <g class="st6">
        <path class="st3" d="M10 74.7c.2.7.2 1.5 0 2.3 0 .1-.2.2-.3.2-.1 0-.2-.2-.2-.3.2-.7.2-1.4 0-2 0-.1.1-.3.2-.3.2-.1.3 0 .3.1z"/>
    </g>
    <g class="st6">
        <path class="st3" d="M16.8 65.7c-1 .9-2.1 1.9-3.1 2.8s-2.1 1.8-3.2 2.7c-1.1.9-2.1 1.8-3.2 2.7-1.1.9-2.1 1.8-3.2 2.6-1.1.9-2.2 1.7-3.3 2.6-.1.1-.3.2-.4.3-.1.1-.2.1-.3 0-.1-.1-.1-.3 0-.3 1.1-.9 2.2-1.7 3.3-2.6 1.1-.9 2.2-1.7 3.2-2.6 1.1-.9 2.1-1.8 3.2-2.7 1.1-.9 2.1-1.8 3.2-2.7 1-.9 2.1-1.8 3.1-2.8.1-.1.3-.2.4-.3.2-.2.5.1.3.3z"/>
    </g>
    <path class="st4" d="M19.5 73c-.9-.1-1.9-.1-2.8-.2-.1 0-.2-.1-.2-.2s.1-.2.2-.2c.9.1 1.9.1 2.8.2.1 0 .2.1.2.2s-.1.2-.2.2z"/>
    <path class="st4" d="M18.5 71.5c-.1.9-.2 1.9-.4 2.8 0 .1-.1.2-.2.2s-.2-.1-.2-.2c.1-.9.2-1.9.4-2.8 0-.1.1-.2.2-.2s.2.1.2.2z"/>
    <defs>
        <path id="SVGID_5_" d="M70 68.9c.2 3.5-.6 7-1.4 10.4-2.8 11.4-11.3 40.2-12.2 40.1-.1 0-6.4.1-7.9-.4.6-2.6 6.3-29.6 7-38.3-2.5 5.1-9.6 7.7-15.3 7.4-5.7-.3-20-7.9-20-8.3-.1-.3 1.9-6.1 2.3-7.4 1.7 1.5 13.8 8.7 21.5 2.5 3-2.4 5.6-7 6.5-10.7 4.5.8 9.2 1 13.7.3l5.8 4.4z"/>
    </defs>
    <use xlink:href="#SVGID_5_" style="overflow:visible;fill:#6b74b5"/>
    <clipPath id="SVGID_6_">
        <use xlink:href="#SVGID_5_" style="overflow:visible"/>
    </clipPath>
    <g class="st7">
        <path class="st3" d="M49.6 63.3c.9-1.1 2.5-1.2 3.7-.7 1.4.6 2.3 2 2.8 3.5 1 3.1.3 6.8-1.7 9.4-1 1.2-2.3 2.3-3.8 2.7-1.4.4-2.9.1-4-.9-1-.8-1.6-2.2-1.2-3.4.2-.7.7-1.3 1.4-1.5.7-.1 1.2.4 1.5.9.4.7.6 1.5.8 2.2.3.9.5 1.9.4 2.8 0 1.7-1 3.6-2.9 3.6-.8 0-1.6-.3-2.2-.8-.3-.2-.7-.5-.9-.8-.3-.3-.6-.5-.8-.9-.4-.8.5-1.4 1.2-1.3.8.1 1.4.7 1.7 1.3 1.3 2.2.3 5.3-1.7 6.6-2.5 1.6-5.9.8-8-1.2-1-1-1.7-2.3-1.9-3.7-.2-1.3.2-2.8 1.4-3.6.6-.4 1.3-.5 1.9-.1.4.3.7.9.7 1.4.1 1.2-.7 2.2-1.8 2.6-1.1.4-2.4.3-3.4-.3-1-.7-1.5-2-1.5-3.2 0-1.3.5-2.6 1.5-3.4.5-.5 1.4-.8 2-.3.4.3.4.9.3 1.4-.5 1.5-2.7 1.5-3.9 1.3-1.6-.3-3.1-1.3-4.1-2.5-1-1.3-1.7-2.9-1.9-4.6-.1-.7 0-1.7-.7-2.1-.7-.4-1.4.1-1.8.6-.5.6-.9 1.3-1.3 2-.4.8-.8 1.6-1.1 2.4-.6 1.6-.8 3.3-.6 5 .2 1.6.8 3.1 1.8 4.3.9 1.1 2.4 2 3.9 1.9 1.5-.1 2.8-1.2 3.2-2.7.4-1.4 0-2.9-.9-4s-2.5-1.6-3.9-1.4c-1.4.2-2.5 1.1-3.2 2.3-1.3 2.6-.3 5.8 1.1 8.1.8 1.4 1.9 2.9 3.1 4 1.1 1 2.8 1.7 4.2.9.7-.4 1.1-1 1.2-1.7.1-.7-.1-1.4-.5-2-.4-.6-.9-1.2-1.6-1.5-.7-.3-1.5-.1-2 .4-1.2 1.3-.5 3.3.1 4.7.6 1.5 1.3 2.9 2.2 4.2 1.7 2.6 4 4.8 6.9 6.1 2.8 1.2 6.2 1.4 9 .3 1.4-.6 2.8-1.5 3.6-2.8.4-.6.6-1.4.6-2.1 0-.8-.4-1.5-.9-2-.9-1-2.1-1.5-3.4-1.6-1.2 0-2.4.4-3 1.5-.8 1.3-.2 2.9.7 4 1 1.3 2.5 2.1 4 2.6s3.3.5 4.7-.1c1.3-.6 2.5-1.6 3-3 .5-1.3.4-2.8-.3-4-.8-1.1-2.1-2-3.5-1.9-2.8.1-4 3.2-3.7 5.6.3 2.9 2.7 5.6 5.8 5.3 1.6-.1 3-.9 4.3-1.9.6-.5 1.2-1.1 1.7-1.6.4-.4.9-.6 1.5-.6 1.1 0 2.1.7 2.4 1.7.2.6.1 1.2-.1 1.7-.3.7-.9 1.5-1.4 2.1-1 1.2-2.4 2.3-4.1 2.4-.7.1-1.5-.1-2.2-.4-.7-.4-1.2-1.1-.7-1.8.4-.6 1-.9 1.6-1.2.6-.3 1.1-.5 1.8-.7 1.1-.3 2.4-.3 3.2.5.5.5.8 1.2.9 1.9.1.8.2 1.6.1 2.5-.1 1.7-.7 3.4-1.6 4.8-.8 1.3-2.1 2.4-3.6 2.9-1.2.3-2.6.1-3.5-.6-1.1-.8-1.5-2.3-1-3.5.3-.7 1-1.2 1.7-1.4.7-.1 1.4.1 2 .5 1.4 1 1.7 2.8 1.8 4.4.1 1.7.1 3.5-.5 5.2-.5 1.5-1.7 2.8-3.2 3.3-1.6.5-3.2-.2-4.4-1.3-1.2-1-2.2-2.3-2.8-3.8-.3-.7-.4-1.4-.3-2.1 0-.3.1-.7.3-1 .1-.2.1-.3.3-.4.1-.1.3-.1.2-.1.2-.1.3-.2.5-.4-2.5-1.6-2.6-5.2-1.3-7.6.8-1.5 2-2.7 3.3-3.7 1.3-1.1 2.8-2.1 4.4-2.9 1.7-.9 3.8-1.5 5.7-.7 0-.1-.1-.3-.1-.4-.7 1.1-2 1.5-3.3 1.3-1.5-.2-2.6-1.2-3-2.7-.5-1.6-.1-3.5.8-4.9 1-1.6 2.5-2.7 4.1-3.7.8-.5 1.7-1 2.6-1.4.8-.3 1.8-.5 2.5.2v-.5c-.9 1-2.2 1.5-3.5 1.4-1.3-.1-2.4-.9-3-2-.6-1.1-.7-2.5-.2-3.7.6-1.2 1.7-2.2 2.9-2.8 2-.9 4.7-.9 6.5.6 1 .9 1.7 2.2 1.3 3.6-.3.9-1.1 1.5-2 1.6-.9.1-1.9-.1-2.6-.7-.2-.2-.5-.4-.6-.8 0-.3.1-.7.3-.9.2-.4.6-.8 1.1-1.1 1.8-1.1 4.5-.6 5.2 1.6.7 2.2-.6 4.7-2.9 5.2-1.2.2-2.4-.1-3.4-.7-1.2-.7-1.9-2-2-3.3-.2-1.5.2-3.1.8-4.5.6-1.3 1.3-2.6 2.2-3.7.9-1.1 2-2.2 3.1-3.1 1.1-.8 2.4-1.7 3.8-1.9.6-.1 1.3 0 1.8.4 0-.1-.1-.2-.1-.3-.2 1-1.4 1.2-2.2 1.1-1.1-.1-2.2-.7-3-1.4-2-1.7-3.2-4.2-3.7-6.7-.3-1.6-.5-3.3-.6-5 0-.3-.3-.4-.5-.2-2.5 2.4-4.4 5.4-5.5 8.7-.5 1.6-1.2 3.5 0 4.9.8 1 2.2 1.1 3.4.8 1.5-.4 2.9-1.2 4.1-2.1.6-.5 1.2-1.1 1.7-1.8.5-.6 1.1-1.3 1.3-2.1.3-1.4-.6-2.4-1.9-2.6-1.4-.3-2.9.1-4.2.6-2.9 1.1-5.8 3.3-6.7 6.5-.4 1.3-.3 2.8.6 3.9 1 1.2 2.7 1.4 4.1 1 .4-.1.7-.2 1.1-.4.3-.2.7-.3.9-.7.2-.3.1-.7-.2-.9-.3-.2-.7-.2-1-.3-1.6-.2-3.3.2-4.8 1-1.4.8-2.6 2.2-3.2 3.7-.6 1.5-.8 3.2-.4 4.7.2.7.6 1.3 1.1 1.7.6.4 1.4.5 2 .2.7-.3 1-1.1.8-1.8-.2-.7-.9-1.3-1.6-1.6-1.4-.6-3.2-.2-4.3.7-1.3.9-1.9 2.5-1.8 4.1.1.8.3 1.5.7 2.2.1.2.4.2.5.1.7-.9.4-2.2-.4-3-1-1-2.6-.9-3.9-.9-.1 0-.3.1-.3.2-.7 2.8-.2 5.7 1.4 8.1.2.3.8 0 .6-.3-1.5-2.2-1.9-5-1.3-7.6-.1.1-.2.2-.3.2 1.1-.1 2.4-.2 3.3.5.6.5 1.1 1.5.6 2.2.2 0 .3 0 .5.1-.8-1.2-.9-2.7-.3-4 .6-1.2 1.7-2 3-2.2.6-.1 1.4-.1 1.9.2.5.2 1.2.8 1.1 1.4-.1.6-.8.9-1.4.8-.6-.2-1-.7-1.3-1.3-.5-1.2-.4-2.7 0-3.9.4-1.4 1.2-2.6 2.4-3.5 1.1-.9 2.5-1.4 3.9-1.5h1c.1 0 .8 0 .9.2.1.2-.6.4-.7.5-.3.1-.6.3-1 .3-1.2.3-2.7.1-3.5-1-.7-.9-.6-2.2-.3-3.3.8-2.6 3.3-4.5 5.7-5.6 1.2-.5 2.5-1 3.8-.9.9.1 2 .5 2.1 1.5 0 .7-.5 1.4-.9 2-.4.6-.9 1.1-1.4 1.6-1 1-2.3 1.7-3.6 2.2-.9.3-2.1.6-3 .1-.6-.3-.9-.9-1-1.5-.2-.8.1-1.6.3-2.3.8-2.9 2.2-5.5 4.1-7.8.5-.6 1-1.1 1.5-1.6-.2-.1-.4-.2-.5-.2.2 3.1.5 6.4 2 9.2.7 1.2 1.5 2.3 2.6 3.1 1 .7 2.1 1.4 3.4 1.5 1.2.1 2.5-.4 2.8-1.6 0-.1 0-.2-.1-.3-1.3-1-3-.6-4.4.1-1.5.8-2.8 1.8-4 3-1.2 1.2-2.2 2.5-3 4-.8 1.5-1.5 3.1-1.6 4.8-.1 1.6.3 3.3 1.4 4.5 1 1 2.3 1.6 3.7 1.6 1.3.1 2.7-.4 3.5-1.4.8-1 1.3-2.3 1.2-3.6-.1-1.3-.8-2.5-1.9-3.1-1.1-.6-2.4-.7-3.5-.3-1.1.4-2.1 1.2-2.5 2.4-.3.9.1 1.5.8 2 .4.3 1 .6 1.5.7 1.1.2 2.3.1 3.1-.6 1-.8 1.3-2.3.8-3.6-1-2.8-4.2-3.8-6.8-3.3-2.8.5-5.7 2.9-5.4 6 .2 1.4.9 2.8 2.2 3.6 1.3.8 2.9.8 4.2.2.7-.3 1.2-.7 1.7-1.2.1-.1.1-.3 0-.5-1.4-1.5-3.7-.1-5.1.6-1.8 1-3.6 2.2-4.8 3.9-1.1 1.5-1.7 3.6-1.3 5.5.4 1.7 1.5 3 3.2 3.4 1.6.4 3.5 0 4.4-1.5.1-.1 0-.4-.1-.4-1.8-.8-3.7-.5-5.4.3-1.8.7-3.4 1.8-4.9 3-2.7 2-5.1 4.9-4.7 8.5.2 1.7.9 3.3 2.4 4.3.2.1.6-.1.5-.4-.3-.7-1.1-.5-1.5 0-.5.6-.6 1.4-.6 2.2 0 1.6.9 3.2 1.9 4.4 1 1.3 2.4 2.6 4 3 1.5.4 3.1-.1 4.3-1.1 1.3-1.1 2-2.8 2.2-4.5.1-.9.2-1.8.1-2.8 0-.9-.1-1.8-.3-2.7-.4-1.5-1.2-2.9-2.8-3.5-1.5-.6-3.1.2-3.8 1.6-.6 1.3-.2 2.9.8 3.9.9.9 2.2 1.3 3.5 1.3 3.4-.2 5.6-3.5 6.4-6.5.4-1.7.5-3.5.1-5.2-.3-1.3-1.3-2.3-2.6-2.5-1.3-.2-2.6.2-3.7.7-1.1.5-2.8 1.5-2.4 3 .4 1.6 2.6 2 3.9 1.9 1.7-.2 3.1-1.2 4.2-2.5.5-.6 1-1.3 1.4-2.1.3-.6.5-1.2.4-1.9-.1-1.2-1-2.2-2.1-2.6-.5-.2-1.2-.2-1.7-.1-.7.2-1.2.6-1.6 1.1-1.1 1.2-2.5 2.3-4.1 2.8-1.6.5-3.3.3-4.5-.9-1.1-1-1.8-2.5-1.8-4-.1-1.2.2-2.6 1.1-3.6.9-1.1 2.4-1.3 3.6-.6 1.3.7 2.1 2.3 1.8 3.7-.3 1.5-1.3 2.7-2.7 3.4-1.6.8-3.4.7-5 .1s-3.1-1.6-3.8-3.2c-.3-.7-.4-1.4-.1-2.1.2-.5.7-.9 1.2-1.1 1.2-.4 2.6-.1 3.6.6.6.4 1.2 1.1 1.4 1.9.1.8-.2 1.6-.7 2.3-.9 1.3-2.5 2.1-4 2.6-3.1.9-6.6.3-9.4-1.4-2.8-1.7-4.9-4.4-6.4-7.4-.4-.7-.7-1.5-1-2.3-.3-.9-.7-1.9-.4-2.8.3-.8 1.1-1.3 1.9-.8.6.4 1.2 1.1 1.4 1.8.2.8.1 1.6-.6 2.1s-1.6.5-2.4.2c-.8-.3-1.4-.9-2-1.4-.6-.7-1.2-1.4-1.7-2.2-.9-1.3-1.7-2.8-2-4.4-.3-1.4-.3-2.9.3-4.2.7-1.4 2.1-2.1 3.6-2 1.5.1 2.8 1.2 3.1 2.7.4 1.5-.2 3.3-1.7 3.9-1.5.7-3.2-.3-4.2-1.4-2.4-2.7-2.1-6.7-.8-9.8.4-.8.8-1.6 1.3-2.4.3-.4 1.3-1.9 1.8-.9.2.3.1.8.2 1.2.1.4.1.9.3 1.3.2.8.5 1.6.9 2.3.8 1.5 2 2.8 3.5 3.6 1.4.7 3.2 1.1 4.8.6 1.2-.4 2.3-1.6 1.8-2.9-.2-.6-.7-1-1.3-1.1-.8-.2-1.6.2-2.2.8-1.9 1.8-2.2 5.3-.2 7.2 1.8 1.7 5.3 1.4 6.4-1 .5-1.1.4-2.5-.6-3.3-.5-.4-1.2-.5-1.9-.4-.8.2-1.4.7-1.8 1.4-1.7 2.5-.4 5.9 1.7 7.7 2.3 1.9 5.8 2.6 8.4 1 2.2-1.4 3.3-4.5 2.3-6.9-.5-1.3-1.9-2.7-3.4-2.2-.7.2-1.2.9-1.1 1.7.1.8.8 1.3 1.3 1.8 1.3 1.1 2.9 1.9 4.6 1.2 1.6-.8 2.3-2.6 2.2-4.3 0-1-.3-1.9-.5-2.9-.2-.7-.4-1.5-.8-2.1-.3-.6-.8-1.1-1.5-1.2-.7-.2-1.5.1-2 .7-.9 1.1-.9 2.7-.3 3.9.6 1.2 1.8 2.1 3.1 2.5 3.3.8 6.3-1.9 7.7-4.6 1.5-2.9 1.8-6.8.1-9.8-.7-1.3-1.8-2.4-3.3-2.7-1.3-.3-2.8 0-3.7 1.1.5-.3 1 .2 1.2-.1z"/>
    </g>
    <g class="st7">
        <path class="st3" d="M68.8 92.8c-1.8-2-4.9-2.4-7.1-.9-2.1 1.4-3.6 4.7-1.3 6.6.9.8 2.2 1.2 3.4 1.2.6 0 1.2-.2 1.7-.6.4-.4.6-1 .6-1.6-.1-1.3-1.2-2.2-2.5-2.4-1.4-.2-2.9.1-4 1-1.2.9-1.7 2.5-1 3.9.7 1.2 2 1.8 3.2 2.3.4.2.7-.4.3-.6-.9-.4-1.9-.8-2.6-1.6-.8-.8-.8-1.9-.2-2.9.7-1 2-1.5 3.2-1.6 1.1-.1 2.3.2 2.8 1.3.2.4.2.9 0 1.3-.2.5-.7.7-1.2.7-1 .1-2.1-.2-2.9-.8-1-.6-1.4-1.7-1.2-2.8.2-1.1.9-2 1.7-2.7 2-1.6 4.9-1.3 6.6.6.3.3.8-.1.5-.4z"/>
    </g>
    <g class="st7">
        <path class="st3" d="M59.9 90.8c.4 1.2 0 2.7-1 3.5-1.3 1-3.1.7-4.4-.1-.8-.5-1.4-1.1-2-1.8-.3-.3-.7.1-.5.5 1.2 1.4 2.7 2.5 4.6 2.7.9.1 1.8-.1 2.5-.6.6-.4 1.1-1.1 1.3-1.8.3-.8.3-1.7 0-2.5 0-.4-.6-.2-.5.1z"/>
    </g>
    <g class="st7">
        <path class="st3" d="M39.2 75.2c1.5.7 1.9 2.6 1.8 4.1 0 .9-.2 1.9-.6 2.7-.3.7-.9 1.4-1.7 1.1-.7-.2-1.2-1-1.4-1.7-.3-.9-.3-1.9-.1-2.8.1-.2.3-.8.6-.8s.3.6.3.9c0 .8-.3 1.9-1.1 2.3-.9.4-1.9-.1-2.7-.6-.9-.6-1.6-1.3-2.2-2.1-.2-.3-.8 0-.6.3.7.9 1.5 1.7 2.4 2.3.9.6 2 1.1 3 .8 1.1-.3 1.6-1.4 1.7-2.5.1-.5.1-1-.2-1.5-.2-.4-.7-.6-1.1-.4-1 .4-1.1 1.9-1.1 2.8 0 1.1.3 2.2 1 3 .7.7 1.7 1.1 2.6.5.9-.6 1.3-1.7 1.5-2.7.5-2 .3-5.2-1.9-6.2-.2-.2-.6.4-.2.5z"/>
    </g>
    <g class="st7">
        <path class="st3" d="M73.5 71.9c-.3-.8-1.2-.9-1.9-.6-.4.2-.8.4-1.1.7-.4.3-.7.5-1 .8-1.1 1-1.9 2.5-1.4 4.1.2.8.8 1.4 1.5 1.7.2.1.4-.1.4-.2.3-1.7-2.1-2-3.2-2.2-.7-.1-1.5-.1-1.8.7-.2.7.1 1.6.4 2.2.4.8.9 1.5 1.6 2 .3.3.8-.2.5-.5-.6-.5-1.1-1.1-1.4-1.8-.2-.3-.3-.7-.4-1-.1-.3-.2-.8.1-1 .3-.2.7-.1 1-.1.4.1.9.1 1.3.3.5.1 1.4.5 1.2 1.1.1-.1.3-.1.4-.2-.6-.2-1-.9-1.1-1.5-.1-.7 0-1.5.4-2.1.5-.7 1.2-1.3 1.9-1.8.3-.2.7-.5 1.1-.7.3-.1.8-.1.9.3.1.4.7.2.6-.2z"/>
    </g>
    <g class="st7">
        <path class="st3" d="M53.3 63.5c.9 1 .5 2.5-.2 3.5-.7.9-1.9 1.4-3 .9-.4-.2-.9-.6-.9-1.1 0-.1 0-.3.2-.3s.5.5.5.6c.2.5 0 1.1-.2 1.5-.3.5-.9.8-1.5.9-1.6.3-3-.7-4.3-1.5-.3-.2-.7.3-.3.6 1.4 1 3.1 2 4.9 1.5.7-.2 1.4-.6 1.8-1.3.3-.6.4-1.4.1-2.1-.3-.6-1.2-1.3-1.7-.5-.4.6-.1 1.3.3 1.8 1.1 1.1 2.9 1 4 0 1.3-1.2 1.9-3.5.6-4.9-.1-.4-.6.1-.3.4z"/>
    </g>
    <path d="M69 44.6c-.1.1-.2.2-.2.3 0 0-.1.1-.2 0 0 0-.1-.1 0-.2s.2-.2.2-.3c0 0 .1-.1.2 0v.2z" style="fill:#bc681d"/>
    <path class="st9" d="M86.8 29.7c.4-.6.8-1.3 1.2-1.9.1-.1.2-.3.1-.4 0-.1-.1-.3-.2-.4-.4-.6-.5-1.4-.3-2 .2-.6.6-1 .7-1.6.3-1.2-.7-2.3-1.1-3.4 0-.2 0-.3.1-.4.2-.2.5-.1.7 0 1.5.8 2.5 2.5 2.4 4.2 1.4-.6 2.8-1.2 4.3-1.5 1.3-.2 2.6-.2 3.8.2.2.1.2.4 0 .4l-3.5.9c1.5-.7 3.3-.9 4.9-.5.2 0 .4.1.4.3 0 .2-.2.3-.4.4-1.4.4-2.8.9-4.2 1.3 1.1-.1 2.2-.3 3.4-.4.5-.1 1.2 0 1.4.4-.2.4-.8.6-1.3.7-1.2.3-2.5.6-3.7.9 1-.1 1.9-.2 2.9-.1.6 0 .7.9.1 1.1-.3.1-.7.1-1 .2-1.1.1-2.2.2-3.2.3-.3 0-.6.1-.9.2-.2.1-.4.3-.5.5-.9 1-1.8 2-2.7 2.9-1.2-.4-2.3-1.1-3.2-2l-.2-.3z"/>
    <path d="M59.4 1.7c-2.8-2.8-8.1-1.9-9.9 1.6-2.8-1.3-6.3-.9-8.8 1-2.5 1.9-3.8 5.3-3.3 8.5.1.5.2 1 0 1.4-.2.4-.5.7-.9.9-2.9 2.2-5.5 5-6.7 8.6-1.2 3.5-.8 7.8 1.7 10.6-1.5 1.3-2 3.6-1.3 5.5s2.6 3.2 4.5 3.2c.6 0 1.2-.1 1.8-.1.8.1 1.5.4 2.2.6 2.5.5 5.1-1.6 5.2-4.2 1.9 1.7 5 1 6.8-.9 1.8-1.8 2.5-4.5 3.2-7 2.1 2 4.8 4.1 7.4 3.1.3 3.5 2.8 6.6 6 7.7.5.2 1.1.3 1.4.7.3.4.3.8.4 1.3.4 1.8 1.9 3.2 3.6 3.5 1.7.3 3.6-.5 4.5-2-.1.7.7 1.2 1.4 1.1.7-.1 1.2-.6 1.7-1 1.6-1.4 3.2-2.9 3.9-5 .7-2 .1-4.7-1.9-5.6.4-1.8.8-3.7.3-5.5-.5-1.8-2.2-3.4-3.9-3.1.2-1.2.4-2.6-.2-3.7-.9-1.5-3.3-2-3.2-3.8 0-.5.3-1.1.1-1.6-.3-.6-1.2-.6-1.7-1-1.3-1 .1-3.4-.8-4.8-.5-.7-1.4-.9-1.9-1.5-.6-.6-.7-1.6-1-2.4-.7-2-2.8-3.4-4.8-3.3.7-1.1-.8-2.4-1.9-2.9-1.5-.7-3.9.1-3.9.1z"/>
    <path d="M82.2 46.3c.6-2.6 3.5-4.4 6.1-4 2.7.4 4.8 2.9 5 5.6.1.7 0 1.4-.4 2-.4.6-1.1 1-1.7.8 2 1.5 2.6 4.5 2.1 7-.2 1.4-.8 2.7-1.8 3.6-1.1 1-2.7 1.2-4.2.9-1.4-.3-2.7-1.1-3.8-2.1-.6-.5-1.1-1.2-1.3-1.9-.2-.8-.1-1.7.5-2.2.6 1.5-1 3.2-2.6 3.1-1.6-.1-2.9-1.4-3.6-2.9-.9-1.9-.9-4.1-.2-6 .1.6-.6 1.1-1.2 1-.6-.1-1-.8-1-1.4-.1-.6.2-1.2.4-1.8.8-2.1 2.1-4.2 4.1-5.3s4.9-.7 6.1 1.2l-2.5 2.4z"/>
    <path class="st10" d="M55.5 40.5c13.8-.4 22.3-2.3 31.7-12.4 1.3 1 2.7 1.8 4.2 2.4-3.3 6.5-2.3 8.6-7.7 13.5s-12.3 8.4-19.5 8.8l-8.7-12.3z"/>
    <path d="M46.2 20.9c-.5 1.1-.9 2.4-.6 3.6.3 1.2 1.3 2.4 2.5 2.4-.9.1-1.2 1.3-.9 2.1.5 1.4 1.9 2.4 3.4 2.4.3.8.7 1.8 1.6 1.9.9.1 1.6-.7 2-1.5.9-1.7 1.2-3.7 1-5.7-.2-1.3-.6-2.6-.4-3.8l-8.6-1.4z"/>
    <path class="st11" d="M53.7 35.2c3.3.4 6.1 2.4 8.5 4.6C70 47.1 73.6 58.6 71.4 69c-.1.3-.2.7-.4.9-.3.2-.6.2-.9.2-6.7-.2-13.3-1.4-19.6-3.5 1.3-2.1-.2-4.8-1.4-6.9-3.1-5.4-5.2-11.3-6.2-17.4-.2-1.4-.4-2.9.3-4.1.7-1.3 2.1-2 3.5-2.3 1.4-.2 2.9-.1 4.3.1l2.7-.8z"/>
    <path d="M49.5 31c-.6.2-.8 1-.6 1.6.3.6.9.9 1.4 1.3-.5.1-.8.7-.6 1.2.1.5.5.9.9 1.1.4.3 1 .4 1.3.1.2-.2.2-.6.2-.9-.2-2.1-.4-4.2-.5-6.4l-2.1 2z"/>
    <path class="st0" d="M70.6 30.1c0 .9-.1 1.8-.5 2.5-.7 1.4-2.3 2.2-3.8 2.7-2.1.7-6.8.9-6.7 1.1 0 .1-2.6 2.1-4.2 5-.2.3-.7-.1-1-.2l-3.6-1.8c-.3-.2.5-7.4-.2-10.1-.4-1.6-1.3-3-2.1-4.4-1.3-2.1-2.3-4.3-3.2-6.6 7.2-3.7 15.5-5.3 23.5-4.5-.1-.1 2 11.4 1.8 16.3z"/>
    <path d="M62.4 15.3c.5.7 1.1 1.5 2 1.6.9.2 1.9-.6 1.6-1.5.3.5.4 1.1.6 1.6.2.5.5 1.1 1.1 1.3.5.2 1.3 0 1.4-.5.4.1.5.9.9.8.3 0 .3-.4.3-.7 0-1.7-.5-3.6-2-4.3-.6-.3-1.3-.4-2-.5-1.4-.2-2.7-.3-4.1-.5l.2 2.7z"/>
    <path d="M54.5 15.6c1.2 1.7 3.4 2.6 5.5 2.6 1.1 0 2.2-.2 2.9-.9.8-.7 1-2 .3-2.8-.2-.2-.5-.3-.6-.1-.1.1 0 .2 0 .3.1.5.7.7 1.2.5.4-.2.8-.6.9-1 .3-.8.1-1.8-.5-2.5s-1.5-1-2.4-.8c-.3.1-.6.2-.7.4-.1.3 0 .6.3.7-.2-.7-1.1-1-1.9-.9-.7 0-1.5.3-1.9.9-.4.6-.3 1.6.4 1.9-.2-.6-1-1-1.6-.7-.6.3-.6 1.3-.1 1.6-.3-.3-.6-.7-1-.7-.4-.1-.9.2-1 .6-.1.5.4.9.8 1.2l-.6-.3z"/>
    <path class="st0" d="M49.2 24.1c-.8-.5-1.7-.8-2.7-.8-1 0-1.9.5-2.4 1.3-.3.6-.4 1.3-.4 2 .2 2.3 2 4.5 4.3 5s4.9-.5 6.1-2.6l-4.9-4.9z"/>
    <path d="M63.8 20.2c1.3.7 2.6 1.2 4 1.6-.5-1.1-1.4-2.1-2.6-2.5-.3-.1-.6-.2-.8-.1-.3.1-.5.4-.4.6l-.2.4zm-7.1-.4c-1.3.7-2.6 1.2-4 1.6.5-1.1 1.4-2.1 2.6-2.5.3-.1.6-.2.8-.1.3.1.5.4.4.6l.2.4z"/>
    <path class="st4" d="M25 73.9c-.3 1.9-.5 3.7-.7 5.6 0 .5-.1 1.1-.1 1.6 0 .1-.1.2-.2.2s-.2-.1-.2-.2c.1-1.9.3-3.8.5-5.7.1-.5.2-1.1.2-1.6 0-.1.2-.2.3-.2.1.1.2.2.2.3zm31.7 42.9c-1 .1-1.9.3-2.9.4-1 .1-1.9.2-2.9.2-.5 0-1.1 0-1.6-.1-.1 0-.2-.1-.2-.2s.1-.2.2-.2c.9.1 1.9.1 2.9.1.9-.1 1.9-.2 2.8-.4.5-.1 1.1-.2 1.6-.2.1 0 .2 0 .3.2 0 0 0 .2-.2.2zm5.4-46.2c-.3 1.3-.7 2.6-1 3.9-.3 1.1-.7 2.3-1.7 3-.5.4-1.1.6-1.7.5-.2 0-.2-.1-.2-.3.3-2.1.7-4.3 1-6.4l.3-1.8c0-.1.2-.2.3-.2.1 0 .2.2.2.3-.3 2.1-.7 4.3-1 6.4l-.3 1.8c-.1-.1-.1-.2-.2-.3.5.1 1-.1 1.4-.4.4-.3.7-.7 1-1.2.3-.5.4-1.1.6-1.6.2-.6.3-1.2.5-1.9s.4-1.4.6-2.2c-.1 0 .3.1.2.4z"/>
    <path class="st4" d="M57.9 77.9c-.5 1.3-.9 2.6-1.4 3.9 0 .1-.2.2-.3.2-.1 0-.2-.2-.2-.3.5-1.3.9-2.6 1.4-3.9 0-.1.2-.2.3-.2.2.1.3.2.2.3zM55 68.5c-.2.7-.7 1.3-1.3 1.7-.6.5-1.4.8-2.1 1-.4.1-.9.2-1.4.3-.1 0-.2 0-.3-.2 0-.1 0-.3.2-.3 1.4-.3 2.9-.6 3.9-1.8.2-.3.4-.6.5-.9 0-.1.2-.2.3-.2.2.2.3.3.2.4zm10.3 23c-.2.6-.3 1.2-.5 1.7-.1.3-.5.2-.4-.1.2-.6.3-1.2.5-1.7 0-.3.5-.2.4.1zm-1.4.5c-.1.4-.3.8-.4 1.2 0 .1-.2.2-.3.2-.1 0-.2-.2-.2-.3.1-.4.3-.8.4-1.2 0-.1.2-.2.3-.2.1.1.2.2.2.3zm-18-5.9c-.5.4-1 .7-1.6.9-.1 0-.2 0-.3-.2 0-.1 0-.2.2-.3.5-.2 1-.4 1.4-.8.1-.1.2-.1.3 0 .1.1.1.3 0 .4zm-1.3-.7c-.4.3-.8.5-1.2.6-.1 0-.3 0-.3-.2 0-.1 0-.2.2-.3.1 0 .2-.1.3-.1.1 0 .1 0 .2-.1h.1c.2-.1.4-.2.5-.3.1-.1.3 0 .3.1.1.1 0 .2-.1.3zm-1.7-.9c-.6.2-1.2.2-1.8 0-.1 0-.2-.2-.2-.3 0-.1.2-.2.3-.2.5.2 1 .2 1.5 0 .1 0 .2.1.3.2.1.1 0 .2-.1.3zm-2.8 3c-.3-.1-.7-.1-1-.2-.1 0-.2-.2-.2-.3 0-.1.2-.2.3-.2.3.1.7.1 1 .2.1 0 .2.2.2.3-.1.1-.2.2-.3.2zm23.3 9.9c-.1.3-.2.7-.3 1 0 .1-.2.2-.3.2-.1 0-.2-.2-.2-.3.1-.3.2-.7.3-1 0-.1.2-.2.3-.2.1.1.2.2.2.3zm-1.4 0c0 .3-.1.6-.4.9-.1.1-.2.1-.3 0-.1-.1-.1-.2 0-.3l.1-.1c.1-.1.1-.2.2-.3v.1c0-.1.1-.2.1-.3v.1-.1c0-.1.1-.2.2-.2-.1 0 .1.1.1.2zm3.6-13.5c.1.4 0 .9-.3 1.2-.1.1-.2.1-.3 0-.1-.1-.1-.2 0-.3l.1-.1V84c0-.1 0-.3.2-.3.1 0 .2.1.3.2z"/>
    <path class="st12" d="M66 51.9c0 .3.1.6.3.8v.2h-.2c-.2-.3-.4-.6-.4-1 .1-.2.3-.2.3 0zm-1 .3c.1.4.1.8.2 1.3 0 .1 0 .1-.1.1s-.1 0-.1-.1c-.1-.4-.1-.8-.2-1.3 0-.1 0-.1.1-.1 0 0 .1 0 .1.1z"/>
    <path d="M60.5 25.4c.9.2 1.9.5 2.8.9l.6.3s.1 0 .1.1-.1.2-.1.3c-.2.4-.4.9-.7 1.3-.3.5-.6.9-1 1.3-.1.1-.1.2 0 .3.1.1.2.1.3 0 .7-.8 1.3-1.7 1.8-2.7.1-.2.3-.5.1-.7-.1-.2-.4-.3-.6-.4l-1.5-.6c-.6-.2-1.1-.3-1.7-.5-.1 0-.2 0-.3.1 0 .1.1.2.2.3zm-.9 5.2c.5 1 1.7 1.5 2.7 1.1.3-.1.5-.2.8-.4.1-.1.1-.2 0-.3-.1-.1-.2-.1-.3 0-.4.3-1 .5-1.5.4-.6-.1-1.1-.5-1.3-1-.1-.3-.5-.1-.4.2zm-3.1-5c-.3.5-1 .7-1.5.3-.5-.3-.7-1-.3-1.5.3-.5 1-.7 1.5-.3.5.3.7 1 .3 1.5zm10.3-.6c-.3.5-1 .7-1.5.3-.5-.3-.7-1-.3-1.5.3-.5 1-.7 1.5-.3.5.3.7 1 .3 1.5zm-9.4-10.6c.3 1.9-1.9 3.6-3.7 2.9-.4-.2-.9-.5-1.4-.4-.7.2-.8 1.1-1.1 1.7-.6 1.3-2.3 1.9-3.5 1.4.9-.1 1.7.7 1.6 1.6 0 .9-.9 1.6-1.8 1.4-.4-.1-.8-.3-1.3-.2-.3.1-.6.3-.9.3-.4 0-.7-.6-.8-1-.7-3.1-1.3-6.7.8-9.1.9-1.1 2.2-1.8 3.6-2.3 3.9-1.6 8.3-2.2 12.5-1.7 1.8.2 3.6.6 5.2 1.7s2.6 2.7 2.6 4.6l-11.8-.9zm-23.7 30c1.7-.1 3.2 1.1 3.8 2.7.6 1.6.4 3.3-.1 4.9-.7 2.1-1.8 3.9-3.3 5.5-.9.9-2.1 1.8-3.3 1.5-1.6-.3-2.3-2.1-2.7-3.6-.3 1.6-.9 3.4-2.4 4.1-1.6.8-3.6-.3-4.6-1.8-1.3-2-1.4-4.8-.1-6.8.2.6-.3 1.3-1 1.3-.6 0-1.2-.5-1.5-1-.3-.6-.2-1.3-.2-1.9.2-1.6.8-3.1 1.8-4.3.9-1.3 2.6-2.3 4-1.7 0 .3-.5.3-.6.1-.1-.2-.1-.5.1-.8.6-1.2 2-1.9 3.3-2 1.3-.1 2.7.3 3.9.8 1.6.6 3.5 1.7 3.3 3.4l-.4-.4z"/>
    <path class="st12" d="M33.3 42.8c-.8-2.1-2-4.1-3.6-5.7-.4-.4-.8-.8-1.2-1.1-.4-.3-.8-.7-1.3-.3-.4.2-.4.8-.3 1.2.1.5.4.9.6 1.4 1.2 2 3 3.4 5 4.6 1.1.7 2.2 1.3 3.3 1.9.5.3 2.4 1.2 1.5 2.1-1 .9-2.1-.3-2.6-1.1-.8-1.2-1.5-2.4-2-3.7-.1-.4-.8-.2-.6.2.5 1.2 1 2.3 1.7 3.3.6.9 1.3 1.9 2.4 2.2.8.2 1.9-.3 2-1.2.2-1.2-1.2-1.8-2-2.3-2.1-1.2-4.4-2.3-6.2-4-.8-.7-1.5-1.6-2.1-2.6-.2-.4-.5-.8-.4-1.3.1-.5.8.3 1 .4 1.9 1.7 3.4 3.8 4.3 6.2 0 .4.6.2.5-.2z"/>
    <path class="st12" d="M32.4 42.7c-1.8 3.6-3.8 7.2-6 10.6-.2.3.3.7.6.3 2.2-3.4 4.2-6.9 6-10.6.1-.4-.4-.7-.6-.3z"/>
    <path class="st12" d="M32.4 42.2c-2.1 1.8-4.2 3.6-6.4 5.2-.3.2 0 .8.3.6 2.3-1.6 4.4-3.5 6.5-5.3.4-.3-.1-.8-.4-.5z"/>
    <path d="M50.1 28.4c-.7-1.3-1.9-2.3-3.3-2.8-.2-.1-.4.1-.4.2 0 .2.1.3.2.4 1.2.4 2.3 1.3 2.9 2.5.2.4.8 0 .6-.3z"/>
    <path d="M48.3 26.9c-.4.4-.8.8-1.1 1.2-.1.1-.1.3 0 .5.1.1.3.1.5 0 .4-.4.8-.8 1.1-1.2.1-.1.1-.3 0-.5-.2-.1-.4-.1-.5 0z"/>
    <path style="fill:#724221" d="M59.5 36.2 53.4 35l5 2.6z"/>
    <path d="M84.6 20.4c0 .4-.2.8-.5 1.1-.3.3-.6.6-.8 1v.1c0 .1.1.1.2.1.6.1 1.1-.1 1.6-.4.5-.3.8-.8 1.1-1.3l-1.6-.6zm8.2 2.2c-.3.9-.8 1.7-1.6 2.2.5.3 1.1.1 1.6-.2.5-.3.8-.8 1.2-1.2l-1.2-.8z" style="fill:#e2a77f"/>
    <path class="st15" d="M81.1 15c-.3.3-.5.8-.5 1.3 0 .3.1.6.1.9-.1.7-.7 1.2-1.4 1.3-.7.1-1.4-.1-2.1-.3.4 1.1 1.3 1.9 2.4 2.3 1.1.4 2.2.4 3.3.4.6 0 1.2-.1 1.8 0 .8.1 1.5.4 2.2.7 2.6 1.1 5.2 2.1 8 2.4.6.1 1.2.1 1.8-.1.7-.2 1.2-.7 1.7-1.2.5-.6.9-1.2 1.3-1.9-.7 0-1.4-.1-2-.2-1-.2-1.9-.5-2.8-.9-.9-.3-1.7-.7-2.6-1-.8-.3-1.5-.6-2.2-1-1-.6-1.9-1.4-2.9-2-1-.7-2.1-1.2-3.3-1.3-1-.1-2 .1-2.8.6z"/>
    <path class="st9" d="M80.9 15.1c.1-2.2 1.4-4.3 3.3-5.6 1.8-1.3 4.2-1.8 6.4-1.6 2.2.2 4.4 1 6.3 2.2.6.3 1.1.7 1.6 1.2.7.8 1.2 1.8 1.6 2.8.5 1.3 1 2.7.9 4.1s-.9 2.9-2.2 3.4c-1 .4-2.2.2-3.3-.2-1.9-.6-3.7-1.5-5.4-2.8-.5-.4-1-.9-1.6-1.3-2.2-1.6-5-2.5-7.8-2.4l.2.2z"/>
    <path class="st15" d="M87.4 20.9c.1.2 0 .5-.1.7-.3.5-.7 1-1.1 1.5-.2.1-.2.2-.2.3l.1.1c.3.2.7.1 1.1 0 .7-.2 1.4-.7 1.8-1.4l-1.6-1.2zm8.3 2.5-1.2 1.8s-.1.1 0 .2h.1c.6 0 1.2-.2 1.7-.6s.8-.9 1.1-1.4h-1.7z"/>
    <path class="st16" d="M99.4 18.6c-.4.3-.8.7-1.2 1-.1.1-.1.3 0 .5.1.1.3.1.5 0 .4-.3.8-.7 1.2-1 .1-.1.1-.3 0-.5-.2-.1-.4-.1-.5 0zm-1.7-.8s0 .1 0 0c0 .1-.1.1-.1.1 0 .1-.1.1-.2.1 0 0 .1-.1 0 0 0 0-.1 0-.1.1-.1 0-.1.1-.2.1h.1c-.1.1-.3.1-.4.1-.1 0-.2.1-.2.1 0 .1-.1.2 0 .2 0 .1.1.2.1.2h.2c.5-.1 1-.4 1.3-.8 0-.1.1-.2 0-.2 0-.1-.1-.2-.1-.2-.1 0-.3.1-.4.2zm-1.5-.7c-.1 0-.1 0 0 0-.1 0-.1 0 0 0-.2.2-.4.3-.7.4h.1c-.1 0-.2.1-.3.1-.2.1-.3.2-.2.4.1.2.2.3.4.2.4-.1.8-.3 1.1-.6.1 0 .1-.2.1-.2 0-.1 0-.2-.1-.2 0-.2-.1-.2-.2-.2s-.2 0-.2.1zm-.8 1.9s.1 0 0 0l-.1.1c.1 0 .1 0 .1-.1-.1.1-.2.1-.2.2h.1c-.1 0-.1.1-.2.1h.1-.2.1-.4c-.1 0-.1.1-.1.2v.2c0 .1.1.1.2.1.2.1.5.1.7 0 .1 0 .2-.1.3-.1l.3-.3c0-.1.1-.2 0-.2 0-.1-.1-.2-.1-.2-.1 0-.2-.1-.2 0-.3-.1-.3-.1-.4 0zm2.5-4.7-.1.1.1-.1c-.1.2-.2.3-.4.4l.1-.1c-.1.1-.2.2-.4.2h.1c-.1 0-.1.1-.2.1-.2 0-.3.2-.2.4.1.2.2.3.4.2.5-.1.9-.5 1.2-.9.1-.1 0-.4-.1-.4-.2-.1-.4 0-.5.1zm-1.8-1.6-.8.8c-.1.1-.1.3 0 .5.1.1.3.1.5 0l.8-.8c.1-.1.1-.3 0-.5-.2-.1-.4-.1-.5 0zm3.2 3.4c0 .1 0 .1 0 0 0 .1 0 0 0 0v.1-.1c0 .1-.1.1-.1.2l.1-.1-.1.1.1-.1s-.1.1-.2.1h.1-.2.1-.1c-.2 0-.3.2-.3.3 0 .2.1.3.3.3.3 0 .5-.1.7-.3.1-.1.2-.2.2-.3.1-.1.1-.3.1-.4 0-.1 0-.2-.1-.2-.1-.1-.1-.1-.2-.1s-.2 0-.2.1c-.2.3-.2.4-.2.4zm-5.5-5.2c-.3.5-.5 1-.8 1.5-.1.1 0 .4.1.4.1.1.4 0 .4-.1.3-.5.5-1 .8-1.5.1-.1 0-.4-.1-.4-.1-.1-.3-.1-.4.1zm-.2 4.2c0 .1 0 .1 0 0-.1.1-.1.1-.1.2 0 0 0 .1-.1.1l-.3.3s-.1.1-.2.1c0 0 .1 0 0 0 0 0-.1 0-.1.1-.1.1-.2.1-.3.2-.1.1-.2.3-.1.4.1.2.3.2.4.1.5-.3 1-.7 1.3-1.2.1-.1 0-.4-.1-.4-.1-.1-.3 0-.4.1zm.3 1c.1 0 .1 0 0 0l-.2.2.1-.1-.3.3.1-.1c-.1.1-.2.1-.3.2h.1c-.1 0-.1 0-.2.1-.2 0-.3.2-.2.4.1.2.2.3.4.2.3-.1.5-.2.7-.4.2-.2.3-.4.5-.7V16c0-.1-.1-.1-.2-.1h-.2l-.1.1c-.1 0-.1.1-.2.1zm-2.7-2.6c-.1.1-.1.2-.2.3 0 0 0 .1-.1.1 0 .1-.1.1-.1.2l-.6.6c-.1.1-.1.3 0 .5.1.1.3.1.5 0 .4-.4.8-.8 1.1-1.3.1-.1 0-.4-.1-.4-.2-.2-.4-.2-.5 0zm.7 3.3s0 .1-.1.1c0 0 0-.1.1-.1-.1.1-.1.2-.2.2l.1-.1c-.1 0-.1.1-.2.1h.1c-.1 0-.1 0-.2.1h.1-.2c-.1 0-.2 0-.2.1-.1.1-.1.1-.1.2s0 .2.1.2c.1.1.1.1.2.1.2 0 .4 0 .6-.1.2-.1.3-.3.4-.4 0-.1.1-.2 0-.2 0-.1-.1-.2-.1-.2-.1 0-.2-.1-.2 0-.1-.2-.2-.1-.2 0zm-3.4-3.7c0 .1-.1.2-.2.3l.1-.1-.2.2.1-.1c-.1.1-.2.1-.3.2-.1 0-.1.1-.1.2v.2c0 .1.1.1.2.1h.3c.2-.1.3-.2.5-.3.1-.1.2-.3.3-.5v-.2c0-.1-.1-.2-.1-.2-.1 0-.2-.1-.2 0-.3.1-.3.1-.4.2zM90 9.7c0 .1-.1.2-.2.3 0 .1-.1.1-.1.2v.1s0 .1 0 0l-.1.1-.1.1c-.1.1-.2.2-.3.2-.1 0-.1.2-.1.2 0 .1 0 .2.1.2.1.1.1.1.2.1s.2 0 .2-.1c.4-.3.7-.8 1-1.2 0-.1.1-.2 0-.2 0-.1-.1-.2-.1-.2-.2 0-.4 0-.5.2zm1.8.3c-.1.2-.3.3-.5.5 0 0 .1 0 0 0l-.1.1-.1.1c-.1.1-.2.1-.3.2-.2.1-.2.3-.1.4.1.2.3.2.4.1.4-.2.8-.5 1.2-.9.1-.1.1-.1.1-.2s0-.2-.1-.2c-.1-.1-.2-.2-.3-.2-.1 0-.2.1-.2.1zm4.7-.4c-.1.1-.1.2-.2.3.1-.1 0 0 0 0l-.1.1c0 .1-.1.1-.1.2l-.3.3s-.1 0-.1.1c.1-.1 0 0 0 0-.1 0-.1.1-.2.1-.1.1-.2.3-.1.4.1.1.3.2.4.1.5-.3.9-.8 1.2-1.3.1-.1 0-.4-.1-.4-.1-.1-.3 0-.4.1zm1.7 1.2c-.1.1-.1.2-.2.3l.1-.1c-.1.2-.3.3-.5.5l.1-.1-.1.1c-.1 0-.1.1-.1.2v.2c0 .1.1.1.2.1h.2c.4-.3.7-.6.9-1 .1-.1 0-.4-.1-.4-.3.1-.5.1-.5.2zm1.1 1.3-.1.1.1-.1c-.2.2-.3.2-.4.3h.1c-.1 0-.2.1-.3.1-.1 0-.2.1-.2.1 0 .1-.1.2 0 .2 0 .1.1.2.1.2h.2c.3-.1.7-.2.9-.5.1-.1.1-.3 0-.5-.1 0-.3 0-.4.1zm-5.9-3.8c-.3.4-.5.7-.8 1.1-.1.1 0 .4.1.4.2.1.3 0 .4-.1.3-.4.5-.7.8-1.1.1-.1 0-.4-.1-.4-.2-.1-.3-.1-.4.1zm-1.5-.6c-.1.2-.2.5-.4.7 0 .1-.1.2 0 .2 0 .1.1.2.1.2.1 0 .2.1.2 0 .1 0 .2-.1.2-.1.1-.2.2-.5.4-.7 0-.1.1-.2 0-.2 0-.1-.1-.2-.1-.2-.1 0-.2-.1-.2 0-.1 0-.2 0-.2.1zm-1.8.2v.5c0 .1 0 .2.1.2.1.1.1.1.2.1s.2 0 .2-.1c.1-.1.1-.1.1-.2v-.5c0-.1 0-.2-.1-.2-.1-.1-.1-.1-.2-.1s-.2 0-.2.1c-.1 0-.1.1-.1.2zm5.3.8c0 .1-.1.2-.1.3v-.1l-.3.6.1-.1-.1.1c-.1.1-.1.1-.1.2s0 .2.1.2c.1.1.3.1.5 0 .3-.3.5-.7.6-1.1 0-.2-.1-.4-.2-.4-.3 0-.4.1-.5.3zm-7.6.3c-.1.3-.1.5-.2.8v.2c0 .1.1.1.2.1h.2c.1 0 .1-.1.1-.2.1-.3.1-.5.2-.8v-.2c0-.1-.1-.1-.2-.1h-.2c-.1.1-.1.2-.1.2zm-1.7-.3v.9c0 .2.1.3.3.3.2 0 .3-.1.3-.3v-.9c0-.2-.1-.3-.3-.3-.1 0-.3.1-.3.3zm-1.5.3v.5c0 .2.1.3.1.5 0 .1.1.1.1.2.1 0 .2.1.2 0 .1 0 .2-.1.2-.1 0-.1.1-.2 0-.2-.1-.1-.1-.3-.1-.4v.1-.4.1-.2c0-.1-.1-.1-.2-.1h-.2c0-.1-.1-.1-.1 0zm2.2 3.1v.9c0 .2.1.3.3.3.2 0 .3-.1.3-.3v-.9c0-.2-.1-.3-.3-.3-.2-.1-.3.1-.3.3zm-1.8-.4v.6-.1c0 .2-.1.3-.1.5-.1.2.1.4.2.4.2 0 .3-.1.4-.2.1-.4.2-.8.1-1.2 0-.1 0-.2-.1-.2-.1-.1-.1-.1-.2-.1s-.2 0-.2.1c0 0-.1.1-.1.2zm-1.1.4c0 .1-.1.2-.1.3v.3c0 .2.1.4.2.6.1.1.3.2.4.1.2-.1.2-.3.1-.4v-.1.1c0-.1-.1-.2-.1-.3v.1-.3.1c0-.1 0-.2.1-.3v.1c0-.1.1-.2 0-.2 0-.1-.1-.2-.1-.2-.1 0-.2-.1-.2 0-.2-.1-.2 0-.3.1zm-2-1.3c0 .4.1.8.3 1.1 0 .1.1.1.2.1h.2c.1 0 .1-.1.1-.2v-.3.1c-.1-.2-.1-.4-.2-.6v.1-.3c0-.2-.1-.3-.3-.3-.2 0-.3.1-.3.3zm-1.2 1.7c.3.4.6.8.8 1.2 0 .1.1.1.2.1h.2c.1-.1.2-.3.1-.4-.3-.4-.6-.8-.8-1.2 0-.1-.1-.1-.2-.1h-.2c-.1 0-.2.2-.1.4zm2.1-2.6c.1.3.3.7.4 1 0 .1.1.1.2.1h.2c.1 0 .1-.1.1-.2v-.2c-.1-.3-.3-.7-.4-1 0-.1-.1-.1-.2-.1h-.2c-.1 0-.1.1-.1.2-.1 0 0 .1 0 .2zm5.4-2.5c0 .3-.1.5-.1.8v.2c0 .1.1.1.2.1h.2c.1 0 .1-.1.1-.2 0-.3.1-.5.1-.8v-.2c0-.1-.1-.1-.2-.1h-.2c0 .1 0 .1-.1.2zm.1 7.8c-.1.3-.2.5-.3.8v.2c0 .1.1.2.1.2.1 0 .2.1.2 0 .1 0 .2-.1.2-.1.1-.3.2-.5.3-.8v-.2c0-.1-.1-.2-.1-.2-.1 0-.2-.1-.2 0-.1 0-.2 0-.2.1zm-1.5-.3s0 .1 0 0c0 .1 0 0 0 0 0 .1 0 .2-.1.2V15c0 .1-.1.1-.1.2l.1-.1c0 .1-.1.1-.1.1l.1-.1s-.1 0-.1.1c0 0 0 .1-.1.1v.2c0 .1.1.1.2.1h.2l.2-.2.2-.2c.1-.2.1-.3.1-.5 0-.1 0-.2-.1-.2-.1-.1-.1-.1-.2-.1-.1.2-.3.3-.3.5zm-1.3-.5c0 .1 0 .1 0 0 0 .1 0 .1 0 0v.3-.1c0 .1 0 .2-.1.3v-.1.1c0 .1-.1.2 0 .2 0 .1.1.2.1.2.1 0 .2.1.2 0 .1 0 .2-.1.2-.1.2-.3.2-.7.1-1 0-.1-.1-.2-.1-.2-.1 0-.2-.1-.2 0-.1.1-.2.2-.2.4zm-1.4-.1v.4s0 .1.1.1l.1.1h.2c.1 0 .1 0 .1-.1l.1-.1v-.6s0-.1-.1-.1l-.1-.1h-.2c-.1 0-.1 0-.1.1l-.1.1v.2zm6.2 2.6c-.1.2-.2.4-.3.5 0 .1-.1.2 0 .2 0 .1.1.2.1.2.1 0 .2.1.2 0 .1 0 .1-.1.2-.1.1-.2.2-.4.3-.5 0-.1.1-.2 0-.2 0-.1-.1-.2-.1-.2-.1 0-.2-.1-.2 0 0-.1-.1 0-.2.1zm-.5-1c-.1.3-.2.5-.3.8 0 .1-.1.2 0 .2 0 .1.1.2.1.2.1 0 .2.1.2 0 .1 0 .2-.1.2-.1.1-.3.2-.5.3-.8 0-.1.1-.2 0-.2 0-.1-.1-.2-.1-.2-.1 0-.2-.1-.2 0-.1-.1-.2 0-.2.1zm3.3 2.5c-.2.2-.4.4-.7.5-.1 0-.1.2-.1.2 0 .1 0 .2.1.2.1.1.1.1.2.1h.1c.1 0 .1 0 .1-.1.2-.2.4-.4.7-.5.1 0 .1-.2.1-.2 0-.1 0-.2-.1-.2-.1-.1-.1-.1-.2-.1h-.1c0 .1-.1.1-.1.1zm-1-.4c-.1 0-.1 0 0 0-.1 0-.1 0 0 0l-.2.2.1-.1c-.1.1-.1.1-.2.1h.1-.1c-.1 0-.2.1-.2.1 0 .1-.1.2 0 .2 0 .1.1.2.1.2.1 0 .2.1.2 0 .3-.1.6-.3.7-.6 0-.1.1-.2 0-.2 0-.1-.1-.2-.1-.2-.1 0-.2-.1-.2 0-.1.1-.2.2-.2.3zm4.3 1.8c-.1.1-.1.2-.2.3v.2s0 .1.1.1l.1.1h.4l.1-.1c.1-.1.1-.2.2-.3v-.2s0-.1-.1-.1l-.1-.1h-.4s-.1 0-.1.1zm1.2.5s0-.1 0 0c0-.1 0-.1 0 0 0-.1 0-.1 0 0 0-.1 0-.1 0 0v-.1.1c0-.1 0-.1.1-.1-.1 0-.1 0-.1.1 0-.1.1-.1.1-.1-.1 0-.1 0-.1.1l.1-.1c-.1 0-.1 0-.1.1l.1-.1h.1-.2s-.1 0-.1.1l-.1.1v.4l.1.1h.3s.1 0 .1-.1l.2-.2c.1-.1.1-.2.1-.3v-.1s0-.1-.1-.1L98 20h-.2c-.1 0-.1 0-.1.1l-.1.1v.1zM82.7 14v.1-.1.1-.1.1-.1.1c-.1.1-.1.1-.1.2v.1s0 .1.1.1c.1.1.1.1.2.1s.2 0 .2-.1c.1-.1.2-.2.2-.3v-.4s0-.1-.1-.1l-.1-.1h-.2c-.1 0-.2.1-.2.1v.3z"/>
    <path class="st16" d="M81.8 14v.2s0 .1.1.1l.1.1h.2c.1 0 .1 0 .1-.1l.1-.1v-.4s0-.1-.1-.1l-.1-.1H82c-.1 0-.1 0-.1.1l-.1.1v.2zm18.8 3.7-.6.6c-.1.1-.1.1-.1.2s0 .2.1.2c.1.1.1.1.2.1s.2 0 .2-.1l.6-.6c.1-.1.1-.1.1-.2s0-.2-.1-.2c-.1-.1-.1-.1-.2-.1 0 0-.1 0-.2.1zm.4-1c-.2.1-.4.2-.5.2 0 0-.1 0-.1.1l-.1.1c0 .1-.1.2 0 .2 0 .1.1.2.1.2h.3c.2-.1.4-.2.5-.2 0 0 .1 0 .1-.1l.1-.1c0-.1.1-.2 0-.2 0-.1-.1-.2-.1-.2h-.3zm-6.8-3.2c-.2.2-.4.4-.5.6-.1.1-.1.1-.1.2s0 .2.1.2c.1.1.1.1.2.1s.2 0 .2-.1c.2-.2.4-.4.5-.6.1-.1.1-.1.1-.2s0-.2-.1-.2c-.1-.1-.1-.1-.2-.1 0 0-.1 0-.2.1zm-.7-.2h-.2c-.1 0-.1 0-.2.1-.1 0-.1.1-.2.1s-.1.1-.1.2-.1.2 0 .2c0 0 0 .1.1.1l.1.1c.1 0 .2.1.2 0 .1 0 .1-.1.2-.1l-.1.1.1-.1-.1.1s.1 0 .1-.1h-.1.1-.1.2s.1 0 .1-.1l.1-.1v-.1c0-.1 0-.2-.1-.2l-.1-.1c.1 0 0-.1 0-.1zM90.7 12c-.1.1-.2.2-.2.3v.2s0 .1.1.1l.1.1h.4l.1-.1c.1-.1.2-.2.2-.3v-.2s0-.1-.1-.1l-.1-.1h-.4c0 .1-.1.1-.1.1zm9.3 1.7c-.2.3-.4.5-.7.8-.1.1-.1.1-.1.2s0 .2.1.2c.1.1.1.1.2.1s.2 0 .2-.1c.2-.3.4-.5.7-.8.1-.1.1-.1.1-.2s0-.2-.1-.2c-.1-.1-.1-.1-.2-.1 0 .1-.1.1-.2.1zm-.5-.7c0 .1-.1.1-.1.2l.1-.1-.3.3.1-.1c-.1.1-.2.2-.4.2h.1-.1c-.1 0-.1.1-.2.1 0 .1-.1.2 0 .2 0 .1.1.2.1.2.1 0 .2.1.2 0 .2-.1.4-.2.6-.4.2-.1.3-.3.4-.5.1-.1 0-.4-.1-.4-.1.1-.3.2-.4.3zm-22.7 5.3c0 .4.3.6.6.6.4 0 .6-.3.6-.6 0-.4-.3-.6-.6-.6-.4-.1-.6.2-.6.6z"/>
    <path d="M83 18.4c-.2.3-.6.4-.9.2-.3-.2-.4-.6-.2-.9s.6-.4.9-.2c.3.3.4.6.2.9z"/>
    <path class="st16" d="M84 16.4c-.2-.2-.4-.3-.6-.4-.3-.1-.6 0-.8.1-.2.1-.2.3-.1.4.1.2.3.2.4.1h-.1c.1 0 .1 0 .2-.1h-.1.2-.1c.1 0 .2 0 .2.1h-.1c.1 0 .1.1.2.1-.1-.1 0 0 0 0s0 .1.1.1c0 .1.2.1.2.1.1 0 .2 0 .2-.1.1-.1.1-.1.1-.2.2-.1.1-.2.1-.2z"/>
    <path class="st0" d="M81.6 28.7c.5-.6.9-1.2 1.4-1.7.1-.1.2-.2.2-.4 0-.1-.1-.3-.2-.4-.3-.6-.4-1.4-.1-2 .3-.5.7-.9.9-1.5.4-1.2-.5-2.3-.7-3.5 0-.2 0-.3.1-.4.2-.2.5-.1.7.1 1.4.9 2.2 2.8 1.9 4.4 1.4-.5 2.9-.9 4.4-1 1.3-.1 2.6.1 3.7.6.2.1.2.4-.1.4l-3.6.5c1.6-.5 3.4-.5 4.9.1.2.1.4.2.4.4s-.2.3-.4.3c-1.4.3-2.9.5-4.3.8h3.4c.5 0 1.2.1 1.3.6-.3.4-.8.5-1.3.6-1.3.1-2.5.3-3.8.4 1.4 0 2.8.1 4.1.5-.3.8-1.4.9-2.2.9-1.1 0-2.2 0-3.3-.1-.3 0-.6 0-.9.1-.2.1-.4.3-.6.4-1 .9-2 1.7-3 2.6-1.1-.6-2.1-1.4-3-2.3l.1-.4z"/>
    <path class="st11" d="M47.9 35.9c13.7 1.3 22.9 1 33.4-7.9 1.2 1.1 2.5 2.1 3.9 2.9-4 6.1-3.8 7.6-9.7 11.9-5.9 4.2-13.2 6.9-20.5 6.4l-7.1-13.3z"/>
    <path class="st10" d="M68.5 46.8c-2.9.9-6 1.4-9 1.5-2.6 0-5.2-.3-7.6-1.3-1.3-.6-2.5-1.3-3.6-2.3-.3-.3-.8.2-.5.5 4 3.9 10.1 4.2 15.4 3.5 1.8-.2 3.7-.6 5.4-1.2.5-.2.3-.9-.1-.7zm3.3 20.6c-7.5 1.1-15.3-.2-22-3.8-.2.7-.5 1.4-.7 2-.1.2-.2.5-.1.8.1.2.4.3.6.4 7.3 2.4 14.5 3.3 22.2 4.2 0-1.3.5-1.9.5-3.2l-.5-.4zm12.4-35-2.9-2.9c-.3-.3-.7.2-.5.5l2.9 2.9c.3.3.8-.2.5-.5z"/>
    <path class="st10" d="M53.6 47.6c-1.6.2-3.1 0-4.6-.5-.4-.1-.6.5-.2.6 1.5.5 3.2.7 4.8.6.2 0 .3-.1.3-.3 0-.3-.2-.5-.3-.4zm13.6 11.6v1.6c0 .2.1.3.3.3.2 0 .3-.1.3-.3v-1.6c0-.2-.1-.3-.3-.3-.1 0-.3.2-.3.3zm-2.6.2v.6c0 .1 0 .2.1.2.1.1.1.1.2.1s.2 0 .2-.1c.1-.1.1-.1.1-.2v-.6c0-.1 0-.2-.1-.2-.1-.1-.1-.1-.2-.1s-.2 0-.2.1c-.1.1-.1.2-.1.2zm-2 0v.4c0 .1 0 .2.1.2l.1.1h.1c.1 0 .2 0 .2-.1.1-.1.1-.1.1-.2v-.4c0-.1 0-.2-.1-.2l-.1-.1h-.1c-.1 0-.2 0-.2.1-.1.1-.1.2-.1.2zM55.7 54v.4c0 .1 0 .2.1.2l.1.1h.1c.1 0 .2 0 .2-.1.1-.1.1-.1.1-.2V54c0-.1 0-.2-.1-.2l-.1-.1H56c-.1 0-.2 0-.2.1-.1 0-.1.1-.1.2zm-1.2 4.8V60c0 .2.1.3.3.3.2 0 .3-.1.3-.3v-1.2c0-.2-.1-.3-.3-.3-.2 0-.3.2-.3.3zm1.6 1.5c0-.1 0-.1 0 0 0-.1 0 0 0 0 0 .1 0 .2-.1.3v.1c0 .1 0 .1-.1.2l-.1.1v.1s0-.1 0 0l-.2.2c-.1.1-.1.3 0 .5.1.1.3.1.5 0 .2-.2.4-.4.5-.6.1-.3.2-.5.3-.8 0-.1 0-.2-.1-.2-.1-.1-.1-.1-.2-.1s-.2 0-.2.1c-.3-.1-.3 0-.3.1z"/>
    <path d="M41.7 4.2c-2.2.4-4.3 1.7-5.7 3.4-1.5 1.9-2.2 4.3-1.9 6.7.2 1.4.6 2.7 1.3 3.9.1-.2.2-.3.3-.5-2.5.1-5.5.4-7.3 2.4-2.2 2.3-1.4 6-.1 8.6.8 1.6 1.8 2.9 3.1 4.1.3.3.8-.2.5-.5-2.2-1.9-3.7-4.5-4.1-7.4-.2-1.4-.1-3 .9-4.2.7-.9 1.8-1.5 2.9-1.8 1.3-.4 2.8-.5 4.1-.6.2 0 .4-.3.3-.5-1.2-2-1.6-4.4-1-6.7.5-2.1 1.8-3.9 3.6-5.1 1-.7 2.1-1.1 3.3-1.3.4 0 .3-.6-.2-.5zm18.6-2.5c.8-1.2 2.4-.9 3.6-.5 1.2.5 2.5 1.2 3.5 1.9 2 1.4 3.6 3.5 3.7 6 0 1.3-.4 2.5-1.4 3.4-.2.2 0 .5.2.5 1.3 0 2.6.7 3.5 1.7.9 1 1.2 2.5 1 3.8-.2.8-.5 1.5-1 2.1-.3.3.2.8.5.5 1-1.2 1.4-2.9 1.2-4.4-.3-1.5-1.3-2.9-2.6-3.6-.8-.4-1.6-.7-2.5-.7.1.2.2.4.2.5 1.9-1.8 1.9-4.9.7-7.1-.7-1.3-1.7-2.3-2.8-3.1-1.2-.9-2.5-1.6-3.9-2.2-.8-.3-1.7-.5-2.5-.4-.8.1-1.4.5-1.9 1.2-.3.4.3.7.5.4z"/>
    <path class="st17" d="M93.7 23.1c-1.6.1-3.2.3-4.9.4-.4 0-.4.7 0 .6 1.6-.1 3.2-.3 4.9-.4.4 0 .4-.6 0-.6zm.9 1.3c-1.9.1-3.9.4-5.7.8-.4.1-.2.7.2.6 1.8-.4 3.7-.6 5.6-.8.3 0 .3-.7-.1-.6zm-.2 1.8c-1.2.1-2.4.1-3.6.2h-.9c-.2 0-.5 0-.7.1-.4.3.2 1 .5.6.3-.3-.2-.8-.5-.5.1 0 .2-.1.2-.1l.2.2c0 .1-.1.2-.1.2-.1 0-.1 0 0 0h1c.4 0 .8 0 1.2-.1.8 0 1.6-.1 2.4-.1.7.1.7-.5.3-.5z"/>
    <path class="st17" d="M88.4 23.6c-.1 1.5.2 3 .6 4.4.1.4.8.2.6-.2-.5-1.4-.7-2.8-.6-4.3 0-.3-.6-.3-.6.1z"/>
    <path d="m84.9 27.4-1.2-.9c-.1 0-.2-.1-.2 0-.1 0-.2.1-.2.1 0 .1-.1.2 0 .2 0 .1.1.1.1.2l1.2.9c.1 0 .2.1.2 0 .1 0 .2-.1.2-.1 0-.1.1-.2 0-.2.1-.1 0-.2-.1-.2z" style="fill:#4c2a13"/>
    <path class="st11" d="M90.2 31.7c-.9-.4-1.8-.9-2.6-1.3-.2-.1-.3 0-.4.1-.1.1 0 .4.1.4.9.4 1.8.9 2.6 1.3.2.1.3 0 .4-.1.1-.1.1-.3-.1-.4zM76.8 46.4c-.3.2-.5.5-.8.7-.1.1-.1.2-.1.2 0 .1 0 .2.1.2.1.1.1.1.2.1s.2 0 .2-.1c.3-.2.5-.5.8-.7.1-.1.1-.2.1-.2 0-.1 0-.2-.1-.2-.1-.1-.1-.1-.2-.1 0 0-.1 0-.2.1zm-2.2.3c-.2.2-.4.3-.6.5-.1.1-.1.2-.1.2 0 .1 0 .2.1.2.1.1.1.1.2.1h.1c.1 0 .1 0 .1-.1.2-.2.4-.3.6-.5.1-.1.1-.2.1-.2 0-.1 0-.2-.1-.2-.1-.1-.1-.1-.2-.1h-.1s0 .1-.1.1zm2.7-3.7c-.1.1-.2.1-.3.2 0 0-.1 0-.1.1 0 0 0 .1-.1.1v.2l.1.1.1.1h.3c.1-.1.2-.1.3-.2 0 0 .1 0 .1-.1 0 0 0-.1.1-.1v-.2l-.1-.1-.1-.1h-.3z"/>
    <path class="st10" d="M73 40.7c-.4.3-.8.7-1.2 1-.1.1-.1.3 0 .5.1.1.3.1.5 0 .4-.3.8-.7 1.2-1 .1-.1.1-.3 0-.5-.2-.1-.4-.1-.5 0zm-3.3.4-.9.6c-.1 0-.1.1-.1.2v.2c.1.1.3.2.4.1l.9-.6c.1 0 .1-.1.1-.2v-.2c0-.1-.2-.2-.4-.1zm-2 2.8c-.2.2-.5.3-.7.5-.1 0-.1.1-.1.2v.2c0 .1.1.1.2.1h.2c.2-.2.5-.3.7-.5.1 0 .1-.1.1-.2V44c0-.1-.1-.1-.2-.1h-.2z"/>
    <path class="st10" d="M68.3 44.1c-.3.2-.6.3-.9.5-.1.1-.2.3-.1.4.1.1.3.2.4.1.3-.2.6-.3.9-.5.1-.1.2-.3.1-.4 0-.1-.2-.2-.4-.1z"/>
</svg>
