<svg xmlns="http://www.w3.org/2000/svg" width="361.2" height="120.9" style="overflow:visible;enable-background:new 0 0 361.2 120.9" xml:space="preserve">
    <path d="M0 120.9C0 92.7 1.6 57.6 67.8 13.5c23.4-15.6 52-14.6 61.1-11.9 11.1 3.3 12.3 12.2 10.8 23.6-1.5 11.5-1.2 18.3 6.7 26.8 13.1 13.9 37 9.9 50.1-2.1 14.5-13.3 19.4-25.2 39.2-30.5 4.3-1.1 8.8-.8 12.7 1.3 16.2 8.9 2.9 26.2 19.6 36.3 3.6 2.2 8 3 12.2 2.6 10.6-1 25.3-6 33.5-12 15.3-11.1 42.8-14.5 46.2 4.1 4.2 23.2-1.9 56.9-16.2 69.3H0z" style="opacity:.9;fill:#fff"/>
</svg>
