<svg xmlns="http://www.w3.org/2000/svg" width="294.7" height="98.6" style="overflow:visible;enable-background:new 0 0 294.7 98.6" xml:space="preserve">
    <path d="M0 98.6C0 75.6 1.3 47 55.3 11 74.4-1.7 97.7-.9 105.2 1.3c9 2.7 10 9.9 8.8 19.3-1.2 9.3-1 15 5.5 21.8 10.7 11.4 30.2 8.1 40.8-1.7 11.9-10.8 15.8-20.6 32-24.9 3.5-.9 7.2-.7 10.3 1.1 13.2 7.3 2.4 21.4 16 29.6 3 1.8 6.5 2.4 9.9 2.1 8.7-.8 20.6-4.9 27.4-9.8 12.5-9 34.9-11.8 37.7 3.3C297 61 292 88.5 280.4 98.6H0z" style="opacity:.9;fill:#fff"/>
</svg>
