<svg xmlns="http://www.w3.org/2000/svg" width="269" height="212.3" style="overflow:visible;enable-background:new 0 0 269 212.3" xml:space="preserve">
    <style>
        .st0{fill:#c82f2c}.st1{fill:#fff}
    </style>
    <path class="st0" d="M167 204h-65C45.7 204 0 158.3 0 102S45.7 0 102 0h65c56.3 0 102 45.7 102 102s-45.7 102-102 102z"/>
    <path class="st0" d="M36 169.4s3.5 26.8-28.3 35 49.2 21.7 84.5-29.5L36 169.4z"/>
    <path class="st1" d="m95.7 132.1-42.6.3c-1.5.1-2.6 1.3-2.5 2.8.1 1.4 1.2 2.5 2.6 2.5h.1l42.6-.3c1.5-.1 2.6-1.3 2.5-2.8 0-1.5-1.3-2.6-2.7-2.5z"/>
    <path class="st1" d="M95.8 132.1c1.4 0 2.5 1.1 2.6 2.5.1 1.5-1.1 2.7-2.5 2.8l-42.6.3h-.1c-1.4 0-2.6-1.1-2.6-2.5-.1-1.5 1.1-2.7 2.5-2.8l42.6-.3h.1m0-6.2h-.3l-42.5.3h-.2c-2.4.1-4.5 1.1-6.1 2.9-1.6 1.7-2.4 4-2.3 6.3.2 4.7 4.1 8.4 8.8 8.4h.3l42.5-.3h.2c2.4-.1 4.5-1.1 6.1-2.9 1.6-1.7 2.4-4 2.3-6.3-.2-4.7-4.1-8.4-8.8-8.4zM221 113.1l-24.6 1.1c1.8-2.6 3-4.4 3.1-4.7.8-1.2.4-2.9-.9-3.6-1.2-.8-2.9-.4-3.6.9-.1.1-2.1 3.4-5.4 7.7l-17.5.8c-1.5.1-2.6 1.3-2.5 2.8.1 1.4 1.2 2.5 2.6 2.5h.1l12.8-.6c-5.2 6.1-11.9 12.6-18.8 15.8-1.3.6-1.9 2.2-1.3 3.5.4 1 1.4 1.5 2.4 1.5.4 0 .7-.1 1.1-.2 5.8-2.6 11.3-7.2 16-12.1 0 .1-.1.2-.1.3-5 20.6-12.3 29.2-15.9 28.8-1.3-.1-2.5.8-2.7 2.1-.2 1.3.8 2.5 2.1 2.7.3 0 .6.1.9.1 3.9 0 7.5-2.8 11-8.6.3.2.7.3 1.1.3h.1l15.6-.8c1.3-.1 2.3-1.2 2.3-2.5-.1-1.3-1.2-2.3-2.5-2.3l-14.2.8c.5-1 1-2.1 1.4-3.2.6-1.3 1.1-2.7 1.6-4l14.9-.8c1.3-.1 2.3-1.2 2.3-2.5-.1-1.3-1.2-2.3-2.5-2.3l-12.9.7c1.3-4.1 2.1-7.1 2.1-7.3.3-1.3-.5-2.6-1.8-2.9-.5-.1-1.1-.1-1.5.2 2.4-2.6 4.6-5.2 6.5-7.5l29-1.3c1.5-.1 2.6-1.3 2.5-2.8-.1-1.6-1.3-2.7-2.8-2.6z"/>
    <path class="st1" d="M197.3 105.5c.5 0 1 .1 1.4.4 1.2.8 1.6 2.4.9 3.6-.2.3-1.3 2-3.1 4.7l24.6-1.1h.1c1.4 0 2.5 1.1 2.6 2.5.1 1.5-1.1 2.7-2.5 2.8l-29 1.3c-1.9 2.4-4.1 5-6.5 7.5.3-.1.6-.2 1-.2.2 0 .4 0 .5.1 1.3.3 2.1 1.6 1.8 2.9 0 .2-.8 3.2-2.1 7.3l12.9-.7h.1c1.3 0 2.3 1 2.4 2.3.1 1.3-.9 2.5-2.3 2.5l-14.9.8c-.5 1.3-1 2.6-1.6 4-.5 1.1-1 2.2-1.4 3.2l14.2-.8h.1c1.3 0 2.3 1 2.4 2.3.1 1.3-.9 2.5-2.3 2.5l-15.6.8h-.1c-.4 0-.8-.1-1.1-.3-3.5 5.7-7.1 8.6-11 8.6-.3 0-.6 0-.9-.1-1.3-.2-2.3-1.3-2.1-2.7.1-1.2 1.2-2.1 2.4-2.1h.5c3.7 0 10.8-8.7 15.7-28.8 0-.1.1-.2.1-.3-4.7 4.8-10.2 9.4-16 12.1-.4.2-.7.2-1.1.2-1 0-2-.6-2.4-1.5-.6-1.3 0-2.9 1.3-3.5 6.9-3.2 13.6-9.7 18.8-15.8l-12.8.6h-.1c-1.4 0-2.6-1.1-2.6-2.5-.1-1.5 1.1-2.7 2.5-2.8l17.5-.8c3.3-4.4 5.4-7.7 5.4-7.7.5-.8 1.4-1.3 2.3-1.3m0-6.1c-3.1 0-5.9 1.6-7.5 4.2 0 0-1.3 2-3.4 5l-14.5.7c-4.9.2-8.6 4.4-8.4 9.2.2 3.9 2.8 7.1 6.4 8.1-2.1 1.6-4.1 2.9-6 3.8-2.1 1-3.8 2.7-4.6 4.9-.8 2.2-.7 4.6.3 6.7 1.4 3.1 4.6 5.1 8 5.1 1.3 0 2.5-.3 3.7-.8.2-.1.4-.2.7-.3-1.7 3.2-3.2 4.9-3.9 5.6-4.2.2-7.7 3.4-8.2 7.6-.5 4.7 2.8 9 7.5 9.5.6.1 1.1.1 1.6.1 5.2 0 10-2.8 14.1-8.4l14-.8c2.3-.1 4.4-1.1 5.9-2.8 1.5-1.7 2.3-3.9 2.2-6.2-.1-1.4-.5-2.8-1.2-3.9.9-.5 1.8-1.1 2.5-1.9 1.5-1.7 2.3-3.9 2.2-6.2-.2-4.5-4-8.1-8.6-8.1h-.4l-4.4.2c.2-1.5.1-2.9-.5-4.3.2-.2.4-.4.5-.6l26.2-1.2c2.4-.1 4.5-1.1 6.1-2.9 1.6-1.7 2.4-4 2.3-6.3-.2-4.7-4.1-8.4-8.8-8.4h-.4l-14.6.7c-.2-2.7-1.6-5.4-4.2-6.9-1.4-1-3-1.4-4.6-1.4zm-54 40.1-6.6.7c-1.4.2-2.5 1.4-2.3 2.9.1 1.4 1.3 2.4 2.6 2.4h.3l6.6-.7c1.4-.2 2.5-1.4 2.3-2.9-.1-1.5-1.4-2.5-2.9-2.4z"/>
    <path class="st1" d="M143.6 139.5c1.3 0 2.5 1 2.6 2.4.2 1.4-.9 2.7-2.3 2.9l-6.6.7h-.3c-1.3 0-2.5-1-2.6-2.4-.2-1.4.9-2.7 2.3-2.9l6.6-.7h.3m0-6.2h-.9l-6.6.7c-4.8.5-8.4 4.8-7.9 9.7.5 4.5 4.2 7.9 8.8 7.9h.9l6.6-.7c2.3-.2 4.4-1.4 5.9-3.2 1.5-1.8 2.2-4.1 1.9-6.5-.4-4.5-4.2-7.9-8.7-7.9zm68.4-7.1-16 .8c-1.3.1-2.3 1.2-2.3 2.5.1 1.3 1.2 2.3 2.5 2.3l13.4-.7c-.5 9.1-3.2 27.1-10.8 28-1.3.2-2.3 1.3-2.1 2.7.1 1.2 1.2 2.1 2.4 2.1h.3c14.1-1.6 15.1-31.8 15.2-35.2 0-.7-.3-1.3-.7-1.8-.6-.5-1.2-.8-1.9-.7z"/>
    <path class="st1" d="M212.1 126.2c.6 0 1.2.2 1.7.7.5.5.7 1.1.7 1.8-.1 3.4-1.1 33.6-15.2 35.2h-.3c-1.2 0-2.2-.9-2.4-2.1-.2-1.3.8-2.5 2.1-2.7 7.7-.9 10.3-18.9 10.8-28l-13.4.7h-.1c-1.3 0-2.3-1-2.4-2.3-.1-1.3 1-2.5 2.3-2.5l16-.8h.2m0-6.2h-.4l-16 .8c-4.7.2-8.4 4.3-8.1 9 .2 4.6 4 8.1 8.6 8.1h.5l6.2-.3c-1.2 8.6-3.4 14.2-4.9 15.3-4.6.7-7.8 4.9-7.3 9.5.5 4.3 4.2 7.6 8.5 7.6.3 0 .7 0 1-.1 6-.7 14-5 18.1-21.6 2.1-8.6 2.5-17.2 2.5-19.7 0-2.4-.9-4.7-2.6-6.3-1.7-1.5-3.8-2.3-6.1-2.3zm-70.3-13.5c-1.2-.8-2.8-.5-3.7.7l-2.4 3.6c-.8 1.2-.5 2.8.7 3.7.5.3 1 .4 1.5.4.8 0 1.7-.4 2.2-1.2l2.4-3.6c.8-1.2.5-2.8-.7-3.6z"/>
    <path class="st1" d="M140.3 106.1c.5 0 1 .1 1.5.4 1.2.8 1.5 2.4.7 3.7l-2.4 3.6c-.5.8-1.3 1.2-2.2 1.2-.5 0-1-.1-1.5-.4-1.2-.8-1.5-2.4-.7-3.7l2.4-3.6c.6-.8 1.4-1.2 2.2-1.2m0-6.2c-2.9 0-5.7 1.5-7.3 3.9l-2.4 3.6c-2.7 4-1.6 9.5 2.4 12.2 1.5 1 3.2 1.5 4.9 1.5 2.9 0 5.7-1.5 7.3-3.9l2.4-3.6c2.7-4 1.6-9.5-2.4-12.2-1.4-1-3.1-1.5-4.9-1.5z"/>
    <path class="st1" d="m159.7 114.7-44.2 1.6c-1 0-1.9.7-2.3 1.6l-3.3 7.7c-.6 1.3.1 2.9 1.4 3.5.3.1.7.2 1 .2 1 0 2-.6 2.4-1.6l2.6-6.2 38.4-1.4-1.7 3.9c-.6 1.3.1 2.9 1.4 3.5 1.3.6 2.9-.1 3.5-1.4l3.3-7.7c.4-.8.3-1.8-.3-2.5-.5-.8-1.3-1.2-2.2-1.2z"/>
    <path class="st1" d="M159.8 114.7c.9 0 1.7.4 2.2 1.1.5.7.6 1.7.3 2.5L159 126c-.4 1-1.4 1.6-2.4 1.6-.3 0-.7-.1-1-.2-1.3-.6-2-2.1-1.4-3.5l1.7-3.9-38.4 1.4-2.6 6.2c-.4 1-1.4 1.6-2.4 1.6-.3 0-.7-.1-1-.2-1.3-.6-2-2.1-1.4-3.5l3.3-7.7c.4-.9 1.3-1.6 2.3-1.6l44.2-1.6c-.2.1-.2.1-.1.1m0-6.2h-.4l-44.1 1.6c-3.4.1-6.5 2.2-7.8 5.4l-3.3 7.8c-.9 2.2-.9 4.6-.1 6.7.9 2.2 2.6 3.9 4.7 4.8 1.1.5 2.3.7 3.4.7 3.5 0 6.7-2.1 8.1-5.4l1.1-2.6 26.3-1c.1.6.3 1.2.5 1.8.9 2.2 2.6 3.9 4.7 4.8 1.1.5 2.3.7 3.4.7 3.5 0 6.7-2.1 8.1-5.4l3.3-7.8c1.2-2.8.9-5.9-.9-8.4-1.4-2.2-4.1-3.7-7-3.7z"/>
    <path class="st1" d="M152.8 155.9c-9.9 1.6-18.8 1-25.8-.2l10-24.8 12.2-.5c1.5-.1 2.6-1.3 2.5-2.7-.1-1.5-1.3-2.6-2.7-2.5l-28.7 1.3c-1.5.1-2.6 1.3-2.5 2.7.1 1.4 1.2 2.5 2.6 2.5h.1l10.8-.5-9.4 23.3c0 .1 0 .1-.1.2-3.7-.9-6.6-1.8-8.3-2.5 4-6.3 6.1-13.4 6.2-13.9.4-1.4-.4-2.9-1.8-3.3-1.4-.4-2.9.4-3.3 1.8-1.3 4.4-6 16.5-12.3 19.4-1.3.6-1.9 2.2-1.3 3.5.4 1 1.4 1.5 2.4 1.5.4 0 .7-.1 1.1-.2 2.1-1 4-2.5 5.7-4.4 3.2 1.3 14.5 5.5 30.1 5.5 4.2 0 8.6-.3 13.3-1 1.4-.2 2.4-1.6 2.2-3-.2-1.5-1.6-2.5-3-2.2z"/>
    <path class="st1" d="M149.1 125.1c1.4 0 2.6 1.1 2.6 2.5.1 1.5-1.1 2.7-2.5 2.7l-12.2.5-10 24.8c3.9.7 8.5 1.1 13.5 1.1 3.9 0 8-.3 12.3-1h.4c1.3 0 2.4.9 2.6 2.2.2 1.4-.8 2.8-2.2 3-4.7.7-9.1 1-13.3 1-15.6 0-27-4.2-30.1-5.5-1.7 1.9-3.6 3.5-5.7 4.4-.4.2-.7.2-1.1.2-1 0-2-.6-2.4-1.5-.6-1.3 0-2.9 1.3-3.5 6.4-2.9 11.1-15 12.3-19.4.3-1.2 1.4-1.9 2.5-1.9.2 0 .5 0 .7.1 1.4.4 2.2 1.9 1.8 3.3-.1.5-2.2 7.6-6.2 13.9 1.7.6 4.6 1.6 8.3 2.5 0-.1 0-.1.1-.2l9.4-23.3-10.8.5h-.1c-1.4 0-2.6-1.1-2.6-2.5-.1-1.5 1.1-2.7 2.5-2.7l28.7-1.3c.1.1.2.1.2.1m0-6.1h-.3l-28.8 1.3c-2.4.1-4.5 1.1-6.1 2.9-1.6 1.7-2.4 4-2.3 6.3 0 .4.1.8.1 1.2-1.4 1.1-2.5 2.6-3 4.4-1.8 6.2-6 14.1-9 15.5-2.1 1-3.8 2.7-4.6 4.9-.8 2.2-.7 4.6.3 6.7 1.4 3.1 4.6 5.1 8 5.1 1.3 0 2.5-.3 3.7-.8 1.6-.7 3.1-1.7 4.6-2.9 5.6 1.9 15.9 4.6 28.6 4.6 4.8 0 9.6-.4 14.3-1.1 4.8-.8 8.1-5.3 7.3-10.1-.7-4.3-4.3-7.4-8.7-7.4-.5 0-.9 0-1.4.1-3.7.6-7.5.9-11.3.9-1.6 0-3.1 0-4.7-.1l5.5-13.6 8.2-.4c2.4-.1 4.5-1.1 6.1-2.9 1.6-1.7 2.4-4 2.3-6.3-.2-4.6-4.1-8.3-8.8-8.3zM88.4 46.2c.3.1.6.2.9.2 1 0 2-.6 2.4-1.7l.6-1.5c.4.2.8.4 1.3.4h3.3c1.4 0 2.6-1.2 2.6-2.6 0-1.4-1.2-2.6-2.6-2.6H94l.2-.4c.5-1.3-.2-2.8-1.5-3.3s-2.8.2-3.3 1.5l-2.5 6.7c-.5 1.3.1 2.8 1.5 3.3z"/>
    <path class="st1" d="M89.3 54.1c-1.3 0-2.5-.2-3.6-.7-2.6-1-4.6-2.9-5.7-5.4-1.1-2.5-1.2-5.3-.2-7.9l2.5-6.7c2-5.3 8-8 13.3-6 2 .8 3.7 2.1 4.9 3.9 3.9 1.4 6.8 5.2 6.8 9.7 0 5.7-4.6 10.3-10.3 10.3h-.5c-2.1 1.8-4.6 2.8-7.2 2.8zm2.6-14.7c-.2.5-.3 1-.3 1.6 0 .4 0 .8.1 1.2.7 0 1.5-.2 2.2-.5v-.1c-.4-.9-1.1-1.7-2-2.2zM87 35.3z"/>
    <path class="st1" d="M73.8 43.6h3.7c-.1 1.1.5 2.2 1.6 2.6.3.1.6.2.9.2 1 0 2-.6 2.4-1.7L85 38c.5-1.3-.2-2.8-1.5-3.3s-2.8.2-3.3 1.5l-.9 2.4c-.2-.1-.5-.1-.8-.1h-4.7c-1.4 0-2.6 1.2-2.6 2.6 0 1.3 1.2 2.5 2.6 2.5z"/>
    <path class="st1" d="M80.1 54.1c-1.3 0-2.5-.2-3.7-.7-1.3-.5-2.4-1.2-3.4-2.1-5.3-.4-9.5-4.9-9.5-10.3 0-5.7 4.6-10.3 10.3-10.3h.7c2.7-3.4 7.4-4.9 11.7-3.3 2.6 1 4.6 2.9 5.8 5.4 1.1 2.5 1.2 5.3.2 7.9l-2.5 6.7c-1.5 4-5.4 6.7-9.6 6.7zm-2.2-15c0 .1 0 .1 0 0 .3.6.6 1.1 1 1.5 0-.6-.2-1.2-.4-1.8-.2.2-.4.3-.6.3z"/>
    <path class="st1" d="M69.6 59.9h7.9c1.1 0 2.1-.7 2.5-1.8l2.3-7.6c.2-.8.1-1.6-.4-2.3-.5-.7-1.3-1-2.1-1h-7.9c-1.1 0-2.1.7-2.5 1.8l-2.3 7.6c-.2.8-.1 1.6.4 2.3.5.6 1.3 1 2.1 1zm4.2-7.6h2.5l-.8 2.4H73l.8-2.4z"/>
    <path class="st1" d="M77.4 67.6h-7.9c-3.3 0-6.4-1.6-8.3-4.2-1.9-2.6-2.5-6-1.6-9.1l2.3-7.6c1.3-4.3 5.3-7.3 9.8-7.3h7.9c3.3 0 6.4 1.6 8.3 4.2 1.9 2.6 2.5 6 1.6 9.1l-2.3 7.6c-1.3 4.4-5.2 7.3-9.8 7.3z"/>
    <path class="st1" d="m84 49-2.3 7.6c-.2.8-.1 1.6.4 2.3.5.7 1.3 1 2.1 1H92c1.1 0 2.1-.7 2.5-1.8l2.3-7.6c.2-.8.1-1.6-.4-2.3-.5-.7-1.3-1-2.1-1h-7.9c-1.1-.1-2.1.7-2.4 1.8zm4.3 3.3h2.5l-.8 2.4h-2.5l.8-2.4z"/>
    <path class="st1" d="M92 67.6h-7.9c-3.3 0-6.4-1.6-8.3-4.2-1.9-2.6-2.5-6-1.6-9.1l2.3-7.6c1.3-4.3 5.3-7.3 9.8-7.3h7.9c3.3 0 6.4 1.6 8.3 4.2 1.9 2.6 2.5 6 1.6 9.1l-2.3 7.6c-1.4 4.4-5.3 7.3-9.8 7.3z"/>
    <path class="st1" d="M126.5 47.1c-.5-.8-1.3-1.3-2.2-1.3h-12.8c1.4-3.7 2.1-6.6 2.2-6.9.3-1.4-.5-2.8-1.9-3.1s-2.8.5-3.1 1.9c-1.2 5.2-6.1 19.4-13.8 21.9-1.4.4-2.1 1.9-1.6 3.3.4 1.1 1.4 1.8 2.4 1.8.3 0 .5 0 .8-.1 5.9-1.9 10.1-7.9 12.9-13.7.2 0 .4.1.6.1h9.9l-2.5 4.3c-.7 1.2-.3 2.8.9 3.5.4.2.9.4 1.3.4.9 0 1.7-.5 2.2-1.3l4.8-8.2c.4-.8.4-1.8-.1-2.6z"/>
    <path class="st1" d="M95.7 72.4c-4.5 0-8.4-2.8-9.8-7.1-1.8-5.4 1.2-11.2 6.6-13 2.6-.9 7-9.1 8.7-16.3 1.3-5.5 6.8-9 12.4-7.7 2.7.6 4.9 2.3 6.4 4.6 1 1.6 1.5 3.4 1.6 5.2h2.8c3.7 0 7.1 2 8.9 5.1h.1v.1c1.8 3.2 1.8 7.1-.1 10.3l-4.8 8.2c-1.8 3.1-5.2 5.1-8.9 5.1-1.8 0-3.6-.5-5.2-1.4-1.2-.7-2.3-1.7-3.1-2.8-3.6 4.6-7.7 7.7-12.3 9.3-1.2.2-2.2.4-3.3.4zm10.4-35.2z"/>
    <path class="st1" d="M107.3 72.3c3.2-6.6 5.5-13 6.3-15.4.5-1.3-.3-2.8-1.6-3.3s-2.8.3-3.3 1.6c-7.1 21-15.3 30.4-18.9 30.4h-.1c-1.4 0-2.6 1.1-2.6 2.5s1.1 2.6 2.5 2.6h.1c5.2 0 10.1-5.7 14.2-12.4 1.5 3.8 3.7 8.6 6.7 12.1.5.6 1.2.9 2 .9.6 0 1.2-.2 1.7-.6 1.1-.9 1.2-2.5.3-3.6-3.9-4.4-6.5-12.2-7.3-14.8z"/>
    <path class="st1" d="M112.6 99.2c-3 0-5.9-1.3-7.9-3.6-.7-.8-1.4-1.8-2.1-2.8-4.1 3.9-8.3 5.8-12.9 5.8-5.8-.1-10.4-4.7-10.4-10.4.1-5.1 3.9-9.3 8.7-10.1 1.9-1.7 7.6-8.7 13.2-25.3.9-2.6 2.7-4.7 5.2-5.9 2.5-1.2 5.3-1.4 7.9-.5 2.6.9 4.7 2.7 5.9 5.2 1.2 2.5 1.4 5.3.5 7.9-.7 2.2-2.6 7.5-5.3 13.4 1.3 3.5 3.1 7.3 4.9 9.5 3.7 4.3 3.1 10.8-1.2 14.5-1.6 1.5-4 2.3-6.5 2.3zM87.8 78.5zm2-.5z"/>
    <path class="st1" d="M83.7 85.1H77l.6-1.8h8.5c1.4 0 2.6-1.2 2.6-2.6 0-1.4-1.2-2.6-2.6-2.6h-6.7l.6-1.7h8.5c1.4 0 2.6-1.1 2.6-2.6 0-1.4-1.1-2.6-2.6-2.6h-6.7l.6-1.9 8.5.1c1.4 0 2.6-1.1 2.6-2.6 0-1.4-1.1-2.6-2.6-2.6l-8.2-.1c.1-.1.1-.1.2-.1.5-.5.8-1.1.8-1.8 0-.2 0-.3-.1-.5 0-.2-.1-.3-.1-.5-.1-.2-.1-.3-.2-.5-.1-.1-.2-.3-.3-.4-.1-.1-.3-.2-.4-.3-.3.1-.4 0-.6 0-.2-.1-.3-.1-.5-.1-.8-.2-1.7.1-2.3.7-.1.1-.2.3-.3.4-.1.1-.2.3-.2.5-.1.2-.1.3-.1.5s-.1.3-.1.5 0 .3.1.5c0 .2.1.3.1.5.1.2.1.3.2.4.1.1.2.3.3.4 0 0 .1.1.2.1h-5.1c.2-.7 0-1.6-.5-2.2-.9-1.1-2.5-1.3-3.6-.4l-11.9 9.6c-1.1.9-1.3 2.5-.4 3.6.5.6 1.3 1 2 1 .6 0 1.1-.2 1.6-.6l2.3-1.8L59.6 87c-.4 1.4.3 2.8 1.7 3.2.3.1.5.1.8.1h.3c.3.1.5.1.8.1l20.7-.1c1.4 0 2.6-1.2 2.6-2.6-.2-1.5-1.4-2.6-2.8-2.6zm-12.1 0-6.1.1.6-1.8h6.2l-.7 1.7zm2.4-7h-6.3l.5-1.7h6.4l-.6 1.7zm2.3-6.8h-6.5l.6-2H77l-.7 2z"/>
    <path class="st1" d="M63.1 98c-.6 0-1.1 0-1.7-.1-.9 0-1.7-.2-2.5-.5-5.4-1.7-8.4-7.5-6.7-12.9l1-3.3c-.5-.4-.9-.9-1.4-1.4-1.7-2.1-2.5-4.8-2.2-7.6.3-2.7 1.6-5.2 3.8-6.9l11.9-9.6c2.9-2.3 6.6-2.8 9.9-1.7.5-.4 1.1-.7 1.6-.9l2.1-1.7-.3 1.1c1.5-.4 3-.4 4.6-.1.6.1 1.2.3 1.9.6l.4.2c.5.2.9.5 1.4.7.6.4 1 .8 1.4 1.1l.5.5c.3.4.7.8.9 1.2l.1.2h1.4c2.7 0 5.3 1.1 7.3 3.1 1.9 2 3 4.6 3 7.3 0 1.8-.5 3.5-1.3 4.9l.2.2h-.3c-.3.5-.6.9-1 1.4v.4c0 2.5-.9 4.8-2.4 6.6v.2c0 2.5-.9 4.8-2.4 6.6v.3c0 5.7-4.6 10.3-10.3 10.3L63.1 98zm-6.5-28.7z"/>
    <path class="st0" d="m95.7 132.1-42.6.3c-1.5.1-2.6 1.3-2.5 2.8.1 1.4 1.2 2.5 2.6 2.5h.1l42.6-.3c1.5-.1 2.6-1.3 2.5-2.8 0-1.5-1.3-2.6-2.7-2.5zm125.3-19-24.6 1.1c1.8-2.6 3-4.4 3.1-4.7.8-1.2.4-2.9-.9-3.6-1.2-.8-2.9-.4-3.6.9-.1.1-2.1 3.4-5.4 7.7l-17.5.8c-1.5.1-2.6 1.3-2.5 2.8.1 1.4 1.2 2.5 2.6 2.5h.1l12.8-.6c-5.2 6.1-11.9 12.6-18.8 15.8-1.3.6-1.9 2.2-1.3 3.5.4 1 1.4 1.5 2.4 1.5.4 0 .7-.1 1.1-.2 5.8-2.6 11.3-7.2 16-12.1 0 .1-.1.2-.1.3-5 20.6-12.3 29.2-15.9 28.8-1.3-.1-2.5.8-2.7 2.1-.2 1.3.8 2.5 2.1 2.7.3 0 .6.1.9.1 3.9 0 7.5-2.8 11-8.6.3.2.7.3 1.1.3h.1l15.6-.8c1.3-.1 2.3-1.2 2.3-2.5-.1-1.3-1.2-2.3-2.5-2.3l-14.2.8c.5-1 1-2.1 1.4-3.2.6-1.3 1.1-2.7 1.6-4l14.9-.8c1.3-.1 2.3-1.2 2.3-2.5-.1-1.3-1.2-2.3-2.5-2.3l-12.9.7c1.3-4.1 2.1-7.1 2.1-7.3.3-1.3-.5-2.6-1.8-2.9-.5-.1-1.1-.1-1.5.2 2.4-2.6 4.6-5.2 6.5-7.5l29-1.3c1.5-.1 2.6-1.3 2.5-2.8-.1-1.6-1.3-2.7-2.8-2.6zm-77.7 26.4-6.6.7c-1.4.2-2.5 1.4-2.3 2.9.1 1.4 1.3 2.4 2.6 2.4h.3l6.6-.7c1.4-.2 2.5-1.4 2.3-2.9-.1-1.5-1.4-2.5-2.9-2.4z"/>
    <path class="st0" d="m212 126.2-16 .8c-1.3.1-2.3 1.2-2.3 2.5.1 1.3 1.2 2.3 2.5 2.3l13.4-.7c-.5 9.1-3.2 27.1-10.8 28-1.3.2-2.3 1.3-2.1 2.7.1 1.2 1.2 2.1 2.4 2.1h.3c14.1-1.6 15.1-31.8 15.2-35.2 0-.7-.3-1.3-.7-1.8-.6-.5-1.2-.8-1.9-.7zm-70.2-19.7c-1.2-.8-2.8-.5-3.7.7l-2.4 3.6c-.8 1.2-.5 2.8.7 3.7.5.3 1 .4 1.5.4.8 0 1.7-.4 2.2-1.2l2.4-3.6c.8-1.2.5-2.8-.7-3.6zm17.9 8.2-44.2 1.6c-1 0-1.9.7-2.3 1.6l-3.3 7.7c-.6 1.3.1 2.9 1.4 3.5.3.1.7.2 1 .2 1 0 2-.6 2.4-1.6l2.6-6.2 38.4-1.4-1.7 3.9c-.6 1.3.1 2.9 1.4 3.5 1.3.6 2.9-.1 3.5-1.4l3.3-7.7c.4-.8.3-1.8-.3-2.5-.5-.8-1.3-1.2-2.2-1.2z"/>
    <path class="st0" d="M152.8 155.9c-9.9 1.6-18.8 1-25.8-.2l10-24.8 12.2-.5c1.5-.1 2.6-1.3 2.5-2.7-.1-1.5-1.3-2.6-2.7-2.5l-28.7 1.3c-1.5.1-2.6 1.3-2.5 2.7.1 1.4 1.2 2.5 2.6 2.5h.1l10.8-.5-9.4 23.3c0 .1 0 .1-.1.2-3.7-.9-6.6-1.8-8.3-2.5 4-6.3 6.1-13.4 6.2-13.9.4-1.4-.4-2.9-1.8-3.3-1.4-.4-2.9.4-3.3 1.8-1.3 4.4-6 16.5-12.3 19.4-1.3.6-1.9 2.2-1.3 3.5.4 1 1.4 1.5 2.4 1.5.4 0 .7-.1 1.1-.2 2.1-1 4-2.5 5.7-4.4 3.2 1.3 14.5 5.5 30.1 5.5 4.2 0 8.6-.3 13.3-1 1.4-.2 2.4-1.6 2.2-3-.2-1.5-1.6-2.5-3-2.2zM88.4 46.2c.3.1.6.2.9.2 1 0 2-.6 2.4-1.7l.6-1.5c.4.2.8.4 1.3.4h3.3c1.4 0 2.6-1.2 2.6-2.6 0-1.4-1.2-2.6-2.6-2.6H94l.2-.4c.5-1.3-.2-2.8-1.5-3.3s-2.8.2-3.3 1.5l-2.5 6.7c-.5 1.3.1 2.8 1.5 3.3zm-14.6-2.6h3.7c-.1 1.1.5 2.2 1.6 2.6.3.1.6.2.9.2 1 0 2-.6 2.4-1.7L85 38c.5-1.3-.2-2.8-1.5-3.3s-2.8.2-3.3 1.5l-.9 2.4c-.2-.1-.5-.1-.8-.1h-4.7c-1.4 0-2.6 1.2-2.6 2.6 0 1.3 1.2 2.5 2.6 2.5zm-4.2 16.3h7.9c1.1 0 2.1-.7 2.5-1.8l2.3-7.6c.2-.8.1-1.6-.4-2.3-.5-.7-1.3-1-2.1-1h-7.9c-1.1 0-2.1.7-2.5 1.8l-2.3 7.6c-.2.8-.1 1.6.4 2.3.5.6 1.3 1 2.1 1zm4.2-7.6h2.5l-.8 2.4H73l.8-2.4zM84 49l-2.3 7.6c-.2.8-.1 1.6.4 2.3.5.7 1.3 1 2.1 1H92c1.1 0 2.1-.7 2.5-1.8l2.3-7.6c.2-.8.1-1.6-.4-2.3-.5-.7-1.3-1-2.1-1h-7.9c-1.1-.1-2.1.7-2.4 1.8zm4.3 3.3h2.5l-.8 2.4h-2.5l.8-2.4zm38.2-5.2c-.5-.8-1.3-1.3-2.2-1.3h-12.8c1.4-3.7 2.1-6.6 2.2-6.9.3-1.4-.5-2.8-1.9-3.1s-2.8.5-3.1 1.9c-1.2 5.2-6.1 19.4-13.8 21.9-1.4.4-2.1 1.9-1.6 3.3.4 1.1 1.4 1.8 2.4 1.8.3 0 .5 0 .8-.1 5.9-1.9 10.1-7.9 12.9-13.7.2 0 .4.1.6.1h9.9l-2.5 4.3c-.7 1.2-.3 2.8.9 3.5.4.2.9.4 1.3.4.9 0 1.7-.5 2.2-1.3l4.8-8.2c.4-.8.4-1.8-.1-2.6z"/>
    <path class="st0" d="M107.3 72.3c3.2-6.6 5.5-13 6.3-15.4.5-1.3-.3-2.8-1.6-3.3s-2.8.3-3.3 1.6c-7.1 21-15.3 30.4-18.9 30.4h-.1c-1.4 0-2.6 1.1-2.6 2.5s1.1 2.6 2.5 2.6h.1c5.2 0 10.1-5.7 14.2-12.4 1.5 3.8 3.7 8.6 6.7 12.1.5.6 1.2.9 2 .9.6 0 1.2-.2 1.7-.6 1.1-.9 1.2-2.5.3-3.6-3.9-4.4-6.5-12.2-7.3-14.8zM83.7 85.1H77l.6-1.8h8.5c1.4 0 2.6-1.2 2.6-2.6 0-1.4-1.2-2.6-2.6-2.6h-6.7l.6-1.7h8.5c1.4 0 2.6-1.1 2.6-2.6 0-1.4-1.1-2.6-2.6-2.6h-6.7l.6-1.9 8.5.1c1.4 0 2.6-1.1 2.6-2.6 0-1.4-1.1-2.6-2.6-2.6l-8.2-.1c.1-.1.1-.1.2-.1.5-.5.8-1.1.8-1.8 0-.2 0-.3-.1-.5 0-.2-.1-.3-.1-.5-.1-.2-.1-.3-.2-.5-.1-.1-.2-.3-.3-.4-.1-.1-.3-.2-.4-.3-.3.1-.4 0-.6 0-.2-.1-.3-.1-.5-.1-.8-.2-1.7.1-2.3.7-.1.1-.2.3-.3.4-.1.1-.2.3-.2.5-.1.2-.1.3-.1.5s-.1.3-.1.5 0 .3.1.5c0 .2.1.3.1.5.1.2.1.3.2.4.1.1.2.3.3.4 0 0 .1.1.2.1h-5.1c.2-.7 0-1.6-.5-2.2-.9-1.1-2.5-1.3-3.6-.4l-11.9 9.6c-1.1.9-1.3 2.5-.4 3.6.5.6 1.3 1 2 1 .6 0 1.1-.2 1.6-.6l2.3-1.8L59.6 87c-.4 1.4.3 2.8 1.7 3.2.3.1.5.1.8.1h.3c.3.1.5.1.8.1l20.7-.1c1.4 0 2.6-1.2 2.6-2.6-.2-1.5-1.4-2.6-2.8-2.6zm-12.1 0-6.1.1.6-1.8h6.2l-.7 1.7zm2.4-7h-6.3l.5-1.7h6.4l-.6 1.7zm2.3-6.8h-6.5l.6-2H77l-.7 2z"/>
    <path class="st1" d="m132.1 74.2 24.9-.6-6.9 17.4c-.5 1.4.1 2.9 1.5 3.4.3.1.6.2 1 .2 1.1 0 2-.6 2.5-1.7l7.6-19.5 26.8-.6c1.5 0 2.6-1.2 2.6-2.7 0-1.5-1.3-2.6-2.7-2.6L132 68.9c-1.5 0-2.6 1.2-2.6 2.7.1 1.5 1.2 2.6 2.7 2.6z"/>
    <path class="st1" d="M189.5 67.6c1.4 0 2.6 1.2 2.6 2.6 0 1.5-1.1 2.7-2.6 2.7l-26.8.6-7.6 19.5c-.4 1-1.4 1.7-2.5 1.7-.3 0-.6-.1-1-.2-1.4-.5-2-2.1-1.5-3.4l6.8-17.4-24.8.6h-.1c-1.4 0-2.6-1.1-2.6-2.6s1.1-2.7 2.6-2.7l57.5-1.4c-.1 0-.1 0 0 0m0-6.2h-.3l-57.3 1.3c-4.9.1-8.7 4.2-8.6 9 .1 4.8 4.1 8.6 8.8 8.6h.2l15.5-.4-3.4 8.8c-1.8 4.5.5 9.6 5 11.4 1 .4 2.1.6 3.2.6 3.7 0 6.9-2.2 8.2-5.6l6.1-15.6 22.7-.5c4.9-.1 8.7-4.2 8.6-9-.1-4.7-4-8.6-8.7-8.6zm-50.6-7.5c.7 0 1.4-.3 1.9-.8l10.3-10.7c1-1 1-2.7-.1-3.7-1-1-2.7-1-3.7.1L137 49.5c-1 1-1 2.7.1 3.7.4.5 1.1.7 1.8.7z"/>
    <path class="st1" d="M149.2 38c.7 0 1.3.2 1.8.7 1 1 1.1 2.7.1 3.7l-10.3 10.7c-.5.5-1.2.8-1.9.8s-1.3-.2-1.8-.7c-1-1-1.1-2.7-.1-3.7l10.3-10.7c.5-.6 1.2-.8 1.9-.8m0-6.2c-2.4 0-4.7 1-6.3 2.7l-10.3 10.7a9.1 9.1 0 0 0-2.5 6.3c0 2.4 1 4.6 2.7 6.2 1.6 1.6 3.8 2.5 6.1 2.5 2.4 0 4.7-1 6.3-2.7l10.3-10.7a9.1 9.1 0 0 0 2.5-6.3c0-2.4-1-4.6-2.7-6.2-1.6-1.6-3.8-2.5-6.1-2.5zm4.2 31.2c.5.7 1.3 1.1 2.2 1.1h.1l9.6-.3c1 0 1.9-.7 2.3-1.6l7.3-17.6c.3-.8.2-1.8-.3-2.5s-1.3-1.1-2.3-1.1l-9.6.3c-1 0-1.9.7-2.3 1.6l-7.3 17.6c-.3.8-.2 1.8.3 2.5zm6.2-4.2 1.4-3.4 3.8-.1-1.4 3.4-3.8.1zm8.9-12.4L167 50h-.5l-3.3.1 1.5-3.5 3.8-.2z"/>
    <path class="st1" d="M172.4 41c.9 0 1.7.4 2.2 1.1.5.7.6 1.7.3 2.5l-7.3 17.6c-.4 1-1.3 1.6-2.3 1.6l-9.6.3h-.1c-.9 0-1.7-.4-2.2-1.1-.5-.7-.6-1.7-.3-2.5l7.3-17.6c.4-1 1.3-1.6 2.3-1.6l9.7-.3m-9.2 9 3.3-.1h.5l1.5-3.6-3.8.1-1.5 3.6m-3.6 8.8 3.8-.1 1.4-3.4-3.8.1-1.4 3.4m12.8-24h-.2l-9.6.3c-3.4.1-6.5 2.2-7.8 5.4l-7.3 17.6c-1.2 2.8-.8 5.9.9 8.4 1.6 2.4 4.4 3.8 7.2 3.8h.2l9.7-.3c3.4-.1 6.5-2.2 7.8-5.4l7.3-17.6c1.2-2.8.8-5.9-.9-8.4-1.6-2.3-4.3-3.8-7.3-3.8z"/>
    <path class="st1" d="M136 66.7c.7 0 1.4-.3 1.9-.8L154 49.5c1-1 1-2.7 0-3.7s-2.7-1-3.7 0l-16.1 16.4c-1 1-1 2.7 0 3.7.4.6 1.1.8 1.8.8z"/>
    <path class="st1" d="M152 45.1c.7 0 1.3.3 1.8.8 1 1 1.1 2.7 0 3.7L137.7 66c-.5.5-1.2.8-1.9.8s-1.3-.3-1.8-.8c-1-1-1.1-2.7 0-3.7l16.1-16.4c.6-.6 1.2-.8 1.9-.8m0-6.2c-2.4 0-4.6.9-6.3 2.6l-16.1 16.4a9.1 9.1 0 0 0-2.5 6.3c0 2.4 1 4.6 2.6 6.2 1.7 1.6 3.8 2.5 6.2 2.5 2.4 0 4.6-.9 6.3-2.6l16.1-16.4a9.1 9.1 0 0 0 2.5-6.3c0-2.4-1-4.6-2.6-6.2-1.7-1.6-3.9-2.5-6.2-2.5z"/>
    <path class="st1" d="m147.1 59.2-3.4 3.5c-1 1.1-1 2.7.1 3.7.5.5 1.2.7 1.8.7.7 0 1.4-.3 1.9-.8l3.4-3.5c1-1.1 1-2.7-.1-3.7s-2.7-1-3.7.1z"/>
    <path class="st1" d="M149 58.4c.7 0 1.3.2 1.8.7 1.1 1 1.1 2.7.1 3.7l-3.4 3.5c-.5.5-1.2.8-1.9.8s-1.3-.2-1.8-.7c-1.1-1-1.1-2.7-.1-3.7l3.4-3.5c.5-.6 1.2-.8 1.9-.8m0-6.2c-2.4 0-4.7 1-6.4 2.7l-3.4 3.5c-1.6 1.7-2.5 3.9-2.4 6.3.1 2.4 1 4.5 2.7 6.2 1.6 1.6 3.8 2.4 6.1 2.4 2.4 0 4.7-1 6.4-2.7l3.4-3.5c1.6-1.7 2.5-3.9 2.4-6.3-.1-2.4-1-4.5-2.7-6.2-1.7-1.5-3.9-2.4-6.1-2.4zm36.4 5.5-3.4 3.5c-1 1.1-1 2.7.1 3.7.5.5 1.2.7 1.8.7.7 0 1.4-.3 1.9-.8l3.4-3.5c1-1.1 1-2.7-.1-3.7-1-1-2.7-1-3.7.1z"/>
    <path class="st1" d="M187.3 56.9c.7 0 1.3.2 1.8.7 1.1 1 1.1 2.7.1 3.7l-3.4 3.5c-.5.5-1.2.8-1.9.8s-1.3-.2-1.8-.7c-1.1-1-1.1-2.7-.1-3.7l3.4-3.5c.5-.6 1.2-.8 1.9-.8m0-6.2c-2.4 0-4.7 1-6.4 2.7l-3.4 3.5c-1.6 1.7-2.5 3.9-2.4 6.3.1 2.4 1 4.5 2.7 6.2 1.6 1.6 3.8 2.4 6.1 2.4 2.4 0 4.7-1 6.4-2.7l3.4-3.5c1.6-1.7 2.5-3.9 2.4-6.3-.1-2.4-1-4.5-2.7-6.2-1.7-1.5-3.8-2.4-6.1-2.4zM174.9 52c.5.5 1.2.7 1.8.7.7 0 1.4-.3 1.9-.8l10.3-10.7c1-1 1-2.7-.1-3.7-1-1-2.7-1-3.7.1l-10.3 10.7c-1 1-1 2.7.1 3.7z"/>
    <path class="st1" d="M187 36.7c.7 0 1.3.2 1.8.7 1 1 1.1 2.7.1 3.7l-10.3 10.7c-.5.5-1.2.8-1.9.8s-1.3-.2-1.8-.7c-1-1-1.1-2.7-.1-3.7l10.3-10.7c.6-.5 1.3-.8 1.9-.8m0-6.1c-2.4 0-4.7 1-6.3 2.7L170.4 44a9.1 9.1 0 0 0-2.5 6.3c0 2.4 1 4.6 2.7 6.2 1.6 1.6 3.8 2.5 6.1 2.5 2.4 0 4.7-1 6.3-2.7l10.3-10.7a9.1 9.1 0 0 0 2.5-6.3c0-2.4-1-4.6-2.7-6.2-1.6-1.7-3.8-2.5-6.1-2.5z"/>
    <path class="st1" d="M171.9 61c-1 1-1 2.7 0 3.7.5.5 1.2.8 1.8.8.7 0 1.4-.3 1.9-.8l16.1-16.4c1-1 1-2.7 0-3.7s-2.7-1-3.7 0L171.9 61z"/>
    <path class="st1" d="M189.9 43.9c.7 0 1.3.3 1.8.8 1 1 1.1 2.7 0 3.7l-16.1 16.4c-.5.5-1.2.8-1.9.8s-1.3-.3-1.8-.8c-1-1-1.1-2.7 0-3.7L188 44.6c.5-.5 1.2-.7 1.9-.7m0-6.2c-2.4 0-4.6.9-6.3 2.6l-16.1 16.4A9.1 9.1 0 0 0 165 63c0 2.4 1 4.6 2.6 6.2 1.7 1.6 3.8 2.5 6.2 2.5 2.4 0 4.6-.9 6.3-2.6l16.1-16.4a9.1 9.1 0 0 0 2.5-6.3c0-2.4-1-4.6-2.6-6.2-1.7-1.6-3.9-2.5-6.2-2.5zm-21.3-.2c.1.2.1.3.2.5.1.1.2.3.3.4.1.1.3.2.4.3.1.1.3.2.5.2.2.1.3.1.5.1s.3.1.5.1.3 0 .5-.1c.2 0 .3-.1.5-.1.2-.1.3-.2.5-.2.1-.1.3-.2.4-.3.1-.1.2-.3.3-.4.1-.1.2-.3.3-.5.1-.2.1-.3.1-.5v-1c0-.2-.1-.3-.1-.5-.1-.2-.2-.3-.3-.5-.1-.1-.2-.3-.3-.4-1-1-2.7-1-3.7 0-.5.5-.8 1.2-.8 1.9 0 .2 0 .3.1.5-.1.2 0 .4.1.5z"/>
    <path class="st1" d="M171 33.9c.7 0 1.4.2 1.9.7.1.1.2.3.3.4.1.1.2.3.3.5.1.2.1.3.1.5v1c0 .2-.1.3-.1.5-.1.2-.2.3-.3.5-.1.1-.2.3-.3.4-.1.1-.3.2-.4.3-.1.1-.3.2-.5.2-.2.1-.3.1-.5.1s-.3.1-.5.1-.3 0-.5-.1c-.2 0-.3-.1-.5-.1-.2-.1-.3-.2-.5-.2-.1-.1-.3-.2-.4-.3-.1-.1-.2-.3-.3-.4-.1-.1-.2-.3-.2-.5-.1-.2-.1-.3-.1-.5s-.1-.3-.1-.5c0-.7.3-1.4.8-1.9.4-.4 1.1-.7 1.8-.7m0-6.2c-2.4 0-4.6.9-6.3 2.6-1.6 1.6-2.6 3.9-2.6 6.2 0 .5.1 1.1.2 1.6.1.7.3 1.2.5 1.6l.1.2.1.2c.1.3.3.7.7 1.3.3.5.7.9 1.1 1.3.4.4.9.8 1.3 1.1l.1.1.2.1c.3.2.6.4 1 .5l.2.1.2.1c.5.2.9.3 1.4.4.6.1 1.2.2 1.8.2.6 0 1.1-.1 1.7-.2.5-.1.9-.2 1.3-.4l.3-.1.3-.1c.3-.2.7-.3 1-.5l.2-.1.2-.1c.5-.3.9-.7 1.3-1.1.4-.4.8-.9 1.1-1.3.3-.4.5-.8.7-1.3l.1-.2.1-.2c.2-.5.3-.9.4-1.4.1-.6.2-1.2.2-1.8s-.1-1.2-.2-1.8c-.1-.5-.2-.9-.4-1.4l-.1-.2-.1-.2c-.2-.4-.4-.9-.7-1.2-.3-.5-.7-.9-1.1-1.3-1.7-1.7-4-2.7-6.3-2.7zM140.4 79c0 .1-1.9 6.2-5.7 5.6-1.4-.2-2.8.8-3 2.2-.2 1.4.8 2.8 2.2 3 .5.1 1 .1 1.4.1 5.9 0 9.2-6 10.2-9.5.4-1.4-.4-2.8-1.8-3.2-1.5-.4-2.9.4-3.3 1.8z"/>
    <path class="st1" d="M142.9 77.1c.2 0 .5 0 .7.1 1.4.4 2.2 1.8 1.8 3.2-1 3.4-4.3 9.5-10.2 9.5-.5 0-.9 0-1.4-.1-1.4-.2-2.4-1.6-2.2-3 .2-1.3 1.3-2.2 2.6-2.2h.9c3.5 0 5.2-5.6 5.2-5.6.4-1.1 1.5-1.9 2.6-1.9m0-6.2c-3.9 0-7.3 2.6-8.4 6.3-.1.4-.3.8-.5 1.2-4.2.1-7.7 3.2-8.4 7.5-.7 4.8 2.6 9.3 7.4 10.1.8.1 1.6.2 2.4.2 8.4 0 14.2-7 16.1-14 1.3-4.7-1.4-9.5-6.1-10.9-.9-.2-1.7-.4-2.5-.4zm36.2 9c.4-1.4-.4-2.8-1.8-3.2-1.4-.4-2.9.4-3.3 1.8 0 .1-1.9 6.2-5.7 5.6-1.4-.2-2.8.8-3 2.2-.2 1.4.8 2.8 2.2 3 .5.1 1 .1 1.4.1 6 0 9.3-6.1 10.2-9.5z"/>
    <path class="st1" d="M176.6 76.5c.2 0 .5 0 .7.1 1.4.4 2.2 1.8 1.8 3.2-1 3.4-4.3 9.5-10.2 9.5-.5 0-.9 0-1.4-.1-1.4-.2-2.4-1.6-2.2-3 .2-1.3 1.3-2.2 2.6-2.2h.9c3.5 0 5.2-5.6 5.2-5.6.4-1.1 1.5-1.9 2.6-1.9m0-6.1c-3.9 0-7.4 2.6-8.5 6.4-.1.3-.3.7-.5 1.1-4.2.1-7.8 3.2-8.4 7.5-.7 4.8 2.6 9.3 7.4 10.1.8.1 1.6.2 2.4.2 8.4 0 14.2-7 16.1-14 1.3-4.7-1.4-9.5-6.1-10.9-.8-.3-1.6-.4-2.4-.4z"/>
    <path class="st0" d="m132.1 74.2 24.9-.6-6.9 17.4c-.5 1.4.1 2.9 1.5 3.4.3.1.6.2 1 .2 1.1 0 2-.6 2.5-1.7l7.6-19.5 26.8-.6c1.5 0 2.6-1.2 2.6-2.7 0-1.5-1.3-2.6-2.7-2.6L132 68.9c-1.5 0-2.6 1.2-2.6 2.7.1 1.5 1.2 2.6 2.7 2.6zm6.8-20.3c.7 0 1.4-.3 1.9-.8l10.3-10.7c1-1 1-2.7-.1-3.7-1-1-2.7-1-3.7.1L137 49.5c-1 1-1 2.7.1 3.7.4.5 1.1.7 1.8.7zm14.5 9.1c.5.7 1.3 1.1 2.2 1.1h.1l9.6-.3c1 0 1.9-.7 2.3-1.6l7.3-17.6c.3-.8.2-1.8-.3-2.5s-1.3-1.1-2.3-1.1l-9.6.3c-1 0-1.9.7-2.3 1.6l-7.3 17.6c-.3.8-.2 1.8.3 2.5zm6.2-4.2 1.4-3.4 3.8-.1-1.4 3.4-3.8.1zm8.9-12.4L167 50h-.5l-3.3.1 1.5-3.5 3.8-.2zM136 66.7c.7 0 1.4-.3 1.9-.8L154 49.5c1-1 1-2.7 0-3.7s-2.7-1-3.7 0l-16.1 16.4c-1 1-1 2.7 0 3.7.4.6 1.1.8 1.8.8zm11.1-7.5-3.4 3.5c-1 1.1-1 2.7.1 3.7.5.5 1.2.7 1.8.7.7 0 1.4-.3 1.9-.8l3.4-3.5c1-1.1 1-2.7-.1-3.7s-2.7-1-3.7.1zm38.3-1.5-3.4 3.5c-1 1.1-1 2.7.1 3.7.5.5 1.2.7 1.8.7.7 0 1.4-.3 1.9-.8l3.4-3.5c1-1.1 1-2.7-.1-3.7-1-1-2.7-1-3.7.1zM174.9 52c.5.5 1.2.7 1.8.7.7 0 1.4-.3 1.9-.8l10.3-10.7c1-1 1-2.7-.1-3.7-1-1-2.7-1-3.7.1l-10.3 10.7c-1 1-1 2.7.1 3.7zm-3 9c-1 1-1 2.7 0 3.7.5.5 1.2.8 1.8.8.7 0 1.4-.3 1.9-.8l16.1-16.4c1-1 1-2.7 0-3.7s-2.7-1-3.7 0L171.9 61zm-3.3-23.5c.1.2.1.3.2.5.1.1.2.3.3.4.1.1.3.2.4.3.1.1.3.2.5.2.2.1.3.1.5.1s.3.1.5.1.3 0 .5-.1c.2 0 .3-.1.5-.1.2-.1.3-.2.5-.2.1-.1.3-.2.4-.3.1-.1.2-.3.3-.4.1-.1.2-.3.3-.5.1-.2.1-.3.1-.5v-1c0-.2-.1-.3-.1-.5-.1-.2-.2-.3-.3-.5-.1-.1-.2-.3-.3-.4-1-1-2.7-1-3.7 0-.5.5-.8 1.2-.8 1.9 0 .2 0 .3.1.5-.1.2 0 .4.1.5z"/>
    <path class="st0" d="M140.4 79c0 .1-1.9 6.2-5.7 5.6-1.4-.2-2.8.8-3 2.2-.2 1.4.8 2.8 2.2 3 .5.1 1 .1 1.4.1 5.9 0 9.2-6 10.2-9.5.4-1.4-.4-2.8-1.8-3.2-1.5-.4-2.9.4-3.3 1.8zm38.7.9c.4-1.4-.4-2.8-1.8-3.2-1.4-.4-2.9.4-3.3 1.8 0 .1-1.9 6.2-5.7 5.6-1.4-.2-2.8.8-3 2.2-.2 1.4.8 2.8 2.2 3 .5.1 1 .1 1.4.1 6 0 9.3-6.1 10.2-9.5z"/>
</svg>
