<svg xmlns="http://www.w3.org/2000/svg" width="94.4" height="77.7" style="overflow:visible;enable-background:new 0 0 94.4 77.7" xml:space="preserve">
    <style>
        .st0{fill:#c82f2c}.st1{fill:#fff}
    </style>
    <path class="st0" d="M61.8 77.7H32.7C14.6 77.7 0 63.1 0 45.1v-6.3c0-18 14.6-32.7 32.7-32.7h29.1c18 0 32.7 14.6 32.7 32.7v6.3c-.1 18-14.7 32.6-32.7 32.6z"/>
    <path class="st0" d="M75 15S73.9 5.6 85.1 2.9C96.3.2 67.9-5 55.3 12.8L75 15z"/>
    <path class="st1" d="m33.6 52.5-14.9.1c-.5 0-.9.5-.9 1s.4.9.9.9l14.9-.1c.5 0 .9-.5.9-1 0-.6-.4-1-.9-.9z"/>
    <path class="st1" d="M33.6 52.5c.5 0 .9.4.9.9s-.4.9-.9 1l-14.9.1c-.5 0-.9-.4-.9-.9s.4-.9.9-1l14.9-.1m0-2.2h-.1l-14.9.1c-.8 0-1.6.4-2.1 1-.6.6-.8 1.4-.8 2.2.1 1.7 1.4 3 3.1 3h.1l14.9-.1c.8 0 1.6-.4 2.1-1 .6-.6.8-1.4.8-2.2-.1-1.7-1.4-3-3.1-3zm44-4.5-8.6.4c.6-.9 1-1.5 1.1-1.6.3-.4.1-1-.3-1.3-.4-.3-1-.1-1.3.3 0 0-.7 1.2-1.9 2.7l-6.1.3c-.5 0-.9.5-.9 1s.4.9.9.9l4.5-.2c-1.8 2.1-4.2 4.4-6.6 5.6-.5.1-.7.7-.4 1.1.2.3.5.5.8.5.1 0 .3 0 .4-.1 2-.9 4-2.5 5.6-4.2v.1c-1.8 7.2-4.3 10.3-5.6 10.1-.5-.1-.9.3-.9.7-.1.5.3.9.7.9h.3c1.4 0 2.6-1 3.9-3 .1.1.3.1.4.1l5.5-.3c.5 0 .8-.4.8-.9s-.4-.8-.9-.8l-5 .3c.2-.4.3-.7.5-1.1.2-.5.4-.9.5-1.4l5.2-.3c.5 0 .8-.4.8-.9s-.4-.8-.9-.8l-4.5.2c.5-1.4.7-2.5.7-2.6.1-.5-.2-.9-.6-1-.2 0-.4 0-.5.1.8-.9 1.6-1.8 2.3-2.6l10.2-.5c.5 0 .9-.5.9-1-.1-.3-.5-.7-1-.7z"/>
    <path class="st1" d="M69.2 43.2c.2 0 .3 0 .5.1.4.3.6.8.3 1.3-.1.1-.4.7-1.1 1.6l8.6-.4h.1c.5 0 .9.4.9.9s-.4.9-.9 1l-10.2.5c-.7.8-1.4 1.7-2.3 2.6.1 0 .2-.1.3-.1h.2c.5.1.7.6.6 1 0 .1-.3 1.1-.7 2.6l4.5-.2c.5 0 .8.3.8.8s-.3.9-.8.9l-4.9.2c-.2.5-.3.9-.5 1.4-.2.4-.3.8-.5 1.1l5-.3c.5 0 .8.3.8.8s-.3.9-.8.9l-5.5.3c-.1 0-.3 0-.4-.1-1.2 2-2.5 3-3.9 3H59c-.5-.1-.8-.5-.7-.9 0-.4.4-.7.8-.7h.2c1.3 0 3.8-3.1 5.5-10.1v-.1c-1.7 1.7-3.6 3.3-5.6 4.2-.1.1-.3.1-.4.1-.4 0-.7-.2-.8-.5-.2-.5 0-1 .5-1.2 2.4-1.1 4.8-3.4 6.6-5.6l-4.5.2c-.5 0-.9-.4-.9-.9s.4-.9.9-1l6.1-.3c1.2-1.5 1.9-2.7 1.9-2.7 0-.3.3-.4.6-.4m0-2.2c-1.1 0-2.1.5-2.6 1.5 0 0-.4.7-1.2 1.7l-5.1.2c-1.7.1-3 1.5-2.9 3.2.1 1.4 1 2.5 2.2 2.8-.7.6-1.5 1-2.1 1.3-.8.3-1.3 1-1.6 1.7-.3.8-.3 1.6.1 2.4.5 1.1 1.6 1.8 2.8 1.8.4 0 .9-.1 1.3-.3.1 0 .2-.1.2-.1-.6 1.1-1.1 1.7-1.4 2-1.5.1-2.7 1.2-2.9 2.7-.2 1.6 1 3.1 2.6 3.3h.6c1.8 0 3.5-1 5-2.9l4.9-.3c.8 0 1.5-.4 2.1-1 .5-.6.8-1.4.8-2.2 0-.5-.2-1-.4-1.4.3-.2.6-.4.9-.7.5-.6.8-1.4.8-2.2-.1-1.6-1.4-2.8-3-2.8h-.1l-1.6.3c.1-.5 0-1-.2-1.5.1-.1.1-.2.2-.2l9.2-.4c1.7-.1 3-1.5 2.9-3.2-.1-1.7-1.4-3-3.1-3h-.2l-5.1.2c-.1-1-.6-1.9-1.5-2.4-.4-.3-1-.5-1.6-.5zM50.3 55.1l-2.3.2c-.5.1-.9.5-.8 1 0 .5.5.8.9.8h.1l2.3-.2c.5-.1.9-.5.8-1 0-.5-.5-.9-1-.8z"/>
    <path class="st1" d="M50.4 55.1c.5 0 .9.4.9.8.1.5-.3 1-.8 1l-2.3.2h-.1c-.5 0-.9-.4-.9-.8-.1-.5.3-1 .8-1l2.4-.2c-.1 0 0 0 0 0m0-2.2h-.3l-2.3.2c-.8.1-1.6.5-2.1 1.1-.5.6-.8 1.4-.7 2.3.2 1.6 1.5 2.8 3.1 2.8h.3l2.3-.2c.8-.1 1.6-.5 2.1-1.1.5-.6.8-1.4.7-2.3-.2-1.6-1.5-2.8-3.1-2.8zm24-2.5-5.6.3c-.5 0-.8.4-.8.9s.4.8.9.8l4.7-.2c-.2 3.2-1.1 9.5-3.8 9.8-.5 0-.8.4-.8.9 0 .4.4.7.8.7h.1c5-.6 5.3-11.2 5.3-12.4 0-.2-.1-.5-.3-.6 0-.1-.3-.2-.5-.2z"/>
    <path class="st1" d="M74.5 50.4c.2 0 .4.1.6.2.2.2.3.4.3.6 0 1.2-.4 11.8-5.3 12.4H70c-.4 0-.8-.3-.8-.7-.2-.5.1-.9.6-.9 2.7-.3 3.6-6.6 3.8-9.8l-4.7.2c-.4 0-.8-.4-.8-.8 0-.5.3-.9.8-.9l5.6-.3c-.1 0-.1 0 0 0m0-2.2h-.2l-5.6.3c-1.7.1-2.9 1.5-2.9 3.2.1 1.6 1.4 2.9 3 2.9h.2l2.2-.1c-.4 3-1.2 5-1.7 5.4-.8.1-1.4.5-1.9 1.1-.5.6-.7 1.4-.6 2.2.2 1.5 1.5 2.7 3 2.7h.4c2.1-.2 4.9-1.8 6.4-7.6.7-3 .9-6 .9-6.9 0-.8-.3-1.6-.9-2.2-.8-.7-1.6-1-2.3-1zm-24.7-4.7c-.4-.3-1-.2-1.3.3l-.9 1.2c-.3.4-.2 1 .3 1.3.2.1.3.2.5.2.3 0 .6-.1.8-.4l.8-1.3c.3-.4.2-1-.2-1.3z"/>
    <path class="st1" d="M49.3 43.3c.2 0 .4.1.5.2.4.3.5.9.3 1.3l-.9 1.2c-.2.3-.5.4-.8.4-.2 0-.4-.1-.5-.2-.4-.3-.5-.9-.3-1.3l.8-1.3c.3-.1.6-.3.9-.3m0-2.1c-1 0-2 .5-2.6 1.4l-.8 1.3c-.9 1.4-.6 3.3.8 4.3.5.3 1.1.5 1.7.5 1 0 2-.5 2.6-1.4l.8-1.3c.9-1.4.6-3.3-.8-4.3-.5-.3-1.1-.5-1.7-.5z"/>
    <path class="st1" d="m56 46.4-15.5.6c-.4 0-.7.2-.8.6l-1.2 2.7c-.2.5 0 1 .5 1.2.1 0 .2.1.4.1.4 0 .7-.2.9-.6l.9-2.2 13.5-.5-.6 1.4c-.2.5 0 1 .5 1.2.5.2 1 0 1.2-.5l1.2-2.7c.1-.3.1-.6-.1-.9-.2-.3-.5-.4-.9-.4z"/>
    <path class="st1" d="M56.1 46.4c.3 0 .6.2.8.4.2.3.2.6.1.9l-1.2 2.7c-.1.4-.5.6-.9.6-.1 0-.2 0-.4-.1-.5-.2-.7-.7-.5-1.2l.6-1.4-13.5.5-.8 2.2c-.1.4-.5.6-.9.6-.1 0-.2 0-.4-.1-.5-.2-.7-.7-.5-1.2l1.2-2.7c.1-.3.5-.5.8-.6l15.6-.6m0-2.2H56l-15.5.6c-1.2 0-2.3.8-2.7 1.9l-1.2 2.7c-.3.8-.3 1.6 0 2.4.3.8.9 1.4 1.7 1.7.4.2.8.2 1.2.2 1.2 0 2.4-.7 2.8-1.9l.4-.9 9.2-.3c0 .2.1.4.2.6.3.8.9 1.4 1.7 1.7.4.2.8.2 1.2.2 1.2 0 2.4-.7 2.8-1.9l1.2-2.7c.4-1 .3-2.1-.3-3-.7-.8-1.6-1.3-2.6-1.3z"/>
    <path class="st1" d="M53.6 60.8c-3.5.5-6.6.4-9-.1l3.5-8.7 4.3-.2c.5 0 .9-.5.9-1s-.5-.9-1-.9l-10.1.4c-.5 0-.9.5-.9 1s.4.9.9.9L46 52l-3.3 8.2v.1c-1.3-.3-2.3-.6-2.9-.9 1.4-2.2 2.1-4.7 2.2-4.9.1-.5-.1-1-.6-1.1-.5-.1-1 .1-1.1.6-.4 1.5-2.1 5.8-4.3 6.8-.5.2-.7.8-.5 1.2.2.3.5.5.8.5.1 0 .3 0 .4-.1.7-.3 1.4-.9 2-1.6 1.1.5 5.1 1.9 10.6 1.9 1.5 0 3-.1 4.7-.4.5-.1.8-.6.8-1.1-.2-.1-.7-.4-1.2-.4z"/>
    <path class="st1" d="M52.3 50c.5 0 .9.4.9.9s-.4.9-.9 1l-4.3.2-3.5 8.7c1.4.2 3 .4 4.7.4 1.4 0 2.8-.1 4.3-.3h.1c.4 0 .8.3.9.8.1.5-.3 1-.8 1.1-1.6.3-3.2.4-4.7.4-5.5 0-9.5-1.5-10.6-1.9-.6.7-1.3 1.2-2 1.6-.1.1-.3.1-.4.1-.4 0-.7-.2-.8-.5-.2-.5 0-1 .5-1.2 2.2-1 3.9-5.3 4.3-6.8.1-.4.5-.7.9-.7h.3c.5.1.8.7.6 1.1 0 .2-.8 2.7-2.2 4.9.6.2 1.6.6 2.9.9v-.1l3.3-8.2-3.8.2c-.5 0-.9-.4-.9-.9s.4-.9.9-1l10.3-.7m0-2.1h-.1l-10.1.4c-.8 0-1.6.4-2.1 1-.6.6-.8 1.4-.8 2.2v.4c-.5.4-.9.9-1.1 1.6-.6 2.2-2.1 5-3.2 5.4-.8.3-1.3 1-1.6 1.7-.3.8-.3 1.6.1 2.4.5 1.1 1.6 1.8 2.8 1.8.4 0 .9-.1 1.3-.3.6-.3 1.1-.6 1.6-1 2 .7 5.6 1.6 10.1 1.6 1.7 0 3.4-.1 5-.4.8-.1 1.5-.6 2-1.2.5-.7.7-1.5.6-2.3-.2-1.5-1.5-2.6-3.1-2.6h-.5c-1.3.2-2.6.3-4 .3-.5 0-1.1 0-1.6-.1l1.9-4.8 2.9-.1c.8 0 1.6-.4 2.1-1 .6-.6.8-1.4.8-2.2.1-1.5-1.3-2.8-3-2.8zM31 22.3c.1 0 .2.1.3.1.4 0 .7-.2.8-.6l.2-.5c.1.1.3.1.4.1H34c.5 0 .9-.4.9-.9s-.4-.9-.9-.9h-1l.1-.2c.2-.5-.1-1-.5-1.2-.5-.2-1 .1-1.2.5l-.9 2.4c-.2.5 0 1.1.5 1.2z"/>
    <path class="st1" d="M31.3 25.1c-.4 0-.9-.1-1.3-.2-1.9-.7-2.8-2.8-2.1-4.7l.9-2.4c.7-1.9 2.8-2.8 4.7-2.1.7.3 1.3.8 1.7 1.4 1.4.5 2.4 1.8 2.4 3.4 0 2-1.6 3.6-3.6 3.6h-.2c-.7.6-1.5 1-2.5 1zm1-5.1c-.1.2-.1.4-.1.6 0 .1 0 .3.1.4.3 0 .5-.1.8-.2-.3-.4-.5-.6-.8-.8z"/>
    <path class="st1" d="M25.9 21.4h1.3c0 .4.2.8.6.9.1 0 .2.1.3.1.4 0 .7-.2.8-.6l.9-2.4c.2-.5-.1-1-.5-1.2-.5-.2-1 .1-1.2.5l-.3.8h-2c-.5 0-.9.4-.9.9.1.6.5 1 1 1z"/>
    <path class="st1" d="M28.1 25.1c-.4 0-.9-.1-1.3-.2-.5-.2-.9-.4-1.2-.8-1.9-.1-3.3-1.7-3.3-3.6 0-2 1.6-3.6 3.6-3.6h.3c1-1.2 2.6-1.7 4.1-1.1 1.9.7 2.8 2.8 2.1 4.7l-.9 2.4c-.5 1.3-1.9 2.2-3.4 2.2zm-.8-5.2c.1.2.2.4.4.5 0-.2-.1-.4-.2-.6 0 0-.1 0-.2.1z"/>
    <path class="st1" d="M24.4 27.1h2.8c.4 0 .7-.3.9-.6l.8-2.7c.1-.3 0-.6-.1-.8-.2-.2-.4-.4-.7-.4h-2.8c-.4 0-.7.3-.9.6l-.8 2.8c-.1.3 0 .6.1.8.2.2.4.3.7.3zm1.5-2.6h.9l-.3.9h-.9l.3-.9z"/>
    <path class="st1" d="M27.2 29.8h-2.8c-1.1 0-2.2-.5-2.9-1.5-.7-.9-.9-2.1-.5-3.2l.8-2.7c.5-1.5 1.9-2.5 3.5-2.5H28c1.1 0 2.2.5 2.9 1.5.7.9.9 2.1.5 3.2l-.8 2.7c-.4 1.5-1.8 2.5-3.4 2.5z"/>
    <path class="st1" d="m29.5 23.3-.8 2.7c-.1.3 0 .6.1.8.2.2.4.4.7.4h2.8c.4 0 .7-.3.9-.6l.8-2.7c.1-.3 0-.6-.1-.8-.2-.2-.4-.4-.7-.4h-2.8c-.5 0-.8.2-.9.6zm1.5 1.2h.9l-.3.9h-.9l.3-.9z"/>
    <path class="st1" d="M32.3 29.8h-2.8c-1.1 0-2.2-.5-2.9-1.5-.7-.9-.9-2.1-.5-3.2l.8-2.7c.5-1.5 1.9-2.5 3.5-2.5h2.8c1.1 0 2.2.5 2.9 1.5.7.9.9 2.1.5 3.2l-.8 2.7c-.5 1.5-1.9 2.5-3.5 2.5z"/>
    <path class="st1" d="M44.4 22.7c-.2-.3-.5-.5-.8-.5h-4.5c.5-1.3.7-2.3.8-2.4.1-.5-.2-1-.7-1.1s-1 .2-1.1.7c-.4 1.8-2.1 6.8-4.8 7.7-.5.2-.7.7-.6 1.1.1.4.5.6.9.6h.3c2.1-.7 3.5-2.8 4.5-4.8H42l-.9 1.5c-.3.4-.1 1 .3 1.2.1.1.3.1.5.1.3 0 .6-.2.8-.4l1.7-2.9c.2-.2.2-.6 0-.8z"/>
    <path class="st1" d="M33.6 31.5c-1.6 0-2.9-1-3.4-2.5-.6-1.9.4-3.9 2.3-4.6.9-.3 2.4-3.2 3-5.7.5-1.9 2.4-3.1 4.3-2.7 1.6.4 2.8 1.8 2.8 3.4h1c1.3 0 2.5.7 3.1 1.8.6 1.1.6 2.5 0 3.6L45 27.7c-.6 1.1-1.8 1.8-3.1 1.8-.6 0-1.3-.2-1.8-.5-.4-.3-.8-.6-1.1-1-1.3 1.6-2.7 2.7-4.3 3.2-.4.3-.7.3-1.1.3zm3.7-12.3"/>
    <path class="st1" d="M37.7 31.5c1.1-2.3 1.9-4.6 2.2-5.4.2-.5-.1-1-.6-1.1a.8.8 0 0 0-1.1.6c-2.5 7.4-5.4 10.7-6.6 10.7-.5 0-.9.4-.9.9s.4.9.9.9c1.8 0 3.6-2 5-4.4.5 1.3 1.3 3 2.4 4.3.2.2.4.3.7.3.2 0 .4-.1.6-.2.4-.3.4-.9.1-1.3-1.5-1.6-2.5-4.4-2.7-5.3z"/>
    <path class="st1" d="M39.5 41c-1.1 0-2.1-.5-2.8-1.3-.3-.3-.5-.6-.7-1-1.4 1.4-2.9 2-4.5 2-2 0-3.6-1.7-3.6-3.7 0-1.8 1.4-3.3 3.1-3.5.7-.6 2.7-3 4.6-8.9.3-.9 1-1.7 1.8-2.1.9-.4 1.8-.5 2.8-.2.9.3 1.7 1 2.1 1.8.4.9.5 1.8.2 2.8-.3.8-.9 2.6-1.9 4.7.4 1.2 1.1 2.6 1.7 3.3.6.7.9 1.7.8 2.6-.1 1-.5 1.8-1.3 2.5-.6.6-1.4 1-2.3 1z"/>
    <path class="st1" d="M29.4 36H27l.2-.6h3c.5 0 .9-.4.9-.9s-.4-.9-.9-.9h-2.3l.2-.6h3c.5 0 .9-.4.9-.9s-.4-.9-.9-.9h-2.4l.2-.7h3c.5 0 .9-.4.9-.9s-.4-.9-.9-.9H29l.1-.1c.2-.2.3-.4.3-.6v-.2c0-.1 0-.1-.1-.2 0-.1-.1-.1-.1-.2l-.1-.1-.1-.1c-.1 0-.1-.1-.2-.1s-.1 0-.2-.1c-.3-.1-.6 0-.8.2l-.1.1c0 .1-.1.1-.1.2s0 .1-.1.2v.4c0 .1 0 .1.1.2 0 .1.1.1.1.2s.1.1.1.1h.1-1.8c.1-.3 0-.5-.2-.8-.3-.4-.9-.4-1.3-.1l-4.2 3.4c-.4.4-.4.9-.1 1.3.2.2.4.3.7.3.2 0 .4-.1.6-.2l.8-.6-1.5 4.7c-.1.5.1 1 .6 1.1h.4c.1 0 .2.1.3.1h7.3c.5 0 .9-.4.9-.9-.1-.5-.5-.9-1-.9zm-4.3 0H23l.2-.6h2.2l-.3.6zm.9-2.5h-2.2l.2-.6h2.2l-.2.6zm.8-2.3h-2.3l.2-.7H27l-.2.7z"/>
    <path class="st1" d="M22.1 40.5h-.6c-.3 0-.6-.1-.9-.2-1.9-.6-3-2.6-2.4-4.5l.4-1.2c-.2-.1-.3-.3-.5-.5-1.3-1.5-1-3.8.5-5.1l4.2-3.4c1-.8 2.3-1 3.5-.6l.6-.3.7-.6-.1.4c.5-.1 1.1-.1 1.6 0 .2 0 .4.1.6.2l.1.1c.1 0 .3.1.5.3h.1c.1.1.3.2.4.3l.2.2c.1.1.2.3.3.4h.5c2 0 3.6 1.6 3.6 3.6 0 .6-.2 1.2-.4 1.7l.1.1h-.2c-.1.2-.2.3-.3.5v.1c0 .9-.3 1.7-.8 2.3v.1c0 .9-.3 1.7-.8 2.3v.1c0 2-1.6 3.6-3.6 3.6l-7.3.1z"/>
    <path class="st0" d="m33.6 52.5-14.9.1c-.5 0-.9.5-.9 1s.4.9.9.9l14.9-.1c.5 0 .9-.5.9-1 0-.6-.4-1-.9-.9zm44-6.7-8.6.4c.6-.9 1-1.5 1.1-1.6.3-.4.1-1-.3-1.3-.4-.3-1-.1-1.3.3 0 0-.7 1.2-1.9 2.7l-6.1.3c-.5 0-.9.5-.9 1s.4.9.9.9l4.5-.2c-1.8 2.1-4.2 4.4-6.6 5.6-.5.1-.7.7-.4 1.1.2.3.5.5.8.5.1 0 .3 0 .4-.1 2-.9 4-2.5 5.6-4.2v.1c-1.8 7.2-4.3 10.3-5.6 10.1-.5-.1-.9.3-.9.7-.1.5.3.9.7.9h.3c1.4 0 2.6-1 3.9-3 .1.1.3.1.4.1l5.5-.3c.5 0 .8-.4.8-.9s-.4-.8-.9-.8l-5 .3c.2-.4.3-.7.5-1.1.2-.5.4-.9.5-1.4l5.2-.3c.5 0 .8-.4.8-.9s-.4-.8-.9-.8l-4.5.2c.5-1.4.7-2.5.7-2.6.1-.5-.2-.9-.6-1-.2 0-.4 0-.5.1.8-.9 1.6-1.8 2.3-2.6l10.2-.5c.5 0 .9-.5.9-1-.1-.3-.5-.7-1-.7zm-27.3 9.3-2.3.2c-.5.1-.9.5-.8 1 0 .5.5.8.9.8h.1l2.3-.2c.5-.1.9-.5.8-1 0-.5-.5-.9-1-.8z"/>
    <path class="st0" d="m74.4 50.4-5.6.3c-.5 0-.8.4-.8.9s.4.8.9.8l4.7-.2c-.2 3.2-1.1 9.5-3.8 9.8-.5 0-.8.4-.8.9 0 .4.4.7.8.7h.1c5-.6 5.3-11.2 5.3-12.4 0-.2-.1-.5-.3-.6 0-.1-.3-.2-.5-.2zm-24.6-6.9c-.4-.3-1-.2-1.3.3l-.9 1.2c-.3.4-.2 1 .3 1.3.2.1.3.2.5.2.3 0 .6-.1.8-.4l.8-1.3c.3-.4.2-1-.2-1.3zm6.2 2.9-15.5.6c-.4 0-.7.2-.8.6l-1.2 2.7c-.2.5 0 1 .5 1.2.1 0 .2.1.4.1.4 0 .7-.2.9-.6l.9-2.2 13.5-.5-.6 1.4c-.2.5 0 1 .5 1.2.5.2 1 0 1.2-.5l1.2-2.7c.1-.3.1-.6-.1-.9-.2-.3-.5-.4-.9-.4z"/>
    <path class="st0" d="M53.6 60.8c-3.5.5-6.6.4-9-.1l3.5-8.7 4.3-.2c.5 0 .9-.5.9-1s-.5-.9-1-.9l-10.1.4c-.5 0-.9.5-.9 1s.4.9.9.9L46 52l-3.3 8.2v.1c-1.3-.3-2.3-.6-2.9-.9 1.4-2.2 2.1-4.7 2.2-4.9.1-.5-.1-1-.6-1.1-.5-.1-1 .1-1.1.6-.4 1.5-2.1 5.8-4.3 6.8-.5.2-.7.8-.5 1.2.2.3.5.5.8.5.1 0 .3 0 .4-.1.7-.3 1.4-.9 2-1.6 1.1.5 5.1 1.9 10.6 1.9 1.5 0 3-.1 4.7-.4.5-.1.8-.6.8-1.1-.2-.1-.7-.4-1.2-.4zM31 22.3c.1 0 .2.1.3.1.4 0 .7-.2.8-.6l.2-.5c.1.1.3.1.4.1H34c.5 0 .9-.4.9-.9s-.4-.9-.9-.9h-1l.1-.2c.2-.5-.1-1-.5-1.2-.5-.2-1 .1-1.2.5l-.9 2.4c-.2.5 0 1.1.5 1.2zm-5.1-.9h1.3c0 .4.2.8.6.9.1 0 .2.1.3.1.4 0 .7-.2.8-.6l.9-2.4c.2-.5-.1-1-.5-1.2-.5-.2-1 .1-1.2.5l-.3.8h-2c-.5 0-.9.4-.9.9.1.6.5 1 1 1zm-1.5 5.7h2.8c.4 0 .7-.3.9-.6l.8-2.7c.1-.3 0-.6-.1-.8-.2-.2-.4-.4-.7-.4h-2.8c-.4 0-.7.3-.9.6l-.8 2.8c-.1.3 0 .6.1.8.2.2.4.3.7.3zm1.5-2.6h.9l-.3.9h-.9l.3-.9zm3.6-1.2-.8 2.7c-.1.3 0 .6.1.8.2.2.4.4.7.4h2.8c.4 0 .7-.3.9-.6l.8-2.7c.1-.3 0-.6-.1-.8-.2-.2-.4-.4-.7-.4h-2.8c-.5 0-.8.2-.9.6zm1.5 1.2h.9l-.3.9h-.9l.3-.9zm13.4-1.8c-.2-.3-.5-.5-.8-.5h-4.5c.5-1.3.7-2.3.8-2.4.1-.5-.2-1-.7-1.1s-1 .2-1.1.7c-.4 1.8-2.1 6.8-4.8 7.7-.5.2-.7.7-.6 1.1.1.4.5.6.9.6h.3c2.1-.7 3.5-2.8 4.5-4.8H42l-.9 1.5c-.3.4-.1 1 .3 1.2.1.1.3.1.5.1.3 0 .6-.2.8-.4l1.7-2.9c.2-.2.2-.6 0-.8z"/>
    <path class="st0" d="M37.7 31.5c1.1-2.3 1.9-4.6 2.2-5.4.2-.5-.1-1-.6-1.1a.8.8 0 0 0-1.1.6c-2.5 7.4-5.4 10.7-6.6 10.7-.5 0-.9.4-.9.9s.4.9.9.9c1.8 0 3.6-2 5-4.4.5 1.3 1.3 3 2.4 4.3.2.2.4.3.7.3.2 0 .4-.1.6-.2.4-.3.4-.9.1-1.3-1.5-1.6-2.5-4.4-2.7-5.3zM29.4 36H27l.2-.6h3c.5 0 .9-.4.9-.9s-.4-.9-.9-.9h-2.3l.2-.6h3c.5 0 .9-.4.9-.9s-.4-.9-.9-.9h-2.4l.2-.7h3c.5 0 .9-.4.9-.9s-.4-.9-.9-.9H29l.1-.1c.2-.2.3-.4.3-.6v-.2c0-.1 0-.1-.1-.2 0-.1-.1-.1-.1-.2l-.1-.1-.1-.1c-.1 0-.1-.1-.2-.1s-.1 0-.2-.1c-.3-.1-.6 0-.8.2l-.1.1c0 .1-.1.1-.1.2s0 .1-.1.2v.4c0 .1 0 .1.1.2 0 .1.1.1.1.2s.1.1.1.1h.1-1.8c.1-.3 0-.5-.2-.8-.3-.4-.9-.4-1.3-.1l-4.2 3.4c-.4.4-.4.9-.1 1.3.2.2.4.3.7.3.2 0 .4-.1.6-.2l.8-.6-1.5 4.7c-.1.5.1 1 .6 1.1h.4c.1 0 .2.1.3.1h7.3c.5 0 .9-.4.9-.9-.1-.5-.5-.9-1-.9zm-4.3 0H23l.2-.6h2.2l-.3.6zm.9-2.5h-2.2l.2-.6h2.2l-.2.6zm.8-2.3h-2.3l.2-.7H27l-.2.7z"/>
    <path class="st1" d="m46.4 32.2 8.7-.2-2.4 6.1c-.2.5 0 1 .5 1.2.1 0 .2.1.3.1.4 0 .7-.2.9-.6l2.7-6.8 9.4-.2c.5 0 .9-.4.9-.9s-.4-.9-.9-.9l-20.1.5c-.5 0-.9.4-.9.9-.1.4.4.8.9.8z"/>
    <path class="st1" d="M66.5 29.9c.5 0 .9.4.9.9s-.4.9-.9.9l-9.4.2-2.7 6.8c-.1.4-.5.6-.9.6-.1 0-.2 0-.3-.1-.5-.2-.7-.7-.5-1.2l2.4-6.1-8.7.2c-.5 0-.9-.4-.9-.9s.4-.9.9-.9l20.1-.4m0-2.2s-.1 0 0 0l-20.2.5c-1.7 0-3.1 1.5-3 3.2 0 1.7 1.4 3 3.1 3h.1l5.5-.1-1.2 3.1c-.6 1.6.2 3.4 1.8 4 .4.1.7.2 1.1.2 1.3 0 2.4-.8 2.9-2l2.1-5.5 8-.2c1.7 0 3.1-1.5 3-3.2-.2-1.7-1.5-3-3.2-3zM48.7 25c.2 0 .5-.1.7-.3L53 21c.4-.4.3-1 0-1.3-.4-.4-1-.3-1.3 0l-3.6 3.8c-.4.4-.3 1 0 1.3.2.2.4.2.6.2z"/>
    <path class="st1" d="M52.4 19.4c.2 0 .5.1.6.3.4.4.4.9 0 1.3l-3.6 3.8c-.2.2-.4.2-.7.2-.2 0-.5-.1-.6-.3-.4-.4-.4-.9 0-1.3l3.6-3.8c.2-.1.4-.2.7-.2m0-2.1c-.8 0-1.6.3-2.2.9L46.5 22c-.6.6-.9 1.4-.9 2.2 0 .8.3 1.6.9 2.2.6.6 1.3.9 2.1.9s1.6-.3 2.2-.9l3.6-3.8c.6-.6.9-1.4.9-2.2 0-.8-.3-1.6-.9-2.2-.5-.6-1.2-.9-2-.9zm1.4 10.9c.2.3.5.4.8.4l3.4-.1c.4 0 .7-.2.8-.6l2.6-6.2c.1-.3.1-.6-.1-.9-.2-.3-.5-.4-.8-.4l-3.4.1c-.4 0-.7.2-.8.6l-2.6 6.2c-.1.4 0 .7.1.9zm2.2-1.5.5-1.2h1.3l-.5 1.2H56zm3.1-4.3-.5 1.3h-1.4l.5-1.2 1.4-.1z"/>
    <path class="st1" d="M60.5 20.5c.3 0 .6.1.8.4.2.3.2.6.1.9L58.8 28c-.1.3-.5.6-.8.6l-3.4.1c-.3 0-.6-.1-.8-.4-.2-.3-.2-.6-.1-.9l2.6-6.2c.1-.3.5-.6.8-.6l3.4-.1m-3.2 3.2h1.3l.5-1.3h-1.3l-.5 1.3m-1.3 3h1.3l.5-1.2h-1.3l-.5 1.2m4.5-8.3-3.5.1c-1.2 0-2.3.8-2.8 1.9l-2.6 6.2c-.4 1-.3 2.1.3 2.9.6.8 1.5 1.3 2.5 1.3h.1l3.4-.1c1.2 0 2.3-.8 2.8-1.9l2.6-6.2c.4-1 .3-2.1-.3-2.9-.5-.9-1.4-1.3-2.5-1.3z"/>
    <path class="st1" d="M47.7 29.5c.2 0 .5-.1.7-.3l5.6-5.7c.4-.4.4-1 0-1.3-.4-.4-.9-.4-1.3 0L47.1 28c-.4.4-.4 1 0 1.3.2.1.4.2.6.2z"/>
    <path class="st1" d="M53.4 21.9c.2 0 .5.1.6.3.4.4.4.9 0 1.3l-5.6 5.7c-.2.2-.4.3-.7.3-.2 0-.5-.1-.6-.3-.4-.4-.4-.9 0-1.3l5.6-5.7c.2-.2.4-.3.7-.3m0-2.1c-.8 0-1.6.3-2.2.9l-5.6 5.7c-.6.6-.9 1.4-.9 2.2 0 .8.3 1.6.9 2.2.6.6 1.3.9 2.2.9.8 0 1.6-.3 2.2-.9l5.6-5.7c.6-.6.9-1.4.9-2.2 0-.8-.3-1.6-.9-2.2-.7-.6-1.4-.9-2.2-.9z"/>
    <path class="st1" d="m51.6 26.9-1.2 1.2c-.4.4-.3 1 0 1.3.2.2.4.3.6.3.2 0 .5-.1.7-.3l1.2-1.2c.4-.4.3-1 0-1.3-.3-.4-.9-.4-1.3 0z"/>
    <path class="st1" d="M52.3 26.6c.2 0 .5.1.6.3.4.4.4.9 0 1.3l-1.2 1.2c-.2.2-.4.3-.7.3-.2 0-.5-.1-.6-.3-.4-.4-.4-.9 0-1.3l1.2-1.2c.2-.2.4-.3.7-.3m0-2.2c-.8 0-1.7.3-2.2 1l-1.2 1.2c-.6.6-.9 1.4-.9 2.2 0 .8.4 1.6 1 2.2.6.6 1.3.9 2.1.9s1.7-.3 2.2-1l1.2-1.2c.6-.6.9-1.4.9-2.2 0-.8-.4-1.6-1-2.2-.6-.6-1.3-.9-2.1-.9zm12.8 2-1.2 1.2c-.4.4-.3 1 0 1.3.2.2.4.3.6.3.2 0 .5-.1.7-.3l1.2-1.2c.4-.4.3-1 0-1.3-.4-.4-1-.4-1.3 0z"/>
    <path class="st1" d="M65.7 26.1c.2 0 .5.1.6.3.4.4.4.9 0 1.3l-1.2 1.2c-.2.2-.4.3-.7.3-.2 0-.5-.1-.6-.3-.4-.4-.4-.9 0-1.3l1.2-1.2c.3-.2.5-.3.7-.3m0-2.2c-.8 0-1.7.3-2.2 1l-1.2 1.2c-.6.6-.9 1.4-.9 2.2 0 .8.4 1.6 1 2.2.6.6 1.3.9 2.1.9s1.7-.3 2.2-1l1.2-1.2c.6-.6.9-1.4.9-2.2 0-.8-.4-1.6-1-2.2-.5-.6-1.3-.9-2.1-.9zm-4.3.5c.2.2.4.3.6.3.2 0 .5-.1.7-.3l3.6-3.8c.4-.4.3-1 0-1.3-.4-.4-1-.3-1.3 0l-3.6 3.8c-.4.3-.4.9 0 1.3z"/>
    <path class="st1" d="M65.7 19c.2 0 .5.1.6.3.4.4.4.9 0 1.3l-3.6 3.8c-.2.2-.4.3-.7.3-.2 0-.5-.1-.6-.3-.4-.4-.4-.9 0-1.3l3.6-3.8c.2-.2.4-.3.7-.3m0-2.2c-.8 0-1.6.3-2.2.9l-3.6 3.8c-.6.6-.9 1.4-.9 2.2 0 .8.3 1.6.9 2.2.6.6 1.3.9 2.1.9s1.6-.3 2.2-.9l3.6-3.8c.6-.6.9-1.4.9-2.2 0-.8-.3-1.6-.9-2.2-.6-.5-1.3-.9-2.1-.9z"/>
    <path class="st1" d="M60.3 27.5c-.4.4-.4.9 0 1.3.2.2.4.3.6.3.2 0 .5-.1.7-.3l5.6-5.7c.4-.4.4-.9 0-1.3s-.9-.4-1.3 0l-5.6 5.7z"/>
    <path class="st1" d="M66.6 21.5c.2 0 .5.1.6.3.4.4.4.9 0 1.3l-5.6 5.7c-.2.2-.4.3-.7.3-.2 0-.5-.1-.6-.3-.4-.4-.4-.9 0-1.3l5.6-5.7c.3-.2.5-.3.7-.3m0-2.2c-.8 0-1.6.3-2.2.9L58.8 26c-.6.6-.9 1.4-.9 2.2 0 .8.3 1.6.9 2.2.6.6 1.3.9 2.2.9.8 0 1.6-.3 2.2-.9l5.6-5.7c.6-.6.9-1.4.9-2.2 0-.8-.3-1.6-.9-2.2-.6-.6-1.3-1-2.2-1zm-7.4 0c0 .1.1.1.1.2s.1.1.1.1l.1.1c.1 0 .1.1.2.1s.1 0 .2.1h.4c.1 0 .1 0 .2-.1.1 0 .1-.1.2-.1s.1-.1.1-.1l.1-.1c0-.1.1-.1.1-.2s0-.1.1-.2v-.4c0-.1 0-.1-.1-.2 0-.1-.1-.1-.1-.2s-.1-.1-.1-.1c-.3-.3-1-.3-1.3 0-.2.2-.3.4-.3.7v.2c-.1.1-.1.1 0 .2z"/>
    <path class="st1" d="M60 18c.2 0 .5.1.7.3l.1.1c0 .1.1.1.1.2s0 .1.1.2v.4c0 .1 0 .1-.1.2 0 .1-.1.1-.1.2s-.1.1-.1.1l-.1.1c-.1 0-.1.1-.2.1s-.1 0-.2.1h-.4c-.1 0-.1 0-.2-.1-.1 0-.1-.1-.2-.1s-.1-.1-.1-.1l-.1-.1c0-.1-.1-.1-.1-.2s0-.1-.1-.2V19c0-.2.1-.5.3-.7.2-.2.5-.3.7-.3m0-2.1c-.8 0-1.6.3-2.2.9-.6.6-.9 1.4-.9 2.2 0 .2 0 .4.1.6 0 .2.1.4.2.6v.2c0 .1.1.3.2.4.1.2.2.3.4.5.1.1.3.3.5.4h.2c.1.1.2.1.3.2h.2c.2.1.3.1.5.1s.4.1.6.1c.2 0 .4 0 .6-.1.1 0 .3-.1.5-.1h.2c.1-.1.2-.1.3-.2h.2c.2-.1.3-.2.5-.4.1-.1.3-.3.4-.5.1-.2.2-.3.3-.5v-.2c.1-.2.1-.3.1-.5s.1-.4.1-.6c0-.2 0-.4-.1-.6 0-.2-.1-.3-.1-.5v-.2c-.1-.2-.2-.3-.2-.4-.1-.2-.2-.3-.4-.5-.9-.6-1.7-.9-2.5-.9zm-10.7 18s-.6 2.2-2 2c-.5-.1-1 .3-1.1.8-.1.5.3 1 .8 1.1h.5c2.1 0 3.2-2.1 3.6-3.3.1-.5-.1-1-.6-1.1-.6-.3-1.1 0-1.2.5z"/>
    <path class="st1" d="M50.2 33.2h.3c.5.1.8.6.6 1.1-.3 1.2-1.5 3.3-3.6 3.3H47c-.5-.1-.9-.6-.8-1.1.1-.5.5-.8.9-.8h.3c1.2 0 1.8-2 1.8-2 .2-.2.6-.5 1-.5m0-2.2c-1.4 0-2.6.9-3 2.2 0 .1-.1.3-.2.4-1.5 0-2.7 1.1-3 2.6-.3 1.7.9 3.3 2.6 3.5.3 0 .6.1.8.1 3 0 5-2.5 5.7-4.9.5-1.6-.5-3.3-2.1-3.8-.3 0-.6-.1-.8-.1zm12.7 3.2c.1-.5-.1-1-.6-1.1-.5-.1-1 .1-1.1.6 0 0-.7 2.2-2 2-.5-.1-1 .3-1.1.8-.1.5.3 1 .8 1.1h.5c2-.1 3.1-2.2 3.5-3.4z"/>
    <path class="st1" d="M62 33h.3c.5.1.8.6.6 1.1-.3 1.2-1.5 3.3-3.6 3.3h-.5c-.5-.1-.9-.6-.8-1.1.1-.5.5-.8.9-.8h.3c1.2 0 1.8-2 1.8-2 .2-.2.6-.5 1-.5m0-2.2c-1.4 0-2.6.9-3 2.2 0 .1-.1.3-.2.4-1.5 0-2.7 1.1-2.9 2.6-.3 1.7.9 3.3 2.6 3.5.3 0 .6.1.8.1 3 0 5-2.5 5.7-4.9.5-1.6-.5-3.3-2.1-3.8-.3 0-.6-.1-.9-.1z"/>
    <path class="st0" d="m46.4 32.2 8.7-.2-2.4 6.1c-.2.5 0 1 .5 1.2.1 0 .2.1.3.1.4 0 .7-.2.9-.6l2.7-6.8 9.4-.2c.5 0 .9-.4.9-.9s-.4-.9-.9-.9l-20.1.5c-.5 0-.9.4-.9.9-.1.4.4.8.9.8zm2.3-7.2c.2 0 .5-.1.7-.3L53 21c.4-.4.3-1 0-1.3-.4-.4-1-.3-1.3 0l-3.6 3.8c-.4.4-.3 1 0 1.3.2.2.4.2.6.2zm5.1 3.2c.2.3.5.4.8.4l3.4-.1c.4 0 .7-.2.8-.6l2.6-6.2c.1-.3.1-.6-.1-.9-.2-.3-.5-.4-.8-.4l-3.4.1c-.4 0-.7.2-.8.6l-2.6 6.2c-.1.4 0 .7.1.9zm2.2-1.5.5-1.2h1.3l-.5 1.2H56zm3.1-4.3-.5 1.3h-1.4l.5-1.2 1.4-.1zm-11.4 7.1c.2 0 .5-.1.7-.3l5.6-5.7c.4-.4.4-1 0-1.3-.4-.4-.9-.4-1.3 0L47.1 28c-.4.4-.4 1 0 1.3.2.1.4.2.6.2zm3.9-2.6-1.2 1.2c-.4.4-.3 1 0 1.3.2.2.4.3.6.3.2 0 .5-.1.7-.3l1.2-1.2c.4-.4.3-1 0-1.3-.3-.4-.9-.4-1.3 0zm13.5-.5-1.2 1.2c-.4.4-.3 1 0 1.3.2.2.4.3.6.3.2 0 .5-.1.7-.3l1.2-1.2c.4-.4.3-1 0-1.3-.4-.4-1-.4-1.3 0zm-3.7-2c.2.2.4.3.6.3.2 0 .5-.1.7-.3l3.6-3.8c.4-.4.3-1 0-1.3-.4-.4-1-.3-1.3 0l-3.6 3.8c-.4.3-.4.9 0 1.3zm-1.1 3.1c-.4.4-.4.9 0 1.3.2.2.4.3.6.3.2 0 .5-.1.7-.3l5.6-5.7c.4-.4.4-.9 0-1.3s-.9-.4-1.3 0l-5.6 5.7zm-1.1-8.2c0 .1.1.1.1.2s.1.1.1.1l.1.1c.1 0 .1.1.2.1s.1 0 .2.1h.4c.1 0 .1 0 .2-.1.1 0 .1-.1.2-.1s.1-.1.1-.1l.1-.1c0-.1.1-.1.1-.2s0-.1.1-.2v-.4c0-.1 0-.1-.1-.2 0-.1-.1-.1-.1-.2s-.1-.1-.1-.1c-.3-.3-1-.3-1.3 0-.2.2-.3.4-.3.7v.2c-.1.1-.1.1 0 .2z"/>
    <path class="st0" d="M49.3 33.9s-.6 2.2-2 2c-.5-.1-1 .3-1.1.8-.1.5.3 1 .8 1.1h.5c2.1 0 3.2-2.1 3.6-3.3.1-.5-.1-1-.6-1.1-.6-.3-1.1 0-1.2.5zm13.6.3c.1-.5-.1-1-.6-1.1-.5-.1-1 .1-1.1.6 0 0-.7 2.2-2 2-.5-.1-1 .3-1.1.8-.1.5.3 1 .8 1.1h.5c2-.1 3.1-2.2 3.5-3.4z"/>
</svg>
