<svg xmlns="http://www.w3.org/2000/svg" width="777.6" height="471.9" style="overflow:visible;enable-background:new 0 0 777.6 471.9" xml:space="preserve">
    <style>
        .st7{fill:url(#SVGID_7_)}.st8{fill:url(#SVGID_8_)}.st9{fill:url(#SVGID_9_)}.st10{fill:url(#SVGID_10_)}.st11{fill:url(#SVGID_11_)}.st12{fill:url(#SVGID_12_)}
    </style>
    <path d="M773.6 320.2c3.7-5 4.9-11.4 3.4-18.1-3-13.4-15.8-24-29.3-24h-1.2l-57.7 2.8c-.6-9.6-6.9-19.4-16.6-24.5-4.2-2.2-8.8-3.4-13.2-3.4-9 0-16.5 4.8-19.7 12.6 0 .1-3 7.3-8.1 18.1l-48.4 2.4c-1.5.1-2.9.3-4.3.6l-1.3-.5c-21.4-31.1-55-27.7-55-27.7-73.1-1.4-24-56.6-24-56.6 39.3-47.5-11.6-72-24.4-77.2l32.7-1.8c5.9-.3 10.8-2.7 14.3-6.4 4.9 3.3 10.8 5.2 16.7 5.4h.9c14.4 0 25.4-9.9 25.6-23 .1-6.8-2.8-13.7-8-19.1-5.7-5.8-13.6-9.3-21.8-9.5h-.9c-8.1 0-15.1 3.1-19.7 8.1-5-3.7-11-5.9-17.2-5.9h-.6L507 61.7c4.4-4.3 6.5-10.4 6-17.1-.6-6.7-3.7-13.2-8.9-18.4-5.8-5.7-13.4-9-20.9-9-5.9 0-11.3 2.1-15.2 5.9l-8.8 8.6c-.6-9.3-6.3-18.7-15.4-23.9-4.5-2.6-9.5-4-14.3-4-9.1 0-16.7 5-19.8 12.9l-19.1 49.6c-3.9-16.9-12.9-42.6-31.3-43.2-25.1-.8-27.7 13.5-26 24.8v.1c1.1 7.1 3.9 13 3.9 13l-32 10.6c4.5-6.4 5.3-15.4 1.1-24.1-5.1-10.6-16-17.8-27.1-17.8-2.5 0-5 .4-7.2 1.1-10.9 3.5-42.4 13.1-58.1 15l-.8.1c-1.1.1-2.2.4-3.3.7-5.7-7-14.3-11.6-23.1-11.6h-1.5l-11.7.7c.7-2.2 1.2-4.5 1.2-7 .1-6.8-2.8-13.7-8-19.1C161 3.7 153 .2 144.9 0h-.9c-14.4 0-25.4 9.9-25.6 23-.1 5.4 1.8 11 5.2 15.7l-29.9 1.8c-13.7.8-22.3 12.8-19.1 26.7 1 4.4 3.1 8.5 5.9 12l-6.8.4c-13.7.8-22.2 12.8-19 26.6 1.2 5.2 3.9 10 7.6 13.9-11.8 2.4-18.7 13.5-15.8 26.2.4 1.6.9 3.2 1.6 4.7-3.9 2.6-6.8 6.5-8.1 11.2-1.6 5.4-7.4 16.6-15 16.6-.3 0-.6 0-1-.1-.9-.1-1.8-.1-2.7-.1-12.9 0-22 9.7-21.2 22.5.9 13.8 13.1 26.2 27.1 27.7 2.2.2 4.5.4 6.7.4 11.7 0 22.3-3.5 31.3-10.1 3 6.3 8.3 11.9 15.2 15.2 3.9 1.8 8 2.8 12 2.8 7.7 0 14.2-3.5 17.9-9.3 14.6-2 12.7 39.8 12.7 39.8-13.7.8-22.3 12.8-19.1 26.7 1 4.4 3.1 8.5 5.9 12l-6.8.4c-6.6.4-12.3 3.4-15.9 8.4-3.6 5-4.7 11.5-3.2 18.2 1.2 5.2 3.9 10 7.6 13.9-11.8 2.4-18.7 13.5-15.8 26.2.4 1.6.9 3.2 1.5 4.7-3.9 2.6-6.8 6.5-8.1 11.3-1.6 5.4-7.4 16.6-15 16.6-.3 0-.6 0-1-.1-.9-.1-1.8-.1-2.7-.1-12.9 0-22 9.7-21.2 22.5.9 13.8 13.1 26.2 27.1 27.7 2.3.2 4.5.4 6.7.4 11.7 0 22.3-3.5 31.3-10.1 3 6.3 8.3 11.9 15.2 15.2 3.9 1.8 8 2.8 12 2.8 9.5 0 17.2-5.2 20.1-13.7l10.2-29.6c4.6 2.8 9.8 4.4 15.2 4.5h.4l-3.5 8.2c-5 12 1.6 27.4 14.8 34.5 4.3 2.3 8.9 3.5 13.4 3.5 8.9 0 16.4-4.7 19.6-12.4l2.5-5.9c2.9 5.6 7.5 10.5 13.6 13.7 4.2 2.2 8.7 3.3 13.1 3.3 9 0 16.5-4.8 19.7-12.6l4.5-11.3c1 1.4 2.2 2.7 3.5 4 5.3 5.1 11.9 8.2 18.7 8.6 1.4.1 2.9.2 4.3.2 12.7 0 24.8-4.2 36.1-12.3 22.9-14.9 36.4-4 36.4-4 3.2 6.4 8.6 11.6 15.1 14.6 3.8 1.8 7.9 2.7 11.8 2.7 7.4 0 13.6-3.2 17.4-8.5 2.5 2.4 5.4 4.4 8.6 5.9 3.8 1.8 7.9 2.7 11.8 2.7 6.3 0 11.8-2.4 15.7-6.4h.2c8.8-11.4 23.5-3.3 23.5-3.3 5.5 8.7 19.7 13.4 19.7 13.4l.2-.4c2.1.5 4.3.8 6.5.9h.9c14.4 0 25.4-9.9 25.6-23 .1-4.4-1.2-8.9-3.5-13 3-1.9 5.5-4.6 7.1-7.8.8 1.3 1.7 2.6 2.7 3.9 4.7 5.6 11 9.5 17.8 10.8 2.7.5 5.3.9 8 1.1.8 6.6 4 13 9.3 17.9 5.3 5.1 12 8.1 18.7 8.6 6.3.4 12.5.6 18.6.6 32.6 0 61.4-6.1 85.5-18.3 18.5 8.7 39.2 14.9 61.6 18.5 1.4.2 2.8.3 4.1.3 12.4 0 21.3-8.9 21.2-21.2-.1-13.7-11.7-26.7-25.8-28.9-5.9-.9-11.6-2.1-17.1-3.5 22.2-26.9 27-54.1 27.4-57.2 1.2-7.9-1.7-16.5-7.9-23.1-.6-.6-1.1-1.2-1.7-1.7l10.4-.5c6.7 0 12.4-2.9 16.1-7.9zM536.3 108.8h-.5 1-.5zm-.7-25.5h.5-1 .5zm-36.8 2.2h.3-1 .7zm-13.3-55.3h.3-.3c-.1 0-.1 0 0 0zM22.3 191.8c.4 0 .8-.1 1.1-.1-.3 0-.7.1-1.1.1zm34-29.3.1-.1c-.1 0-.1 0-.1.1zM51.5 419c.4 0 .8-.1 1.1-.1-.3 0-.7.1-1.1.1zm677.9-85.3h.5-1.1.6zM661.2 266h.1-.4.3zM431.8 16.7h.2-.5.3zM281.5 42.6s-.1 0 0 0c-.1 0-.1 0 0 0zm-81.6 10.5c-.1-.1-.2-.3-.3-.4 0 .1.1.3.3.4zm-11-5.3h.3-1 .7zM146.2 13h.5-1 .5zm19.4 399.7h-.5 1-.5zm583.8-121.6h.9c-.3 0-.6-.1-.9 0z" style="fill:#fff"/>
    <linearGradient id="SVGID_1_" gradientUnits="userSpaceOnUse" x1="-52.809" y1="36.265" x2="-31.855" y2="15.311" gradientTransform="matrix(1 0 .1714 1 184.45 0)">
        <stop offset="0" style="stop-color:#f16768"/>
        <stop offset="1" style="stop-color:#eae735"/>
    </linearGradient>
    <path d="M161.5 26.2c.1-7.1-6.5-13-14.8-13.2-8.3-.2-15 5.3-15.2 12.3s6.5 13 14.8 13.2c8.3.3 15.1-5.2 15.2-12.3z" style="fill:url(#SVGID_1_)"/>
    <linearGradient id="SVGID_2_" gradientUnits="userSpaceOnUse" x1="324.548" y1="106.536" x2="345.502" y2="85.582" gradientTransform="matrix(1 0 .1714 1 184.45 0)">
        <stop offset="0" style="stop-color:#f16768"/>
        <stop offset="1" style="stop-color:#eae735"/>
    </linearGradient>
    <path d="M550.9 96.5c.1-7.1-6.5-13-14.8-13.2-8.3-.2-15 5.3-15.2 12.3s6.5 13 14.8 13.2c8.3.3 15.1-5.2 15.2-12.3z" style="fill:url(#SVGID_2_)"/>
    <linearGradient id="SVGID_3_" gradientUnits="userSpaceOnUse" x1="222.722" y1="449.55" x2="243.677" y2="428.596" gradientTransform="matrix(1 0 .1714 1 184.45 0)">
        <stop offset="0" style="stop-color:#f16768"/>
        <stop offset="1" style="stop-color:#eae735"/>
    </linearGradient>
    <path d="M507.9 439.5c.1-7.1-6.5-13-14.8-13.2-8.3-.2-15 5.3-15.2 12.3-.1 7.1 6.5 13 14.8 13.2 8.3.3 15.1-5.2 15.2-12.3z" style="fill:url(#SVGID_3_)"/>
    <linearGradient id="SVGID_4_" gradientUnits="userSpaceOnUse" x1="-88.088" y1="183.301" x2="-68.114" y2="163.327" gradientTransform="matrix(1 0 .1714 1 184.45 0)">
        <stop offset="0" style="stop-color:#f16768"/>
        <stop offset="1" style="stop-color:#eae735"/>
    </linearGradient>
    <path d="M150.3 173.7c.1-6.7-6.2-12.4-14.1-12.6-7.9-.2-14.3 5-14.5 11.8-.1 6.7 6.2 12.4 14.1 12.6 7.9.2 14.4-5 14.5-11.8z" style="fill:url(#SVGID_4_)"/>
    <linearGradient id="SVGID_5_" gradientUnits="userSpaceOnUse" x1="-62.556" y1="271.258" x2="-41.602" y2="250.304" gradientTransform="matrix(1 0 .1714 1 184.45 0)">
        <stop offset="0" style="stop-color:#f16768"/>
        <stop offset="1" style="stop-color:#eae735"/>
    </linearGradient>
    <path d="M192 261.2c.1-7.1-6.5-13-14.8-13.2-8.3-.2-15 5.3-15.2 12.3-.1 7.1 6.5 13 14.8 13.2 8.3.3 15.1-5.2 15.2-12.3z" style="fill:url(#SVGID_5_)"/>
    <linearGradient id="SVGID_6_" gradientUnits="userSpaceOnUse" x1="-97.836" y1="410.495" x2="-77.862" y2="390.522" gradientTransform="matrix(1 0 .1714 1 184.45 0)">
        <stop offset="0" style="stop-color:#f16768"/>
        <stop offset="1" style="stop-color:#eae735"/>
    </linearGradient>
    <path d="M179.5 400.9c.1-6.7-6.2-12.4-14.1-12.6-7.9-.2-14.3 5-14.5 11.8-.1 6.7 6.2 12.4 14.1 12.6 7.9.2 14.4-5 14.5-11.8z" style="fill:url(#SVGID_6_)"/>
    <path d="m749.4 291.1-79 3.9c2.8-6.2 4.4-10.1 4.6-10.6 2.4-5.8-.9-13.3-7.3-16.7-6.4-3.4-13.5-1.4-15.9 4.4-.1.2-4.1 10.1-11.1 24.3l-55 2.7c-6.7.3-10.9 6-9.4 12.8 1.4 6.5 7.7 11.6 14.2 11.6h.6l36.4-1.8c-3.6 6.5-7.6 13.3-11.8 19.9-25.6 40.3-50.8 61.3-69.1 57.6-6.8-1.4-12.5 2.9-12.8 9.5-.2 6.6 5.1 13 11.9 14.4 3.1.6 6.3.9 9.5.9 22.2 0 44.7-15.5 68.3-47.1 6.2 10.1 16.9 24.4 34.3 37.9-22.1 9.6-48.9 13.3-80.4 11.2-6.8-.5-11.7 4.6-11 11.3.7 6.7 6.8 12.5 13.6 13 6.1.4 12 .6 17.7.6 37.4 0 65.2-8.5 85.6-19.9 17 8.8 37.9 16.2 63.6 20.2.7.1 1.3.2 2 .2 5.9 0 10.3-4.3 10.3-10.2-.1-6.6-5.7-12.9-12.5-14-16.1-2.5-30-6.5-41.8-11.3 4.4-3.9 8.3-7.8 11.6-11.6 22.7-26 27.1-53.4 27.3-54.6.6-3.8-.8-8-3.8-11.2-3-3.2-7.2-5-11.1-4.8l-80.2 4.2c3.5-6.2 6.7-12.2 9.6-17.8l96.5-4.7c6.7-.3 10.9-6 9.4-12.8-1.6-6.7-8.2-11.9-14.8-11.5zm-53.6 96.4c-5 5.6-10.5 10.7-16.6 15.1-22.5-14.8-33.3-31.6-37.5-39.6l72.1-3.8c-3.6 8.2-9.2 18.4-18 28.3zM73.5 157h.7l19.4-1.2-17.4 50.7c-2.1 6 1.6 13.3 8.1 16.4 1.9.9 3.9 1.4 5.8 1.4 4.4 0 8.3-2.4 9.7-6.6l21.8-63.5 44.1-2.7c6.7-.4 10.8-6.2 9.2-12.9-1.6-6.7-8.2-11.8-14.9-11.4l-29.8 1.8 5.2-15.2 38.4-2.3c6.7-.4 10.8-6.2 9.2-12.9-1.5-6.4-7.5-11.3-13.8-11.4l1.5-4.2c1-2.9.7-6.1-.6-9.1l23.6-1.4c6.7-.4 10.8-6.2 9.2-12.9-1.6-6.7-8.2-11.8-14.9-11.4l-91.5 5.6c-6.7.4-10.8 6.2-9.2 12.9 1 4.4 4.2 8 8.1 10l-.6 1.7c-1.6 4.4-.1 9.5 3.4 13.2l-21.6 1.3c-6.7.4-10.8 6.2-9.2 12.9 1.5 6.5 7.7 11.5 14.1 11.5h.7l25.1-1.5-5.2 15.2-33.7 2.1c-6.7.4-10.8 6.2-9.2 12.9 1.6 6 7.9 11 14.3 11zm44.9-67.5 2.4-6.8c.7-1.9.8-4 .4-6l24.7-1.5-1.1 3c-1.2 3.3-.6 7 1.2 10.2L118.2 90c0-.2.1-.3.2-.5zm236.7-15.8c2.1 5.9 7.9 10 13.7 10 .7 0 1.4-.1 2.1-.2 6.4-1.2 9.8-7.5 7.4-14.1l-8-23c-2.3-6.6-9.4-11-15.8-9.9-6.4 1.2-9.8 7.5-7.4 14.1l8 23.1zm100.2.2c2.9 2.9 6.6 4.4 10.1 4.4 2.8 0 5.4-.9 7.3-2.8L497 51.7c4.4-4.3 3.8-12-1.4-17.2-5.2-5.2-13-5.8-17.4-1.5l-24.3 23.8c-4.5 4.3-3.9 12 1.4 17.1z"/>
    <path d="M26.3 216.1c1.8.2 3.6.3 5.3.3 34.3 0 44.6-37.1 45.1-38.8 1.6-6.1-2.4-13.3-9-16-6.6-2.7-13.3.1-15 6.2-.1.3-7.5 26.2-27.9 24.1-6.8-.7-12 4.1-11.6 10.8.4 6.6 6.3 12.6 13.1 13.4zM154.2 230c2.1 1.2 4.4 1.7 6.5 1.7 4.2 0 7.9-2.1 9.5-6l41.8-99.6c.4 0 .9.1 1.3.1h.7l65-4 76-4.2c-5.2 10.7-12.9 25.1-23 39.2-17 23.9-44.4 51.9-77.7 49.4-6.8-.5-11.8 4.5-11.1 11.3.7 6.7 6.7 12.6 13.5 13.1 2 .1 4 .2 5.9.2 71.2 0 113.7-94.8 121.8-114.8l27.1-1.5-20.5 59.5c-1.3 3.1-5.4 15 2.4 26.5 6.1 9 16.6 14 31.4 14.9 1.3.1 2.6.1 3.8.1 39.3 0 64-37.7 65-39.3 3.3-5.2 1.2-12.9-4.7-17.1-5.9-4.3-13.5-3.5-16.9 1.7-.1.1-5.6 8.5-14.9 16.5-8 6.8-20.5 14.7-35.1 13.8-5-.3-7.6-1.2-8.6-1.7 0-.8.3-2 .6-2.9l.2-.3 25.1-73.2 64.2-3.5c6.7-.4 10.8-6.1 9.3-12.8-1.5-6.7-8.1-11.9-14.8-11.5l-73.6 4.1 21-54.4c2.2-5.7-.6-13-6.7-16.5-6.6-3.8-14.2-1.8-16.5 4.3l-26.1 67.7c-.1.2-.1.3-.2.5L278 97.7h-.5l-4 .2-19.8 1.1c-.6 0-1.1.1-1.6.2l-29.6 1.8 8-19.1c22.8-3.9 57-15 58.6-15.5 6.1-2 8.5-8.8 5.4-15.2-3.1-6.4-10.5-10-16.6-8.1-.4.1-40.4 13.1-60.3 15.4h-.2c-3.6.4-6.5 2.5-7.9 5.7l-62.6 149c-2.3 5.9.9 13.4 7.3 16.8z"/>
    <path d="M241.5 133.6c-6.4-3.4-13.5-1.3-15.9 4.5l-29.9 74.1c-2.4 5.8.9 13.3 7.4 16.6 2.1 1.1 4.3 1.6 6.3 1.6 4.2 0 8-2.2 9.5-6.1l29.9-74.1c2.4-5.8-.9-13.3-7.3-16.6zm.9 219.8h.7l69.2-4.2c6.7-.4 10.8-6.2 9.2-12.9-1.6-6.7-8.2-11.8-14.9-11.4l-55 3.4 8-19.1c22.8-3.9 57-15 58.6-15.5 6.1-2 8.5-8.8 5.4-15.2-3.1-6.4-10.5-10-16.6-8.1-.4.1-40.4 13.1-60.3 15.4h-.2c-3.6.4-6.5 2.5-7.9 5.7l-62.6 149c-2.4 5.8.8 13.3 7.2 16.7 2.1 1.2 4.4 1.7 6.5 1.7 4.2 0 7.9-2.1 9.5-6l41.8-99.6c.6.1 1 .1 1.4.1z"/>
    <path d="M194.9 378.6c6.7-.4 10.8-6.2 9.2-12.9-1.6-6.7-8.2-11.8-14.9-11.4l-29.8 1.8 5.2-15.2 38.4-2.3c6.7-.4 10.8-6.2 9.2-12.9-1.5-6.4-7.5-11.3-13.8-11.4l1.5-4.2c1-2.9.7-6.1-.6-9.1l23.6-1.4c6.7-.4 10.8-6.2 9.2-12.9-1.6-6.7-8.2-11.8-14.9-11.4l-91.5 5.6c-6.7.4-10.8 6.2-9.2 12.9 1 4.4 4.2 8 8.1 10l-.6 1.7c-1.6 4.4-.1 9.5 3.4 13.2l-21.6 1.3c-6.7.4-10.8 6.2-9.2 12.9 1.5 6.5 7.7 11.5 14.1 11.5h.7l25.1-1.5-5.2 15.2-33.7 2.1c-6.7.4-10.8 6.2-9.2 12.9 1.5 6.5 7.7 11.5 14.1 11.5h.7l19.4-1.2-17.4 50.7c-2.1 6 1.6 13.3 8.1 16.4 1.9.9 3.9 1.4 5.8 1.4 4.4 0 8.3-2.4 9.7-6.6l21.8-63.5 44.3-3.2zm-47.3-61.9 2.4-6.8c.7-1.9.8-4 .4-6l24.7-1.5-1.1 3c-1.2 3.3-.6 7 1.2 10.2l-27.9 1.7c.1-.3.2-.5.3-.6z"/>
    <path d="M96.8 388.7c-6.6-2.7-13.3.1-15 6.3-.1.3-7.6 26.2-27.9 24.1-6.8-.7-12 4.1-11.6 10.8.4 6.7 6.3 12.7 13.1 13.4 1.8.2 3.6.3 5.3.3 34.3 0 44.6-37.1 45.1-38.8 1.7-6.2-2.3-13.4-9-16.1zm173.9-27.9c-6.4-3.4-13.5-1.3-15.9 4.5l-29.9 74.1c-2.4 5.8.9 13.3 7.4 16.6 2.1 1.1 4.3 1.6 6.3 1.6 4.2 0 8-2.2 9.5-6.1l29.9-74.1c2.4-5.8-.9-13.3-7.3-16.6zm175.1-82.2c-3-3.6-7.5-5.8-11.7-5.6l-23 1c-6.7.3-10.9 6-9.5 12.7 1.4 6.7 8 11.9 14.7 11.7l2.4-.1L374.8 430c-2 6 1.7 13.3 8.2 16.4 1.9.9 3.9 1.3 5.7 1.3 4.5 0 8.3-2.5 9.7-6.7l50-150.3c1.4-3.9.3-8.5-2.6-12.1z"/>
    <path d="M378.1 380.5h.4c6.5 0 11.1-5.2 10.2-11.8-.9-6.7-7.2-12.4-13.9-12.6l-4.5-.1c2-5.2 3.8-10.3 5.5-15.2l15.3.5h.4c6.5 0 11.1-5.2 10.2-11.8-.9-6.7-7.2-12.4-13.9-12.6l-4.4-.1c4.1-14.1 6.3-23.8 6.4-24.6 1.4-6.3-2.9-13.3-9.6-15.8-6.7-2.5-13.2.6-14.6 6.9-.1.4-8.3 37.2-23.6 73.1-25.1 59-47.4 66.5-58.4 65.8-6.8-.5-11.8 4.6-11.1 11.3.7 6.7 6.7 12.6 13.5 13 1.1.1 2.2.1 3.3.1 26.3 0 50-22.4 70.8-66.6l18 .5zm168.2-102c-3-3.5-7.3-5.6-11.6-5.4l-23 1c-6.7.3-10.9 6-9.5 12.7 1.4 6.7 8 11.9 14.7 11.7l3.1-.1-30.5 103.5c-1.8 6.1 2.1 13.4 8.7 16.2 1.8.8 3.6 1.1 5.3 1.1 4.6 0 8.5-2.6 9.8-7l35.9-121.7c1.1-3.9 0-8.4-2.9-12z"/>
    <path d="M489.3 368.9c-.9-6.7-7.2-12.4-13.9-12.6l-10.8-.4 5.1-15.4c.6.1 1.2.2 1.8.2l20.2.7h.4c6.5 0 11.1-5.2 10.2-11.8-.9-6.7-7.2-12.4-13.9-12.6l-10.7-.4 8.7-26c2-6-1.7-13.3-8.2-16.4-6.5-3-13.4-.6-15.4 5.4l-50 150.3c-2 6 1.7 13.3 8.2 16.4 1.9.9 3.9 1.3 5.7 1.3 4.5 0 8.3-2.5 9.7-6.7l20.4-61.2c.6.1 1.2.2 1.8.2l20.2.7h.4c6.5.1 11-5.1 10.1-11.7z"/>
</svg>
