<svg xmlns="http://www.w3.org/2000/svg" width="326.2" height="82.2" style="overflow:visible;enable-background:new 0 0 326.2 82.2" xml:space="preserve">
    <path d="M20.8 12.4c3 1.9 5 3.4 5.9 4.4.6.4 1 1 1.1 1.8 0 .7-.2 1.3-.5 1.7-.4.5-1 .9-1.8 1-.5 0-1-.1-1.4-.5-1.9-1.6-3.9-3.2-6.1-4.6-.9-.5-1.4-1.1-1.4-1.8 0-.8.2-1.5.7-1.9.4-.4 1-.6 1.8-.6.5 0 1.1.2 1.7.5zm5.7 11.5c.7.3 1 1 1 2-.1.6-.4 1.5-.8 2.6-.6 1.7-1.6 4.3-3.2 7.7-.6 1.2-1.2 2.3-1.7 3.4s-1.4 1.7-2.5 1.8c-.7-.1-1.3-.4-1.7-.8-.4-.4-.6-1-.6-1.7 0-.5 1.6-4.1 4.8-10.9.5-1 .9-2 1.3-2.8.4-1 1-1.6 1.8-1.6.4 0 1 .1 1.6.3zM22.7 1.5c3 2.1 4.9 3.6 5.9 4.7.6.5 1 1 1.1 1.8 0 .7-.2 1.3-.5 1.7-.4.5-1 .9-1.8 1-.5 0-1-.2-1.4-.6-1.9-1.7-3.9-3.4-6.1-4.9-.9-.6-1.4-1.2-1.4-1.8 0-.9.2-1.5.7-1.9.4-.4 1-.6 1.8-.6.4 0 .9.2 1.7.6zm18.5 12.3V7.4c-2.7.3-5.6.5-8.7.6-1.5-.1-2.1-1-2.1-2.6.1-1 .7-1.6 2-1.8C39.8 3.3 46.7 2.3 53 .7c.5-.1.9-.1 1.1-.1.6 0 1.1.2 1.5.7.4.5.6 1 .6 1.6 0 1-.5 1.7-1.6 2.1-1.7.6-4.7 1.2-8.9 1.8v7.1h10.5c.7 0 1.3.2 1.6.5.3.3.5.9.5 1.7 0 .7-.1 1.2-.4 1.6-.4.5-1 .7-1.7.7H45.8v5.9h7.4c2.1 0 3.2 1.1 3.2 3.2v10.3c0 2.1-1.1 3.2-3.2 3.2H34c-2.1 0-3.2-1.1-3.2-3.2V27.3c0-2.1 1-3.2 3.2-3.2h7.1v-5.9h-9.9c-.7 0-1.3-.2-1.6-.5-.4-.3-.5-.9-.5-1.8 0-.7.1-1.3.5-1.7.4-.3.9-.5 1.6-.5h10zm10.4 21.7v-6c0-.7-.4-1.1-1-1.1H36.7c-.7 0-1 .4-1 1.1v6c0 .7.3 1 1 1h13.8c.7 0 1.1-.3 1.1-1zm74.8.3c.2.2.3.3.4.5 1.6-3.1 2.8-6.7 3.7-10.8.8-4 1.2-8.4 1.2-13.4h-2.3c-.7 0-1.3-.2-1.6-.5-.4-.4-.5-1-.5-1.8 0-.6.1-1.2.5-1.6.4-.4.9-.5 1.6-.5h2.3V2c0-.6.2-1.1.6-1.5.4-.2.9-.4 1.5-.4.8 0 1.5.2 1.8.5.3.4.5.8.5 1.5v5.7h3.6c2.9 0 4.4 1.7 4.4 5 0 12.1-.2 19.6-.6 22.5-.2 2.2-.7 3.7-1.5 4.5-1 1-2.5 1.6-4.4 1.7-1.7 0-3-.4-3.9-.9-.8-.4-1.2-1.2-1.2-2.5.1-.6.3-1 .7-1.4.4-.4.9-.5 1.4-.5 0 0 .1 0 .3.1.9.5 1.8.6 2.7.6 1.1-.2 1.7-1.1 1.8-2.8.2-2.9.3-9.8.3-20.4 0-.6-.1-1-.4-1.2-.2-.1-.5-.2-.9-.2H136v.4c0 3.5-.2 7.3-.8 11.3-1 6.4-2.8 12-5.3 16.7-.5.4-1.2.6-2 .7-.7 0-1.3-.2-1.8-.6-.5-.4-.6-.9-.6-1.5h-.2l-19.7 1.8c-.7 0-1.2-.2-1.5-.6-.3-.3-.5-.7-.5-1.4 0-.5.1-1 .4-1.3.3-.4.8-.6 1.4-.6l7.6-.6v-2.9h-6.7c-.6 0-1.1-.1-1.4-.4-.3-.3-.4-.7-.4-1.4 0-.6.1-1 .4-1.4.3-.2.7-.4 1.4-.4h6.7v-2h-5.9c-2 0-3-1-3-3v-9.2c0-2 1-3 3-3h5.9v-2h-8c-.6 0-1.1-.1-1.5-.5-.4-.3-.5-.8-.5-1.5 0-.6.1-1.2.5-1.5.3-.3.8-.4 1.5-.4h8V4.9c-2.4.2-4.8.3-7.4.3-1.3-.1-2-.9-2-2.3.1-.9.7-1.4 1.8-1.6 6.7-.1 12.8-.5 18.5-1h1c.5 0 .9.2 1.3.6.3.4.5.9.5 1.4 0 .8-.5 1.4-1.4 1.8-1.5.3-4 .5-7.6.7v2.1h7.4c.7 0 1.2.1 1.5.4.3.3.4.8.4 1.5 0 .6-.1 1-.4 1.3-.4.5-.9.6-1.6.6h-7.4v2h6.4c2 0 3 1 3 3v9.2c0 2-1 3-3 3h-6.4v2h6.9c.6 0 1.1.1 1.4.4.3.2.4.7.4 1.4 0 .5-.1.9-.3 1.2-.3.4-.8.6-1.5.6h-6.9V36l7.1-.6c.9-.1 1.4.1 1.7.4zm-13.2-17.1v-2.5h-3.4c-.6 0-.9.3-.9.9v1.6h4.3zm0 3.1h-4.3v1.6c0 .6.3.9.9.9h3.4v-2.5zm4.6-3.1h4.8V17c0-.5-.3-.9-.9-.9h-3.9v2.6zm4.8 4.7v-1.6h-4.8v2.5h3.9c.5 0 .9-.2.9-.9zm71.3-17.9v-3c0-.7.1-1.3.5-1.6.3-.4.8-.5 1.6-.5.9 0 1.5.2 1.8.5.4.4.5.9.5 1.6v3h6.2v-3c0-.7.1-1.3.5-1.6.3-.4.8-.5 1.6-.5.9 0 1.5.2 1.8.5.4.4.5.9.5 1.6v3h1.3c.6 0 1.1.1 1.4.4.3.3.5.8.5 1.7 0 .7-.1 1.2-.3 1.5-.4.5-.9.6-1.6.6H209v18.5h1.4c.7 0 1.2.1 1.6.4.4.3.5.8.5 1.7 0 .8-.1 1.3-.3 1.6-.4.5-1 .7-1.8.7H192c-.6 0-1.2-.1-1.5-.5-.4-.3-.6-.9-.6-1.8 0-.8.2-1.4.6-1.7.3-.2.8-.4 1.5-.4h2V9.8h-1.6c-.6 0-1.1-.1-1.4-.5-.4-.3-.5-.8-.5-1.6s.2-1.4.5-1.7c.3-.2.7-.4 1.4-.4h1.5zm4.7 28.2c.6.5 1 1.1 1 1.8 0 .5-.2 1-.7 1.4-.5.5-1 1-1.5 1.4-1.3 1.2-2.5 2-3.6 2.7-.4.2-.7.4-1 .4-.8 0-1.5-.3-2-.7-.4-.5-.5-1-.5-1.6 0-.7.3-1.2 1-1.6 1.9-1.2 3.3-2.3 4.4-3.4.5-.5.8-.7.9-.8.1-.1.3-.1.4-.1.7 0 1.2.2 1.6.5zm6-20.4V9.8h-6.2v3.5h6.2zm0 7.5v-3.4h-6.2v3.4h6.2zm0 7.4v-3.4h-6.2v3.4h6.2zm21.2-25.7c2.1 0 3.2 1.1 3.2 3.2v31.4c0 1.5-.3 2.6-.9 3.1-.5.6-1.7 1-3.4 1-1.8 0-3-.1-3.6-.4-.8-.4-1.2-1-1.2-2 0-.5.1-1 .4-1.4.2-.4.5-.6.9-.6h2.6c.6 0 .9-.3.9-.7v-8.3h-6.9c-.4 4.9-1.1 8.8-2.2 11.8-.5 1.2-1.5 1.8-2.7 1.8-1.3-.1-2-.6-2.2-1.5-.1.2-.3.4-.4.5-.5.5-1.1.7-1.6.7-.4 0-.7-.1-1-.3-1.5-1.1-2.7-2.4-3.9-3.8-.3-.3-.5-.6-.6-.9-.2-.4-.4-.8-.4-1.2 0-.5.3-.9.7-1.3.4-.3.8-.5 1.3-.5.4.1.8.3 1.3.5.1.1.3.2.5.5.9 1 2 2 3.4 3 .4.3.6.5.7.6s.2.3.2.5c0-.2 0-.3.1-.5 1.3-3.6 2.1-7.3 2.5-11 .2-2.1.3-4.3.4-6.7V5.7c0-2.1 1-3.2 3.2-3.2h8.7zm-1 20.9v-6h-6.6v6.1h6.6zm0-10.4V7.5c0-.4-.1-.5-.4-.5h-5.7c-.4 0-.5.1-.5.4V13h6.6zm69.1-10v12.2c0 1.9-.8 2.9-2.3 2.9h-9.8v21.6c-.1 1.1-.9 1.7-2.3 1.8-1.5-.1-2.2-.7-2.3-1.8V3.2c0-1.5.7-2.3 2.3-2.3h12.1c1.6 0 2.3.7 2.3 2.1zm-4.6 4.8v-3h-7.4v3h7.4zm0 6.4v-2.9h-7.4v2.9h7.4zm12.6 6c2.4 0 3.5 1.2 3.5 3.5V34c0 2.4-1.2 3.6-3.5 3.6h-11.7c-2.4 0-3.5-1.2-3.5-3.6V23.8c0-2.4 1.2-3.5 3.5-3.5h11.7zm-.7 6.9v-2.5c0-.5-.3-.9-.9-.9h-8.5c-.6 0-.9.3-.9.9v2.5h10.3zm0 6.1v-2.7h-10.3v2.7c0 .6.3.9.9.9h8.5c.6-.1.9-.3.9-.9zm14.5-30v33.9c0 2.7-1.4 4.1-4.1 4.1-2 0-3.4-.2-4.2-.5-1.4-.5-2.1-1.2-2.1-2.2 0-.7.1-1.3.3-1.8.4-.5.9-.9 1.6-.9.2 0 .6.1 1.1.2.9.3 1.6.5 2.2.5.4 0 .5-.2.5-.5V18.1h-10.3c-1.3 0-2-.8-2-2.3V3.2c0-1.5.8-2.3 2.3-2.3h11.7c2.1 0 3 .8 3 2.3zm-4.6 4.6v-3h-7.6v3h7.6zm0 3.5h-7.6v2.9h7.6v-2.9zM22.9 80.7c-.5.4-1.1.6-1.8.6H6.4c-2 0-3.3-.1-3.8-.2C1.1 80.8.4 80 .4 78.6c0-1.6 1.2-3.3 3.7-5.1 2.2-1.5 5.4-3.8 9.8-6.9 2.5-1.8 3.7-3.3 3.7-4.5s-.7-2.1-2.2-2.6c-1-.4-2.2-.6-3.6-.6-2.8 0-5.2 1.3-7.1 3.8-.6.8-1.3 1.1-2 1.1-1.8 0-2.6-.8-2.6-2.4 0-.8.6-1.8 1.8-3.1 2.6-2.7 6-4 10-4 3 0 5.5.6 7.4 1.8 2.3 1.4 3.4 3.6 3.4 6.5 0 2-1.1 4-3.4 6-1.2 1-3.1 2.5-5.9 4.2-1.4.9-3.5 2.2-6.2 4h14c.7 0 1.3.2 1.8.6.5.4.7 1 .7 1.6 0 .8-.3 1.3-.8 1.7zm26.6-2.6c-2 2.7-5 4-8.9 4-3.9 0-6.9-1.4-8.9-4-1.8-2.4-2.8-5.6-2.8-9.7 0-4 .9-7.3 2.6-9.8 2-2.8 5-4.2 8.9-4.2s6.9 1.4 9 4.2c1.9 2.5 2.8 5.8 2.8 9.8.1 4.1-.8 7.3-2.7 9.7zM45.8 62c-1.2-2-3-3-5.4-3-4.3 0-6.4 3.2-6.4 9.4 0 6.1 2.2 9.1 6.6 9.1 4.4 0 6.6-3 6.6-9.1 0-2.6-.5-4.7-1.4-6.4zm34.7 18.7c-.5.4-1.1.6-1.8.6H64c-2 0-3.3-.1-3.8-.2-1.5-.3-2.2-1.1-2.2-2.4 0-1.6 1.2-3.3 3.7-5.1 2.2-1.5 5.4-3.8 9.8-6.9 2.5-1.8 3.7-3.3 3.7-4.5s-.7-2.1-2.2-2.6c-1-.4-2.2-.6-3.6-.6-2.8 0-5.2 1.3-7.1 3.8-.6.8-1.3 1.1-2 1.1-1.8 0-2.6-.8-2.6-2.4 0-.8.6-1.8 1.8-3.1 2.6-2.7 6-4 10-4 3 0 5.5.6 7.4 1.8 2.3 1.4 3.4 3.6 3.4 6.5 0 2-1.1 4-3.4 6-1.2 1-3.1 2.5-5.9 4.2-1.4.9-3.5 2.2-6.2 3.9h14c.7 0 1.3.2 1.8.6.5.4.7 1 .7 1.6-.1.8-.3 1.3-.8 1.7zm29.9-4.2c-.4.4-.9.6-1.6.6H106v2.6c0 1.6-.8 2.4-2.2 2.4-1.4 0-2.3-.6-2.6-1.6-.1-.3-.2-1.5-.2-3.4H88.5c-2.1 0-3.2-.8-3.2-2.6 0-.7.6-1.8 1.7-3.2l11.8-14.8c.6-.8 1.2-1.4 1.8-1.7.6-.4 1.4-.6 2.4-.6s1.7.4 2.2 1.1c.5.7.8 1.6.8 2.6v14.6h2.8c.6 0 1.2.2 1.6.7.4.5.6 1 .6 1.6 0 .8-.2 1.3-.6 1.7zm-9.5-14.9-8.7 11h8.7v-11zm21.9 19c-.8.7-1.7 1.1-2.8 1.1-1.1 0-2.1-.4-2.8-1.1-.8-.7-1.2-1.5-1.2-2.5s.4-1.8 1.2-2.5c.8-.7 1.7-1 2.8-1 1.1 0 2 .4 2.8 1 .8.7 1.2 1.6 1.2 2.5 0 1-.4 1.8-1.2 2.5zm16.4.6c-.5.5-1.2.8-1.9.8-1.8 0-2.7-.9-2.7-2.7V60.9c-1.5.9-2.6 1.4-3.4 1.4-.7 0-1.2-.2-1.7-.6-.5-.4-.7-1-.7-1.6 0-1.2.5-2 1.5-2.6l4.5-2.4c.8-.4 1.6-.6 2.5-.6 1.7 0 2.6 1 2.6 2.9v21.9c0 .8-.2 1.4-.7 1.9zm16.8-.6c-.8.7-1.7 1.1-2.8 1.1-1.1 0-2.1-.4-2.8-1.1-.8-.7-1.2-1.5-1.2-2.5s.4-1.8 1.2-2.5c.8-.7 1.7-1 2.8-1 1.1 0 2 .4 2.8 1 .8.7 1.2 1.6 1.2 2.5-.1 1-.5 1.8-1.2 2.5zm17.2.6c-.5.5-1.2.8-1.9.8-1.8 0-2.7-.9-2.7-2.7V60.9c-1.5.9-2.6 1.4-3.4 1.4-.7 0-1.2-.2-1.7-.6-.5-.4-.7-1-.7-1.6 0-1.2.5-2 1.5-2.6l4.5-2.4c.8-.4 1.6-.6 2.5-.6 1.7 0 2.6 1 2.6 2.9v21.9c0 .8-.3 1.4-.7 1.9zm29.4-12.1c-1.2.8-2.3 1.2-3.4 1.2-1.2 0-2.8-.6-4.6-1.8-1.9-1.1-3-1.7-3.2-1.7-.4 0-1 .4-1.7 1-.8.6-1.4 1-2 1-.6 0-1-.2-1.4-.7-.4-.4-.6-1-.6-1.6 0-1 .6-2 2-3 1.2-.9 2.3-1.3 3.4-1.3 1.2 0 2.7.6 4.5 1.7 1.8 1.2 2.9 1.7 3.2 1.7.5 0 1.1-.3 1.8-1 .7-.6 1.2-1 1.7-1 .6 0 1.1.2 1.6.7.4.5.6 1 .6 1.6 0 1.4-.6 2.4-1.9 3.2zm20.1 12.1c-.5.5-1.2.8-1.9.8-1.8 0-2.7-.9-2.7-2.7V60.9c-1.5.9-2.6 1.4-3.4 1.4-.7 0-1.2-.2-1.7-.6-.5-.4-.7-1-.7-1.6 0-1.2.5-2 1.5-2.6l4.5-2.4c.8-.4 1.6-.6 2.5-.6 1.7 0 2.6 1 2.6 2.9v21.9c0 .8-.2 1.4-.7 1.9zm34.5-.5c-.5.4-1.1.6-1.8.6h-14.7c-2 0-3.3-.1-3.8-.2-1.5-.3-2.2-1.1-2.2-2.5 0-1.6 1.2-3.3 3.7-5.1 2.2-1.5 5.4-3.8 9.8-6.9 2.5-1.8 3.7-3.3 3.7-4.5s-.7-2.1-2.2-2.6c-1-.4-2.2-.6-3.6-.6-2.8 0-5.2 1.3-7.1 3.8-.6.8-1.3 1.1-2 1.1-1.8 0-2.6-.8-2.6-2.4 0-.8.6-1.8 1.8-3.1 2.6-2.7 6-4 10-4 3 0 5.5.6 7.4 1.8 2.3 1.4 3.4 3.6 3.4 6.5 0 2-1.1 4-3.4 6-1.2 1-3.1 2.5-5.9 4.2-1.4.9-3.5 2.2-6.2 3.9h14c.7 0 1.3.2 1.8.6.5.4.7 1 .7 1.6-.1.9-.3 1.4-.8 1.8zm16.7-.1c-.8.7-1.7 1.1-2.8 1.1-1.1 0-2.1-.4-2.8-1.1-.8-.7-1.2-1.5-1.2-2.5s.4-1.8 1.2-2.5c.8-.7 1.7-1 2.8-1 1.1 0 2 .4 2.8 1 .8.7 1.2 1.6 1.2 2.5-.1 1-.5 1.8-1.2 2.5zm30.6-.2c-2.1 1.1-4.8 1.7-8 1.7-2.1 0-4.2-.4-6.2-1.1-2.2-.8-4-1.8-5.4-3.2-.8-.7-1.2-1.5-1.2-2.4 0-.6.2-1.2.7-1.6.5-.4 1-.6 1.7-.6.8 0 1.8.4 2.8 1.2 2.6 2 5.3 3 7.9 3 1.4 0 2.8-.2 4-.7 1.6-.6 2.4-1.6 2.4-2.8 0-2.6-1.7-4-5-4h-4.7c-1.6 0-2.4-.8-2.4-2.3 0-1.5.9-2.3 2.6-2.3.4 0 .9 0 1.7.1h1.7c3.2 0 4.8-1.2 4.8-3.5 0-1-.7-1.8-2.1-2.4-1-.4-2.2-.6-3.4-.6-2.8 0-5 .6-6.8 1.8-1.4 1-2.2 1.4-2.5 1.4-1.7 0-2.6-.7-2.6-2.2 0-.9.4-1.7 1.1-2.4.4-.4 1.2-.8 2.3-1.4 2.4-1.2 5.1-1.8 8.2-1.8 2.7 0 5 .5 7 1.5 2.5 1.3 3.7 3.2 3.7 5.6 0 2.3-1.2 4.2-3.4 5.7 1.4.6 2.6 1.4 3.5 2.6.9 1.2 1.4 2.6 1.4 4.1.1 3-1.2 5.2-3.8 6.6zm20.9.8c-.5.5-1.2.8-1.9.8-1.8 0-2.7-.9-2.7-2.7V60.9c-1.5.9-2.6 1.4-3.4 1.4-.7 0-1.2-.2-1.7-.6-.5-.4-.7-1-.7-1.6 0-1.2.5-2 1.5-2.6l4.5-2.4c.8-.4 1.6-.6 2.5-.6 1.7 0 2.6 1 2.6 2.9v21.9c.1.8-.2 1.4-.7 1.9z" style="fill:#1c75bc"/>
</svg>
